<svg xmlns="http://www.w3.org/2000/svg" fill="none" viewBox="0 0 200 200" height="700" width="700"><path fill="#def6f8" d="M145.641 169.365C145.683 165.542 145.641 161.719 145.62 157.89C145.577 151.455 146.105 144.837 145.436 138.417C144.993 134.178 143.148 130.37 143.078 126.047C142.878 114.213 144.908 102.801 142.378 91.0162C141.167 85.3982 139.069 79.2302 134.43 75.2882C129.246 70.8972 125.787 71.3092 123.857 71.0882C122.986 69.729 121.787 68.6107 120.37 67.8362C119.083 67.1572 117.757 66.5529 116.4 66.0262C116.3 65.9842 114.492 65.2032 114.492 65.1602L113.725 65.1812C114.056 66.6102 114.872 67.9132 115.337 69.3072C116.386 72.4612 117.437 78.2481 115.921 81.4371C115.837 81.6545 115.695 81.8444 115.51 81.9857C115.325 82.1269 115.104 82.214 114.872 82.2372C114.948 83.6822 119.884 94.4662 117.449 119.422C117.149 122.443 116.794 125.463 116.203 128.434C116.111 128.92 115.956 130.834 115.379 131.067C114.231 131.506 113.837 121.694 102.479 96.8732C102.338 96.5632 102.141 95.6552 102.042 95.8102L101.873 95.7322C100.963 97.5962 101.149 97.1801 100.529 98.4221C97.929 103.561 96.966 109.834 93.229 113.643L93.68 113.995C94.4963 116.351 94.4538 118.919 93.56 121.246C93.06 122.485 92.229 123.546 91.617 124.724C90.624 126.624 90.138 128.765 88.927 130.553C86.308 134.418 81.197 136.305 76.72 136.685C72.9929 136.955 69.2828 135.969 66.181 133.885C66.357 135.42 66.631 138.278 66.836 139.813C67.413 144.1 68.462 148.648 68.187 152.985C68.054 155.139 66.737 156.8 66.462 158.877C66.138 161.32 66.681 163.812 66.362 166.29C65.806 170.698 64.524 174.999 63.891 179.406C63.384 182.891 62.251 188.34 64.32 191.558C65.376 193.191 69.82 194.711 71.149 192.649C72.156 191.086 72.142 188.734 72.578 186.967C72.684 186.545 73.289 183.419 74.064 183.609C74.711 183.764 74.697 185.77 74.747 186.235C74.979 188.403 74.847 191.543 77.274 192.501C81.364 194.113 86.588 193.775 90.897 194.134C101.52 195.021 112.158 195.599 122.732 193.881C126.656 193.347 130.484 192.256 134.1 190.64C137.926 188.815 139.412 187.129 138.394 181.08C138.244 180.17 137.945 178.666 137.76 177.763C139.941 177.689 142.104 177.348 144.202 176.75C144.592 176.625 144.944 176.402 145.223 176.102C146.345 174.666 145.62 170.984 145.641 169.365ZM117.206 154.581C116.719 154.581 116.242 154.437 115.837 154.166C115.432 153.895 115.116 153.51 114.93 153.06C114.743 152.61 114.694 152.114 114.789 151.636C114.884 151.158 115.119 150.719 115.464 150.375C115.808 150.03 116.247 149.796 116.725 149.701C117.203 149.605 117.699 149.654 118.149 149.841C118.599 150.027 118.984 150.343 119.255 150.748C119.526 151.153 119.67 151.63 119.67 152.117C119.67 152.771 119.41 153.397 118.948 153.859C118.486 154.322 117.86 154.581 117.206 154.581Z"></path><path fill="#00bac7" d="M182 114.016C182 114.016 164.6 114.023 164.484 114.03C163.294 114.115 162.18 114.649 161.368 115.522C160.555 116.396 160.104 117.545 160.105 118.739V128.722C160.105 129.342 160.227 129.956 160.464 130.53C160.702 131.103 161.05 131.624 161.488 132.062C161.927 132.501 162.448 132.849 163.021 133.086C163.594 133.324 164.209 133.446 164.829 133.446H182C182.621 133.446 183.236 133.325 183.81 133.088C184.384 132.851 184.905 132.503 185.345 132.064C185.784 131.625 186.133 131.104 186.37 130.531C186.608 129.957 186.731 129.343 186.731 128.722V118.739C186.731 118.118 186.609 117.503 186.371 116.929C186.133 116.356 185.784 115.835 185.345 115.396C184.905 114.957 184.384 114.61 183.81 114.373C183.236 114.136 182.621 114.015 182 114.016ZM173.9 119.544C174.502 119.516 175.09 119.729 175.535 120.135C175.981 120.541 176.246 121.108 176.274 121.71C176.291 122.172 176.168 122.629 175.922 123.022C175.676 123.414 175.318 123.723 174.894 123.91H174.88V127.092H173.226V123.952C172.732 123.772 172.316 123.427 172.048 122.975C171.78 122.523 171.677 121.992 171.756 121.473C171.836 120.953 172.093 120.477 172.484 120.126C172.875 119.775 173.375 119.57 173.9 119.547V119.544Z"></path><path fill="#def6f8" d="M179.525 48.5505V61.9265C179.527 62.5453 179.406 63.1583 179.171 63.7306C178.936 64.3029 178.59 64.8232 178.153 65.2619C177.717 65.7006 177.198 66.049 176.627 66.2872C176.056 66.5255 175.444 66.6489 174.825 66.6505H153.554C152.934 66.6516 152.319 66.5304 151.746 66.2939C151.172 66.0575 150.651 65.7104 150.212 65.2725C149.772 64.8345 149.424 64.3143 149.185 63.7416C148.947 63.1689 148.824 62.5548 148.823 61.9345V48.5505C148.826 47.2972 149.325 46.0961 150.212 45.2106C151.099 44.325 152.301 43.8273 153.554 43.8265C176.267 43.8165 174.886 43.8155 175.223 43.8475C176.397 43.9537 177.49 44.495 178.286 45.3651C179.082 46.2352 179.524 47.3713 179.525 48.5505ZM167.472 52.8645C167.46 52.1702 167.172 51.5091 166.673 51.0268C166.173 50.5444 165.502 50.2803 164.808 50.2925C164.114 50.3047 163.453 50.5922 162.97 51.0918C162.488 51.5914 162.224 52.2622 162.236 52.9565C162.229 53.5055 162.391 54.0433 162.699 54.4978C163.007 54.9522 163.447 55.3015 163.959 55.4985V59.1805H165.867V55.4425C166.359 55.2192 166.774 54.8553 167.06 54.3965C167.345 53.9377 167.489 53.4047 167.472 52.8645Z"></path><path fill="#0e2238" d="M173.231 123.948C172.731 123.766 172.31 123.416 172.04 122.956C171.771 122.497 171.671 121.958 171.756 121.433C171.842 120.907 172.109 120.428 172.51 120.078C172.911 119.729 173.422 119.53 173.954 119.516C174.486 119.503 175.006 119.676 175.425 120.005C175.843 120.334 176.133 120.799 176.245 121.32C176.357 121.84 176.284 122.383 176.038 122.856C175.793 123.328 175.39 123.699 174.899 123.906H174.885V127.088H173.231V123.948Z"></path><path fill="#00bac7" d="M165.867 55.4423V59.1803H163.959V55.5003C163.292 55.2385 162.757 54.7231 162.469 54.0671C162.182 53.411 162.166 52.6678 162.426 52.0003C162.609 51.5213 162.926 51.1051 163.339 50.8015C163.752 50.4979 164.243 50.3197 164.755 50.2882C165.103 50.278 165.45 50.3368 165.776 50.4614C166.101 50.5859 166.399 50.7736 166.652 51.0138C166.904 51.2539 167.107 51.5417 167.248 51.8605C167.388 52.1793 167.465 52.5228 167.472 52.8713C167.489 53.4105 167.345 53.9426 167.06 54.4003C166.774 54.8579 166.359 55.2205 165.867 55.4423V55.4423Z"></path><path fill="#00bac7" d="M183 109.535C183 114.503 183.013 113.953 182.972 114.114C182.187 113.994 181.392 113.96 180.6 114.014V109.814C180.576 108.016 179.844 106.3 178.563 105.039C177.282 103.777 175.555 103.071 173.757 103.074C171.959 103.076 170.235 103.788 168.958 105.053C167.68 106.319 166.954 108.037 166.935 109.835V114.017C164.552 114.017 164.795 114.012 164.492 114.031V109.539C164.492 107.085 165.467 104.731 167.202 102.996C168.938 101.26 171.292 100.285 173.746 100.285C176.2 100.285 178.554 101.26 180.29 102.996C182.025 104.731 183 107.085 183 109.539V109.535Z"></path><path fill="#00bac7" d="M182.517 156.445C182.117 156.57 180.211 156.979 180.039 157.016C178.553 157.316 176.561 158.016 175.033 157.706C174.301 157.558 173.815 156.776 173.076 156.727C172.309 156.671 171.696 157.41 170.922 157.199C169.457 156.804 168.38 155.812 166.761 155.882C163.1 156.03 161.277 159.599 162.417 162.859C163.438 165.802 166.891 168.259 169.817 166.28C170.598 165.725 171.273 165.034 171.81 164.239C172.055 163.895 172.338 163.373 172.746 163.204C173.394 162.936 173.675 164.739 174.506 164.091C175.062 163.654 175.119 162.648 175.206 162C175.256 161.649 175.255 161.148 175.593 161.036C176.072 160.93 176.91 162.197 177.466 162.253C178.445 162.359 178.226 160.641 178.951 160.444C179.634 160.268 180.12 161.894 180.951 161.451C181.598 161.106 181.257 160.079 181.789 159.663C182.389 159.19 183.032 159.516 184.4 158.931C186.065 157.846 185.192 156.136 182.517 156.445ZM166.289 162.545C166.147 162.773 165.94 162.953 165.696 163.064C165.451 163.174 165.179 163.21 164.914 163.166C164.649 163.123 164.403 163.002 164.207 162.819C164.011 162.636 163.873 162.399 163.811 162.138C163.749 161.876 163.766 161.603 163.859 161.351C163.952 161.099 164.118 160.881 164.335 160.723C164.552 160.565 164.811 160.475 165.079 160.464C165.347 160.453 165.613 160.521 165.842 160.66C165.996 160.754 166.129 160.877 166.235 161.023C166.341 161.168 166.416 161.333 166.458 161.508C166.5 161.683 166.506 161.865 166.477 162.042C166.448 162.22 166.384 162.39 166.289 162.542V162.545Z"></path><path fill="#00bac7" d="M153.878 38.3779C153.864 36.9676 154.13 35.5687 154.66 34.2619C155.191 32.9551 155.975 31.7663 156.967 30.7642C157.959 29.7622 159.141 28.9668 160.442 28.4239C161.744 27.8811 163.14 27.6016 164.55 27.6016C165.961 27.6016 167.357 27.8811 168.659 28.4239C169.96 28.9668 171.141 29.7622 172.134 30.7642C173.126 31.7663 173.91 32.9551 174.44 34.2619C174.971 35.5687 175.237 36.9676 175.223 38.3779V43.8479C174.905 43.8159 174.872 43.8269 172.449 43.8269V37.7159C172.449 35.9234 171.737 34.2044 170.47 32.9369C169.202 31.6694 167.483 30.9571 165.691 30.9569H163.466C161.669 30.9585 159.946 31.6735 158.676 32.9449C157.406 34.2163 156.693 35.9399 156.694 37.7369V43.8269H153.878V38.3779Z"></path><path fill="#00bac7" d="M147.281 24.6053C146.964 24.2553 145.804 22.7053 145.528 22.3243C144.514 20.9443 142.839 19.1983 142.479 17.5513C142.318 16.7623 142.944 15.9813 142.67 15.2283C142.37 14.4283 141.29 14.0873 141.163 13.2353C140.931 11.6163 141.529 10.1733 140.72 8.5613C138.889 4.9423 134.12 4.4353 131.06 6.7793C128.301 8.8993 127.173 13.2793 130.68 15.4793C131.654 16.0729 132.724 16.4943 133.841 16.7253C134.395 16.7921 134.926 16.9821 135.397 17.2813C135.982 17.8303 134.13 18.7813 135.221 19.3723C136.078 19.63 136.996 19.6079 137.84 19.3093C140.461 18.7973 138.291 20.7603 138.593 21.6673C138.842 22.4383 139.91 22.1483 140.66 22.2343C141.267 22.3033 141.514 22.6153 141.253 23.2103C141.006 23.7703 140.478 24.4173 141.064 24.8713C141.954 25.5563 143.107 24.1653 144.064 25.6713C144.411 26.3225 144.865 26.9104 145.408 27.4103C147.358 28.6883 148.851 27.1753 147.281 24.6053ZM135.052 9.40529C134.934 9.79066 134.679 10.1191 134.334 10.3278C133.989 10.5365 133.58 10.6108 133.184 10.5366C132.788 10.4623 132.433 10.2447 132.187 9.92528C131.941 9.60588 131.822 9.20714 131.852 8.80529C131.97 8.41993 132.225 8.0915 132.57 7.88279C132.915 7.67409 133.324 7.59976 133.72 7.67402C134.116 7.74828 134.471 7.96591 134.717 8.28531C134.962 8.60471 135.082 9.00345 135.052 9.40529V9.40529Z"></path><path fill="#ffffff" d="M138.389 181.08L138.608 181.045C139.931 181.312 142.275 181.199 143.43 180.27L143.465 180.305C143.403 181.976 142.848 183.591 141.869 184.947C140.89 186.303 139.532 187.338 137.965 187.923L137.838 187.831C139.008 185.984 138.752 183.232 138.389 181.08Z"></path><path fill="#00bac7" d="M143.705 180.01C143.622 180.105 143.53 180.192 143.43 180.27C141.962 181.433 139.38 181.11 138.389 181.08C138.199 179.932 137.953 178.798 137.755 177.763C139.936 177.688 142.099 177.348 144.197 176.75C144.429 177.861 144.255 179.017 143.705 180.01V180.01Z"></path><path fill="#00bac7" d="M135.721 115.699C135.742 116.699 135.742 117.706 135.721 118.705L135.421 118.698C133.489 119.435 131.407 119.696 129.353 119.459C127.972 119.296 126.893 118.616 127.03 117.044C127.095 116.291 127.988 116.401 128.677 116.389C130.28 116.363 131.881 116.245 133.471 116.037C133.626 116.017 135.245 115.91 135.302 115.706L135.721 115.699Z"></path><path fill="#00bac7" d="M117.206 149.652C117.693 149.652 118.17 149.797 118.575 150.068C118.98 150.338 119.296 150.723 119.482 151.173C119.669 151.624 119.718 152.119 119.623 152.597C119.528 153.075 119.293 153.514 118.948 153.859C118.604 154.203 118.165 154.438 117.687 154.533C117.209 154.628 116.713 154.579 116.263 154.393C115.813 154.206 115.428 153.89 115.157 153.485C114.886 153.08 114.742 152.604 114.742 152.116C114.742 151.463 115.002 150.836 115.464 150.374C115.926 149.912 116.552 149.652 117.206 149.652V149.652Z"></path><path fill="#ffffff" d="M115.453 34.9824C115.499 35.6918 115.368 36.4016 115.071 37.0476C114.774 37.6936 114.321 38.2555 113.753 38.6824C113.76 37.8094 113.767 36.9364 113.795 36.0634C114.252 35.5746 114.821 35.2037 115.453 34.9824V34.9824Z"></path><path fill="#0e2238" d="M114.087 32.3008C114.847 33.0036 115.332 33.9546 115.453 34.9828C114.823 35.2039 114.256 35.5737 113.8 36.0608C113.824 34.7678 113.945 33.6568 114.087 32.3008Z"></path><path fill="#ffffff" d="M117.91 35.2445C117.889 35.2235 117.86 35.2025 117.839 35.1805C117.488 34.9539 117.087 34.8172 116.671 34.7823C116.255 34.7475 115.836 34.8155 115.453 34.9805C115.499 35.6899 115.368 36.3997 115.071 37.0457C114.775 37.6918 114.321 38.2536 113.753 38.6805C113.773 41.0677 113.547 43.4507 113.077 45.7915L113.277 45.8335C119.2 44.4535 120.352 37.3105 117.91 35.2445Z"></path><path fill="#0e2238" d="M117.769 109.4C115.868 102.44 113.354 95.6619 110.257 89.1456C108.65 86.1766 108.921 86.8396 109.708 84.5766C110.046 83.6186 110.426 80.6626 109.637 79.1066L109.856 78.8946C107.868 76.8246 106.493 75.0156 104.856 75.1216C103.82 75.3706 102.907 75.9795 102.279 76.8396C101.745 77.4173 101.242 78.0236 100.773 78.6556L100.857 78.7196C101.106 80.8722 101.768 82.9564 102.808 84.8576C103.526 86.1176 104.679 86.8686 105.008 88.3216C105.533 90.8786 104.361 94.4666 105.24 102.846L105.149 102.888C108.856 111.397 111.954 120.158 114.421 129.106C114.484 129.345 114.907 131.26 115.385 131.077C115.962 130.845 116.117 128.93 116.209 128.444C117.307 122.153 117.936 115.79 118.089 109.407L117.769 109.4Z"></path><path fill="#def6f8" d="M96.353 84.7561C96.395 84.6931 96.443 85.0801 96.494 85.2211C96.707 85.8111 97.694 88.0441 98.127 88.9941L98.606 89.1941C97.9544 89.9663 97.3703 90.793 96.86 91.6651C96.0154 93.1246 94.8278 94.3561 93.4 95.2531C93.153 95.0341 93.118 93.8241 93.076 93.5911C92.4137 89.8825 91.9742 86.1374 91.76 82.3761L91.865 82.3691C92.513 83.2281 94.104 84.8861 95.308 84.8401C95.5092 84.8321 95.7072 84.7871 95.892 84.7071L96.353 84.7561Z"></path><path fill="#def6f8" d="M93.6849 114C94.5108 116.354 94.4682 118.925 93.5649 121.251C92.9788 122.443 92.3303 123.604 91.6219 124.729C90.6299 126.629 90.1439 128.77 88.9319 130.558C86.3139 134.423 81.2049 136.337 76.7249 136.69C72.9976 136.962 69.2867 135.976 66.1859 133.89C60.1479 129.879 54.4859 122.6 52.8099 115.424C51.8979 111.524 52.2839 107.584 51.9859 103.631C51.4279 96.2458 48.5679 91.4088 50.8519 86.1928C51.5851 84.4978 52.8963 83.1181 54.5519 82.2998L54.9249 82.2578C55.4809 87.7348 57.8249 89.5448 59.8099 94.0218C62.5609 100.222 63.4849 114.009 70.7229 117.768L70.6949 118.247C71.078 119.088 71.5176 119.902 72.0109 120.683C72.7273 121.669 73.6517 122.485 74.7186 123.074C75.7856 123.662 76.969 124.009 78.1849 124.09C83.3389 124.681 88.5899 120.408 90.5759 115.931L90.4419 115.691C91.4798 115.164 92.4254 114.472 93.2419 113.643L93.6849 114Z"></path><path fill="#ffffff" d="M87.2999 116.768C85.4756 116.996 83.6384 117.105 81.7999 117.092L81.5889 116.719C79.6839 117.891 77.5208 118.578 75.2889 118.719C63.7729 119.319 63.0009 101.219 59.8069 94.0305C57.8199 89.5535 55.4779 87.7435 54.9219 82.2665C54.8592 81.9356 54.8811 81.5942 54.9856 81.274C55.09 80.9538 55.2736 80.6652 55.5194 80.4349C55.7652 80.2046 56.0651 80.0401 56.3914 79.9566C56.7177 79.8732 57.0598 79.8735 57.3859 79.9575C57.8209 80.0377 58.2366 80.1999 58.6109 80.4355C61.2469 82.0765 61.6259 85.1985 63.3419 87.6355C63.5939 87.9955 65.5329 90.7635 66.1929 89.7905C66.9559 88.6655 65.9929 86.2695 65.6089 85.1715C64.1329 80.9235 62.0139 76.9715 60.4409 72.7535C59.7789 70.9795 58.3509 67.9955 60.3989 66.5855C64.3719 63.8505 66.2619 69.7375 67.3829 72.7605C67.7569 73.7685 68.9829 76.7445 70.1069 79.1105C70.5159 79.9695 71.8469 83.6315 73.3069 83.2105C75.0259 82.7105 73.7069 77.9315 73.5259 76.9305C73.0999 74.6375 71.5629 66.3705 71.2869 64.5195C71.0349 62.8295 70.6099 60.4915 72.0819 59.2035C74.6509 56.9565 76.6019 60.2245 77.1089 62.4035C78.2709 67.4035 78.5279 71.2535 80.1649 76.8495C80.5409 78.1365 81.2419 80.8395 82.8959 81.1015C84.5299 81.3605 85.0699 78.9355 85.2549 77.8065C86.0309 73.0615 85.3299 70.8355 86.0289 66.0995C86.1855 65.1012 86.606 64.1628 87.2469 63.3815C87.3767 63.1939 87.5422 63.0337 87.7339 62.91C87.9256 62.7864 88.1398 62.7017 88.3643 62.6608C88.5887 62.62 88.819 62.6237 89.042 62.6719C89.265 62.72 89.4763 62.8117 89.6639 62.9415C91.2009 64.0055 91.3169 66.4415 91.3439 68.4225C91.4709 77.7145 91.5789 85.3665 93.0689 93.5905C93.1109 93.8235 93.1459 95.0335 93.3929 95.2525C94.8225 94.3551 96.0116 93.1225 96.8569 91.6615C97.3687 90.7904 97.9527 89.9638 98.6029 89.1905C98.9852 88.7351 99.483 88.3909 100.044 88.1941C100.605 87.9972 101.209 87.9549 101.792 88.0715C104.91 88.6715 102.956 93.4855 101.876 95.7375C101.731 96.0375 100.857 97.7805 100.532 98.4275C96.9809 105.488 96.4049 115.017 87.2999 116.768Z"></path><path fill="#ffffff" d="M114.831 82.2365C115.072 82.2265 115.305 82.1452 115.499 82.0027C115.694 81.8603 115.842 81.6632 115.924 81.4365C117.445 78.2475 116.389 72.4605 115.34 69.3065C114.759 67.5635 113.668 66.0345 113.587 64.1675C113.479 61.4435 113.408 59.6775 109.863 59.1895C109.781 61.4602 109.827 63.7338 110 65.9995C107.641 69.5335 104.469 73.6195 100.066 72.9555C98.5336 72.7093 97.0675 72.1533 95.7571 71.3215C94.3503 70.5074 93.0417 69.5343 91.8571 68.4215L91.3501 68.4285C91.4341 72.5995 91.5191 78.2415 91.7591 82.3815L91.8641 82.3745C92.5121 83.2335 94.1031 84.8815 95.3071 84.8455C95.6422 84.8391 95.9642 84.7144 96.2161 84.4935C96.6681 85.6565 97.2161 86.9935 98.1301 88.9995L98.6091 89.1995C98.9887 88.7406 99.4862 88.394 100.048 88.1968C100.61 87.9997 101.215 87.9594 101.798 88.0805C104.924 88.6435 102.945 93.4875 101.882 95.7465L102.051 95.8245C102.151 95.6695 102.351 96.5775 102.488 96.8875C103.188 98.4285 103.916 99.9485 105.149 102.892L105.24 102.85C104.198 92.9195 106.053 89.5145 104.515 87.1585C104.001 86.3585 103.269 85.6655 102.815 84.8585C101.794 82.8956 101.129 80.7674 100.85 78.5725C101.299 77.9708 101.778 77.3927 102.286 76.8405C102.914 75.9803 103.828 75.3714 104.863 75.1225C106.477 75.0175 107.77 76.7135 109.838 78.8705L109.643 79.1075C110.432 80.6635 110.052 83.6195 109.714 84.5775C109.37 85.195 109.161 85.8788 109.101 86.5835C109.317 87.5056 109.712 88.3765 110.263 89.1465C113.36 95.6627 115.874 102.441 117.775 109.4L118.092 109.407C118.542 92.0615 115.089 83.5665 114.831 82.2365Z"></path><path fill="#ffffff" d="M86.5001 58.0675C88.8133 60.2929 91.6478 61.9023 94.7441 62.7485C96.0772 63.0864 97.4602 63.1819 98.8271 63.0305C104.072 62.4995 107.69 59.0305 110.049 54.6035L110.154 54.6595C109.783 58.4284 109.732 62.2219 110 65.9995C105.878 72.1755 102.121 75.1415 95.7571 71.3215C94.3573 70.4968 93.0499 69.5246 91.8571 68.4215L91.3501 68.4285C91.3361 66.4715 91.1741 64.0915 89.8441 63.0845C89.6607 62.9195 89.4443 62.7954 89.2093 62.7204C88.9743 62.6455 88.726 62.6214 88.4809 62.6498C88.2358 62.6781 87.9996 62.7583 87.7879 62.885C87.5762 63.0117 87.3939 63.182 87.2531 63.3845C86.8941 62.7675 87.1681 63.6625 86.5911 59.4495C86.504 59.0613 86.4372 58.6687 86.3911 58.2735C86.3868 58.2388 86.3942 58.2036 86.4121 58.1735L86.5001 58.0675Z"></path><path fill="#ffffff" d="M86.588 59.4475C87.165 63.6615 86.888 62.7655 87.25 63.3825C86.6093 64.1635 86.1888 65.1015 86.032 66.0995C85.7564 68.0958 85.6364 70.1105 85.673 72.1255L85.152 72.1185C83.124 68.9925 82.459 66.4765 83.181 63.2055C83.408 62.1745 84.602 58.0555 85.595 58.2635L86.395 58.2705C86.4378 58.666 86.5022 59.059 86.588 59.4475V59.4475Z"></path><path fill="#def6f8" d="M83.138 63.1992L83.181 63.2062C82.47 66.4802 83.124 68.9932 85.152 72.1192L85.673 72.1262C85.6935 74.0281 85.5547 75.9285 85.258 77.8072C85.073 78.9362 84.533 81.3612 82.899 81.1022C81.245 80.8402 80.544 78.1372 80.168 76.8502C79.2117 73.49 78.4768 70.0706 77.968 66.6142C79.2055 65.9669 80.3813 65.2081 81.481 64.3472C81.567 64.2802 83.027 63.1992 83.138 63.1992Z"></path><path fill="#ffffff" d="M112.644 22.2997C110.468 19.5677 105.026 21.3637 102.154 21.5607C96.2821 21.9827 87.8541 21.6027 81.7371 19.4277C81.6951 19.5657 77.8491 24.8837 79.2521 34.5147C80.2071 41.0637 79.6521 42.3147 79.6961 45.2367C79.6741 49.9667 82.9761 54.8707 86.5041 58.0707C88.8173 60.2961 91.6518 61.9055 94.7481 62.7517C96.0812 63.0896 97.4642 63.1851 98.8311 63.0337C104.076 62.5057 107.694 59.0337 110.053 54.6067C114.383 46.2437 113.616 38.7767 113.84 35.0137C114.073 30.9907 115.383 25.7527 112.644 22.2997Z"></path><path fill="#ffffff" d="M79.6999 45.2347H79.5729C76.2429 44.4457 71.1429 40.7567 73.8069 36.9407C74.1716 36.3707 74.7063 35.9301 75.3354 35.6811C75.9646 35.4322 76.6561 35.3876 77.3119 35.5537C78.1066 35.7428 78.8811 36.008 79.6249 36.3457C79.9297 39.2997 79.9548 42.2759 79.6999 45.2347V45.2347Z"></path><path fill="#0e2238" d="M81.7369 19.4245C80.0172 22.4306 79.0883 25.8238 79.0369 29.2865C78.943 31.6276 79.103 33.9719 79.5139 36.2785C78.3683 35.8513 77.164 35.6017 75.9429 35.5385V35.1585C74.3379 33.8585 73.5049 30.6885 73.1699 28.8225C72.4239 24.6705 73.7849 21.7225 75.2459 17.9945C76.5519 14.6705 77.5049 11.8045 80.4839 9.51855C87.9839 3.76255 97.9019 4.26355 106.484 6.81855C110.73 8.08455 114.917 9.91855 117.207 13.9355C120.597 19.8865 119.671 28.8465 117.96 35.1825L117.911 35.2395C117.889 35.2185 117.861 35.1975 117.84 35.1755C117.489 34.949 117.088 34.8123 116.672 34.7774C116.256 34.7426 115.838 34.8106 115.454 34.9755C115.332 33.9474 114.848 32.9964 114.088 32.2935C114.454 28.8435 114.802 25.0045 112.645 22.2935C110.472 19.5595 105.027 21.3525 102.155 21.5545C96.2819 21.9705 87.8549 21.5995 81.7369 19.4245Z"></path><path fill="#def6f8" d="M72.2331 70.043C72.6561 72.338 73.1031 74.635 73.5331 76.928C73.7181 77.928 75.0331 82.71 73.3141 83.208C71.8511 83.632 70.5201 79.97 70.1141 79.108C68.9771 76.716 67.7031 73.608 67.3901 72.758L67.5901 72.687C72.5601 69.9 71.5761 70.167 72.2331 70.043Z"></path><path fill="#00bac7" d="M70.7201 117.774C72.0137 118.372 73.4171 118.696 74.8419 118.725C76.2667 118.754 77.6822 118.488 78.9991 117.943C79.8905 117.596 80.7563 117.187 81.5901 116.718L81.8011 117.091C83.6395 117.103 85.4768 116.995 87.3011 116.767C88.3922 116.557 89.4489 116.197 90.4411 115.697L90.5751 115.937C88.5891 120.414 83.3381 124.687 78.1841 124.096C76.9681 124.016 75.7847 123.669 74.7178 123.08C73.6508 122.491 72.7264 121.675 72.0101 120.689C71.5168 119.908 71.0771 119.094 70.6941 118.253L70.7201 117.774Z"></path><path fill="#def6f8" d="M60.5399 77.4078C60.7239 77.2898 61.7579 76.8588 61.8399 76.6078L61.9999 76.5488C63.2459 79.4068 64.5869 82.2218 65.6119 85.1728C65.9929 86.2728 66.9589 88.6668 66.1959 89.7918C65.5359 90.7648 63.5959 87.9918 63.3449 87.6368C61.6289 85.1978 61.2499 82.0758 58.6139 80.4368C58.2396 80.2012 57.8239 80.039 57.3889 79.9588L57.4099 79.8388C58.3771 78.9349 59.4247 78.1212 60.5399 77.4078V77.4078Z"></path><path fill="#00bac7" d="M56.2001 32.5053V53.1262C56.1985 54.3786 55.7003 55.5793 54.8147 56.4649C53.9291 57.3504 52.7285 57.8487 51.4761 57.8502H20.8261C19.5734 57.8492 18.3722 57.3512 17.4862 56.4656C16.6002 55.5799 16.1017 54.379 16.1001 53.1262V32.5053C16.1006 31.2525 16.5985 30.0513 17.4843 29.1655C18.3701 28.2797 19.5714 27.7818 20.8241 27.7813H51.4721C52.0928 27.7809 52.7074 27.9027 53.281 28.14C53.8545 28.3772 54.3757 28.7251 54.8148 29.1638C55.2538 29.6024 55.6022 30.1233 55.8399 30.6967C56.0776 31.27 56.2 31.8846 56.2001 32.5053V32.5053ZM38.3671 43.0792C39.0109 42.7826 39.5525 42.3022 39.9239 41.6984C40.2952 41.0947 40.4797 40.3946 40.4541 39.6863C40.4328 38.7691 40.0504 37.8975 39.3899 37.2608C38.7295 36.6241 37.8444 36.2739 36.9271 36.2863C36.1216 36.3442 35.3597 36.6737 34.7658 37.221C34.172 37.7682 33.7814 38.5007 33.658 39.2988C33.5345 40.0968 33.6855 40.9131 34.0863 41.6142C34.487 42.3153 35.1138 42.8597 35.8641 43.1583V48.0082H38.3641L38.3671 43.0792Z"></path><path fill="#00bac7" d="M50.5709 27.7802H46.9589V17.5792C46.9589 16.6916 46.7841 15.8128 46.4444 14.9928C46.1047 14.1728 45.6068 13.4278 44.9792 12.8002C44.3515 12.1727 43.6064 11.6749 42.7864 11.3353C41.9663 10.9958 41.0875 10.8211 40.1999 10.8212H33.1539C32.2645 10.8211 31.3838 10.9961 30.5621 11.3364C29.7403 11.6767 28.9937 12.1755 28.3647 12.8043C27.7358 13.4332 27.2369 14.1798 26.8965 15.0014C26.5561 15.8231 26.3809 16.7038 26.3809 17.5932V27.7802H22.6919V17.3332C22.6935 14.468 23.8329 11.7207 25.8597 9.69538C27.8865 7.6701 30.6347 6.53268 33.4999 6.53321H39.7719C41.1893 6.53202 42.5931 6.8101 43.903 7.35156C45.213 7.89302 46.4034 8.68724 47.4063 9.68887C48.4093 10.6905 49.205 11.8799 49.7482 13.1891C50.2913 14.4984 50.5712 15.9018 50.5719 17.3192C50.5729 23.2332 50.5709 21.8092 50.5709 27.7802Z"></path><path fill="#0e2238" d="M40.4539 39.6858C40.4798 40.3942 40.2954 41.0944 39.924 41.6982C39.5527 42.302 39.0109 42.7824 38.3669 43.0788V48.0068H35.8669V43.1568C35.118 42.8591 34.492 42.3165 34.0909 41.6175C33.6897 40.9184 33.5372 40.1042 33.658 39.3073C33.7788 38.5105 34.166 37.7781 34.7563 37.2294C35.3467 36.6807 36.1054 36.3481 36.9089 36.2858C37.8296 36.2679 38.7197 36.6157 39.3843 37.253C40.0488 37.8904 40.4335 38.7653 40.4539 39.6858Z"></path><path fill="#00bac7" d="M34.491 162.621C34.0818 162.487 33.7232 162.231 33.4629 161.887C33.2027 161.544 33.0531 161.13 33.034 160.699C33.0262 160.414 33.0749 160.13 33.1773 159.864C33.2797 159.598 33.4338 159.355 33.6308 159.149C33.8277 158.943 34.0635 158.777 34.3246 158.663C34.5857 158.548 34.8669 158.486 35.152 158.481H35.174C35.4609 158.462 35.7486 158.501 36.0206 158.594C36.2926 158.687 36.5435 158.833 36.7588 159.023C36.9741 159.214 37.1495 159.445 37.275 159.704C37.4005 159.962 37.4736 160.243 37.49 160.53C37.5052 160.97 37.3824 161.404 37.139 161.772C36.8955 162.139 36.5435 162.421 36.132 162.578H36.118V165.549H34.491V162.621Z"></path><path fill="#00bac7" d="M41.7281 153.349V149.815C41.7267 148.934 41.5518 148.062 41.2134 147.248C40.875 146.435 40.3796 145.696 39.7557 145.074C39.1317 144.452 38.3913 143.959 37.5768 143.623C36.7623 143.287 35.8896 143.115 35.0086 143.116C34.1276 143.118 33.2554 143.293 32.442 143.631C31.6285 143.969 30.8897 144.465 30.2677 145.089C29.6457 145.713 29.1527 146.453 28.8168 147.268C28.4809 148.082 28.3087 148.955 28.3101 149.836V153.349C26.2391 153.349 26.1951 153.341 25.9021 153.37V149.617C25.9272 147.222 26.8962 144.933 28.5987 143.249C30.3011 141.564 32.5995 140.619 34.9946 140.619C37.3897 140.619 39.6881 141.564 41.3905 143.249C43.093 144.933 44.062 147.222 44.0871 149.617C44.0871 153.733 44.1021 153.28 44.0521 153.461C43.2851 153.327 42.5044 153.29 41.7281 153.349V153.349Z"></path><path fill="#def6f8" d="M43.0309 153.35C25.0929 153.394 26.2149 153.34 25.9019 153.371C24.7271 153.472 23.6334 154.012 22.838 154.883C22.0426 155.754 21.6035 156.891 21.6079 158.071V166.758C21.6068 167.378 21.7281 167.993 21.9651 168.567C22.2021 169.14 22.55 169.662 22.9889 170.101C23.4278 170.54 23.9491 170.887 24.5227 171.124C25.0964 171.361 25.7112 171.483 26.3319 171.482H43.0319C43.6526 171.483 44.2674 171.361 44.841 171.124C45.4146 170.887 45.9358 170.539 46.3747 170.1C46.8135 169.661 47.1615 169.14 47.3985 168.567C47.6355 167.993 47.757 167.378 47.7559 166.758V158.071C47.7558 157.45 47.6335 156.836 47.3959 156.263C47.1584 155.69 46.8103 155.17 46.3715 154.731C45.9327 154.293 45.4118 153.945 44.8387 153.708C44.2655 153.471 43.6512 153.349 43.0309 153.35V153.35ZM36.1309 162.579H36.1169V165.55H34.4909V162.622C34.065 162.48 33.6947 162.207 33.4331 161.842C33.1715 161.477 33.0318 161.039 33.0339 160.59C33.0636 160.024 33.3075 159.49 33.7161 159.097C34.1247 158.704 34.6675 158.481 35.2343 158.474C35.8012 158.466 36.3496 158.675 36.7685 159.057C37.1874 159.439 37.4453 159.965 37.4899 160.531C37.5051 160.971 37.3823 161.405 37.1389 161.772C36.8954 162.139 36.5434 162.421 36.1319 162.579H36.1309Z"></path><path fill="#00bac7" d="M34.484 93.6135C31.415 91.1285 26.064 90.7995 24.255 94.9135C23.7764 96.0414 23.5184 97.2505 23.495 98.4755C23.533 99.0769 23.4242 99.6785 23.178 100.229C22.664 100.954 21.157 99.1865 20.7 100.447C20.243 101.707 21.774 103.547 21.7 104.258C21.6 105.172 19.49 104.081 18.758 104.439C17.645 104.995 19.032 106.699 18.377 107.403C17.772 108.058 16.153 106.621 15.561 107.67C15.104 108.48 16.139 109.353 15.861 110.17C15.434 111.202 14.007 111.728 13.545 112.725C12.489 115.025 14.566 116.295 17.227 114.147C17.452 113.883 17.695 113.635 17.945 113.394C21.145 110.294 22.526 108.431 24.408 107.72C25.288 107.389 26.337 107.903 27.161 107.459C28.019 106.995 28.188 105.784 29.153 105.488C30.99 104.925 32.807 105.27 34.503 104.108C38.328 101.471 37.885 96.3735 34.484 93.6135ZM34.034 96.5875C34.0328 96.9324 33.9294 97.2691 33.7367 97.5552C33.5441 97.8412 33.2709 98.0637 32.9518 98.1944C32.6327 98.3251 32.2819 98.3583 31.944 98.2896C31.606 98.2209 31.296 98.0536 31.0532 97.8087C30.8104 97.5638 30.6457 97.2524 30.58 96.9138C30.5142 96.5753 30.5504 96.2249 30.6839 95.9069C30.8174 95.5889 31.0422 95.3177 31.3298 95.1275C31.6175 94.9373 31.9552 94.8367 32.3 94.8385C32.7618 94.8406 33.2039 95.0261 33.5291 95.354C33.8543 95.682 34.0359 96.1257 34.034 96.5875V96.5875Z"></path><path fill="#0e2238" d="M115.949 34.9244C115.514 31.2294 110.98 29.3574 107.23 29.3574C103.041 29.3574 99.5191 31.3804 98.6841 34.1004C97.9086 33.5338 96.9673 33.2397 96.0071 33.2641C95.0469 33.2885 94.1218 33.6301 93.3761 34.2354C92.8661 33.3102 92.1201 32.5367 91.2141 31.9934C87.5401 29.7454 82.2001 29.7634 78.7891 33.0844C78.2733 33.5893 77.8786 34.2046 77.6348 34.884C77.3909 35.5634 77.3043 36.2892 77.3813 37.0069C77.4582 37.7246 77.6969 38.4155 78.0793 39.0277C78.4617 39.6399 78.9779 40.1574 79.5891 40.5414C85.3141 44.6684 94.0001 41.5334 94.0001 36.4534C93.9923 36.0414 93.9274 35.6325 93.8071 35.2384C94.1107 34.9222 94.4754 34.6709 94.8791 34.5C95.2827 34.3291 95.7169 34.242 96.1553 34.244C96.5937 34.2461 97.0271 34.3372 97.4291 34.512C97.8312 34.6867 98.1935 34.9413 98.4941 35.2604C98.3941 40.4764 108.033 43.7694 114.067 39.0744C114.703 38.5952 115.208 37.9642 115.537 37.2392C115.866 36.5142 116.007 35.7183 115.949 34.9244ZM80.1621 39.7244C79.6233 39.3612 79.1778 38.8759 78.8619 38.308C78.546 37.7402 78.3686 37.1058 78.3441 36.4564C78.3707 35.4593 78.7783 34.5102 79.4831 33.8044C84.0341 29.3324 92.9831 31.8864 92.9951 36.4544C93.0001 40.7134 85.2151 43.3634 80.1621 39.7244V39.7244ZM113.449 38.2844C111.667 39.6485 109.473 40.3636 107.23 40.3114C103.582 40.2544 99.2521 38.3824 99.4981 35.0784C99.8771 30.3864 109.407 28.4944 113.747 32.6674C114.156 33.0233 114.479 33.4679 114.691 33.9672C114.902 34.4666 114.997 35.0076 114.968 35.5492C114.939 36.0907 114.787 36.6186 114.524 37.0925C114.26 37.5665 113.892 37.9741 113.447 38.2844H113.449Z"></path><path fill="#0e2238" d="M85.9171 37.6529C85.9643 37.6985 86.0201 37.7343 86.0812 37.7583C86.1424 37.7823 86.2076 37.794 86.2733 37.7928C86.3389 37.7916 86.4037 37.7775 86.4639 37.7512C86.5241 37.725 86.5785 37.6872 86.6241 37.6399L91.3131 32.7689C91.3586 32.7216 91.3944 32.6658 91.4184 32.6047C91.4425 32.5436 91.4542 32.4783 91.453 32.4127C91.4518 32.347 91.4377 32.2823 91.4114 32.2221C91.3852 32.1619 91.3473 32.1075 91.3001 32.0619C91.2528 32.0163 91.197 31.9805 91.1359 31.9565C91.0748 31.9325 91.0095 31.9208 90.9439 31.922C90.8782 31.9232 90.8134 31.9373 90.7533 31.9635C90.6931 31.9898 90.6386 32.0276 90.5931 32.0749L85.9001 36.9459C85.8547 36.9934 85.8192 37.0494 85.7956 37.1107C85.7719 37.1719 85.7605 37.2373 85.7621 37.3029C85.7637 37.3686 85.7782 37.4333 85.8048 37.4933C85.8314 37.5534 85.8695 37.6076 85.9171 37.6529Z"></path><path fill="#0e2238" d="M88.871 31.2509C88.8236 31.2054 88.7678 31.1696 88.7066 31.1457C88.6455 31.1218 88.5802 31.1101 88.5146 31.1114C88.4489 31.1127 88.3842 31.1269 88.324 31.1533C88.2638 31.1796 88.2095 31.2175 88.164 31.2649L83.475 36.1359C83.3831 36.2315 83.3329 36.3597 83.3355 36.4923C83.3382 36.6248 83.3934 36.751 83.489 36.8429C83.5846 36.9348 83.7128 36.9849 83.8454 36.9823C83.978 36.9797 84.1041 36.9245 84.196 36.8289L88.885 31.9579C88.9305 31.9105 88.9662 31.8547 88.9901 31.7935C89.0141 31.7324 89.0257 31.6671 89.0244 31.6015C89.0231 31.5358 89.0089 31.4711 88.9826 31.4109C88.9562 31.3507 88.9183 31.2964 88.871 31.2509V31.2509Z"></path><path fill="#0e2238" d="M91.4071 42.0607C91.2322 42.3076 91.1124 42.5891 91.0557 42.8863C90.999 43.1835 91.0069 43.4894 91.0786 43.7833C91.1504 44.0772 91.2844 44.3523 91.4717 44.5899C91.659 44.8276 91.8951 45.0222 92.1641 45.1607C92.8197 45.3393 93.4885 45.4657 94.1641 45.5387C94.9191 45.7777 95.0741 46.5917 96.8641 46.5917C97.7019 46.5915 98.524 46.3634 99.2422 45.9318C99.9604 45.5002 100.548 44.8814 100.941 44.1417C100.998 44.0252 101.007 43.8913 100.966 43.7682C100.926 43.6451 100.84 43.5424 100.725 43.4818C100.611 43.4211 100.477 43.4072 100.353 43.443C100.228 43.4788 100.123 43.5615 100.058 43.6737C99.6914 44.3785 99.1004 44.941 98.3784 45.2724C97.6564 45.6038 96.8445 45.6852 96.0711 45.5037C95.5711 45.3747 95.2061 44.8127 94.3781 44.5657C93.7678 44.4926 93.1624 44.3834 92.5651 44.2387C92.0751 43.9707 91.8411 43.3767 92.2841 42.5517C93.0621 41.3247 92.0001 41.1067 91.4071 42.0607Z"></path><path fill="#0e2238" d="M103.012 50.8765C99.5101 50.4862 95.9715 50.5727 92.4929 51.1335C92.4255 51.1409 92.3604 51.1619 92.3014 51.1953C92.2424 51.2287 92.1908 51.2737 92.1498 51.3276C92.1087 51.3816 92.079 51.4433 92.0626 51.509C92.0461 51.5748 92.0432 51.6432 92.054 51.7101C92.0648 51.777 92.0891 51.841 92.1254 51.8982C92.1616 51.9555 92.2092 52.0047 92.2651 52.043C92.321 52.0813 92.3842 52.1078 92.4507 52.121C92.5171 52.1341 92.5856 52.1336 92.6519 52.1195C96.041 51.5744 99.4883 51.4907 102.9 51.8705C103.032 51.8852 103.164 51.8469 103.268 51.7642C103.371 51.6814 103.438 51.5608 103.452 51.429C103.467 51.2972 103.429 51.1649 103.346 51.0613C103.263 50.9577 103.143 50.8912 103.011 50.8765H103.012Z"></path><path fill="#0e2238" d="M99.75 53.5399C98.5215 53.3667 97.279 53.3127 96.04 53.3789C95.9078 53.3802 95.7814 53.4333 95.6879 53.5268C95.5944 53.6203 95.5413 53.7467 95.54 53.8789C95.54 54.0116 95.5927 54.1387 95.6865 54.2325C95.7803 54.3263 95.9074 54.3789 96.04 54.3789C97.2317 54.3138 98.4269 54.3637 99.609 54.5279C99.6752 54.5407 99.7432 54.5399 99.8091 54.5257C99.875 54.5115 99.9373 54.4841 99.9923 54.4453C100.047 54.4064 100.094 54.3568 100.129 54.2994C100.165 54.2421 100.188 54.1782 100.198 54.1115C100.208 54.0449 100.205 53.977 100.188 53.9117C100.171 53.8465 100.141 53.7854 100.1 53.732C100.059 53.6786 100.007 53.6341 99.9486 53.6011C99.8898 53.5681 99.825 53.5473 99.758 53.5399H99.75Z"></path><path fill="#0e2238" d="M109.97 30.0131C109.923 29.9675 109.867 29.9317 109.806 29.9077C109.745 29.8837 109.679 29.8719 109.614 29.8731C109.548 29.8743 109.483 29.8885 109.423 29.9147C109.363 29.9409 109.309 29.9788 109.263 30.0261L104.574 34.9011C104.482 34.9967 104.432 35.1249 104.434 35.2576C104.437 35.3903 104.492 35.5165 104.587 35.6086C104.683 35.7006 104.811 35.7509 104.944 35.7483C105.077 35.7458 105.203 35.6907 105.295 35.5951L109.984 30.7161C110.075 30.6206 110.124 30.4933 110.121 30.3617C110.119 30.2301 110.064 30.1048 109.97 30.0131V30.0131Z"></path><path fill="#0e2238" d="M106.756 36.2457C106.803 36.2912 106.859 36.327 106.92 36.3509C106.982 36.3748 107.047 36.3865 107.112 36.3852C107.178 36.3839 107.243 36.3697 107.303 36.3433C107.363 36.317 107.418 36.2791 107.463 36.2317L112.152 31.3597C112.2 31.3131 112.239 31.2571 112.265 31.1952C112.291 31.1334 112.305 31.0668 112.305 30.9996C112.305 30.9324 112.291 30.8659 112.265 30.8041C112.238 30.7423 112.2 30.6864 112.152 30.6398C112.103 30.5931 112.046 30.5568 111.983 30.5328C111.92 30.5089 111.853 30.4978 111.786 30.5004C111.719 30.5029 111.653 30.5189 111.592 30.5475C111.531 30.5761 111.477 30.6166 111.432 30.6667L106.743 35.5387C106.697 35.586 106.662 35.6418 106.638 35.7029C106.614 35.764 106.602 35.8293 106.603 35.8949C106.604 35.9606 106.618 36.0254 106.645 36.0855C106.671 36.1457 106.709 36.2002 106.756 36.2457V36.2457Z"></path><path fill="#0e2238" d="M34.5271 96.5847C34.5271 96.1419 34.3958 95.709 34.1497 95.3408C33.9037 94.9726 33.554 94.6856 33.1449 94.5161C32.7358 94.3467 32.2856 94.3023 31.8513 94.3887C31.4169 94.4751 31.018 94.6884 30.7049 95.0015C30.3917 95.3146 30.1785 95.7136 30.0921 96.1479C30.0057 96.5822 30.05 97.0324 30.2195 97.4415C30.389 97.8507 30.676 98.2003 31.0442 98.4464C31.4124 98.6924 31.8452 98.8237 32.2881 98.8237C32.8817 98.8232 33.4509 98.5871 33.8707 98.1673C34.2905 97.7475 34.5265 97.1784 34.5271 96.5847V96.5847ZM31.0491 96.5847C31.0491 96.3397 31.1217 96.1001 31.2579 95.8963C31.394 95.6926 31.5875 95.5338 31.8139 95.44C32.0403 95.3462 32.2894 95.3217 32.5298 95.3695C32.7701 95.4173 32.9909 95.5353 33.1642 95.7086C33.3375 95.8819 33.4555 96.1026 33.5033 96.343C33.5511 96.5833 33.5265 96.8324 33.4328 97.0588C33.339 97.2852 33.1802 97.4787 32.9764 97.6149C32.7727 97.751 32.5331 97.8237 32.2881 97.8237C31.9595 97.8234 31.6446 97.6928 31.4123 97.4605C31.18 97.2282 31.0493 96.9132 31.0491 96.5847V96.5847Z"></path><path fill="#0e2238" d="M25.4099 103.636C25.3652 103.588 25.3115 103.549 25.2517 103.522C25.192 103.495 25.1275 103.479 25.0618 103.477C24.9961 103.474 24.9306 103.485 24.8691 103.508C24.8075 103.531 24.751 103.566 24.7029 103.61L14.8029 112.81C14.7294 112.879 14.6782 112.968 14.6559 113.066C14.6337 113.164 14.6415 113.266 14.6783 113.36C14.7151 113.453 14.7792 113.533 14.8623 113.59C14.9453 113.646 15.0435 113.677 15.1439 113.676C15.4369 113.676 14.7329 114.256 25.3829 104.341C25.4797 104.251 25.5369 104.127 25.542 103.995C25.547 103.862 25.4995 103.734 25.4099 103.636V103.636Z"></path><path fill="#0e2238" d="M40.9539 39.6522C40.9415 39.1294 40.8257 38.6143 40.6133 38.1366C40.4008 37.6588 40.0958 37.2279 39.716 36.8686C39.3361 36.5093 38.8889 36.2287 38.4001 36.0431C37.9113 35.8575 37.3905 35.7705 36.8679 35.7872C35.9834 35.8549 35.1456 36.2108 34.4828 36.8004C33.82 37.39 33.3689 38.1807 33.1987 39.0513C33.0284 39.9218 33.1484 40.8242 33.5402 41.6201C33.9321 42.4159 34.5741 43.0613 35.3679 43.4572V48.0072C35.3679 48.1398 35.4206 48.267 35.5144 48.3607C35.6081 48.4545 35.7353 48.5072 35.8679 48.5072H38.3599C38.4925 48.5072 38.6197 48.4545 38.7135 48.3607C38.8072 48.267 38.8599 48.1398 38.8599 48.0072C38.8599 43.3172 38.8779 43.4862 38.8599 43.3862C39.5239 43.0227 40.0724 42.4798 40.4426 41.8196C40.8129 41.1593 40.9901 40.4083 40.9539 39.6522V39.6522ZM38.1699 42.6232C37.8839 42.7532 37.8559 43.0572 37.8559 43.4022V47.5072H36.3639V43.3992C36.3639 43.0732 36.3539 42.8102 36.0489 42.6882C35.2935 42.3868 34.6885 41.7981 34.3666 41.0512C34.0447 40.3043 34.0322 39.4602 34.3319 38.7042C34.4953 38.2535 34.7685 37.8508 35.1268 37.5324C35.4851 37.214 35.9172 36.9901 36.3839 36.8808C36.8506 36.7716 37.3372 36.7806 37.7996 36.9069C38.262 37.0332 38.6856 37.2728 39.0319 37.6042C39.3887 37.955 39.6552 38.3871 39.8087 38.8633C39.9622 39.3396 39.9982 39.8459 39.9135 40.3391C39.8288 40.8323 39.6259 41.2976 39.3223 41.6953C39.0187 42.0931 38.6233 42.4114 38.1699 42.6232V42.6232Z"></path><path fill="#0e2238" d="M19.7131 54.0628H52.0421C52.1066 54.0652 52.1709 54.0547 52.2312 54.0318C52.2915 54.0089 52.3466 53.9742 52.3932 53.9296C52.4398 53.885 52.477 53.8315 52.5026 53.7723C52.5282 53.7131 52.5416 53.6493 52.5421 53.5848C52.5433 53.4498 52.4916 53.3197 52.3982 53.2222C52.3048 53.1247 52.1771 53.0675 52.0421 53.0628H19.7141C19.6497 53.0604 19.5854 53.071 19.5251 53.0939C19.4648 53.1168 19.4097 53.1515 19.363 53.1961C19.3164 53.2407 19.2792 53.2942 19.2536 53.3534C19.2281 53.4126 19.2146 53.4763 19.2141 53.5408C19.213 53.6757 19.2645 53.8056 19.3577 53.9031C19.4509 54.0006 19.5784 54.0579 19.7131 54.0628Z"></path><path fill="#0e2238" d="M22.6919 28.2592C22.8246 28.2592 22.9517 28.2065 23.0455 28.1128C23.1393 28.019 23.1919 27.8918 23.1919 27.7592V17.3332C23.1965 14.6015 24.2842 11.983 26.2165 10.0521C28.1489 8.12127 30.7682 7.03558 33.5 7.0332H39.7879C42.5173 7.03691 45.1335 8.12373 47.0621 10.0549C48.9907 11.9862 50.074 14.6039 50.074 17.3332V27.7592C50.074 27.8918 50.1266 28.019 50.2204 28.1128C50.3142 28.2065 50.4413 28.2592 50.574 28.2592C50.7066 28.2592 50.8337 28.2065 50.9275 28.1128C51.0213 28.019 51.074 27.8918 51.074 27.7592V17.3332C51.0718 14.3369 49.8806 11.4639 47.7619 9.34524C45.6432 7.22654 42.7702 6.03532 39.7739 6.0332H33.5C30.5045 6.03823 27.6333 7.23037 25.5152 9.34845C23.3971 11.4665 22.205 14.3378 22.2 17.3332V27.7592C22.1999 27.8904 22.2515 28.0164 22.3436 28.11C22.4356 28.2035 22.5607 28.2571 22.6919 28.2592V28.2592Z"></path><path fill="#0e2238" d="M46.9591 28.1883C47.0917 28.1883 47.2189 28.1356 47.3127 28.0419C47.4064 27.9481 47.4591 27.8209 47.4591 27.6883V17.5793C47.457 15.6548 46.6915 13.8096 45.3307 12.4488C43.9698 11.0879 42.1247 10.3224 40.2001 10.3203H33.1541C31.225 10.323 29.3757 11.0909 28.0121 12.4556C26.6486 13.8202 25.8822 15.6702 25.8811 17.5993V27.6883C25.8811 27.8209 25.9338 27.9481 26.0275 28.0419C26.1213 28.1356 26.2485 28.1883 26.3811 28.1883C26.5137 28.1883 26.6409 28.1356 26.7347 28.0419C26.8284 27.9481 26.8811 27.8209 26.8811 27.6883V17.5933C26.883 15.9302 27.5445 14.3357 28.7205 13.1597C29.8965 11.9837 31.491 11.3222 33.1541 11.3203H40.2001C41.8594 11.3224 43.45 11.9826 44.6232 13.1559C45.7964 14.3293 46.4563 15.9201 46.4581 17.5793V27.6883C46.4581 27.7541 46.4711 27.8192 46.4963 27.8799C46.5214 27.9406 46.5584 27.9958 46.6049 28.0422C46.6514 28.0887 46.7067 28.1255 46.7675 28.1505C46.8282 28.1756 46.8934 28.1884 46.9591 28.1883Z"></path><path fill="#0e2238" d="M163.959 59.6807H165.867C166 59.6807 166.127 59.6281 166.221 59.5343C166.314 59.4405 166.367 59.3134 166.367 59.1807V55.7447C166.981 55.4076 167.465 54.8744 167.74 54.2301C168.016 53.5859 168.067 52.868 167.887 52.191C167.706 51.514 167.304 50.917 166.744 50.4955C166.185 50.074 165.5 49.8523 164.799 49.8658C164.099 49.8793 163.423 50.1272 162.88 50.57C162.337 51.0127 161.958 51.6247 161.804 52.3081C161.649 52.9915 161.728 53.707 162.028 54.3401C162.329 54.9733 162.832 55.4875 163.459 55.8007V59.1807C163.459 59.3134 163.512 59.4405 163.605 59.5343C163.699 59.6281 163.826 59.6807 163.959 59.6807ZM162.893 52.1807C163.04 51.7932 163.294 51.4555 163.627 51.2076C163.959 50.9596 164.355 50.8115 164.768 50.7807C165.052 50.7717 165.334 50.8192 165.6 50.9206C165.865 51.022 166.107 51.1752 166.312 51.3713C166.517 51.5673 166.682 51.8023 166.795 52.0625C166.909 52.3227 166.969 52.6029 166.973 52.8868C166.991 53.3079 166.886 53.7251 166.671 54.0877C166.456 54.4504 166.141 54.7429 165.763 54.9297C165.65 54.9593 165.549 55.0254 165.477 55.1177C165.404 55.21 165.364 55.3235 165.363 55.4408V58.6807H164.455V55.3707C164.456 55.2971 164.44 55.2242 164.409 55.1575C164.378 55.0909 164.331 55.0322 164.274 54.9859C164.217 54.9396 164.15 54.9069 164.078 54.8902C164.006 54.8736 163.932 54.8734 163.86 54.8897C163.399 54.6293 163.048 54.2115 162.87 53.7131C162.693 53.2146 162.701 52.6688 162.893 52.1757V52.1807Z"></path><path fill="#0e2238" d="M176.343 63.9005C176.408 63.902 176.472 63.8906 176.533 63.8669C176.593 63.8432 176.648 63.8078 176.695 63.7627C176.741 63.7175 176.778 63.6636 176.804 63.604C176.829 63.5444 176.843 63.4804 176.843 63.4155C176.844 63.2814 176.792 63.1523 176.698 63.056C176.605 62.9598 176.477 62.9039 176.343 62.9005H151.589C151.524 62.8989 151.46 62.9103 151.399 62.9339C151.339 62.9575 151.284 62.993 151.237 63.0381C151.191 63.0833 151.154 63.1372 151.128 63.1969C151.103 63.2566 151.089 63.3207 151.089 63.3855C151.089 63.5197 151.141 63.6488 151.234 63.745C151.328 63.8413 151.455 63.8971 151.589 63.9005H176.343Z"></path><path fill="#0e2238" d="M153.877 44.3101C154.01 44.3101 154.137 44.2574 154.231 44.1637C154.324 44.0699 154.377 43.9427 154.377 43.8101V38.3761C154.377 35.6781 155.449 33.0905 157.357 31.1827C159.264 29.2749 161.852 28.2031 164.55 28.2031C167.248 28.2031 169.836 29.2749 171.743 31.1827C173.651 33.0905 174.723 35.6781 174.723 38.3761V43.8101C174.723 43.9427 174.776 44.0699 174.869 44.1637C174.963 44.2574 175.09 44.3101 175.223 44.3101C175.356 44.3101 175.483 44.2574 175.577 44.1637C175.67 44.0699 175.723 43.9427 175.723 43.8101V38.3761C175.723 35.4129 174.546 32.571 172.45 30.4756C170.355 28.3803 167.513 27.2031 164.55 27.2031C161.587 27.2031 158.745 28.3803 156.649 30.4756C154.554 32.571 153.377 35.4129 153.377 38.3761V43.8101C153.377 43.9427 153.43 44.0699 153.523 44.1637C153.617 44.2574 153.744 44.3101 153.877 44.3101Z"></path><path fill="#0e2238" d="M172.449 44.264C172.582 44.264 172.709 44.2114 172.803 44.1176C172.896 44.0238 172.949 43.8966 172.949 43.764V37.716C172.947 35.7916 172.182 33.9467 170.821 32.5858C169.46 31.225 167.615 30.4594 165.691 30.457H163.466C161.537 30.461 159.689 31.2295 158.326 32.5942C156.962 33.9588 156.196 35.8082 156.194 37.737V43.764C156.194 43.8966 156.247 44.0238 156.341 44.1176C156.434 44.2114 156.561 44.264 156.694 44.264C156.827 44.264 156.954 44.2114 157.048 44.1176C157.141 44.0238 157.194 43.8966 157.194 43.764V37.737C157.196 36.0733 157.857 34.4781 159.032 33.301C160.208 32.1238 161.802 31.4607 163.466 31.457H165.691C167.35 31.4591 168.941 32.1193 170.114 33.2927C171.287 34.466 171.947 36.0568 171.949 37.716V43.764C171.949 43.8966 172.002 44.0238 172.096 44.1176C172.189 44.2114 172.316 44.264 172.449 44.264Z"></path><path fill="#0e2238" d="M113.129 158.213C113.242 150.237 115.476 139.799 115.545 136.377C115.587 136.289 115.605 136.193 115.597 136.096C115.59 136 115.557 135.907 115.502 135.827C115.448 135.747 115.373 135.683 115.286 135.642C115.198 135.6 115.101 135.582 115.005 135.59C114.405 135.679 114.591 136.4 114.525 136.909C113.934 142.77 112.232 150.956 112.125 158.199C112.123 158.331 112.174 158.459 112.267 158.554C112.359 158.649 112.485 158.704 112.618 158.706C112.751 158.707 112.879 158.657 112.974 158.564C113.069 158.472 113.123 158.345 113.125 158.213H113.129Z"></path><path fill="#0e2238" d="M114.492 171.151C113.864 165.941 113.931 166.429 113.892 166.282C113.917 166.175 113.907 166.063 113.864 165.962C113.821 165.86 113.746 165.776 113.652 165.72C113.557 165.664 113.447 165.64 113.337 165.651C113.228 165.662 113.125 165.708 113.043 165.782C112.95 165.886 112.889 166.015 112.869 166.154C112.849 166.292 112.871 166.433 112.931 166.559C114.082 176.134 115.231 184.759 114.893 192.478C114.89 192.544 114.9 192.609 114.922 192.671C114.945 192.733 114.979 192.79 115.024 192.838C115.068 192.887 115.121 192.926 115.181 192.954C115.24 192.982 115.305 192.998 115.371 193.001C115.436 193.004 115.502 192.994 115.564 192.971C115.625 192.949 115.682 192.914 115.731 192.87C115.779 192.826 115.819 192.772 115.846 192.713C115.874 192.653 115.89 192.589 115.893 192.523C116.194 185.753 115.373 178.471 114.492 171.151Z"></path><path fill="#0e2238" d="M144.852 175.762C143.846 176.842 139.627 177.104 138.164 177.204C138.112 176.927 138.058 176.643 138.018 176.389C137.418 172.431 136.271 168.466 135.902 164.517C135.654 161.948 136.302 159.391 135.746 156.752C135.318 154.724 133.556 153.019 133.257 151.191C132.957 149.391 133.801 147.373 134.164 145.491C135.093 140.423 134.919 138.885 135.599 129.836C136.22 121.567 136.799 113.971 135.234 105.836C135.209 105.706 135.134 105.591 135.024 105.516C134.914 105.442 134.779 105.414 134.649 105.439C134.519 105.463 134.404 105.539 134.329 105.649C134.254 105.758 134.226 105.893 134.251 106.024C135.789 114.033 135.218 121.555 134.602 129.758C133.919 138.83 134.102 140.295 133.182 145.303C132.818 147.189 131.932 149.293 132.27 151.349C132.622 153.505 134.36 155.025 134.77 156.948C135.27 159.348 134.664 162.048 134.909 164.601C135.285 168.626 136.438 172.585 137.032 176.531C137.538 179.789 138.932 184.151 137.701 187.031C137.229 188.131 137.642 188.544 138.121 188.395C139.766 187.791 141.196 186.717 142.234 185.306C143.273 183.895 143.873 182.21 143.96 180.461C144.528 179.762 144.813 178.877 144.76 177.979C144.773 177.535 144.752 177.207 144.778 177.025C145.081 176.878 145.355 176.68 145.59 176.439C145.636 176.391 145.673 176.334 145.697 176.272C145.721 176.21 145.733 176.144 145.731 176.078C145.729 176.011 145.714 175.946 145.687 175.885C145.659 175.824 145.62 175.77 145.572 175.724C145.523 175.679 145.466 175.644 145.403 175.621C145.341 175.598 145.274 175.588 145.208 175.591C145.141 175.594 145.076 175.61 145.016 175.639C144.956 175.668 144.902 175.708 144.858 175.758L144.852 175.762ZM143.327 179.684C142.477 180.661 140.095 180.801 138.801 180.57C138.692 179.951 138.386 178.375 138.35 178.193C140.174 178.113 141.986 177.855 143.76 177.424C143.855 178.204 143.704 178.994 143.327 179.684V179.684ZM138.755 187.036C139.255 185.267 139.331 183.405 138.977 181.602C140.304 181.785 141.656 181.629 142.907 181.148C142.714 182.383 142.239 183.556 141.519 184.577C140.799 185.598 139.853 186.44 138.755 187.036V187.036Z"></path><path fill="#0e2238" d="M106.993 86.1817C106.193 86.2687 104.759 86.5817 104.641 86.6077C104.528 86.6411 104.43 86.7137 104.365 86.8124C104.3 86.9111 104.272 87.0297 104.286 87.1471C104.3 87.2644 104.355 87.373 104.442 87.4534C104.529 87.5339 104.641 87.5811 104.759 87.5867C104.859 87.5687 104.898 87.5787 105.102 87.5337C105.702 87.4027 106.461 87.2457 107.102 87.1757C107.168 87.1696 107.232 87.1505 107.291 87.1194C107.35 87.0883 107.401 87.0458 107.444 86.9944C107.486 86.943 107.517 86.8838 107.536 86.8201C107.555 86.7565 107.561 86.6897 107.554 86.6237C107.546 86.5577 107.526 86.4938 107.494 86.4357C107.462 86.3776 107.419 86.3265 107.366 86.2854C107.314 86.2442 107.255 86.2139 107.191 86.1961C107.127 86.1782 107.06 86.1734 106.994 86.1817H106.993Z"></path><path fill="#0e2238" d="M125.688 115.867C125.628 115.841 125.563 115.826 125.498 115.824C125.432 115.823 125.367 115.834 125.305 115.858C125.244 115.881 125.188 115.917 125.14 115.962C125.093 116.007 125.055 116.061 125.028 116.121C123.451 119.671 121.51 123.048 119.236 126.197C119.158 126.305 119.126 126.439 119.147 126.57C119.169 126.701 119.241 126.818 119.348 126.896C119.456 126.974 119.59 127.005 119.721 126.984C119.852 126.963 119.969 126.891 120.047 126.783C122.361 123.577 124.336 120.14 125.942 116.527C125.969 116.467 125.983 116.403 125.985 116.337C125.986 116.271 125.975 116.206 125.952 116.145C125.928 116.083 125.893 116.027 125.847 115.98C125.802 115.932 125.748 115.894 125.688 115.867V115.867Z"></path><path fill="#0e2238" d="M116.375 81.6561C118.052 78.1411 116.742 71.9391 115.814 69.1561C115.414 67.9641 114.754 66.7991 114.386 65.6791C115.331 66.1881 117.592 66.9421 120.139 68.2851C121.476 69.0145 122.62 70.0518 123.477 71.3111C123.867 71.8701 124.685 71.3111 124.242 70.6831C123.314 69.3103 122.066 68.1839 120.606 67.4011C119.307 66.7152 117.969 66.1038 116.6 65.5701C116.207 65.4021 115.021 64.8831 114.794 64.7641C114.699 64.705 114.588 64.6789 114.477 64.6897C114.366 64.7006 114.261 64.7478 114.18 64.8241C113.801 62.7721 114.856 59.8091 110.38 58.7031C110.468 55.9941 110.697 54.8491 110.634 54.5351C111.95 51.9293 112.905 49.157 113.475 46.2941C115.156 45.8882 116.66 44.9493 117.763 43.6177C118.867 42.286 119.509 40.6332 119.595 38.9061C119.725 37.5507 119.329 36.1971 118.488 35.1261C119.395 31.7001 121.746 20.8971 117.636 13.6931C115.181 9.3811 110.691 7.5581 106.622 6.3441C99.129 4.1111 88.455 2.7801 80.18 9.1231C76.98 11.5831 76.038 14.6231 74.458 18.6321C73.127 22.0111 71.969 24.9321 72.678 28.9121C72.993 30.6501 73.749 33.6541 75.298 35.2181C74.7781 35.4127 74.3021 35.7088 73.8976 36.0891C73.4932 36.4693 73.1684 36.9263 72.9422 37.4332C72.716 37.9402 72.5928 38.4871 72.5799 39.0421C72.567 39.5971 72.6646 40.1492 72.867 40.6661C73.802 43.0871 76.781 44.9991 79.215 45.6491C79.354 50.1161 82.239 54.6051 85.462 57.7491C84.882 57.7721 84.112 58.4111 83.099 61.5861C81.746 65.8071 82.376 68.7531 84.732 72.3861C84.7779 72.4561 84.8405 72.5134 84.9142 72.5529C84.988 72.5924 85.0704 72.6127 85.154 72.6121C85.137 74.6491 84.965 80.9251 82.977 80.6021C81.759 80.4111 81.098 78.2021 80.742 77.0151C79.084 71.5051 78.711 67.0701 77.599 62.2841C76.833 58.9841 74.334 56.5671 71.756 58.8181C70.136 60.2361 70.499 62.6331 70.765 64.3841C71.451 68.9081 73.125 77.4251 73.148 77.5281C74.048 81.5641 73.657 82.5801 73.172 82.7211C72.239 83.0131 70.895 79.5961 70.559 78.8881C69.719 77.1241 68.443 74.1881 67.665 72.0761C66.758 69.6121 65.518 66.2351 63.228 65.5091C62.6943 65.3643 62.1338 65.3484 61.5927 65.4628C61.0516 65.5772 60.5455 65.8186 60.116 66.1671C57.877 67.7051 59.081 70.5671 59.973 72.9221C61.767 77.6561 63.353 80.3111 65.25 85.6511C65.6 86.6371 66.33 88.6861 65.825 89.4891C65.68 89.4891 64.991 89.0981 63.751 87.3431C62.075 84.9511 61.683 81.7091 58.88 80.0061C58.4638 79.7387 57.9995 79.555 57.513 79.4651C57.1479 79.3681 56.7654 79.3559 56.3948 79.4294C56.0242 79.503 55.6753 79.6603 55.3749 79.8894C55.0745 80.1185 54.8304 80.4133 54.6615 80.7513C54.4925 81.0892 54.4031 81.4613 54.4 81.8391C54.3759 81.8431 54.3522 81.8491 54.329 81.8571C52.565 82.7223 51.1706 84.1927 50.4 86.0001C48.859 89.4261 49.625 93.1261 50.243 96.1151C52.525 105.576 50.902 109.433 52.327 115.55C54.089 123.058 59.927 130.385 65.911 134.316C74.274 139.931 85.411 136.664 89.351 130.845C90.612 128.982 91.083 126.856 92.069 124.966C92.7847 123.825 93.4413 122.647 94.036 121.438C94.9721 118.999 95.0164 116.307 94.161 113.838C94.1243 113.735 94.0538 113.648 93.961 113.59C95.8405 111.244 97.2668 108.569 98.167 105.701C98.2031 105.726 98.2425 105.747 98.284 105.761C98.6122 105.852 98.912 106.025 99.1554 106.263C99.3988 106.501 99.5779 106.797 99.676 107.123C100.11 109.01 97.85 110.875 98.668 113.335C99.331 115.335 100.999 117.115 102.468 118.686C106.019 122.471 108.483 126.499 112.043 130.518C112.131 130.617 112.255 130.678 112.387 130.686C112.52 130.694 112.65 130.649 112.749 130.561C112.848 130.473 112.909 130.349 112.917 130.217C112.925 130.085 112.88 129.954 112.792 129.855C109.936 126.629 107.484 122.985 104.697 119.655C102.988 117.625 100.427 115.469 99.614 113.018C98.945 111.008 101.184 109.226 100.641 106.872C100.497 106.368 100.223 105.91 99.8461 105.546C99.4695 105.181 99.0036 104.921 98.495 104.793C99.4013 102.031 100.549 99.3537 101.926 96.7931C102.576 98.7661 108.413 109.593 113.961 129.317C114.205 130.31 114.625 131.907 115.575 131.542C116.264 131.265 116.475 130.123 116.652 128.877C117.244 125.77 117.678 122.634 117.952 119.482C119.123 107.493 119.059 94.1021 115.44 82.6101C115.652 82.5229 115.845 82.3933 116.006 82.2293C116.166 82.0653 116.292 81.8702 116.375 81.6561V81.6561ZM112.106 60.5631C113.132 61.3841 113.036 62.8011 113.087 64.1931C113.16 66.1931 114.3 67.7671 114.865 69.4691C115.892 72.5541 116.901 78.2311 115.457 81.2691C115.414 81.3884 115.341 81.4948 115.246 81.5787C115.151 81.6626 115.036 81.7212 114.912 81.7491C114.13 81.6915 113.387 81.3853 112.792 80.8751C109.267 78.2751 107.498 74.4651 104.827 74.6251C102.302 74.7801 99.494 79.8071 97.357 82.6041C96.939 83.2767 96.3686 83.8416 95.692 84.2531C95.5652 84.3075 95.4298 84.3393 95.292 84.3471H95.267C94.377 84.3471 92.98 83.0231 92.267 82.0731C92.126 81.9481 91.858 69.3211 91.858 69.0871C94.191 71.1871 97.775 73.5121 100.936 73.5121C105.9 73.5121 109.187 68.1721 111.822 64.1121C111.858 64.0571 111.883 63.9955 111.895 63.931C111.907 63.8664 111.906 63.8001 111.892 63.7359C111.879 63.6716 111.853 63.6106 111.816 63.5565C111.778 63.5023 111.731 63.4559 111.676 63.4201C111.621 63.3842 111.559 63.3596 111.495 63.3475C111.43 63.3355 111.364 63.3362 111.3 63.3498C111.236 63.3633 111.175 63.3894 111.12 63.4265C111.066 63.4637 111.02 63.5111 110.984 63.5661L110.428 64.4261C110.35 62.8661 110.321 61.3001 110.364 59.7361C110.998 59.881 111.593 60.1633 112.106 60.5631V60.5631ZM93.666 94.4491C93.645 94.2891 93.566 93.5171 93.566 93.5031C92.9834 90.2499 92.5752 86.9679 92.343 83.6711C93.083 84.4201 94.28 85.3981 95.33 85.3411C95.5515 85.3266 95.7694 85.278 95.976 85.1971C96.087 85.6761 97.587 89.0131 97.676 89.2031C97.7128 89.2748 97.7667 89.3363 97.833 89.3821C97.3219 90.0277 96.8542 90.7065 96.433 91.4141C95.7352 92.6097 94.7922 93.644 93.666 94.4491ZM87.471 62.5001C87.38 61.6551 87.107 59.4601 87.058 59.2301C95.091 65.9651 104.158 64.7551 109.5 56.5221C109.27 59.6287 109.266 62.7479 109.488 65.8551C107.081 69.4391 104.081 73.0551 100.146 72.4551C98.6714 72.2202 97.2604 71.6859 96 70.8851C94.6294 70.0893 93.3544 69.1391 92.2 68.0531C92.1521 68.0079 92.0957 67.9726 92.0341 67.9493C91.9725 67.9259 91.9069 67.915 91.841 67.9171C91.793 65.8521 91.512 63.7171 90.179 62.7081C89.8132 62.3807 89.3498 62.1829 88.8603 62.1453C88.3708 62.1077 87.8826 62.2324 87.471 62.5001V62.5001ZM113.693 45.1831C113.95 43.8513 114.111 42.5029 114.176 41.1481C114.39 40.9341 114.616 40.7337 114.855 40.5481C115.155 40.8271 114.834 40.4021 115.374 41.2141C115.448 41.322 115.562 41.3965 115.691 41.4213C115.82 41.4461 115.953 41.4194 116.062 41.3469C116.171 41.2744 116.248 41.1619 116.275 41.0336C116.302 40.9053 116.278 40.7716 116.207 40.6611C116.05 40.4211 115.931 40.2231 115.816 40.0751C116.379 39.8784 116.987 39.8516 117.565 39.9981C117.629 40.017 117.697 40.0228 117.763 40.0151C117.83 40.0075 117.894 39.9866 117.952 39.9537C118.01 39.9207 118.061 39.8764 118.102 39.8234C118.143 39.7704 118.173 39.7097 118.19 39.645C118.207 39.5802 118.21 39.5127 118.201 39.4465C118.191 39.3803 118.168 39.3166 118.134 39.2594C118.099 39.2021 118.053 39.1524 117.999 39.1132C117.945 39.074 117.883 39.0461 117.818 39.0311C117.204 38.8777 116.564 38.8639 115.944 38.9906C115.325 39.1172 114.741 39.3812 114.237 39.7631C114.246 39.3961 114.272 37.0781 114.295 36.2971C114.68 35.9185 115.143 35.6284 115.651 35.4471C115.953 35.3168 116.282 35.2614 116.61 35.2854C116.939 35.3094 117.256 35.4122 117.536 35.5851C119.737 37.5891 118.655 43.6151 113.693 45.1821V45.1831ZM73.662 28.7351C72.92 24.5661 74.355 21.6431 75.999 17.4431C77.153 14.4961 78.143 11.9491 80.789 9.9161C88.728 3.8321 99.067 5.1361 106.34 7.3001C110.219 8.4571 114.491 10.1801 116.771 14.1851C120.565 20.8361 118.55 30.8541 117.615 34.5191C117.077 34.3093 116.494 34.2405 115.922 34.319C115.349 34.3976 114.807 34.621 114.345 34.9681C114.594 30.8741 115.909 25.6081 113.035 21.9821C110.635 18.9711 105.046 20.8571 102.118 21.0561C95.418 21.5401 85.648 20.9861 79.566 17.9561C79.507 17.9227 79.4417 17.9017 79.3742 17.8944C79.3068 17.887 79.2385 17.8935 79.1736 17.9134C79.1087 17.9333 79.0486 17.9661 78.9968 18.01C78.945 18.0539 78.9027 18.1079 78.8725 18.1686C78.8423 18.2294 78.8247 18.2957 78.8209 18.3634C78.8171 18.4312 78.8271 18.499 78.8504 18.5628C78.8736 18.6265 78.9096 18.6849 78.9562 18.7343C79.0027 18.7837 79.0588 18.8231 79.121 18.8501C79.735 19.1561 80.37 19.4331 81.015 19.6781C78.465 24.2251 78.115 30.3001 78.881 35.4641C78.1243 35.0484 77.259 34.8726 76.4 34.9601C76.3704 34.8864 76.323 34.8211 76.262 34.7701C74.625 33.4531 73.858 29.8171 73.662 28.7351ZM73.8 40.3071C73.5792 39.74 73.524 39.1218 73.6408 38.5245C73.7576 37.9271 74.0417 37.3753 74.4599 36.9332C74.8782 36.491 75.4134 36.1768 76.0033 36.027C76.5932 35.8772 77.2135 35.8981 77.792 36.0871C78.2668 36.2513 78.7026 36.5117 79.072 36.8521C79.205 37.9451 79.313 39.0411 79.372 40.1411C76.972 37.8581 73.825 38.6911 77.124 39.8821C77.3304 39.9576 77.531 40.0482 77.724 40.1531C77.2944 40.3434 76.9395 40.6699 76.714 41.0821C76.6511 41.194 76.6336 41.3259 76.6653 41.4504C76.6969 41.5749 76.7753 41.6824 76.884 41.7507C76.9928 41.819 77.1237 41.8428 77.2496 41.8171C77.3754 41.7915 77.4866 41.7185 77.56 41.6131C77.936 41.0181 78.304 41.0211 78.617 40.7971C78.8931 41.0439 79.137 41.3244 79.343 41.6321C79.243 43.5751 79.222 43.7581 79.204 44.6051C77.046 43.9491 74.555 42.2621 73.8 40.3071ZM80.4 47.4001C79.9 44.9001 80.448 42.5701 80.374 40.1131C80.188 36.8441 79.813 35.4031 79.627 33.4131C79.453 31.5031 79.127 24.9831 81.964 20.0441C88.207 22.1551 96.464 22.4801 102.184 22.0671C105.014 21.8671 110.293 20.1671 112.248 22.6171C115.027 26.1231 113.375 31.6061 113.295 36.0541C113.19 39.2921 113.407 41.5541 112.584 45.7081C112.023 48.729 111.02 51.6507 109.607 54.3791C106.966 59.3391 103.322 62.0861 98.777 62.5441C97.4716 62.6887 96.1509 62.599 94.877 62.2791C87.735 60.3851 81.64 53.2741 80.4 47.4001ZM84.057 61.8681C84.327 60.7521 84.8017 59.6959 85.457 58.7531C85.5355 58.7875 85.6215 58.8012 85.7068 58.7928C85.7921 58.7843 85.8738 58.7542 85.944 58.7051C85.985 58.9911 86.033 59.2701 86.091 59.5201C86.614 63.3441 86.453 63.1261 86.667 63.3461C86.0776 64.1418 85.6889 65.068 85.534 66.0461C85.3045 67.7669 85.1909 69.5011 85.194 71.2371C84.2594 69.8835 83.6679 68.323 83.4705 66.6899C83.2731 65.0569 83.4758 63.4004 84.061 61.8631L84.057 61.8681ZM93.097 121.068C92.619 122.254 91.797 123.308 91.175 124.502C90.187 126.395 89.675 128.566 88.514 130.282C86.305 133.543 81.88 135.755 76.685 136.196C73.0684 136.453 69.4693 135.498 66.456 133.481C60.7 129.7 55 122.592 53.3 115.317C51.866 109.154 53.594 105.747 51.219 95.8921C50.633 93.0601 49.904 89.5351 51.319 86.3921C51.9609 84.9049 53.0864 83.6782 54.513 82.9111C54.8973 85.6263 55.8799 88.2221 57.39 90.5111C59.565 94.2361 59.947 95.2111 61.527 101.275C63.26 107.933 65.227 115.475 70.501 118.219C71.8555 118.856 73.3284 119.201 74.8246 119.234C76.3209 119.266 77.8073 118.984 79.188 118.407C79.9477 118.106 80.6893 117.762 81.409 117.375C81.453 117.44 81.5119 117.493 81.5806 117.53C81.6493 117.567 81.7259 117.588 81.804 117.589C83.676 117.601 85.5466 117.49 87.404 117.257C89.6004 116.857 91.6355 115.835 93.267 114.311C93.9909 116.514 93.9319 118.9 93.1 121.065L93.097 121.068ZM100.089 98.2001C96.509 105.261 95.999 114.571 87.237 116.269C85.7711 116.448 84.2967 116.548 82.82 116.569C83.213 116.323 83.599 116.069 83.972 115.801C84.0254 115.763 84.0707 115.714 84.1054 115.659C84.1401 115.603 84.1634 115.541 84.1741 115.476C84.1848 115.411 84.1826 115.345 84.1676 115.281C84.1527 115.217 84.1253 115.156 84.087 115.103C84.0488 115.05 84.0003 115.004 83.9445 114.97C83.8887 114.935 83.8267 114.912 83.7619 114.901C83.697 114.89 83.6308 114.893 83.5668 114.907C83.5028 114.922 83.4424 114.95 83.389 114.988C79.672 117.652 75.032 119.388 70.95 117.331C63.944 113.691 63.042 100.076 60.265 93.8241C58.265 89.3181 55.965 87.5611 55.419 82.2131C55.3731 81.9766 55.3796 81.7328 55.438 81.4991C55.4898 81.3069 55.5793 81.1269 55.7012 80.9696C55.8232 80.8123 55.9753 80.6809 56.1486 80.583C56.3219 80.4851 56.513 80.4226 56.7107 80.3993C56.9084 80.376 57.1087 80.3922 57.3 80.4471C57.6756 80.5147 58.0341 80.6557 58.355 80.8621C60.84 82.3721 61.191 85.4341 62.948 87.9401C64.759 90.5041 65.571 90.4811 65.838 90.4961C65.9922 90.4951 66.1436 90.4556 66.2786 90.3812C66.4136 90.3068 66.5279 90.1999 66.611 90.0701C67.483 88.7771 66.596 86.4641 66.085 85.0081C64.585 80.7311 62.938 77.8221 60.708 72.0431C59.894 69.9371 59.273 67.9701 60.687 66.9971C63.95 64.7471 65.545 69.2111 66.918 72.9341C67.875 75.5291 69.742 79.5041 69.859 79.7751C70.522 81.3141 71.759 84.1651 73.454 83.6881C75.42 83.1161 74.547 79.1991 74.128 77.3171C74.071 77.0641 72.389 68.3961 71.758 64.2401C71.514 62.6341 71.211 60.6401 72.418 59.5781C72.6424 59.3274 72.9309 59.1426 73.2525 59.0436C73.574 58.9446 73.9165 58.9351 74.243 59.0161C75.359 59.3761 76.289 61.0501 76.629 62.5161C77.729 67.2631 78.129 71.8071 79.788 77.3081C80.238 78.8021 80.988 81.3081 82.824 81.5961C84.295 81.8241 85.283 80.5851 85.756 77.8821C86.556 72.6491 85.827 70.9341 86.529 66.1821C86.6888 65.2055 87.1155 64.2922 87.762 63.5431C87.8742 63.4211 88.0094 63.3225 88.1599 63.2531C88.3104 63.1837 88.4732 63.1448 88.6388 63.1386C88.8044 63.1325 88.9696 63.1593 89.1248 63.2174C89.28 63.2754 89.4222 63.3637 89.543 63.4771C90.677 64.3361 90.843 66.5771 90.851 68.4331C91.051 78.1261 91.014 84.9831 92.584 93.6801C92.6173 94.1279 92.6747 94.5735 92.756 95.0151C90.492 96.1041 85.561 96.5921 82.096 100.26C82.0049 100.357 81.9559 100.485 81.9596 100.618C81.9634 100.75 82.0196 100.876 82.116 100.967C82.2124 101.058 82.3411 101.107 82.4737 101.104C82.6063 101.1 82.7319 101.044 82.823 100.947C86.175 97.3991 91.085 97.0471 93.497 95.7611C93.6013 95.7472 93.6984 95.7002 93.774 95.6271C95.2077 94.6658 96.4103 93.3983 97.295 91.9161C97.7938 91.0682 98.3625 90.2634 98.995 89.5101C99.3183 89.1199 99.7422 88.8254 100.221 88.6587C100.699 88.492 101.214 88.4593 101.71 88.5641C104.818 89.1221 101.517 95.3861 100.089 98.2001ZM117.589 109.389C117.438 115.745 116.813 122.082 115.719 128.345C115.636 129.026 115.506 129.701 115.332 130.364C114.504 128.484 112.332 117.202 102.944 96.6701C102.833 96.283 102.69 95.9058 102.517 95.5421C103.942 92.3941 104.334 90.1241 103.655 88.8101C103.483 88.4793 103.233 88.1948 102.928 87.9809C102.622 87.7669 102.27 87.6298 101.9 87.5811C101.295 87.455 100.668 87.4803 100.075 87.6547C99.4815 87.8292 98.9406 88.1474 98.5 88.5811C98.113 87.7301 97.057 85.2811 96.973 85.0521C96.966 85.0331 96.915 84.7791 96.864 84.6321C97.384 84.2204 97.8306 83.7237 98.185 83.1631C99.5752 81.0896 101.068 79.0871 102.659 77.1631C104.493 75.2081 105.324 74.9731 107.484 77.1131C108.919 78.7546 110.491 80.2708 112.184 81.6451C112.825 82.1813 113.6 82.5323 114.426 82.6601C116.79 90.0911 117.857 99.0821 117.585 109.392L117.589 109.389Z"></path><path fill="#0e2238" d="M84.5869 84.2898C84.5749 84.225 84.5502 84.1632 84.5142 84.1079C84.4782 84.0527 84.4316 84.0051 84.3772 83.9679C84.3227 83.9307 84.2614 83.9047 84.1968 83.8913C84.1323 83.8779 84.0657 83.8774 84.0009 83.8898C78.388 84.9251 73.1074 87.2985 68.6069 90.8088C68.5541 90.8498 68.5101 90.901 68.4774 90.9593C68.4447 91.0176 68.4241 91.0819 68.4167 91.1483C68.4092 91.2148 68.4152 91.282 68.4343 91.3461C68.4533 91.4102 68.485 91.4698 68.5274 91.5214C68.5699 91.573 68.6223 91.6156 68.6815 91.6466C68.7407 91.6777 68.8055 91.6965 68.8721 91.7021C68.9387 91.7076 69.0058 91.6997 69.0693 91.6789C69.1328 91.6581 69.1915 91.6247 69.2419 91.5808C73.6132 88.1754 78.7411 85.874 84.1909 84.8718C84.3203 84.8466 84.4345 84.7713 84.5087 84.6623C84.5829 84.5533 84.611 84.4195 84.5869 84.2898Z"></path><path fill="#0e2238" d="M34.491 166.049H36.118C36.2506 166.049 36.3778 165.997 36.4715 165.903C36.5653 165.809 36.618 165.682 36.618 165.549V162.899C37.0477 162.667 37.4039 162.319 37.6462 161.895C37.8885 161.471 38.0072 160.988 37.989 160.499C37.935 159.794 37.6092 159.136 37.0801 158.666C36.551 158.196 35.8601 157.95 35.1528 157.979C34.4456 158.008 33.7774 158.311 33.2891 158.823C32.8007 159.336 32.5303 160.018 32.535 160.725C32.5561 161.193 32.7024 161.647 32.9585 162.039C33.2146 162.431 33.5711 162.747 33.991 162.954V165.554C33.9923 165.686 34.0455 165.812 34.1392 165.905C34.2328 165.997 34.3592 166.049 34.491 166.049V166.049ZM35.204 158.979C35.4239 158.965 35.6445 158.994 35.8533 159.064C36.0621 159.135 36.2549 159.246 36.4207 159.391C36.5866 159.536 36.7222 159.713 36.8199 159.91C36.9176 160.108 36.9754 160.323 36.99 160.542C36.998 160.821 36.9333 161.096 36.8023 161.342C36.6713 161.587 36.4785 161.794 36.243 161.942C36.1697 161.921 36.0924 161.917 36.0173 161.931C35.9422 161.945 35.8714 161.976 35.8106 162.022C35.7499 162.068 35.7008 162.128 35.6673 162.197C35.6338 162.266 35.6169 162.341 35.618 162.417V165.051H34.991V162.417C34.9903 162.335 34.9691 162.254 34.9293 162.181C34.8895 162.109 34.8324 162.047 34.7631 162.002C34.6937 161.957 34.6143 161.93 34.5319 161.923C34.4495 161.917 34.3667 161.93 34.291 161.963C33.9949 161.772 33.7692 161.489 33.6481 161.158C33.527 160.827 33.5171 160.466 33.6198 160.129C33.7225 159.791 33.9323 159.497 34.2175 159.289C34.5026 159.082 34.8475 158.973 35.2 158.979H35.204Z"></path><path fill="#0e2238" d="M45.045 168.4H23.959C23.8939 168.399 23.8292 168.411 23.7687 168.435C23.7082 168.46 23.6531 168.495 23.6066 168.541C23.5601 168.587 23.5231 168.641 23.4978 168.701C23.4724 168.761 23.4592 168.825 23.459 168.89C23.4587 169.024 23.511 169.152 23.6045 169.248C23.6981 169.343 23.8254 169.398 23.959 169.4H45.044C45.1091 169.402 45.1738 169.39 45.2343 169.366C45.2947 169.341 45.3498 169.306 45.3964 169.26C45.4429 169.214 45.4799 169.16 45.5052 169.1C45.5305 169.04 45.5437 168.976 45.544 168.91C45.5445 168.777 45.4925 168.649 45.3991 168.553C45.3057 168.458 45.1785 168.403 45.045 168.4V168.4Z"></path><path fill="#0e2238" d="M44.0871 153.834C44.2197 153.834 44.3469 153.781 44.4407 153.688C44.5344 153.594 44.5871 153.467 44.5871 153.334V149.616C44.5613 147.089 43.5393 144.674 41.7432 142.896C39.947 141.118 37.5219 140.121 34.9946 140.121C32.4673 140.121 30.0422 141.118 28.246 142.896C26.4499 144.674 25.4279 147.089 25.4021 149.616V153.334C25.4021 153.467 25.4548 153.594 25.5485 153.688C25.6423 153.781 25.7695 153.834 25.9021 153.834C26.0347 153.834 26.1619 153.781 26.2557 153.688C26.3494 153.594 26.4021 153.467 26.4021 153.334V149.616C26.4265 147.353 27.3425 145.191 28.9513 143.6C30.56 142.008 32.7316 141.116 34.9946 141.116C37.2575 141.116 39.4292 142.008 41.0379 143.6C42.6467 145.191 43.5627 147.353 43.5871 149.616V153.334C43.5871 153.467 43.6398 153.594 43.7335 153.688C43.8273 153.781 43.9545 153.834 44.0871 153.834Z"></path><path fill="#0e2238" d="M41.7281 153.791C41.8607 153.791 41.9879 153.739 42.0816 153.645C42.1754 153.551 42.2281 153.424 42.2281 153.291V149.813C42.2266 148.867 42.0387 147.929 41.6751 147.055C41.3115 146.181 40.7793 145.387 40.1088 144.719C39.4384 144.051 38.6429 143.521 37.7677 143.16C36.8925 142.799 35.9548 142.614 35.0081 142.615C34.0614 142.617 33.1242 142.805 32.2501 143.168C31.3761 143.532 30.5822 144.064 29.9138 144.734C29.2454 145.405 28.7156 146.2 28.3546 147.076C27.9937 147.951 27.8086 148.889 27.8101 149.835V153.291C27.8101 153.424 27.8627 153.551 27.9565 153.645C28.0503 153.739 28.1775 153.791 28.3101 153.791C28.4427 153.791 28.5699 153.739 28.6636 153.645C28.7574 153.551 28.8101 153.424 28.8101 153.291V149.835C28.8071 148.189 29.4585 146.608 30.6209 145.442C31.7832 144.275 33.3613 143.618 35.0081 143.615C36.6548 143.612 38.2352 144.264 39.4017 145.426C40.5682 146.588 41.2252 148.167 41.2281 149.813V153.291C41.2281 153.424 41.2807 153.551 41.3745 153.645C41.4683 153.739 41.5955 153.791 41.7281 153.791Z"></path><path fill="#0e2238" d="M173.231 127.589H174.885C175.018 127.589 175.145 127.536 175.238 127.442C175.332 127.349 175.385 127.221 175.385 127.089V124.214C175.924 123.908 176.346 123.432 176.583 122.86C176.821 122.288 176.862 121.653 176.698 121.056C176.534 120.458 176.176 119.932 175.68 119.561C175.184 119.19 174.579 118.995 173.959 119.006C173.34 119.018 172.742 119.236 172.261 119.625C171.779 120.015 171.441 120.554 171.3 121.157C171.159 121.76 171.223 122.393 171.482 122.956C171.741 123.519 172.181 123.979 172.731 124.264V127.089C172.731 127.221 172.784 127.349 172.877 127.442C172.971 127.536 173.098 127.589 173.231 127.589ZM172.315 121.199C172.408 120.934 172.563 120.695 172.767 120.501C172.97 120.308 173.216 120.165 173.486 120.085C173.755 120.005 174.039 119.99 174.315 120.04C174.591 120.091 174.852 120.207 175.075 120.377C175.298 120.548 175.477 120.769 175.599 121.022C175.72 121.275 175.78 121.554 175.773 121.834C175.766 122.115 175.693 122.39 175.56 122.637C175.426 122.884 175.236 123.096 175.005 123.256C174.932 123.235 174.855 123.232 174.781 123.246C174.706 123.26 174.636 123.292 174.576 123.338C174.515 123.384 174.467 123.443 174.434 123.512C174.401 123.58 174.384 123.655 174.385 123.731V126.589H173.731V123.731C173.73 123.647 173.708 123.565 173.667 123.491C173.627 123.418 173.568 123.356 173.497 123.312C173.426 123.267 173.345 123.241 173.261 123.236C173.177 123.231 173.094 123.247 173.018 123.283C172.683 123.066 172.431 122.742 172.304 122.364C172.176 121.986 172.18 121.575 172.315 121.2V121.199Z"></path><path fill="#0e2238" d="M183.975 130.176H162.509C162.444 130.175 162.379 130.187 162.319 130.211C162.258 130.235 162.203 130.271 162.157 130.316C162.11 130.362 162.073 130.416 162.048 130.476C162.022 130.536 162.009 130.601 162.009 130.666C162.008 130.8 162.061 130.928 162.154 131.024C162.248 131.119 162.375 131.174 162.509 131.176H183.975C184.04 131.177 184.105 131.165 184.165 131.141C184.226 131.117 184.281 131.081 184.328 131.036C184.374 130.99 184.411 130.936 184.437 130.876C184.462 130.815 184.475 130.751 184.475 130.686C184.476 130.552 184.423 130.424 184.33 130.328C184.236 130.233 184.109 130.178 183.975 130.176V130.176Z"></path><path fill="#0e2238" d="M173.737 99.7871C171.152 99.79 168.674 100.818 166.846 102.646C165.018 104.474 163.99 106.953 163.987 109.538V114C163.987 114.133 164.04 114.26 164.134 114.354C164.227 114.447 164.354 114.5 164.487 114.5C164.62 114.5 164.747 114.447 164.841 114.354C164.934 114.26 164.987 114.133 164.987 114V109.53C165.012 107.224 165.946 105.022 167.586 103.401C169.226 101.78 171.439 100.871 173.745 100.872C176.05 100.872 178.263 101.783 179.901 103.405C181.54 105.027 182.472 107.23 182.496 109.536V114C182.496 114.133 182.549 114.26 182.643 114.354C182.736 114.447 182.863 114.5 182.996 114.5C183.129 114.5 183.256 114.447 183.35 114.354C183.443 114.26 183.496 114.133 183.496 114V109.536C183.492 106.95 182.463 104.471 180.633 102.643C178.803 100.815 176.323 99.7882 173.737 99.7871V99.7871Z"></path><path fill="#0e2238" d="M180.6 114.459C180.733 114.459 180.86 114.406 180.954 114.312C181.047 114.219 181.1 114.091 181.1 113.959V109.811C181.075 107.881 180.289 106.039 178.915 104.684C177.54 103.329 175.686 102.571 173.756 102.574C171.826 102.577 169.975 103.341 168.604 104.7C167.234 106.059 166.454 107.904 166.435 109.834V113.959C166.435 114.091 166.488 114.219 166.582 114.312C166.675 114.406 166.802 114.459 166.935 114.459C167.068 114.459 167.195 114.406 167.289 114.312C167.382 114.219 167.435 114.091 167.435 113.959V109.834C167.453 108.168 168.126 106.576 169.31 105.404C170.493 104.231 172.091 103.572 173.757 103.569C175.423 103.566 177.023 104.219 178.21 105.388C179.397 106.557 180.076 108.146 180.1 109.812V113.959C180.1 114.091 180.153 114.219 180.247 114.312C180.34 114.406 180.467 114.459 180.6 114.459Z"></path><path fill="#0e2238" d="M166.145 160.259C165.835 160.059 165.472 159.955 165.102 159.961C164.733 159.968 164.373 160.084 164.07 160.295C163.767 160.506 163.533 160.803 163.399 161.147C163.265 161.491 163.236 161.868 163.317 162.229C163.397 162.589 163.583 162.918 163.851 163.172C164.119 163.427 164.456 163.596 164.821 163.658C165.185 163.721 165.56 163.673 165.897 163.522C166.234 163.37 166.518 163.122 166.714 162.808C166.972 162.394 167.057 161.894 166.95 161.417C166.844 160.941 166.555 160.525 166.145 160.259V160.259ZM165.868 162.274C165.743 162.468 165.548 162.604 165.323 162.655C165.099 162.706 164.864 162.666 164.668 162.545C164.525 162.453 164.413 162.321 164.345 162.166C164.277 162.01 164.256 161.838 164.286 161.67C164.316 161.503 164.394 161.349 164.511 161.226C164.628 161.103 164.779 161.017 164.945 160.98C165.111 160.942 165.284 160.955 165.442 161.015C165.601 161.076 165.738 161.182 165.837 161.32C165.935 161.459 165.991 161.623 165.996 161.793C166.002 161.962 165.957 162.13 165.868 162.274V162.274Z"></path><path fill="#0e2238" d="M183.423 157.476L172.956 159.44C172.891 159.452 172.83 159.477 172.775 159.513C172.72 159.549 172.672 159.595 172.635 159.649C172.56 159.759 172.532 159.893 172.556 160.024C172.581 160.154 172.656 160.27 172.765 160.344C172.875 160.419 173.01 160.448 173.14 160.423L183.61 158.458C183.676 158.448 183.739 158.424 183.795 158.388C183.852 158.353 183.901 158.306 183.939 158.251C183.977 158.197 184.004 158.135 184.018 158.07C184.032 158.004 184.033 157.937 184.021 157.871C184.008 157.806 183.983 157.743 183.946 157.688C183.909 157.632 183.861 157.585 183.805 157.548C183.749 157.511 183.687 157.486 183.621 157.473C183.556 157.461 183.488 157.462 183.423 157.476V157.476Z"></path><path fill="#0e2238" d="M133.485 11.0786C133.945 11.0774 134.393 10.9279 134.762 10.6523C135.13 10.3767 135.401 9.98971 135.532 9.54859C135.541 9.51585 135.547 9.48239 135.55 9.44859C135.595 8.92028 135.443 8.39398 135.122 7.97197C134.801 7.54997 134.334 7.2624 133.813 7.16516C133.292 7.06791 132.753 7.16793 132.301 7.44578C131.849 7.72364 131.517 8.15947 131.369 8.66859C131.36 8.7012 131.354 8.73472 131.351 8.76859C131.328 9.06291 131.367 9.35876 131.464 9.6376C131.56 9.91645 131.714 10.1723 131.914 10.3891C132.114 10.606 132.357 10.7791 132.628 10.8978C132.898 11.0164 133.19 11.078 133.485 11.0786V11.0786ZM132.345 8.89859C132.433 8.64013 132.612 8.4221 132.848 8.28439C133.084 8.14667 133.361 8.09847 133.63 8.1486C133.898 8.19873 134.14 8.34384 134.31 8.5574C134.48 8.77095 134.568 9.03867 134.557 9.31159C134.468 9.56866 134.289 9.78511 134.053 9.92167C133.818 10.0582 133.541 10.1058 133.274 10.0559C133.006 10.0059 132.765 9.86168 132.595 9.64935C132.424 9.43702 132.336 9.17065 132.345 8.89859V8.89859Z"></path><path fill="#0e2238" d="M139.544 16.1001C139.467 15.9917 139.351 15.9183 139.22 15.8959C139.089 15.8734 138.955 15.9039 138.846 15.9806C138.738 16.0572 138.665 16.1738 138.642 16.3046C138.62 16.4354 138.65 16.5697 138.727 16.6781L145.655 26.4631C145.693 26.5172 145.741 26.5633 145.796 26.5988C145.852 26.6343 145.914 26.6584 145.979 26.6698C146.044 26.6811 146.111 26.6795 146.175 26.665C146.239 26.6505 146.3 26.6234 146.354 26.5852C146.408 26.5471 146.454 26.4987 146.489 26.4428C146.524 26.3868 146.547 26.3246 146.558 26.2595C146.569 26.1944 146.567 26.1278 146.552 26.0635C146.537 25.9993 146.509 25.9386 146.471 25.8851L139.544 16.1001Z"></path><path fill="#0e2238" d="M137.389 134.39C137.769 134.39 138.145 133.95 138.415 133.651C138.84 133.183 140.597 131.789 141.059 131.423C141.163 131.34 141.23 131.22 141.245 131.088C141.26 130.956 141.222 130.824 141.139 130.72C141.056 130.616 140.936 130.549 140.804 130.534C140.672 130.519 140.54 130.557 140.436 130.64C139.296 131.472 138.229 132.399 137.245 133.411C137.13 133.445 137.031 133.52 136.967 133.622C136.902 133.723 136.876 133.844 136.894 133.963C136.911 134.082 136.971 134.19 137.062 134.269C137.153 134.347 137.269 134.39 137.389 134.39V134.39Z"></path><path fill="#0e2238" d="M137.664 131.581C137.746 131.581 137.827 131.56 137.9 131.521C137.973 131.482 138.034 131.426 138.08 131.358C139.003 129.766 140.056 128.254 141.229 126.837C141.321 126.741 141.371 126.612 141.368 126.48C141.365 126.347 141.309 126.221 141.214 126.129C141.118 126.037 140.989 125.987 140.857 125.99C140.724 125.993 140.598 126.049 140.506 126.145C139.288 127.601 138.198 129.16 137.248 130.804C137.198 130.879 137.169 130.966 137.165 131.057C137.161 131.147 137.181 131.237 137.224 131.317C137.266 131.396 137.33 131.463 137.407 131.51C137.485 131.556 137.574 131.581 137.664 131.581Z"></path><path fill="#0e2238" d="M102.376 27.8139C104.535 26.4139 108.276 26.5069 110.076 28.0039C110.178 28.0888 110.31 28.1296 110.442 28.1174C110.574 28.1052 110.696 28.041 110.781 27.9389C110.866 27.8368 110.907 27.7051 110.894 27.5729C110.882 27.4407 110.818 27.3188 110.716 27.2339C108.586 25.4649 104.35 25.3409 101.83 26.9749C101.72 27.0478 101.644 27.1609 101.617 27.2897C101.591 27.4186 101.616 27.5528 101.687 27.6631C101.759 27.7735 101.871 27.8513 102 27.8795C102.128 27.9077 102.263 27.8841 102.374 27.8139H102.376Z"></path><path fill="#0e2238" d="M89.1831 28.601C89.224 28.6549 89.2754 28.7 89.3343 28.7336C89.3931 28.7671 89.4581 28.7883 89.5254 28.7959C89.5927 28.8035 89.6608 28.7974 89.7256 28.7779C89.7905 28.7585 89.8507 28.726 89.9026 28.6825C89.9545 28.6391 89.9971 28.5855 90.0277 28.5252C90.0583 28.4648 90.0763 28.3988 90.0807 28.3312C90.085 28.2636 90.0756 28.1959 90.053 28.1321C90.0304 28.0683 89.9951 28.0097 89.9491 27.96C88.9796 26.7989 87.6214 26.0294 86.1272 25.7945C84.6329 25.5596 83.1041 25.8753 81.8251 26.683C81.7671 26.727 81.0051 27.4 81.0051 27.4L81.6681 28.148C81.6681 28.148 82.3431 27.548 82.3841 27.511C83.4584 26.8423 84.7381 26.5844 85.9874 26.7847C87.2368 26.985 88.3718 27.63 89.1831 28.601V28.601Z"></path></svg>