<svg xmlns="http://www.w3.org/2000/svg" fill="none" viewBox="0 0 200 200" height="170" width="170"><path fill="#00bac7" d="M38.4 159.109C38.0575 159.376 37.689 159.608 37.3 159.802C34.091 158.25 39.488 154.407 40.678 152.172C41.444 150.734 40.135 149.772 40.092 148.491C40.043 147.031 41.384 145.478 42.492 144.254C43.412 143.234 46.015 139.525 47.748 139.926C48.913 140.196 49.178 141.318 48.395 142.299C46.935 144.125 44.409 145.844 43.77 147.974C43 150.542 47.785 149.912 38.4 159.109Z"></path><path fill="#00bac7" d="M22.272 154.629C19.785 152.081 26.172 150.303 28.045 148.605C29.256 147.511 28.345 146.164 28.745 144.939C29.198 143.548 30.973 142.539 32.427 141.767C33.643 141.119 37.347 138.521 38.839 139.485C39.839 140.133 39.721 141.28 38.649 141.934C36.656 143.151 33.693 143.922 32.374 145.699C31.615 146.72 32.281 147.639 31.887 148.658C31.178 150.491 28.333 151.958 26.372 152.971C25.443 153.448 24.501 153.922 23.535 154.355C23.1261 154.495 22.7022 154.586 22.272 154.629Z"></path><path fill="#def6f8" d="M26.3 127.793C26.8024 128.107 27.2319 128.524 27.5597 129.017C27.8874 129.511 28.1057 130.068 28.2 130.653C28.337 131.017 28.374 131.411 28.307 131.794C28.193 132.075 27.56 131.494 27.447 131.421C25.494 130.083 25.155 129.685 24.847 129.907C24.4461 130.354 24.1245 130.866 23.896 131.421C23.884 131.596 24.17 131.821 24.269 131.931C24.7093 132.441 25.1928 132.911 25.714 133.338C25.927 133.512 26.707 133.991 26.614 134.372C26.552 134.623 26.114 134.672 25.93 134.692C25.2095 134.757 24.484 134.647 23.815 134.372C23.2952 134.216 22.8117 133.958 22.3926 133.613C21.9735 133.269 21.6272 132.844 21.374 132.364C21.2107 131.746 21.0151 131.137 20.788 130.539C20.2175 129.692 19.486 128.966 18.635 128.401C17.3856 127.355 15.9987 126.485 14.513 125.815C13.661 125.503 12.9 126.042 12.033 125.967C10.322 125.82 7.994 123.305 8.542 121.229C8.542 121.229 8.409 121.129 9.85 122.164C10.774 122.828 11.436 123.464 12.55 123.1C12.763 123.029 13.044 122.985 13.182 122.78C13.32 122.575 13.182 122.293 13.113 122.103C12.8003 121.516 12.3318 121.026 11.759 120.688C11.549 120.536 11.711 120.646 10.679 119.882C10.587 119.814 9.658 119.234 9.888 119.045C11.051 118.092 12.962 118.679 13.995 119.525C15.054 120.391 15.195 121.791 16.057 122.773C16.8874 123.562 17.8034 124.256 18.788 124.842C19.974 125.693 21.13 126.698 22.388 127.428C23.072 127.823 23.621 127.542 24.328 127.466C25.003 127.389 25.6859 127.503 26.3 127.793V127.793Z"></path><path fill="#ffffff" d="M85.131 83.8C91.104 88.939 98.431 90.309 105.364 93.589C107.733 94.7186 109.957 96.1287 111.99 97.789C115.921 94.073 115.251 94.306 115.344 94.206C116.221 94.4074 117.077 94.6927 117.9 95.058C121.946 97.249 124.145 101.181 127 104.558C124.65 107.969 121.792 111.002 118.526 113.549C117.296 114.516 115.833 115.887 114.226 116.105C112.82 116.12 111.437 115.744 110.233 115.017C105.229 112.637 100.495 109.725 96.115 106.331C85.775 98.64 85 96.362 81.191 93.2C79.966 92.181 78.551 92.373 77.228 91.664C75.728 90.864 74.642 89.351 73.212 88.408C71.338 87.172 68.021 85.858 66.557 84.445C65.6963 83.6068 64.9988 82.616 64.5 81.523C63.889 80.197 63.762 78.793 65.17 78.154L65.588 77.994C65.2131 77.1369 65.1539 76.1746 65.421 75.278C65.5765 74.8446 65.8613 74.4693 66.2368 74.2029C66.6123 73.9364 67.0606 73.7916 67.521 73.788L67.921 73.628C67.244 71.909 67.107 69.612 68.921 68.783L68.952 68.752C68.5269 68.4939 68.1609 68.1493 67.8778 67.7404C67.5947 67.3316 67.4009 66.8677 67.309 66.379C67.229 65.063 69.393 64.5 70.359 64.744C73.359 65.737 74.659 67.779 77.25 69.855L77.608 69.916C78.337 69.079 78.394 68.864 79.108 67.953C79.901 68.562 82.444 69.692 82.843 71.665C83.433 74.585 80.465 77.407 81.39 80.238C81.908 81.827 83.938 82.77 85.131 83.8Z"></path><path fill="#0e2238" fill-rule="evenodd" d="M78.7114 67.6486C78.8796 67.4296 79.1935 67.3884 79.4125 67.5566C79.5553 67.6662 79.7715 67.8005 80.0609 67.9803C80.0858 67.9957 80.1112 68.0115 80.1371 68.0276C80.4527 68.2238 80.8256 68.4584 81.2001 68.7307C81.9386 69.2677 82.7439 69.9936 83.1431 70.9497C83.8409 72.6211 83.2518 74.2361 82.6826 75.654C82.644 75.7501 82.6055 75.8454 82.5674 75.9398C82.0141 77.3098 81.5302 78.5078 81.7717 79.7249C81.9319 80.5327 82.4468 81.1391 83.1545 81.7132C83.4843 81.9808 83.8407 82.2295 84.2107 82.4877C84.2385 82.5071 84.2664 82.5266 84.2943 82.5461C84.6871 82.8204 85.0943 83.1079 85.4576 83.4216C88.3835 85.9388 91.6501 87.5415 95.0751 88.9283C96.2581 89.4073 97.4686 89.8634 98.6908 90.3239C100.98 91.1862 103.31 92.0641 105.578 93.1372L105.579 93.1378C107.984 94.2847 110.243 95.7163 112.306 97.4019C112.52 97.5766 112.552 97.8916 112.377 98.1055C112.203 98.3193 111.888 98.3511 111.674 98.1764C109.672 96.5416 107.482 95.1532 105.15 94.0408C102.914 92.9833 100.657 92.1334 98.3962 91.282C97.1644 90.8182 95.9313 90.3538 94.6998 89.8552C91.2351 88.4524 87.8519 86.8007 84.8049 84.1792L84.8042 84.1786C84.4851 83.9031 84.1182 83.6428 83.7218 83.3659C83.6922 83.3453 83.6626 83.3246 83.6327 83.3038C83.269 83.0501 82.8838 82.7813 82.5245 82.4898C81.7454 81.8579 81.018 81.0647 80.7908 79.9195C80.4882 78.3945 81.0888 76.9188 81.6178 75.6191C81.6641 75.5052 81.71 75.3926 81.7546 75.2815C82.3373 73.8297 82.742 72.5845 82.2203 71.3349C81.9292 70.6376 81.3077 70.0454 80.612 69.5395C80.2693 69.2903 79.9232 69.0721 79.6091 68.8769C79.5794 68.8584 79.5496 68.8399 79.52 68.8215C79.2492 68.6536 78.9883 68.4916 78.8035 68.3497C78.5844 68.1815 78.5432 67.8676 78.7114 67.6486Z" clip-rule="evenodd"></path><path fill="#ffffff" d="M188.145 157.884C187.975 155.295 188.823 150.09 185.817 148.703L185.848 148.627C186.981 148.627 188.685 148.459 189.648 149.152C190.139 149.657 190.433 150.321 190.477 151.023C190.963 153.304 191.16 155.637 191.063 157.967C191.062 158.275 190.966 158.576 190.789 158.827C190.038 159.212 189.226 159.464 188.389 159.572C188.265 159.017 188.183 158.452 188.145 157.884V157.884Z"></path><path fill="#00bac7" d="M182.349 174.062C182.486 174.984 180.835 175.111 180.249 175.211C171.512 176.711 173.864 176.811 172.308 176.573C172.814 176.225 173.199 175.727 173.408 175.15C173.469 174.785 172.883 174.656 172.663 174.511L173.294 174.488C173.271 174.466 174.169 174.123 174.207 174.108C174.807 173.908 175.424 173.729 176.04 173.56C177.576 173.019 179.207 172.797 180.832 172.906C181.451 173 182.244 173.363 182.349 174.062Z"></path><path fill="#00bac7" d="M171.905 170.442L172.072 170.457C172.627 169.917 173.26 169.463 173.951 169.111C175.52 167.972 177.231 167.041 179.04 166.342C179.54 166.154 182.087 165.77 181.634 167.118C181.312 168.075 179.512 168.694 178.72 169.118C176.441 170.34 173.685 171.492 171.867 173.401L171.677 173.454C171.06 172.172 171.811 171.387 171.905 170.442Z"></path><path fill="#ffffff" d="M171.5 169.324C170.574 168.399 169.537 167.593 168.412 166.924C168.412 162.117 163.468 153.754 166.982 147.954C171.951 148.325 176.088 148.996 179.913 148.737C181.739 148.613 184.413 147.849 186.097 148.859C188.772 150.467 187.975 155.325 188.143 157.888C188.434 162.344 191.343 165.364 192.691 173.215C193.073 175.439 193.291 178.328 191.672 180.152C190.244 181.758 187.679 182.137 185.772 182.928C181.497 184.7 177.503 187.342 172.902 188.252C171.031 188.623 168.552 188.852 166.977 187.522C163.828 184.86 167.664 180.686 169.7 178.836C170.21 178.372 170.719 177.915 171.229 177.451C171.48 177.223 171.906 176.919 172.309 176.577C173.828 176.813 171.548 176.709 180.25 175.215C180.836 175.115 182.487 174.988 182.35 174.066C182.25 173.366 181.45 173.008 180.836 172.91C179.211 172.801 177.58 173.023 176.044 173.564C175.428 173.733 174.812 173.914 174.211 174.112C174.173 174.127 173.275 174.47 173.298 174.492L172.667 174.515C172.247 174.26 171.905 173.894 171.678 173.458L171.868 173.405C173.686 171.496 176.442 170.344 178.721 169.122C179.513 168.698 181.313 168.079 181.635 167.122C182.088 165.774 179.546 166.158 179.041 166.346C177.232 167.045 175.521 167.976 173.952 169.115C173.261 169.466 172.628 169.92 172.073 170.461L171.906 170.446C171.935 170.24 171.914 170.03 171.843 169.834C171.772 169.639 171.654 169.464 171.5 169.324Z"></path><path fill="#00bac7" d="M154.646 53.2436C148.804 53.2436 143.258 56.3776 137.532 59.7546C134.351 61.6069 131.299 63.6729 128.397 65.9386L128.222 65.7326C126.457 63.5196 127.058 62.3026 127.322 61.2836C127.739 60.4287 128.316 59.6618 129.022 59.0246C133.709 54.1556 146.772 44.3816 151.696 49.3036C152.829 50.4073 153.851 51.6198 154.747 52.9236L154.646 53.2436Z"></path><path fill="#def6f8" d="M150.181 14.9903C152.176 18.1233 153.365 21.3983 152.481 25.1373C151.188 30.6373 147.307 30.4973 141.802 28.9783C133.223 26.6123 124.774 21.4083 117.702 15.8953C115.397 14.1729 113.216 12.2895 111.176 10.2593C110.784 9.85935 109.602 8.90535 109.776 7.68835C110.051 5.76435 114.569 6.54535 117.033 7.65035C118.859 8.47035 119.558 9.39935 120.303 9.26335C121.551 9.03435 122.929 7.66335 124.038 7.07235C133.32 2.14135 144.8 6.54235 150.181 14.9903Z"></path><path fill="#ffffff" d="M156.365 191.3C156.356 191.77 156.31 192.238 156.228 192.7C156.095 193.156 155.83 193.563 155.466 193.868C155.101 194.172 154.654 194.362 154.182 194.412C151.156 195.004 148.049 195.045 145.009 194.533L144.809 193.97C147.754 192.924 150.059 191.554 153.541 191.57C154.461 191.576 155.556 191.905 156.325 191.243L156.365 191.3Z"></path><path fill="#def6f8" d="M156.86 169.241C156.989 168.199 156.976 167.145 156.822 166.107C155.789 162.516 153.322 159.336 151.022 156.477C149.805 154.969 148.477 153.553 147.051 152.241C145.043 150.392 142.065 148.903 141.451 146.064C140.585 142.045 140.203 142.526 140.569 142.352C140.569 142.391 140.759 142.36 140.843 142.368C142.459 142.61 145.343 142.746 147.019 143.022L147.103 142.794C150.792 144.155 154.541 145.351 158.01 146.323C160.99 147.156 164.084 147.511 167.176 147.373L167.183 147.639C163.522 152.929 167.942 161.017 168.4 166.594C168.457 167.185 168.381 167.781 168.178 168.339C167.976 168.897 167.652 169.403 167.229 169.82C166.807 170.237 166.297 170.555 165.737 170.751C165.176 170.947 164.579 171.015 163.989 170.952C162.074 170.88 160.467 169.352 158.063 169.218C157.818 169.201 157.065 169.378 156.86 169.241Z"></path><path fill="#def6f8" d="M157.019 170.352C157.47 171.667 159.6 171.607 159.575 173.425C159.551 175.155 157.637 176.174 155.985 176.718C149.476 178.861 141.556 178.651 134.839 177.95C132.169 177.672 128.764 177.345 126.677 175.65C123.092 172.744 128.822 168.864 126.928 165.937C126.152 164.737 124.373 164.08 123.239 163.275C121.223 161.843 119.412 160.144 117.854 158.224C112.319 151.399 108.123 143.056 104.444 135.093C103.072 132.249 101.517 129.497 99.789 126.855C97.6272 123.564 95.8774 120.021 94.579 116.305C93.894 113.915 91.46 109.878 95.811 106.721L96.111 106.326C100.492 109.719 105.225 112.632 110.229 115.012C111.433 115.738 112.816 116.115 114.222 116.1C115.834 115.882 117.297 114.511 118.522 113.544C120.843 111.73 122.962 109.672 124.843 107.406C125.056 107.868 133.407 110.785 135.5 111.551C136.642 112.073 137.819 112.516 139.022 112.875C139.638 111.011 140.757 109.087 141.273 107.175C141.873 104.947 141.364 103.038 141.38 100.847C141.259 100.753 141.698 100.386 138.04 104.647C136.82 106.066 135.348 108.161 133.454 108.724C131.354 109.347 129.473 107.197 128.175 105.864C124.749 102.345 122.511 97.5516 117.899 95.0546C117.072 94.6999 116.217 94.4149 115.343 94.2026C113.383 93.7026 111.169 93.0026 110.695 91.6926C110.188 90.2846 111.943 88.6926 112.772 87.8136C115.307 85.3669 117.436 82.5313 119.078 79.4136C121.222 74.8806 122.543 70.6196 128.396 65.9426C131.291 63.6681 134.344 61.6016 137.531 59.7586C142.943 56.5666 148.645 53.1976 154.752 53.2476C160.484 53.2936 165.346 56.2406 168.983 60.5566C178.019 71.2786 181.933 85.5196 186.333 98.4976C187.62 102.298 191.733 105.618 192.152 109.558C192.631 114.058 188.225 116.943 187.413 121.036C186.689 124.686 188.688 128.314 187.74 132.065C185.24 141.981 176.529 146.943 167.256 147.377H167.173C164.081 147.515 160.987 147.16 158.007 146.327C150.663 144.33 143.524 141.643 136.686 138.302L136.58 138.447C137.551 139.09 138.454 139.831 139.273 140.66C140.534 141.967 140.956 143.786 141.448 146.068C142.06 148.907 145.038 150.396 147.048 152.245C148.474 153.557 149.802 154.973 151.019 156.481C153.325 159.34 155.79 162.52 156.819 166.111C157.235 167.546 156.578 169.063 157.019 170.352Z"></path><path fill="#ffffff" d="M109.472 26.7195C110.418 23.0615 113.45 17.1585 117.504 16.1465L117.704 15.8955C118.761 16.7075 119.841 17.5115 120.944 18.3075C120.716 18.6295 120.79 18.4595 120.785 18.7785C120.842 19.4357 120.954 20.0869 121.119 20.7255C122.632 26.8255 125.366 33.5855 131.099 36.1255L131.274 36.3685C132.734 35.1975 134.95 34.7385 136.374 36.2545C138.423 38.4425 137.435 41.7345 135.522 43.6025C134.96 44.1505 133.604 44.7195 133.263 45.4125C133.072 45.8005 133.428 46.4255 133.563 46.7745C133.965 47.7724 134.422 48.7473 134.932 49.6945C135.099 50.0075 135.313 50.5165 135.67 50.6605C136.119 50.8435 137.015 50.2605 137.397 50.0985C138.897 49.4495 140.378 48.7655 141.847 48.0525C143.025 47.4805 144.319 46.9945 145.559 46.4245L145.574 46.4625C146.022 46.9455 146.413 47.4791 146.738 48.0525C140.812 48.9795 132.574 55.3465 129.03 59.0285L128.604 58.7085C127.569 57.2867 126.066 56.2743 124.36 55.8485C120.56 55.2545 116.083 57.9035 112.524 55.8255C110.257 54.5025 110.324 51.3785 109.314 49.2315C109.001 48.5625 107.214 47.1315 107.414 45.6715L107.148 45.5795C107.62 44.9715 108.048 44.3875 108.304 44.4465C109.679 44.7605 109.971 47.4065 111.887 46.6905C113.637 46.0375 112.494 43.5245 113.53 42.6905C114.145 42.1905 116.566 45.5285 117.082 43.3975C117.464 41.8235 115.719 40.3125 114.526 39.7085C111.039 37.9435 108.526 40.1425 105.551 40.2945C104.523 40.3475 102.914 40.3245 102.539 39.1005C101.767 36.5815 106.396 34.7735 107.559 33.1675C108.887 31.3225 108.919 28.8575 109.472 26.7195Z"></path><path fill="#00bac7" d="M125.2 178.611C125.91 178.451 126.578 178.145 127.162 177.711C128.126 179.049 129.18 179.66 130.136 180.799C131.042 181.878 132.287 183.263 132.487 184.739C132.577 185.408 131.97 186.686 131.133 186.146C128.85 184.314 129.002 182.758 125.291 179.08L125.2 178.611Z"></path><path fill="#def6f8" d="M126.928 165.94C127.183 166.412 127.319 166.941 127.321 167.478C127.324 168.015 127.195 168.544 126.944 169.02L126.837 168.982C125.136 169.233 123.41 169.256 121.703 169.051C119.771 168.701 118.036 167.79 116.059 167.613C107.973 166.89 99.838 167.613 92.768 162.654C87.547 158.992 84.463 150.613 88.448 144.984C91.635 140.484 98.686 136.815 103.965 135.324L104.444 135.096C108.202 143.022 112.319 151.402 117.854 158.227C119.412 160.147 121.223 161.846 123.239 163.278C124.373 164.083 126.152 164.739 126.928 165.94Z"></path><path fill="#ffffff" d="M125.293 179.084C129.11 182.867 128.793 184.268 131.135 186.15C131.972 186.69 132.579 185.412 132.489 184.743C132.289 183.267 131.044 181.882 130.138 180.803C129.214 179.703 128.114 179.034 127.164 177.715C127.389 177.561 127.605 177.394 127.811 177.215L128.001 176.477C130.182 177.347 132.493 177.843 134.839 177.945C141.291 178.618 150.471 178.938 156.739 176.432L156.839 176.675C158.223 180.661 159.897 187.818 156.39 191.188C156.371 191.21 156.348 191.228 156.322 191.241C155.187 192.219 153.893 190.973 150.001 192.048C147.195 192.822 144.877 194.248 142.101 194.687C136.901 195.506 131.201 194.518 125.952 194.497C121.769 194.48 117.509 194.481 113.352 194.071C111.42 193.88 109.022 193.671 107.487 192.337C105.044 190.216 105.899 186.537 108.08 184.601C111.239 181.789 115.664 182.228 119.208 180.478L120.524 180.532C122.38 182.266 123.524 184.747 124.814 186.898C125.156 187.469 125.862 189.01 126.754 188.412C128.554 187.205 126.402 184.532 125.081 182.806C124.034 181.438 123.11 180.449 122.274 179.429C122.219 179.362 122.144 179.193 122.084 179.155L122.023 178.904C123.088 178.615 124.115 178.812 125.21 178.604L125.293 179.084Z"></path><path fill="#00bac7" d="M125.073 182.81C126.396 184.539 128.544 187.21 126.746 188.416C125.854 189.016 125.146 187.473 124.806 186.902C123.519 184.751 122.372 182.27 120.516 180.536L119.2 180.482C120.7 179.758 120.819 179.232 122.015 178.908L122.076 179.159C122.136 179.197 122.211 179.366 122.266 179.433C123.1 180.452 124.01 181.422 125.073 182.81Z"></path><path fill="#0e2238" d="M120.942 18.3076C127.301 22.8706 134.328 26.9166 141.807 28.9786C144.02 29.5896 147.017 30.3556 149.276 29.5116L150.227 29.5346C155.848 32.7286 152.427 41.5696 148.477 44.7016C146.477 46.2856 144.392 46.8116 141.845 48.0486C140.376 48.7616 138.897 49.4486 137.395 50.0946C137.013 50.2586 136.117 50.8396 135.668 50.6566C135.311 50.5126 135.097 50.0036 134.93 49.6906C134.42 48.7434 133.963 47.7686 133.561 46.7706C133.422 46.4216 133.061 45.7966 133.261 45.4086C133.602 44.7156 134.961 44.1466 135.52 43.5986C137.433 41.7306 138.42 38.4386 136.372 36.2506C134.952 34.7346 132.736 35.1936 131.272 36.3646L131.097 36.1216C126.609 34.1356 124.153 29.7846 122.509 25.3126C121.967 23.8386 120.775 20.1216 120.775 18.5426L120.942 18.3076Z"></path><path fill="#0e2238" d="M114.522 39.7C115.715 40.3 117.46 41.815 117.078 43.389C116.562 45.52 114.141 42.189 113.526 42.682C112.49 43.517 113.633 46.03 111.883 46.682C109.967 47.398 109.675 44.752 108.3 44.438C107.779 44.319 106.657 46.663 105.8 46.849C103.917 47.258 103.374 43.414 105.731 40.681L105.686 40.27C108.856 39.97 111.156 38 114.522 39.7Z"></path><path fill="#ffffff" d="M97.157 130.333C96.5736 131.401 95.7932 132.348 94.857 133.125C94.605 133.336 94.249 133.794 93.922 133.893C92.244 132.837 91.903 132.046 93.237 130.554C94.468 129.171 95.712 129.489 97.157 130.333Z"></path><path fill="#def6f8" d="M97.081 35.2923L94.541 36.3493C94.4947 36.9402 94.3943 37.5257 94.241 38.0983L96.257 39.9623C95.8318 41.0344 95.2527 42.039 94.538 42.9443L91.914 42.1223C91.4975 42.5452 91.0414 42.9273 90.552 43.2633L90.894 45.9863C89.8823 46.54 88.7926 46.9375 87.662 47.1653L86.178 44.8653C85.5862 44.9193 84.9908 44.9193 84.399 44.8653L82.915 47.1653C81.7816 46.9385 80.6891 46.5409 79.675 45.9863L80.025 43.2633C79.5326 42.9313 79.0761 42.5489 78.663 42.1223L76.039 42.9443C75.3193 42.0411 74.7376 41.0362 74.313 39.9623L76.331 38.1003C76.1697 37.5289 76.0652 36.9431 76.019 36.3513L73.486 35.2943C73.5151 34.1402 73.7149 32.9968 74.079 31.9013L76.825 31.7723C77.0739 31.2337 77.3718 30.7192 77.715 30.2353L76.453 27.7943C77.2233 26.9312 78.115 26.1848 79.1 25.5783L81.283 27.2443C81.8195 26.9875 82.3798 26.7839 82.956 26.6363L83.556 23.9583C84.6986 23.7913 85.8594 23.7913 87.002 23.9583L87.61 26.6363C88.1834 26.7856 88.7412 26.9892 89.276 27.2443L91.467 25.5783C92.4478 26.1866 93.3364 26.9322 94.106 27.7923L92.843 30.2333C93.1869 30.7168 93.4849 31.2313 93.733 31.7703L96.479 31.8993C96.8426 32.9952 97.0454 34.1381 97.081 35.2923V35.2923ZM90.76 35.6193C90.76 34.5352 90.4385 33.4754 89.8362 32.5741C89.2339 31.6727 88.3778 30.9702 87.3763 30.5554C86.3747 30.1406 85.2726 30.0321 84.2094 30.2436C83.1461 30.4552 82.1695 30.9773 81.403 31.744C80.6365 32.5106 80.1146 33.4873 79.9032 34.5506C79.6918 35.6139 79.8005 36.7159 80.2155 37.7174C80.6305 38.7189 81.3332 39.5749 82.2347 40.177C83.1361 40.7792 84.1959 41.1005 85.28 41.1003C86.7335 41.1 88.1273 40.5224 89.155 39.4946C90.1827 38.4667 90.76 37.0727 90.76 35.6193Z"></path><path fill="#ffffff" d="M85.945 123.754L85.702 123.761C85.756 126.036 84.523 126.895 83.313 126.621C80.145 125.904 80.392 120.545 81.982 118.121C83.638 115.602 87.749 116.809 90.235 116.935C91.7193 117.114 93.2246 116.982 94.655 116.547C95.935 120.181 97.6594 123.642 99.789 126.853C99.4384 127.303 99.111 127.77 98.808 128.253C98.5536 127.961 98.2679 127.698 97.956 127.469C97.702 127.308 98.831 127.982 95.75 126.108C94.2102 126.817 92.4906 127.039 90.8213 126.743C89.152 126.448 87.6126 125.651 86.409 124.457C86.379 124.43 85.945 123.929 85.945 123.754Z"></path><path fill="#00bac7" d="M92.654 55.3276C92.854 56.2276 91.993 57.4116 91.627 58.1726C90.891 59.7016 90.104 62.0246 88.364 62.6726C86.948 63.2016 85.603 62.4286 84.211 62.6876C83.4211 62.9135 82.7301 63.3985 82.249 64.0646C80.381 66.1646 78.09 69.3646 77.609 69.9136L77.251 69.8526C76.262 69.0616 75.175 67.9436 74.011 66.9396L74.566 66.8556C75.791 65.0556 77.145 63.3556 78.377 61.5696C79.0162 60.8288 79.5346 59.9918 79.913 59.0896C80.142 58.2676 79.422 57.3976 79.267 56.6096C79.053 55.3501 79.325 54.0563 80.028 52.9896C80.994 51.4386 83.068 48.0396 85.139 50.0306C85.833 50.6976 85.118 51.6816 84.751 52.3306C83.896 53.8546 82.427 56.7416 84.561 57.9216C84.9165 58.1172 85.3021 58.2524 85.702 58.3216C88.577 58.8216 88.933 55.9086 90.623 54.4346C91.269 53.8736 92.49 54.5736 92.654 55.3276Z"></path><path fill="#ffffff" d="M89.581 132.372C91.532 134.785 89.111 138.608 86.265 137.613C85.679 137.408 83.665 135.521 84.873 134.874L84.88 134.844C86.614 135.099 88.889 134.259 89.148 132.319L89.581 132.372Z"></path><path fill="#00bac7" d="M95.75 126.113C98.795 127.965 97.723 127.326 97.956 127.474C98.2666 127.705 98.5521 127.967 98.808 128.258C99.724 129.287 100.747 130.905 99.082 131.186C98.36 131.308 97.416 130.419 97.157 130.334C95.712 129.49 94.468 129.172 93.232 130.555C91.902 132.043 92.232 132.847 93.917 133.894C94.724 134.394 96.009 135.042 95.735 135.841C94.943 138.151 91.474 136.013 90.152 135.317C90.3046 134.817 90.3323 134.287 90.2327 133.774C90.1332 133.26 89.9094 132.779 89.581 132.373L89.148 132.32C89.2379 131.892 89.2411 131.45 89.1574 131.02C89.0738 130.591 88.905 130.183 88.661 129.82L88.189 129.759C88.789 128.976 89.045 128.011 88.045 127.359C86.9743 126.901 85.8157 126.685 84.652 126.727L84.66 126.415C85.116 126.099 85.4372 125.624 85.56 125.084C85.6637 124.653 85.7124 124.211 85.705 123.768L85.948 123.761C85.948 123.936 86.382 124.437 86.412 124.468C87.616 125.66 89.1552 126.456 90.8238 126.75C92.4925 127.044 94.2111 126.822 95.75 126.113Z"></path><path fill="#ffffff" d="M84.652 126.72C85.8157 126.679 86.9743 126.894 88.045 127.352C89.045 128.007 88.791 128.972 88.189 129.752C87.8129 130.248 87.3326 130.656 86.782 130.946C85.294 131.722 83.257 132.167 81.807 131.471C79.819 130.517 80.096 127.044 81.435 125.622L81.625 125.485C81.9292 125.985 82.407 126.355 82.9668 126.525C83.5267 126.695 84.1295 126.652 84.66 126.405L84.652 126.72Z"></path><path fill="#ffffff" d="M83.352 134.236C83.025 134.016 81.48 132.426 81.876 131.836L81.99 131.547C82.7872 131.778 83.6233 131.845 84.4471 131.743C85.271 131.641 86.0654 131.372 86.782 130.953C87.3324 130.662 87.8126 130.255 88.189 129.759L88.661 129.82C89.0801 130.437 89.2746 131.179 89.2122 131.923C89.1498 132.666 88.8341 133.366 88.318 133.905C87.6336 134.482 86.7827 134.826 85.8893 134.885C84.996 134.945 84.1069 134.717 83.352 134.236Z"></path><path fill="#00bac7" d="M81.085 120.339C80.674 122.08 80.704 124.187 81.625 125.488L81.435 125.625C79.935 125.005 74.435 121.386 72.17 120.156C71.3641 119.6 70.476 119.174 69.538 118.893C68.702 118.756 67.917 119.558 67.138 119.799C65.9089 120.147 64.5935 120.017 63.457 119.433C61.81 118.639 58.218 116.948 59.973 114.672C60.559 113.912 61.609 114.511 62.301 114.809C63.901 115.499 66.933 116.652 67.884 114.398C68.0376 114.025 68.1275 113.63 68.15 113.227C68.33 110.313 65.408 110.263 63.761 108.746C63.131 108.167 63.693 106.876 64.43 106.632C65.298 106.344 66.576 107.065 67.366 107.347C68.966 107.916 71.361 108.447 72.197 110.108C72.874 111.454 72.25 112.877 72.653 114.238C72.9619 114.997 73.5161 115.631 74.227 116.038C75.772 117.133 79.217 119.286 80.827 120.275L81.085 120.339Z"></path><path fill="#def6f8" d="M68.359 26.111L65.165 27.457C65.104 28.205 64.9741 28.9458 64.777 29.67L67.325 32.036C66.7882 33.3955 66.0551 34.6691 65.149 35.816L61.841 34.782C61.3159 35.318 60.7403 35.8019 60.122 36.227L60.563 39.688C59.2817 40.3823 57.9053 40.8847 56.478 41.179L54.607 38.25C53.8606 38.319 53.1094 38.319 52.363 38.25L50.492 41.179C49.064 40.8873 47.6872 40.3848 46.407 39.688L46.848 36.227C46.2298 35.8019 45.6541 35.318 45.129 34.782L41.821 35.816C40.9149 34.6691 40.1818 33.3955 39.645 32.036L42.193 29.67C41.9959 28.9458 41.8661 28.205 41.805 27.457L38.611 26.111C38.6482 24.6464 38.9019 23.1953 39.364 21.805L42.825 21.646C43.1358 20.9609 43.5101 20.3063 43.943 19.691L42.353 16.591C43.322 15.4991 44.4444 14.5536 45.685 13.784L48.438 15.9C49.1165 15.5741 49.8247 15.3142 50.553 15.124L51.313 11.732C52.7532 11.519 54.2168 11.519 55.657 11.732L56.417 15.124C57.1431 15.313 57.8488 15.5729 58.524 15.9L61.285 13.785C62.5251 14.5552 63.6451 15.5037 64.609 16.6L63.02 19.7C63.4574 20.3137 63.8342 20.9685 64.145 21.655L67.606 21.814C68.0638 23.2023 68.3175 24.6498 68.359 26.111V26.111ZM60.395 26.529C60.3881 25.164 59.9771 23.8317 59.2138 22.7C58.4505 21.5684 57.3691 20.6882 56.1061 20.1704C54.8431 19.6526 53.4551 19.5206 52.1171 19.7908C50.7791 20.061 49.5511 20.7215 48.5881 21.6889C47.625 22.6562 46.9701 23.8871 46.7058 25.2263C46.4416 26.5655 46.5799 27.9529 47.1033 29.2136C47.6267 30.4743 48.5117 31.5517 49.6468 32.3099C50.7818 33.0681 52.116 33.4732 53.481 33.474C54.3923 33.4756 55.2948 33.2969 56.1367 32.9481C56.9786 32.5993 57.7431 32.0874 58.3862 31.4418C59.0294 30.7963 59.5384 30.0298 59.8841 29.1867C60.2297 28.3435 60.405 27.4403 60.4 26.529H60.395Z"></path><path fill="#00bac7" d="M62.746 90.0804C62.0769 90.7932 61.5248 91.6072 61.11 92.4924C60.844 93.2984 61.51 94.2034 61.65 95.0024C61.8088 96.2677 61.4799 97.546 60.73 98.5774C59.741 100.113 57.49 103.392 55.505 101.315C54.843 100.623 55.588 99.6654 55.984 99.0334C56.912 97.5504 58.499 94.7334 56.417 93.4504C56.072 93.2413 55.6939 93.0922 55.299 93.0094C52.445 92.3924 51.955 95.2774 50.21 96.6754C49.539 97.2134 48.351 96.4634 48.218 95.7024C48.061 94.8024 48.972 93.6494 49.374 92.9024C50.174 91.4134 51.055 89.1224 52.819 88.5444C54.257 88.0734 55.565 88.9094 56.973 88.7114C57.7723 88.5223 58.4831 88.0662 58.988 87.4184C60.304 86.0644 61.514 84.5964 62.731 83.1514C63.0813 82.6664 63.4649 82.2063 63.879 81.7744L64.495 81.5234C65.0575 82.7722 65.8918 83.8795 66.937 84.7644C65.118 87.1284 63.7 88.8214 62.746 90.0804Z"></path><path fill="#00bac7" d="M55.816 64.272L50.576 66.425C50.477 67.629 50.263 68.8207 49.937 69.9839L54.113 73.7649C53.2301 75.9534 52.0277 77.999 50.545 79.8349L45.122 78.1689C44.2619 79.0358 43.3191 79.8165 42.307 80.4999L43.03 86.0379C40.9265 87.1575 38.6717 87.9659 36.336 88.438L33.271 83.7379C32.0467 83.8519 30.8144 83.8519 29.59 83.7379L26.524 88.438C24.1887 87.9658 21.9342 87.1574 19.831 86.0379L20.553 80.4999C19.5416 79.8175 18.5992 79.0382 17.739 78.1729L12.315 79.8389C10.833 78.0027 9.63099 75.9572 8.74801 73.7689L12.924 69.9879C12.598 68.8247 12.384 67.6329 12.285 66.4289L7.04401 64.272C7.11402 61.9233 7.53189 59.598 8.28401 57.372L13.958 57.1129C14.4696 56.0142 15.0865 54.9677 15.8 53.9879L13.19 49.0289C14.7778 47.2668 16.6186 45.7503 18.652 44.5289L23.17 47.9139C24.2778 47.3891 25.4343 46.9738 26.623 46.6739L27.871 41.2279C30.2316 40.885 32.6294 40.885 34.99 41.2279L36.238 46.6739C37.4266 46.9739 38.5831 47.3892 39.691 47.9139L44.209 44.5289C46.2421 45.7503 48.0825 47.2668 49.67 49.0289L47.061 53.9879C47.7739 54.9679 48.3898 56.0148 48.9 57.1139L54.575 57.3729C55.3279 59.5985 55.7461 61.9235 55.816 64.272V64.272ZM42.756 64.9419C42.7941 62.6939 42.1623 60.4853 40.941 58.5975C39.7198 56.7096 37.9643 55.228 35.8981 54.3412C33.832 53.4544 31.5486 53.2025 29.3389 53.6178C27.1291 54.033 25.093 55.0964 23.4896 56.6727C21.8863 58.249 20.7884 60.2668 20.3356 62.4692C19.8829 64.6716 20.0959 66.9588 20.9474 69.0398C21.7989 71.1207 23.2505 72.9011 25.1173 74.1543C26.9841 75.4075 29.1816 76.0768 31.43 76.077C34.3996 76.0725 37.249 74.9039 39.3666 72.822C41.4841 70.7402 42.701 67.911 42.756 64.9419V64.9419Z"></path><path fill="#0e2238" d="M140.46 70.2355C142.709 68.931 145.022 67.7402 147.391 66.6675C147.512 66.6128 147.606 66.5123 147.653 66.3881C147.699 66.264 147.695 66.1263 147.64 66.0055C147.585 65.8847 147.485 65.7906 147.361 65.7439C147.236 65.6972 147.099 65.7018 146.978 65.7565C143.707 67.2515 140.532 68.9481 137.471 70.8365C137.071 71.0995 136.152 71.2825 136.052 71.7895C130.52 68.5405 128.461 68.8415 127.637 68.6715C127.539 68.6308 127.431 68.6224 127.327 68.6474C127.224 68.6724 127.132 68.7296 127.063 68.8106C126.995 68.8917 126.954 68.9925 126.946 69.0983C126.939 69.2042 126.965 69.3097 127.022 69.3995C127.172 69.6365 127.2 69.6405 128.67 69.8175C134.362 70.4985 144.232 77.4245 146.913 85.9335C146.953 86.06 147.041 86.1656 147.159 86.2269C147.276 86.2882 147.413 86.3003 147.54 86.2605C147.667 86.2208 147.772 86.1323 147.833 86.0148C147.895 85.8972 147.907 85.7601 147.867 85.6335C146.273 80.5755 142.259 75.7165 136.967 72.3505C137.269 72.0805 140.248 70.3585 140.46 70.2355Z"></path><path fill="#0e2238" d="M171 121.001C171.128 121.031 171.263 121.009 171.375 120.941C171.488 120.872 171.568 120.762 171.6 120.634C172.335 118.122 172.916 115.568 173.341 112.986C173.355 112.68 173.396 112.377 173.465 112.079C173.481 112.014 173.484 111.947 173.474 111.882C173.464 111.816 173.441 111.753 173.406 111.697C173.372 111.64 173.326 111.591 173.272 111.552C173.218 111.514 173.157 111.486 173.093 111.471C173.028 111.456 172.961 111.454 172.896 111.465C172.83 111.476 172.768 111.5 172.712 111.536C172.656 111.571 172.608 111.618 172.57 111.672C172.532 111.726 172.505 111.788 172.491 111.853C172.411 112.196 172.362 112.546 172.345 112.899C171.921 115.43 171.348 117.935 170.629 120.399C170.614 120.463 170.611 120.529 170.622 120.594C170.632 120.658 170.655 120.721 170.69 120.777C170.724 120.832 170.769 120.881 170.823 120.919C170.876 120.958 170.936 120.986 171 121.001V121.001Z"></path><path fill="#0e2238" d="M176.173 120.772C176.296 120.822 176.433 120.821 176.556 120.77C176.678 120.719 176.775 120.621 176.825 120.499C177.658 118.489 178.268 116.394 178.643 114.252C178.998 112.113 177.305 112.811 177.679 113.564C177.688 115.178 176.514 118.616 175.899 120.12C175.874 120.181 175.862 120.246 175.862 120.311C175.862 120.377 175.875 120.442 175.901 120.503C175.926 120.563 175.963 120.618 176.01 120.664C176.057 120.71 176.112 120.747 176.173 120.772Z"></path><path fill="#0e2238" d="M182.53 120.001C183.547 117.832 184.136 115.486 184.264 113.094C184.264 112.615 183.203 110.866 183.264 113.094C183.16 115.347 182.6 117.556 181.619 119.588C181.592 119.648 181.577 119.712 181.575 119.778C181.572 119.843 181.583 119.909 181.606 119.97C181.63 120.032 181.665 120.088 181.709 120.136C181.754 120.184 181.808 120.223 181.868 120.25C181.928 120.277 181.992 120.292 182.058 120.294C182.124 120.296 182.189 120.286 182.251 120.262C182.312 120.239 182.368 120.204 182.416 120.159C182.464 120.114 182.503 120.061 182.53 120.001V120.001Z"></path><path fill="#0e2238" d="M151.938 150.826C149.638 146.865 149.812 147.226 149.791 147.12C149.791 146.99 149.74 146.865 149.649 146.771C149.558 146.678 149.434 146.624 149.304 146.62C149.238 146.618 149.172 146.629 149.111 146.652C149.049 146.675 148.992 146.711 148.944 146.756C148.897 146.802 148.858 146.856 148.832 146.917C148.806 146.977 148.792 147.042 148.791 147.108C148.779 147.628 149.308 148.238 149.455 148.508C152.091 153.221 154.993 157.78 158.148 162.162C158.185 162.219 158.232 162.268 158.288 162.305C158.344 162.343 158.407 162.369 158.473 162.381C158.54 162.394 158.608 162.393 158.674 162.379C158.739 162.365 158.802 162.337 158.857 162.298C158.912 162.259 158.958 162.209 158.993 162.152C159.029 162.095 159.052 162.031 159.062 161.964C159.072 161.897 159.068 161.829 159.051 161.764C159.034 161.699 159.004 161.638 158.963 161.584C156.1 157.552 153.86 154.137 151.938 150.826Z"></path><path fill="#0e2238" d="M155.987 155.892C156.011 155.954 156.048 156.01 156.094 156.058C156.14 156.106 156.196 156.144 156.257 156.17C156.318 156.195 156.383 156.209 156.45 156.209C156.516 156.21 156.582 156.197 156.643 156.171C156.705 156.146 156.76 156.109 156.807 156.062C156.854 156.015 156.891 155.959 156.916 155.897C156.941 155.835 156.953 155.77 156.952 155.703C156.951 155.637 156.937 155.571 156.911 155.51C155.962 153.142 155.251 150.686 154.787 148.177C154.782 148.112 154.764 148.048 154.734 147.989C154.704 147.93 154.663 147.878 154.613 147.835C154.563 147.792 154.505 147.76 154.442 147.739C154.38 147.719 154.314 147.711 154.248 147.716C154.182 147.721 154.118 147.739 154.06 147.769C154.001 147.799 153.949 147.84 153.906 147.89C153.863 147.94 153.831 147.998 153.81 148.061C153.79 148.124 153.782 148.19 153.787 148.255C154.252 150.871 154.99 153.43 155.987 155.892V155.892Z"></path><path fill="#0e2238" d="M193.185 173.121C192.642 170.161 191.789 167.266 190.641 164.483C189.994 163.011 189.449 161.496 189.01 159.949C189.802 159.875 190.559 159.586 191.2 159.115C191.43 158.794 191.557 158.41 191.563 158.015C191.678 155.659 191.482 153.297 190.979 150.991C190.922 150.141 190.552 149.341 189.942 148.745C188.853 148.182 187.618 147.963 186.402 148.118C185.788 148.132 185.81 148.126 185.757 148.135C183.957 147.458 181.512 148.124 179.88 148.235C176.08 148.494 171.613 147.792 167.739 147.506C167.759 147.432 167.763 147.354 167.748 147.279C167.733 147.203 167.702 147.132 167.655 147.071C167.609 147.01 167.549 146.96 167.48 146.926C167.411 146.891 167.335 146.874 167.258 146.873H167.151C164.113 147.008 161.072 146.66 158.143 145.842C152.855 144.379 147.665 142.586 142.601 140.473C135.733 137.573 135.501 137.228 134.623 135.6C134.658 135.562 134.686 135.518 134.708 135.471C135.921 132.771 136.186 129.741 135.46 126.871C135.385 126.579 135.294 126.291 135.188 126.008L134.247 126.345C134.247 126.345 134.447 126.89 134.479 127.066C135.093 129.476 134.96 132.015 134.097 134.346C133.297 131.935 132.888 129.104 131.96 127.364C131.416 126.343 131.082 126.404 130.93 126.429C130.829 126.446 130.736 126.493 130.662 126.564C130.589 126.634 130.538 126.726 130.517 126.826C130.497 126.926 130.507 127.029 130.546 127.124C130.585 127.218 130.652 127.298 130.738 127.353C131.943 128.883 132.202 132.026 133.298 135.1C133.873 136.64 134.924 137.957 136.298 138.859C137.238 139.481 138.111 140.198 138.904 140.998C139.352 141.461 139.708 142.004 139.953 142.598C140.392 143.761 140.729 144.96 140.961 146.181C141.607 149.167 144.603 150.672 146.706 152.608C148.114 153.905 149.425 155.303 150.627 156.791C153.078 159.832 155.359 162.844 156.339 166.244C156.706 167.524 156.064 169.034 156.547 170.52C157.091 172.03 159.092 171.979 159.073 173.42C159.054 174.681 157.688 175.507 156.55 175.975C150.411 178.433 141.45 178.141 134.889 177.456C132.311 177.187 129.008 176.897 126.989 175.268C123.789 172.661 129.446 168.918 127.344 165.668C126.489 164.343 124.634 163.658 123.523 162.868C121.543 161.464 119.765 159.796 118.237 157.91C112.846 151.266 108.82 143.238 104.895 134.889C102.003 128.737 96.713 122.12 95.053 116.163C94.285 113.608 92.099 110.029 96.099 107.127C96.1388 107.1 96.1742 107.066 96.204 107.027C100.545 110.358 105.23 113.215 110.179 115.549C111.415 116.29 112.84 116.654 114.279 116.598C115.992 116.372 117.456 115.028 118.825 113.942C121.047 112.197 123.091 110.236 124.925 108.086C127.051 109.101 137.935 113.062 138.395 113.208C137.846 115.17 137.776 117.576 140.733 119.693C141.538 120.254 142.416 120.703 143.342 121.025C143.467 121.069 143.605 121.061 143.724 121.003C143.844 120.946 143.935 120.843 143.979 120.717C144.023 120.592 144.015 120.455 143.957 120.335C143.899 120.216 143.796 120.124 143.671 120.08C142.833 119.79 142.039 119.386 141.31 118.88C136.678 115.563 140.565 111.697 141.753 107.314C142.381 104.984 141.869 103.091 141.877 100.906C143.784 98.6574 148.333 93.1894 150.567 91.3954C150.669 91.312 150.735 91.1914 150.749 91.06C150.762 90.9286 150.724 90.797 150.641 90.6941C150.558 90.5912 150.438 90.5252 150.306 90.5107C150.175 90.4961 150.043 90.5341 149.94 90.6164C148.386 91.9933 146.929 93.4769 145.581 95.0564C144.152 96.6784 137.281 104.77 137.09 105.006C136.004 106.323 134.774 107.814 133.308 108.249C131.627 108.749 129.975 107.025 128.768 105.767C124.898 101.734 122.825 97.1604 118.098 94.6034C117.25 94.2381 116.372 93.9448 115.475 93.7264C109.822 92.2854 110.39 91.0494 113.134 88.1614C118.134 82.8954 118.784 81.2944 120.412 77.7034C121.396 75.2716 122.674 72.9698 124.219 70.8494C125.547 69.1879 127.05 67.6745 128.702 66.3354C131.577 64.068 134.613 62.0129 137.786 60.1864C143.077 56.9864 148.743 53.7484 154.748 53.7484C155.348 53.7484 155.317 52.8784 155.164 52.6484C154.254 51.321 153.215 50.0861 152.064 48.9614C151.403 48.3367 150.602 47.8784 149.728 47.6244C148.855 47.3703 147.933 47.3278 147.04 47.5004C146.686 46.999 146.3 46.5207 145.885 46.0684C145.834 46.0268 145.775 45.9957 145.712 45.9769C145.649 45.9582 145.583 45.952 145.517 45.9589C145.451 45.9658 145.388 45.9856 145.33 46.0172C145.272 46.0487 145.221 46.0914 145.18 46.1427C145.139 46.194 145.108 46.253 145.089 46.3163C145.071 46.3795 145.065 46.4458 145.072 46.5113C145.08 46.5768 145.1 46.6402 145.132 46.6979C145.164 46.7556 145.206 46.8064 145.258 46.8474C145.509 47.1032 145.729 47.3875 145.914 47.6944C139.739 49.0454 132.1 55.2174 128.972 58.3674C127.865 56.8553 126.257 55.786 124.434 55.3504C120.541 54.7504 116.128 57.3444 112.774 55.3904C110.729 54.1904 110.792 51.1904 109.765 49.0164C109.42 48.2724 107.745 46.9214 107.906 45.7344C107.919 45.6415 107.905 45.5469 107.866 45.4614C107.998 45.2842 108.144 45.117 108.301 44.9614C109.293 45.3614 109.835 47.9784 112.059 47.1514C114.035 46.4124 113.181 43.9224 113.759 43.1614C114.459 43.4914 115.737 44.9224 116.783 44.5444C116.992 44.4534 117.174 44.3102 117.311 44.1286C117.449 43.947 117.538 43.7331 117.569 43.5074C118.017 41.6524 116.13 39.9474 114.754 39.2544C111.197 37.4444 108.718 39.4774 105.641 39.7734C104.693 39.8624 103.293 39.8514 103.018 38.9444C102.378 36.8724 106.762 35.1114 107.965 33.4524C109.379 31.4974 109.409 28.9654 109.965 26.8414C110.914 23.1584 113.922 17.5554 117.634 16.6294C117.698 16.6135 117.758 16.5852 117.811 16.5461C117.863 16.5071 117.908 16.458 117.942 16.4016C117.976 16.3453 117.998 16.2829 118.008 16.2179C118.018 16.1529 118.014 16.0867 117.999 16.0229C117.983 15.9591 117.954 15.8991 117.915 15.8463C117.876 15.7935 117.827 15.7489 117.771 15.715C117.714 15.6812 117.652 15.6588 117.587 15.6491C117.522 15.6393 117.456 15.6425 117.392 15.6584C113.05 16.7424 109.938 22.9404 108.997 26.5914C108.442 28.7264 108.404 31.1454 107.159 32.8654C106.059 34.3824 101.159 36.3044 102.065 39.2374C102.291 39.9784 103.001 40.7814 105 40.8094C104.047 42.0865 103.586 43.664 103.7 45.2534C103.685 45.7732 103.866 46.2796 104.206 46.673C104.546 47.0664 105.021 47.3184 105.537 47.3794C105.827 47.366 106.109 47.285 106.362 47.1428C106.614 47.0005 106.83 46.8011 106.992 46.5604C107.29 47.3849 107.756 48.1385 108.36 48.7734C108.546 48.9791 108.714 49.2014 108.86 49.4374C109.868 51.5734 109.779 54.7954 112.27 56.2514C116.044 58.4514 120.57 55.7654 124.279 56.3354C125.869 56.7478 127.265 57.7029 128.226 59.0354C128.238 59.0484 128.25 59.0604 128.263 59.0724C127.68 59.687 127.2 60.3909 126.84 61.1574L126.761 61.4414C126.492 62.1937 126.436 63.006 126.601 63.7879C126.766 64.5698 127.144 65.2907 127.694 65.8704C122.059 70.5894 120.946 74.3064 118.626 79.1964C116.939 82.3867 114.744 85.2806 112.126 87.7644C111.147 88.7804 109.662 90.3104 110.226 91.8644C110.726 93.2644 112.713 93.9644 114.545 94.4974C113.928 95.4051 113.155 96.1961 112.261 96.8334C111.642 97.0594 111.394 97.9504 111.77 98.2484C113.57 99.6694 115.29 101.211 116.902 102.669C116.951 102.713 117.008 102.747 117.07 102.77C117.131 102.792 117.197 102.801 117.263 102.798C117.328 102.795 117.393 102.778 117.452 102.75C117.511 102.722 117.564 102.683 117.609 102.634C117.653 102.585 117.687 102.528 117.709 102.466C117.731 102.405 117.74 102.339 117.737 102.273C117.734 102.208 117.718 102.143 117.689 102.084C117.661 102.025 117.622 101.971 117.573 101.927C116.047 100.547 114.42 99.0924 112.721 97.7274C113.1 97.5005 113.453 97.2322 113.773 96.9274C114.42 96.2454 115.032 95.5308 115.607 94.7864C116.31 94.9688 116.997 95.2069 117.662 95.4984C121.456 97.5534 123.55 101.158 126.3 104.504C124.641 106.346 124.989 107.648 117.7 113.571C114.616 116.078 113.739 116.13 110.609 114.648C108.376 113.624 106.205 112.468 104.109 111.186C98.406 107.617 93.0169 103.569 88 99.0864C85.777 97.1034 83.825 94.7424 81.507 92.8154C80.146 91.6824 78.741 91.9064 77.461 91.2224C76.082 90.4804 74.915 88.9344 73.483 87.9894C70.133 85.7824 66.896 85.4484 64.947 81.3184C64.062 79.3574 64.91 78.8264 65.297 78.6414C65.444 78.9924 65.607 79.3364 65.785 79.6684C65.8157 79.727 65.8576 79.7789 65.9085 79.8211C65.9593 79.8634 66.018 79.8951 66.0812 79.9145C66.1444 79.9339 66.2108 79.9406 66.2766 79.9342C66.3424 79.9277 66.4063 79.9083 66.4645 79.8771C66.5227 79.8458 66.5742 79.8033 66.6159 79.752C66.6576 79.7007 66.6887 79.6417 66.7075 79.5783C66.7262 79.5149 66.7322 79.4484 66.7251 79.3827C66.718 79.317 66.6979 79.2533 66.666 79.1954C66.4242 78.7438 66.2141 78.276 66.037 77.7954C65.7123 77.0557 65.6575 76.2254 65.882 75.4494C66.0041 75.1128 66.2258 74.8214 66.5178 74.6142C66.8098 74.4069 67.158 74.2936 67.516 74.2894C67.5579 74.2889 67.5995 74.2832 67.64 74.2724C67.8102 74.642 68.0161 74.994 68.255 75.3234C68.3345 75.4262 68.4509 75.4939 68.5796 75.5124C68.7082 75.5308 68.8389 75.4984 68.9441 75.4221C69.0493 75.3458 69.1206 75.2316 69.143 75.1036C69.1654 74.9756 69.137 74.8439 69.064 74.7364C67.988 73.2524 67.284 70.3364 68.914 69.3514C69.3207 69.6838 69.6391 70.1115 69.841 70.5964C69.8645 70.6594 69.9004 70.717 69.9466 70.7659C69.9928 70.8147 70.0484 70.8537 70.11 70.8805C70.1717 70.9073 70.2381 70.9215 70.3053 70.9221C70.3725 70.9226 70.4392 70.9097 70.5013 70.8839C70.5634 70.8581 70.6196 70.8201 70.6667 70.7721C70.7137 70.7241 70.7506 70.6671 70.7752 70.6045C70.7997 70.5419 70.8113 70.475 70.8094 70.4078C70.8075 70.3406 70.7921 70.2745 70.764 70.2134C70.4557 69.4639 69.9341 68.8213 69.264 68.3654C68.538 67.7654 67.853 67.1914 67.805 66.3494C67.751 65.5304 69.463 65.0344 70.198 65.2204C73.076 66.1754 74.534 68.3294 76.935 70.2484C76.9861 70.2914 77.0452 70.3237 77.109 70.3435C77.1727 70.3633 77.2398 70.3701 77.3062 70.3635C77.3726 70.357 77.437 70.3372 77.4957 70.3053C77.5544 70.2735 77.606 70.2302 77.6477 70.178C77.6894 70.1259 77.7202 70.0659 77.7383 70.0017C77.7564 69.9375 77.7615 69.8703 77.7532 69.804C77.745 69.7378 77.7235 69.6739 77.6902 69.6161C77.6568 69.5583 77.6122 69.5077 77.559 69.4674C75.041 67.4534 73.742 65.3414 70.478 64.2604C69.9559 64.1682 69.4204 64.1836 68.9045 64.3059C68.3886 64.4282 67.9032 64.6547 67.478 64.9714C67.2571 65.1383 67.0804 65.3567 66.9631 65.6075C66.8458 65.8582 66.7915 66.1339 66.805 66.4104C66.8549 66.859 66.9959 67.2926 67.2194 67.6847C67.443 68.0768 67.7444 68.419 68.105 68.6904C66.744 69.7354 66.753 71.6784 67.266 73.3024C66.7428 73.3559 66.2455 73.5568 65.8319 73.8819C65.4184 74.2069 65.1056 74.6426 64.93 75.1384C64.6803 75.9769 64.6827 76.8703 64.937 77.7074C64.089 78.0984 62.863 79.1374 64.037 81.7384C66.169 86.2614 69.608 86.6384 72.931 88.8264C74.338 89.7554 75.397 91.2504 76.987 92.1054C78.362 92.8414 79.761 92.6664 80.866 93.5854C83.123 95.4624 85.096 97.8404 87.334 99.8354C89.985 102.187 92.69 104.4 95.382 106.417C91.511 109.325 92.835 112.95 93.715 115.358C93.841 115.704 93.96 116.029 94.054 116.322C92.7945 116.489 91.5215 116.529 90.254 116.441C87.616 116.327 83.403 115.05 81.554 117.861C81.1988 118.412 80.9252 119.011 80.742 119.64C79.034 118.587 75.942 116.651 74.474 115.61C73.873 115.267 73.4013 114.736 73.131 114.098C72.759 112.845 73.392 111.38 72.641 109.885C71.615 107.851 68.76 107.406 66.976 106.654C66.1588 106.186 65.2067 106.01 64.276 106.154C63.176 106.518 62.504 108.27 63.423 109.11C65.13 110.691 67.817 110.676 67.653 113.195C67.6335 113.539 67.5571 113.877 67.427 114.195C66.652 115.982 64.047 115.038 62.268 114.242C61.546 113.919 60.342 113.373 59.579 114.362C59.3377 114.64 59.1655 114.971 59.0763 115.328C58.9872 115.685 58.9837 116.058 59.066 116.416C59.458 117.991 61.53 119.054 63.23 119.874C64.4869 120.519 65.9427 120.66 67.3 120.268C68 120.052 68.873 119.29 69.393 119.368C70.2975 119.641 71.1535 120.054 71.93 120.591C73.758 121.583 78.678 124.747 80.651 125.823C79.51 127.629 79.497 130.708 81.345 131.794C81.016 132.939 83.045 134.63 83.07 134.646C83.3698 134.849 83.694 135.014 84.035 135.135C83.717 136.253 85.362 137.823 86.098 138.081C86.9461 138.355 87.867 138.294 88.6712 137.91C89.4755 137.526 90.102 136.848 90.422 136.016C92.451 137.398 95.422 138.216 96.207 135.995C96.522 135.05 95.662 134.379 94.816 133.853C95.7951 133.048 96.6427 132.095 97.328 131.028C97.8365 131.466 98.4912 131.697 99.162 131.674C99.4319 131.66 99.692 131.569 99.9116 131.411C100.131 131.254 100.301 131.037 100.401 130.785C100.675 129.994 100.074 129.008 99.522 128.321C99.593 128.192 99.714 127.955 99.791 127.789C101.624 130.689 103.391 133.998 103.779 134.852C98.479 136.36 91.305 140.074 88.037 144.69C83.982 150.418 86.87 159.117 92.479 163.059C98.238 167.089 104.787 167.442 111.121 167.783C116.557 168.078 116.666 168.069 119.107 168.854C120.669 169.453 122.335 169.736 124.007 169.685C124.729 169.685 125.451 169.646 126.169 169.566C126.096 169.733 126.02 169.901 125.944 170.066C125.116 171.9 124.084 174.183 126.358 176.034C126.721 176.327 127.111 176.583 127.525 176.798C125.078 178.898 123.91 177.866 121.878 178.418C120.618 178.76 120.343 179.363 118.973 180.027C115.473 181.754 111.016 181.298 107.734 184.227C105.234 186.446 104.534 190.443 107.146 192.714C108.772 194.123 111.182 194.361 113.288 194.568C117.288 194.961 121.681 194.987 125.939 194.996C131.91 195.009 139.339 196.338 144.508 194.596C144.523 194.702 144.571 194.799 144.645 194.875C144.719 194.951 144.815 195.002 144.92 195.019C148.005 195.541 151.159 195.501 154.229 194.9C154.809 194.838 155.356 194.602 155.799 194.223C156.243 193.845 156.562 193.342 156.715 192.779C156.794 192.33 156.841 191.876 156.856 191.42C160.533 187.673 158.504 180.032 157.367 176.696C159.117 175.871 160.049 174.746 160.067 173.424C160.055 172.926 159.898 172.441 159.617 172.029C159.335 171.617 158.94 171.295 158.48 171.102C157.73 170.636 157.499 170.468 157.388 169.777C157.536 169.765 158.015 169.71 158.015 169.71C160.626 169.91 161.908 171.449 164.181 171.449C165.282 171.507 166.365 171.159 167.227 170.471C168.089 169.784 168.669 168.804 168.857 167.718C169.557 168.348 170.434 168.957 171.157 169.688C171.938 170.396 170.6 171.542 171.013 173.132C171.228 173.881 171.718 174.52 172.383 174.924C172.519 175.014 172.717 175.085 172.856 175.159C172.571 175.78 172.187 176.033 171.418 176.634C170.928 177.018 171.143 176.834 169.354 178.455C166.3 181.222 163.503 185.239 166.644 187.894C168.312 189.304 170.844 189.162 172.989 188.733C177.669 187.812 181.711 185.138 185.954 183.38C187.874 182.58 190.49 182.212 192.039 180.474C193.788 178.519 193.571 175.523 193.185 173.121ZM105.694 46.3644C105.611 46.3872 105.524 46.391 105.439 46.3756C105.355 46.3602 105.275 46.3259 105.205 46.2754C105.051 46.1352 104.926 45.9657 104.838 45.7769C104.75 45.588 104.7 45.3836 104.692 45.1754C104.639 44.422 104.737 43.6657 104.98 42.9507C105.223 42.2356 105.607 41.5763 106.108 41.0114C106.181 40.928 106.224 40.8222 106.229 40.7114C109.229 40.2654 111.299 38.6244 114.298 40.1504C115.427 40.7184 116.885 42.0634 116.592 43.2744C116.532 43.5224 116.458 43.5994 116.437 43.6074C116.21 43.6914 115.466 43.1354 115.106 42.8704C114.406 42.3544 113.747 41.8644 113.211 42.2974C111.939 43.3254 113.071 45.7084 111.711 46.2184C110.26 46.7584 110.017 44.3094 108.418 43.9554C107.87 43.8284 107.444 44.3724 106.859 45.1304C106.345 45.7944 105.917 46.3144 105.694 46.3644ZM127.722 61.7164L127.773 61.5024C128.169 60.6945 128.718 59.9707 129.388 59.3704C133.914 54.6704 146.757 45.0704 151.358 49.6704C152.334 50.6226 153.228 51.656 154.029 52.7594C148.274 52.9594 142.817 55.9814 137.282 59.3254C134.212 61.0928 131.269 63.0715 128.474 65.2474C128.024 64.7926 127.714 64.2181 127.58 63.5921C127.447 62.9662 127.496 62.3152 127.722 61.7164V61.7164ZM126.974 105.295C127.459 105.851 127.681 106.069 128.05 106.454C129.586 108.054 131.435 109.843 133.597 109.203C135.355 108.68 136.747 106.993 137.866 105.638C138.057 105.406 140.088 103.021 140.915 102.038C141.157 103.702 141.116 105.395 140.792 107.045C140.332 108.739 139.345 110.527 138.71 112.253C137.675 111.924 136.661 111.532 135.673 111.08C134.788 110.755 130.005 109.042 128.516 108.473C126.596 107.735 125.607 107.284 125.586 107.273C126.083 106.641 126.546 105.982 126.974 105.3V105.295ZM81.574 120.442C82.359 116.726 84.729 116.827 88.443 117.269C90.0055 117.48 91.5853 117.531 93.158 117.421C93.693 117.372 94.118 117.332 94.309 117.109C95.5416 120.495 97.1603 123.727 99.133 126.742C99.133 126.742 98.96 127.224 98.807 127.536C98.1862 126.987 97.4877 126.532 96.734 126.186C96.934 126.078 97.1277 125.963 97.315 125.84C97.3702 125.805 97.4177 125.758 97.455 125.704C97.4923 125.65 97.5186 125.589 97.5323 125.525C97.5461 125.461 97.547 125.394 97.5351 125.33C97.5232 125.265 97.4987 125.204 97.463 125.148C97.4273 125.093 97.3811 125.046 97.327 125.008C97.2728 124.971 97.2119 124.945 97.1477 124.931C97.0834 124.917 97.0171 124.916 96.9524 124.928C96.8878 124.94 96.8262 124.965 96.771 125C95.3823 125.903 93.7541 126.367 92.0982 126.331C90.4423 126.295 88.8355 125.762 87.487 124.8C85.73 123.419 86.403 122.538 85.398 120.27C85.3749 120.206 85.3387 120.147 85.2918 120.097C85.2449 120.047 85.1882 120.007 85.1253 119.98C85.0623 119.953 84.9945 119.939 84.926 119.939C84.8575 119.94 84.7897 119.954 84.7269 119.981C84.6642 120.009 84.6077 120.049 84.5611 120.099C84.5144 120.149 84.4786 120.208 84.4559 120.273C84.4331 120.338 84.4238 120.406 84.4287 120.475C84.4335 120.543 84.4523 120.61 84.484 120.67C85.157 122.192 85.724 125.105 84.394 125.978C83.9717 126.153 83.5006 126.17 83.0669 126.026C82.6333 125.881 82.2662 125.585 82.033 125.192C81.159 123.964 81.222 121.938 81.574 120.442V120.442ZM72.455 119.742C71.5878 119.145 70.6303 118.691 69.619 118.398C68.534 118.224 67.65 119.114 67.006 119.316C65.8904 119.633 64.696 119.511 63.667 118.976C61.697 118.026 59.043 116.698 60.373 114.976C60.611 114.669 61.059 114.799 61.858 115.156C64.329 116.262 67.277 117.056 68.351 114.587C68.5236 114.164 68.625 113.715 68.651 113.258C68.866 109.958 65.663 109.823 64.101 108.377C63.793 108.095 64.171 107.244 64.591 107.105C65.234 106.889 66.475 107.558 67.201 107.817C68.751 108.372 71.016 108.875 71.752 110.332C72.337 111.496 71.747 112.941 72.192 114.425C72.5349 115.275 73.1496 115.986 73.94 116.448C75.478 117.539 78.865 119.656 80.504 120.662C80.2254 121.998 80.2817 123.381 80.668 124.689C78.911 123.684 73.94 120.544 72.455 119.744V119.742ZM81.586 126.228C81.933 126.589 82.3645 126.856 82.8413 127.007C83.3181 127.158 83.825 127.187 84.316 127.092C84.4091 127.174 84.5285 127.218 84.652 127.218C85.7178 127.177 86.7801 127.364 87.768 127.766C87.8778 127.827 87.9737 127.909 88.0494 128.009C88.125 128.109 88.1787 128.223 88.207 128.345C88.2187 128.752 88.07 129.147 87.793 129.445C87.4601 129.88 87.0388 130.239 86.557 130.498C85.9031 130.885 85.1778 131.135 84.4248 131.234C83.6717 131.333 82.9064 131.278 82.175 131.073C80.442 130.4 80.627 127.585 81.586 126.23V126.228ZM82.328 132.173C83.9351 132.463 85.5928 132.185 87.018 131.388C87.532 131.114 87.9924 130.748 88.377 130.31C88.6554 130.816 88.769 131.397 88.702 131.97C88.6349 132.544 88.3906 133.082 88.003 133.51C87.4005 134.017 86.6528 134.32 85.8673 134.376C85.0818 134.431 84.2989 134.237 83.631 133.819C83.0868 133.368 82.643 132.808 82.328 132.175V132.173ZM86.428 137.139C85.974 136.98 84.728 135.639 85.028 135.364C86.333 135.491 87.635 135.096 88.649 134.264C89.0065 133.94 89.2838 133.536 89.459 133.086C90.565 135.115 88.661 137.917 86.43 137.141L86.428 137.139ZM94.528 132.739C94.342 132.896 94.139 133.133 93.934 133.304C93.048 132.71 92.777 132.29 92.971 131.836C93.1274 131.483 93.3432 131.158 93.609 130.877C94.384 129.984 95.155 129.865 96.466 130.52C95.9494 131.365 95.2946 132.117 94.529 132.744L94.528 132.739ZM99.457 130.458C99.409 130.598 99.148 130.658 98.997 130.687C98.109 130.83 95.331 127.373 92.863 130.211C92.5241 130.573 92.2497 130.989 92.052 131.443C91.452 132.855 92.776 133.782 93.972 134.508C94.279 134.694 95.372 135.329 95.262 135.669C95.2232 135.804 95.1544 135.927 95.0609 136.031C94.9674 136.135 94.8515 136.217 94.722 136.269C93.817 136.447 92.8784 136.29 92.08 135.828C90.889 135.254 90.847 135.033 90.747 134.944C90.8262 134.435 90.7979 133.915 90.6639 133.417C90.5299 132.919 90.2932 132.455 89.969 132.054C89.902 131.972 89.8106 131.913 89.708 131.886C89.7736 131.005 89.5135 130.129 88.977 129.426C89.1761 129.043 89.2513 128.607 89.192 128.179C88.943 126.684 87.05 126.367 85.54 126.255C85.8484 125.852 86.0453 125.374 86.111 124.87C87.3435 126.057 88.8923 126.863 90.5716 127.19C92.2508 127.518 93.9889 127.354 95.577 126.717C96.2908 127.066 96.9857 127.452 97.659 127.873C97.9441 128.083 98.205 128.324 98.437 128.591C99.231 129.464 99.551 130.193 99.458 130.463L99.457 130.458ZM121.791 168.558C119.885 168.213 118.161 167.297 116.103 167.114C107.888 166.371 100.003 167.104 93.055 162.244C87.914 158.633 85.114 150.554 88.855 145.272C91.992 140.84 98.955 137.257 104.1 135.804C104.136 135.793 104.172 135.779 104.205 135.76C108.12 144.001 112.105 151.932 117.464 158.541C119.049 160.497 120.895 162.228 122.948 163.684C124.048 164.465 125.819 165.144 126.508 166.21C126.704 166.56 126.813 166.95 126.828 167.35C126.843 167.75 126.762 168.148 126.593 168.51C125.001 168.732 123.388 168.748 121.792 168.558H121.791ZM154.085 193.919C151.345 194.457 148.534 194.533 145.769 194.142C148.719 193.003 150.336 192.127 153.53 192.072C154.288 192.178 155.058 192.175 155.815 192.062C155.796 192.235 155.774 192.402 155.747 192.562C155.638 192.929 155.421 193.254 155.125 193.496C154.829 193.738 154.467 193.886 154.086 193.919H154.085ZM156.056 190.819C156.034 190.833 156.013 190.848 155.993 190.865C155.472 191.173 154.852 191.263 154.265 191.116C150.447 190.785 147.474 192.488 144.627 193.499C139.527 195.411 132.186 194.011 125.495 193.999C121.253 193.991 117.395 193.968 113.287 193.566C111.463 193.387 109.194 193.166 107.806 191.966C105.665 190.105 106.365 186.793 108.406 184.981C111.892 181.874 117.118 182.92 120.969 179.981C123.077 178.339 124.904 180.391 128.139 177.599C128.2 177.547 128.247 177.48 128.276 177.406C128.306 177.331 128.317 177.25 128.309 177.17C130.299 177.874 132.379 178.294 134.486 178.417C141.315 179.124 149.966 179.486 156.449 177.087C157.533 180.289 159.44 187.478 156.057 190.82L156.056 190.819ZM189.99 151.125C190.48 153.371 190.672 155.67 190.564 157.965C190.566 158.146 190.519 158.323 190.43 158.479C189.913 158.742 189.355 158.911 188.779 158.979C188.279 156.12 189.357 151.523 187.172 149.112C187.901 149.05 188.633 149.186 189.291 149.504C189.711 149.944 189.96 150.519 189.991 151.126L189.99 151.125ZM139.625 140.3C139.379 140.045 139.544 140.364 144.168 142.209C141.468 141.986 141.095 141.858 140.768 141.867C140.748 141.859 140.727 141.852 140.706 141.846C140.426 141.28 140.061 140.758 139.625 140.3V140.3ZM164.005 170.452C162.171 170.385 160.688 168.859 158.078 168.718C157.844 168.728 157.61 168.75 157.378 168.785C157.511 167.849 157.487 166.896 157.306 165.967C156.274 162.388 153.929 159.287 151.411 156.167C150.178 154.641 148.834 153.206 147.39 151.876C145.347 149.995 142.495 148.525 141.944 145.976C141.734 144.94 141.463 143.916 141.132 142.911C145.701 143.384 145.732 143.32 146.939 143.52C147.009 143.533 147.081 143.531 147.15 143.514C147.219 143.496 147.283 143.465 147.339 143.42C150.703 144.648 154.339 145.82 157.881 146.813C160.667 147.594 163.552 147.962 166.444 147.905C164.188 151.867 165.512 156.734 166.682 161.036C167.275 162.964 167.69 164.941 167.922 166.944C167.929 167.443 167.828 167.936 167.628 168.393C167.428 168.849 167.132 169.257 166.761 169.589C166.39 169.922 165.952 170.171 165.477 170.32C165.001 170.468 164.499 170.514 164.005 170.452V170.452ZM191.305 179.815C189.988 181.293 187.494 181.671 185.584 182.462C181.317 184.231 177.315 186.871 172.808 187.762C170.208 188.28 168.408 188.077 167.308 187.14C166.999 186.905 166.747 186.603 166.57 186.257C166.394 185.91 166.298 185.529 166.289 185.14C166.243 182.452 169.756 179.47 171.573 177.821C172.505 176.976 173.404 176.684 173.913 175.237C174.023 174.584 173.377 174.294 173.102 174.171C172.687 173.975 172.348 173.648 172.136 173.241C171.636 172.206 172.283 171.574 172.409 170.516C172.447 170.235 172.418 169.949 172.324 169.681C172.23 169.414 172.073 169.172 171.867 168.977C171.048 168.146 169.755 167.246 169.256 166.702C169.16 166.58 169.034 166.485 168.891 166.424C168.291 160.761 164.342 153.714 167.291 148.443C167.347 148.47 167.409 148.486 167.471 148.49C171.377 148.766 175.979 149.506 179.961 149.236C181.634 149.123 184.12 148.452 185.621 149.161C187.745 150.148 187.667 153.672 187.639 156.015C187.57 157.253 187.664 158.494 187.918 159.706C189.038 164.285 190.927 166.273 192.213 173.294C192.548 175.464 192.761 178.17 191.3 179.815H191.305Z"></path><path fill="#0e2238" d="M113.156 22.1097C113.076 22.1311 112.998 22.1568 112.921 22.1867C112.792 22.204 112.675 22.2698 112.593 22.3707C112.511 22.4716 112.47 22.6001 112.48 22.7297C112.487 22.8083 112.512 22.8842 112.553 22.9513C112.594 23.0184 112.651 23.0747 112.719 23.1156C112.786 23.1566 112.862 23.181 112.941 23.187C113.019 23.1929 113.098 23.1801 113.171 23.1497C113.346 23.0947 113.236 23.0787 113.917 23.0667C115.002 23.0357 116.069 23.3421 116.973 23.9436C117.876 24.545 118.57 25.4119 118.96 26.4247C119.007 26.549 119.101 26.6496 119.222 26.7045C119.343 26.7593 119.48 26.7639 119.605 26.7172C119.729 26.6706 119.829 26.5764 119.884 26.4556C119.939 26.3347 119.944 26.197 119.897 26.0727C119.383 24.7505 118.437 23.6402 117.214 22.9212C115.991 22.2021 114.562 21.9163 113.156 22.1097V22.1097Z"></path><path fill="#0e2238" d="M113.224 28.0535C112.206 28.3185 112.331 30.3795 112.66 31.3965C113.178 32.6645 114.585 32.0295 114.536 29.7745C114.517 28.9005 114.074 27.8385 113.224 28.0535Z"></path><path fill="#0e2238" d="M122.04 25.4858C123.392 29.1638 125.78 34.3158 130.894 36.5788C130.954 36.6073 131.02 36.6234 131.086 36.6262C131.153 36.6291 131.219 36.6186 131.282 36.5953C131.344 36.572 131.402 36.5365 131.45 36.4908C131.499 36.4451 131.538 36.3902 131.565 36.3293C131.592 36.2683 131.606 36.2026 131.607 36.1359C131.609 36.0692 131.597 36.003 131.572 35.9411C131.547 35.8792 131.51 35.8228 131.463 35.7754C131.416 35.728 131.361 35.6904 131.299 35.6648C127.67 34.0588 125.027 30.7158 122.978 25.1398C122.225 23.1484 121.664 21.0897 121.302 18.9918C121.29 18.8976 121.252 18.8086 121.191 18.7353C121.131 18.6621 121.051 18.6076 120.96 18.5782C120.87 18.5488 120.773 18.5458 120.681 18.5695C120.589 18.5931 120.506 18.6425 120.441 18.7118C120.397 18.763 120.365 18.8228 120.345 18.8874C120.326 18.952 120.32 19.02 120.329 19.0868C120.684 21.2716 121.258 23.4153 122.04 25.4858V25.4858Z"></path><path fill="#0e2238" d="M131.581 42.7466C131.647 42.8387 131.742 42.9058 131.851 42.9369C131.959 42.9681 132.075 42.9614 132.18 42.918C132.284 42.8745 132.371 42.797 132.426 42.6979C132.48 42.5988 132.5 42.4842 132.481 42.3726C132.582 41.9688 132.765 41.5898 133.017 41.2586C133.041 41.2686 133.065 41.2806 133.09 41.2936C134.108 41.7936 134.112 41.9936 134.42 41.9936C134.526 41.9936 134.63 41.9596 134.716 41.8966C134.801 41.8337 134.865 41.745 134.897 41.6435C134.929 41.542 134.927 41.433 134.893 41.3323C134.859 41.2316 134.793 41.1445 134.706 41.0836C134.359 40.8416 133.995 40.6247 133.617 40.4346C134.064 39.942 134.639 39.5822 135.277 39.3946C135.39 39.3471 135.482 39.2597 135.535 39.149C135.587 39.0383 135.598 38.912 135.564 38.7942C135.529 38.6764 135.453 38.5752 135.349 38.51C135.245 38.4448 135.121 38.4201 135 38.4406C132.482 39.1796 131.117 42.1286 131.581 42.7466Z"></path></svg>