<svg xmlns="http://www.w3.org/2000/svg" fill="none" viewBox="0 0 200 200" height="700" width="700"><path fill="#00bac7" fill-rule="evenodd" d="M35.258 103.92L13 118.481C13 118.481 17.294 154.663 24.45 161.258C31.606 167.853 44.719 175.979 49.365 177.408L60.725 167.242C60.725 167.242 36.762 106.018 35.258 103.92Z" clip-rule="evenodd"></path><path fill="#0e2238" d="M49.2149 177.886C44.4279 176.413 31.1389 168.104 24.1079 161.625C24.0103 161.535 23.9524 161.41 23.947 161.278C23.9415 161.145 23.989 161.016 24.0789 160.918C24.1688 160.821 24.2938 160.763 24.4264 160.757C24.559 160.752 24.6883 160.799 24.7859 160.889C31.6049 167.173 44.3369 175.189 49.2419 176.844L60.3879 166.869C60.4369 166.825 60.4941 166.792 60.5562 166.77C60.6183 166.748 60.684 166.739 60.7497 166.743C60.8153 166.746 60.8796 166.763 60.9388 166.792C60.9981 166.82 61.0511 166.86 61.0949 166.909C61.1387 166.958 61.1724 167.015 61.1941 167.077C61.2158 167.14 61.225 167.205 61.2213 167.271C61.2176 167.337 61.201 167.401 61.1724 167.46C61.1439 167.519 61.1039 167.572 61.0549 167.616C49.3569 178.1 49.5999 178.009 49.2149 177.886Z"></path><path fill="#ffffff" fill-rule="evenodd" d="M173.444 116.639C170.629 115.715 136.899 143.139 136.899 143.139L106.549 131.239L71.873 164.374V166.743L111.073 185.504C111.073 185.504 152.234 162.386 155.589 159.258C158.981 156.1 176.259 117.563 173.444 116.639Z" clip-rule="evenodd"></path><path fill="#0e2238" fill-rule="evenodd" d="M173.008 116.141C173.188 116.11 173.4 116.098 173.6 116.164C173.845 116.244 174.004 116.422 174.098 116.611C174.187 116.79 174.227 116.995 174.243 117.195C174.276 117.594 174.223 118.109 174.116 118.696C173.9 119.881 173.433 121.502 172.793 123.404C171.509 127.215 169.501 132.232 167.303 137.309C165.104 142.389 162.71 147.54 160.652 151.622C159.623 153.662 158.676 155.44 157.878 156.81C157.478 157.495 157.114 158.082 156.792 158.552C156.476 159.014 156.184 159.387 155.93 159.624C155.93 159.624 155.93 159.624 155.93 159.624C155.471 160.052 154.42 160.779 152.984 161.704C151.531 162.64 149.643 163.802 147.476 165.107C143.141 167.717 137.678 170.902 132.323 173.987C126.966 177.073 121.715 180.061 117.803 182.278C115.847 183.386 114.226 184.302 113.094 184.94C112.528 185.259 112.084 185.509 111.781 185.679L111.32 185.939L111.318 185.94C111.318 185.94 111.318 185.94 111.073 185.504C110.828 185.068 110.828 185.068 110.829 185.068L110.83 185.067L111.291 184.808C111.593 184.638 112.037 184.388 112.603 184.069C113.734 183.431 115.355 182.516 117.31 181.408C121.221 179.192 126.47 176.205 131.823 173.121C137.177 170.036 142.634 166.855 146.96 164.25C149.124 162.948 151.002 161.791 152.442 160.863C153.899 159.925 154.868 159.247 155.248 158.892C155.418 158.734 155.659 158.436 155.967 157.987C156.27 157.544 156.621 156.979 157.014 156.306C157.798 154.961 158.735 153.202 159.759 151.171C161.807 147.11 164.193 141.977 166.385 136.912C168.579 131.845 170.574 126.857 171.845 123.084C172.481 121.194 172.929 119.628 173.132 118.516C173.235 117.955 173.268 117.544 173.246 117.276C173.241 117.206 173.232 117.156 173.223 117.12C173.275 117.114 173.296 117.117 173.297 117.117C173.297 117.117 173.294 117.116 173.288 117.114C173.226 117.094 173.202 117.054 173.202 117.054C173.202 117.054 173.202 117.055 173.202 117.056C173.207 117.066 173.215 117.087 173.223 117.12C173.209 117.121 173.193 117.124 173.175 117.127C173.071 117.144 172.929 117.184 172.745 117.253C172.377 117.39 171.895 117.624 171.308 117.95C170.137 118.6 168.604 119.584 166.829 120.802C163.282 123.236 158.811 126.57 154.42 129.939C150.031 133.307 145.73 136.704 142.525 139.259C140.923 140.537 139.595 141.604 138.668 142.352C138.204 142.726 137.841 143.019 137.593 143.22L137.215 143.527C137.215 143.527 137.214 143.527 136.899 143.139L137.082 142.674L136.81 142.567L136.964 142.443C137.212 142.242 137.576 141.948 138.04 141.573C138.968 140.825 140.298 139.756 141.902 138.478C145.109 135.92 149.416 132.519 153.812 129.146C158.206 125.774 162.694 122.426 166.263 119.978C168.047 118.754 169.61 117.748 170.823 117.075C171.428 116.74 171.959 116.479 172.395 116.316C172.612 116.235 172.819 116.173 173.008 116.141ZM106.664 131.821L136.717 143.605C136.884 143.67 137.075 143.64 137.215 143.527L136.899 143.139C136.584 142.751 136.584 142.751 136.584 142.751L136.81 142.567L106.732 130.774C106.55 130.702 106.344 130.743 106.204 130.878L71.5276 164.013C71.328 164.203 71.3208 164.52 71.5116 164.719C71.7023 164.919 72.0188 164.926 72.2185 164.736L106.664 131.821ZM111.073 185.504L110.829 185.068C110.588 185.203 110.502 185.508 110.637 185.749C110.772 185.99 111.078 186.075 111.318 185.94L111.073 185.504Z" clip-rule="evenodd"></path><path fill="#0e2238" d="M167.249 119.266L126.708 107.854C126.627 107.831 126.542 107.829 126.46 107.848C126.378 107.867 126.303 107.906 126.24 107.962C40.0989 184.788 45.9569 179.662 45.9829 180.038L46.3829 185.883C46.3919 186.015 46.4533 186.139 46.5534 186.226C46.6535 186.314 46.7843 186.358 46.9169 186.349C47.0495 186.34 47.1731 186.278 47.2605 186.178C47.3479 186.078 47.3919 185.947 47.3829 185.815L47.0359 180.815L77.2999 195.451C77.4187 195.504 77.5536 195.509 77.6759 195.464C77.7982 195.42 77.8984 195.329 77.955 195.212C78.0117 195.095 78.0204 194.96 77.9793 194.837C77.9382 194.713 77.8505 194.611 77.7349 194.551L47.3789 179.873L126.7 108.891L166.976 120.229C167.104 120.265 167.24 120.248 167.356 120.183C167.472 120.119 167.557 120.01 167.593 119.883C167.629 119.755 167.613 119.618 167.548 119.502C167.483 119.387 167.375 119.302 167.247 119.266H167.249Z"></path><path fill="#0e2238" d="M137.153 142.731C137.041 142.66 136.905 142.637 136.776 142.667C136.647 142.697 136.534 142.776 136.464 142.889L111.542 182.7L72.088 163.923C71.9683 163.866 71.8309 163.859 71.706 163.903C71.5811 163.948 71.479 164.04 71.422 164.16C71.354 164.302 71.373 164.193 71.373 166.743C71.3729 166.837 71.3997 166.93 71.4501 167.01C71.5006 167.09 71.5727 167.154 71.658 167.195L110.858 185.954C110.923 185.983 110.994 185.998 111.066 185.998C111.138 185.998 111.209 185.982 111.274 185.952C111.339 185.922 111.397 185.878 111.444 185.824C111.491 185.769 111.525 185.706 111.545 185.637L112.168 183.577L137.308 143.42C137.379 143.308 137.402 143.172 137.373 143.043C137.344 142.914 137.265 142.802 137.153 142.731ZM72.373 165.166L111.119 183.6L110.758 184.793L72.373 166.428V165.166Z"></path><path fill="#ffffff" fill-rule="evenodd" d="M140.592 133.212C140.592 133.212 134.985 99.286 136.243 67.305C136.243 67.305 106.653 69.199 101.881 66.324C97.109 63.449 97.108 45.042 97.108 37.835C97.108 30.628 94.408 12.74 103.177 10.166C111.946 7.59198 165.797 2.65798 175.924 6.28698C186.051 9.91598 185.655 20.601 186.424 35.733C187.193 50.865 188.331 63.503 181.174 64.99C174.017 66.477 145.583 67.313 145.583 67.313C145.583 67.313 140.532 104.807 140.592 133.212Z" clip-rule="evenodd"></path><path fill="#def6f8" fill-rule="evenodd" d="M119.65 175.791L140.2 143.135L169.768 122.2L154.7 155.953L119.65 175.791Z" clip-rule="evenodd"></path><path fill="#0e2238" d="M119.227 175.524C141.219 140.544 139.785 142.816 139.911 142.724L169.479 121.8C169.569 121.737 169.676 121.704 169.786 121.708C169.896 121.712 170.001 121.752 170.086 121.822C170.17 121.892 170.23 121.987 170.255 122.094C170.28 122.201 170.269 122.313 170.224 122.413L155.158 156.163C155.058 156.395 157.544 155.094 119.896 176.231C119.799 176.288 119.685 176.31 119.573 176.294C119.462 176.277 119.359 176.224 119.282 176.142C119.204 176.06 119.157 175.955 119.147 175.843C119.137 175.73 119.165 175.618 119.227 175.524ZM140.571 143.485L121.129 174.379L154.312 155.599L168.568 123.665L140.571 143.485Z"></path><path fill="#0e2238" d="M132.429 144.872C131.81 144.64 113.917 137.928 113.295 137.699C113.197 137.662 113.09 137.657 112.989 137.684C112.888 137.712 112.798 137.77 112.732 137.851L88.359 167.766C88.3113 167.824 88.2774 167.893 88.2599 167.966C88.2425 168.04 88.2418 168.116 88.2581 168.19C88.2743 168.263 88.3071 168.333 88.3538 168.392C88.4006 168.451 88.4601 168.499 88.528 168.532C89.817 169.161 107.202 177.605 109.835 178.864C109.944 178.916 110.067 178.928 110.184 178.896C110.3 178.865 110.401 178.792 110.468 178.692L132.668 145.618C132.71 145.555 132.737 145.484 132.748 145.409C132.758 145.335 132.752 145.259 132.729 145.187C132.706 145.115 132.667 145.05 132.615 144.995C132.563 144.941 132.499 144.898 132.429 144.872ZM104.557 175.193L126.567 143.742L128.436 144.442L107.109 176.43L104.557 175.193ZM101.357 173.641L123.5 142.592L125.6 143.379L103.645 174.75L101.357 173.641ZM97.885 171.958L120.438 141.445L122.529 142.229L100.446 173.2L97.885 171.958ZM94.934 170.527L117.666 140.406L119.466 141.08L96.971 171.514L94.934 170.527ZM92.056 169.127L115.271 139.504L116.691 140.036L94.019 170.082L92.056 169.127ZM113.28 138.757L114.289 139.135L91.136 168.685L89.536 167.908L113.28 138.757ZM109.88 177.77L108.017 176.87L129.4 144.8L131.49 145.583L109.88 177.77Z"></path><path fill="#0e2238" d="M95.9199 156.332C95.7739 156.332 96.3269 156.532 87.0479 152.749C86.9724 152.718 86.9056 152.67 86.8533 152.607C86.8009 152.544 86.7647 152.47 86.7477 152.39C86.7308 152.31 86.7336 152.228 86.7559 152.149C86.7783 152.071 86.8195 151.999 86.8759 151.94L96.7489 141.66C96.823 141.583 96.9197 141.532 97.025 141.514C97.1302 141.496 97.2385 141.512 97.3339 141.56L104.02 144.913C104.085 144.946 104.143 144.993 104.188 145.05C104.234 145.108 104.266 145.175 104.283 145.246C104.299 145.318 104.3 145.392 104.285 145.463C104.27 145.535 104.239 145.603 104.195 145.661L96.3189 156.133C96.2723 156.195 96.2121 156.245 96.1428 156.28C96.0736 156.314 95.9973 156.332 95.9199 156.332V156.332ZM88.1079 152.102L95.7519 155.224L103.036 145.539L97.2149 142.619L88.1079 152.102Z"></path><path fill="#ffffff" fill-rule="evenodd" d="M50.915 176.041C50.915 176.041 27.363 166.005 28.815 150.197L62.638 140.336C69.6667 142.092 76.5596 144.352 83.263 147.1L50.915 176.041Z" clip-rule="evenodd"></path><path fill="#0e2238" d="M50.7191 176.5C49.7431 176.084 26.8491 166.137 28.3191 150.151C28.3332 150.02 28.3979 149.899 28.4995 149.815C28.601 149.73 28.7314 149.689 28.8631 149.699C28.995 149.711 29.1166 149.775 29.2014 149.877C29.2861 149.979 29.327 150.11 29.3151 150.242C28.0011 164.573 48.1581 174.242 50.8281 175.451L82.3281 147.263C69.9761 142.463 63.6691 141.186 63.6061 141.173C63.5393 141.163 63.4753 141.139 63.4179 141.104C63.3605 141.068 63.3109 141.021 63.2721 140.966C63.2333 140.911 63.2061 140.848 63.1921 140.782C63.1782 140.716 63.1777 140.648 63.1908 140.582C63.204 140.515 63.2304 140.452 63.2684 140.397C63.3065 140.341 63.3555 140.293 63.4124 140.257C63.4694 140.221 63.5331 140.196 63.5997 140.185C63.6663 140.174 63.7345 140.177 63.8001 140.193C63.8661 140.205 70.5001 141.55 83.4511 146.627C83.5307 146.658 83.6009 146.709 83.6552 146.775C83.7094 146.841 83.7458 146.92 83.7608 147.005C83.7759 147.089 83.7691 147.175 83.7411 147.256C83.7131 147.337 83.6649 147.409 83.6011 147.466C50.0401 177.551 51.1681 176.7 50.7191 176.5Z"></path><path fill="#ffffff" fill-rule="evenodd" d="M66.275 146.9C59.119 146.577 60 155.48 60 155.48C62.8624 156.735 65.7934 157.826 68.779 158.75C72.705 159.876 71.867 159.437 73.058 160.416C74.249 161.395 74.2 160.721 75.058 161.051C76.0515 161.359 76.9823 161.841 77.807 162.475C79.73 163.723 79.525 163.806 82.207 164.316C84.889 164.826 86.262 164.476 89.239 165.952C92.216 167.428 91.153 164.186 86.86 162.542C86.86 162.542 88.298 162.448 91.83 164.02C95.362 165.592 96.167 166.061 96.106 164.987C96.045 163.913 93.829 161.212 88.434 159.914C91.1532 160.406 93.7431 161.449 96.045 162.978C99.858 165.518 100.388 164.417 99.8 163.137C99.212 161.857 96.1 159.524 91.247 157.93C93.3857 158.523 95.4447 159.373 97.379 160.461C100.407 162.202 100.555 160.992 98.911 159.271C97.267 157.55 94.437 155.064 90.257 155.141C86.077 155.218 79.72 156.158 77.325 154.772C74.93 153.386 69.479 149.079 66.275 146.9Z" clip-rule="evenodd"></path><path fill="#ffffff" fill-rule="evenodd" d="M86.165 135.6C88.0027 136.941 90.0464 137.973 92.216 138.656C95.322 139.5 96.931 139.741 98.638 141.131C100.345 142.521 100.296 144.32 103.494 146.052C106.692 147.784 109.374 148.527 108.994 147.335C108.614 146.143 105.701 145.523 104.772 142.389C105.991 141.994 107.309 142.035 108.501 142.505C110.578 143.286 113.941 145.459 115.228 144.982C116.515 144.505 115.482 144.13 114.82 143.618C114.82 143.618 117.161 143.569 117.326 142.713C117.434 142.151 116.026 142.075 113.371 140.131C110.716 138.187 115.61 141.099 116.74 140.931C118.897 140.611 115.36 138.981 112.953 137.458C113.872 137.526 114.794 137.39 115.653 137.058C116.566 136.546 116.362 136.258 115.285 136.037C114.208 135.816 112.885 135.292 112.103 135.243C111.006 135.064 109.941 134.731 108.938 134.252C107.896 133.778 105.789 134.252 101.393 134.752C97.707 135.17 92.175 129.978 92.015 129.978C91.855 129.978 87.163 129.265 86.165 135.6Z" clip-rule="evenodd"></path><path fill="#def6f8" fill-rule="evenodd" d="M34.1269 130.779C34.3703 131.487 34.3996 132.25 34.211 132.974C34.0225 133.698 33.6245 134.35 33.0669 134.848C31.1159 136.461 31.1539 136.615 30.9909 138.504C30.8279 140.393 31.8979 140.959 29.9179 143.696C27.9379 146.433 28.2239 147.665 28.8069 150.071C29.3899 152.477 39.9419 158.771 53.0589 152.855C54.2789 154.085 55.2589 154.948 57.0319 154.782C57.0319 154.782 58.5669 155.146 59.9809 155.531C59.9809 155.531 61.9669 147.404 66.2809 146.915C65.949 146.458 65.6906 145.952 65.5149 145.415C65.1409 143.872 64.1989 142.527 62.8769 141.648C63.7622 139.53 64.3728 137.308 64.6939 135.035C66.0596 133.144 67.3237 131.182 68.4809 129.157C69.4416 129.277 70.3289 129.732 70.9859 130.443C72.5159 131.774 72.0619 132.025 73.7089 132.836C75.3559 133.647 75.9819 133.212 77.7669 134.451C79.5519 135.69 80.0049 135.998 81.7949 135.451C83.5849 134.904 84.1409 134.771 84.1409 134.771L86.1669 135.677C88.0949 130.541 92.0219 130.077 92.0219 130.077C91.1709 129.314 90.3602 128.507 89.5929 127.659C88.2179 126.159 87.8729 123.23 86.0679 121.259C84.2629 119.288 81.5119 119.433 80.0049 118.859C78.4979 118.285 76.3759 118.107 75.4889 111.831C74.6019 105.555 73.2329 102.098 67.2459 96.7133C61.2589 91.3283 50.6319 89.3423 50.6319 89.3423C50.6319 89.3423 46.7149 87.1473 44.3059 90.3293C41.8969 93.5113 44.6059 93.8483 41.7219 96.4083C38.8379 98.9683 38.5809 100.167 37.4839 101.726C36.3869 103.285 31.2339 106.357 29.7729 109.934C28.3119 113.511 26.0139 120.172 30.9059 126.434C32.3999 128.341 33.4199 129.7 34.1269 130.779Z" clip-rule="evenodd"></path><g opacity=".75"><path fill="#ffffff" d="M87.5889 128.39C87.5152 128.28 87.4009 128.203 87.2709 128.178C87.141 128.152 87.0061 128.178 86.8959 128.252L84.4609 129.881C84.3715 129.941 84.3037 130.027 84.2675 130.129C84.2313 130.23 84.2287 130.34 84.26 130.443C84.2913 130.545 84.3549 130.635 84.4413 130.699C84.5278 130.763 84.6324 130.797 84.7399 130.797C84.9559 130.797 84.8499 130.829 87.4509 129.084C87.5056 129.048 87.5525 129.001 87.589 128.946C87.6255 128.891 87.651 128.83 87.6638 128.766C87.6766 128.701 87.6766 128.635 87.6637 128.57C87.6509 128.506 87.6254 128.445 87.5889 128.39V128.39Z" opacity=".75"></path><path fill="#ffffff" d="M60.2209 152.44L57.8369 150.74C57.7835 150.701 57.723 150.674 57.6591 150.659C57.5951 150.645 57.5288 150.643 57.4641 150.653C57.3993 150.664 57.3373 150.688 57.2816 150.722C57.2259 150.757 57.1776 150.803 57.1394 150.856C57.1013 150.909 57.074 150.97 57.0592 151.034C57.0444 151.098 57.0424 151.164 57.0532 151.229C57.064 151.294 57.0875 151.356 57.1223 151.411C57.1571 151.467 57.2025 151.515 57.2559 151.554L59.6399 153.254C59.7479 153.331 59.882 153.362 60.0128 153.34C60.1436 153.318 60.2604 153.245 60.3374 153.137C60.4145 153.029 60.4455 152.895 60.4236 152.764C60.4018 152.633 60.3289 152.517 60.2209 152.44V152.44Z" opacity=".75"></path></g><path fill="#ffffff" fill-rule="evenodd" d="M52.0049 82.2C52.0049 82.2 47.8469 83.4591 46.6909 78.8001C45.5469 74.1891 50.4309 73.34 50.4309 73.34C50.4309 73.34 46.5549 51.52 72.9859 55.618C72.9859 55.618 81.0409 61.976 80.4109 67.923C79.7809 73.87 77.9719 74.1231 78.8979 78.2741C79.8239 82.4251 78.1639 84.899 75.9559 87.502C73.7479 90.105 73.1639 94.93 69.4369 94.93C66.6985 94.9043 64.0117 94.1816 61.6299 92.8301C60.7299 93.7731 54.1919 100.112 46.4939 93.251C52.4709 81.552 52.0359 82.321 52.0049 82.2Z" clip-rule="evenodd"></path><path fill="#0e2238" fill-rule="evenodd" d="M47.4149 58.0124C46.1429 57.6124 39.8679 55.3324 39.9099 48.9764C39.9559 41.9034 42.0459 40.8184 45.7249 40.7764C45.7249 40.7764 45.3719 37.3654 49.9349 36.4224C54.4979 35.4794 53.3719 37.4544 56.1879 36.9584C59.0039 36.4624 57.8489 35.2804 60.7129 37.0234C63.5769 38.7664 63.1729 40.4914 64.5659 40.6304C65.9589 40.7694 67.5599 41.5914 67.7039 44.4684C67.7816 45.4568 67.5836 46.4475 67.132 47.3302C66.6804 48.2129 65.9929 48.953 65.1459 49.4684C69.2733 50.4453 73.1053 52.4002 76.3189 55.1684C89.3499 65.6744 83.1089 84.5854 83.1089 84.5854C83.1089 84.5854 81.4619 83.8604 80.5729 83.3994C80.5729 83.3994 81.8579 77.7994 80.4729 74.9854C80.2062 76.9824 79.7887 78.9564 79.2239 80.8904L78.6079 75.6134L79.8479 72.2284L80.4729 67.7814L79.8479 63.5654C78.3367 61.2545 76.5805 59.1134 74.6099 57.1794L47.3829 75.0204C47.3829 75.0204 42.5909 66.2514 47.4149 58.0124Z" clip-rule="evenodd"></path><path fill="#0e2238" fill-rule="evenodd" d="M73.841 90.5916C73.841 90.5916 72.873 95.5346 73.356 98.1386C74.7656 98.1767 76.164 98.4006 77.515 98.8046C77.515 98.8046 75.976 91.9136 76.746 87.9226C76.7108 90.2696 76.9692 92.6117 77.515 94.8946C78.3515 95.0722 79.2211 95.0115 80.025 94.7196C80.025 94.7196 78.063 87.2196 78.185 83.8916L73.841 90.5916Z" clip-rule="evenodd"></path><path fill="#0e2238" fill-rule="evenodd" d="M74.611 57.174C74.611 57.174 68.011 48.885 56.672 55.1C45.333 61.315 49.707 73.4 50.431 73.343C56.925 72.807 53.581 83.603 51.542 89.81C50.6985 92.8302 50.8635 96.0431 52.012 98.961C53.2464 98.1475 54.6112 97.5519 56.047 97.2C56.9587 97.8211 58.0052 98.216 59.1 98.352C59.6887 94.4097 59.5259 90.3917 58.62 86.51C57.738 82.862 58.52 81.169 58.52 81.169C59.127 83.769 59.963 84.295 59.963 84.295C62.574 84.295 63.053 83.351 63.053 83.351C63.053 83.351 61.459 83.585 60.425 79.82C58.347 72.257 63.053 64.72 63.053 64.72C62.292 66.746 60.789 72.458 60.789 72.458C61.8596 72.6798 62.9643 72.6798 64.035 72.458C66.803 70.351 69.035 63.558 69.035 63.558C69.035 66.834 66.877 71.137 66.877 71.137C67.5606 71.3248 68.275 71.3734 68.9778 71.2797C69.6806 71.1861 70.3573 70.9523 70.968 70.592C77.7 62.814 74.611 57.174 74.611 57.174Z" clip-rule="evenodd"></path><path fill="#0e2238" d="M77.6809 99.1705C76.3782 98.7816 75.0299 98.5658 73.6709 98.5285C73.5383 98.5285 73.4111 98.4759 73.3173 98.3821C73.2236 98.2883 73.1709 98.1611 73.1709 98.0285C73.1709 97.8959 73.2236 97.7688 73.3173 97.675C73.4111 97.5812 73.5383 97.5285 73.6709 97.5285C74.8502 97.5633 76.023 97.7181 77.1709 97.9905C76.7869 96.0275 75.9359 90.9905 76.5659 87.7165C76.5916 87.5951 76.661 87.4872 76.7609 87.4135C76.8608 87.3398 76.9843 87.3053 77.1079 87.3165C77.2315 87.3292 77.3459 87.3874 77.4289 87.4799C77.5119 87.5723 77.5575 87.6923 77.5569 87.8165C77.5236 90.1103 77.7741 92.3993 78.3029 94.6315C78.3291 94.7142 78.3334 94.8023 78.3153 94.8871C78.2972 94.9719 78.2573 95.0506 78.1996 95.1153C78.1419 95.1801 78.0684 95.2287 77.9862 95.2565C77.904 95.2842 77.816 95.2901 77.7309 95.2735C77.9989 97.1525 78.3069 98.5525 78.3139 98.5825C78.3331 98.6678 78.3295 98.7567 78.3036 98.8402C78.2777 98.9237 78.2304 98.9989 78.1663 99.0584C78.1023 99.1179 78.0238 99.1596 77.9386 99.1792C77.8534 99.1989 77.7646 99.1959 77.6809 99.1705V99.1705Z"></path><path fill="#0e2238" d="M72.4899 84.7997C72.1776 84.7995 71.8662 84.766 71.5609 84.6997C71.4356 84.6664 71.3282 84.5857 71.2612 84.4746C71.1943 84.3635 71.1731 84.2308 71.2022 84.1044C71.2312 83.9781 71.3083 83.8679 71.417 83.7973C71.5257 83.7266 71.6577 83.7009 71.7849 83.7257C72.3926 83.8689 73.0309 83.8012 73.5949 83.5337C73.7236 83.4477 73.8329 83.3358 73.9158 83.2051C73.9986 83.0744 74.0532 82.9278 74.0759 82.7747C74.2149 82.0747 73.9219 82.0647 73.1249 80.9197C72.8516 80.5109 72.6939 80.0358 72.6683 79.5447C72.6428 79.0535 72.7505 78.5647 72.9799 78.1297C73.0464 78.0176 73.154 77.9359 73.2799 77.902C73.4057 77.8681 73.5398 77.8846 73.6536 77.9481C73.7674 78.0116 73.8519 78.117 73.8891 78.2419C73.9264 78.3668 73.9134 78.5012 73.8529 78.6167C73.7139 78.888 73.6493 79.1913 73.6656 79.4957C73.682 79.8002 73.7787 80.0948 73.9459 80.3497C74.6849 81.4107 75.2969 81.7567 75.0569 82.9687C74.9366 83.5402 74.6059 84.0455 74.1304 84.3847C73.655 84.7238 73.0695 84.8719 72.4899 84.7997V84.7997Z"></path><path fill="#0e2238" d="M71.7001 88.4112C70.6191 88.3417 69.5838 87.9494 68.7281 87.2852C68.6272 87.2017 68.5631 87.0819 68.5495 86.9516C68.536 86.8213 68.5742 86.6909 68.6558 86.5885C68.7374 86.486 68.856 86.4197 68.986 86.4038C69.116 86.3878 69.2471 86.4235 69.3511 86.5032C70.1209 87.116 71.0873 87.4277 72.0701 87.3802C72.385 87.3135 72.6812 87.1776 72.9372 86.9823C73.1931 86.7871 73.4025 86.5373 73.5501 86.2512C73.5826 86.1921 73.6268 86.1401 73.68 86.0985C73.7332 86.0568 73.7943 86.0264 73.8595 86.009C73.9248 85.9916 73.9929 85.9877 74.0598 85.9973C74.1266 86.007 74.1908 86.0301 74.2485 86.0653C74.3061 86.1004 74.3561 86.1469 74.3953 86.2019C74.4345 86.2569 74.4622 86.3192 74.4766 86.3852C74.4911 86.4512 74.492 86.5194 74.4794 86.5857C74.4667 86.6521 74.4408 86.7152 74.4031 86.7712C74.1429 87.2634 73.7541 87.6759 73.2782 87.9647C72.8022 88.2535 72.2568 88.4078 71.7001 88.4112V88.4112Z"></path><path fill="#0e2238" d="M69.831 89.6207C69.9114 89.517 70.0292 89.449 70.1593 89.4314C70.2893 89.4138 70.421 89.4481 70.526 89.5267C70.605 89.5827 71.28 90.0097 72.276 89.1077C72.3247 89.0637 72.3816 89.0296 72.4435 89.0076C72.5054 88.9855 72.571 88.9758 72.6366 88.9791C72.7022 88.9824 72.7665 88.9986 72.8259 89.0268C72.8852 89.0549 72.9384 89.0945 72.9825 89.1432C73.0266 89.1919 73.0606 89.2489 73.0827 89.3107C73.1047 89.3726 73.1144 89.4382 73.1111 89.5038C73.1078 89.5694 73.0916 89.6337 73.0634 89.6931C73.0353 89.7524 72.9957 89.8057 72.947 89.8497C71.207 91.4217 69.235 90.3937 69.831 89.6207Z"></path><path fill="#0e2238" d="M76.3259 71.6397C76.2229 71.6407 76.1221 71.6098 76.0373 71.5513C75.9526 71.4928 75.8879 71.4096 75.8522 71.3129C75.8166 71.2163 75.8116 71.111 75.838 71.0115C75.8645 70.9119 75.921 70.823 75.9999 70.7567C76.0879 70.6827 78.1819 68.9407 79.7909 69.7777C79.8525 69.806 79.9077 69.8464 79.9532 69.8967C79.9986 69.9469 80.0334 70.0059 80.0554 70.07C80.0774 70.134 80.0862 70.2019 80.0811 70.2695C80.0761 70.3371 80.0573 70.4029 80.026 70.463C79.9948 70.5231 79.9516 70.5763 79.8992 70.6192C79.8467 70.6621 79.7861 70.6939 79.721 70.7127C79.6559 70.7314 79.5877 70.7368 79.5204 70.7284C79.4532 70.72 79.3884 70.698 79.3299 70.6637C78.4879 70.2297 77.1059 71.1357 76.6439 71.5227C76.5547 71.5976 76.4423 71.6389 76.3259 71.6397V71.6397Z"></path><path fill="#0e2238" d="M62.7279 74.2004C62.8869 74.0624 66.6379 70.8484 69.2939 72.3884C69.4027 72.4576 69.4806 72.5661 69.5113 72.6914C69.542 72.8166 69.5231 72.9489 69.4585 73.0606C69.394 73.1722 69.2888 73.2546 69.165 73.2905C69.0411 73.3265 68.9082 73.3132 68.7939 73.2534C66.7529 72.0694 63.4189 74.9254 63.3859 74.9534C63.2859 75.0398 63.1558 75.0832 63.024 75.074C62.8921 75.0647 62.7693 75.0037 62.6823 74.9042C62.5954 74.8047 62.5513 74.6748 62.5599 74.5429C62.5684 74.411 62.6288 74.2879 62.7279 74.2004V74.2004Z"></path><path fill="#0e2238" d="M47.6069 58.2087C47.5182 58.2084 47.4311 58.1846 47.3547 58.1396C47.2782 58.0945 47.2151 58.03 47.1719 57.9525C47.1286 57.875 47.1067 57.7875 47.1085 57.6987C47.1103 57.61 47.1356 57.5234 47.1819 57.4477C51.3019 50.7537 57.9909 47.5757 65.0819 48.9477C65.2121 48.9728 65.3271 49.0485 65.4014 49.1583C65.4758 49.2681 65.5035 49.403 65.4784 49.5332C65.4534 49.6634 65.3776 49.7784 65.2678 49.8527C65.158 49.9271 65.0231 49.9548 64.8929 49.9297C58.1299 48.6297 51.9849 51.5547 48.0329 57.9737C47.9878 58.0459 47.925 58.1054 47.8504 58.1465C47.7759 58.1876 47.6921 58.209 47.6069 58.2087Z"></path><path fill="#0e2238" d="M51.921 76.247C50.346 74.366 47.892 75.868 47.721 78.039C47.7108 78.1708 47.7531 78.3012 47.8387 78.4018C47.9243 78.5024 48.0463 78.5651 48.178 78.576C48.3094 78.5848 48.439 78.5423 48.5397 78.4574C48.6404 78.3726 48.7043 78.252 48.718 78.121C48.7447 77.7233 48.8948 77.3438 49.1474 77.0353C49.3999 76.7268 49.7423 76.5048 50.127 76.4C50.735 76.276 51.241 76.9 51.515 77.454C51.1 79 49.109 79.54 49.088 79.545C48.9595 79.5781 48.8494 79.6608 48.7819 79.775C48.7143 79.8892 48.695 80.0255 48.728 80.154C48.761 80.2825 48.8437 80.3927 48.9579 80.4602C49.0721 80.5277 49.2085 80.5471 49.337 80.514C50.3408 80.2364 51.2375 79.6624 51.91 78.867C51.9715 79.4107 51.9072 79.9612 51.722 80.476C51.6754 80.6003 51.6802 80.738 51.7351 80.8587C51.7901 80.9795 51.8907 81.0735 52.015 81.12C52.1392 81.1666 52.2769 81.1619 52.3977 81.1069C52.5184 81.052 52.6124 80.9513 52.659 80.827C52.9201 80.0615 52.9893 79.2436 52.8606 78.4451C52.732 77.6466 52.4093 76.8918 51.921 76.247V76.247Z"></path><path fill="#0e2238" d="M42.017 141.2C41.9383 141.2 41.8608 141.181 41.7907 141.146C41.7206 141.11 41.6599 141.058 41.6135 140.995C41.5671 140.931 41.5364 140.858 41.5238 140.78C41.5112 140.703 41.5171 140.623 41.541 140.548C42.1768 138.818 43.269 137.292 44.7017 136.132C46.1345 134.972 47.8543 134.222 49.679 133.96C49.8107 133.943 49.9437 133.979 50.0487 134.061C50.1537 134.142 50.2222 134.261 50.239 134.393C50.2558 134.525 50.2197 134.658 50.1385 134.763C50.0573 134.868 49.9377 134.936 49.806 134.953C48.163 135.171 46.6116 135.836 45.3218 136.877C44.0319 137.918 43.0532 139.293 42.493 140.853C42.4606 140.954 42.3971 141.042 42.3115 141.104C42.226 141.166 42.1229 141.2 42.017 141.2Z"></path><path fill="#0e2238" d="M49.0339 131.956C48.9577 131.956 48.8824 131.939 48.8139 131.905C46.8969 131.115 44.7937 130.89 42.7529 131.257C42.623 131.284 42.4878 131.258 42.3772 131.184C42.2665 131.111 42.1895 130.997 42.1629 130.867C42.1364 130.737 42.1626 130.602 42.2357 130.491C42.3089 130.381 42.423 130.304 42.5529 130.277C44.8096 129.857 47.1399 130.112 49.2529 131.008C49.3538 131.058 49.4348 131.141 49.4829 131.242C49.531 131.344 49.5434 131.459 49.5181 131.569C49.4928 131.678 49.4312 131.776 49.3433 131.847C49.2555 131.917 49.1465 131.955 49.0339 131.956V131.956Z"></path><path fill="#0e2238" d="M54.1249 150.945C54.0502 149.48 54.3696 148.021 55.0496 146.72C55.7296 145.42 56.7456 144.325 57.9919 143.55C56.8369 143.284 54.7269 143.25 52.4349 145.383C52.3876 145.432 52.3311 145.47 52.2687 145.496C52.2063 145.521 52.1393 145.534 52.0718 145.533C52.0042 145.533 51.9376 145.518 51.8758 145.491C51.814 145.464 51.7584 145.424 51.7123 145.375C51.6662 145.326 51.6305 145.267 51.6075 145.204C51.5845 145.14 51.5746 145.073 51.5784 145.005C51.5822 144.938 51.5996 144.872 51.6296 144.812C51.6596 144.751 51.7015 144.697 51.7529 144.653C55.6729 140.994 59.2439 142.913 59.3939 142.996C59.4725 143.039 59.5381 143.103 59.5838 143.18C59.6295 143.257 59.6536 143.345 59.6536 143.435C59.6536 143.525 59.6295 143.613 59.5838 143.69C59.5381 143.767 59.4725 143.83 59.3939 143.873C58.0827 144.493 56.9806 145.481 56.2222 146.717C55.4639 147.953 55.0822 149.384 55.1239 150.833C55.1387 150.966 55.1004 151.099 55.0172 151.203C54.934 151.307 54.8129 151.374 54.6804 151.389C54.5479 151.404 54.415 151.365 54.3108 151.282C54.2066 151.199 54.1397 151.078 54.1249 150.945Z"></path><path fill="#0e2238" d="M100.254 162.946C100.038 162.524 99.7523 162.143 99.408 161.819C99.5686 161.847 99.7338 161.833 99.8871 161.777C100.04 161.721 100.176 161.626 100.281 161.501C100.815 160.82 100.027 159.734 99.271 158.942C98.238 157.86 95.095 154.564 90.247 154.658C86.172 154.734 79.801 155.643 77.575 154.358C75.457 153.13 69.487 148.504 66.64 146.564C66.3207 146.054 66.062 145.509 65.869 144.94C65.353 143.572 65.398 143.075 63.194 141.266C62.6173 140.756 61.8627 140.493 61.094 140.536C60.464 140.524 59.974 140.536 58.894 138.786C56.769 135.356 56.653 135.363 53.626 134.625C51.194 134.033 52.526 131.973 51.109 127.454C49.584 122.578 51.279 119.523 51.834 118.703C51.8708 118.648 51.8966 118.587 51.9098 118.523C51.923 118.459 51.9234 118.392 51.911 118.328C51.8986 118.263 51.8737 118.202 51.8375 118.147C51.8014 118.092 51.7548 118.045 51.7005 118.008C51.6461 117.971 51.585 117.946 51.5207 117.932C51.4563 117.919 51.39 117.919 51.3256 117.931C51.2611 117.944 51.1996 117.969 51.1448 118.005C51.09 118.041 51.0428 118.087 51.006 118.142C50.213 119.313 48.542 122.594 50.155 127.753C51.543 132.197 50.105 134.804 53.39 135.598C56.159 136.267 56.096 136.168 58.043 139.313C60.214 142.813 60.972 140.738 62.56 142.039C63.3272 142.558 63.9649 143.247 64.424 144.052C61.131 144.911 57.599 148.423 56.6 154.303C55.22 154.296 54.4 153.485 53.491 152.582C52.499 151.598 52.701 151.282 50.049 150.5C49.3241 150.314 48.6152 150.071 47.929 149.773C45.999 148.908 45.539 149.044 44.698 149.335C44.2845 149.497 43.8375 149.556 43.3961 149.506C42.9547 149.456 42.5324 149.298 42.166 149.047C38.217 147.116 36.686 140.368 36.407 136.684C36.124 132.957 36.257 132.465 31.3 126.126C26.825 120.403 28.55 114.254 30.236 110.126C31.636 106.694 36.736 103.661 37.893 102.017C37.9693 101.908 37.9995 101.774 37.9768 101.643C37.9541 101.512 37.8804 101.396 37.772 101.32C37.6635 101.243 37.5291 101.213 37.3984 101.236C37.2677 101.259 37.1513 101.332 37.075 101.441C36.018 102.941 30.829 106.029 29.31 109.747C28.176 112.524 25.163 119.899 30.51 126.741C31.973 128.611 32.973 129.941 33.665 130.991C33.8671 131.597 33.8877 132.249 33.724 132.866C33.5604 133.484 33.2197 134.04 32.744 134.467C30.691 136.167 30.665 136.439 30.489 138.467C30.317 140.467 31.365 140.847 29.51 143.41C27.385 146.346 27.737 147.795 28.318 150.196C29.029 153.132 39.992 159.132 52.948 153.455C53.4324 154.054 54.0504 154.533 54.7526 154.851C55.4547 155.169 56.2216 155.319 56.992 155.288C57.32 155.368 58.629 155.688 59.847 156.015C60.496 156.191 64.482 158.056 68.639 159.248C72.046 160.226 71.774 160.007 72.402 160.538C73.479 161.45 73.802 161.538 74.402 161.48C74.733 161.446 74.702 161.48 75.319 161.694C76.3626 162.137 77.3482 162.706 78.254 163.388C79.501 164.221 79.725 164.371 82.112 164.826C84.822 165.339 86.139 164.993 89.012 166.418C89.4516 166.665 89.9407 166.812 90.444 166.848C90.5816 166.86 90.7204 166.841 90.8494 166.792C90.9785 166.742 91.0943 166.663 91.1881 166.562C91.2818 166.46 91.3508 166.338 91.3898 166.205C91.4288 166.073 91.4367 165.933 91.413 165.797C91.2013 165.022 90.734 164.341 90.087 163.865C90.974 164.196 91.62 164.494 92.533 164.903C94.959 165.989 95.689 166.318 96.24 165.939C96.3771 165.822 96.4822 165.673 96.5452 165.505C96.6082 165.336 96.6271 165.154 96.6 164.977C96.5279 164.45 96.3085 163.954 95.967 163.547C98.133 164.961 99.467 165.352 100.142 164.771C100.578 164.4 100.617 163.736 100.254 162.946ZM32.8 152.805C30.451 151.658 29.412 150.473 29.287 149.958C28.722 147.622 28.464 146.558 30.318 143.993C32.411 141.101 31.333 140.304 31.484 138.551C31.639 136.743 31.592 136.715 33.384 135.237C34.1005 134.661 34.5872 133.847 34.756 132.944C35.1578 134.02 35.3676 135.158 35.376 136.307C35.732 141.107 37.418 147.837 41.727 149.944C44.592 151.344 44.895 149.726 46.327 150.218C47.4481 150.697 48.596 151.11 49.765 151.457C51.54 151.98 51.812 152.217 52.221 152.679C42.458 156.82 34.917 153.838 32.8 152.805ZM64.812 144.982C65.0001 145.525 65.2222 146.057 65.477 146.573C65.1234 146.682 64.7843 146.833 64.467 147.024L62.835 145.758C63.4565 145.409 64.1231 145.148 64.816 144.982H64.812ZM61.948 146.337L63.623 147.637C62.9196 148.267 62.3131 148.998 61.823 149.806L59.66 148.868C60.266 147.893 61.0424 147.036 61.952 146.337H61.948ZM59.624 154.918C58.831 154.708 58.058 154.518 57.591 154.404C57.629 154.185 57.685 153.894 57.765 153.549L59.836 154.22C59.753 154.492 59.682 154.729 59.628 154.918H59.624ZM58.024 152.581C58.3089 151.598 58.6904 150.646 59.163 149.738L61.325 150.677C60.879 151.515 60.4924 152.384 60.168 153.277L58.024 152.581ZM99.5 164.006C99.5 164.006 98.9 164.294 96.321 162.577C93.9591 161.002 91.297 159.932 88.502 159.435C88.3757 159.42 88.2484 159.452 88.1449 159.526C88.0415 159.6 87.9695 159.71 87.943 159.835C87.9191 159.961 87.9446 160.091 88.0142 160.199C88.0839 160.307 88.1922 160.384 88.317 160.414C93.391 161.635 95.558 164.176 95.607 165.03V165.071C94.3871 164.643 93.1933 164.144 92.032 163.577C88.427 161.969 86.89 162.066 86.826 162.058C86.7121 162.065 86.6042 162.111 86.5202 162.188C86.4362 162.266 86.3811 162.369 86.3641 162.482C86.347 162.595 86.369 162.71 86.4265 162.809C86.484 162.907 86.5734 162.983 86.68 163.024C89.138 163.965 90.271 165.364 90.411 165.842C90.0768 165.793 89.7544 165.683 89.46 165.518C86.382 163.994 84.96 164.345 82.299 163.839C80.113 163.423 79.965 163.324 78.811 162.553C77.834 161.821 76.7698 161.213 75.643 160.744C75.2293 160.532 74.7648 160.441 74.302 160.481C74.102 160.501 73.947 160.52 73.374 160.044C72.132 159.012 72.779 159.388 68.916 158.283C66.0849 157.411 63.3043 156.383 60.587 155.204C61.057 153.576 62.894 148.004 66.149 147.437C69.038 149.415 74.796 153.901 77.073 155.219C79.643 156.708 85.96 155.734 90.264 155.656C94.178 155.556 96.884 157.889 98.547 159.631C98.9034 159.97 99.196 160.371 99.411 160.814C98.7762 160.661 98.1726 160.399 97.627 160.041C95.6538 158.928 93.5518 158.061 91.368 157.46C91.2431 157.43 91.1117 157.45 91.0008 157.514C90.8899 157.579 90.8081 157.683 90.7723 157.807C90.7364 157.93 90.7493 158.062 90.8083 158.176C90.8672 158.29 90.9677 158.377 91.089 158.419C95.9 160.001 98.859 162.302 99.344 163.361C99.4589 163.555 99.5132 163.78 99.5 164.006Z"></path><path fill="#0e2238" d="M44.6561 111.183C42.3823 110.064 39.8117 109.696 37.3151 110.131C38.383 106.942 40.5722 104.249 43.4761 102.552C43.5833 102.489 43.663 102.388 43.6995 102.268C43.7359 102.149 43.7266 102.021 43.6733 101.908C43.62 101.796 43.5265 101.707 43.4112 101.66C43.296 101.612 43.1672 101.61 43.0501 101.652C42.8501 101.745 38.2561 103.968 36.1501 110.437C34.6317 110.912 33.2576 111.762 32.1551 112.908C32.0735 113.01 32.0348 113.139 32.0472 113.269C32.0596 113.399 32.122 113.518 32.2213 113.603C32.3206 113.687 32.4488 113.729 32.5788 113.72C32.7087 113.711 32.8301 113.652 32.9171 113.555C34.8971 111.233 39.2601 109.855 44.2411 112.099C44.362 112.154 44.4997 112.158 44.6239 112.111C44.748 112.065 44.8484 111.97 44.9031 111.849C44.9577 111.728 44.9621 111.591 44.9152 111.467C44.8683 111.342 44.774 111.242 44.6531 111.187L44.6561 111.183Z"></path><path fill="#0e2238" d="M73.2529 127.565C73.3249 127.33 75.0629 121.805 79.8469 120.281C79.9714 120.247 80.1041 120.263 80.2171 120.325C80.3302 120.387 80.4149 120.491 80.4537 120.614C80.4924 120.737 80.4821 120.87 80.4249 120.985C80.3678 121.101 80.2682 121.19 80.1469 121.234C75.8569 122.6 74.2209 127.805 74.2049 127.858C74.1577 127.974 74.0689 128.067 73.956 128.121C73.8431 128.174 73.7143 128.184 73.5949 128.147C73.4755 128.11 73.3741 128.03 73.3108 127.922C73.2475 127.815 73.2269 127.687 73.2529 127.565Z"></path><path fill="#0e2238" d="M78.7581 129.445C78.6897 129.445 78.6219 129.431 78.5591 129.404C78.4962 129.377 78.4396 129.337 78.3927 129.287C78.3459 129.237 78.3097 129.178 78.2866 129.114C78.2634 129.049 78.2537 128.981 78.2581 128.913C78.5581 124.187 81.0581 122.458 81.1581 122.387C81.2681 122.315 81.4017 122.29 81.5303 122.316C81.6588 122.342 81.7719 122.417 81.8452 122.526C81.9186 122.635 81.9462 122.768 81.9223 122.897C81.8983 123.026 81.8246 123.14 81.7171 123.216C81.6171 123.284 79.5171 124.784 79.2541 128.976C79.2462 129.102 79.1907 129.221 79.0986 129.308C79.0065 129.395 78.8848 129.444 78.7581 129.445Z"></path><path fill="#0e2238" d="M116.808 141.43C117.045 141.395 117.765 141.288 117.891 140.713C118.017 140.138 117.473 139.66 116.558 139.065C115.94 138.665 115.258 138.253 114.637 137.888C115.075 137.833 115.499 137.702 115.892 137.501C116.166 137.347 116.806 136.987 116.716 136.411C116.633 135.88 116.025 135.685 115.379 135.553C114.393 135.353 112.963 134.803 112.128 134.753C111.093 134.578 110.087 134.259 109.139 133.807C107.939 133.259 105.839 133.754 101.33 134.264C98.4501 134.587 94.2001 131.112 92.8031 129.964C92.2691 129.529 92.2131 129.483 92.0091 129.483C91.8793 129.483 91.7545 129.533 91.6611 129.623C90.9934 129.779 90.3529 130.034 89.7611 130.38L88.6381 129.08C89.0899 128.828 89.5603 128.61 90.0451 128.428C90.1066 128.405 90.1629 128.37 90.2108 128.325C90.2587 128.28 90.2974 128.227 90.3245 128.167C90.3516 128.107 90.3667 128.042 90.3688 127.977C90.371 127.911 90.3602 127.846 90.3371 127.784C90.314 127.723 90.279 127.667 90.2341 127.619C90.1893 127.571 90.1354 127.532 90.0756 127.505C90.0158 127.478 89.9512 127.463 89.8856 127.461C89.82 127.458 89.7546 127.469 89.6931 127.492C88.1659 127.989 86.8012 128.889 85.7436 130.097C84.686 131.306 83.9747 132.778 83.6851 134.357C80.0721 135.339 80.5141 135.742 78.0471 134.028C76.0811 132.66 75.5911 133.192 73.9251 132.374C72.4471 131.647 72.8331 131.364 71.2381 129.999L69.1241 128.741C72.3881 122.6 71.6801 120.466 70.7101 117.541L70.5101 116.941C69.3361 113.307 70.4041 111.941 70.4361 111.903C70.5217 111.805 70.5657 111.676 70.5588 111.546C70.5519 111.415 70.4947 111.293 70.3991 111.203C70.3013 111.114 70.1721 111.067 70.0397 111.073C69.9073 111.079 69.7827 111.137 69.6931 111.234C69.6301 111.302 68.1611 112.962 69.5591 117.248C70.6961 120.733 71.4541 122.422 67.9521 128.806C67.9059 128.891 67.8851 128.987 67.8922 129.083C67.8994 129.179 67.9342 129.271 67.9924 129.348C68.0506 129.425 68.1298 129.483 68.2204 129.516C68.311 129.549 68.4092 129.555 68.5031 129.533L70.6541 130.805C72.1251 132.087 71.7361 132.411 73.4831 133.271C75.2831 134.155 75.7461 133.643 77.4771 134.848C78.7371 135.723 79.4181 136.195 80.3931 136.195C81.6553 136.023 82.8957 135.717 84.0931 135.282C86.0371 136.145 85.9651 136.132 86.0761 136.152C91.7911 140.218 95.2851 139.043 98.3221 141.517C99.9271 142.825 99.9481 144.699 103.256 146.49C104.456 147.142 108.18 149.058 109.234 148.179C109.374 148.059 109.472 147.897 109.514 147.717C109.555 147.538 109.539 147.349 109.467 147.179C109.025 145.806 106.448 145.293 105.415 142.726C106.388 142.532 107.395 142.617 108.322 142.97C110.497 143.789 113.839 146.025 115.399 145.447C115.805 145.296 116.28 145.062 116.334 144.589C116.346 144.478 116.334 144.365 116.297 144.259C116.261 144.153 116.202 144.057 116.124 143.976C116.885 143.819 117.68 143.491 117.813 142.804C117.938 142.152 117.352 141.861 116.613 141.493C116.347 141.37 116.5 141.476 116.808 141.43ZM87.7881 129.63L88.9231 130.942C88.567 131.212 88.2326 131.509 87.9231 131.831L86.3811 130.912C86.7975 130.43 87.2698 129.998 87.7881 129.627V129.63ZM85.8931 135L84.6861 134.462C84.7071 134.338 84.7371 134.183 84.7801 134.005L86.1001 134.538C86.0294 134.686 85.9604 134.84 85.8931 135ZM85.0861 133.05C85.2725 132.584 85.505 132.137 85.7801 131.716L87.2671 132.603C87.012 132.937 86.7782 133.286 86.5671 133.648L85.0861 133.05ZM112.861 139.015C112.595 138.613 112.271 138.252 111.899 137.944C110.942 137.419 109.91 137.044 108.839 136.831C108.774 136.815 108.706 136.813 108.639 136.823C108.573 136.834 108.509 136.858 108.452 136.894C108.396 136.93 108.346 136.977 108.308 137.033C108.27 137.088 108.243 137.151 108.23 137.217C108.216 137.283 108.216 137.351 108.23 137.417C108.243 137.483 108.27 137.545 108.308 137.601C108.346 137.656 108.395 137.703 108.452 137.739C108.509 137.775 108.573 137.799 108.639 137.81C109.582 137.992 110.492 138.315 111.339 138.768C111.685 139.109 111.996 139.484 112.268 139.886C112.517 140.129 112.789 140.349 113.078 140.542C114.244 141.369 115.478 142.094 116.767 142.71C116.2 142.983 115.578 143.124 114.949 143.121C114.243 142.625 113.571 142.081 112.938 141.494C111.645 140.401 110.219 139.475 108.693 138.739C108.573 138.683 108.435 138.677 108.311 138.722C108.186 138.767 108.084 138.86 108.028 138.98C107.972 139.1 107.966 139.238 108.011 139.363C108.056 139.487 108.149 139.589 108.269 139.645C109.706 140.344 111.052 141.217 112.275 142.245C115.013 144.675 115.408 144.389 115.057 144.523C114.066 144.884 110.547 142.749 108.679 142.047C107.371 141.532 105.923 141.493 104.588 141.935C104.473 141.982 104.379 142.07 104.324 142.182C104.27 142.294 104.26 142.422 104.295 142.541C105.224 145.675 107.977 146.487 108.482 147.432C107.993 147.457 106.41 147.07 103.738 145.624C100.654 143.954 100.766 142.224 98.9591 140.753C95.5941 138.014 92.6111 139.472 86.7991 135.444C87.7341 133.202 89.5901 131.03 91.9801 130.586C94.3731 132.534 98.3801 135.611 101.449 135.262C105.604 134.791 107.849 134.32 108.732 134.721C109.791 135.223 110.915 135.571 112.072 135.755C112.623 135.835 113.166 135.965 113.693 136.143C115.085 136.555 115.051 136.497 115.464 136.603C114.715 136.915 113.902 137.043 113.093 136.975C111.819 136.22 110.421 135.698 108.964 135.432C108.833 135.414 108.7 135.449 108.595 135.528C108.489 135.608 108.419 135.726 108.401 135.857C108.382 135.988 108.416 136.121 108.495 136.227C108.574 136.333 108.692 136.403 108.823 136.422C110.193 136.683 111.505 137.185 112.699 137.904C114.089 138.677 115.438 139.521 116.739 140.435C116.081 140.545 113.553 139.221 112.861 139.012V139.015Z"></path><path fill="#0e2238" d="M75.174 56.9203C74.588 56.3513 73.889 56.8983 74.174 57.4203C74.202 57.4733 77.005 62.8203 70.639 70.2253C69.7223 70.7394 68.6583 70.9273 67.621 70.7583C68.7071 68.5031 69.3591 66.0636 69.543 63.5673C69.543 63.4484 69.5006 63.3334 69.4234 63.243C69.3462 63.1525 69.2394 63.0925 69.122 63.0737C69.0046 63.0549 68.8843 63.0786 68.7828 63.1405C68.6813 63.2023 68.6051 63.2984 68.568 63.4113C68.546 63.4763 66.401 69.9243 63.827 71.9973C63.0283 72.1426 62.2137 72.1803 61.405 72.1093C61.785 70.6883 62.905 66.5403 63.524 64.9093C63.5676 64.7932 63.5666 64.6651 63.5211 64.5497C63.4755 64.4344 63.3887 64.34 63.2776 64.2851C63.1664 64.2301 63.0388 64.2184 62.9195 64.2523C62.8002 64.2862 62.6977 64.3631 62.632 64.4683C62.432 64.7843 57.832 72.2783 59.946 79.9683C60.534 82.1093 61.325 83.0833 61.974 83.5213C61.3889 83.7191 60.7745 83.8161 60.157 83.8083C59.5574 83.003 59.1636 82.0635 59.01 81.0713C58.9866 80.9699 58.9322 80.8783 58.8544 80.8093C58.7765 80.7403 58.6791 80.6973 58.5756 80.6863C58.4722 80.6753 58.3678 80.6968 58.2772 80.7479C58.1866 80.799 58.1141 80.8771 58.07 80.9713C58.034 81.0463 57.223 82.8663 58.136 86.6393C58.9858 90.2694 59.1694 94.0236 58.678 97.7193C57.9488 97.5029 57.2659 97.1533 56.664 96.6883C56.852 95.2123 57.612 89.0343 57.315 87.8063C57.2823 87.679 57.2015 87.5694 57.0895 87.5006C56.9776 87.4318 56.8433 87.4091 56.715 87.4373C56.5869 87.4686 56.4764 87.5492 56.4075 87.6616C56.3386 87.7739 56.3168 87.909 56.347 88.0373C56.623 89.1843 55.647 96.6983 55.647 96.8113C54.4697 97.136 53.3348 97.5985 52.266 98.1893C51.3445 95.5409 51.2603 92.6731 52.025 89.9753C52.914 87.2653 54.954 80.5313 54.669 76.5213C54.6532 75.5532 54.3319 74.6149 53.751 73.8403V73.8243C51.951 67.6923 56.537 62.3243 56.584 62.2753C56.6712 62.1753 56.7152 62.0448 56.7062 61.9124C56.6972 61.78 56.636 61.6566 56.536 61.5693C56.436 61.482 56.3054 61.4381 56.173 61.4471C56.0406 61.4561 55.9172 61.5173 55.83 61.6173C55.637 61.8383 51.359 66.8233 52.522 72.9853C51.4456 72.7174 50.3136 72.7794 49.273 73.1634C48.2324 73.5473 47.3313 74.2355 46.687 75.1383C46.3425 75.6996 46.1214 76.3277 46.0383 76.9809C45.9552 77.6342 46.012 78.2977 46.205 78.9273C46.905 81.7603 48.824 83.0033 51.135 82.8503C49.775 85.5943 47.303 90.5393 46.4 92.3503C46.2374 92.0942 46.1694 91.7892 46.208 91.4883C46.339 90.6773 47.34 90.1333 47.351 90.1273C47.4632 90.0626 47.5458 89.9569 47.5816 89.8324C47.6174 89.708 47.6036 89.5745 47.5429 89.4601C47.4823 89.3456 47.3796 89.2592 47.2565 89.219C47.1334 89.1787 46.9995 89.1878 46.883 89.2443C46.4781 89.4578 46.1216 89.7526 45.8358 90.1101C45.55 90.4677 45.3411 90.8803 45.222 91.3223C44.822 93.7223 49.157 95.8783 50.77 96.4223C50.9445 97.3639 51.2125 98.2858 51.57 99.1743C51.6006 99.2456 51.6473 99.3088 51.7066 99.3589C51.7658 99.409 51.8359 99.4446 51.9113 99.4629C51.9866 99.4812 52.0652 99.4818 52.1409 99.4645C52.2165 99.4472 52.2871 99.4126 52.347 99.3633C53.5659 98.5866 54.9045 98.0159 56.309 97.6743C57.1577 98.2387 58.1042 98.6399 59.1 98.8573C59.2213 98.8571 59.3385 98.8127 59.4296 98.7325C59.5207 98.6523 59.5794 98.5417 59.595 98.4213C59.758 97.1723 59.862 95.9723 59.907 94.8083C60.5058 94.3831 61.0666 93.9066 61.583 93.3843C63.9858 94.7076 66.68 95.4124 69.423 95.4353C73.528 95.4353 74.158 90.3863 76.323 87.8293C78.488 85.2723 80.361 82.6063 79.371 78.1703C78.492 74.2313 80.265 73.9153 80.893 67.9803C81.355 63.6583 77.508 59.2003 75.174 56.9203ZM48.974 81.4133C48.5025 81.1066 48.0993 80.7059 47.7896 80.2364C47.4799 79.7668 47.2703 79.2385 47.174 78.6843C47.0173 78.1881 46.967 77.6644 47.0265 77.1475C47.0859 76.6306 47.2538 76.132 47.519 75.6843C48.544 74.1063 51.372 73.2033 52.684 74.1843C53.0105 74.4907 53.2677 74.8634 53.4385 75.2773C53.6092 75.6912 53.6895 76.1368 53.674 76.5843C53.7078 78.8509 53.4353 81.1116 52.864 83.3053C52.431 82.0353 52.525 81.9223 52.248 81.7653C52.1896 81.7312 52.1248 81.7097 52.0576 81.7021C51.9905 81.6945 51.9225 81.7011 51.858 81.7213C50.8902 81.973 49.8639 81.8635 48.971 81.4133H48.974ZM50.587 95.2823C49.3206 94.759 48.1486 94.0313 47.118 93.1283C47.809 91.7473 50.403 86.5603 51.889 83.5643C52.035 83.9963 52.22 84.5013 52.441 85.0153C51.949 86.9083 51.42 88.5983 51.072 89.6603C50.5021 91.4765 50.3356 93.3951 50.584 95.2823H50.587ZM59.94 93.5313C59.94 93.1553 59.94 92.7813 59.923 92.4113C60.176 92.5733 60.423 92.7273 60.68 92.8763C60.488 93.0593 60.239 93.2853 59.937 93.5313H59.94ZM79.9 67.8743C79.279 73.7323 77.435 74.0833 78.4 78.3873C79.291 82.3813 77.643 84.7343 75.566 87.1873C73.335 89.8173 72.766 94.4393 69.427 94.4393C65.9817 94.3327 62.6477 93.195 59.856 91.1733C59.556 87.0733 58.708 85.8843 58.707 83.3403C58.92 83.8063 59.459 84.8043 59.969 84.8043C62.745 84.8043 63.401 83.7893 63.504 83.5863C63.5407 83.5057 63.5558 83.4169 63.548 83.3287C63.5401 83.2405 63.5095 83.1558 63.4591 83.083C63.4087 83.0101 63.3403 82.9516 63.2605 82.9131C63.1808 82.8746 63.0924 82.8574 63.004 82.8633C62.983 82.8633 61.785 82.8873 60.909 79.6973C60.3375 77.4922 60.2441 75.1904 60.635 72.9463C61.7872 73.2014 62.9806 73.2065 64.135 72.9613C64.2109 72.9469 64.2824 72.915 64.344 72.8683C65.5868 71.763 66.595 70.4195 67.309 68.9173C66.502 71.0093 66.262 71.0003 66.439 71.3673C66.4724 71.4361 66.5212 71.4963 66.5815 71.5433C66.6418 71.5902 66.7121 71.6228 66.787 71.6383C67.5394 71.8417 68.3253 71.89 69.097 71.7804C69.8687 71.6707 70.61 71.4053 71.276 71.0003C71.3049 70.9789 71.3314 70.9544 71.355 70.9273C75.955 65.6003 76.112 61.2423 75.672 58.8713C77.78 61.1743 80.247 64.6233 79.9 67.8743Z"></path><path fill="#0e2238" d="M33.5729 166.494C33.4681 166.494 33.3658 166.462 33.2809 166.4C15.6809 153.695 14.4409 120.631 14.4299 120.3C14.4258 120.167 14.4746 120.039 14.5654 119.942C14.6563 119.845 14.7818 119.789 14.9144 119.784C15.047 119.78 15.1758 119.829 15.2725 119.92C15.3692 120.011 15.4258 120.136 15.4299 120.269C15.4409 120.596 16.6669 153.175 33.8669 165.591C33.9517 165.653 34.0147 165.741 34.0469 165.841C34.0792 165.941 34.079 166.049 34.0464 166.149C34.0138 166.249 33.9505 166.336 33.8655 166.398C33.7805 166.46 33.6781 166.494 33.5729 166.494V166.494Z"></path><path fill="#0e2238" d="M140.1 133.309C140.044 132.971 134.559 99.3352 135.726 67.8192C131.726 67.8012 107.35 67.5872 102.818 64.8572C96.6799 61.1572 96.6089 38.0822 96.6089 37.8502C96.6089 32.0742 97.3499 13.0112 106.88 10.2142C115.552 7.66715 163.646 6.61415 173.913 10.2962C184.525 14.0962 185.969 21.0752 186.736 36.0852C187.579 52.5792 183.726 63.7361 176.679 65.2001C170.001 66.5871 149.339 67.6442 146.03 67.8072C145.484 71.9822 141.038 106.771 141.093 133.227C141.093 133.352 141.045 133.473 140.96 133.565C140.875 133.657 140.759 133.714 140.634 133.724C140.509 133.734 140.385 133.697 140.286 133.621C140.187 133.544 140.121 133.433 140.1 133.309ZM107.166 11.1732C98.0739 13.8422 97.6139 33.8642 97.6139 37.8502C97.6139 46.6262 99.1679 61.4872 103.339 63.9992C107.939 66.7722 135.968 66.8202 136.251 66.8202C136.318 66.8201 136.385 66.8336 136.447 66.8599C136.509 66.8863 136.565 66.9248 136.611 66.9733C136.658 67.0217 136.694 67.0791 136.718 67.142C136.742 67.2048 136.753 67.2719 136.751 67.3391C135.829 90.7571 138.635 115.467 140.167 126.797C140.761 99.7271 145.053 67.6082 145.099 67.2612C145.114 67.1451 145.17 67.0383 145.256 66.9592C145.343 66.88 145.454 66.8337 145.571 66.8282C145.809 66.8172 169.446 65.6822 176.482 64.2212C182.912 62.8842 186.547 51.8612 185.743 36.1362C185.001 21.5882 183.626 14.8362 173.582 11.2362C163.621 7.66815 116.011 8.57915 107.166 11.1732Z"></path><path fill="#00bac7" fill-rule="evenodd" d="M110.822 29.3896C110.932 25.8206 113.231 24.3516 117.317 23.6796C121.403 23.0076 160.038 22.1796 166.117 23.2456C171.926 24.2626 172.732 25.9106 172.546 29.2666C172.295 33.8076 167.391 33.9606 164.919 34.3726C162.447 34.7846 125.075 36.1886 119.399 35.3466C115.459 34.7626 110.713 32.9576 110.822 29.3896Z" clip-rule="evenodd"></path><path fill="#00bac7" fill-rule="evenodd" d="M172.649 47.2756C172.414 43.7126 169.965 41.5396 165.858 41.0126C161.751 40.4856 123.111 41.0216 117.07 42.3006C111.301 43.5226 110.553 45.2006 110.857 48.5446C111.269 53.0736 116.175 53.0546 118.657 53.3786C121.139 53.7026 158.541 53.7866 164.183 52.7456C168.107 52.0226 172.885 50.8376 172.649 47.2756Z" clip-rule="evenodd"></path><path fill="#ffffff" fill-rule="evenodd" d="M120.892 28.8998C120.593 28.7045 120.367 28.4166 120.247 28.0801C120.128 27.7437 120.122 27.3773 120.231 27.0373C120.339 26.6972 120.557 26.4023 120.849 26.1977C121.142 25.9931 121.494 25.8901 121.85 25.9047C122.207 25.9192 122.549 26.0504 122.824 26.2781C123.099 26.5058 123.292 26.8174 123.373 27.1652C123.454 27.513 123.418 27.8777 123.272 28.2033C123.125 28.5289 122.876 28.7975 122.562 28.9678C125.078 29.7118 125.303 33.2478 125.303 33.2478L118.266 33.5088C118.266 33.5088 118.15 29.4748 120.892 28.8998Z" clip-rule="evenodd"></path><path fill="#ffffff" d="M123.959 47.9371H121.971L123.396 46.5581C123.443 46.5121 123.481 46.4573 123.507 46.3968C123.533 46.3362 123.547 46.2712 123.548 46.2053C123.549 46.1394 123.536 46.074 123.512 46.0128C123.488 45.9516 123.451 45.8958 123.406 45.8486C123.36 45.8014 123.305 45.7637 123.244 45.7376C123.184 45.7116 123.119 45.6978 123.053 45.6969C122.987 45.696 122.921 45.7081 122.86 45.7325C122.799 45.7569 122.743 45.7931 122.696 45.8391L121.236 47.2531L121.256 45.2111C121.257 45.1454 121.244 45.0803 121.22 45.0194C121.195 44.9584 121.159 44.903 121.113 44.8561C121.02 44.7614 120.894 44.7074 120.761 44.7061C120.628 44.7048 120.501 44.7562 120.406 44.849C120.311 44.9418 120.257 45.0685 120.256 45.2011L120.235 47.3261L118.662 45.9101C118.563 45.8214 118.433 45.7755 118.301 45.7827C118.168 45.7898 118.044 45.8493 117.955 45.9481C117.866 46.0469 117.82 46.1769 117.828 46.3095C117.835 46.442 117.894 46.5664 117.993 46.6551L119.418 47.9371H117.5C117.367 47.9371 117.24 47.9898 117.146 48.0835C117.053 48.1773 117 48.3045 117 48.4371C117 48.5697 117.053 48.6969 117.146 48.7906C117.24 48.8844 117.367 48.9371 117.5 48.9371H119.5L118.061 50.3291C118.014 50.375 117.976 50.4299 117.95 50.4904C117.924 50.5509 117.91 50.616 117.909 50.6819C117.908 50.7477 117.921 50.8132 117.945 50.8744C117.969 50.9356 118.006 50.9914 118.051 51.0386C118.097 51.0858 118.152 51.1235 118.213 51.1495C118.273 51.1755 118.338 51.1894 118.404 51.1903C118.47 51.1912 118.536 51.1791 118.597 51.1547C118.658 51.1303 118.714 51.094 118.761 51.0481L120.22 49.6351L120.201 51.6581C120.2 51.7907 120.251 51.9183 120.344 52.0129C120.437 52.1076 120.564 52.1614 120.697 52.1626C120.829 52.1638 120.957 52.1122 121.051 52.0193C121.146 51.9264 121.2 51.7997 121.201 51.6671L121.221 49.5521C122.895 51.0581 122.871 51.1001 123.134 51.1001C123.235 51.1003 123.334 51.0697 123.418 51.0124C123.501 50.9552 123.565 50.8739 123.602 50.7794C123.638 50.6849 123.645 50.5816 123.621 50.4831C123.597 50.3847 123.544 50.2957 123.469 50.2281L122.033 48.9371H123.962C124.095 48.9371 124.222 48.8844 124.316 48.7906C124.409 48.6969 124.462 48.5697 124.462 48.4371C124.462 48.3045 124.409 48.1773 124.316 48.0835C124.222 47.9898 124.095 47.9371 123.962 47.9371H123.959Z"></path><path fill="#ffffff" d="M133.35 47.9371H131.362L132.786 46.5581C132.881 46.4658 132.935 46.3397 132.937 46.2074C132.939 46.0752 132.889 45.9475 132.797 45.8524C132.705 45.7573 132.579 45.7025 132.446 45.7C132.314 45.6975 132.186 45.7475 132.091 45.8391L130.63 47.2531L130.65 45.2111C130.651 45.1454 130.638 45.0803 130.614 45.0194C130.589 44.9584 130.553 44.903 130.507 44.8561C130.414 44.7614 130.288 44.7074 130.155 44.7061C130.022 44.7048 129.895 44.7562 129.8 44.849C129.705 44.9418 129.651 45.0685 129.65 45.2011L129.63 47.3261L128.057 45.9101C127.958 45.8214 127.828 45.7755 127.696 45.7827C127.563 45.7898 127.439 45.8493 127.35 45.9481C127.261 46.0469 127.215 46.1769 127.222 46.3095C127.23 46.442 127.289 46.5664 127.388 46.6551L128.813 47.9371H126.9C126.767 47.9371 126.64 47.9898 126.546 48.0835C126.453 48.1773 126.4 48.3045 126.4 48.4371C126.4 48.5697 126.453 48.6969 126.546 48.7906C126.64 48.8844 126.767 48.9371 126.9 48.9371H128.9L127.461 50.3291C127.414 50.375 127.376 50.4299 127.35 50.4904C127.324 50.5509 127.31 50.616 127.309 50.6819C127.308 50.7477 127.32 50.8132 127.345 50.8744C127.369 50.9356 127.405 50.9914 127.451 51.0386C127.497 51.0858 127.552 51.1235 127.613 51.1495C127.673 51.1755 127.738 51.1894 127.804 51.1903C127.87 51.1912 127.935 51.1791 127.997 51.1547C128.058 51.1303 128.114 51.094 128.161 51.0481L129.62 49.6351L129.601 51.6581C129.6 51.7907 129.651 51.9183 129.744 52.0129C129.837 52.1076 129.964 52.1614 130.096 52.1626C130.229 52.1638 130.357 52.1122 130.451 52.0193C130.546 51.9264 130.6 51.7997 130.601 51.6671L130.621 49.5521C132.295 51.0571 132.271 51.1001 132.535 51.1001C132.636 51.1001 132.735 51.0694 132.818 51.012C132.902 50.9547 132.966 50.8734 133.002 50.7789C133.038 50.6844 133.045 50.5812 133.021 50.4829C132.997 50.3845 132.944 50.2957 132.869 50.2281L131.434 48.9371H133.363C133.496 48.9371 133.623 48.8844 133.716 48.7906C133.81 48.6969 133.863 48.5697 133.863 48.4371C133.863 48.3045 133.81 48.1773 133.716 48.0835C133.623 47.9898 133.496 47.9371 133.363 47.9371H133.35Z"></path><path fill="#ffffff" d="M142.741 47.9371H140.752L142.177 46.5581C142.272 46.4658 142.326 46.3397 142.328 46.2075C142.33 46.0752 142.279 45.9475 142.188 45.8524C142.096 45.7573 141.97 45.7025 141.837 45.7C141.705 45.6975 141.577 45.7475 141.482 45.8391L140.034 47.2391L140.054 45.2091C140.055 45.1435 140.042 45.0783 140.018 45.0174C139.993 44.9565 139.957 44.901 139.911 44.8541C139.818 44.7594 139.692 44.7055 139.559 44.7041C139.426 44.7028 139.299 44.7542 139.204 44.847C139.109 44.9399 139.055 45.0665 139.054 45.1991L139.033 47.3351L137.448 45.9081C137.349 45.8194 137.219 45.7736 137.087 45.7807C136.954 45.7878 136.83 45.8473 136.741 45.9461C136.652 46.0449 136.606 46.1749 136.613 46.3075C136.621 46.4401 136.68 46.5644 136.779 46.6531L138.204 47.9351H136.285C136.152 47.9351 136.025 47.9878 135.931 48.0816C135.838 48.1753 135.785 48.3025 135.785 48.4351C135.785 48.5677 135.838 48.6949 135.931 48.7887C136.025 48.8825 136.152 48.9351 136.285 48.9351H138.285L136.846 50.3271C136.774 50.3964 136.725 50.4855 136.704 50.5831C136.683 50.6806 136.692 50.7822 136.729 50.8747C136.767 50.9672 136.831 51.0463 136.914 51.102C136.997 51.1577 137.094 51.1873 137.194 51.1871C137.465 51.1871 137.419 51.1651 139.014 49.6201L138.994 51.6561C138.993 51.7887 139.044 51.9164 139.137 52.011C139.23 52.1056 139.357 52.1594 139.489 52.1606C139.622 52.1618 139.75 52.1103 139.844 52.0174C139.939 51.9244 139.993 51.7977 139.994 51.6651L140.015 49.5651C141.653 51.0381 141.647 51.1021 141.915 51.1021C142.016 51.1021 142.115 51.0714 142.198 51.0141C142.282 50.9567 142.346 50.8754 142.382 50.781C142.418 50.6865 142.425 50.5833 142.401 50.4849C142.377 50.3866 142.324 50.2977 142.249 50.2301L140.814 48.9391H142.743C142.876 48.9391 143.003 48.8864 143.096 48.7927C143.19 48.6989 143.243 48.5717 143.243 48.4391C143.243 48.3065 143.19 48.1793 143.096 48.0856C143.003 47.9918 142.876 47.9391 142.743 47.9391L142.741 47.9371Z"></path><path fill="#ffffff" d="M152.057 47.9371H150.068L151.493 46.5581C151.588 46.4658 151.642 46.3397 151.644 46.2074C151.646 46.0752 151.596 45.9475 151.504 45.8524C151.412 45.7573 151.286 45.7025 151.154 45.7C151.021 45.6975 150.894 45.7475 150.798 45.8391L149.337 47.2531L149.357 45.2111C149.358 45.1454 149.345 45.0803 149.321 45.0194C149.296 44.9584 149.26 44.903 149.214 44.8561C149.121 44.7614 148.995 44.7074 148.862 44.7061C148.729 44.7048 148.602 44.7562 148.507 44.849C148.412 44.9418 148.358 45.0685 148.357 45.2011L148.336 47.3261L146.763 45.9101C146.664 45.8215 146.534 45.7758 146.402 45.783C146.269 45.7902 146.145 45.8498 146.057 45.9486C145.968 46.0474 145.922 46.1773 145.93 46.3098C145.937 46.4423 145.996 46.5665 146.095 46.6551L147.52 47.9371H145.6C145.467 47.9371 145.34 47.9898 145.247 48.0835C145.153 48.1773 145.1 48.3045 145.1 48.4371C145.1 48.5697 145.153 48.6969 145.247 48.7906C145.34 48.8844 145.467 48.9371 145.6 48.9371H147.6L146.162 50.3291C146.115 50.375 146.077 50.4299 146.051 50.4904C146.025 50.5509 146.011 50.616 146.01 50.6819C146.01 50.7477 146.022 50.8132 146.046 50.8744C146.07 50.9356 146.107 50.9914 146.153 51.0386C146.199 51.0858 146.253 51.1235 146.314 51.1495C146.374 51.1755 146.439 51.1894 146.505 51.1903C146.571 51.1912 146.637 51.1791 146.698 51.1547C146.759 51.1303 146.815 51.094 146.862 51.0481L148.322 49.6351L148.302 51.6581C148.301 51.7907 148.352 51.9183 148.445 52.0129C148.538 52.1076 148.665 52.1614 148.798 52.1626C148.93 52.1638 149.058 52.1122 149.152 52.0193C149.247 51.9264 149.301 51.7997 149.302 51.6671L149.323 49.5511C150.997 51.0571 150.973 51.1001 151.237 51.1001C151.338 51.1001 151.437 51.0694 151.52 51.012C151.604 50.9547 151.668 50.8734 151.704 50.7789C151.74 50.6844 151.747 50.5812 151.723 50.4829C151.699 50.3845 151.646 50.2957 151.571 50.2281L150.136 48.9371H152.065C152.198 48.9371 152.325 48.8844 152.419 48.7906C152.512 48.6969 152.565 48.5697 152.565 48.4371C152.565 48.3045 152.512 48.1773 152.419 48.0835C152.325 47.9898 152.198 47.9371 152.065 47.9371H152.057Z"></path><path fill="#ffffff" d="M161.285 47.9372H159.31L160.734 46.5582C160.781 46.5122 160.819 46.4574 160.845 46.3969C160.871 46.3364 160.885 46.2713 160.886 46.2054C160.887 46.1395 160.875 46.0741 160.85 46.0129C160.826 45.9517 160.79 45.8959 160.744 45.8487C160.698 45.8015 160.643 45.7638 160.582 45.7378C160.522 45.7117 160.457 45.6979 160.391 45.697C160.325 45.6961 160.259 45.7082 160.198 45.7326C160.137 45.757 160.081 45.7932 160.034 45.8392L158.573 47.2532L158.593 45.2112C158.593 45.0786 158.54 44.9514 158.447 44.8577C158.353 44.7639 158.226 44.7112 158.093 44.7112C158.027 44.709 157.962 44.7203 157.9 44.7443C157.839 44.7683 157.783 44.8046 157.736 44.851C157.69 44.8973 157.653 44.9527 157.628 45.0138C157.603 45.0749 157.592 45.1404 157.593 45.2062L157.572 47.3422L155.987 45.9152C155.888 45.8265 155.758 45.7807 155.626 45.7878C155.493 45.7949 155.369 45.8544 155.28 45.9532C155.191 46.052 155.146 46.182 155.153 46.3146C155.16 46.4472 155.219 46.5715 155.318 46.6602L156.743 47.9422H154.83C154.697 47.9422 154.57 47.9949 154.477 48.0887C154.383 48.1824 154.33 48.3096 154.33 48.4422C154.33 48.5748 154.383 48.702 154.477 48.7958C154.57 48.8895 154.697 48.9422 154.83 48.9422H156.839L155.4 50.3292C155.353 50.3748 155.315 50.4293 155.288 50.4896C155.262 50.5499 155.248 50.6148 155.246 50.6806C155.245 50.7464 155.257 50.8118 155.281 50.873C155.305 50.9343 155.341 50.9902 155.387 51.0375C155.432 51.0848 155.487 51.1227 155.548 51.1488C155.608 51.175 155.673 51.189 155.739 51.19C155.804 51.1909 155.87 51.1789 155.931 51.1546C155.992 51.1303 156.048 51.0941 156.095 51.0482L157.555 49.6352L157.535 51.6582C157.534 51.7908 157.585 51.9185 157.678 52.0131C157.771 52.1077 157.898 52.1615 158.031 52.1627C158.163 52.1639 158.291 52.1124 158.385 52.0194C158.48 51.9265 158.534 51.7998 158.535 51.6672L158.556 49.5672C160.194 51.0402 160.187 51.1042 160.456 51.1042C160.557 51.1042 160.656 51.0735 160.739 51.0161C160.823 50.9588 160.887 50.8775 160.923 50.7831C160.959 50.6886 160.966 50.5853 160.942 50.487C160.918 50.3886 160.865 50.2998 160.79 50.2322L159.355 48.9412H161.284C161.417 48.9412 161.544 48.8885 161.638 48.7948C161.731 48.701 161.784 48.5738 161.784 48.4412C161.784 48.3086 161.731 48.1814 161.638 48.0877C161.544 47.9939 161.417 47.9412 161.284 47.9412L161.285 47.9372Z"></path><path fill="#0e2238" d="M44.8481 98.7734C44.7607 98.7734 44.6749 98.7505 44.5992 98.7069C44.5235 98.6634 44.4605 98.6008 44.4165 98.5253C44.3725 98.4498 44.349 98.3642 44.3484 98.2768C44.3478 98.1895 44.3701 98.1035 44.4131 98.0274C44.963 97.0996 45.3953 96.107 45.7001 95.0724C45.7074 95.0059 45.7279 94.9416 45.7606 94.8832C45.7932 94.8248 45.8372 94.7735 45.8899 94.7324C45.9427 94.6913 46.0032 94.6612 46.0678 94.6439C46.1325 94.6267 46.1999 94.6225 46.2661 94.6317C46.3324 94.641 46.3961 94.6634 46.4535 94.6977C46.511 94.732 46.5609 94.7775 46.6005 94.8315C46.64 94.8854 46.6683 94.9468 46.6837 95.0119C46.6991 95.077 46.7013 95.1445 46.6901 95.2104C46.3674 96.3707 45.893 97.4833 45.2791 98.5194C45.2359 98.5959 45.1733 98.6596 45.0976 98.7042C45.022 98.7488 44.9359 98.7727 44.8481 98.7734V98.7734Z"></path><path fill="#0e2238" d="M47.8291 99.8878C47.7503 99.8878 47.6727 99.8692 47.6024 99.8335C47.5322 99.7978 47.4715 99.746 47.4251 99.6824C47.3787 99.6187 47.348 99.545 47.3354 99.4672C47.3229 99.3895 47.329 99.3098 47.3531 99.2348C47.6661 98.2648 48.0301 97.1298 48.2331 96.4908C48.2746 96.3652 48.3637 96.2608 48.4813 96.2C48.5989 96.1393 48.7356 96.127 48.8621 96.1658C48.9247 96.1858 48.9827 96.218 49.0329 96.2604C49.0831 96.3029 49.1244 96.3548 49.1545 96.4132C49.1846 96.4716 49.2028 96.5354 49.2083 96.6009C49.2137 96.6664 49.2062 96.7323 49.1861 96.7948C48.9861 97.4348 48.6181 98.5718 48.3041 99.5408C48.2717 99.6415 48.2084 99.7292 48.123 99.7916C48.0377 99.8539 47.9348 99.8876 47.8291 99.8878V99.8878Z"></path><path fill="#0e2238" d="M50.5879 101.569C50.4694 101.569 50.3548 101.527 50.2645 101.45C50.1742 101.373 50.1141 101.267 50.0949 101.15C49.9791 100.183 49.9456 99.2071 49.9949 98.2341C49.995 98.1675 50.0091 98.1016 50.0361 98.0408C50.0631 97.9799 50.1026 97.9254 50.1519 97.8807C50.2012 97.836 50.2594 97.802 50.3226 97.7811C50.3858 97.7602 50.4526 97.7526 50.5189 97.7591C50.5845 97.7623 50.6488 97.7784 50.7082 97.8064C50.7676 97.8345 50.8209 97.874 50.865 97.9227C50.9091 97.9713 50.9432 98.0282 50.9653 98.09C50.9874 98.1519 50.9972 98.2175 50.9939 98.283C50.9496 99.184 50.9798 100.087 51.0839 100.983C51.0965 101.055 51.0931 101.129 51.074 101.2C51.0548 101.271 51.0203 101.336 50.973 101.392C50.9257 101.448 50.8667 101.493 50.8001 101.523C50.7336 101.554 50.6612 101.57 50.5879 101.569Z"></path><path fill="#0e2238" d="M56.079 101.569C55.9548 101.569 55.8348 101.524 55.7423 101.441C55.6499 101.358 55.5917 101.243 55.579 101.12C55.5039 100.304 55.4872 99.485 55.529 98.6675C55.5355 98.5349 55.5944 98.4103 55.6928 98.3211C55.7911 98.232 55.9209 98.1855 56.0535 98.192C56.1861 98.1985 56.3107 98.2574 56.3999 98.3558C56.4891 98.4541 56.5355 98.5839 56.529 98.7165C56.4895 99.4833 56.5049 100.252 56.575 101.017C56.5823 101.086 56.5749 101.156 56.5533 101.223C56.5317 101.289 56.4964 101.351 56.4496 101.403C56.4029 101.455 56.3458 101.496 56.2819 101.525C56.2181 101.553 56.1489 101.568 56.079 101.569Z"></path><path fill="#0e2238" d="M60.5099 99.6338C59.9099 98.4998 60.5239 95.5998 60.6539 95.0338C60.6677 94.9692 60.6943 94.9081 60.7322 94.8539C60.77 94.7998 60.8184 94.7539 60.8743 94.7188C60.9303 94.6837 60.9927 94.6603 61.0579 94.6498C61.1231 94.6393 61.1898 94.6421 61.2539 94.6578C61.3181 94.6725 61.3787 94.6996 61.4323 94.7377C61.4859 94.7758 61.5315 94.8241 61.5664 94.8798C61.6014 94.9355 61.625 94.9976 61.6358 95.0625C61.6467 95.1274 61.6447 95.1938 61.6299 95.2578C61.3409 96.5248 61.0759 98.5758 61.3929 99.1688C61.4448 99.2848 61.4506 99.4162 61.4091 99.5363C61.3676 99.6565 61.282 99.7563 61.1695 99.8155C61.0571 99.8747 60.9263 99.8889 60.8038 99.8551C60.6813 99.8214 60.5762 99.7423 60.5099 99.6338V99.6338Z"></path><path fill="#0e2238" d="M63.283 98.1778C62.392 97.5908 62.358 95.2898 62.383 94.3288C62.3918 94.198 62.4496 94.0753 62.5449 93.9852C62.6402 93.8951 62.7659 93.8442 62.897 93.8428C62.9627 93.8446 63.0273 93.8593 63.0873 93.8861C63.1473 93.913 63.2014 93.9513 63.2465 93.9991C63.2917 94.0468 63.3269 94.103 63.3504 94.1643C63.3738 94.2257 63.3849 94.2911 63.383 94.3568C63.345 95.7358 63.56 97.1568 63.833 97.3438C63.9373 97.4193 64.0084 97.5322 64.0315 97.659C64.0546 97.7857 64.0279 97.9164 63.957 98.0239C63.8861 98.1314 63.7764 98.2074 63.6509 98.2361C63.5253 98.2648 63.3935 98.2439 63.283 98.1778V98.1778Z"></path><path fill="#0e2238" d="M67.006 76.9132C66.9599 76.843 66.9 76.7828 66.83 76.7363C66.76 76.6899 66.6813 76.6581 66.5986 76.643C66.516 76.6278 66.4311 76.6296 66.3492 76.6482C66.2673 76.6668 66.19 76.7019 66.122 76.7512C65.508 77.1742 65.191 79.0682 66.122 79.2422C67.03 79.4112 67.442 77.5422 67.006 76.9132Z"></path><path fill="#0e2238" d="M76.3781 75.2723C75.4551 75.0963 75.0661 76.9853 75.4931 77.6003C75.8421 78.1053 76.6741 78.0203 76.9161 76.7123C77.0611 75.9123 76.8551 75.3613 76.3781 75.2723Z"></path></svg>