<svg xmlns="http://www.w3.org/2000/svg" fill="none" viewBox="0 0 200 200" height="700" width="700"><path fill="#ffffff" d="M119.884 63.0626C119.328 60.5408 118.996 57.9748 118.892 55.3946L119.447 55.2856C119.359 55.0255 119.295 54.7577 119.257 54.4856C118.572 54.9556 115.866 53.6246 115.448 50.7356C115.387 49.9512 115.497 49.163 115.769 48.4248C116.041 47.6866 116.469 47.0159 117.024 46.4586C117.017 46.3426 116.732 46.3426 116.666 46.3346C116.04 46.2779 115.457 45.9887 115.033 45.524C114.609 45.0593 114.374 44.4527 114.375 43.8236C114.358 42.5693 114.694 41.3355 115.346 40.2636C115.998 39.1306 116.402 38.8236 116.28 38.7166C116.158 38.6096 115.839 38.7806 114.726 38.7986C113.677 38.8996 112.623 38.6768 111.705 38.1603C110.786 37.6438 110.048 36.8583 109.59 35.9096C109.407 35.5966 109.137 34.8156 108.7 34.7936C108.263 34.7716 107.8 35.2456 107.467 35.4496C107.084 35.76 106.636 35.9808 106.156 36.0957C105.676 36.2106 105.177 36.2167 104.694 36.1136C104.32 35.9384 103.993 35.6772 103.739 35.3513C103.486 35.0254 103.313 34.6441 103.235 34.2386C103.17 34.0126 103.148 33.1666 102.907 33.0496C102.666 32.9326 101.951 33.3346 101.689 33.3776C101.316 33.4417 100.934 33.4325 100.565 33.3506L100.514 33.6786C99.5761 34.6296 98.7799 35.7107 98.1501 36.8886C96.1681 41.9286 98.0841 44.5686 96.8881 49.8746C96.6416 51.2672 96.6797 52.6953 97.0001 54.0728C97.3204 55.4503 97.9164 56.7486 98.7521 57.8896C99.7228 59.1924 101.088 60.1476 102.644 60.6136L102.637 60.6436C102.406 60.6186 102.859 62.5756 104.155 64.2906C105.869 66.6256 108.036 68.5666 111.093 68.4056C113.916 68.2666 116.419 66.5896 118.556 64.8746C118.98 64.5316 119.563 63.8466 120.183 63.2916L119.884 63.0626Z"></path><path fill="#def6f8" d="M190.134 171.285L177.49 176.115L177.432 176.015C188.337 169.13 187.52 169.591 187.588 169.704L190.134 171.285Z"></path><path fill="#00bac7" d="M175.725 165.398L165.234 170.191L173.179 176.144L184.523 168.914L175.725 165.398Z"></path><path fill="#def6f8" d="M171.79 178.295L163.519 181.455L140.268 159.233L147.17 158.656L171.79 178.295Z"></path><path fill="#ffffff" d="M167.094 152.938L144.025 156.147C144.131 156.231 171.182 177.808 172.69 179.018L195 164.929L167.094 152.938ZM165.234 170.191L175.725 165.398L184.525 168.914L173.181 176.145L165.234 170.191Z"></path><path fill="#ffffff" d="M156 96.929C155.847 95.565 155.5 93.639 154.168 92.895C153.373 92.449 153.045 93.121 153.052 93.836C153.169 95.2154 153.463 96.574 153.928 97.878C153.964 98.03 154.321 100.078 154.307 100.073C154.046 99.981 153.884 98.943 153.825 98.731C153.57 97.885 152.454 94.011 151.075 94.346C149.335 94.764 151.975 100.676 151.695 100.774C151.571 100.818 150.965 99.483 150.914 99.38C150.342 98.1451 149.629 96.9801 148.791 95.908C148.58 95.652 148.011 95.032 147.624 95.353C146.457 96.331 148.499 99.953 149.024 100.876C149.148 101.095 149.746 101.736 149.731 101.992C149.712 102.518 146.807 97.199 145.361 97.972C144.661 98.352 145.318 100.081 145.493 100.577C145.94 101.554 146.261 102.583 146.448 103.641C146.548 104.991 146.31 106.275 146.441 107.53L146.258 107.551C144.625 107.754 143.007 108.064 141.414 108.478C140.955 108.559 139.882 108.923 139.459 108.602C139.284 108.471 139.291 108.128 139.393 107.683C138.812 107.527 138.214 107.439 137.613 107.42C136.402 107.252 135.191 107.099 133.98 106.92L134.038 106.504C133.367 102.696 133.666 98.537 133.812 94.704C134.082 88.031 134.227 89.068 134.133 88.875C133.2 89.328 126.303 93.369 124.379 94.558L124.547 94.836C124.364 99.643 124.647 106.428 125.94 111.09C126.852 114.359 128.44 116.92 132.025 117.072C134.235 117.172 136.49 116.489 138.642 116.095C142.071 115.46 145.828 115.037 149.075 113.709C151.55 112.525 152.596 110.971 154.123 108.843C154.262 108.661 154.612 108.15 154.656 108.077C154.649 108.091 154.639 108.103 154.627 108.113C155.793 104.507 156.259 100.71 156 96.929V96.929Z"></path><path fill="#ffffff" d="M153.823 98.7306C153.578 97.8816 152.452 94.0116 151.073 94.3456C149.716 94.6756 151.084 98.5736 151.314 99.2996C151.341 99.3876 151.814 100.737 151.693 100.774C151.572 100.811 150.962 99.4826 150.912 99.3796C150.425 98.3686 148.48 94.6376 147.622 95.3526C146.453 96.3276 148.498 99.9526 149.022 100.876C149.146 101.095 149.742 101.737 149.729 101.992C149.721 102.175 149.565 101.864 148.672 100.701C148.202 100.09 146.408 97.4076 145.359 97.9716C144.659 98.3496 145.315 100.081 145.491 100.577C145.938 101.553 146.259 102.583 146.446 103.641C146.546 104.991 146.308 106.275 146.439 107.53L146.256 107.551C144.622 107.75 143.004 108.06 141.412 108.478C140.952 108.556 139.881 108.922 139.457 108.602C139.282 108.47 139.289 108.128 139.391 107.683C139.726 106.614 140.13 105.568 140.602 104.553C143.465 96.0956 143.371 88.5886 141.784 79.8426C141.52 78.3846 140.515 74.3426 142.507 73.9986C146.986 73.2266 163.3 75.0046 164.107 76.0046C165.538 77.7906 162.35 94.7706 161.466 99.2336C161.249 100.329 161.135 102.886 160.166 103.663C159.025 104.578 156.978 104.648 155.592 104.757L155.475 104.735C156.125 101.668 156.912 94.4256 154.169 92.8946C153.374 92.4496 153.046 93.1206 153.053 93.8356C153.17 95.215 153.464 96.5735 153.929 97.8776C153.965 98.0306 154.323 100.078 154.308 100.073C154.042 99.9856 153.884 98.9416 153.823 98.7306Z"></path><path fill="#00bac7" d="M154.276 41.1761L147.141 30.0761C148.066 29.3233 148.826 28.3875 149.373 27.3273C149.92 26.2671 150.242 25.1054 150.318 23.915C150.395 22.7246 150.225 21.5312 149.819 20.4096C149.413 19.288 148.779 18.2624 147.958 17.3971C147.157 16.6363 146.213 16.0413 145.182 15.6462C144.15 15.2512 143.05 15.0639 141.946 15.0951C140.841 15.1264 139.754 15.3755 138.746 15.8282C137.738 16.2809 136.83 16.9282 136.073 17.7331C132.628 21.3011 132.76 26.8611 136.007 29.8811C137.249 31.0327 138.813 31.7778 140.49 32.0169C142.167 32.256 143.877 31.9776 145.391 31.2191L152.561 42.3271L154.276 41.1761ZM137.693 27.9561C136.583 26.7937 135.979 25.2386 136.014 23.6318C136.049 22.025 136.719 20.4975 137.878 19.3841C138.409 18.8234 139.047 18.3739 139.754 18.0619C140.46 17.7499 141.222 17.5815 141.994 17.5665C142.767 17.5515 143.534 17.6903 144.253 17.9746C144.971 18.259 145.625 18.6834 146.178 19.2231C147.274 20.3718 147.877 21.9043 147.856 23.492C147.835 25.0797 147.194 26.5961 146.068 27.7161C145.541 28.2935 144.903 28.7591 144.193 29.0849C143.482 29.4107 142.713 29.5901 141.931 29.6125C141.15 29.6349 140.372 29.4998 139.644 29.2152C138.916 28.9306 138.252 28.5024 137.693 27.9561V27.9561Z"></path><path fill="#ffffff" d="M146.178 19.2226C147.274 20.3713 147.877 21.9039 147.856 23.4915C147.835 25.0792 147.194 26.5956 146.068 27.7156C145.002 28.8475 143.533 29.5143 141.978 29.5717C140.424 29.6292 138.91 29.0727 137.763 28.0226C136.636 26.8812 136.007 25.3394 136.014 23.735C136.021 22.1307 136.664 20.5947 137.802 19.4636C138.335 18.896 138.975 18.4394 139.685 18.1199C140.395 17.8004 141.162 17.6244 141.94 17.6021C142.718 17.5797 143.493 17.7113 144.221 17.9894C144.948 18.2675 145.613 18.6866 146.178 19.2226Z"></path><path fill="#0e2238" d="M100.565 33.3476L100.514 33.6756C99.5761 34.6266 98.7799 35.7077 98.1501 36.8856C97.5088 38.5158 97.1942 40.2561 97.2241 42.0076C96.3589 42.2588 95.6108 42.8086 95.1126 43.5592C94.6145 44.3099 94.3985 45.2128 94.5031 46.1076C93.7535 46.0618 93.0153 45.9016 92.3141 45.6326C91.6338 45.4259 91.0311 45.0201 90.5837 44.4675C90.1363 43.915 89.8647 43.241 89.8041 42.5326C89.8273 41.8207 90.002 41.122 90.3166 40.483C90.6311 39.8439 91.0782 39.2793 91.6281 38.8266C92.0951 38.3886 93.3171 37.7606 93.3721 37.0386C93.4271 36.3166 92.2391 35.3696 91.8911 34.7986C89.0711 30.1746 92.5571 25.3736 98.6761 25.7886C99.6611 25.8556 100.989 26.4186 101.959 26.0446C102.842 25.7036 103.318 24.4076 103.812 23.6806C104.622 22.457 105.788 21.5119 107.153 20.9736C108.133 20.7059 109.168 20.7178 110.142 21.008C111.116 21.2982 111.989 21.8551 112.662 22.6156C113.262 23.2086 113.932 24.5286 114.836 24.6796C115.719 24.8276 116.711 24.1206 117.477 23.7976C119.003 22.9927 120.781 22.8096 122.438 23.2866C123.196 23.5893 123.86 24.0892 124.36 24.7344C124.86 25.3797 125.179 26.1469 125.283 26.9566C125.389 27.6876 125.172 28.8476 125.706 29.4566C126.179 29.9906 127.23 30.0416 127.858 30.3396C130.71 31.6876 131.782 34.9326 130.076 38.5836C129.809 39.1546 128.837 40.2026 129.04 40.8836C129.252 41.5906 130.432 42.1026 130.915 42.6266C131.627 43.3842 132.077 44.35 132.199 45.3823C132.321 46.4145 132.109 47.4588 131.594 48.3616C130.671 49.9134 129.328 51.1728 127.72 51.9946C127.136 52.3016 125.349 52.7536 125.086 53.4396C124.955 53.7816 125.686 54.3726 125.852 54.6286C126.134 54.999 126.295 55.4475 126.313 55.9128C126.331 56.3781 126.205 56.8376 125.952 57.2286C123.822 60.4966 120.375 58.1056 119.445 55.2886C119.358 55.0283 119.294 54.7605 119.255 54.4886C118.883 54.7436 118.2 54.4456 117.869 54.2696C117.317 53.9704 116.83 53.5632 116.438 53.0722C116.046 52.5812 115.757 52.0164 115.587 51.4114C115.418 50.8064 115.371 50.1735 115.451 49.5503C115.531 48.9271 115.735 48.3263 116.052 47.7836C116.191 47.5066 117.036 46.7996 117.022 46.4616C117.022 46.3456 116.73 46.3456 116.664 46.3376C116.037 46.2811 115.455 45.992 115.031 45.5272C114.607 45.0625 114.372 44.4557 114.373 43.8266C114.362 42.573 114.698 41.3408 115.344 40.2666C116.044 39.0756 116.398 38.8186 116.278 38.7196C116.158 38.6206 115.846 38.7876 114.724 38.8016C113.675 38.9026 112.621 38.6798 111.703 38.1633C110.784 37.6468 110.046 36.8613 109.588 35.9126C109.405 35.5986 109.135 34.8186 108.698 34.7966C108.261 34.7746 107.798 35.2476 107.465 35.4526C107.081 35.7621 106.633 35.9823 106.153 36.0971C105.674 36.212 105.175 36.2186 104.692 36.1166C104.318 35.9415 103.991 35.6803 103.737 35.3544C103.484 35.0285 103.311 34.6471 103.233 34.2416C103.168 34.0156 103.146 33.1696 102.905 33.0526C102.664 32.9356 101.949 33.3366 101.687 33.3806C101.314 33.4425 100.933 33.4313 100.565 33.3476V33.3476Z"></path><path fill="#ffffff" d="M103.163 155.899H130.178L150.278 173.678L121.9 180.339C105.354 158.813 109.6 164.361 103.163 155.899ZM107.095 157.817L115.405 167.9L136.65 164.172L129.75 157.817H107.095Z"></path><path fill="#ffffff" d="M119.855 87.0998C120.548 87.3998 119.774 95.5398 119.242 96.0998C118.336 97.0468 114.981 98.7658 114.383 98.6678C113.39 98.5048 109.845 96.1678 109.546 95.4678C109.225 94.7158 109.67 88.3838 109.758 86.4578C110.086 86.4528 118.36 86.4508 119.855 87.0998Z"></path><path fill="#def6f8" d="M136.65 164.172L129.75 157.817H107.1L115.41 167.9C115.41 167.9 117.9 167.46 136.65 164.172Z"></path><path fill="#def6f8" d="M109.955 164.8L105.293 165L108.328 171.938C115.248 171.09 114.706 171.185 114.806 171.113L109.955 164.8Z"></path><path fill="#def6f8" d="M102.2 162.676L107.81 162.384L107.992 162.246L109.955 164.799L105.293 164.999L108.328 171.937C115.242 171.089 114.706 171.184 114.806 171.112L121.898 180.334L134.527 177.372C135.134 178.483 135.814 179.552 136.562 180.572L111.086 184.526C102.624 163.73 104.6 168.587 102.2 162.676Z"></path><path fill="#def6f8" d="M151.934 136.763C151.416 139.137 150.628 141.783 148.782 143.463C146.032 145.973 141.719 146.563 138.232 147.337C131.424 148.854 124.291 150.937 117.323 151.481C113.165 151.805 109.13 149.963 104.95 149.963C101.477 149.963 98.0261 150.477 94.5751 150.78C92.5701 150.957 89.7601 151.367 88.0171 150.087C86.3671 148.876 84.6101 145.717 86.1931 144.039L86.1051 143.951C83.0191 143.451 79.8351 143.167 77.0881 142.207C73.1331 140.825 69.8691 138.646 65.9991 136.881C62.3991 135.24 58.3461 134.51 58.3821 129.789C58.4261 124.143 61.2491 115.469 67.7641 114.717C71.4551 114.29 78.5911 116.217 82.1641 118.379L82.2581 118.279C83.1121 119.079 84.4491 118.728 90.7941 120.3C99.1381 122.368 106.777 124.195 115.194 120.986C116.91 120.332 119.856 119.512 121.155 118.086L121.228 118.159C122.307 118.144 122.79 120.003 123.351 120.734C123.912 121.465 125.072 121.55 125.926 121.624C132.114 122.159 151.826 119.213 152.409 131.663C152.474 133.376 152.315 135.091 151.934 136.763V136.763Z"></path><path fill="#00bac7" d="M109.758 86.4527C109.67 88.3787 109.225 94.7107 109.546 95.4627C109.846 96.1627 113.39 98.4947 114.383 98.6627C114.983 98.7627 118.336 97.0417 119.242 96.0947C119.774 95.5397 120.548 87.3947 119.855 87.0947C118.36 86.4507 110.086 86.4527 109.758 86.4527ZM86.7111 90.4797C84.6831 87.8127 84.7241 87.0357 79.6701 80.4037C78.8421 79.3177 77.1701 77.9757 76.9281 76.5597C76.7181 75.3407 77.6781 73.9177 78.1091 72.8457C79.1371 70.2917 79.8631 67.5867 81.0351 65.0907C83.4771 59.8907 88.8211 59.5097 93.8681 58.6267C95.1091 58.4097 96.3461 58.1717 97.5961 58.0067C97.7201 57.9907 98.6551 57.7497 98.7521 57.8867C99.7122 59.2004 101.081 60.1584 102.644 60.6107L102.637 60.6407C102.499 60.6257 102.737 61.5737 102.769 61.6547C103.094 62.598 103.561 63.486 104.155 64.2877C105.885 66.6107 108.036 68.5577 111.093 68.4027C113.916 68.2597 116.423 66.5917 118.556 64.8717C118.98 64.5297 119.563 63.8427 120.183 63.2887C120.567 62.878 121.061 62.5867 121.606 62.4497C122.393 62.5294 123.146 62.8082 123.795 63.2597C125.431 64.0597 126.995 64.9957 128.573 65.9147C130.067 66.65 131.466 67.564 132.739 68.6367C134.862 70.6937 134.665 73.9707 134.972 76.6977C135.211 78.7631 135.609 80.8071 136.161 82.8117C136.472 83.9557 137.129 85.4887 136.847 86.7007C136.619 87.6777 135.17 88.3737 134.132 88.8817C133.452 89.2147 125.463 93.7957 122.19 95.9657C121.501 100.914 121.233 105.913 121.39 110.907C121.443 112.469 122.375 116.729 121.172 118.064C121.163 118.072 121.156 118.082 121.15 118.094C119.85 119.516 116.905 120.336 115.189 120.994C104.36 125.121 95.0891 120.863 84.6061 119.024C83.7684 118.995 82.9541 118.74 82.2491 118.287C80.3681 116.487 82.3431 111.436 82.9131 109.423C84.8234 103.255 86.0961 96.9073 86.7111 90.4797V90.4797Z"></path><path fill="#ffffff" d="M103.768 56.6279C102.951 56.7279 101.668 56.7009 101.353 54.7019C102.052 54.5836 102.77 54.6827 103.411 54.9859C104.09 55.3179 104.964 56.4859 103.768 56.6279Z"></path><path fill="#ffffff" d="M101.492 159.1C99.6851 166.4 99.8571 165.8 99.7851 165.9C87.9121 158.633 88.7221 159.2 88.7681 159.1H101.492Z"></path><path fill="#ffffff" d="M98.6251 170.5C98.7001 170.6 98.8251 169.9 95.6481 182.761L82.1661 182L82.1591 181.986L98.6251 170.5Z"></path><path fill="#0e2238" d="M97.406 45.3639C97.406 45.4749 97.47 45.4469 97.231 45.4639C96.4155 45.9682 95.4579 46.1936 94.503 46.1059C94.3966 45.2108 94.6118 44.307 95.1103 43.556C95.6087 42.8049 96.3579 42.2555 97.224 42.0059C97.224 43.1169 97.3 44.2249 97.406 45.3639Z"></path><path fill="#ffffff" d="M86.0251 149.999C81.0125 149.765 75.991 149.799 70.9821 150.099C68.9241 150.175 66.4421 150.269 64.7371 148.899C64.4417 148.708 64.1911 148.456 64.0024 148.159C63.8138 147.862 63.6915 147.528 63.644 147.179C63.5966 146.831 63.625 146.476 63.7273 146.139C63.8297 145.803 64.0036 145.492 64.2371 145.229C65.1201 144.258 66.4931 144.086 67.6231 143.551C69.5141 142.657 70.9351 141.151 73.0941 140.83L73.2181 140.566C78.3491 143.144 80.7561 143.087 86.1021 143.959L86.1901 144.047C84.6071 145.725 86.3431 148.913 88.0141 150.095L87.3941 150.11C86.9447 150.013 86.4843 149.975 86.0251 149.999V149.999Z"></path><path fill="#00bac7" d="M81.414 156.724C81.414 156.724 71.52 161.224 71.191 161.371C71.191 161.477 79.352 168.318 80.816 169.557L91.307 163.574L81.414 156.724Z"></path><path fill="#ffffff" d="M74.425 181.573L61.118 180.829C66.402 172.874 65.843 173.692 66.018 173.504L74.425 181.573Z"></path><path fill="#00bac7" d="M69.574 38.6997C69.4648 38.5389 69.3764 38.3648 69.311 38.1817C69.289 38.1387 69.165 37.5117 69.946 37.2337C70.727 36.9557 71.393 38.4337 70.77 38.9407C70.6803 39.0162 70.5747 39.0704 70.4611 39.0994C70.3475 39.1285 70.2289 39.1315 70.114 39.1083C69.999 39.0852 69.8908 39.0364 69.7973 38.9657C69.7039 38.8949 69.6275 38.804 69.574 38.6997V38.6997Z"></path><path fill="#00bac7" d="M66.706 33.2597C66.983 30.9017 72.112 32.6897 68.206 26.4967C67.9797 26.1244 67.6966 25.7897 67.367 25.5047C66.589 24.8507 64.887 24.8257 65.167 26.3437C65.403 27.6347 67.533 29.1577 65.94 29.8677C64.571 30.4767 63.57 28.8677 63.066 27.4677C63.021 27.3447 62.905 27.0307 62.905 27.0087C62.905 27.0087 62.913 27.0087 62.92 27.0307C62.351 21.8507 68.367 21.8447 70.22 24.8127C71.662 27.1187 72.865 29.5127 71.095 31.8307C70.533 32.5667 69.71 32.7797 69.308 33.5967C68.959 34.3047 69.973 35.3707 69.208 35.9307C67.831 36.9527 66.573 34.3997 66.706 33.2597Z"></path><path fill="#00bac7" d="M66.56 44.0394C66.479 43.9719 66.4121 43.8891 66.3632 43.7957C66.3143 43.7023 66.2844 43.6002 66.2751 43.4952C66.2658 43.3902 66.2773 43.2843 66.3091 43.1838C66.3408 43.0833 66.3921 42.99 66.46 42.9094C66.912 42.1944 68.36 42.9504 68.181 43.7334C68.1545 43.8472 68.1034 43.9539 68.0312 44.0459C67.959 44.1378 67.8676 44.2128 67.7633 44.2656C67.659 44.3185 67.5444 44.3478 67.4276 44.3515C67.3107 44.3553 67.1945 44.3334 67.087 44.2874C66.9021 44.2259 66.7252 44.1427 66.56 44.0394V44.0394Z"></path><path fill="#def6f8" d="M64.649 158.854L56.704 161.823L68.333 172.723L75.665 168.331L64.649 158.854Z"></path><path fill="#00bac7" d="M63.722 40.4521C63.555 39.3521 64.022 39.0431 64.029 37.9521C64.038 35.0341 61.547 33.8981 58.988 32.9841C55.695 31.8081 50.977 35.5451 54.632 39.2511C54.493 39.1921 54.894 39.4211 55.026 39.5061C56.251 40.3061 58.084 40.9211 58.762 39.6061C58.8633 39.4611 58.9158 39.2875 58.9119 39.1105C58.9079 38.9336 58.8477 38.7626 58.74 38.6221C58.017 37.9291 56.761 38.0221 55.975 37.3221C54.813 36.2961 56.175 35.2641 57.186 35.2941C57.6197 35.3128 58.0478 35.3988 58.455 35.5491C65.368 37.9991 60.223 39.7761 61.468 41.7991C62.068 42.7711 64.64 43.9991 65.094 42.3321C65.341 41.4301 63.89 41.2181 63.722 40.4521Z"></path><path fill="#ffffff" d="M43.12 152.491L17.074 172.554L51.035 181.134L61.862 169.512L58 165.806L57.9 165.906L43.55 162.574L52.487 155.534C65.387 156.88 64.433 156.747 64.467 156.847L70 154.673C69.952 154.573 71.929 154.724 43.12 152.491ZM58.2 167.829L50.175 176.604L24.6 170.563L34.311 162.939C57.461 167.667 58.082 167.805 58.2 167.829Z"></path><path fill="#ffffff" d="M76.9571 151.938L53.2571 161.255C68.8381 176.206 65.0141 172.531 77.9311 184.936L102.685 167.674C100.034 166.054 112.237 173.52 76.9571 151.938ZM68.3331 172.723L56.7001 161.822L64.6451 158.854L75.6611 168.33L68.3331 172.723ZM71.1911 161.37C71.5201 161.224 81.4141 156.723 81.4141 156.723L91.3071 163.574L80.8161 169.557C79.0221 168.038 71.1911 161.471 71.1911 161.37V161.37Z"></path><path fill="#ffffff" d="M65.225 98.0598C64.948 98.1018 64.48 98.2218 63.949 98.3428C60.686 99.0878 61.076 98.3338 61.184 97.0808C61.1241 95.7243 60.7547 94.3995 60.104 93.2078L59.878 93.0608C60.6209 91.7098 61.2929 90.3209 61.891 88.8998C62.5235 87.8849 63.2569 86.9364 64.08 86.0688C64.51 85.5438 66.022 83.9378 65.524 83.1508C65.248 82.7128 64.524 83.0338 64.197 83.2018C63.0551 83.8254 62.0244 84.6341 61.147 85.5948C61.033 85.7138 60.301 86.6548 60.133 86.6378C59.943 86.6188 60.36 86.3168 60.483 86.1638C61.6951 84.7406 62.8036 83.2324 63.8 81.6508C63.982 81.3408 64.419 80.6098 64.041 80.2788C63.594 79.8878 62.584 80.4728 62.188 80.6948C60.5451 81.7604 59.1232 83.1327 58 84.7368C58.065 84.6278 58.313 84.3058 58.408 84.1678C60.508 81.1068 62.951 78.3518 62.092 77.8428C61.676 77.5948 60.969 78.0758 60.648 78.2948C59.3957 79.1677 58.2691 80.2084 57.3 81.3878C57.2 81.5068 56.359 82.7238 56.191 82.6648C56.023 82.6058 57.036 81.0518 57.096 80.9648C58.462 78.9848 61.242 76.3028 60.167 75.6178C59.387 75.1178 58.026 76.3178 57.548 76.7988C55.8629 78.5207 54.6579 80.6537 54.053 82.9858L53.835 82.9208C52.569 79.8558 49.352 75.7498 47.086 73.3058C46.686 72.8698 45.009 71.6208 45.313 70.8758C45.813 69.6518 49.705 69.3638 50.756 69.1178C54.803 68.1698 58.869 67.2608 62.976 66.5868C64.61 66.3178 66.876 65.7378 68.382 66.7178C70.182 67.8898 71.017 70.8748 71.862 72.7178C74.3025 77.8799 76.3156 83.2335 77.881 88.7248C78.29 90.3078 80.142 94.5518 79.063 96.1248C78.45 97.0248 76.263 96.8898 75.328 96.9778C72.2 97.2818 68.328 97.5928 65.225 98.0598Z"></path><path fill="#ffffff" d="M79 79.6236L78.891 79.7186C78.913 79.7186 78.847 79.8636 78.832 79.9186C78.381 81.7038 77.7525 83.4394 76.956 85.0996L76.825 85.1436C77.212 86.3246 77.562 87.5146 77.876 88.7256C78.284 90.3076 80.135 94.5526 79.058 96.1256C78.446 97.0256 76.258 96.8916 75.323 96.9786C73.491 97.1536 71.653 97.3136 69.823 97.4966C69.4746 98.0104 69.0945 98.502 68.685 98.9686C68.596 99.0686 68.35 99.4606 68.196 99.4796L68.153 99.5796C66.7918 99.0731 65.391 98.6801 63.965 98.4046L63.951 98.3316C62.966 98.5656 61.784 98.7916 61.302 98.4486C60.989 98.2296 61.149 97.4936 61.186 97.0696L61.062 97.0616C60.4233 96.6657 59.8417 96.1846 59.333 95.6316C59.0087 95.3213 58.7221 94.9739 58.479 94.5966C60.426 93.0096 60.787 91.0336 61.893 88.8846C62.5255 87.8697 63.2589 86.9212 64.082 86.0536C64.513 85.5286 66.023 83.9236 65.526 83.1356C65.249 82.6976 64.526 83.0186 64.199 83.1866C63.0568 83.8099 62.0262 84.6185 61.149 85.5796C61.035 85.6986 60.303 86.6376 60.135 86.6226C59.945 86.6006 60.361 86.3016 60.485 86.1486C61.6969 84.7311 62.8048 83.2278 63.8 81.6506C63.982 81.3406 64.421 80.6076 64.041 80.2786C63.596 79.8846 62.582 80.4686 62.188 80.6946C60.5399 81.7535 59.1167 83.127 58 84.7366C58.019 84.7046 59.276 82.9436 59.3 82.9126C60.154 81.7236 61.073 80.5706 61.817 79.3126C61.992 79.0206 62.576 78.1226 62.094 77.8386C61.679 77.5906 60.971 78.0716 60.65 78.2906C59.3967 79.1645 58.2695 80.2066 57.3 81.3876C57.2 81.5066 56.351 82.7226 56.191 82.6646C56.031 82.6066 57.036 81.0516 57.096 80.9646C58.457 78.9876 61.242 76.3066 60.167 75.6176C59.386 75.1176 58.026 76.3176 57.548 76.7986C55.8826 78.5352 54.6807 80.6628 54.053 82.9856C53.01 86.5506 53.298 86.1436 53.075 91.6856C52.998 92.9355 53.0766 94.1901 53.309 95.4206C54.263 99.9306 57.854 103.753 61.699 106.066C63.683 107.266 65.536 108.524 67.966 108.16C70.279 107.809 72.132 105.876 73.722 104.337C79.314 98.7966 82.569 93.0996 85.422 88.6526C83.4648 85.5166 81.3202 82.5014 79 79.6236V79.6236Z"></path><path fill="#def6f8" d="M64.445 156.781C53.981 155.69 52.451 155.562 52.451 155.562L43.551 162.574L57.894 165.908L57.994 165.809C54.294 162.256 53.474 161.488 53.263 161.251C53.264 161.249 64.479 156.883 64.445 156.781Z"></path><path fill="#ffffff" d="M60.14 140.25C59.522 139.632 51.184 136.986 48.723 135.888V149.436C48.695 149.547 57.379 146.462 59.433 146.131L59.455 146.116C58.2 144.629 59.065 141.87 60.14 140.25Z"></path><path fill="#00bac7" d="M5.02197 150.733V137.12L48.722 135.828V149.435C35.306 149.831 44.192 149.567 5.02197 150.733ZM25.202 148.045L25.348 139.925H7.49997L7.35397 148.045H25.202ZM34.474 144.153C34.6046 143.311 34.3998 142.451 33.9034 141.758C33.407 141.064 32.6586 140.594 31.819 140.446C30.9906 140.537 30.2202 140.914 29.6416 141.514C29.063 142.114 28.7129 142.897 28.6522 143.728C28.5914 144.559 28.8239 145.385 29.3091 146.063C29.7943 146.74 30.5016 147.226 31.308 147.436C32.1605 147.413 32.9698 147.055 33.5618 146.442C34.1539 145.828 34.4814 145.006 34.474 144.153V144.153Z"></path><path fill="#def6f8" d="M34.314 162.939L24.603 170.563L50.175 176.604L58.171 167.812L34.314 162.939Z"></path><path fill="#ffffff" d="M38.589 149.734L23.947 156.876L14.01 150.463L38.589 149.734Z"></path><path fill="#ffffff" d="M31.819 140.446C32.6254 140.656 33.3327 141.142 33.8179 141.82C34.3031 142.497 34.5355 143.323 34.4748 144.154C34.414 144.985 34.0639 145.769 33.4854 146.368C32.9068 146.968 32.1364 147.346 31.308 147.436C29.703 147.326 28.514 145.656 28.652 143.729C28.6436 142.876 28.9709 142.054 29.5634 141.439C30.1558 140.825 30.9659 140.469 31.819 140.446V140.446Z"></path><path fill="#ffffff" d="M27.449 164.566L17.074 172.554L44.586 179.507L39.034 184.913L7.54602 174.823L24.846 164.194C27.687 164.542 27.374 164.466 27.449 164.566Z"></path><path fill="#ffffff" d="M25.3481 139.926L25.2021 148.046H7.35608L7.50208 139.926H25.3481Z"></path><path fill="#0e2238" d="M46.715 73.6458C49.178 76.3018 52.19 80.2588 53.367 83.1118C53.467 83.3598 53.508 83.0118 53.23 84.0298C52.554 86.5178 52.744 87.3618 52.571 91.6608C52.4888 92.9526 52.5708 94.2496 52.815 95.5208C53.692 99.6668 56.915 103.764 61.436 106.49C63.253 107.59 64.972 108.719 67.117 108.719C69.878 108.719 71.876 106.842 73.838 104.919C78.3561 100.332 82.2317 95.155 85.359 89.5278C86.068 90.7398 85.978 90.7528 86.169 90.8768C85.74 95.9858 84.842 100.801 82.436 109.282C81.862 111.308 80.46 114.799 81.146 117.263C77.168 115.299 70.971 113.854 67.707 114.225C61.007 114.999 57.929 123.793 57.882 129.79C57.849 134.083 60.996 135.364 64.04 136.601C66.7881 137.775 69.4728 139.093 72.083 140.549C71.0742 140.908 70.1196 141.404 69.246 142.024C68.3631 142.668 67.3845 143.169 66.346 143.51C65.4167 143.749 64.565 144.225 63.873 144.89C63.5922 145.203 63.3819 145.572 63.2563 145.974C63.1308 146.375 63.093 146.799 63.1454 147.216C63.1978 147.633 63.3393 148.034 63.5603 148.392C63.7812 148.75 64.0765 149.056 64.426 149.29C67.763 151.979 73.326 149.679 86.055 150.501C86.4324 150.482 86.8108 150.507 87.182 150.578C87.2723 150.635 87.3784 150.662 87.485 150.654C87.5915 150.647 87.6928 150.605 87.774 150.536C89.512 151.774 92.036 151.536 94.067 151.336C104.425 150.347 104.782 150.047 110.567 151.236C112.787 151.803 115.077 152.054 117.367 151.981C124.372 151.437 131.526 149.354 138.347 147.827C138.476 147.798 138.589 147.718 138.66 147.606C138.731 147.494 138.755 147.359 138.726 147.229C138.696 147.1 138.617 146.987 138.505 146.916C138.393 146.845 138.257 146.822 138.128 146.851C131.314 148.38 124.188 150.451 117.289 150.985C113.323 151.301 109.131 149.465 104.954 149.465C101.831 149.465 99.262 149.833 93.974 150.336C92.093 150.515 89.75 150.736 88.318 149.686C86.818 148.586 85.291 145.769 86.566 144.379C88.134 142.667 94.524 141.202 107.579 136.626C114.512 134.197 121.492 129.572 128.879 129.819C129.012 129.823 129.141 129.775 129.237 129.684C129.334 129.593 129.391 129.468 129.396 129.335C129.4 129.203 129.351 129.074 129.261 128.977C129.17 128.88 129.045 128.823 128.912 128.819C122.357 128.619 116.234 131.996 110.302 134.494C105.167 133.205 100.015 130.319 95.032 127.528C89.999 124.708 81.646 119.9 75.538 120.254C75.4724 120.257 75.4081 120.274 75.3488 120.302C75.2895 120.331 75.2363 120.37 75.1924 120.419C75.1485 120.468 75.1146 120.525 75.0928 120.587C75.0709 120.649 75.0615 120.715 75.065 120.781C75.0686 120.846 75.085 120.911 75.1134 120.97C75.1418 121.029 75.1816 121.082 75.2306 121.126C75.2795 121.17 75.3366 121.204 75.3986 121.226C75.4607 121.248 75.5264 121.257 75.592 121.254C81.492 120.954 89.792 125.742 94.543 128.403C99.176 130.997 103.953 133.674 108.782 135.115C108.272 135.315 107.763 135.506 107.251 135.685C93.692 140.435 88.245 141.59 86.102 143.446C80.702 142.568 78.602 142.666 73.452 140.113C71.052 138.926 68.601 137.518 66.215 136.43C62.527 134.747 58.858 134.13 58.891 129.797C58.935 124.167 61.737 115.922 67.831 115.218C71.291 114.812 78.265 116.597 81.908 118.811C82.0008 118.866 82.1088 118.889 82.216 118.879C82.8032 119.198 83.4502 119.391 84.116 119.446C94.225 121.009 104.016 125.788 115.379 121.456C117.194 120.766 120.14 119.956 121.531 118.43C122.971 116.94 121.956 112.5 121.902 110.89C121.436 97.0328 124.689 88.8468 123.602 82.4898C123.593 82.423 123.571 82.3587 123.537 82.3007C123.503 82.2427 123.457 82.1922 123.403 82.1522C123.349 82.1122 123.287 82.0835 123.222 82.0679C123.156 82.0524 123.089 82.0502 123.022 82.0615C122.956 82.0728 122.892 82.0974 122.836 82.1338C122.779 82.1702 122.73 82.2177 122.693 82.2734C122.655 82.3291 122.629 82.3918 122.616 82.4579C122.603 82.5239 122.603 82.5919 122.617 82.6578C123.661 88.7698 120.436 97.0218 120.903 110.926C120.95 112.347 121.803 116.632 120.852 117.693C120.824 117.718 120.799 117.745 120.777 117.776C119.56 119.088 116.693 119.885 115.023 120.526C104.35 124.593 95.248 120.377 84.704 118.526C83.932 118.388 82.876 118.337 82.473 117.766C81.123 115.858 82.824 111.606 83.406 109.554C86.953 97.0538 87.261 92.1838 87.576 83.2138C87.5784 83.1481 87.5679 83.0826 87.545 83.021C87.522 82.9594 87.4872 82.903 87.4424 82.8548C87.3977 82.8067 87.3438 82.7679 87.2841 82.7406C87.2243 82.7133 87.1597 82.6981 87.094 82.6958C86.9625 82.6952 86.8358 82.7449 86.7397 82.8347C86.6436 82.9245 86.5855 83.0475 86.577 83.1788C86.5 85.3788 86.424 87.3088 86.305 89.1498C84.2103 85.6519 81.8578 82.315 79.267 79.1668C77.041 76.7668 77.006 76.3188 78.167 73.9278C79.273 71.6468 80.181 68.0978 81.494 65.3018C83.594 60.8288 87.933 60.1148 92.526 59.3588C94.659 59.0058 96.239 58.6898 97.668 58.4998C97.686 58.4998 98.259 58.3738 98.482 58.3488C99.4157 59.49 100.626 60.3735 101.997 60.9152C103.368 61.4569 104.856 61.6389 106.317 61.4438C106.356 61.4779 106.399 61.5059 106.446 61.5268C107.081 62.6563 107.449 63.9161 107.521 65.2098C107.526 65.2754 107.545 65.3394 107.575 65.398C107.605 65.4566 107.646 65.5087 107.696 65.5513C107.747 65.5939 107.805 65.6262 107.868 65.6464C107.93 65.6665 107.996 65.6742 108.062 65.6688C108.128 65.6634 108.192 65.6451 108.25 65.615C108.309 65.5849 108.361 65.5436 108.404 65.4933C108.446 65.4431 108.479 65.385 108.499 65.3222C108.519 65.2595 108.526 65.1934 108.521 65.1278C108.436 63.7897 108.083 62.4824 107.482 61.2838C108.942 61.001 110.353 60.5082 111.672 59.8208C111.73 59.7908 111.782 59.7497 111.825 59.6996C111.868 59.6496 111.9 59.5917 111.92 59.5292C111.94 59.4667 111.948 59.4009 111.942 59.3354C111.937 59.27 111.919 59.2062 111.889 59.1478C111.859 59.0893 111.818 59.0374 111.768 58.9948C111.718 58.9523 111.66 58.92 111.597 58.8999C111.535 58.8797 111.469 58.8721 111.404 58.8774C111.338 58.8827 111.274 58.9008 111.216 58.9308C108.669 60.3981 105.655 60.8278 102.799 60.1308C101.346 59.7097 100.072 58.8216 99.175 57.6038C98.1232 56.1851 97.4675 54.5123 97.275 52.7568C97.1781 52.0314 97.1814 51.2962 97.285 50.5718C98.0055 50.8178 98.7845 50.8349 99.515 50.6208C99.4134 50.8466 99.3841 51.0983 99.4312 51.3415C99.4783 51.5846 99.5994 51.8072 99.778 51.9788C99.9758 52.1331 100.205 52.2421 100.449 52.2983C100.694 52.3544 100.948 52.3563 101.193 52.3038C101.361 52.2662 101.534 52.2646 101.703 52.299C101.871 52.3335 102.03 52.4033 102.169 52.5038C102.562 52.7619 103.036 52.8659 103.5 52.7958C103.629 52.7719 103.744 52.6983 103.819 52.5908C103.894 52.4833 103.924 52.3505 103.902 52.2211C103.881 52.0916 103.809 51.976 103.702 51.899C103.596 51.8221 103.464 51.79 103.334 51.8098C103.088 51.8417 102.84 51.7748 102.644 51.6238C102.462 51.5194 102.27 51.4314 102.072 51.3608C101.372 51.1268 100.708 51.5198 100.421 51.1518C100.413 50.6768 101.175 49.6228 102.621 48.1998C102.67 48.149 102.707 48.088 102.73 48.0211C102.753 47.9543 102.761 47.8832 102.753 47.813C102.745 47.7428 102.722 47.6752 102.685 47.615C102.648 47.5548 102.598 47.5035 102.539 47.4648C102.601 47.1496 102.631 46.829 102.628 46.5078C102.779 46.3968 102.866 46.1348 103.181 46.1318C103.503 46.1654 103.799 46.3246 104.004 46.5748C104.07 46.6602 104.162 46.7219 104.266 46.7508C104.219 47.7339 104.489 48.7062 105.035 49.5248C105.517 50.1197 106.129 50.595 106.826 50.9132C107.522 51.2314 108.282 51.3839 109.047 51.3588C110.006 51.412 110.953 51.1284 111.726 50.557C112.498 49.9856 113.046 49.1624 113.275 48.2298C114.242 48.1759 115.211 48.1949 116.175 48.2868C116.299 48.2869 116.419 48.2409 116.511 48.1578C116.603 48.0747 116.661 47.9604 116.673 47.837C116.685 47.7136 116.652 47.5901 116.578 47.4902C116.505 47.3904 116.397 47.3214 116.275 47.2968C115.308 47.1996 114.334 47.1755 113.363 47.2248C113.324 46.4968 113.136 45.7845 112.81 45.1324C112.484 44.4802 112.028 43.902 111.469 43.4338C110.908 42.9659 110.238 42.6459 109.522 42.5029C108.805 42.3599 108.064 42.3984 107.366 42.615C106.668 42.8316 106.036 43.2194 105.526 43.7429C105.016 44.2665 104.646 44.9093 104.448 45.6128C104.189 45.3676 103.86 45.2075 103.507 45.1539C103.155 45.1003 102.794 45.1557 102.473 45.3128C102.167 44.1651 101.493 43.1493 100.555 42.4208C99.7824 41.7315 98.769 41.3751 97.735 41.4288C97.7757 39.9513 98.0672 38.4915 98.597 37.1118C99.2048 35.977 99.9723 34.9354 100.876 34.0188C100.96 33.9228 101.005 33.7981 101 33.6704C100.996 33.5427 100.942 33.4215 100.851 33.3319C100.76 33.2423 100.638 33.191 100.51 33.1886C100.382 33.1861 100.259 33.2327 100.164 33.3188C99.1774 34.3189 98.3422 35.458 97.685 36.6998C97.0763 38.2708 96.7506 39.9372 96.723 41.6218C93.543 42.6588 92.798 47.9958 96.334 50.1318C95.9637 52.6706 96.5017 55.2587 97.853 57.4398L97.531 57.5078C96.552 57.6378 95.572 57.8148 94.622 57.9828C88.696 59.0268 83.161 59.3828 80.582 64.8748C79.398 67.3968 78.672 70.1028 77.646 72.6558C77.204 73.7558 76.193 75.2328 76.435 76.6418C76.7931 77.8162 77.4657 78.8703 78.38 79.6898C78.0146 81.138 77.5327 82.5542 76.939 83.9248C75.527 79.8028 73.739 75.6408 72.312 72.5108C71.436 70.5988 70.612 67.5728 68.65 66.2958C67.034 65.2458 64.813 65.7638 62.89 66.0898C56.679 67.1438 51.356 68.5338 49.675 68.7898C47.393 69.1418 45.307 69.5498 44.845 70.6808C44.383 71.8118 46.188 73.0748 46.715 73.6458ZM85.386 144.346C84.586 145.976 85.505 148.119 86.678 149.503C73.804 148.647 68.001 150.885 65.051 148.503C64.8096 148.354 64.6035 148.155 64.4472 147.918C64.2909 147.681 64.1882 147.414 64.1463 147.133C64.1044 146.853 64.1243 146.566 64.2046 146.295C64.2848 146.023 64.4236 145.771 64.611 145.559C65.381 144.711 66.698 144.537 67.84 143.997C69.746 143.097 71.157 141.617 73.171 141.318C73.26 141.304 73.3436 141.267 73.413 141.21C78.215 143.535 80.39 143.565 85.386 144.346ZM105.3 46.3918C105.374 45.7883 105.61 45.216 105.982 44.7351C106.354 44.2542 106.849 43.8825 107.415 43.6591C107.98 43.4357 108.596 43.3688 109.196 43.4655C109.796 43.5623 110.359 43.819 110.826 44.2088C112.253 45.3908 112.964 47.6668 111.749 49.1708C111.391 49.583 110.941 49.9055 110.435 50.1123C109.93 50.3192 109.383 50.4046 108.838 50.3618C108.271 50.3577 107.712 50.2316 107.199 49.9919C106.685 49.7522 106.229 49.4046 105.862 48.9728C105.359 48.2126 105.159 47.2921 105.3 46.3918ZM99.906 43.1918C100.631 43.7073 101.167 44.4457 101.432 45.2943C101.698 46.143 101.678 47.0552 101.377 47.8918C99.957 49.9258 98.515 49.9918 97.458 49.5808C98.258 45.6098 97.778 44.9748 97.723 42.4428C98.119 42.4155 98.5164 42.4684 98.8913 42.5985C99.2663 42.7286 99.6111 42.9331 99.905 43.1998L99.906 43.1918ZM96.729 42.6918C96.8 44.8118 97.192 45.8348 96.541 49.0648C94.192 47.3598 94.733 43.6498 96.728 42.6998L96.729 42.6918ZM77.405 85.3218C78.1211 83.8007 78.714 82.2246 79.178 80.6088C80.463 82.2088 83.036 85.7628 84.767 88.5468L84.757 88.5628C81.6741 94.1911 77.8425 99.3756 73.367 103.975C71.811 105.5 70.03 107.338 67.886 107.661C65.662 107.993 63.902 106.811 61.952 105.633C57.668 103.044 54.614 99.1938 53.793 95.3138C53.5668 94.1233 53.4919 92.909 53.57 91.6998C53.747 87.2998 53.561 86.6208 54.195 84.2888C54.7487 81.6145 56.0289 79.1447 57.895 77.1508C58.714 76.3338 59.595 75.8508 59.895 76.0368C60.237 76.9818 54.239 82.4918 56.009 83.1368C56.455 83.3008 56.751 82.9548 57.561 81.8618C58.561 80.5098 61.049 78.3818 61.77 78.2748C61.554 79.2948 57.477 84.3178 57.47 84.7668C57.404 84.9798 57.501 85.0538 57.67 85.1818C57.7739 85.2607 57.9046 85.2959 58.034 85.2798C58.1635 85.2637 58.2816 85.1977 58.363 85.0958C59.4543 83.5145 60.8449 82.1624 62.456 81.1158C62.8187 80.8543 63.2394 80.6848 63.682 80.6218C63.697 80.6838 63.675 80.8658 63.362 81.4008C62.3808 82.9604 61.2876 84.4466 60.091 85.8478C59.953 86.0168 59.456 86.3118 59.61 86.7698C59.6492 86.8669 59.7136 86.9519 59.7966 87.0159C59.8796 87.0799 59.9781 87.1206 60.082 87.1338C60.419 87.1608 60.666 86.9448 61.374 86.0948C62.239 85.1051 63.2714 84.2755 64.424 83.6438C64.6301 83.5193 64.8608 83.4411 65.1 83.4148C65.174 83.5328 65.195 83.9678 63.872 85.5348C62.9631 86.4981 62.1503 87.5477 61.445 88.6688C60.245 90.9908 59.968 92.9078 57.865 94.4488C57.7811 94.5117 57.7191 94.5995 57.6878 94.6997C57.6565 94.7998 57.6575 94.9073 57.6907 95.0069C57.7239 95.1064 57.7876 95.193 57.8727 95.2544C57.9578 95.3158 58.0601 95.3488 58.165 95.3488C58.51 95.3488 58.146 95.1218 58.78 95.7868C59.3302 96.4045 59.9581 96.9483 60.648 97.4048C60.5783 97.649 60.5704 97.9068 60.6251 98.1548C60.6797 98.4028 60.7952 98.6334 60.961 98.8258C61.57 99.3688 62.952 99.0718 63.801 98.8868C65.717 99.2503 67.5821 99.8436 69.356 100.654C69.4754 100.712 69.6128 100.72 69.7381 100.676C69.8634 100.633 69.9662 100.541 70.024 100.422C70.0819 100.302 70.0899 100.165 70.0464 100.04C70.0029 99.9144 69.9114 99.8116 69.792 99.7538C69.525 99.6248 69.261 99.4998 68.992 99.3878C69.235 99.0688 69.55 98.7708 70.101 97.9778C71.263 97.8608 75.767 97.4588 76.018 97.4488C77.206 97.4048 78.833 97.3418 79.467 96.4148C80.721 94.5818 78.793 90.2938 78.356 88.6038C78.084 87.5368 77.762 86.4328 77.405 85.3218ZM59.885 93.8998C60.2087 94.6157 60.447 95.3672 60.595 96.1388C60.0663 95.7039 59.5807 95.2189 59.145 94.6908C59.4106 94.4455 59.658 94.1811 59.885 93.8998V93.8998ZM68.2 98.7858C68.16 98.8388 68.08 98.9468 68.024 99.0068C67.369 98.7668 66.749 98.5758 66.201 98.4258C67.018 98.3158 67.877 98.2138 68.752 98.1188C68.47 98.4678 68.331 98.6088 68.2 98.7858ZM45.771 71.0658C46.129 70.1888 49.997 69.8088 50.865 69.6048C57.465 68.0588 59.691 67.6738 63.685 66.9688C67.854 66.2328 68.821 66.5688 70.836 71.5758C71.685 73.6918 75.513 81.5858 77.392 88.8538C77.765 90.2998 79.546 94.5358 78.646 95.8538C78.209 96.4908 76.109 96.4148 75.276 96.4918C71.97 96.7918 68.106 97.1228 65.151 97.5688C64.651 97.6428 61.997 98.3688 61.631 98.0898C61.6076 97.7892 61.6214 97.4869 61.672 97.1898C61.6457 95.7147 61.2592 94.2683 60.546 92.9768C60.485 92.8598 60.498 93.2988 61.54 90.8648C61.781 90.3028 62.03 89.7218 62.316 89.1648C62.9927 88.1007 63.7692 87.1035 64.635 86.1868C65.362 85.3278 66.587 83.8978 65.948 82.8868C65.748 82.5618 65.214 82.1138 63.967 82.7598C63.823 82.8338 63.681 82.9128 63.539 82.9958C63.786 82.6308 64.018 82.2678 64.239 81.8958C64.46 81.5238 65.052 80.5068 64.369 79.9108C63.686 79.3148 62.53 79.9108 61.742 80.3828C61.926 80.1048 62.108 79.8198 62.284 79.5248C62.6338 79.0805 62.8021 78.5202 62.755 77.9568C62.728 77.8449 62.6786 77.7397 62.6099 77.6474C62.5411 77.5551 62.4545 77.4777 62.355 77.4198C61.585 76.9618 60.555 77.7328 59.832 78.2768C60.589 77.2618 60.994 76.5118 60.893 75.8938C60.737 74.9308 59.33 74.3208 57.193 76.4528C55.6904 77.9761 54.563 79.8283 53.9 81.8628C52.1394 78.6328 49.9721 75.6417 47.451 72.9628C47.18 72.6778 45.7 71.4388 45.771 71.0658Z"></path><path fill="#0e2238" d="M132 117.578C134.352 117.697 135.882 117.062 140.9 116.218C143.764 115.844 146.578 115.156 149.291 114.167C151.248 113.192 152.891 111.688 154.035 109.826C155.064 108.388 155.186 108.297 155.153 108.026C155.408 107.134 155.627 106.38 155.881 105.236C157.365 105.122 159.292 105.003 160.481 104.052C161.642 103.12 161.721 100.524 161.957 99.3296C163.237 92.8656 166.046 77.6236 164.498 75.6916C163.368 74.2816 146.298 72.8406 142.428 73.5046C140.184 73.8926 140.8 77.3586 141.21 79.4696C143.285 90.1626 142.501 97.4016 140.155 104.341C139.739 105.236 139.375 106.155 139.064 107.092C138.611 106.993 138.15 106.937 137.686 106.924C136.269 106.724 132.599 106.212 131.919 106.102C131.853 106.088 131.784 106.087 131.718 106.1C131.652 106.114 131.589 106.14 131.533 106.178C131.477 106.217 131.43 106.266 131.394 106.323C131.357 106.38 131.333 106.444 131.322 106.511C131.311 106.577 131.314 106.646 131.331 106.711C131.347 106.777 131.376 106.839 131.417 106.893C131.458 106.947 131.509 106.992 131.568 107.025C131.627 107.059 131.692 107.08 131.759 107.088C132.493 107.207 136.484 107.767 137.603 107.919C138.015 107.931 138.425 107.979 138.829 108.064C138.801 108.235 138.817 108.411 138.875 108.574C138.933 108.738 139.032 108.884 139.162 109C139.684 109.394 140.543 109.19 141.175 109.042C141.713 108.914 141.799 108.951 143.421 108.542C144.271 108.303 145.142 108.142 146.021 108.06C146.145 108.725 146.399 109.359 146.768 109.926C146.842 110.032 146.955 110.105 147.082 110.13C147.209 110.155 147.341 110.13 147.45 110.059C147.558 109.989 147.636 109.879 147.665 109.753C147.694 109.626 147.674 109.494 147.607 109.383C146.436 107.575 147.125 105.846 146.943 103.548C146.745 102.436 146.409 101.353 145.943 100.325C145.353 98.6696 145.595 98.4156 145.605 98.4056C145.984 98.1906 146.937 99.1426 148.441 101.196C148.657 101.496 149.025 101.983 149.041 102.005C149.241 102.294 149.465 102.626 149.857 102.512C149.962 102.474 150.054 102.407 150.122 102.318C150.19 102.229 150.231 102.123 150.239 102.012C150.262 101.507 149.592 100.845 149.467 100.625C147.167 96.5626 147.867 95.8056 147.867 95.7576C148.253 95.8186 149.417 97.4096 150.483 99.6236C151.122 100.98 151.349 101.4 151.848 101.247C151.981 101.203 152.092 101.109 152.157 100.986C152.263 100.78 152.284 100.621 151.797 99.1446C150.867 96.3196 150.888 95.2876 151.097 94.9156C151.135 94.8476 151.166 94.8356 151.197 94.8276C151.52 94.7276 152.377 95.4976 153.35 98.8646C153.508 99.4126 153.566 100.347 154.15 100.544C154.23 100.57 154.316 100.576 154.399 100.561C154.482 100.546 154.56 100.51 154.625 100.457C154.787 100.324 154.99 100.157 154.401 97.7046C153.954 96.4534 153.669 95.1501 153.554 93.8266C153.527 93.6231 153.578 93.417 153.695 93.2486C153.778 93.2503 153.859 93.2776 153.927 93.3266C155.05 93.9536 155.365 95.7116 155.504 96.9796C156.07 102.126 154.277 107.299 154.147 107.947C154.027 108.124 153.82 108.42 153.724 108.547C152.268 110.508 151.399 112.047 148.888 113.247C145.721 114.547 142.018 114.97 138.554 115.604C136.429 116.162 134.249 116.488 132.054 116.574C129.208 116.447 127.474 114.715 126.429 110.957C125.141 106.323 124.874 99.6016 125.053 94.8566C125.055 94.7909 125.045 94.7254 125.022 94.6638C124.999 94.6022 124.965 94.5456 124.92 94.4974C124.875 94.4493 124.822 94.4103 124.762 94.3829C124.702 94.3555 124.638 94.3401 124.572 94.3376C124.506 94.3351 124.441 94.3455 124.379 94.3684C124.318 94.3912 124.261 94.4259 124.213 94.4706C124.165 94.5152 124.126 94.569 124.098 94.6287C124.071 94.6884 124.055 94.7529 124.053 94.8186C123.871 99.6406 124.145 106.483 125.464 111.227C126.189 113.864 127.664 117.386 132 117.578ZM154.409 92.4576C153.357 91.8686 152.535 92.5866 152.551 93.8776C152.574 94.1536 152.604 94.4276 152.641 94.6996C152.109 93.9926 151.547 93.7086 150.953 93.8606C149.788 94.1436 149.901 95.7276 150.132 96.9056C149.461 95.8356 148.269 94.1646 147.301 94.9686C146.647 95.5136 146.595 96.5546 147.153 98.1206C146.465 97.5126 145.763 97.1916 145.122 97.5306C144.075 98.0956 144.722 99.8976 144.992 100.667C145.428 101.629 145.749 102.64 145.948 103.679C146.038 104.873 145.862 105.927 145.907 107.072C144.983 107.158 144.068 107.325 143.173 107.572C141.438 108.006 141.75 107.872 140.938 108.065C140.573 108.166 140.197 108.218 139.818 108.22C140.107 107.006 140.529 105.829 141.076 104.708C143.939 96.2506 143.985 88.5306 142.185 79.2726C141.929 77.9596 141.285 74.7106 142.592 74.4866C147.04 73.7166 162.629 75.4866 163.712 76.3126C164.647 77.4796 163.04 88.6756 160.97 99.1326C160.77 100.133 160.626 102.644 159.849 103.269C158.967 103.975 157.336 104.121 156.088 104.213C156.716 100.932 157.322 94.0836 154.41 92.4576H154.409Z"></path><path fill="#0e2238" d="M119.884 63.5629C119.959 63.5629 120.033 63.5461 120.1 63.5137C120.168 63.4813 120.227 63.4342 120.274 63.3759C120.321 63.3175 120.354 63.2494 120.371 63.1766C120.388 63.1037 120.388 63.028 120.372 62.9549C119.823 60.4616 119.495 57.9248 119.391 55.3739C119.386 55.2416 119.328 55.1169 119.231 55.0271C119.133 54.9373 119.004 54.8898 118.872 54.8949C118.806 54.8975 118.742 54.913 118.682 54.9405C118.622 54.9681 118.569 55.0071 118.524 55.0554C118.48 55.1037 118.445 55.1603 118.422 55.222C118.4 55.2837 118.389 55.3492 118.392 55.4149C118.497 58.0242 118.832 60.6193 119.392 63.1699C119.417 63.2819 119.479 63.382 119.568 63.4536C119.658 63.5251 119.769 63.5637 119.884 63.5629V63.5629Z"></path><path fill="#0e2238" d="M100.769 62.6725C100.428 63.0905 100.653 63.6785 101.748 65.1725C103.028 66.9859 104.684 68.5026 106.602 69.6195C111.286 72.3605 116.109 70.2825 120.266 66.7525C120.32 66.7112 120.364 66.6594 120.397 66.6004C120.43 66.5413 120.451 66.4761 120.458 66.4088C120.465 66.3415 120.458 66.2735 120.438 66.2089C120.418 66.1442 120.385 66.0843 120.342 66.0327C120.298 65.9812 120.244 65.9391 120.183 65.9089C120.123 65.8788 120.057 65.8613 119.989 65.8574C119.922 65.8536 119.854 65.8635 119.79 65.8865C119.727 65.9096 119.668 65.9453 119.619 65.9915C114.886 70.0065 110.793 70.9155 107.107 68.7565C105.282 67.6861 103.711 66.234 102.5 64.4995C102.156 64.0788 101.866 63.6165 101.637 63.1235C101.668 63.0131 101.659 62.8956 101.613 62.7905C101.568 62.6855 101.487 62.5994 101.386 62.5466C101.284 62.4937 101.167 62.4774 101.055 62.5004C100.943 62.5233 100.842 62.5841 100.769 62.6725Z"></path><path fill="#0e2238" d="M114.953 124.328C114.939 124.196 114.873 124.075 114.77 123.992C114.667 123.909 114.535 123.871 114.403 123.885C110.903 124.265 107.169 126.076 104.665 127.406C104.566 127.458 104.488 127.542 104.442 127.644C104.397 127.746 104.387 127.86 104.414 127.969C104.441 128.077 104.503 128.173 104.591 128.242C104.68 128.311 104.788 128.348 104.9 128.348C104.982 128.347 105.062 128.327 105.134 128.289C107.565 126.998 111.183 125.24 114.51 124.879C114.642 124.864 114.763 124.798 114.846 124.695C114.929 124.592 114.967 124.459 114.953 124.328V124.328Z"></path><path fill="#0e2238" d="M106.635 129.026C106.735 129.026 112.207 128.159 114.716 128.396C114.848 128.407 114.978 128.365 115.08 128.281C115.181 128.197 115.246 128.076 115.26 127.945C115.266 127.88 115.26 127.814 115.24 127.751C115.221 127.688 115.189 127.63 115.147 127.579C115.106 127.529 115.054 127.487 114.996 127.456C114.938 127.425 114.874 127.406 114.809 127.4C112.043 127.356 109.28 127.568 106.553 128.032C106.428 128.052 106.315 128.118 106.237 128.217C106.159 128.316 106.121 128.441 106.132 128.567C106.142 128.693 106.2 128.811 106.293 128.896C106.387 128.981 106.509 129.027 106.635 129.026Z"></path><path fill="#0e2238" d="M101.737 123.293C101.663 123.278 101.586 123.279 101.512 123.296C101.438 123.314 101.369 123.348 101.31 123.396C101.251 123.444 101.204 123.505 101.172 123.574C101.139 123.642 101.123 123.717 101.123 123.793C101.028 125.318 101.09 126.848 101.308 128.36C101.323 128.492 101.39 128.613 101.493 128.696C101.597 128.779 101.73 128.817 101.862 128.802C101.993 128.787 102.114 128.72 102.197 128.617C102.28 128.513 102.318 128.38 102.303 128.248C102.088 126.8 102.027 125.333 102.121 123.872C102.135 123.746 102.104 123.619 102.034 123.513C101.964 123.407 101.859 123.329 101.737 123.293V123.293Z"></path><path fill="#0e2238" d="M104.848 56.321C104.97 55.605 104.219 54.821 103.63 54.537C102.902 54.1918 102.086 54.0764 101.291 54.206C101.225 54.2143 101.16 54.2359 101.102 54.2695C101.044 54.3031 100.994 54.348 100.953 54.4015C100.913 54.4551 100.884 54.5162 100.868 54.5812C100.852 54.6462 100.849 54.7138 100.859 54.78C101.135 56.537 102.135 57.326 103.827 57.124C104.642 57.028 104.813 56.531 104.848 56.321ZM103.71 56.132C103.037 56.207 102.31 56.197 101.972 55.162C102.394 55.1574 102.812 55.2512 103.192 55.436C103.469 55.6029 103.71 55.822 103.903 56.081C103.843 56.1116 103.777 56.1289 103.71 56.132V56.132Z"></path><path fill="#0e2238" d="M103.292 57.4495C103.164 57.4178 103.028 57.437 102.914 57.5033C102.8 57.5695 102.716 57.6775 102.68 57.8045C102.646 57.9326 102.664 58.069 102.73 58.1838C102.797 58.2986 102.906 58.3823 103.034 58.4165C103.321 58.493 103.617 58.5353 103.914 58.5425C104.047 58.5444 104.175 58.4935 104.27 58.401C104.365 58.3085 104.419 58.1821 104.421 58.0495C104.423 57.9169 104.372 57.789 104.28 57.6939C104.187 57.5988 104.061 57.5444 103.928 57.5425C103.713 57.5364 103.5 57.5052 103.292 57.4495Z"></path><path fill="#0e2238" d="M98.61 47.7817C98.6854 47.7816 98.7598 47.7645 98.8276 47.7316C98.8954 47.6987 98.9549 47.6509 99.0017 47.5917C99.0484 47.5326 99.0812 47.4636 99.0975 47.39C99.1138 47.3164 99.1133 47.2401 99.096 47.1667C99.0521 46.9988 99.0246 46.827 99.014 46.6537C99.0218 46.5224 98.9781 46.3932 98.8922 46.2935C98.8064 46.1938 98.685 46.1315 98.554 46.1197C98.4883 46.113 98.4219 46.1197 98.3588 46.1394C98.2958 46.159 98.2374 46.1913 98.1872 46.2342C98.137 46.2771 98.096 46.3298 98.0667 46.389C98.0375 46.4482 98.0205 46.5128 98.017 46.5787C98.0191 46.8551 98.055 47.1301 98.124 47.3977C98.15 47.507 98.2122 47.6044 98.3003 47.674C98.3885 47.7437 98.4976 47.7816 98.61 47.7817V47.7817Z"></path><path fill="#0e2238" d="M106.409 48.3342C106.444 48.4621 106.529 48.5706 106.645 48.636C106.76 48.7013 106.897 48.7182 107.024 48.6827C107.152 48.6473 107.261 48.5626 107.326 48.4472C107.392 48.3317 107.408 48.1951 107.373 48.0673C107.286 47.7582 107.224 47.4424 107.188 47.1233C107.184 47.0475 107.164 46.9735 107.129 46.9064C107.093 46.8393 107.044 46.7807 106.984 46.7347C106.923 46.6887 106.854 46.6565 106.78 46.6401C106.706 46.6238 106.629 46.6239 106.555 46.6402C106.492 46.6545 106.432 46.6813 106.38 46.719C106.327 46.7568 106.283 46.8047 106.249 46.8599C106.216 46.9151 106.193 46.9765 106.184 47.0405C106.174 47.1044 106.178 47.1696 106.194 47.2323C106.235 47.6048 106.307 47.9734 106.409 48.3342V48.3342Z"></path><path fill="#0e2238" d="M98.612 39.4527C98.5535 39.4228 98.4897 39.4046 98.4242 39.3994C98.3586 39.3941 98.2927 39.4018 98.2302 39.422C98.1039 39.4628 97.999 39.5521 97.9385 39.6702C97.878 39.7884 97.867 39.9257 97.9078 40.052C97.9486 40.1783 98.0378 40.2832 98.156 40.3437C99.2367 40.6917 100.399 40.6938 101.481 40.3497C101.544 40.3311 101.603 40.3002 101.654 40.2589C101.705 40.2175 101.747 40.1666 101.778 40.1089C101.81 40.0511 101.829 39.9878 101.836 39.9225C101.843 39.8572 101.837 39.7912 101.818 39.7282C101.8 39.6652 101.769 39.6066 101.728 39.5555C101.686 39.5045 101.635 39.4621 101.578 39.4307C101.52 39.3994 101.457 39.3797 101.391 39.3729C101.326 39.366 101.26 39.3721 101.197 39.3907C100.359 39.6572 99.462 39.6787 98.612 39.4527V39.4527Z"></path><path fill="#0e2238" d="M106.789 41.2418C107.693 41.6147 108.674 41.7649 109.648 41.6798C109.713 41.6732 109.777 41.6537 109.835 41.6226C109.892 41.5915 109.944 41.5493 109.985 41.4984C110.027 41.4475 110.058 41.3889 110.077 41.326C110.095 41.2631 110.102 41.1971 110.095 41.1318C110.089 41.0662 110.07 41.0024 110.039 40.9443C110.008 40.8861 109.966 40.8347 109.915 40.7931C109.864 40.7515 109.805 40.7206 109.742 40.7022C109.679 40.6838 109.612 40.6782 109.547 40.6858C108.781 40.7453 108.011 40.6393 107.29 40.3748C107.213 40.3094 107.121 40.2632 107.023 40.2399C106.925 40.2166 106.822 40.2169 106.724 40.2408C106.609 40.271 106.509 40.3401 106.44 40.4363C106.37 40.5325 106.337 40.6498 106.344 40.7681C106.352 40.8864 106.4 40.9983 106.482 41.0847C106.563 41.1712 106.671 41.2267 106.789 41.2418V41.2418Z"></path><path fill="#0e2238" d="M80.4911 23.0578C80.5041 24.0778 81.7101 25.0468 82.5691 25.2918C83.1991 25.4728 83.8111 25.5608 84.4741 25.7148C84.6034 25.7451 84.7394 25.7227 84.8522 25.6526C84.965 25.5826 85.0453 25.4706 85.0756 25.3413C85.1058 25.212 85.0834 25.076 85.0134 24.9632C84.9434 24.8504 84.8314 24.7701 84.7021 24.7398C84.0531 24.5908 83.4291 24.4978 82.8441 24.3308C82.2291 24.1558 81.4961 23.4578 81.4911 23.0448C81.4911 22.8348 81.7911 22.6978 82.0381 22.6178C83.4071 22.1868 86.4611 24.0368 86.8381 25.5118C86.8523 25.5776 86.8796 25.6398 86.9184 25.6948C86.9572 25.7497 87.0067 25.7963 87.0639 25.8317C87.1211 25.8671 87.1849 25.8905 87.2514 25.9007C87.3179 25.9108 87.3858 25.9075 87.4509 25.8908C87.5161 25.8741 87.5772 25.8444 87.6307 25.8035C87.6841 25.7626 87.7287 25.7114 87.7619 25.6528C87.7951 25.5943 87.8161 25.5297 87.8236 25.4628C87.8312 25.396 87.8253 25.3283 87.8061 25.2638C87.2951 23.2718 83.7011 21.0488 81.7371 21.6638C80.6421 22.0088 80.4861 22.6848 80.4911 23.0578Z"></path><path fill="#0e2238" d="M89.887 19.1806C89.9388 19.2274 89.9998 19.2628 90.066 19.2846C90.1323 19.3064 90.2024 19.3141 90.2719 19.3072C90.3413 19.3002 90.4085 19.2788 90.4692 19.2444C90.5299 19.2099 90.5827 19.1631 90.6242 19.107C90.6657 19.051 90.695 18.9868 90.7102 18.9187C90.7254 18.8506 90.7262 18.7801 90.7126 18.7116C90.6989 18.6432 90.671 18.5784 90.6308 18.5214C90.5906 18.4644 90.5389 18.4164 90.479 18.3806C89.747 17.8396 88.118 16.9146 87.869 15.9806C88.3322 15.9776 88.7867 16.1059 89.18 16.3506C91.06 17.8896 90.98 18.7006 92.49 20.2906C92.5351 20.3383 92.5892 20.3767 92.6491 20.4035C92.7091 20.4304 92.7737 20.4452 92.8394 20.447C92.905 20.4489 92.9704 20.4378 93.0317 20.4144C93.0931 20.391 93.1493 20.3557 93.197 20.3106C93.2447 20.2655 93.2831 20.2114 93.31 20.1515C93.3368 20.0915 93.3516 20.0269 93.3534 19.9612C93.3553 19.8956 93.3442 19.8302 93.3208 19.7688C93.2974 19.7075 93.2621 19.6513 93.217 19.6036C92.8697 19.2371 92.5505 18.845 92.262 18.4306C91.6139 17.3326 90.7751 16.359 89.785 15.5556C89.194 15.1366 87.761 14.6646 87.131 15.2556C86.864 15.5046 86.656 15.9846 87.18 16.8476C87.9214 17.7945 88.841 18.5871 89.887 19.1806Z"></path><path fill="#0e2238" d="M79.1651 19.0575C79.2977 19.0678 79.429 19.0251 79.5301 18.9386C79.6311 18.8522 79.6937 18.7291 79.7041 18.5965C79.7144 18.4639 79.6717 18.3326 79.5852 18.2315C79.4988 18.1304 79.3757 18.0678 79.2431 18.0575C78.6553 17.9893 78.086 17.809 77.5661 17.5265C78.3321 16.7755 80.3021 17.1795 81.3911 17.7565C81.4492 17.7887 81.5131 17.8091 81.5792 17.8164C81.6452 17.8236 81.7121 17.8177 81.7758 17.7988C81.8395 17.7799 81.8988 17.7486 81.9503 17.7065C82.0017 17.6645 82.0443 17.6126 82.0754 17.5539C82.1066 17.4952 82.1258 17.4309 82.1318 17.3647C82.1378 17.2986 82.1306 17.2319 82.1105 17.1685C82.0905 17.1052 82.058 17.0464 82.015 16.9958C81.972 16.9451 81.9193 16.9035 81.8601 16.8735C80.7601 16.2885 78.0681 15.5205 76.8021 16.8735C76.6754 16.9942 76.5867 17.1491 76.5467 17.3195C76.5068 17.4898 76.5173 17.6681 76.5771 17.8325C76.9541 18.8085 79.1431 19.0565 79.1651 19.0575Z"></path><path fill="#0e2238" d="M49.685 139.743C50.5205 141.885 50.5911 144.249 49.885 146.436C49.8483 146.564 49.8637 146.701 49.9278 146.817C49.992 146.933 50.0996 147.019 50.227 147.055C50.3545 147.092 50.4913 147.077 50.6074 147.012C50.7235 146.948 50.8093 146.841 50.846 146.713C51.6175 144.306 51.533 141.707 50.607 139.355C50.5831 139.293 50.5469 139.235 50.5004 139.187C50.4539 139.138 50.3981 139.1 50.3364 139.073C50.2747 139.047 50.2082 139.033 50.1411 139.033C50.074 139.033 50.0075 139.046 49.9457 139.072C49.8838 139.098 49.8278 139.137 49.781 139.185C49.7343 139.233 49.6977 139.29 49.6735 139.353C49.6492 139.415 49.6379 139.482 49.64 139.549C49.6422 139.616 49.6578 139.682 49.686 139.743H49.685Z"></path><path fill="#0e2238" d="M52.5321 142.013C53.3321 142.056 57.5051 142.661 57.7411 142.661C57.8737 142.669 58.0041 142.625 58.1035 142.536C58.203 142.448 58.2635 142.324 58.2716 142.192C58.2796 142.059 58.2347 141.929 58.1467 141.829C58.0586 141.73 57.9347 141.669 57.8021 141.661C52.2641 140.972 52.1631 140.816 51.9501 141.321C51.9134 141.408 51.9014 141.502 51.9153 141.595C51.9291 141.687 51.9684 141.774 52.0287 141.846C52.0889 141.918 52.1679 141.971 52.2567 142.001C52.3456 142.03 52.4409 142.035 52.5321 142.013Z"></path><path fill="#0e2238" d="M52.124 144.749C53.1052 144.63 54.0927 144.571 55.081 144.572C55.89 144.535 56.762 144.497 57.548 144.455C57.6137 144.451 57.678 144.435 57.7373 144.407C57.7967 144.378 57.8498 144.339 57.8938 144.29C57.9378 144.241 57.9717 144.184 57.9936 144.122C58.0155 144.06 58.025 143.994 58.0215 143.928C58.018 143.863 58.0017 143.798 57.9733 143.739C57.945 143.68 57.9052 143.626 57.8563 143.583C57.8074 143.539 57.7504 143.505 57.6884 143.483C57.6264 143.461 57.5607 143.451 57.495 143.455C56.641 143.522 52.353 143.648 51.995 143.764C51.876 143.794 51.7721 143.866 51.703 143.967C51.634 144.069 51.6046 144.192 51.6206 144.314C51.6365 144.435 51.6966 144.547 51.7894 144.627C51.8823 144.707 52.0013 144.751 52.124 144.749V144.749Z"></path><path fill="#0e2238" d="M150.609 173.305C129.109 154.355 130.472 155.405 130.179 155.405H103.163C103.07 155.405 102.979 155.431 102.9 155.48C102.821 155.528 102.757 155.598 102.716 155.681C102.674 155.764 102.657 155.857 102.665 155.95C102.673 156.042 102.707 156.131 102.763 156.205L108.989 164.344C106.372 164.458 105.546 164.478 105.236 164.516C105.11 164.528 104.994 164.588 104.911 164.683C104.828 164.778 104.785 164.902 104.79 165.028C104.797 165.189 107.853 172.139 107.917 172.228C108.104 172.472 108.265 172.445 108.517 172.422C109.078 172.371 110.534 172.172 114.602 171.674C115.648 173.037 121.502 180.642 121.502 180.642C121.549 180.703 121.61 180.753 121.679 180.786C121.749 180.82 121.825 180.838 121.902 180.837C122.002 180.837 120.11 181.208 150.396 174.162C150.484 174.14 150.565 174.094 150.629 174.03C150.693 173.966 150.738 173.886 150.76 173.797C150.782 173.709 150.78 173.617 150.753 173.53C150.726 173.444 150.677 173.366 150.609 173.305ZM111.383 167.467L107.255 165.419L109.734 165.312L111.383 167.467ZM108.473 171.027L106.302 166.063L110.872 168.33L108.473 171.027ZM109.582 171.285L111.8 168.791L112.6 169.191C112.823 169.3 112.485 168.913 113.9 170.759L109.582 171.285ZM122.097 179.785C116.526 172.541 113.939 169.168 104.175 156.405H129.989L149.222 173.418L122.097 179.785Z"></path><path fill="#0e2238" d="M129.461 157.409L124.323 161.009L107.2 157.329C107.07 157.301 106.935 157.326 106.823 157.398C106.712 157.47 106.633 157.584 106.605 157.714C106.578 157.843 106.603 157.979 106.675 158.09C106.747 158.202 106.86 158.28 106.99 158.308L123.206 161.794L115.256 167.367C115.169 167.428 115.103 167.515 115.069 167.616C115.034 167.717 115.033 167.826 115.065 167.928C115.098 168.029 115.161 168.118 115.247 168.181C115.334 168.244 115.437 168.277 115.544 168.277C115.772 168.277 115.044 168.735 124.544 162.077C137.259 164.811 136.553 164.669 136.655 164.669C136.778 164.668 136.897 164.622 136.988 164.539C137.079 164.456 137.136 164.342 137.148 164.219C137.161 164.097 137.127 163.974 137.055 163.874C136.982 163.775 136.875 163.706 136.755 163.68L125.655 161.294L130.034 158.224C130.143 158.148 130.217 158.032 130.24 157.901C130.262 157.771 130.233 157.636 130.156 157.528C130.08 157.419 129.964 157.345 129.834 157.322C129.703 157.299 129.569 157.329 129.46 157.405L129.461 157.409Z"></path><path fill="#0e2238" d="M195.2 164.471L167.294 152.479C167.094 152.392 168.736 152.22 143.96 155.653C143.863 155.667 143.773 155.708 143.7 155.773C143.626 155.837 143.574 155.922 143.548 156.016C143.522 156.11 143.524 156.209 143.554 156.302C143.584 156.395 143.641 156.477 143.717 156.538C174.427 180.978 172.422 179.518 172.693 179.518C172.901 179.518 172.577 179.683 177.44 176.612C177.619 176.632 176.768 176.912 190.315 171.753C190.402 171.72 190.478 171.663 190.534 171.589C190.59 171.515 190.624 171.426 190.633 171.334C190.642 171.241 190.625 171.148 190.584 171.065C190.543 170.981 190.479 170.911 190.4 170.862L188.454 169.662L195.27 165.362C195.349 165.314 195.414 165.245 195.456 165.163C195.499 165.08 195.517 164.987 195.51 164.895C195.503 164.803 195.47 164.714 195.415 164.639C195.36 164.564 195.286 164.506 195.2 164.471ZM189.015 171.18L181.491 174.053L187.514 170.253L189.015 171.18ZM172.728 178.405C172.102 177.905 145.25 156.483 145.25 156.483L167.028 153.452L193.928 165.014L172.728 178.405Z"></path><path fill="#0e2238" d="M102.942 167.247L100.378 165.679L101.978 159.218C101.996 159.145 101.997 159.068 101.982 158.994C101.966 158.92 101.933 158.85 101.886 158.79C101.84 158.731 101.78 158.682 101.712 158.649C101.644 158.616 101.569 158.598 101.493 158.598H88.8L77.214 151.51C77.1479 151.47 77.0735 151.446 76.9965 151.439C76.9196 151.433 76.8421 151.444 76.77 151.471L70.043 154.115C69.943 154.096 70.173 153.84 43.154 151.993C42.847 151.972 43.841 151.301 27.354 163.993C24.692 163.667 24.778 163.635 24.574 163.763L7.28401 174.399C7.20315 174.45 7.13836 174.522 7.09727 174.608C7.05617 174.694 7.04048 174.79 7.05203 174.884C7.06359 174.979 7.10191 175.068 7.1625 175.142C7.22308 175.215 7.3034 175.27 7.39401 175.299L38.882 185.389C38.9678 185.417 39.0596 185.422 39.1476 185.402C39.2356 185.382 39.3166 185.339 39.382 185.276L44.866 180.089L50.917 181.617C51.0037 181.639 51.0947 181.638 51.1805 181.613C51.2664 181.587 51.3439 181.54 51.405 181.474L61.882 170.222L65.353 173.554L60.705 180.554C60.6565 180.628 60.6282 180.713 60.623 180.8C60.6177 180.888 60.6357 180.976 60.6752 181.054C60.7147 181.133 60.7742 181.2 60.8477 181.248C60.9212 181.296 61.0062 181.324 61.094 181.329L74.214 182.062L77.585 185.298C77.6779 185.388 77.8019 185.438 77.931 185.438C78.153 185.438 77.894 185.573 82.287 182.512L95.653 183.264C95.7647 183.264 95.8731 183.227 95.961 183.158C96.0489 183.089 96.1112 182.993 96.138 182.884L99.127 170.768L102.971 168.087C103.04 168.04 103.095 167.975 103.133 167.901C103.17 167.826 103.188 167.743 103.185 167.659C103.183 167.576 103.159 167.494 103.116 167.422C103.074 167.35 103.014 167.29 102.942 167.247ZM100.853 159.598L99.484 165.132L90.438 159.599L100.853 159.598ZM38.905 184.347L8.73601 174.68L24.957 164.711L26.234 164.867L16.769 172.158C16.6946 172.216 16.6379 172.293 16.6052 172.381C16.5726 172.469 16.5654 172.564 16.5845 172.656C16.6036 172.748 16.6482 172.833 16.7132 172.901C16.7782 172.968 16.861 173.016 16.952 173.039L43.713 179.799L38.905 184.347ZM50.871 180.576L18.2 172.322L43.276 153.005L67.931 154.948L64.522 156.288L52.543 155.036C52.4143 155.022 52.2848 155.057 52.182 155.136L43.245 162.176C43.1751 162.231 43.1212 162.304 43.0887 162.387C43.0563 162.469 43.0464 162.559 43.0603 162.647C43.0742 162.735 43.1112 162.818 43.1675 162.886C43.2239 162.955 43.2976 163.008 43.381 163.038C43.481 163.076 43.459 163.073 57.781 166.391C57.981 166.437 57.481 166.001 61.157 169.525L50.871 180.576ZM52.905 161.611L56.512 165.074L46.165 162.669L52.905 161.611ZM53.425 160.648C53.192 160.495 53.764 160.461 45.363 161.783L52.263 156.348L54.522 160.217L53.425 160.648ZM55.461 159.848L53.285 156.121L62.5 157.082L55.461 159.848ZM62.017 180.378L66.082 174.259L73.1 180.999L62.017 180.378ZM95.262 182.239L83.612 181.584L97.879 171.634L95.262 182.239ZM77.978 184.291L54.163 161.433L76.908 152.493L101.767 167.699C78.127 184.189 83.09 180.728 77.978 184.29V184.291Z"></path><path fill="#0e2238" d="M23.676 157.3C23.7483 157.346 23.8314 157.373 23.9172 157.378C24.003 157.383 24.0887 157.366 24.166 157.329L38.713 150.237L48.531 149.945C48.6422 149.983 48.7633 149.981 48.873 149.939C49.241 149.798 57.994 146.839 59.516 146.627C59.6075 146.617 59.6946 146.582 59.7677 146.526C59.8407 146.47 59.897 146.395 59.9301 146.31C59.9633 146.224 59.9722 146.131 59.9558 146.04C59.9393 145.949 59.8982 145.865 59.837 145.797C58.537 144.256 60.104 141.009 60.488 140.612C60.572 140.549 60.634 140.461 60.6653 140.361C60.6966 140.26 60.6955 140.153 60.6624 140.053C60.6292 139.954 60.5655 139.867 60.4804 139.806C60.3952 139.745 60.293 139.712 60.188 139.712C57.288 138.266 51.736 136.69 48.924 135.435C48.595 135.287 40.013 135.592 5.00502 136.624C4.87503 136.627 4.75167 136.682 4.66112 136.775C4.57058 136.869 4.51996 136.994 4.52002 137.124V150.739C4.52002 150.871 4.5727 150.998 4.66647 151.092C4.76023 151.186 4.88741 151.239 5.02002 151.239L13.873 150.976L23.676 157.3ZM23.981 156.307L15.637 150.923L36.283 150.309L23.981 156.307ZM59.4 140.438C58.549 141.905 57.934 144.215 58.669 145.791C56.527 146.34 51.209 148.07 49.219 148.752V136.643C52.027 137.781 56.787 139.215 59.4 140.438ZM5.52202 137.606C18.964 137.206 47.159 136.364 48.222 136.349V148.949L5.52202 150.219V137.606Z"></path><path fill="#0e2238" d="M135.518 24.0424C135.56 25.2898 135.972 26.4965 136.703 27.5084C137.434 28.5202 138.449 29.2911 139.621 29.7226C140.792 30.1542 142.065 30.2267 143.278 29.931C144.49 29.6352 145.587 28.9847 146.428 28.0624C147.637 26.8439 148.323 25.2024 148.342 23.4862C148.361 21.7699 147.71 20.1139 146.528 18.8694C145.916 18.2863 145.195 17.83 144.406 17.5267C143.617 17.2234 142.776 17.079 141.932 17.102C141.087 17.1249 140.255 17.3147 139.484 17.6604C138.712 18.0062 138.017 18.501 137.438 19.1164C136.805 19.7673 136.308 20.5386 135.979 21.3847C135.649 22.2309 135.492 23.1346 135.518 24.0424V24.0424ZM142.163 18.0994C147.002 18.0994 149.044 23.9134 145.708 27.3664C145.004 28.1467 144.083 28.6989 143.063 28.9523C142.043 29.2057 140.971 29.1488 139.983 28.7888C138.996 28.4287 138.139 27.7821 137.521 26.9316C136.904 26.0812 136.555 25.0657 136.518 24.0154C136.493 23.2546 136.621 22.4965 136.892 21.7854C137.164 21.0743 137.575 20.4245 138.1 19.8737C138.626 19.323 139.255 18.8825 139.953 18.5778C140.651 18.2732 141.402 18.1105 142.163 18.0994V18.0994Z"></path><path fill="#0e2238" d="M141.618 19.7599C142.126 19.7667 142.627 19.8766 143.091 20.0828C143.555 20.2891 143.973 20.5875 144.318 20.9599C144.365 21.0107 144.422 21.0513 144.485 21.079C144.548 21.1067 144.617 21.121 144.686 21.1209C144.783 21.121 144.878 21.0927 144.96 21.0396C145.041 20.9865 145.105 20.9107 145.144 20.8217C145.183 20.7327 145.196 20.6342 145.18 20.5383C145.164 20.4425 145.12 20.3533 145.054 20.2819C144.618 19.8082 144.09 19.4285 143.503 19.1663C142.915 18.904 142.28 18.7647 141.636 18.7569C141.503 18.755 141.375 18.8059 141.28 18.8984C141.185 18.9908 141.131 19.1173 141.129 19.2499C141.127 19.3825 141.178 19.5104 141.27 19.6055C141.363 19.7006 141.489 19.755 141.622 19.7569L141.618 19.7599Z"></path><path fill="#0e2238" d="M145.965 22.8164C146.064 22.8164 146.161 22.7871 146.243 22.7321C146.325 22.6772 146.389 22.5991 146.427 22.5077C146.465 22.4164 146.475 22.3159 146.455 22.2189C146.436 22.1219 146.388 22.0328 146.319 21.9629C146.249 21.8929 146.16 21.8453 146.063 21.826C145.966 21.8067 145.865 21.8166 145.774 21.8545C145.682 21.8923 145.604 21.9564 145.549 22.0386C145.494 22.1208 145.465 22.2175 145.465 22.3164C145.465 22.449 145.518 22.5762 145.611 22.67C145.705 22.7637 145.832 22.8164 145.965 22.8164Z"></path><path fill="#0e2238" d="M41.719 168.66L34.64 162.56C34.5904 162.515 34.5326 162.481 34.4697 162.46C34.4069 162.438 34.3404 162.429 34.2742 162.434C34.2079 162.438 34.1431 162.456 34.0837 162.485C34.0243 162.515 33.9713 162.556 33.928 162.607C33.8847 162.657 33.8519 162.715 33.8314 162.779C33.8109 162.842 33.8033 162.908 33.8089 162.975C33.8144 163.041 33.8332 163.105 33.8639 163.164C33.8947 163.223 33.9369 163.275 33.988 163.318L40.32 168.774L24.562 170.065C24.4294 170.075 24.3065 170.139 24.2205 170.24C24.1344 170.341 24.0921 170.473 24.103 170.606C24.1139 170.738 24.177 170.861 24.2784 170.947C24.3799 171.033 24.5114 171.075 24.644 171.065L41.383 169.694L49.848 176.987C49.9485 177.073 50.0793 177.116 50.2116 177.106C50.3439 177.097 50.4669 177.035 50.5535 176.934C50.6401 176.834 50.6832 176.703 50.6734 176.57C50.6635 176.438 50.6015 176.315 50.501 176.229L42.782 169.579L58.212 168.315C58.3446 168.304 58.4675 168.241 58.5535 168.139C58.6396 168.038 58.6819 167.906 58.671 167.774C58.6601 167.641 58.597 167.518 58.4956 167.432C58.3941 167.346 58.2626 167.304 58.13 167.315L41.719 168.66Z"></path><path fill="#0e2238" d="M76.7 153.768L67.646 157.576C67.5237 157.627 67.4269 157.725 67.3768 157.848C67.3268 157.971 67.3275 158.108 67.379 158.231C67.4305 158.353 67.5284 158.45 67.6512 158.5C67.774 158.55 67.9117 158.549 68.034 158.498L77.088 154.69C77.1485 154.664 77.2035 154.627 77.2497 154.58C77.2958 154.534 77.3324 154.478 77.3572 154.417C77.3819 154.357 77.3945 154.292 77.3942 154.226C77.3938 154.16 77.3805 154.095 77.355 154.035C77.3295 153.974 77.2924 153.919 77.2457 153.873C77.199 153.827 77.1436 153.79 77.0828 153.766C77.022 153.741 76.9569 153.728 76.8912 153.729C76.8255 153.729 76.7605 153.742 76.7 153.768V153.768Z"></path><path fill="#0e2238" d="M69.076 159.864C69.1013 159.925 69.1384 159.98 69.1851 160.026C69.2317 160.072 69.2871 160.109 69.3479 160.134C69.4087 160.159 69.4739 160.171 69.5396 160.171C69.6053 160.171 69.6704 160.157 69.731 160.132L78.792 156.324C78.9083 156.269 78.9989 156.171 79.0449 156.051C79.0909 155.93 79.0887 155.797 79.0389 155.678C78.989 155.56 78.8952 155.465 78.7772 155.413C78.6591 155.362 78.5258 155.358 78.405 155.403L69.343 159.21C69.2209 159.261 69.1243 159.359 69.0742 159.482C69.0241 159.604 69.0248 159.742 69.076 159.864V159.864Z"></path><path fill="#0e2238" d="M67.038 165.9C76.103 169.011 75.538 168.832 75.665 168.832C75.7829 168.831 75.8967 168.789 75.9864 168.712C76.0761 168.636 76.1359 168.53 76.1553 168.414C76.1746 168.298 76.1523 168.178 76.0923 168.077C76.0322 167.975 75.9383 167.899 75.827 167.86L66.727 164.737L65.127 158.728C65.1102 158.664 65.0811 158.605 65.0412 158.552C65.0014 158.5 64.9517 158.456 64.8949 158.423C64.8381 158.39 64.7754 158.369 64.7103 158.36C64.6452 158.351 64.579 158.355 64.5155 158.372C64.452 158.389 64.3925 158.418 64.3402 158.458C64.288 158.498 64.2441 158.547 64.2111 158.604C64.1781 158.661 64.1566 158.724 64.1478 158.789C64.1391 158.854 64.1432 158.92 64.16 158.984L65.584 164.346L56.86 161.352C56.7972 161.327 56.73 161.315 56.6625 161.317C56.5949 161.319 56.5285 161.335 56.4672 161.363C56.4059 161.391 56.3509 161.432 56.3057 161.482C56.2604 161.532 56.2258 161.591 56.2039 161.655C56.182 161.719 56.1733 161.786 56.1782 161.854C56.1832 161.921 56.2018 161.987 56.2328 162.047C56.2638 162.107 56.3067 162.16 56.3588 162.203C56.4109 162.246 56.4712 162.278 56.536 162.297L65.893 165.509L67.844 172.852C67.878 172.98 67.9615 173.089 68.0762 173.156C68.1908 173.223 68.3273 173.241 68.4555 173.207C68.5838 173.173 68.6933 173.09 68.7599 172.975C68.8266 172.86 68.845 172.724 68.811 172.596L67.038 165.9Z"></path><path fill="#0e2238" d="M71.245 160.874C71.1144 160.862 70.9844 160.902 70.8829 160.985C70.7815 161.068 70.7167 161.187 70.7025 161.318C70.6884 161.448 70.7259 161.579 70.8072 161.682C70.8885 161.785 71.0069 161.851 71.137 161.868L80.626 162.907L80.317 169.533C80.3139 169.598 80.3238 169.664 80.346 169.726C80.3683 169.788 80.4026 169.845 80.4468 169.893C80.5362 169.991 80.6609 170.05 80.7935 170.056C80.9261 170.063 81.0557 170.016 81.1539 169.926C81.2521 169.837 81.3107 169.712 81.317 169.58L81.623 163.017C92.639 164.223 91.193 164.074 91.309 164.074C91.4416 164.081 91.5716 164.035 91.6704 163.946C91.7693 163.858 91.8288 163.733 91.836 163.601C91.8431 163.468 91.7973 163.338 91.7086 163.239C91.6199 163.14 91.4956 163.081 91.363 163.074L81.669 162.013L81.915 156.744C81.9212 156.611 81.8745 156.482 81.7851 156.383C81.6958 156.285 81.5711 156.227 81.4385 156.22C81.3059 156.214 81.1762 156.261 81.078 156.35C80.9799 156.439 80.9212 156.564 80.915 156.697L80.672 161.903L71.245 160.874Z"></path><path fill="#0e2238" d="M78.954 169.971C78.9202 169.914 78.8757 169.865 78.823 169.826C78.7702 169.787 78.7103 169.759 78.6466 169.743C78.5829 169.727 78.5167 169.723 78.4517 169.733C78.3867 169.743 78.3243 169.765 78.268 169.799L70.221 174.622C70.127 174.678 70.0541 174.763 70.0135 174.865C69.9729 174.967 69.9667 175.079 69.996 175.184C70.0253 175.29 70.0884 175.383 70.1757 175.449C70.2629 175.515 70.3695 175.551 70.479 175.551C70.679 175.551 69.967 175.928 78.779 170.656C78.893 170.588 78.9755 170.478 79.0083 170.349C79.0411 170.221 79.0216 170.085 78.954 169.971V169.971Z"></path><path fill="#0e2238" d="M72.9 177.615C72.967 177.73 73.0767 177.813 73.2049 177.846C73.3332 177.88 73.4695 177.861 73.584 177.794L94.347 165.611C94.4616 165.544 94.5448 165.434 94.5784 165.306C94.6119 165.177 94.5931 165.041 94.526 164.926C94.4589 164.812 94.349 164.729 94.2206 164.695C94.0921 164.661 93.9556 164.68 93.841 164.747L73.078 176.931C72.9637 176.998 72.8808 177.108 72.8474 177.236C72.814 177.365 72.833 177.501 72.9 177.615Z"></path><path fill="#0e2238" d="M76.124 180.536C76.1602 180.59 76.2069 180.638 76.2613 180.674C76.3158 180.711 76.3769 180.737 76.4413 180.75C76.5056 180.763 76.5719 180.763 76.6364 180.751C76.7009 180.738 76.7622 180.713 76.817 180.677L96.887 167.392C96.9417 167.355 96.9888 167.309 97.0255 167.254C97.0623 167.2 97.0879 167.139 97.101 167.074C97.1141 167.01 97.1144 166.944 97.1019 166.879C97.0893 166.815 97.0642 166.753 97.028 166.699C96.9917 166.644 96.9451 166.597 96.8906 166.56C96.8362 166.523 96.775 166.498 96.7107 166.485C96.6463 166.472 96.58 166.471 96.5156 166.484C96.4511 166.496 96.3897 166.521 96.335 166.558L76.265 179.843C76.2102 179.879 76.1631 179.926 76.1264 179.98C76.0897 180.034 76.064 180.096 76.0509 180.16C76.0378 180.224 76.0376 180.291 76.0501 180.355C76.0626 180.42 76.0877 180.481 76.124 180.536V180.536Z"></path><path fill="#0e2238" d="M37.1 161.835C37.37 161.835 36.79 162.235 45.293 155.122C45.3471 155.081 45.3924 155.029 45.426 154.97C45.4596 154.911 45.4808 154.846 45.4884 154.779C45.4961 154.712 45.4899 154.643 45.4703 154.578C45.4508 154.513 45.4182 154.453 45.3746 154.401C45.331 154.349 45.2773 154.307 45.2168 154.276C45.1562 154.246 45.0901 154.228 45.0224 154.224C44.9547 154.219 44.8869 154.229 44.8231 154.252C44.7592 154.275 44.7007 154.31 44.651 154.357L36.779 160.952C36.7005 161.018 36.6441 161.106 36.6175 161.205C36.591 161.304 36.5955 161.409 36.6306 161.505C36.6656 161.602 36.7294 161.685 36.8134 161.744C36.8974 161.803 36.9975 161.834 37.1 161.835Z"></path><path fill="#0e2238" d="M40.362 162.309C40.4482 162.408 40.5699 162.47 40.7009 162.48C40.8319 162.49 40.9616 162.448 41.062 162.363L48.898 155.663C48.9988 155.577 49.0612 155.454 49.0715 155.322C49.0818 155.19 49.0392 155.059 48.953 154.958C48.8668 154.857 48.7441 154.795 48.6119 154.785C48.4797 154.774 48.3488 154.817 48.248 154.903L40.413 161.603C40.3632 161.646 40.3224 161.699 40.2929 161.757C40.2634 161.816 40.2458 161.88 40.241 161.946C40.2363 162.011 40.2445 162.077 40.2653 162.139C40.2861 162.202 40.3189 162.26 40.362 162.309V162.309Z"></path><path fill="#0e2238" d="M117.029 170.6C117.041 170.664 117.066 170.726 117.102 170.781C117.137 170.836 117.184 170.884 117.238 170.921C117.292 170.958 117.353 170.984 117.418 170.997C117.482 171.011 117.548 171.012 117.613 171L138.953 166.973C139.019 166.962 139.083 166.939 139.14 166.903C139.197 166.868 139.246 166.822 139.285 166.767C139.323 166.712 139.351 166.65 139.365 166.585C139.379 166.519 139.38 166.451 139.367 166.385C139.355 166.32 139.329 166.257 139.292 166.201C139.255 166.145 139.207 166.098 139.151 166.061C139.095 166.024 139.032 165.999 138.966 165.987C138.9 165.975 138.832 165.976 138.767 165.991L117.428 170.018C117.298 170.042 117.183 170.117 117.108 170.226C117.034 170.335 117.005 170.47 117.029 170.6Z"></path><path fill="#0e2238" d="M119.878 174.053C119.893 174.117 119.92 174.178 119.958 174.231C119.996 174.285 120.044 174.331 120.1 174.366C120.156 174.4 120.218 174.424 120.283 174.435C120.348 174.446 120.414 174.444 120.478 174.429L141.139 169.701C141.206 169.689 141.269 169.664 141.325 169.626C141.382 169.589 141.43 169.541 141.467 169.485C141.504 169.428 141.53 169.365 141.542 169.298C141.554 169.232 141.553 169.164 141.538 169.098C141.523 169.032 141.494 168.97 141.455 168.915C141.415 168.861 141.365 168.814 141.307 168.78C141.249 168.745 141.184 168.723 141.117 168.714C141.05 168.704 140.982 168.709 140.917 168.727L120.255 173.454C120.191 173.469 120.13 173.496 120.077 173.534C120.023 173.571 119.977 173.62 119.942 173.675C119.907 173.731 119.884 173.793 119.873 173.858C119.862 173.923 119.863 173.989 119.878 174.053Z"></path><path fill="#0e2238" d="M122.484 177.653C122.514 177.782 122.595 177.893 122.707 177.963C122.82 178.033 122.955 178.055 123.084 178.025L144.744 172.933C144.81 172.92 144.873 172.894 144.928 172.856C144.984 172.818 145.031 172.77 145.068 172.714C145.104 172.657 145.129 172.594 145.14 172.528C145.152 172.462 145.15 172.394 145.134 172.328C145.119 172.263 145.091 172.201 145.051 172.147C145.011 172.093 144.961 172.047 144.903 172.013C144.846 171.978 144.782 171.956 144.715 171.947C144.649 171.938 144.581 171.942 144.516 171.96L122.855 177.052C122.726 177.083 122.615 177.163 122.545 177.276C122.476 177.388 122.454 177.524 122.484 177.653Z"></path><path fill="#0e2238" d="M149.734 158.439C149.758 158.569 149.833 158.684 149.942 158.759C150.051 158.834 150.185 158.863 150.315 158.839L167.615 155.717C167.68 155.706 167.742 155.682 167.798 155.647C167.854 155.611 167.902 155.565 167.94 155.511C167.977 155.457 168.004 155.396 168.018 155.332C168.032 155.267 168.034 155.201 168.022 155.136C168.01 155.071 167.986 155.009 167.95 154.953C167.914 154.898 167.868 154.85 167.813 154.813C167.759 154.775 167.698 154.749 167.633 154.735C167.568 154.722 167.502 154.721 167.437 154.733L150.137 157.855C150.072 157.867 150.01 157.891 149.955 157.927C149.899 157.963 149.851 158.009 149.814 158.063C149.776 158.118 149.75 158.179 149.736 158.243C149.723 158.308 149.722 158.374 149.734 158.439Z"></path><path fill="#0e2238" d="M154.229 161.7C154.262 161.828 154.344 161.938 154.458 162.006C154.572 162.074 154.708 162.093 154.837 162.061L171.055 157.924C171.119 157.908 171.179 157.879 171.232 157.84C171.285 157.801 171.33 157.751 171.363 157.695C171.397 157.638 171.419 157.576 171.429 157.51C171.438 157.445 171.435 157.379 171.419 157.315C171.402 157.251 171.374 157.191 171.334 157.138C171.295 157.086 171.245 157.041 171.188 157.008C171.131 156.974 171.069 156.952 171.003 156.943C170.938 156.934 170.872 156.938 170.808 156.955L154.59 161.092C154.461 161.124 154.351 161.207 154.284 161.321C154.216 161.435 154.196 161.571 154.229 161.7Z"></path><path fill="#0e2238" d="M157.918 165.08C157.939 165.142 157.973 165.199 158.016 165.249C158.06 165.298 158.113 165.338 158.172 165.367C158.231 165.396 158.295 165.412 158.361 165.416C158.426 165.42 158.492 165.411 158.554 165.39L175.006 159.699C175.131 159.655 175.233 159.563 175.29 159.445C175.347 159.326 175.355 159.189 175.312 159.064C175.269 158.939 175.178 158.837 175.059 158.779C174.941 158.72 174.804 158.712 174.679 158.754L158.227 164.445C158.102 164.488 157.999 164.58 157.941 164.699C157.883 164.818 157.875 164.955 157.918 165.08V165.08Z"></path><path fill="#0e2238" d="M161.673 167.922C161.699 167.982 161.736 168.037 161.783 168.083C161.83 168.129 161.885 168.165 161.946 168.19C162.007 168.214 162.072 168.227 162.138 168.226C162.204 168.225 162.269 168.212 162.329 168.186L179.044 161.051C179.166 160.999 179.262 160.9 179.312 160.777C179.361 160.654 179.36 160.517 179.308 160.395C179.255 160.273 179.157 160.176 179.034 160.127C178.911 160.077 178.773 160.079 178.651 160.131L161.937 167.266C161.877 167.292 161.822 167.329 161.776 167.376C161.73 167.423 161.694 167.478 161.669 167.539C161.645 167.6 161.632 167.665 161.633 167.731C161.634 167.797 161.647 167.862 161.673 167.922Z"></path><path fill="#0e2238" d="M184.49 168.416L175.381 169.016L176.211 165.516C176.241 165.387 176.219 165.252 176.149 165.139C176.08 165.027 175.969 164.946 175.84 164.916C175.776 164.9 175.71 164.897 175.645 164.907C175.58 164.918 175.518 164.941 175.462 164.975C175.406 165.01 175.358 165.055 175.32 165.109C175.282 165.162 175.254 165.223 175.24 165.287L174.34 169.092L165.203 169.697C165.07 169.706 164.947 169.767 164.859 169.867C164.772 169.967 164.728 170.098 164.736 170.23C164.745 170.363 164.807 170.486 164.907 170.574C165.007 170.661 165.137 170.706 165.27 170.697L174.099 170.113L172.699 176.036C172.671 176.164 172.695 176.297 172.765 176.408C172.835 176.519 172.945 176.598 173.073 176.628C173.2 176.658 173.334 176.637 173.446 176.569C173.558 176.502 173.639 176.393 173.672 176.266L175.146 170.043L184.563 169.42C184.696 169.411 184.819 169.35 184.907 169.25C184.994 169.15 185.039 169.019 185.03 168.887C185.021 168.754 184.96 168.63 184.86 168.543C184.76 168.455 184.63 168.411 184.497 168.42L184.49 168.416Z"></path><path fill="#0e2238" d="M177.678 164.564C177.737 164.682 177.841 164.772 177.967 164.814C178.092 164.856 178.229 164.847 178.348 164.788L182.948 162.497C183.01 162.47 183.066 162.43 183.113 162.381C183.159 162.332 183.195 162.273 183.219 162.209C183.242 162.146 183.252 162.078 183.248 162.01C183.244 161.942 183.227 161.876 183.197 161.815C183.166 161.755 183.124 161.701 183.072 161.657C183.021 161.613 182.96 161.58 182.895 161.56C182.831 161.54 182.762 161.534 182.695 161.541C182.627 161.548 182.562 161.569 182.503 161.603L177.903 163.894C177.784 163.953 177.694 164.057 177.652 164.182C177.61 164.308 177.619 164.445 177.678 164.564V164.564Z"></path><path fill="#0e2238" d="M181.523 166.22C181.553 166.279 181.593 166.332 181.643 166.374C181.693 166.417 181.751 166.45 181.813 166.471C181.875 166.491 181.941 166.5 182.007 166.495C182.072 166.49 182.136 166.472 182.195 166.442L186.762 164.142C186.821 164.113 186.874 164.073 186.917 164.023C186.961 163.973 186.994 163.915 187.015 163.853C187.035 163.79 187.044 163.724 187.039 163.658C187.034 163.592 187.016 163.528 186.987 163.469C186.957 163.41 186.916 163.358 186.866 163.315C186.816 163.272 186.758 163.239 186.695 163.219C186.632 163.198 186.566 163.191 186.501 163.196C186.435 163.201 186.371 163.219 186.312 163.249L181.745 165.549C181.627 165.609 181.537 165.713 181.495 165.839C181.454 165.965 181.464 166.102 181.523 166.22Z"></path></svg>