<svg xmlns="http://www.w3.org/2000/svg" fill="none" viewBox="0 0 200 200" height="700" width="700"><path fill="#ffffff" fill-rule="evenodd" d="M21.019 5V140.556L179.236 132.612V26.645L21.019 5Z" clip-rule="evenodd"></path><path fill="#0e2238" d="M21.059 140.919C20.959 140.825 20.52 140.695 20.519 140.558V4.99998C20.519 4.79998 20.883 4.65698 21.052 4.67398C26.166 5.18898 53.025 9.05498 179.175 26.147C179.422 26.181 179.736 26.391 179.736 26.641V132.611C179.736 132.878 179.656 133.098 179.39 133.111C14.146 141.2 21.3 141.146 21.059 140.919ZM21.519 5.57298V140.03L178.736 132.136V27.082L21.519 5.57298Z"></path><path fill="#0e2238" d="M91.1 58.3C91.0167 58.2999 90.9348 58.279 90.8616 58.2392C90.7884 58.1994 90.7263 58.1419 90.681 58.072L74.459 33.149L62.721 43.276C62.6577 43.3308 62.5816 43.3688 62.4997 43.3865C62.4179 43.4042 62.3329 43.4011 62.2525 43.3774C62.1722 43.3537 62.0991 43.3102 62.04 43.2509C61.9808 43.1916 61.9375 43.1184 61.914 43.038L56.039 22.98L37.887 39.942C37.8398 39.9903 37.7832 40.0285 37.7208 40.0543C37.6584 40.0801 37.5914 40.093 37.5239 40.0922C37.4564 40.0914 37.3897 40.0769 37.3279 40.0496C37.2662 40.0224 37.2105 39.9829 37.1644 39.9335C37.1183 39.8842 37.0827 39.826 37.0597 39.7625C37.0367 39.699 37.0268 39.6315 37.0306 39.5641C37.0344 39.4967 37.0518 39.4307 37.0818 39.3702C37.1117 39.3097 37.1537 39.2559 37.205 39.212L55.949 21.7C56.0114 21.6418 56.0876 21.6005 56.1705 21.5801C56.2533 21.5597 56.34 21.5608 56.4223 21.5833C56.5046 21.6059 56.5798 21.6491 56.6406 21.7089C56.7015 21.7687 56.746 21.8431 56.77 21.925L62.656 42.016L74.24 32.017C74.2941 31.9706 74.3575 31.9363 74.4259 31.9163C74.4944 31.8964 74.5663 31.8913 74.6368 31.9015C74.7074 31.9116 74.7749 31.9367 74.835 31.9751C74.895 32.0135 74.9462 32.0642 74.985 32.124L91.185 57.01L112.495 36.039C112.551 35.9833 112.62 35.9419 112.696 35.918C112.771 35.8941 112.851 35.8885 112.93 35.9017C113.008 35.9149 113.082 35.9465 113.145 35.9938C113.209 36.0412 113.26 36.1029 113.295 36.174L119.515 48.748L133.915 37.039C133.97 36.9945 134.033 36.9621 134.101 36.9439C134.169 36.9257 134.241 36.9221 134.31 36.9333C134.38 36.9446 134.446 36.9704 134.505 37.0091C134.564 37.0478 134.614 37.0986 134.652 37.158L146.552 55.87L161.899 40.97C161.946 40.9241 162.002 40.8878 162.063 40.8633C162.124 40.8389 162.189 40.8266 162.255 40.8274C162.32 40.8281 162.385 40.8418 162.446 40.8677C162.506 40.8935 162.561 40.931 162.607 40.978C162.653 41.025 162.689 41.0806 162.714 41.1417C162.738 41.2027 162.75 41.2679 162.75 41.3337C162.749 41.3994 162.735 41.4644 162.709 41.5248C162.684 41.5853 162.646 41.6401 162.599 41.686L146.8 57.014C146.747 57.0658 146.683 57.1051 146.613 57.129C146.542 57.1529 146.468 57.1609 146.394 57.1524C146.32 57.1439 146.249 57.1191 146.186 57.0797C146.123 57.0404 146.07 56.9875 146.03 56.925L134.1 38.169L119.652 49.919C119.594 49.9665 119.526 50.0002 119.453 50.0177C119.38 50.0351 119.303 50.0359 119.23 50.02C119.157 50.004 119.088 49.9718 119.029 49.9255C118.969 49.8793 118.921 49.8204 118.888 49.753L112.7 37.236C90.026 59.549 91.413 58.3 91.1 58.3Z"></path><path fill="#def6f8" fill-rule="evenodd" d="M116.1 88.9159V66.5869H122.791L122.53 88.9159H116.1Z" clip-rule="evenodd"></path><path fill="#00bac7" fill-rule="evenodd" d="M128.048 88.916L127.733 74.194L122.788 74.094L122.527 88.912L128.048 88.916Z" clip-rule="evenodd"></path><path fill="#def6f8" fill-rule="evenodd" d="M131.789 88.915L132.189 67.407L137.83 67.496V89.149L131.789 88.915Z" clip-rule="evenodd"></path><path fill="#00bac7" fill-rule="evenodd" d="M137.834 89.1489V75.1229L142.62 75.4869L143.256 89.3599L137.834 89.1489Z" clip-rule="evenodd"></path><path fill="#def6f8" fill-rule="evenodd" d="M153.881 89.657L153.666 67.407H148.046L147.533 89.36L153.881 89.657Z" clip-rule="evenodd"></path><path fill="#00bac7" fill-rule="evenodd" d="M153.881 89.657V75.323L158.459 75.672L158.927 89.657H153.881Z" clip-rule="evenodd"></path><path fill="#0e2238" d="M161.446 89.3L154.223 89.16V75.079C154.223 74.479 153.223 74.359 153.223 75.085V89.144L148.154 89.044L148.561 67.417C148.564 67.2844 148.514 67.1562 148.422 67.0605C148.33 66.9649 148.204 66.9097 148.071 66.907C147.938 66.9044 147.81 66.9545 147.715 67.0464C147.619 67.1383 147.564 67.2644 147.561 67.397L147.154 89.024L138.354 88.853V75.079C138.353 74.9464 138.3 74.8195 138.205 74.7263C138.111 74.6331 137.984 74.5812 137.851 74.582C137.718 74.5828 137.592 74.6362 137.498 74.7306C137.405 74.8249 137.353 74.9524 137.354 75.085V88.833L132.292 88.733L132.692 67.417C132.693 67.3513 132.682 67.2861 132.658 67.2249C132.634 67.1637 132.598 67.1079 132.553 67.0605C132.507 67.0131 132.453 66.9752 132.393 66.9489C132.332 66.9225 132.268 66.9083 132.202 66.907C132.07 66.9076 131.944 66.9589 131.849 67.0501C131.754 67.1413 131.698 67.2655 131.692 67.397L131.292 88.713L123.03 88.551L123.199 74.045C123.2 73.9793 123.188 73.9142 123.163 73.8532C123.139 73.7922 123.103 73.7367 123.057 73.6897C123.011 73.6427 122.956 73.6052 122.896 73.5794C122.836 73.5535 122.771 73.5398 122.705 73.539C122.639 73.5382 122.574 73.5504 122.513 73.5748C122.452 73.5992 122.397 73.6353 122.35 73.6812C122.303 73.7271 122.265 73.7818 122.239 73.8421C122.214 73.9025 122.2 73.9673 122.199 74.033L122.03 88.533L116.596 88.426V66.682C116.596 66.5494 116.543 66.4222 116.45 66.3285C116.356 66.2347 116.229 66.182 116.096 66.182C115.963 66.182 115.836 66.2347 115.743 66.3285C115.649 66.4222 115.596 66.5494 115.596 66.682C115.596 73.705 115.603 89.055 115.596 88.942C115.603 89.0682 115.657 89.1872 115.747 89.2751C115.838 89.3631 115.959 89.4134 116.085 89.416L161.434 90.304C161.567 90.3053 161.694 90.2539 161.789 90.1611C161.884 90.0683 161.938 89.9416 161.939 89.809C161.94 89.6764 161.889 89.5487 161.796 89.454C161.703 89.3593 161.577 89.3053 161.444 89.304L161.446 89.3Z"></path><path fill="#def6f8" fill-rule="evenodd" d="M100 101.547L100.246 111.587L109.604 111.044L114.771 105.325L109.641 101.239L100 101.547Z" clip-rule="evenodd"></path><path fill="#def6f8" fill-rule="evenodd" d="M100.772 117.607V127.707L110.426 127.358L115.594 121.64L110.465 117.606L100.772 117.607Z" clip-rule="evenodd"></path><path fill="#def6f8" fill-rule="evenodd" d="M112.416 101.239L117.859 105.209L112.864 111.043L161.923 109.562L161.784 99.698L112.416 101.239Z" clip-rule="evenodd"></path><path fill="#def6f8" fill-rule="evenodd" d="M113.239 117.555L118.683 121.526L113.683 127.36L162.742 125.879L162.604 116.014L113.239 117.555Z" clip-rule="evenodd"></path><path fill="#0e2238" d="M100.246 112.087C100.115 112.087 99.9898 112.036 99.8963 111.944C99.8028 111.853 99.7489 111.729 99.746 111.598L99.5 101.559C99.4984 101.493 99.5098 101.428 99.5335 101.367C99.5571 101.305 99.5926 101.249 99.6379 101.202C99.6833 101.154 99.7375 101.116 99.7976 101.09C99.8576 101.063 99.9224 101.049 99.988 101.047C100.119 101.049 100.244 101.101 100.339 101.191C100.434 101.282 100.491 101.404 100.5 101.535L100.733 111.057L109.371 110.557L114.4 104.991C114.489 104.892 114.613 104.833 114.746 104.826C114.878 104.82 115.008 104.866 115.107 104.954C115.205 105.043 115.264 105.168 115.271 105.3C115.278 105.433 115.232 105.562 115.143 105.661L109.975 111.38C109.887 111.477 109.764 111.536 109.633 111.544L100.246 112.087Z"></path><path fill="#0e2238" d="M100.8 128.209C100.666 128.203 100.539 128.15 100.441 128.058C100.344 127.966 100.283 127.842 100.269 127.709V117.609C100.266 117.545 100.275 117.481 100.297 117.421C100.319 117.362 100.353 117.307 100.397 117.26C100.44 117.213 100.493 117.176 100.551 117.15C100.609 117.124 100.672 117.11 100.736 117.109C100.804 117.105 100.873 117.114 100.937 117.137C101.002 117.161 101.061 117.197 101.11 117.244C101.16 117.29 101.2 117.347 101.227 117.41C101.254 117.473 101.268 117.54 101.268 117.609V127.195L110.194 126.872L115.22 121.311C115.264 121.26 115.317 121.219 115.376 121.19C115.436 121.16 115.501 121.142 115.568 121.138C115.634 121.134 115.701 121.143 115.764 121.165C115.827 121.187 115.884 121.222 115.934 121.266C115.983 121.311 116.023 121.365 116.052 121.425C116.08 121.486 116.096 121.551 116.098 121.618C116.101 121.684 116.09 121.751 116.067 121.813C116.043 121.875 116.008 121.933 115.962 121.981L110.795 127.699C110.75 127.749 110.696 127.789 110.635 127.817C110.575 127.846 110.509 127.861 110.442 127.864L100.8 128.209Z"></path><path fill="#0e2238" d="M112.864 111.543C112.768 111.543 112.675 111.516 112.594 111.464C112.514 111.413 112.45 111.339 112.41 111.252C112.37 111.165 112.356 111.069 112.369 110.974C112.382 110.88 112.422 110.791 112.484 110.718L117.128 105.294L112.122 101.643C112.066 101.605 112.019 101.557 111.982 101.501C111.945 101.444 111.92 101.381 111.909 101.315C111.897 101.249 111.899 101.181 111.914 101.115C111.929 101.05 111.957 100.988 111.997 100.934C112.036 100.879 112.086 100.834 112.144 100.799C112.202 100.765 112.266 100.742 112.332 100.733C112.399 100.724 112.467 100.728 112.532 100.745C112.597 100.763 112.657 100.793 112.71 100.835L118.154 104.804C118.21 104.845 118.257 104.896 118.292 104.956C118.326 105.016 118.348 105.082 118.356 105.15C118.364 105.219 118.358 105.288 118.338 105.354C118.318 105.421 118.284 105.482 118.239 105.534L113.979 110.509L161.908 109.062C162.041 109.058 162.169 109.107 162.266 109.198C162.363 109.289 162.419 109.414 162.423 109.547C162.427 109.68 162.378 109.808 162.287 109.905C162.196 110.002 162.071 110.058 161.938 110.062L112.864 111.543Z"></path><path fill="#0e2238" d="M113.687 127.86C113.592 127.86 113.498 127.833 113.417 127.781C113.337 127.73 113.273 127.656 113.233 127.569C113.193 127.482 113.179 127.386 113.192 127.291C113.205 127.197 113.245 127.108 113.307 127.035L117.951 121.611L112.945 117.96C112.892 117.921 112.847 117.873 112.813 117.817C112.778 117.76 112.756 117.698 112.745 117.633C112.735 117.568 112.738 117.502 112.753 117.438C112.769 117.374 112.796 117.314 112.835 117.261C112.874 117.208 112.923 117.163 112.979 117.129C113.035 117.094 113.097 117.071 113.162 117.061C113.227 117.051 113.293 117.054 113.357 117.069C113.421 117.085 113.481 117.112 113.534 117.151L118.977 121.121C119.033 121.162 119.079 121.213 119.114 121.273C119.149 121.332 119.171 121.398 119.179 121.467C119.187 121.535 119.181 121.605 119.161 121.671C119.14 121.737 119.107 121.798 119.062 121.85L114.802 126.826L162.731 125.379C162.797 125.377 162.862 125.388 162.924 125.411C162.985 125.435 163.041 125.47 163.089 125.515C163.137 125.56 163.175 125.614 163.202 125.674C163.229 125.734 163.244 125.798 163.246 125.864C163.248 125.93 163.237 125.995 163.214 126.057C163.19 126.118 163.155 126.174 163.11 126.222C163.065 126.27 163.011 126.308 162.951 126.335C162.891 126.362 162.827 126.377 162.761 126.379L113.687 127.86Z"></path><path fill="#00bac7" fill-rule="evenodd" d="M38.192 37.581C38.5161 37.5616 38.8386 37.64 39.1177 37.8059C39.3968 37.9719 39.6195 38.2179 39.7572 38.512C39.8948 38.8061 39.941 39.1347 39.8897 39.4553C39.8383 39.7759 39.6919 40.0738 39.4694 40.3102C39.2468 40.5466 38.9584 40.7108 38.6414 40.7814C38.3245 40.8519 37.9937 40.8257 37.6918 40.7061C37.39 40.5865 37.131 40.379 36.9484 40.1104C36.7659 39.8419 36.6682 39.5247 36.668 39.2C36.6559 38.7834 36.8095 38.3789 37.0953 38.0754C37.381 37.7719 37.7754 37.5941 38.192 37.581V37.581Z" clip-rule="evenodd"></path><path fill="#00bac7" fill-rule="evenodd" d="M62.5 40.817C62.8242 40.7976 63.1467 40.8759 63.4258 41.042C63.7049 41.208 63.9277 41.454 64.0653 41.7482C64.2029 42.0423 64.249 42.371 64.1976 42.6917C64.1462 43.0123 63.9996 43.3101 63.777 43.5465C63.5543 43.7829 63.2658 43.947 62.9488 44.0175C62.6318 44.0879 62.3009 44.0616 61.9991 43.9418C61.6973 43.822 61.4383 43.6143 61.2559 43.3457C61.0735 43.077 60.976 42.7597 60.976 42.435C60.9639 42.0184 61.1176 41.6141 61.4033 41.3107C61.689 41.0074 62.0835 40.8298 62.5 40.817V40.817Z" clip-rule="evenodd"></path><path fill="#00bac7" fill-rule="evenodd" d="M56.126 20.529C56.4501 20.51 56.7725 20.5887 57.0513 20.755C57.3301 20.9213 57.5526 21.1675 57.6899 21.4617C57.8272 21.7559 57.873 22.0846 57.8214 22.4051C57.7697 22.7256 57.623 23.0233 57.4003 23.2594C57.1775 23.4956 56.889 23.6595 56.572 23.7298C56.255 23.8001 55.9243 23.7736 55.6225 23.6537C55.3208 23.5339 55.062 23.3262 54.8797 23.0575C54.6974 22.7889 54.6 22.4717 54.6 22.147C54.5882 21.7302 54.7422 21.3257 55.0283 21.0224C55.3144 20.719 55.7092 20.5416 56.126 20.529V20.529Z" clip-rule="evenodd"></path><path fill="#00bac7" fill-rule="evenodd" d="M74.5481 30.93C74.8722 30.9106 75.1948 30.989 75.4738 31.155C75.7529 31.321 75.9757 31.5671 76.1133 31.8612C76.2509 32.1554 76.297 32.484 76.2456 32.8047C76.1942 33.1253 76.0477 33.4232 75.8251 33.6596C75.6024 33.8959 75.3139 34.06 74.9969 34.1305C74.6799 34.201 74.349 34.1746 74.0472 34.0548C73.7453 33.935 73.4864 33.7274 73.304 33.4587C73.1216 33.19 73.0241 32.8728 73.0241 32.548C73.0122 32.1315 73.166 31.7273 73.4517 31.4241C73.7373 31.1208 74.1316 30.9431 74.5481 30.93V30.93Z" clip-rule="evenodd"></path><path fill="#00bac7" fill-rule="evenodd" d="M91.2441 55.706C91.6026 55.6945 91.9564 55.791 92.2595 55.9829C92.5626 56.1748 92.8011 56.4534 92.944 56.7824C93.087 57.1114 93.1278 57.4758 93.0613 57.8284C92.9947 58.1809 92.8238 58.5053 92.5707 58.7596C92.3176 59.0138 91.994 59.1862 91.6418 59.2544C91.2896 59.3226 90.925 59.2835 90.5953 59.142C90.2656 59.0006 89.9859 58.7634 89.7926 58.4612C89.5993 58.1589 89.5012 57.8056 89.511 57.447C89.5105 56.9865 89.6927 56.5445 90.0176 56.2182C90.3424 55.8918 90.7835 55.7076 91.2441 55.706Z" clip-rule="evenodd"></path><path fill="#00bac7" fill-rule="evenodd" d="M112.681 35.474C113.005 35.4545 113.328 35.5329 113.607 35.6989C113.886 35.8649 114.109 36.1108 114.246 36.4049C114.384 36.699 114.43 37.0277 114.379 37.3483C114.327 37.6689 114.181 37.9667 113.958 38.2031C113.736 38.4396 113.447 38.6037 113.13 38.6743C112.813 38.7449 112.483 38.7187 112.181 38.599C111.879 38.4794 111.62 38.2719 111.437 38.0034C111.255 37.7348 111.157 37.4177 111.157 37.093C111.145 36.6764 111.299 36.2721 111.585 35.9686C111.87 35.6652 112.264 35.4873 112.681 35.474Z" clip-rule="evenodd"></path><path fill="#00bac7" fill-rule="evenodd" d="M119.451 47.808C119.775 47.7885 120.098 47.8669 120.377 48.0329C120.656 48.199 120.879 48.445 121.016 48.7391C121.154 49.0333 121.2 49.362 121.149 49.6826C121.097 50.0033 120.951 50.3011 120.728 50.5375C120.505 50.7739 120.217 50.9379 119.9 51.0084C119.583 51.0789 119.252 51.0525 118.95 50.9328C118.648 50.813 118.389 50.6053 118.207 50.3366C118.025 50.068 117.927 49.7507 117.927 49.426C117.915 49.0094 118.069 48.6051 118.354 48.3017C118.64 47.9983 119.035 47.8208 119.451 47.808V47.808Z" clip-rule="evenodd"></path><path fill="#00bac7" fill-rule="evenodd" d="M133.884 36.206C134.208 36.1863 134.531 36.2645 134.81 36.4304C135.089 36.5963 135.312 36.8423 135.45 37.1364C135.588 37.4305 135.634 37.7592 135.583 38.0799C135.531 38.4006 135.385 38.6986 135.162 38.935C134.94 39.1715 134.651 39.3357 134.334 39.4063C134.017 39.4768 133.686 39.4506 133.384 39.3308C133.082 39.2111 132.824 39.0034 132.641 38.7347C132.459 38.466 132.361 38.1488 132.361 37.824C132.349 37.4076 132.502 37.0034 132.788 36.7C133.073 36.3967 133.468 36.219 133.884 36.206V36.206Z" clip-rule="evenodd"></path><path fill="#00bac7" fill-rule="evenodd" d="M146.534 54.264C146.858 54.2446 147.181 54.323 147.46 54.489C147.739 54.655 147.962 54.9011 148.099 55.1952C148.237 55.4893 148.283 55.818 148.232 56.1387C148.18 56.4593 148.034 56.7571 147.811 56.9935C147.588 57.2299 147.3 57.394 146.983 57.4645C146.666 57.5349 146.335 57.5086 146.033 57.3888C145.731 57.269 145.472 57.0613 145.29 56.7927C145.108 56.524 145.01 56.2068 145.01 55.882C144.998 55.4655 145.152 55.0613 145.438 54.758C145.723 54.4547 146.118 54.2771 146.534 54.264V54.264Z" clip-rule="evenodd"></path><path fill="#00bac7" fill-rule="evenodd" d="M162.241 39.644C162.565 39.6247 162.887 39.7033 163.166 39.8694C163.445 40.0355 163.668 40.2816 163.805 40.5757C163.943 40.8698 163.989 41.1984 163.938 41.519C163.886 41.8395 163.74 42.1372 163.517 42.3736C163.294 42.6099 163.006 42.7739 162.689 42.8444C162.372 42.9149 162.041 42.8886 161.74 42.769C161.438 42.6493 161.179 42.4418 160.996 42.1733C160.814 41.9047 160.716 41.5876 160.716 41.263C160.704 40.8461 160.858 40.4415 161.144 40.138C161.43 39.8344 161.824 39.6568 162.241 39.644V39.644Z" clip-rule="evenodd"></path><path fill="#def6f8" fill-rule="evenodd" d="M68.665 75.135L70.091 74.776L74 79.6C74 79.6 77.457 79.44 79.024 81.81C80.591 84.18 87.288 93.91 87.288 93.91L97.764 87.235C97.764 87.235 101.142 88.671 102.456 94.198C102.456 94.198 91.489 103.109 86.832 102.93C82.175 102.751 76.045 95.3 76.045 95.3L75.418 116.1L69.318 116.493C70.2 116.48 72.612 85.409 68.665 75.135Z" clip-rule="evenodd"></path><path fill="#ffffff" fill-rule="evenodd" d="M104.757 85.926C105.482 85.9842 106.211 85.8896 106.897 85.6484C107.583 85.4073 108.211 85.0249 108.74 84.526C110.026 83.345 109.746 81.473 111.249 81.838C112.698 82.189 111.301 87.96 107.349 88.968C103.397 89.976 102.788 89.916 101.768 91.942L99.2471 88.1C100.105 87.0677 101.248 86.3106 102.533 85.923C102.533 85.923 104.42 82.469 105.614 82.502C106.808 82.535 104.757 85.926 104.757 85.926Z" clip-rule="evenodd"></path><path fill="#0e2238" d="M111.367 81.3469C109.392 80.8749 109.56 83.0899 108.401 84.1529C107.652 84.8795 106.672 85.321 105.632 85.4009C106.185 84.3649 106.719 83.0719 106.367 82.4269C106.294 82.2951 106.187 82.1855 106.057 82.1097C105.927 82.034 105.779 81.995 105.628 81.9969C104.336 81.9559 102.785 84.4499 102.2 85.4849C100.894 85.9273 99.7369 86.7235 98.857 87.7849C98.621 88.0799 98.482 88.3779 98.75 88.6479C100.175 90.1895 101.205 92.0543 101.75 94.0819C98.25 96.7819 89.427 103.016 86.555 102.541C82.929 101.95 76.618 95.3409 76.555 95.2749C76.4869 95.203 76.399 95.1529 76.3024 95.131C76.2057 95.1091 76.1048 95.1164 76.0123 95.152C75.9199 95.1875 75.8401 95.2498 75.783 95.3308C75.726 95.4118 75.6943 95.5079 75.692 95.6069C75.625 98.2409 75.022 112.344 74.919 115.999C74.9172 116.065 74.9284 116.13 74.9519 116.191C74.9754 116.253 75.0107 116.309 75.0559 116.356C75.1011 116.404 75.1552 116.442 75.2152 116.469C75.2752 116.496 75.3398 116.511 75.4055 116.512C75.4712 116.514 75.5365 116.503 75.5979 116.48C75.6592 116.456 75.7153 116.421 75.763 116.376C75.8107 116.33 75.849 116.276 75.8758 116.216C75.9025 116.156 75.9172 116.092 75.919 116.026C76.019 112.379 76.585 99.2029 76.659 96.8049C78.55 98.6729 83.232 103.013 86.394 103.527C90.34 104.166 101.385 95.6359 102.634 94.6619C102.713 94.6006 102.771 94.5172 102.802 94.4224C102.833 94.3276 102.834 94.2257 102.807 94.1299C102.626 93.4932 102.411 92.8664 102.165 92.2519C102.186 92.2255 102.204 92.197 102.219 92.1669C103.108 90.3989 103.459 90.4669 107.477 89.4519C111.835 88.3449 113.523 81.8729 111.367 81.3469ZM105.491 83.0149C105.287 83.8654 104.944 84.6763 104.476 85.4149C104.032 85.3909 103.688 85.3409 103.457 85.3319C103.943 84.4101 104.64 83.6162 105.491 83.0149V83.0149ZM107.226 88.4789C103.683 89.3789 102.637 89.4789 101.653 91.1099C101.157 90.0785 100.521 89.1202 99.764 88.2619C100.724 87.1989 102.18 86.1859 103.61 86.3469C106.1 86.6239 107.634 86.2159 109.078 84.8889C109.571 84.3971 109.956 83.807 110.206 83.1569C110.794 81.8469 111.306 82.0859 111.306 82.9949C111.317 84.5869 109.963 87.7869 107.226 88.4789Z"></path><path fill="#def6f8" fill-rule="evenodd" d="M64.753 84.4529C65.725 84.3219 63.309 105.197 62.828 109.353L67.221 115.321L69.321 109.53L67.221 84.7409C67.288 84.6079 68.348 82.4609 68.09 81.0589C67.5028 80.5726 66.8501 80.1714 66.151 79.8669C66.151 79.8859 63.627 81.3349 63.627 81.3349C63.627 81.3349 64.19 83.1059 64.753 84.4529Z" clip-rule="evenodd"></path><path fill="#0e2238" d="M69.8171 109.51C69.7831 108.746 68.9871 90.866 67.7791 84.679C68.1836 83.5159 68.452 82.3098 68.5791 81.085C68.5824 81.0193 68.5728 80.9536 68.5508 80.8917C68.5287 80.8298 68.4947 80.7728 68.4507 80.724C68.4066 80.6752 68.3533 80.6355 68.294 80.6073C68.2346 80.5791 68.1702 80.5628 68.1046 80.5595C68.0389 80.5561 67.9732 80.5658 67.9113 80.5878C67.8493 80.6098 67.7923 80.6438 67.7435 80.6879C67.6947 80.732 67.6551 80.7852 67.6269 80.8446C67.5987 80.904 67.5824 80.9683 67.5791 81.034C67.4671 82.0981 67.2363 83.1463 66.8911 84.159L65.2001 84.23C64.6711 82.93 64.1001 81.198 64.0921 81.179C64.0506 81.053 63.9607 80.9487 63.8423 80.8889C63.7238 80.8292 63.5865 80.819 63.4606 80.8605C63.3346 80.902 63.2303 80.9918 63.1705 81.1103C63.1108 81.2287 63.1006 81.366 63.1421 81.492C63.1701 81.575 63.8101 83.514 64.3781 84.862C64.4041 86.339 62.7871 105.277 62.3281 109.298C62.3021 109.525 62.1431 109.161 65.6281 115.561C65.6713 115.639 65.7347 115.704 65.8116 115.75C65.8886 115.795 65.9762 115.819 66.0656 115.819C66.1549 115.819 66.2426 115.795 66.3195 115.75C66.3964 115.704 66.4598 115.639 66.5031 115.561C70.0281 109.276 69.8251 109.712 69.8171 109.51ZM66.0791 114.288L63.3431 109.254C63.7381 105.667 65.2431 88.608 65.3681 85.225L66.8521 85.162C67.9611 91.247 68.7341 107.707 68.8111 109.411L66.0791 114.288Z"></path><path fill="#def6f8" fill-rule="evenodd" d="M59.6591 73.9789C59.0391 74.4379 54.6191 76.9349 49.7411 80.1679C45.6931 82.8489 46.5411 87.4209 47.1161 91.4879C47.5601 94.6539 48.8631 106.206 51.4861 108.343L51.7931 112.988L62.3041 112.544L62.7041 104.53C62.7041 104.53 69.1411 99.4639 70.7311 97.3879L68.1421 91.6879C68.1421 91.6879 62.4701 94.0169 62.4111 93.9749C62.3521 93.9329 61.9721 74.7879 61.5321 71.8339L60.9321 71.1539L59.6591 73.9789Z" clip-rule="evenodd"></path><path fill="#ffffff" fill-rule="evenodd" d="M61.676 71.809C61.445 71.544 61.231 71.279 61.03 71.015C59.9199 71.2167 58.7743 71.0532 57.765 70.549C55.692 69.705 54.573 66.349 56.081 65.406C56.2884 65.2833 56.5185 65.2039 56.7575 65.1725C56.9964 65.1411 57.2392 65.1584 57.4713 65.2234C57.7034 65.2883 57.9199 65.3995 58.1079 65.5503C58.2958 65.7012 58.4513 65.8885 58.565 66.101C58.565 66.101 55.883 58.844 61.08 56.033C68.117 52.227 72.78 56.275 72.78 56.275C73.564 56.904 74.2102 57.6876 74.6785 58.577C75.1467 59.4664 75.427 60.4426 75.502 61.445C75.628 64.689 74.559 64.6 75.366 67.225C76.173 69.85 72.483 74.712 68.666 74.896L68.679 76.441C68.479 76.783 67.219 79.434 65.802 79.406C64.267 79.377 61.784 75.135 61.784 75.135L61.676 71.809Z" clip-rule="evenodd"></path><path fill="#0e2238" fill-rule="evenodd" d="M55.608 58.084C56.03 55.164 58.178 52.444 60.926 52.32C63.674 52.196 63.493 50.509 67.111 49.901C70.729 49.293 72.657 50.738 73.811 52.693C74.0382 53.0621 74.1548 53.4887 74.147 53.922C75.2367 54.663 75.9897 55.8041 76.2425 57.0973C76.4953 58.3906 76.2274 59.7313 75.497 60.828C75.497 60.828 76.017 58.361 72.912 56.381C72.6804 56.237 72.4613 56.0738 72.257 55.893C71.044 55.202 68.732 55.013 65.448 56.169C64.3045 56.5033 63.1331 56.7336 61.948 56.857C61.3814 57.3709 60.9636 58.0279 60.7387 58.7591C60.5138 59.4903 60.4901 60.2685 60.67 61.012C60.9216 62.1467 61.046 63.3058 61.041 64.468C59.996 65.6 60.553 68.349 60.553 68.349C60.0882 68.126 59.6727 67.8121 59.3313 67.4259C58.9898 67.0396 58.7293 66.5887 58.565 66.1C58.5155 65.8739 58.4111 65.6635 58.2609 65.4875C58.1107 65.3114 57.9194 65.175 57.7039 65.0905C57.4885 65.0059 57.2555 64.9758 57.0256 65.0028C56.7958 65.0297 56.5761 65.1129 56.386 65.245C55.7813 64.1651 55.4008 62.9743 55.2671 61.7438C55.1334 60.5134 55.2494 59.2686 55.608 58.084V58.084Z" clip-rule="evenodd"></path><path fill="#0e2238" d="M59.257 70.347C59.1733 70.3471 59.0908 70.3262 59.0173 70.2862C58.9437 70.2462 58.8814 70.1883 58.836 70.118C57.367 67.839 56.772 67.418 56.669 67.35C56.5529 67.3204 56.4512 67.2501 56.3826 67.1519C56.3139 67.0537 56.2828 66.9341 56.2949 66.8149C56.307 66.6957 56.3616 66.5848 56.4486 66.5024C56.5356 66.42 56.6493 66.3716 56.769 66.366C57.006 66.366 57.586 66.338 59.674 69.577C59.7223 69.6523 59.7495 69.7391 59.7528 69.8285C59.7562 69.9178 59.7354 70.0065 59.6929 70.0851C59.6503 70.1637 59.5874 70.2295 59.5107 70.2756C59.434 70.3216 59.3464 70.3463 59.257 70.347V70.347Z"></path><path fill="#0e2238" d="M67.0561 66.968C67.1315 66.8629 67.2448 66.7911 67.372 66.7678C67.4992 66.7445 67.6306 66.7713 67.7384 66.8428C67.8462 66.9143 67.9222 67.0247 67.9503 67.151C67.9784 67.2773 67.9564 67.4095 67.8891 67.52C67.7944 67.6538 67.7463 67.8151 67.7521 67.979C67.7681 68.024 67.8691 68.062 67.8991 68.073C68.4851 68.283 69.1371 67.605 69.1371 67.605C69.2156 67.5201 69.321 67.4651 69.4355 67.4492C69.55 67.4333 69.6665 67.4576 69.7651 67.518C70.0398 67.6948 70.3468 67.8157 70.6684 67.8737C70.99 67.9317 71.3198 67.9257 71.6391 67.856C71.7181 67.825 71.8531 67.756 71.8661 67.681C71.9131 67.381 71.3381 66.66 70.7931 66.207C70.691 66.1222 70.6267 66.0004 70.6144 65.8683C70.6021 65.7362 70.6428 65.6046 70.7276 65.5025C70.8123 65.4004 70.9341 65.3361 71.0663 65.3238C71.1984 65.3115 71.33 65.3522 71.4321 65.437C71.6981 65.658 73.0171 66.813 72.8541 67.837C72.8135 68.0572 72.7131 68.2621 72.5639 68.4291C72.4147 68.5961 72.2224 68.7189 72.0081 68.784C71.1984 69.028 70.325 68.9425 69.5781 68.546C67.8441 69.916 65.9791 68.572 67.0561 66.968Z"></path><path fill="#0e2238" d="M68.347 73.875C66.447 73.875 65.969 70.29 67.6 69.619C68.6899 69.26 69.8327 69.0882 70.98 69.111C71.0949 69.1135 71.2055 69.1556 71.293 69.23C72.237 70.03 70.343 73.875 68.347 73.875ZM70.538 70.116C69.6684 70.1216 68.8053 70.2658 67.981 70.543C67.293 70.826 67.593 73.198 68.57 72.831C69.0728 72.5451 69.5085 72.1549 69.848 71.6866C70.1874 71.2183 70.4227 70.6828 70.538 70.116V70.116Z"></path><path fill="#0e2238" d="M63.4871 61.482C63.3957 61.4817 63.3062 61.4564 63.2282 61.4088C63.1502 61.3612 63.0867 61.2932 63.0446 61.2121C63.0026 61.131 62.9836 61.0399 62.9896 60.9487C62.9957 60.8575 63.0267 60.7698 63.0791 60.695C63.5906 60.0089 64.3103 59.5067 65.1307 59.2632C65.951 59.0197 66.8281 59.048 67.6311 59.344C67.6946 59.3643 67.7534 59.3972 67.804 59.4407C67.8547 59.4841 67.8961 59.5373 67.9259 59.597C67.9556 59.6567 67.9731 59.7217 67.9774 59.7883C67.9816 59.8549 67.9725 59.9216 67.9505 59.9846C67.9286 60.0476 67.8942 60.1056 67.8495 60.1551C67.8048 60.2046 67.7507 60.2447 67.6903 60.273C67.6298 60.3012 67.5644 60.3171 67.4977 60.3197C67.431 60.3223 67.3645 60.3115 67.3021 60.288C66.7035 60.0664 66.0497 60.0426 65.4365 60.2199C64.8234 60.3971 64.2832 60.7662 63.8951 61.273C63.8487 61.3378 63.7874 61.3906 63.7165 61.427C63.6455 61.4633 63.5668 61.4822 63.4871 61.482V61.482Z"></path><path fill="#0e2238" d="M75.2921 61.805C75.1872 61.8049 75.085 61.7718 74.9999 61.7104C74.9148 61.6491 74.8512 61.5625 74.8181 61.463C74.7158 61.0715 74.4711 60.7322 74.1319 60.5116C73.7927 60.2909 73.3834 60.2048 72.9841 60.27C72.8539 60.2896 72.7212 60.2579 72.614 60.1816C72.5067 60.1053 72.4333 59.9904 72.4091 59.861C72.3869 59.7317 72.4163 59.5988 72.4912 59.4911C72.566 59.3833 72.6802 59.3093 72.8091 59.285C73.4442 59.1793 74.0961 59.3108 74.6407 59.6542C75.1853 59.9977 75.5847 60.5293 75.7631 61.148C75.7878 61.2228 75.7945 61.3024 75.7827 61.3803C75.7708 61.4582 75.7407 61.5322 75.6947 61.5963C75.6488 61.6604 75.5884 61.7126 75.5184 61.7489C75.4485 61.7852 75.3709 61.8044 75.2921 61.805V61.805Z"></path><path fill="#0e2238" d="M62.3441 54.093C62.2795 54.0809 62.218 54.0562 62.163 54.0204C62.108 53.9845 62.0606 53.9382 62.0235 53.884C61.9486 53.7746 61.9202 53.6398 61.9446 53.5095C61.969 53.3791 62.0442 53.2638 62.1536 53.1889C62.263 53.114 62.3977 53.0856 62.5281 53.11C63.2604 53.1861 63.9984 53.0342 64.6411 52.675C65.6795 52.1704 66.7901 51.8304 67.9331 51.667C67.9983 51.6567 68.0648 51.6597 68.1288 51.6758C68.1928 51.6919 68.2529 51.7207 68.3055 51.7606C68.3581 51.8005 68.4021 51.8506 68.4348 51.9078C68.4676 51.9651 68.4884 52.0285 68.4961 52.094C68.505 52.1591 68.5009 52.2252 68.4842 52.2888C68.4675 52.3523 68.4384 52.4119 68.3987 52.4642C68.359 52.5164 68.3093 52.5604 68.2526 52.5935C68.1958 52.6266 68.1331 52.6481 68.0681 52.657C67.0454 52.8084 66.0511 53.1117 65.1181 53.557C64.2728 54.023 63.3021 54.2106 62.3441 54.093V54.093Z"></path><path fill="#0e2238" d="M59.6501 55.024C59.5357 54.9581 59.452 54.8496 59.4173 54.7223C59.3825 54.595 59.3996 54.4591 59.4646 54.3442C59.5297 54.2294 59.6376 54.145 59.7646 54.1093C59.8917 54.0737 60.0278 54.0897 60.1431 54.154C61.1861 54.6892 62.3805 54.8529 63.5291 54.618C65.3461 54.168 71.1891 49.84 73.0211 54.135C73.0469 54.1954 73.0605 54.2603 73.0612 54.326C73.062 54.3917 73.0497 54.4568 73.0253 54.5178C73.0008 54.5788 72.9646 54.6343 72.9186 54.6813C72.8727 54.7282 72.818 54.7657 72.7576 54.7915C72.6971 54.8173 72.6322 54.8309 72.5666 54.8317C72.5009 54.8324 72.4357 54.8202 72.3747 54.7957C72.3138 54.7712 72.2582 54.735 72.2113 54.6891C72.1643 54.6431 72.1269 54.5884 72.1011 54.528C70.7351 51.328 65.8721 55.071 63.7681 55.589C62.3719 55.8962 60.9119 55.6959 59.6501 55.024Z"></path><path fill="#0e2238" d="M76 61.426C75.994 61.28 75.984 61.136 75.969 60.992C75.9762 60.9721 75.9819 60.9517 75.986 60.931C76.009 60.821 76.496 58.319 73.572 56.225C74.212 55.6051 74.5956 54.7675 74.647 53.878C74.6478 53.7454 74.5959 53.6179 74.5027 53.5236C74.4095 53.4292 74.2826 53.3758 74.15 53.375C74.0174 53.3742 73.8899 53.4261 73.7956 53.5193C73.7013 53.6125 73.6478 53.7394 73.647 53.872C73.5849 54.5453 73.2697 55.17 72.765 55.62C71.4 54.673 68.674 54.31 65.211 55.527C62.9307 56.3657 60.4754 56.6148 58.073 56.251C57.5014 56.2555 56.9396 56.4 56.4367 56.6717C55.9337 56.9435 55.505 57.3343 55.188 57.81C55.1239 57.9084 55.0964 58.0263 55.1105 58.143C55.1246 58.2597 55.1793 58.3677 55.265 58.448C54.8296 60.6433 54.9976 62.9156 55.751 65.023C53.895 66.295 55.251 70.067 57.575 71.011C58.3659 71.3506 59.2106 71.5476 60.07 71.593C58.3663 75.0263 57.3267 78.7507 57.006 82.57C56.9957 82.6671 57.014 82.7652 57.0587 82.852C57.1034 82.9389 57.1726 83.0107 57.2577 83.0587C57.3428 83.1067 57.44 83.1287 57.5375 83.122C57.635 83.1153 57.7283 83.0802 57.806 83.021C58.7727 82.3466 59.9098 81.9581 61.087 81.9C60.225 82.761 58.848 84.162 57.907 85.231C57.8402 85.307 57.798 85.4016 57.786 85.5021C57.7741 85.6026 57.7929 85.7044 57.84 85.794C57.872 85.855 61.031 91.876 62.122 94.038C62.1557 94.1434 62.2214 94.2357 62.3099 94.302C62.3984 94.3683 62.5055 94.4053 62.616 94.408C62.7486 94.408 62.8758 94.3553 62.9696 94.2616C63.0634 94.1678 63.116 94.0406 63.116 93.908C63.085 87.23 62.922 82.799 62.916 82.643C64.052 81.471 65.488 80.287 66.072 80.316C66.732 80.349 68.415 81.694 69.442 82.688C70.2637 89.8112 70.5401 96.9867 70.269 104.152C69.95 109.332 68.838 116.344 68.827 116.414C68.8145 116.48 68.8153 116.547 68.8294 116.613C68.8435 116.678 68.8705 116.74 68.9089 116.795C68.9474 116.85 68.9964 116.896 69.0531 116.931C69.1099 116.967 69.1731 116.991 69.2392 117.001C69.3052 117.012 69.3727 117.009 69.4377 116.993C69.5027 116.977 69.5638 116.948 69.6174 116.908C69.671 116.868 69.716 116.818 69.7498 116.76C69.7836 116.702 69.8054 116.638 69.814 116.572C69.826 116.501 70.945 109.442 71.267 104.214C71.811 95.383 70.355 80.367 70.078 78.671C69.8906 77.5374 69.5857 76.4264 69.168 75.356C73.535 74.85 76.708 69.883 75.845 67.076C75.113 64.7 76.126 64.625 76 61.426ZM56.4 57.926C57.614 56.794 58.366 57.438 60.8 57.399C60.4503 57.9495 60.215 58.5648 60.1082 59.2082C60.0013 59.8517 60.0251 60.51 60.178 61.144C60.4102 62.1763 60.5282 63.2309 60.53 64.289C59.9928 65.1949 59.7736 66.2543 59.907 67.299C59.5268 66.8949 59.2256 66.423 59.019 65.908C58.9563 65.662 58.8443 65.4312 58.6897 65.2298C58.5351 65.0283 58.3412 64.8604 58.1198 64.7361C57.8984 64.6118 57.654 64.5338 57.4015 64.5068C57.1491 64.4798 56.8937 64.5044 56.651 64.579C55.9236 62.4328 55.8385 60.1209 56.406 57.927L56.4 57.926ZM58.121 81.668C58.4955 78.2493 59.4922 74.928 61.062 71.868L61.19 72.019C61.296 75.976 61.19 74.05 61.71 80.919C60.4706 80.8511 59.2351 81.1097 58.127 81.669L58.121 81.668ZM58.88 85.637C59.807 84.606 61.053 83.343 61.835 82.562C61.842 82.6448 61.8695 82.7245 61.915 82.794C61.938 83.454 62.05 86.818 62.096 91.807C60.957 89.593 59.388 86.6 58.886 85.638L58.88 85.637ZM62.75 81.396L62.405 76.845C63.1482 77.8952 64.0406 78.8314 65.054 79.624C64.2161 80.1166 63.444 80.7133 62.756 81.4L62.75 81.396ZM65.807 78.905C65.337 78.844 63.733 77.055 62.272 74.97L62.22 73.083C63.8298 74.5892 65.9566 75.4197 68.161 75.403L68.171 76.303C67.592 77.233 66.252 78.878 65.813 78.906L65.807 78.905ZM69.325 81.23C68.5666 80.525 67.708 79.9363 66.777 79.483C67.5339 78.8337 68.1951 78.0806 68.741 77.246C69.0784 78.5497 69.2761 79.8855 69.331 81.231L69.325 81.23ZM74.882 67.37C75.582 69.651 72.604 74.191 68.721 74.39C67.2882 74.4721 65.859 74.1752 64.5774 73.5291C63.2959 72.8831 62.2072 71.9107 61.421 70.71C61.3585 70.6281 61.2722 70.5676 61.1739 70.5366C61.0757 70.5056 60.9702 70.5058 60.872 70.537C59.8738 70.6914 58.8521 70.5336 57.947 70.085C57.3839 69.7991 56.9014 69.3764 56.5438 68.8558C56.1862 68.3352 55.9649 67.7333 55.9 67.105C55.773 65.647 57.245 65.018 58.124 66.332C58.3166 66.9058 58.6346 67.4294 59.0549 67.8648C59.4753 68.3002 59.9874 68.6364 60.554 68.849C60.6283 68.8492 60.7016 68.8328 60.7687 68.8011C60.8359 68.7694 60.8951 68.7231 60.9421 68.6657C60.9891 68.6082 61.0227 68.541 61.0405 68.4689C61.0584 68.3969 61.0599 68.3217 61.045 68.249C60.905 67.549 60.698 65.577 61.41 64.805C61.4947 64.7135 61.5421 64.5937 61.543 64.469C61.5499 63.2605 61.4194 62.0551 61.154 60.876C61.0014 60.2405 61.0176 59.5761 61.2011 58.9488C61.3846 58.3215 61.7289 57.7531 62.2 57.3C63.3421 57.143 64.4644 56.8654 65.548 56.472C69.588 55.051 71.633 55.832 73.465 57.408C73.907 57.747 74.2743 58.1734 74.544 58.6607C74.8138 59.1479 74.9803 59.6856 75.033 60.24C74.9833 60.2967 74.947 60.364 74.9269 60.4367C74.9068 60.5094 74.9034 60.5858 74.917 60.66C75.0924 61.8371 75.0367 63.0372 74.753 64.193C74.4629 65.2402 74.5101 66.3522 74.888 67.371L74.882 67.37Z"></path><path fill="#0e2238" d="M73.72 85.092C73.5935 85.0921 73.4716 85.0442 73.379 84.958C71.83 83.515 70.662 81.946 69.974 81.742C69.8706 81.7114 69.7798 81.6482 69.7152 81.5618C69.6506 81.4753 69.6157 81.3704 69.6157 81.2625C69.6157 81.1546 69.6506 81.0496 69.7152 80.9632C69.7798 80.8768 69.8706 80.8135 69.974 80.783C71.2755 80.4117 72.654 80.4052 73.959 80.764C74.0855 80.8038 74.1911 80.8922 74.2524 81.0098C74.3137 81.1273 74.3258 81.2645 74.286 81.391C74.2462 81.5175 74.1578 81.623 74.0402 81.6843C73.9227 81.7457 73.7855 81.7578 73.659 81.718C72.9263 81.523 72.1652 81.4577 71.41 81.525C72.025 82.09 73.099 83.325 74.064 84.225C74.1381 84.2935 74.1897 84.3829 74.2121 84.4813C74.2344 84.5797 74.2264 84.6826 74.1892 84.7764C74.152 84.8702 74.0873 84.9506 74.0035 85.0069C73.9198 85.0632 73.8209 85.0929 73.72 85.092V85.092Z"></path><path fill="#ffffff" fill-rule="evenodd" d="M74.32 73.7999C73.3569 73.8515 72.4529 74.2803 71.8038 74.9936C71.1547 75.707 70.8128 76.6473 70.852 77.6109C70.8234 78.2239 70.9327 78.8354 71.1718 79.4005C71.411 79.9656 71.774 80.4698 72.234 80.8759L73.686 97.0299C73.686 97.0299 76.21 98.2449 77.074 96.1479L76.34 80.7059C78.717 78.4269 77.449 73.8859 74.32 73.7999Z" clip-rule="evenodd"></path><path fill="#0e2238" d="M77.0531 74.693C74.7011 71.808 70.4601 73.711 70.3531 77.593C70.3262 78.2448 70.437 78.895 70.6782 79.5011C70.9195 80.1073 71.2857 80.6558 71.7531 81.111L73.1881 97.071C73.1959 97.157 73.2259 97.2395 73.2752 97.3105C73.3244 97.3815 73.3912 97.4385 73.4691 97.476C74.0211 97.7261 74.6181 97.8622 75.2241 97.876C75.7232 97.8977 76.2163 97.7601 76.6321 97.4831C77.0479 97.206 77.3648 96.804 77.5371 96.335C77.5991 96.183 77.6251 97.196 76.8501 80.893C77.6034 80.0463 78.0362 78.9624 78.0733 77.8297C78.1104 76.697 77.7494 75.5871 77.0531 74.693ZM74.1531 96.68L72.8211 81.821C73.3092 82.0334 73.8402 82.1292 74.3718 82.1009C74.9034 82.0726 75.4212 81.921 75.8841 81.658L76.5691 96.058C76.1251 97 75.1451 97.031 74.1571 96.68H74.1531ZM77.0711 77.78C77.0251 79.472 75.8201 81.166 74.1171 81.104C73.3197 80.9425 72.6049 80.5049 72.0985 79.8682C71.5921 79.2315 71.3267 78.4365 71.3489 77.6233C71.3711 76.81 71.6796 76.0307 72.22 75.4226C72.7604 74.8145 73.4981 74.4166 74.3031 74.299C75.9761 74.346 77.1231 76.023 77.0751 77.781L77.0711 77.78Z"></path><path fill="#ffffff" fill-rule="evenodd" d="M69.8561 95.708C69.2118 94.4003 68.6396 93.0583 68.1421 91.688C68.1421 91.688 70.7051 89.321 70.8831 87.555C71.0611 85.789 70.9521 84.894 73.0281 83.737C75.1041 82.58 78.4431 82.474 77.4121 86.115C77.4121 86.115 78.6061 86.46 77.7911 88.415C77.999 88.7076 78.1095 89.0583 78.107 89.4172C78.1045 89.7762 77.9891 90.1253 77.7771 90.415C77.9666 90.7751 78.0216 91.1909 77.9321 91.5879C77.8427 91.9848 77.6147 92.3369 77.2891 92.581C77.2891 92.581 75.9891 90.551 74.3741 91.6C72.7591 92.649 73.7141 93.549 72.0741 94.511C71.3606 94.9561 70.6198 95.3559 69.8561 95.708V95.708Z" clip-rule="evenodd"></path><path fill="#0e2238" d="M78.3451 88.3749C78.558 87.9741 78.6381 87.516 78.5739 87.0667C78.5098 86.6175 78.3046 86.2001 77.9881 85.8749C78.3401 84.2749 77.8251 83.4529 77.3071 83.0439C76.1551 82.1329 74.1551 82.5369 72.7851 83.3019C70.6371 84.5019 70.5851 85.4839 70.3851 87.5019C70.2701 88.6899 68.7501 90.3949 67.9851 91.1449C64.9851 92.4699 60.8851 94.5719 58.0651 96.0499C57.6161 93.3829 56.4381 85.4499 56.4381 85.4499C56.4159 85.3212 56.3444 85.2063 56.2387 85.1297C56.1329 85.0532 56.0014 85.021 55.8723 85.04C55.7431 85.0591 55.6266 85.1279 55.5475 85.2318C55.4684 85.3357 55.4331 85.4663 55.4491 85.5959C55.4491 85.5959 56.6761 93.8599 57.1341 96.5409C55.1081 97.6109 53.6971 98.3789 53.6621 98.3979C53.6019 98.4279 53.5483 98.4697 53.5047 98.5209C53.461 98.572 53.4281 98.6315 53.408 98.6956C53.3878 98.7598 53.3808 98.8273 53.3874 98.8943C53.3939 98.9612 53.4139 99.0261 53.4462 99.0852C53.4784 99.1442 53.5222 99.1961 53.575 99.2378C53.6277 99.2795 53.6884 99.3101 53.7533 99.3278C53.8181 99.3455 53.8859 99.35 53.9526 99.3409C54.0192 99.3318 54.0833 99.3094 54.1411 99.2749C54.2271 99.2289 62.4311 94.7599 67.8261 92.3119C68.2891 93.3779 69.4341 95.9849 70.1601 97.3749C68.0191 100.666 54.8821 110.46 51.8031 107.954C51.7522 107.912 51.6936 107.881 51.6307 107.862C51.5678 107.844 51.5018 107.837 51.4365 107.844C51.3712 107.851 51.3078 107.87 51.25 107.901C51.1922 107.932 51.1411 107.975 51.0996 108.025C51.0581 108.076 51.027 108.135 51.0081 108.198C50.9893 108.261 50.983 108.327 50.9896 108.392C50.9963 108.457 51.0157 108.521 51.0468 108.578C51.078 108.636 51.1202 108.687 51.1711 108.729C55.1841 111.997 69.0141 101.035 71.0291 97.8699C71.1871 97.6219 71.3151 97.4099 71.1721 97.1459C71.0121 96.8539 70.8201 96.4719 70.6141 96.0459C72.3601 94.7459 73.1361 94.8759 73.7141 93.2369C73.7808 92.9811 73.8979 92.7413 74.0587 92.5314C74.2194 92.3215 74.4205 92.1459 74.6501 92.0149C74.8694 91.8598 75.1345 91.7828 75.4029 91.7962C75.6712 91.8096 75.9273 91.9127 76.1301 92.0889C76.418 92.2988 76.6685 92.5558 76.8711 92.8489C76.9076 92.9058 76.9552 92.9547 77.0112 92.9927C77.0671 93.0307 77.1302 93.0569 77.1966 93.0698C77.2629 93.0827 77.3312 93.082 77.3973 93.0678C77.4634 93.0535 77.5259 93.026 77.5811 92.9869C77.9697 92.7156 78.2564 92.3222 78.3958 91.8692C78.5351 91.4163 78.519 90.9297 78.3501 90.4869C78.5294 90.1637 78.623 89.7999 78.6221 89.4303C78.6213 89.0606 78.5259 88.6973 78.3451 88.3749V88.3749ZM77.6091 89.6639C76.3864 88.9831 75.0134 88.6174 73.6141 88.5999C73.4815 88.5978 73.3534 88.6484 73.2582 88.7407C73.1629 88.833 73.1082 88.9593 73.1061 89.0919C73.104 89.2245 73.1546 89.3525 73.2469 89.4478C73.3391 89.5431 73.4655 89.5978 73.5981 89.5999C74.3981 89.6139 76.5981 89.8579 77.3981 90.8079C77.4616 90.9735 77.4883 91.151 77.4764 91.328C77.4645 91.505 77.4142 91.6773 77.3291 91.8329C76.9755 91.3335 76.4446 90.9879 75.8448 90.8669C75.245 90.7459 74.6216 90.8586 74.1021 91.1819C73.4536 91.5671 72.9765 92.1851 72.7681 92.9099C72.3571 94.0799 72.0251 93.8149 70.1781 95.1309C69.5941 93.8709 68.9921 92.4949 68.7091 91.8419C69.3891 91.1749 71.2211 89.2419 71.3801 87.6079C71.5611 85.7469 71.4981 85.1659 73.2711 84.1779C74.3831 83.5579 75.9641 83.2589 76.6861 83.8309C76.8791 84.0347 77.0154 84.2855 77.0816 84.5582C77.1477 84.831 77.1413 85.1164 77.0631 85.3859C75.8494 84.7876 74.466 84.6282 73.1481 84.9349C73.0216 84.9747 72.916 85.0631 72.8547 85.1807C72.7934 85.2983 72.7813 85.4354 72.8211 85.5619C72.8609 85.6884 72.9493 85.7939 73.0668 85.8553C73.1844 85.9166 73.3216 85.9287 73.4481 85.8889C74.7284 85.6268 76.0604 85.8656 77.1701 86.5559C77.2701 86.6109 77.4081 86.6199 77.5101 86.8559C77.5834 87.058 77.5983 87.2767 77.5531 87.4869C76.3751 86.7106 74.9928 86.3022 73.5821 86.3139C73.4495 86.3159 73.3231 86.3705 73.2307 86.4657C73.1384 86.5608 73.0876 86.6888 73.0896 86.8214C73.0916 86.954 73.1461 87.0804 73.2413 87.1728C73.3365 87.2651 73.4645 87.3159 73.5971 87.3139C73.6221 87.3019 76.2721 87.2949 77.3861 88.7139C77.5672 88.9956 77.646 89.331 77.6091 89.6639Z"></path><path fill="#ffffff" fill-rule="evenodd" d="M39.3 117.06L37.041 118.072L36.948 114.485L46.796 109.541L104.86 108.141L104.698 112.176L97.435 112.333L85.535 190.108L54.437 195L43.337 186.722L39.3 117.06Z" clip-rule="evenodd"></path><path fill="#0e2238" d="M104.843 107.641C44.082 109.106 46.727 109.016 46.567 109.093L36.719 114.038C36.6341 114.08 36.563 114.146 36.5141 114.228C36.4652 114.309 36.4406 114.403 36.443 114.498L36.536 118.085C36.5385 118.167 36.561 118.247 36.6015 118.318C36.642 118.389 36.6993 118.449 36.7684 118.492C36.8375 118.536 36.9163 118.562 36.9978 118.568C37.0793 118.575 37.1611 118.561 37.236 118.528L38.836 117.813L42.836 186.751C42.857 187.135 42.313 186.542 54.136 195.4C54.398 195.6 52.307 195.864 85.6 190.6C85.7049 190.583 85.8017 190.534 85.8765 190.458C85.9513 190.383 86.0002 190.286 86.016 190.181L97.858 112.821L104.701 112.674C104.828 112.671 104.949 112.62 105.04 112.531C105.131 112.441 105.184 112.321 105.189 112.194L105.351 108.16C105.354 108.092 105.342 108.024 105.318 107.961C105.293 107.897 105.256 107.84 105.209 107.791C105.161 107.743 105.104 107.704 105.041 107.678C104.978 107.653 104.911 107.64 104.843 107.641ZM37.517 117.309L37.451 114.79L46.41 110.29L46.88 113.112L37.517 117.309ZM39.817 117.375L47.551 113.911L48.243 113.896L52.9 193.228L43.827 186.46L39.817 117.375ZM85.089 189.675L54.571 194.475L53.949 194.011L49.24 113.874L96.847 112.845L85.089 189.675ZM104.215 111.69L47.858 112.9L47.379 110.023L104.334 108.65L104.215 111.69Z"></path><path fill="#0e2238" d="M77.487 61.2689L72.043 61.1999C71.9128 61.1999 71.7877 61.2506 71.6943 61.3414C71.601 61.4322 71.5467 61.5558 71.543 61.6859L71.508 62.9859L69.792 62.9399L69.829 61.5649C69.8308 61.4988 69.8193 61.4329 69.7954 61.3712C69.7715 61.3095 69.7356 61.2532 69.6897 61.2054C69.6439 61.1577 69.589 61.1196 69.5283 61.0932C69.4675 61.0669 69.4022 61.0528 69.336 61.0519C62.61 60.9519 62.995 60.9209 62.818 61.0319L57.685 64.4999C57.5752 64.5743 57.4995 64.6893 57.4744 64.8195C57.4494 64.9498 57.4771 65.0846 57.5515 65.1944C57.6259 65.3042 57.7409 65.38 57.8711 65.405C58.0014 65.4301 58.1362 65.4023 58.246 65.3279L62.554 62.4129L62.459 65.9379C62.4553 66.0699 62.5038 66.198 62.5941 66.2943C62.6844 66.3906 62.8091 66.4472 62.941 66.4519L69.205 66.6859C69.3353 66.686 69.4604 66.6352 69.5537 66.5445C69.6471 66.4537 69.7014 66.3301 69.705 66.1999L69.765 63.9359L71.481 63.9819L71.422 66.1819C71.4182 66.3137 71.4667 66.4417 71.5567 66.5379C71.6468 66.6342 71.7713 66.691 71.903 66.6959L77.356 66.9079C77.4863 66.908 77.6114 66.8572 77.7047 66.7665C77.7981 66.6757 77.8524 66.5521 77.856 66.4219L77.98 61.7839C77.982 61.7176 77.9708 61.6515 77.947 61.5896C77.9232 61.5277 77.8873 61.4711 77.8414 61.4231C77.7956 61.3752 77.7406 61.3369 77.6797 61.3104C77.6189 61.2839 77.5534 61.2698 77.487 61.2689V61.2689ZM63.473 65.4689L63.567 61.9599L68.815 62.0389L68.715 65.6669L63.473 65.4689ZM76.873 65.8869L72.438 65.7149L72.53 62.1999L76.967 62.2589L76.873 65.8869Z"></path><path fill="#0e2238" d="M65.4481 63.761C65.4151 65.013 66.2561 65.099 66.5611 64.481C66.6826 64.2236 66.7358 63.9392 66.7155 63.6553C66.6951 63.3714 66.602 63.0975 66.4451 62.86C66.0771 62.473 65.4761 62.792 65.4481 63.761Z"></path><path fill="#0e2238" d="M74.0351 63.068C73.6681 62.682 73.0651 62.998 73.0351 63.968C73.0221 64.45 73.2001 65.062 73.6521 65.062C74.3461 65.062 74.5121 63.569 74.0351 63.068Z"></path></svg>