<svg xmlns="http://www.w3.org/2000/svg" fill="none" viewBox="0 0 200 200" height="700" width="700"><path fill="#def6f8" fill-rule="evenodd" d="M75.033 98.6368L75.589 134.251L75.189 135.203L55.577 134.431L54.877 132.922L58.777 97.6538L75.033 98.6368Z" clip-rule="evenodd"></path><path fill="#0e2238" d="M73.557 101.067C73.557 100.801 73.463 100.581 73.198 100.567L60.691 99.7852C60.5617 99.777 60.4343 99.8194 60.3356 99.9033C60.2369 99.9873 60.1747 100.106 60.162 100.235L57.182 130.427C57.1753 130.495 57.1824 130.563 57.2029 130.628C57.2235 130.693 57.257 130.752 57.3014 130.804C57.3459 130.855 57.4003 130.897 57.4615 130.927C57.5226 130.956 57.5891 130.973 57.657 130.976L72.922 131.66C73.055 131.658 73.1822 131.605 73.2774 131.512C73.3726 131.419 73.4286 131.293 73.434 131.16V128.3C73.4527 128.257 73.4655 128.212 73.472 128.165C73.472 128.102 73.572 128.041 73.557 127.984V101.067ZM66.364 101.139L66.264 103.16L64.208 103.048L64.369 101.014L66.364 101.139ZM60.512 106.865L62.891 106.993L62.732 108.993C60.332 108.863 60.457 108.849 60.31 108.916L60.512 106.865ZM63.89 107.048L66.063 107.165L65.963 109.172L63.731 109.051L63.89 107.048ZM66.461 119.243L69.261 119.395L69.229 121.41L66.36 121.255L66.461 119.243ZM65.361 121.201L62.78 121.061L62.939 119.053L65.462 119.189L65.361 121.201ZM72.532 118.571L70.277 118.449L70.31 116.438L72.532 116.559V118.571ZM70.326 115.438L70.358 113.427L72.558 113.546V115.558L70.326 115.438ZM72.58 112.545L70.374 112.426L70.407 110.415L72.58 110.534V112.545ZM69.38 112.372L66.815 112.233L66.915 110.226L69.415 110.361L69.38 112.372ZM69.364 113.372L69.331 115.384L66.665 115.239L66.765 113.232L69.364 113.372ZM69.315 116.384L69.283 118.395L66.515 118.245L66.615 116.237L69.315 116.384ZM70.266 119.449L72.512 119.572V121.588L70.233 121.464L70.266 119.449ZM72.61 109.532L70.428 109.414L70.461 107.403L72.61 107.52V109.532ZM69.429 109.36L66.965 109.226L67.065 107.219L69.465 107.349L69.429 109.36ZM65.917 110.171L65.817 112.179L63.499 112.053L63.657 110.053L65.917 110.171ZM65.767 113.177L65.667 115.185L63.26 115.055L63.419 113.05L65.767 113.177ZM65.617 116.183L65.517 118.191L63.024 118.056L63.182 116.056L65.617 116.183ZM62.02 118L59.427 117.859L59.627 115.859L62.181 115.997L62.02 118ZM61.941 119L61.782 121.007L59.131 120.864L59.331 118.858L61.941 119ZM59.032 121.859L61.7 122L61.542 123.991L58.833 123.845L59.032 121.859ZM62.702 122.059L65.312 122.2L65.212 124.194L62.543 124.049L62.702 122.059ZM66.311 122.254L69.211 122.412L69.178 124.412L66.209 124.251L66.311 122.254ZM70.211 122.466L72.482 122.59V124.59L70.182 124.466L70.211 122.466ZM72.628 106.52L70.471 106.403L70.503 104.393L72.628 104.508V106.52ZM69.471 106.349L67.11 106.221L67.21 104.214L69.504 104.338L69.471 106.349ZM67.26 103.215L67.36 101.202L69.552 101.339L69.52 103.339L67.26 103.215ZM66.211 104.16L66.111 106.167L63.967 106.051L64.126 104.051L66.211 104.16ZM62.97 106L60.611 105.872L60.811 103.872L63.131 103.998L62.97 106ZM60.224 109.793C60.384 109.904 60.324 109.873 62.653 109.999L62.495 111.999L60.019 111.865L60.224 109.793ZM62.416 113L62.257 115L59.723 114.862L59.923 112.862L62.416 113ZM58.738 124.848L61.466 124.996L61.307 127.01L58.539 126.86L58.738 124.848ZM62.465 125.048L65.165 125.194L65.065 127.211L62.309 127.062L62.465 125.048ZM65.012 128.211L64.912 130.299L62.064 130.171L62.231 128.06L65.012 128.211ZM66.012 128.265L69.117 128.433L69.084 130.486L65.908 130.344L66.012 128.265ZM66.062 127.265L66.162 125.248L69.162 125.411L69.13 127.432L66.062 127.265ZM70.162 125.465L72.456 125.59V127.611L70.129 127.486L70.162 125.465ZM72.652 103.508L70.518 103.393L70.55 101.403L72.65 101.535L72.652 103.508ZM63.366 100.954L63.204 102.996L60.904 102.871L61.104 100.813L63.366 100.954ZM58.438 127.854L61.225 128.004L61.057 130.125L58.229 130L58.438 127.854ZM70.08 130.53L70.113 128.486L72.432 128.612V130.635L70.08 130.53Z"></path><path fill="#0e2238" d="M76.087 134.1L75.533 98.63C75.531 98.504 75.4814 98.3834 75.3943 98.2924C75.3071 98.2014 75.1888 98.1466 75.063 98.139L58.807 97.156C58.6798 97.1519 58.5556 97.1949 58.4583 97.2769C58.361 97.3589 58.2975 97.474 58.28 97.6C54.07 135.382 54.334 132.937 54.425 133.133L55.125 134.642C55.1637 134.726 55.2248 134.797 55.3016 134.848C55.3784 134.9 55.4678 134.929 55.56 134.932L75.191 135.703C75.2891 135.703 75.3851 135.674 75.4669 135.62C75.5487 135.566 75.6127 135.488 75.651 135.398C76.155 134.2 76.091 134.418 76.087 134.1ZM59.222 98.182L74.54 99.108L75.081 133.733L55.432 132.472L59.222 98.182Z"></path><path fill="#def6f8" fill-rule="evenodd" d="M169.984 54.5C169.984 54.5 190.959 59.626 193.823 66.753C196.687 73.88 194.23 157.061 187.512 164.686C180.794 172.311 142.137 173.703 115.541 170.395L114.356 121.513L156.127 122.008L162.027 54.5H169.984Z" clip-rule="evenodd"></path><path fill="#0e2238" d="M115.479 170.887C115.36 170.872 115.25 170.815 115.17 170.727C115.089 170.638 115.043 170.524 115.04 170.404C113.735 118.024 113.769 121.393 114 121.158C114.231 120.923 111.742 120.967 156.133 121.505C156.199 121.506 156.264 121.519 156.324 121.545C156.384 121.571 156.439 121.609 156.485 121.656C156.531 121.703 156.567 121.758 156.591 121.819C156.616 121.88 156.628 121.945 156.627 122.011C156.617 122.141 156.561 122.263 156.467 122.354C156.374 122.445 156.251 122.498 156.121 122.505L114.869 122.016L116.03 169.948C136.436 172.437 161.535 172.058 175.88 169.03C176.01 169.003 176.145 169.028 176.256 169.1C176.367 169.173 176.445 169.287 176.472 169.416C176.5 169.546 176.474 169.682 176.402 169.793C176.329 169.904 176.216 169.982 176.086 170.009C159.494 173.51 133.044 173.073 115.479 170.887Z"></path><path fill="#ffffff" fill-rule="evenodd" d="M175.751 138.973C175.751 138.973 168.851 151.227 161.415 153.454C153.979 155.681 119.957 156.529 115.055 153.954L114.029 118.868L143.629 120.268L175.751 138.973Z" clip-rule="evenodd"></path><path fill="#0e2238" d="M114.822 154.394C114.744 154.353 114.677 154.291 114.631 154.216C114.584 154.141 114.558 154.054 114.555 153.966L113.529 118.88C113.527 118.811 113.539 118.742 113.565 118.678C113.591 118.614 113.629 118.557 113.679 118.508C113.728 118.46 113.787 118.422 113.851 118.398C113.915 118.373 113.984 118.362 114.053 118.366L143.653 119.766C143.843 119.775 141.53 118.461 176.003 138.544C176.116 138.61 176.199 138.718 176.234 138.845C176.268 138.971 176.251 139.106 176.187 139.221C175.901 139.729 169.102 151.677 161.559 153.936C153.892 156.227 119.849 157.037 114.822 154.394ZM115.545 153.63C121.151 155.98 154.074 155.13 161.271 152.975C167.657 151.063 173.771 141.316 175.071 139.153L143.487 120.753L114.549 119.387L115.545 153.63Z"></path><path fill="#def6f8" fill-rule="evenodd" d="M81.425 99.8511L108.948 100.163L111.412 125.649L81.087 125.214L81.425 99.8511Z" clip-rule="evenodd"></path><path fill="#0e2238" d="M111.91 125.6L109.445 100.113C109.433 99.9907 109.376 99.877 109.286 99.7938C109.195 99.7106 109.077 99.6637 108.954 99.6621L81.431 99.3501C81.3648 99.3471 81.2988 99.3577 81.2369 99.3812C81.175 99.4047 81.1186 99.4407 81.0711 99.4869C81.0237 99.5332 80.9863 99.5886 80.9611 99.6499C80.936 99.7111 80.9237 99.7769 80.925 99.8431C80.825 107.212 80.733 113.785 80.586 125.206C80.5851 125.272 80.5971 125.337 80.6214 125.398C80.6456 125.459 80.6817 125.515 80.7275 125.562C80.7733 125.609 80.8279 125.646 80.8882 125.672C80.9485 125.698 81.0133 125.712 81.079 125.713L111.413 126.148C111.483 126.148 111.552 126.133 111.615 126.105C111.679 126.077 111.736 126.036 111.783 125.984C111.829 125.932 111.865 125.872 111.887 125.806C111.909 125.739 111.917 125.669 111.91 125.6ZM108.493 100.657L110.013 116.372L81.713 115.811L81.919 100.356L108.493 100.657ZM81.593 124.72L81.699 116.811L110.11 117.374L110.861 125.14L81.593 124.72Z"></path><path fill="#ffffff" fill-rule="evenodd" d="M97.857 94.2439C97.1441 94.1713 96.4245 94.2854 95.769 94.5749C92.878 95.8749 91.5 98.0569 91.299 99.7979C91.098 101.539 92.144 107.482 93.299 107.229C93.637 107.156 93.866 106.463 94.015 105.521L94.132 104.653C94.2828 102.934 94.3445 101.209 94.317 99.4839C94.8939 99.2563 95.4927 99.0887 96.104 98.9839C96.639 97.4999 97.241 95.8609 97.857 94.2439Z" clip-rule="evenodd"></path><path fill="#ffffff" fill-rule="evenodd" d="M101.245 95.1379L99.786 99.1679C101.158 99.4239 102.095 99.6519 102.095 99.6519C102.095 99.6519 100.595 100.431 98.947 101.485L95.147 104.474C95.147 104.474 93.331 108.137 97.321 105.43C99.283 104.544 100.888 105.73 104.304 103.293C107.081 101.314 107.77 101.6 111.546 101.869C115.322 102.138 133.507 103.133 136.988 100.329L129.933 89.4409C129.933 89.4409 120.159 91.9339 115.976 93.7739C112.605 95.2677 108.945 95.9965 105.259 95.9079C103.886 95.8893 102.527 95.6286 101.245 95.1379V95.1379Z" clip-rule="evenodd"></path><path fill="#0e2238" d="M93.227 107.744C92.9847 107.739 92.7536 107.641 92.581 107.471C91.366 106.371 90.634 101.213 90.803 99.7471C91.003 97.9681 92.366 95.5581 95.564 94.1251C98.697 92.7251 101.702 95.5171 105.249 95.4071C115.404 95.1341 111.459 93.6291 129.813 88.9571C129.877 88.9405 129.943 88.9366 130.008 88.9457C130.074 88.9549 130.136 88.9768 130.193 89.0103C130.25 89.0438 130.3 89.0881 130.339 89.1409C130.379 89.1936 130.407 89.2536 130.424 89.3174C130.44 89.3813 130.443 89.4477 130.434 89.5129C130.424 89.5781 130.402 89.6408 130.368 89.6974C130.335 89.7539 130.29 89.8033 130.237 89.8425C130.184 89.8818 130.124 89.9102 130.06 89.9261C129.96 89.9501 120.277 92.4261 116.18 94.2261C112.75 95.7421 109.029 96.4849 105.28 96.4021C101.546 96.5071 98.611 93.8531 95.98 95.0331C93.164 96.2941 91.98 98.3521 91.802 99.8571C91.602 101.564 92.543 106.017 93.202 106.685C93.643 105.985 93.878 102.507 93.822 99.4951C93.8201 99.3953 93.8481 99.2971 93.9025 99.2134C93.9568 99.1296 94.035 99.064 94.127 99.0251C94.711 98.7941 95.3162 98.6209 95.934 98.5081C96.0645 98.4837 96.1993 98.5121 96.3088 98.5871C96.4184 98.6622 96.4936 98.7776 96.518 98.9081C96.5424 99.0386 96.514 99.1734 96.4389 99.2829C96.3639 99.3925 96.2485 99.4677 96.118 99.4921C95.6805 99.5742 95.2494 99.6875 94.828 99.8311C94.851 101.6 94.952 107.744 93.227 107.744Z"></path><path fill="#0e2238" d="M85.536 97.3128C85.258 97.3128 86.845 98.5308 61.297 77.5738C61.2304 77.5193 61.179 77.4486 61.1478 77.3684C61.1166 77.2883 61.1066 77.2014 61.1187 77.1162C61.1309 77.0311 61.1648 76.9505 61.2173 76.8823C61.2697 76.814 61.3388 76.7605 61.418 76.7268L83.218 67.4808C83.2937 67.4486 83.3763 67.4356 83.4583 67.4429C83.5402 67.4502 83.6192 67.4777 83.688 67.5228L108.66 83.9468C108.732 83.9943 108.791 84.0597 108.83 84.1366C108.87 84.2134 108.888 84.2992 108.885 84.3855C108.881 84.4718 108.855 84.5557 108.809 84.629C108.764 84.7024 108.7 84.7626 108.624 84.8038C84.192 98.1088 85.733 97.3128 85.536 97.3128ZM62.57 77.3248L85.592 96.2128L107.414 84.3238L83.363 68.5058L62.57 77.3248Z"></path><path fill="#def6f8" fill-rule="evenodd" d="M97.857 94.2442C97.475 95.2442 94.157 104.552 94.135 104.653C94.097 104.989 93.467 108.953 93.905 109.937C94.343 110.921 96.79 106.532 97.082 105.965L97.328 105.42C95.854 106.067 94.597 107.354 94.606 105.615C94.612 104.465 96.899 102.761 98.948 101.474L104.689 85.6202C104.426 85.232 104.023 84.9602 103.565 84.8613C103.107 84.7624 102.628 84.844 102.228 85.0892C101.4 85.4282 99.567 89.7522 97.857 94.2442Z" clip-rule="evenodd"></path><path fill="#0e2238" d="M94.613 106.885C94.4276 106.737 94.284 106.543 94.1963 106.323C94.1086 106.102 94.0799 105.863 94.113 105.628C94.123 103.782 98.394 101.14 100.685 99.856C100.394 99.796 100.063 99.73 99.702 99.662C99.6355 99.6521 99.5716 99.6288 99.5143 99.5937C99.457 99.5585 99.4073 99.5121 99.3683 99.4573C99.3293 99.4025 99.3018 99.3403 99.2874 99.2746C99.273 99.2089 99.272 99.141 99.2844 99.0749C99.2969 99.0088 99.3225 98.9459 99.3599 98.89C99.3972 98.834 99.4455 98.7862 99.5017 98.7493C99.558 98.7124 99.6211 98.6873 99.6873 98.6754C99.7535 98.6635 99.8214 98.665 99.887 98.68C101.274 98.94 102.221 99.17 102.221 99.17C102.32 99.1939 102.409 99.2475 102.477 99.3234C102.544 99.3993 102.587 99.4941 102.6 99.595C102.612 99.696 102.593 99.7983 102.546 99.8883C102.499 99.9784 102.425 100.052 102.335 100.099C99.335 101.658 95.119 104.405 95.113 105.633C95.1088 105.754 95.1189 105.875 95.143 105.993C95.4565 105.872 95.7579 105.721 96.043 105.543C97.0437 104.867 98.2255 104.51 99.433 104.518C101.099 104.487 102.71 103.916 104.024 102.89C106.684 100.99 107.669 101.074 110.595 101.3C114.873 101.629 133.313 102.661 136.684 99.944C136.735 99.9013 136.794 99.8693 136.857 99.8496C136.921 99.83 136.987 99.8232 137.054 99.8296C137.12 99.8361 137.184 99.8556 137.242 99.8872C137.301 99.9187 137.352 99.9615 137.394 100.013C137.436 100.065 137.467 100.124 137.485 100.188C137.504 100.252 137.509 100.319 137.502 100.385C137.494 100.451 137.473 100.515 137.441 100.573C137.408 100.63 137.364 100.681 137.312 100.722C133.593 103.722 115.312 102.664 110.517 102.297C107.648 102.077 106.968 102.02 104.604 103.704C103.14 104.832 101.356 105.466 99.509 105.515C98.4489 105.497 97.4098 105.811 96.538 106.415C95.914 106.767 95.185 107.22 94.613 106.885Z"></path><path fill="#00bac7" fill-rule="evenodd" d="M166.08 65.8999C166.993 66.7709 167.704 67.8305 168.165 69.0049C168.165 69.0049 175.685 79.3629 177.623 88.8459C179.561 98.3289 179.551 126.246 175.823 138.946C175.823 138.946 151.676 147.336 142.482 126.941C140.399 122.321 136.716 116.578 136.482 112.347C136.423 111.253 138.45 110.778 139.24 110.183C139.267 106.408 139.767 102.651 140.727 98.9999L138.633 102.179C138.633 102.179 132.182 95.3679 129.474 88.2909C129.474 88.2909 135.523 83.1129 137.716 80.0449C139.909 76.9769 147.936 69.9279 152.447 68.0659C156.958 66.2039 166.08 65.8999 166.08 65.8999Z" clip-rule="evenodd"></path><path fill="#0e2238" d="M178.113 88.7469C176.241 79.5919 169.155 69.5309 168.603 68.7589C168.114 67.5311 167.363 66.4247 166.403 65.5169C166.301 65.4364 166.171 65.3989 166.042 65.4124C165.912 65.4258 165.793 65.4892 165.71 65.589C165.626 65.6889 165.585 65.8173 165.595 65.9471C165.605 66.0768 165.665 66.1976 165.762 66.2839C166.61 67.1076 167.274 68.1023 167.708 69.2019C167.753 69.3069 175.228 79.6149 177.137 88.9469C179.107 98.5879 178.99 126.027 175.418 138.547C172.887 139.336 151.356 145.401 142.939 126.731C140.855 122.109 137.211 116.417 136.987 112.315C136.952 111.677 138.819 111.125 139.546 110.577C139.607 110.531 139.657 110.472 139.691 110.404C139.726 110.336 139.745 110.261 139.746 110.185C139.838 103.537 142.122 94.5319 144.113 86.8169C144.132 86.7526 144.137 86.6852 144.129 86.6187C144.122 86.5522 144.1 86.4879 144.067 86.4297C144.034 86.3715 143.99 86.3206 143.936 86.28C143.883 86.2393 143.822 86.2098 143.757 86.1931C143.693 86.1764 143.625 86.1729 143.559 86.1828C143.493 86.1928 143.429 86.2159 143.372 86.2508C143.315 86.2858 143.265 86.3319 143.226 86.3864C143.187 86.4408 143.16 86.5026 143.145 86.5679C139.476 100.857 140.616 98.2619 139.908 99.3359C135.791 95.1039 131.723 86.6179 131.681 86.5299C131.618 86.42 131.517 86.3379 131.396 86.3001C131.275 86.2622 131.145 86.2715 131.031 86.326C130.917 86.3805 130.828 86.4762 130.781 86.5938C130.735 86.7114 130.735 86.8423 130.781 86.9599C130.957 87.3309 135.062 95.8929 139.347 100.19L138.575 101.362C137.1 99.7139 132.189 93.9619 129.947 88.1069C129.923 88.0456 129.888 87.9895 129.843 87.9418C129.798 87.8942 129.744 87.8559 129.684 87.8291C129.624 87.8024 129.559 87.7877 129.493 87.786C129.428 87.7842 129.362 87.7954 129.301 87.8189C129.24 87.8424 129.184 87.8778 129.136 87.923C129.088 87.9682 129.05 88.0223 129.023 88.0823C128.996 88.1423 128.982 88.2069 128.98 88.2726C128.978 88.3382 128.989 88.4036 129.013 88.4649C131.726 95.5529 138.013 102.237 138.276 102.518C138.328 102.573 138.391 102.615 138.462 102.641C138.532 102.668 138.608 102.678 138.683 102.672C138.758 102.665 138.83 102.642 138.895 102.603C138.959 102.564 139.015 102.512 139.056 102.449L139.614 101.603C139.093 104.34 138.805 107.117 138.753 109.903C137.778 110.475 135.917 110.982 135.991 112.366C136.231 116.738 139.941 122.501 142.03 127.139C147.173 138.544 156.974 141.102 164.73 141.101C168.546 141.097 172.34 140.527 175.989 139.41C176.064 139.384 176.132 139.34 176.187 139.283C176.242 139.225 176.282 139.155 176.305 139.079C179.981 126.56 180.116 98.5449 178.113 88.7469Z"></path><path fill="#0e2238" d="M154.534 79.9349C154.393 79.9443 154.252 79.92 154.123 79.8638C153.994 79.8076 153.88 79.7212 153.791 79.6119C153.081 78.6939 153.233 75.8689 153.447 73.8899C152.099 75.5739 150.247 77.5679 149.187 77.3659C148.994 77.3248 148.818 77.2265 148.683 77.0837C148.547 76.9409 148.457 76.7604 148.426 76.5659C147.846 74.2539 151.197 68.6339 151.581 67.9999C151.615 67.9438 151.66 67.8949 151.713 67.856C151.766 67.8172 151.826 67.7892 151.89 67.7736C151.954 67.758 152.02 67.7551 152.085 67.7651C152.15 67.7751 152.212 67.7978 152.268 67.8319C152.324 67.866 152.373 67.9108 152.412 67.9637C152.451 68.0167 152.479 68.0768 152.494 68.1406C152.51 68.2044 152.513 68.2706 152.503 68.3355C152.493 68.4004 152.47 68.4627 152.436 68.5189C151.453 70.1409 148.99 74.7049 149.396 76.3189C149.437 76.4829 149.436 76.4189 149.436 76.4189C149.93 76.4189 151.984 74.2799 153.782 71.8009C153.848 71.7093 153.942 71.6425 154.051 71.6115C154.159 71.5805 154.275 71.5869 154.379 71.6299C154.483 71.6729 154.57 71.7498 154.625 71.8482C154.68 71.9465 154.7 72.0606 154.682 72.1719C154.315 74.5149 154.04 78.0979 154.542 78.9439C156.074 79.0769 165.531 72.4179 167.042 67.5849C167.082 67.4584 167.17 67.3529 167.288 67.2915C167.405 67.2302 167.543 67.2181 167.669 67.2579C167.796 67.2977 167.901 67.3861 167.962 67.5037C168.024 67.6213 168.036 67.7584 167.996 67.8849C166.5 72.6709 157.029 79.9349 154.534 79.9349Z"></path><path fill="#ffffff" fill-rule="evenodd" d="M147.121 36.6759C147.121 36.6759 141.842 39.2699 140.509 43.2159C139.176 47.1619 141.819 47.0589 140.376 49.7229C138.933 52.3869 135.954 54.5679 137.363 56.0089C137.693 56.4057 138.099 56.7322 138.557 56.9693C139.015 57.2063 139.517 57.349 140.031 57.3889C140.031 57.3889 140.506 62.6759 142.725 65.9149C143.434 67.085 144.57 67.9337 145.893 68.2819C148.043 68.7586 150.293 68.4265 152.214 67.3489L153.789 71.7809C153.789 71.7809 157.307 73.7179 166.027 66.0039L167.021 40.9389C164.148 38.954 160.911 37.5557 157.496 36.8241C154.081 36.0926 150.555 36.0422 147.121 36.6759V36.6759Z" clip-rule="evenodd"></path><path fill="#0e2238" d="M155.012 72.4941C154.509 72.5212 154.008 72.4283 153.548 72.2231C153.308 72.0911 153.419 72.2371 151.939 68.0721C150.023 68.978 147.86 69.2241 145.789 68.7721C141.756 67.9021 140.069 61.8811 139.578 57.8441C138.587 57.629 137.688 57.1098 137.006 56.3591C135.206 54.5221 138.468 52.1991 139.936 49.4851C140.164 49.156 140.296 48.7698 140.317 48.3699C140.338 47.9699 140.247 47.572 140.054 47.2211C139.763 46.5658 139.611 45.8574 139.608 45.1405C139.605 44.4237 139.75 43.7139 140.035 43.0561C141.419 38.9561 146.679 36.3411 146.902 36.2321C147.021 36.1737 147.159 36.1652 147.285 36.2083C147.41 36.2514 147.514 36.3427 147.572 36.4621C147.63 36.5814 147.639 36.719 147.596 36.8447C147.553 36.9703 147.461 37.0737 147.342 37.1321C147.291 37.1571 142.232 39.6791 140.982 43.3791C140.736 43.9258 140.609 44.5185 140.609 45.1181C140.609 45.7176 140.736 46.3103 140.982 46.8571C141.23 47.344 141.346 47.888 141.316 48.4338C141.286 48.9796 141.113 49.5079 140.813 49.9651C139.473 52.4421 136.73 54.6531 137.719 55.6651C138.29 56.3627 139.114 56.8051 140.011 56.8951C140.138 56.8932 140.261 56.9387 140.356 57.0226C140.452 57.1065 140.513 57.2229 140.527 57.3491C140.527 57.4011 141.018 62.5491 143.136 65.6381C143.774 66.7031 144.801 67.4784 146 67.8001C148.021 68.2385 150.133 67.9306 151.945 66.9331C152.008 66.8924 152.08 66.8666 152.155 66.8575C152.23 66.8485 152.305 66.8564 152.377 66.8807C152.448 66.905 152.513 66.9451 152.566 66.998C152.62 67.0509 152.661 67.1151 152.686 67.1861L154.186 71.3991C154.923 71.5991 158.386 72.0561 165.539 65.7751L165.604 64.1521C165.605 64.086 165.619 64.0208 165.646 63.9605C165.673 63.9001 165.712 63.8459 165.761 63.8011C165.809 63.7563 165.866 63.7218 165.929 63.6998C165.991 63.6778 166.057 63.6687 166.123 63.6731C166.255 63.6783 166.38 63.7359 166.47 63.8332C166.56 63.9305 166.608 64.0596 166.603 64.1921L166.529 66.0291C166.526 66.0965 166.51 66.1627 166.481 66.2237C166.452 66.2848 166.412 66.3393 166.361 66.3841C160.488 71.5771 156.849 72.4941 155.012 72.4941Z"></path><path fill="#0e2238" fill-rule="evenodd" d="M148.2 35.1162C147.359 34.2089 146.235 33.613 145.012 33.4256C143.79 33.2383 142.539 33.4704 141.465 34.0842C137.511 36.2332 136.709 42.7252 140.121 45.4482C140.153 44.0489 140.578 42.687 141.348 41.5182C142.839 39.4495 144.823 37.7852 147.119 36.6762C147.119 36.6762 151.896 37.4762 150.819 40.5952C150.216 42.4151 148.95 43.9415 147.273 44.8712C147.891 45.246 148.578 45.4937 149.293 45.5999C150.008 45.7061 150.737 45.6685 151.437 45.4894C152.138 45.3104 152.795 44.9934 153.372 44.557C153.948 44.1207 154.432 43.5737 154.794 42.9482C154.794 42.9482 154.27 47.4302 152.005 49.4162C152.866 49.0145 153.698 48.5541 154.496 48.0382C154.496 48.0382 156.482 49.7892 155.779 51.6262C155.076 53.4632 153.773 55.9382 153.773 55.9382C153.773 55.9382 156.273 56.7452 157.294 56.3872C157.294 56.3872 158.794 51.7012 161.678 51.3452C164.562 50.9892 167.703 53.7672 164.361 57.9862C164.361 57.9862 164.395 63.6522 166.086 64.4782C166.961 61.2487 168.045 58.0796 169.332 54.9912C170.757 52.0982 173.994 45.9582 172.561 42.0672C171.128 38.1762 164.118 31.4892 158.191 31.9472C151.967 32.4282 150.832 33.3202 148.2 35.1162Z" clip-rule="evenodd"></path><path fill="#0e2238" d="M151.677 49.0378C152.817 47.8297 153.599 46.3285 153.935 44.7018C150.735 47.5628 147.05 45.3198 147.008 45.2928C146.932 45.2451 146.871 45.1779 146.83 45.0982C146.789 45.0185 146.77 44.9293 146.775 44.8399C146.78 44.7505 146.81 44.6641 146.86 44.5899C146.91 44.5156 146.979 44.4562 147.06 44.4178C148.61 43.538 149.78 42.1178 150.348 40.4288C150.449 40.1827 150.493 39.9167 150.476 39.6512C150.458 39.3856 150.38 39.1276 150.248 38.8968C149.648 37.8848 147.959 37.3528 147.184 37.1968C145.031 38.264 143.171 39.8406 141.765 41.7898C141.056 42.8755 140.658 44.1355 140.617 45.4318C140.622 45.5644 140.574 45.6935 140.484 45.7908C140.393 45.888 140.268 45.9454 140.135 45.9503C140.003 45.9552 139.874 45.9072 139.777 45.8169C139.679 45.7266 139.622 45.6014 139.617 45.4688C139.644 43.9671 140.097 42.5039 140.923 41.2498C142.461 39.096 144.519 37.3661 146.905 36.2208C146.996 36.1784 147.098 36.1645 147.197 36.1808C147.315 36.2008 150.097 36.6888 151.107 38.3908C151.314 38.7464 151.438 39.1445 151.47 39.5551C151.501 39.9656 151.438 40.3779 151.287 40.7608C150.733 42.3863 149.693 43.8021 148.307 44.8158C149.6 45.3048 152.257 45.7748 154.376 42.6678C154.439 42.5757 154.531 42.5075 154.638 42.4739C154.744 42.4403 154.859 42.4433 154.963 42.4824C155.068 42.5215 155.156 42.5945 155.215 42.6897C155.273 42.7849 155.298 42.8969 155.285 43.0078C155.061 44.7058 154.554 46.3543 153.785 47.8848C156.038 46.5128 159.385 43.9298 159.33 40.7388C159.243 35.9098 154.543 32.4518 148.417 35.5638C148.358 35.5959 148.294 35.6159 148.227 35.6226C148.161 35.6293 148.093 35.6226 148.029 35.6028C147.965 35.583 147.906 35.5506 147.855 35.5075C147.804 35.4643 147.762 35.4114 147.731 35.3517C147.701 35.2921 147.683 35.2269 147.678 35.1601C147.674 35.0934 147.682 35.0264 147.704 34.963C147.726 34.8997 147.76 34.8414 147.805 34.7915C147.849 34.7417 147.903 34.7013 147.964 34.6728C154.628 31.2868 160.227 35.0358 160.33 40.7208C160.43 46.1598 152.53 49.7258 152.198 49.8748C152.089 49.9195 151.967 49.9242 151.855 49.8878C151.742 49.8515 151.646 49.7766 151.584 49.6763C151.522 49.576 151.497 49.4569 151.514 49.34C151.531 49.2232 151.589 49.1161 151.677 49.0378Z"></path><path fill="#0e2238" d="M143.6 62.1271C143.098 62.1199 142.602 62.0118 142.142 61.8091C142.035 61.7454 141.956 61.6443 141.92 61.5255C141.884 61.4066 141.893 61.2786 141.946 61.1663C141.999 61.0539 142.092 60.9654 142.207 60.9178C142.322 60.8703 142.45 60.8672 142.567 60.9091C143.097 61.1563 143.703 61.1854 144.254 60.9901C144.478 60.8449 144.667 60.6499 144.804 60.4203C144.941 60.1907 145.023 59.9326 145.044 59.6661C145.069 59.5357 145.144 59.4206 145.254 59.3459C145.364 59.2713 145.499 59.2433 145.629 59.2681C145.759 59.2929 145.874 59.3685 145.949 59.4782C146.024 59.5879 146.052 59.7227 146.027 59.8531C145.987 60.4695 145.714 61.0475 145.263 61.4698C144.812 61.8921 144.218 62.1271 143.6 62.1271V62.1271Z"></path><path fill="#0e2238" d="M144.424 52.2719C144.842 52.2369 145.139 51.7029 145.087 51.0799C145.035 50.4569 144.655 49.9799 144.237 50.0139C143.819 50.0479 143.523 50.5819 143.574 51.2049C143.625 51.8279 144.006 52.3059 144.424 52.2719Z"></path><path fill="#0e2238" d="M161.307 50.962L149.407 48.29V47.732C149.407 47.6014 149.356 47.476 149.265 47.3826C149.174 47.2892 149.05 47.2351 148.919 47.232L141.367 47.069C141.301 47.0675 141.235 47.0792 141.174 47.1033C141.112 47.1274 141.056 47.1634 141.008 47.2094C140.961 47.2553 140.923 47.3102 140.897 47.3709C140.871 47.4316 140.857 47.4969 140.856 47.563L140.782 54.23C140.782 54.3572 140.83 54.4798 140.917 54.5727C141.004 54.6656 141.123 54.7218 141.25 54.73L148.866 55.223C148.999 55.2201 149.126 55.167 149.222 55.0743C149.318 54.9815 149.375 54.856 149.382 54.723V49.313C161.753 52.087 161.096 51.949 161.197 51.949C161.319 51.9482 161.437 51.9025 161.528 51.8205C161.619 51.7386 161.677 51.6261 161.691 51.5044C161.704 51.3827 161.673 51.2602 161.602 51.1602C161.531 51.0602 161.426 50.9897 161.307 50.962V50.962ZM148.388 54.191L141.788 53.764L141.85 48.076L148.387 48.218L148.388 54.191Z"></path><path fill="#0e2238" d="M169.554 54.5428C169.435 54.4844 169.298 54.4756 169.172 54.5183C169.047 54.5611 168.944 54.6519 168.885 54.7708C167.669 57.6162 166.651 60.5418 165.836 63.5268C165.158 61.8186 164.827 59.9923 164.864 58.1548C166.864 55.5418 166.348 53.6908 165.853 52.8108C165.417 52.105 164.783 51.5428 164.03 51.1939C163.277 50.8449 162.439 50.7246 161.618 50.8478C158.848 51.1908 157.298 54.9088 156.918 55.9638C156.1 55.9789 155.284 55.8658 154.501 55.6288C154.927 54.7908 155.74 53.1448 156.252 51.8048C157.07 49.6678 154.924 47.7438 154.833 47.6628C154.734 47.575 154.603 47.5303 154.471 47.5386C154.339 47.5468 154.215 47.6073 154.127 47.7068C154.039 47.8062 153.995 47.9365 154.003 48.0689C154.011 48.2013 154.072 48.325 154.171 48.4128C154.189 48.4278 155.891 49.9518 155.317 51.4468C154.635 53.2338 153.349 55.6798 153.336 55.7048C153.302 55.7693 153.283 55.8404 153.279 55.9132C153.276 55.9859 153.288 56.0585 153.316 56.126C153.343 56.1934 153.385 56.254 153.439 56.3036C153.492 56.3531 153.556 56.3904 153.625 56.4128C154.552 56.7128 157.482 57.4578 157.775 56.5398C157.79 56.4958 159.217 52.1538 161.746 51.8398C162.369 51.746 163.006 51.8339 163.581 52.0928C164.156 52.3517 164.643 52.7708 164.986 53.2998C165.986 55.0728 164.476 59.4538 159.886 59.1478C159.753 59.137 159.622 59.1794 159.521 59.2656C159.419 59.3518 159.356 59.4747 159.346 59.6073C159.335 59.7399 159.377 59.8713 159.463 59.9727C159.549 60.0741 159.672 60.137 159.805 60.1478C161.24 60.2744 162.678 59.9342 163.905 59.1778C164.253 65.1038 166.321 65.5108 166.57 64.6128C167.438 61.4134 168.511 58.2736 169.784 55.2128C169.813 55.1537 169.83 55.0895 169.834 55.0238C169.838 54.9581 169.83 54.8923 169.808 54.83C169.787 54.7678 169.753 54.7104 169.71 54.6611C169.666 54.6118 169.613 54.5716 169.554 54.5428Z"></path><path fill="#0e2238" d="M164.817 53.0998C164.607 52.8264 164.328 52.6133 164.009 52.4818C163.69 52.3503 163.342 52.3051 163 52.3508C160.886 52.4108 159.393 53.9018 158.905 56.4408C158.88 56.571 158.908 56.7058 158.982 56.8156C159.056 56.9254 159.171 57.0012 159.302 57.0263C159.432 57.0513 159.567 57.0236 159.676 56.9493C159.786 56.8749 159.862 56.76 159.887 56.6298C160.005 55.9573 160.249 55.3128 160.604 54.7298C161.322 55.1936 162.094 55.5662 162.904 55.8388C163.031 55.8786 163.168 55.8665 163.285 55.8051C163.403 55.7438 163.491 55.6383 163.531 55.5118C163.571 55.3853 163.559 55.2481 163.497 55.1305C163.436 55.013 163.331 54.9246 163.204 54.8848C162.526 54.6568 161.878 54.3494 161.272 53.9688C161.77 53.5691 162.388 53.3496 163.026 53.3458C163.52 53.3258 163.839 53.4328 163.985 53.6458C164.257 54.0458 164.007 54.8588 163.897 55.1128C163.844 55.2344 163.841 55.3721 163.89 55.4956C163.938 55.6191 164.034 55.7182 164.156 55.7713C164.277 55.8243 164.415 55.8269 164.538 55.7784C164.662 55.7299 164.761 55.6344 164.814 55.5128C164.993 55.136 165.087 54.724 165.087 54.3066C165.088 53.8893 164.995 53.477 164.817 53.0998V53.0998Z"></path><path fill="#0e2238" d="M160.518 59.019C161.169 59.019 161.696 58.5154 161.696 57.894C161.696 57.2727 161.169 56.769 160.518 56.769C159.867 56.769 159.34 57.2727 159.34 57.894C159.34 58.5154 159.867 59.019 160.518 59.019Z"></path><path fill="#0e2238" d="M54.247 62.4661L48.855 62.2421C48.7893 62.2394 48.7249 62.2237 48.6652 62.196C48.6056 62.1684 48.5521 62.1292 48.5076 62.0808C48.4631 62.0325 48.4286 61.9758 48.406 61.9141C48.3834 61.8524 48.3732 61.7868 48.376 61.7211C48.3787 61.6555 48.3944 61.591 48.4221 61.5314C48.4498 61.4718 48.4889 61.4182 48.5373 61.3737C48.5857 61.3293 48.6423 61.2947 48.7041 61.2722C48.7658 61.2496 48.8313 61.2394 48.897 61.2421L54.267 61.4661C54.3996 61.4688 54.5257 61.524 54.6176 61.6197C54.7095 61.7153 54.7596 61.8435 54.757 61.9761C54.7543 62.1087 54.6991 62.2349 54.6035 62.3268C54.5078 62.4187 54.3796 62.4688 54.247 62.4661V62.4661Z"></path><path fill="#0e2238" d="M112.816 94.8238L111.942 64.8888L67.281 63.0258C67.1484 63.0203 67.0234 62.9622 66.9336 62.8645C66.8438 62.7668 66.7964 62.6374 66.802 62.5048C66.8076 62.3722 66.8656 62.2473 66.9633 62.1574C67.061 62.0676 67.1904 62.0203 67.323 62.0258L112.449 63.9078C112.575 63.9131 112.695 63.9661 112.784 64.0561C112.873 64.1461 112.924 64.2664 112.928 64.3928L113.816 94.7928C113.82 94.9254 113.771 95.0541 113.68 95.1506C113.589 95.2471 113.463 95.3035 113.33 95.3073C113.198 95.3112 113.069 95.2622 112.973 95.1711C112.876 95.0801 112.82 94.9544 112.816 94.8218V94.8238Z"></path><path fill="#0e2238" d="M115.2 176.015L113.036 102.015C113.034 101.949 113.045 101.884 113.069 101.823C113.092 101.761 113.127 101.705 113.172 101.657C113.218 101.61 113.272 101.571 113.332 101.544C113.392 101.518 113.456 101.503 113.522 101.501C113.652 101.506 113.776 101.558 113.87 101.647C113.965 101.736 114.024 101.857 114.036 101.986L116.2 175.991C116.204 176.124 116.155 176.252 116.064 176.349C115.973 176.445 115.847 176.502 115.714 176.505C115.582 176.509 115.453 176.46 115.357 176.369C115.26 176.278 115.204 176.153 115.2 176.02V176.015Z"></path><path fill="#0e2238" d="M94.084 110.577C93.9472 110.575 93.8142 110.532 93.7014 110.455C93.5885 110.378 93.5008 110.269 93.449 110.142C92.978 109.09 93.529 105.311 93.649 104.564C95.168 100.013 100.201 85.3782 102.044 84.6262C102.559 84.3378 103.164 84.2552 103.737 84.3951C104.31 84.5351 104.809 84.8871 105.133 85.3802C105.167 85.4424 105.188 85.5111 105.193 85.5818C105.199 85.6525 105.189 85.7235 105.165 85.7902L99.472 101.5C99.4496 101.562 99.4153 101.619 99.371 101.667C99.3266 101.716 99.2732 101.755 99.2136 101.783C99.1541 101.811 99.0897 101.827 99.024 101.83C98.9584 101.833 98.8928 101.823 98.831 101.8C98.7692 101.778 98.7125 101.743 98.6639 101.699C98.6154 101.655 98.5761 101.601 98.5483 101.542C98.5204 101.482 98.5045 101.418 98.5016 101.352C98.4986 101.287 98.5086 101.221 98.531 101.159L104.131 85.7062C103.899 85.5027 103.608 85.3781 103.301 85.3506C102.994 85.3231 102.685 85.3941 102.421 85.5532C101.387 86.1272 97.639 95.7912 94.616 104.801C94.3643 106.312 94.2539 107.842 94.286 109.373C95.3123 108.097 96.1828 106.702 96.879 105.219C96.9347 105.102 97.0338 105.011 97.1555 104.965C97.2772 104.919 97.4119 104.923 97.531 104.975C97.65 105.027 97.7442 105.123 97.7935 105.244C97.8428 105.364 97.8433 105.499 97.795 105.619C97.333 106.667 95.219 110.577 94.084 110.577Z"></path><path fill="#ffffff" fill-rule="evenodd" d="M136.526 112.85L133.538 115.513C130.503 115.646 127.488 116.068 124.533 116.773C120.715 117.83 103.924 122.357 96.45 121.591C88.976 120.825 75.288 116.756 70.895 118.991C66.502 121.226 64.714 123.153 65.85 123.704C66.328 123.936 67.887 123.183 67.887 123.183C66.9557 123.878 66.2073 124.788 65.706 125.836C65.066 127.385 65.122 128.126 65.854 128.146C66.586 128.166 67.708 126.138 69.723 125.184C70.9398 124.57 72.2674 124.206 73.6272 124.114C74.987 124.022 76.3515 124.204 77.64 124.648C77.64 124.648 72.182 124.841 70.353 126.171C68.524 127.501 65.923 130.04 67.231 130.507C68.539 130.974 73.762 124.78 79.912 128.318C79.912 128.318 75.542 128.968 73.619 130.718C71.696 132.468 72.241 133.392 73.062 133.431C73.883 133.47 75.974 130.796 79.035 130.831C82.096 130.866 86.968 131.675 90.426 131.051C93.884 130.427 93 129.915 98.058 130.322C103.116 130.729 119.904 131.191 129.474 129.842C136.181 129.015 142.626 126.728 148.355 123.142C148.355 123.142 143.576 120.833 136.526 112.85Z" clip-rule="evenodd"></path><path fill="#0e2238" d="M176.606 103.888C176.491 103.823 176.354 103.806 176.226 103.842C176.098 103.878 175.99 103.962 175.925 104.078C173.249 108.825 163.379 117.711 157.79 122.538C151.42 119.706 142.151 111.906 140.029 110.086C143.629 107.192 152.629 101.932 158.629 92.8229C160.329 90.1694 162.556 87.8937 165.172 86.1375C167.789 84.3812 170.738 83.1818 173.838 82.6139C173.968 82.597 174.085 82.5301 174.166 82.4274C174.247 82.3247 174.284 82.1945 174.27 82.0646C174.256 81.9348 174.192 81.8155 174.091 81.7324C173.991 81.6493 173.861 81.6089 173.731 81.62C170.476 82.1791 167.375 83.4166 164.63 85.2521C161.884 87.0876 159.555 89.48 157.794 92.274C151.652 101.605 142.219 106.854 138.954 109.674C138.893 109.72 138.843 109.78 138.808 109.848C138.774 109.916 138.755 109.992 138.755 110.068C138.754 110.145 138.771 110.221 138.804 110.29C138.837 110.359 138.886 110.42 138.946 110.467C139.616 111.055 149.729 119.872 156.955 123.253C155.555 124.453 154.521 125.317 154.088 125.677C144.606 122.035 136.988 112.609 136.913 112.513C136.83 112.409 136.709 112.343 136.578 112.328C136.446 112.313 136.313 112.352 136.21 112.434C136.106 112.517 136.039 112.638 136.025 112.77C136.01 112.902 136.048 113.034 136.131 113.138C136.21 113.238 144.139 123.053 154.009 126.716C154.091 126.746 154.18 126.755 154.266 126.74C154.352 126.726 154.433 126.689 154.501 126.633C159.658 122.394 173.475 110.455 176.795 104.565C176.859 104.45 176.875 104.314 176.84 104.188C176.804 104.061 176.72 103.953 176.606 103.888Z"></path><path fill="#0e2238" d="M142.134 108.4C142.064 108.4 141.995 108.386 141.931 108.358C141.867 108.33 141.809 108.289 141.762 108.237C141.715 108.185 141.679 108.124 141.657 108.058C141.635 107.991 141.627 107.921 141.634 107.851C143.123 92.7021 153.426 72.3861 153.534 72.1831C153.563 72.1227 153.603 72.0686 153.653 72.0241C153.703 71.9796 153.761 71.9456 153.825 71.9241C153.888 71.9025 153.955 71.8939 154.022 71.8988C154.089 71.9036 154.154 71.9218 154.213 71.9523C154.273 71.9827 154.326 72.0248 154.369 72.0761C154.412 72.1273 154.444 72.1867 154.464 72.2506C154.483 72.3146 154.49 72.3819 154.483 72.4484C154.476 72.515 154.456 72.5795 154.424 72.6381C154.324 72.8381 144.104 92.9901 142.633 107.949C142.621 108.073 142.563 108.188 142.471 108.271C142.378 108.354 142.258 108.4 142.134 108.4V108.4Z"></path><path fill="#0e2238" d="M148.392 123.118C148.358 123.062 148.313 123.013 148.26 122.974C148.207 122.935 148.146 122.908 148.082 122.892C148.019 122.877 147.952 122.874 147.887 122.884C147.822 122.895 147.76 122.917 147.704 122.952C142.154 126.414 135.903 128.598 129.404 129.345C119.894 130.686 103.156 130.229 98.098 129.822C94.455 129.529 93.798 129.707 92.498 130.062C89.057 131.001 87.188 130.898 82.524 130.533C81.563 130.458 79.956 130.333 78.985 130.333C75.918 130.333 73.675 132.864 73.085 132.933C73.034 132.933 72.863 132.915 72.825 132.808C72.76 132.629 72.914 132.038 73.956 131.09C75.742 129.465 79.943 128.823 79.985 128.816C80.0877 128.801 80.1832 128.754 80.258 128.682C80.3329 128.61 80.3836 128.516 80.4029 128.414C80.4223 128.312 80.4094 128.207 80.366 128.112C80.3227 128.018 80.251 127.94 80.161 127.888C73.978 124.332 68.569 130.056 67.381 130.056C67.314 129.662 68.654 128.028 70.647 126.578C72.047 125.562 76.182 125.203 77.658 125.151C77.7752 125.147 77.8872 125.102 77.9745 125.023C78.0618 124.945 78.1188 124.839 78.1356 124.723C78.1524 124.607 78.1279 124.488 78.0664 124.389C78.0048 124.289 77.9102 124.214 77.799 124.177C76.45 123.71 75.0211 123.519 73.5969 123.615C72.1727 123.711 70.7823 124.092 69.508 124.735C67.501 125.686 66.364 127.578 65.787 127.646C65.787 127.646 65.62 127.356 66.168 126.03C67.508 122.784 72.044 121.647 75.56 121.901C75.6926 121.908 75.8226 121.862 75.9215 121.773C76.0203 121.685 76.0798 121.56 76.087 121.428C76.0942 121.295 76.0483 121.165 75.9596 121.066C75.8709 120.968 75.7466 120.908 75.614 120.901C72.9949 120.689 70.3701 121.234 68.052 122.472C67.639 122.71 66.48 123.356 66.017 123.234C65.967 122.885 67.184 121.445 71.122 119.434C75.296 117.308 89.039 121.334 96.399 122.084C103.728 122.83 119.889 118.573 124.666 117.25C127.584 116.556 130.561 116.14 133.558 116.007C133.813 115.998 133.647 116.077 136.858 113.218C136.91 113.175 136.952 113.122 136.983 113.062C137.014 113.003 137.032 112.937 137.037 112.871C137.042 112.804 137.034 112.736 137.012 112.673C136.991 112.609 136.957 112.55 136.912 112.5C136.867 112.45 136.813 112.41 136.752 112.381C136.692 112.352 136.626 112.336 136.559 112.333C136.491 112.331 136.424 112.342 136.362 112.365C136.299 112.389 136.242 112.425 136.193 112.472L133.338 115.016C130.325 115.151 127.332 115.577 124.4 116.286C119.665 117.598 103.66 121.82 96.5 121.086C88.909 120.309 75.282 116.186 70.667 118.541C68.967 119.409 65.001 121.605 65.016 123.233C65.0189 123.369 65.0491 123.504 65.1047 123.629C65.1604 123.754 65.2403 123.866 65.34 123.96C65.4396 124.054 65.5569 124.126 65.685 124.174C65.8131 124.222 65.9494 124.243 66.086 124.238C65.742 124.664 65.4583 125.135 65.243 125.638C64.719 126.905 64.628 127.689 64.943 128.181C65.0392 128.328 65.172 128.447 65.3284 128.528C65.4848 128.608 65.6594 128.646 65.835 128.639C66.875 128.648 67.568 126.964 69.781 125.813C68.908 126.513 66.188 128.836 66.381 130.188C66.4077 130.369 66.4853 130.539 66.6048 130.677C66.7243 130.816 66.8808 130.918 67.056 130.971C68.738 131.571 72.884 126.199 78.308 128.121C76.4843 128.47 74.7637 129.229 73.276 130.34C71.776 131.703 71.688 132.613 71.876 133.14C71.9672 133.371 72.1259 133.57 72.3315 133.71C72.5372 133.85 72.7802 133.925 73.029 133.925C74.186 133.964 76.029 131.325 79.021 131.325C82.088 131.357 86.966 132.177 90.507 131.538C94.048 130.899 93.041 130.414 98.007 130.815C103.095 131.224 119.946 131.682 129.532 130.331C136.167 129.567 142.549 127.337 148.215 123.801C148.329 123.734 148.411 123.624 148.445 123.496C148.478 123.368 148.459 123.232 148.392 123.118Z"></path><path fill="#def6f8" fill-rule="evenodd" d="M15.743 97.3662C15.743 97.3662 10.976 113.5 13.406 115.526C15.836 117.552 45.85 117.249 45.85 117.249L50.944 104.369L34.524 103.897L15.743 97.3662Z" clip-rule="evenodd"></path><path fill="#0e2238" d="M13.086 115.91C10.532 113.781 14.452 99.9708 15.264 97.2238C15.2827 97.1608 15.3135 97.1022 15.3548 97.0511C15.3962 97.0001 15.4471 96.9577 15.5049 96.9263C15.5626 96.895 15.6259 96.8753 15.6912 96.8685C15.7565 96.8616 15.8225 96.8677 15.8855 96.8863C15.9485 96.905 16.0072 96.9358 16.0582 96.9771C16.1092 97.0185 16.1516 97.0694 16.183 97.1272C16.2143 97.1849 16.234 97.2482 16.2408 97.3135C16.2477 97.3788 16.2416 97.4448 16.223 97.5078C14.282 104.076 12.223 113.89 13.723 115.141C15.39 116.532 34.308 116.808 45.843 116.749C45.9756 116.748 46.1032 116.8 46.1976 116.893C46.292 116.986 46.3456 117.113 46.3465 117.245C46.3474 117.378 46.2956 117.505 46.2025 117.6C46.1094 117.694 45.9826 117.748 45.85 117.749C42.622 117.781 15.58 117.988 13.086 115.91Z"></path><path fill="#def6f8" fill-rule="evenodd" d="M22.319 124.32H26.819L50.938 74.169L42.145 24.757L37.886 24L5 53.374L22.319 124.32Z" clip-rule="evenodd"></path><path fill="#0e2238" d="M51.164 73.7189C51.1048 73.6903 51.0405 73.6737 50.9749 73.67C50.9092 73.6663 50.8435 73.6756 50.7815 73.6973C50.7194 73.7191 50.6623 73.7528 50.6133 73.7967C50.5643 73.8405 50.5244 73.8936 50.496 73.9529L26.975 122.853L9.848 54.1629L42.486 25.1319C42.5851 25.0437 42.645 24.9198 42.6527 24.7874C42.6604 24.6549 42.6152 24.5249 42.527 24.4259C42.4388 24.3268 42.3149 24.2668 42.1825 24.2591C42.0501 24.2515 41.9201 24.2967 41.821 24.3849L9.132 53.4619L5.071 52.8769C4.98988 52.8651 4.90712 52.8735 4.83 52.9012C4.75288 52.929 4.68377 52.9753 4.62875 53.0361C4.57373 53.0968 4.53448 53.1701 4.51447 53.2496C4.49446 53.3291 4.4943 53.4123 4.514 53.4919L21.833 124.439C21.8596 124.548 21.922 124.644 22.0101 124.713C22.0983 124.782 22.207 124.82 22.319 124.82H26.794C26.8931 124.826 26.9918 124.802 27.0775 124.752C27.1631 124.702 27.2319 124.627 27.275 124.538L51.4 74.3869C51.4285 74.3275 51.445 74.2631 51.4485 74.1974C51.4521 74.1317 51.4426 74.0659 51.4207 74.0038C51.3988 73.9418 51.3648 73.8847 51.3208 73.8358C51.2767 73.7869 51.2234 73.7471 51.164 73.7189ZM5.661 53.9729L8.885 54.4369L26.185 123.82H22.711L5.661 53.9729Z"></path><path fill="#ffffff" fill-rule="evenodd" d="M13.409 55.5851L27.009 112.796L47.675 71.8861L40.175 29.9111L13.409 55.5851Z" clip-rule="evenodd"></path><path fill="#0e2238" d="M26.523 112.912L12.923 55.7C12.9027 55.6152 12.9049 55.5266 12.9295 55.4429C12.9541 55.3592 13.0001 55.2834 13.063 55.223L39.829 29.55C39.8943 29.4875 39.9754 29.4438 40.0635 29.4237C40.1517 29.4035 40.2437 29.4077 40.3297 29.4357C40.4157 29.4637 40.4925 29.5146 40.5519 29.5828C40.6113 29.651 40.6511 29.734 40.667 29.823L48.167 71.798C48.213 72.053 49.667 69.132 27.456 113.022C27.4098 113.114 27.3366 113.189 27.2463 113.237C27.1559 113.286 27.0529 113.305 26.951 113.293C26.8492 113.281 26.7535 113.238 26.6769 113.17C26.6003 113.102 26.5466 113.012 26.523 112.912ZM13.962 55.748L27.18 111.348L47.154 71.809L39.847 30.918L13.962 55.748Z"></path><path fill="#00bac7" fill-rule="evenodd" d="M42.154 100.123L43.008 102.371L54.041 103.097L56.641 95.919L56.079 93.708H46.139L42.154 100.123Z" clip-rule="evenodd"></path><path fill="#0e2238" d="M57.125 95.7999L56.563 93.5929C56.5364 93.4845 56.4743 93.3881 56.3866 93.319C56.2989 93.25 56.1906 93.2123 56.079 93.2119H46.139C46.0542 93.2115 45.9707 93.2327 45.8964 93.2735C45.822 93.3142 45.7593 93.3732 45.714 93.4449L41.729 99.8629C41.6883 99.9283 41.6632 100.002 41.6557 100.079C41.6483 100.156 41.6586 100.233 41.686 100.305L42.541 102.553C42.5751 102.642 42.6342 102.72 42.7114 102.777C42.7885 102.834 42.8803 102.868 42.976 102.874L54.041 103.601C54.1439 103.601 54.2444 103.569 54.3287 103.51C54.413 103.451 54.477 103.368 54.512 103.271C57.358 95.4239 57.18 96.0099 57.125 95.7999ZM46.417 94.2079H54.928L52.586 100.073L43.227 99.3429L46.417 94.2079ZM42.759 100.308L52.6 101.077L53.2 102.54L43.362 101.892L42.759 100.308ZM53.978 101.8L53.468 100.558L55.812 94.6899L56.119 95.8899L53.978 101.8Z"></path><path fill="#def6f8" fill-rule="evenodd" d="M63.126 57.4519L66.572 43.7739L66.913 45.2739C66.913 45.2739 67.447 43.9659 67.799 44.1069C68.151 44.2479 68.253 46.1369 68.253 46.1369C68.253 46.1369 68.808 44.4959 69.21 44.4209C69.612 44.3459 66.228 56.3899 66.228 56.3899C65.2925 56.9841 64.2294 57.3481 63.126 57.4519V57.4519Z" clip-rule="evenodd"></path><path fill="#00bac7" fill-rule="evenodd" d="M59.139 57.7342L57.226 43.4512L55.959 44.7132C55.4998 44.4477 55.023 44.2139 54.532 44.0132C54.139 43.8982 56.246 57.3042 56.246 57.3042C56.6435 57.6321 57.123 57.8454 57.6327 57.9212C58.1425 57.997 58.6633 57.9323 59.139 57.7342V57.7342Z" clip-rule="evenodd"></path><path fill="#def6f8" fill-rule="evenodd" d="M59.239 56.3411L61.152 42.0581L62.419 43.3201C62.8784 43.055 63.3552 42.8211 63.846 42.6201C64.238 42.5051 61.906 57.6621 61.906 57.6621C61.313 58.1151 60.133 58.5791 59.56 58.0431C59.255 57.7611 59.4 57.2001 59.239 56.3411Z" clip-rule="evenodd"></path><path fill="#0e2238" d="M74.989 66.3701C74.9887 66.2785 74.9633 66.1887 74.9155 66.1106C74.8677 66.0325 74.7994 65.969 74.718 65.927C74.569 65.85 74.782 65.872 71.547 65.872C71.4768 65.8721 71.4074 65.8868 71.3433 65.9154C71.2792 65.944 71.2219 65.9858 71.175 66.038C70.1376 67.0799 69.1622 68.1818 68.254 69.338C68.193 69.486 68.214 69.46 68.275 71.457C68.2789 71.5809 68.3286 71.6988 68.4146 71.788C68.5005 71.8773 68.6164 71.9314 68.74 71.9401L71.505 72.1341C71.6218 72.1686 71.7473 72.1594 71.8578 72.108C71.9682 72.0566 72.0562 71.9667 72.105 71.8551C75.075 67.8841 74.94 68.129 74.947 67.903L74.989 66.3701ZM71.77 66.8701H73.34L71.24 69.1191L69.8 69.07L71.77 66.8701ZM69.231 70.0501L71 70.113L71.091 71.102L69.258 70.974L69.231 70.0501Z"></path><path fill="#def6f8" fill-rule="evenodd" d="M97 69.5568C95.5475 67.7801 94.6357 65.6237 94.373 63.3439C94.056 61.0599 92.53 57.6158 93.883 56.2528C95.434 54.6908 97.127 54.0048 100.211 53.8288C102.835 53.6788 107.538 54.9508 107.711 57.0738C107.759 57.7213 107.699 58.3722 107.533 58.9998C107.86 58.7865 108.232 58.6541 108.62 58.6134C109.008 58.5727 109.4 58.625 109.764 58.7658C111.009 59.2528 111.116 61.6178 110.049 63.5558C108.943 65.4879 107.199 66.9748 105.116 67.7618C104.807 68.3919 104.423 68.9825 103.973 69.5209C105.166 70.4209 106.073 72.2088 104.552 73.8788C102.952 75.6308 97.744 75.6588 96.233 73.4958C94.722 71.3328 97 69.5568 97 69.5568ZM106.079 65.2268C106.561 62.8008 106.891 61.1428 106.891 61.1428C106.891 61.1428 107.922 59.9618 108.785 60.4238C109.648 60.8858 108.7 63.4688 106.074 65.2268H106.079Z" clip-rule="evenodd"></path><path fill="#0e2238" d="M111.08 59.5259C110.994 59.249 110.849 58.9941 110.654 58.779C110.46 58.5638 110.221 58.3935 109.954 58.2799C109.295 58.0212 108.565 58.0109 107.899 58.2509C107.831 58.2023 107.752 58.1716 107.669 58.1614C107.586 58.1513 107.502 58.1621 107.424 58.1928C107.347 58.2235 107.278 58.2732 107.224 58.3373C107.171 58.4015 107.134 58.478 107.118 58.5599C106.966 59.3219 106.652 60.1409 106.401 61.0189C106.368 61.1356 106.379 61.2603 106.431 61.3697C106.483 61.4791 106.574 61.5658 106.685 61.6136C106.797 61.6614 106.922 61.6671 107.037 61.6297C107.152 61.5922 107.25 61.5141 107.312 61.4099C107.527 61.1879 108.16 60.6419 108.55 60.8519C108.56 60.8569 108.59 60.9099 108.596 61.0309C108.63 61.7309 107.857 63.3039 106.103 64.5859C105.994 64.5876 105.889 64.6246 105.804 64.6914C105.718 64.7581 105.656 64.851 105.628 64.9559C104.937 67.5559 103.361 70.7019 100.658 70.7019C97.158 70.7019 95.346 66.7369 94.858 63.2749C94.851 63.2082 94.8307 63.1435 94.7983 63.0848C94.7658 63.0261 94.7219 62.9746 94.6691 62.9332C94.6163 62.8918 94.5557 62.8615 94.491 62.844C94.4262 62.8265 94.3586 62.8223 94.2922 62.8315C94.2257 62.8407 94.1618 62.8631 94.1042 62.8975C94.0466 62.9319 93.9966 62.9776 93.957 63.0317C93.9174 63.0859 93.8891 63.1475 93.8739 63.2128C93.8586 63.2781 93.8566 63.3458 93.868 63.4119C94.1247 65.6239 94.9624 67.7285 96.296 69.5119C93.916 71.9839 95.512 75.6479 100.608 75.6479C102.18 75.7509 103.729 75.2323 104.922 74.2039C105.237 73.8839 105.481 73.5019 105.64 73.0822C105.798 72.6625 105.868 72.2143 105.844 71.7662C105.819 71.3182 105.702 70.8801 105.499 70.4799C105.296 70.0797 105.012 69.7262 104.665 69.4419C104.968 69.0309 105.238 68.5961 105.472 68.1419C107.591 67.2966 109.361 65.7564 110.49 63.7739C110.867 63.1413 111.114 62.4393 111.215 61.7097C111.317 60.98 111.271 60.2374 111.08 59.5259V59.5259ZM104.187 73.5309C103.496 74.2909 101.801 74.7409 100.065 74.6309C96.371 74.3919 95.344 72.0309 96.992 70.2459C97.4523 70.7115 98.0011 71.0805 98.606 71.331C99.2109 71.5816 99.8599 71.7087 100.515 71.7049C101.169 71.701 101.817 71.5664 102.419 71.3088C103.021 71.0512 103.565 70.6759 104.02 70.2049C104.265 70.402 104.466 70.6487 104.609 70.9288C104.752 71.209 104.834 71.5163 104.85 71.8304C104.865 72.1446 104.815 72.4585 104.7 72.7516C104.586 73.0447 104.411 73.3103 104.187 73.5309V73.5309ZM109.619 63.2999C108.791 64.752 107.574 65.9443 106.106 66.7429C106.253 66.3529 106.388 65.9429 106.506 65.5289C108.585 64.0809 109.648 62.1289 109.593 60.9869C109.587 60.7778 109.529 60.5736 109.423 60.3931C109.317 60.2126 109.168 60.0617 108.989 59.9542C108.809 59.8468 108.606 59.7863 108.397 59.7784C108.188 59.7705 107.98 59.8153 107.793 59.9089C107.856 59.7089 107.915 59.5089 107.968 59.3089C108.216 59.1781 108.488 59.1022 108.768 59.0865C109.048 59.0708 109.327 59.1156 109.588 59.2179C109.721 59.2806 109.84 59.3716 109.934 59.4846C110.029 59.5975 110.098 59.7296 110.137 59.8719C110.423 61.0382 110.237 62.2703 109.619 63.2999Z"></path><path fill="#00bac7" fill-rule="evenodd" d="M42.3 86.4279L47.168 76.9639C47.168 76.9639 47.751 82.4069 49.768 84.3569L45.648 92.2569C45.648 92.2569 42.574 88.5439 42.3 86.4279Z" clip-rule="evenodd"></path><path fill="#0e2238" d="M45.263 92.5721C45.133 92.4161 42.093 88.7261 41.802 86.4921C41.773 86.2711 41.39 87.1071 46.722 76.7361C46.7711 76.6403 46.8498 76.563 46.9464 76.5156C47.043 76.4681 47.1524 76.4531 47.2582 76.4728C47.364 76.4924 47.4606 76.5457 47.5337 76.6247C47.6068 76.7036 47.6525 76.8041 47.664 76.9111C47.664 76.9641 48.251 82.1971 50.115 83.9971C50.1925 84.0722 50.2436 84.1703 50.2607 84.2768C50.2778 84.3833 50.26 84.4925 50.21 84.5881L46.091 92.4881C46.0525 92.5609 45.9966 92.623 45.9283 92.669C45.86 92.715 45.7814 92.7434 45.6995 92.7517C45.6176 92.7601 45.5348 92.748 45.4587 92.7167C45.3826 92.6853 45.3153 92.6357 45.263 92.5721ZM42.817 86.5101C43.083 87.8911 44.603 90.0941 45.56 91.3401L49.16 84.4401C47.89 82.9651 47.219 80.2741 46.904 78.5671L42.817 86.5101Z"></path><path fill="#0e2238" d="M27.937 99.974L17.788 58.24C17.7678 58.1566 17.7694 58.0693 17.7927 57.9866C17.816 57.9039 17.8602 57.8287 17.921 57.768L37.2 38.528C37.2645 38.4637 37.3453 38.4181 37.4337 38.3963C37.5222 38.3746 37.6149 38.3774 37.7019 38.4044C37.7889 38.4315 37.8668 38.4818 37.9273 38.55C37.9878 38.6181 38.0285 38.7015 38.045 38.791L44.579 73.982C44.633 74.274 45.597 72.541 28.849 100.115C28.7975 100.199 28.7223 100.266 28.6328 100.308C28.5433 100.349 28.4435 100.363 28.346 100.348C28.2485 100.333 28.1577 100.29 28.0849 100.223C28.0121 100.156 27.9607 100.07 27.937 99.974ZM18.826 58.274L28.626 98.56L43.566 73.974L37.237 39.906L18.826 58.274Z"></path><path fill="#0e2238" d="M33.989 52.6261C34.2559 52.5985 34.5024 52.4704 34.6784 52.2678C34.8544 52.0652 34.9468 51.8033 34.9367 51.5351C34.9267 51.2669 34.815 51.0126 34.6243 50.8237C34.4336 50.6348 34.1783 50.5256 33.91 50.5181C33.7192 50.5227 33.5333 50.5788 33.3718 50.6804C33.2103 50.7821 33.0794 50.9255 32.9928 51.0956C32.9062 51.2656 32.8671 51.4559 32.8799 51.6463C32.8926 51.8367 32.9565 52.0201 33.065 52.1771C32.539 54.5941 34.431 61.2301 34.192 63.5451C34.0136 63.5381 33.8367 63.5795 33.68 63.6651C32.555 61.8851 31.689 55.8811 30.543 54.7761C30.47 54.5793 30.3389 54.4093 30.1671 54.2888C29.9953 54.1682 29.7909 54.1028 29.581 54.1011C29.3916 54.1056 29.2068 54.1609 29.0461 54.2613C28.8853 54.3616 28.7545 54.5033 28.6672 54.6715C28.58 54.8397 28.5395 55.0283 28.55 55.2175C28.5605 55.4067 28.6216 55.5896 28.727 55.7471C27.96 58.4471 30.18 65.1611 30.369 67.7921C30.2648 67.8217 30.1659 67.8676 30.076 67.9281C29.309 66.7851 28.65 64.4201 27.864 63.5551C27.8247 63.3131 27.7012 63.0927 27.5153 62.9328C27.3295 62.7729 27.0932 62.6838 26.848 62.6811C26.6861 62.684 26.5271 62.7243 26.3833 62.7988C26.2395 62.8733 26.1148 62.9799 26.019 63.1105C25.9232 63.241 25.8588 63.3919 25.8309 63.5514C25.803 63.7109 25.8123 63.8747 25.858 64.0301C24.976 66.0361 25.604 71.1161 25.953 73.4191C25.7837 73.5549 25.6602 73.7394 25.599 73.9477C25.5379 74.156 25.5421 74.378 25.6111 74.5838C25.6801 74.7896 25.8106 74.9693 25.9849 75.0986C26.1592 75.2279 26.369 75.3007 26.586 75.3071C26.8627 75.3034 27.1267 75.1902 27.3201 74.9922C27.5136 74.7943 27.6207 74.5278 27.618 74.2511C27.6189 74.0367 27.5547 73.8271 27.4338 73.6502C27.3129 73.4732 27.141 73.3371 26.941 73.2601C26.487 70.2311 26.189 66.3511 26.635 64.7701C26.766 64.7984 26.9013 64.8002 27.033 64.7755C27.1647 64.7507 27.2902 64.6999 27.402 64.6261C28.082 65.8371 28.726 68.0591 29.614 68.9101C29.6356 69.1686 29.7528 69.4098 29.9427 69.5866C30.1326 69.7633 30.3816 69.863 30.641 69.8661C30.847 69.8605 31.047 69.795 31.2164 69.6776C31.3858 69.5601 31.5172 69.3958 31.5947 69.2048C31.6722 69.0138 31.6923 68.8044 31.6525 68.6021C31.6128 68.3999 31.515 68.2136 31.371 68.0661C31.405 65.6801 29.092 58.9271 29.638 56.2111C29.8292 56.2005 30.0134 56.1356 30.169 56.0241C31.083 58.1621 31.808 63.1051 33.13 64.5241C33.1156 64.6866 33.1398 64.8502 33.2004 65.0016C33.261 65.153 33.3565 65.2881 33.479 65.3958C33.6015 65.5035 33.7477 65.5808 33.9056 65.6215C34.0636 65.6623 34.2289 65.6652 34.3883 65.6302C34.5476 65.5951 34.6964 65.523 34.8227 65.4198C34.949 65.3165 35.0492 65.1849 35.1152 65.0358C35.1811 64.8866 35.2111 64.724 35.2025 64.561C35.194 64.3981 35.1472 64.2395 35.066 64.0981C35.662 62.0711 33.717 55.2001 33.989 52.6261Z"></path><path fill="#0e2238" d="M36.26 53.2391C36.102 53.2391 36.57 53.6591 32.388 49.4661C32.4086 49.2862 32.3716 49.1044 32.2824 48.9468C32.1931 48.7892 32.0562 48.664 31.8913 48.5892C31.7264 48.5144 31.542 48.4938 31.3647 48.5303C31.1873 48.5669 31.0261 48.6588 30.9043 48.7928C30.7824 48.9267 30.7062 49.0959 30.6866 49.2759C30.667 49.4559 30.7049 49.6375 30.795 49.7946C30.8851 49.9517 31.0227 50.0761 31.188 50.1501C31.3533 50.224 31.5378 50.2436 31.715 50.2061L35.423 53.9251C35.3879 54.0983 35.4073 54.278 35.4784 54.4398C35.5495 54.6015 35.669 54.7372 35.8203 54.8284C35.9717 54.9195 36.1475 54.9616 36.3237 54.9489C36.4999 54.9361 36.6679 54.8691 36.8046 54.7571C36.9412 54.6452 37.0398 54.4936 37.087 54.3233C37.1341 54.1531 37.1273 53.9724 37.0677 53.8061C37.008 53.6398 36.8984 53.496 36.7537 53.3945C36.6091 53.293 36.4367 53.2387 36.26 53.2391Z"></path><path fill="#0e2238" fill-rule="evenodd" d="M106.984 57.026C106.958 56.9653 106.919 56.9104 106.872 56.8646C106.824 56.8187 106.768 56.7828 106.706 56.7589C106.644 56.7351 106.578 56.7237 106.512 56.7254C106.446 56.7272 106.381 56.7421 106.32 56.7692C106.26 56.7964 106.206 56.8352 106.16 56.8835C106.115 56.9318 106.08 56.9887 106.057 57.0507C106.034 57.1127 106.023 57.1787 106.026 57.2448C106.028 57.311 106.044 57.3759 106.072 57.436C106.251 57.7875 106.318 58.1853 106.264 58.576C104.45 56.163 98.018 55.8 94.987 59C94.8588 58.8583 94.7572 58.6947 94.687 58.517C94.334 57.536 95.912 56.733 95.929 56.725C96.0483 56.6659 96.1393 56.5619 96.182 56.4358C96.2247 56.3097 96.2155 56.1718 96.1565 56.0525C96.1273 55.9934 96.0867 55.9406 96.0371 55.8972C95.9875 55.8538 95.9298 55.8205 95.8674 55.7994C95.7412 55.7568 95.6033 55.7659 95.484 55.825C94.593 56.266 93.223 57.4 93.746 58.852C94.335 60.489 97.47 61.952 100.361 61.952C104.074 61.953 108.51 60.422 106.984 57.026Z" clip-rule="evenodd"></path><path fill="#0e2238" d="M193.978 66.2358C192.548 65.7827 191.024 65.7145 189.559 66.0378C188.095 66.3612 186.741 67.0648 185.635 68.0778C180.34 62.9508 168.799 58.9558 168.299 58.7838C168.237 58.7625 168.171 58.7537 168.105 58.7578C168.04 58.762 167.976 58.779 167.917 58.8079C167.858 58.8368 167.805 58.8771 167.762 58.9264C167.718 58.9757 167.685 59.0331 167.663 59.0953C167.642 59.1575 167.633 59.2232 167.638 59.2888C167.642 59.3544 167.659 59.4185 167.688 59.4775C167.717 59.5366 167.757 59.5893 167.806 59.6327C167.855 59.6762 167.913 59.7095 167.975 59.7308C168.097 59.7718 180.108 63.9308 185.138 68.9918C185.385 72.9998 189.33 139.303 181.2 158.775C177.76 159.516 139.951 167.385 117.221 160.527C117.158 160.506 117.091 160.498 117.024 160.503C116.958 160.509 116.893 160.527 116.834 160.558C116.775 160.589 116.722 160.631 116.68 160.683C116.637 160.734 116.605 160.793 116.586 160.857C116.567 160.921 116.56 160.988 116.567 161.054C116.574 161.121 116.595 161.185 116.627 161.243C116.659 161.302 116.703 161.353 116.755 161.394C116.808 161.436 116.868 161.466 116.932 161.484C123.832 163.565 132.084 164.308 140.356 164.308C160.822 164.308 181.381 159.761 181.669 159.696C181.746 159.678 181.818 159.643 181.878 159.593C181.939 159.542 181.987 159.478 182.018 159.406C190.431 139.895 186.466 74.1378 186.139 68.9708C187.111 68.0268 188.32 67.3616 189.637 67.0449C190.955 66.7283 192.334 66.7717 193.629 67.1708C193.753 67.2147 193.889 67.2083 194.008 67.1528C194.127 67.0973 194.219 66.9972 194.265 66.8742C194.311 66.7511 194.306 66.615 194.253 66.4952C194.199 66.3754 194.1 66.2815 193.978 66.2338V66.2358Z"></path><path fill="#def6f8" fill-rule="evenodd" d="M16.318 146.564C16.318 146.564 18.095 141.785 27.031 140.979C27.031 140.979 27.313 140.617 26.211 139.889C25.109 139.161 16.304 141.589 13.304 147.908C13.304 147.908 13.913 149.053 14.652 149.031C15.391 149.009 16.018 147.478 17.558 148.116L16.318 146.564Z" clip-rule="evenodd"></path><path fill="#def6f8" fill-rule="evenodd" d="M40.9 134.751C40.9 134.751 36.033 133.228 29.924 139.799C29.924 139.799 29.465 139.799 29.564 138.483C29.663 137.167 36.977 131.694 43.807 133.191C43.807 133.191 44.34 134.373 43.87 134.944C43.4 135.515 41.806 135.073 41.37 136.68L40.9 134.751Z" clip-rule="evenodd"></path><path fill="#0e2238" d="M41.916 136.885C41.905 136.822 41.894 136.76 41.882 136.698C42.282 135.53 43.612 136.042 44.254 135.262C44.896 134.482 44.329 133.135 44.262 132.986C44.2301 132.915 44.1819 132.852 44.1212 132.803C44.0606 132.753 43.9893 132.719 43.913 132.702C37.048 131.195 29.2 136.612 29.063 138.446C29.0456 138.669 29.0456 138.892 29.063 139.115C28.6893 139.064 28.3086 139.111 27.9593 139.254C27.61 139.396 27.3043 139.628 27.073 139.926C26.8931 139.757 26.6983 139.605 26.491 139.471C24.97 138.461 15.891 141.313 12.856 147.694C12.8227 147.765 12.8063 147.842 12.8082 147.92C12.8102 147.998 12.8303 148.074 12.867 148.143C13.0227 148.509 13.2701 148.829 13.5854 149.073C13.9006 149.316 14.2731 149.474 14.667 149.531C15.375 149.511 15.823 148.802 16.414 148.552C14.887 150.138 14.214 151.232 14.398 151.807C14.4435 151.941 14.5268 152.058 14.6377 152.145C14.7486 152.233 14.8824 152.286 15.023 152.299C16.189 152.45 17.886 150.808 18.686 149.95C19.4712 150.739 20.5115 151.224 21.621 151.317C23.881 151.197 27.448 149.717 28.121 147.584C28.631 145.977 27.921 142.59 27.621 141.325C27.6201 141.139 27.6574 140.954 27.7307 140.783C27.8039 140.612 27.9116 140.458 28.047 140.33C28.2836 140.202 28.5447 140.125 28.8131 140.105C29.0816 140.085 29.3511 140.123 29.604 140.215C29.704 140.268 32.494 143.979 34.47 144.705C36.578 145.48 39.933 143.553 41.403 141.85C41.8555 141.239 42.1033 140.5 42.111 139.739C42.7087 139.806 43.3095 139.842 43.911 139.846C44.88 139.846 46.32 139.762 46.417 138.818C46.541 137.632 44.066 137.112 41.916 136.885ZM15.9 146.841C15.967 146.936 16.141 147.18 16.4 147.507C15.512 147.707 14.886 148.525 14.636 148.531C14.423 148.586 14.089 148.204 13.872 147.883C16.139 143.41 21.202 141.389 22.721 140.87C23.7314 140.428 24.8332 140.234 25.934 140.305C26.077 140.4 26.357 140.715 26.443 140.787C19.291 141.63 16.795 144.924 16.13 146.087C16.059 146.114 15.9952 146.157 15.9434 146.213C15.8916 146.269 15.8532 146.335 15.831 146.408C15.8088 146.481 15.8035 146.557 15.8155 146.632C15.8274 146.707 15.8563 146.779 15.9 146.841V146.841ZM15.5 151.241C16.0964 150.376 16.7774 149.572 17.533 148.841C17.667 148.984 17.806 149.129 17.95 149.272C17.2549 150.067 16.4256 150.733 15.5 151.241V151.241ZM27.169 147.282C26.681 148.824 23.704 150.204 21.569 150.318C20.589 150.39 19.105 149.1 17.926 147.772L16.9 146.5C17.393 145.573 19.621 142.28 26.644 141.525C27 143.013 27.569 146.023 27.17 147.282H27.169ZM40.652 141.2C39.252 142.82 36.341 144.331 34.821 143.771C33.581 143.315 31.55 141.022 30.586 139.828C35.452 134.776 39.442 135.007 40.486 135.178C40.7281 136.038 40.9119 136.913 41.036 137.797C41.213 139.21 41.179 140.586 40.652 141.2ZM40.612 134.326C39.247 134.119 35.112 134.042 30.102 139.142C30.102 139.032 30.047 138.699 30.059 138.532C30.265 137.471 36.994 132.388 43.437 133.632C43.557 133.997 43.625 134.46 43.482 134.632C43.325 134.823 42.296 134.821 41.595 135.396C41.495 134.996 41.406 134.705 41.372 134.596C41.3499 134.52 41.3103 134.451 41.2564 134.394C41.2024 134.336 41.1357 134.293 41.0616 134.266C40.9876 134.239 40.9082 134.23 40.8301 134.24C40.752 134.25 40.6772 134.278 40.612 134.322V134.326ZM42.127 138.737C42.116 138.462 42.093 138.185 42.063 137.913C43.1868 138.001 44.2889 138.271 45.326 138.713C44.268 138.896 43.1872 138.902 42.127 138.733V138.737Z"></path><path fill="#def6f8" fill-rule="evenodd" d="M84.111 85.222L83.911 80.127L84.432 79.606L89.789 83.651L84.111 85.222Z" clip-rule="evenodd"></path><path fill="#ffffff" d="M83.911 80.6308C84.763 80.6308 85.453 80.1788 85.453 79.6218C85.453 79.0648 84.763 78.6118 83.911 78.6118C83.059 78.6118 82.368 79.0638 82.368 79.6218C82.368 80.1798 83.059 80.6308 83.911 80.6308Z"></path><path fill="#0e2238" d="M92.666 80.063C92.666 77.53 89.556 74.3979 83.671 74.3979C79.83 74.3979 74.671 76.298 74.671 80.063C74.671 83.855 79.779 85.7289 83.671 85.7289C87.607 85.7289 92.666 83.815 92.666 80.063ZM91.38 78.8249H85.647C85.5961 78.7654 85.541 78.7096 85.482 78.6579L87.982 76.1339C89.4138 76.5697 90.6278 77.531 91.38 78.8249V78.8249ZM82.4 75.4579L83.083 78.2409C82.902 78.2992 82.7295 78.3813 82.57 78.4849L78.062 76.7439C79.4011 76.0141 80.8795 75.5758 82.4 75.4579ZM83.915 79.1119C84.541 79.1119 84.957 79.4189 84.957 79.6219C84.957 79.8249 84.541 80.1219 83.915 80.1219C83.289 80.1219 82.872 79.8219 82.872 79.6219C82.872 79.4219 83.284 79.1119 83.911 79.1119H83.915ZM82.948 80.9489C83.1093 81.0135 83.2768 81.0611 83.448 81.091L83.59 84.7279C82.3103 84.728 81.038 84.5331 79.817 84.1499L82.948 80.9489ZM84.448 81.0729C84.7069 81.0244 84.9557 80.9324 85.184 80.8009L88.884 83.6009C87.537 84.2471 86.0758 84.6209 84.584 84.7009L84.448 81.0729ZM86.9 75.7999L84.539 78.1899C84.3881 78.1554 84.2345 78.1333 84.08 78.1239L83.413 75.3999C84.5881 75.3753 85.761 75.5099 86.9 75.7999V75.7999ZM77.065 77.4369L81.876 79.2969L75.719 79.5529C75.9125 78.7126 76.3891 77.9644 77.069 77.4339L77.065 77.4369ZM75.714 80.5539C82.551 80.2699 82.049 80.2539 82.123 80.3539L78.8 83.7599C78.0673 83.5101 77.4051 83.0884 76.8689 82.5301C76.3327 81.9718 75.9381 81.2931 75.718 80.5509L75.714 80.5539ZM89.814 83.0479L85.86 80.0579C85.8899 79.9827 85.912 79.9047 85.926 79.8249H91.656C91.662 80.4767 91.4947 81.1183 91.1713 81.6841C90.8478 82.2499 90.3797 82.7195 89.815 83.0449L89.814 83.0479Z"></path><path fill="#0e2238" d="M69.83 44.432C69.83 44.306 69.713 40.572 69.706 40.332C69.7037 40.228 69.6691 40.1273 69.6069 40.0439C69.5447 39.9605 69.458 39.8986 69.359 39.8668C69.2599 39.835 69.1534 39.8349 69.0543 39.8665C68.9552 39.898 68.8684 39.9598 68.806 40.043L66.228 43.4C66.062 43.549 66.255 42.985 64.376 50.443C64.0657 50.3633 63.7517 50.2993 63.435 50.251C64.448 42.461 64.427 42.811 64.386 42.651L63.247 38.306C63.2206 38.2053 63.1635 38.1153 63.0835 38.0486C63.0035 37.9819 62.9047 37.9418 62.8008 37.934C62.697 37.9262 62.5933 37.951 62.5042 38.005C62.4152 38.0589 62.3452 38.1394 62.304 38.235L60.817 41.702C60.774 41.802 60.859 41.27 59.626 50.165C59.2373 50.1983 58.8647 50.2437 58.508 50.301L57.6 43.234C57.587 43.134 57.664 43.334 56.076 39.634C56.0349 39.5383 55.965 39.4579 55.876 39.4038C55.787 39.3498 55.6834 39.3249 55.5795 39.3326C55.4757 39.3403 55.3769 39.3803 55.2968 39.4468C55.2168 39.5134 55.1595 39.6033 55.133 39.704C53.928 44.304 53.982 44.061 53.979 44.163C53.979 44.284 53.941 43.924 54.942 51.624C54.3371 52.0242 53.8488 52.5773 53.5266 53.2271C53.2043 53.8768 53.0596 54.6003 53.107 55.324C54.923 71.061 54.507 70.076 54.545 70.181C55.0629 71.293 55.8746 72.2425 56.8925 72.9272C57.9103 73.6118 59.0958 74.0056 60.321 74.066C60.538 74.082 60.748 74.089 60.953 74.089C62.3585 74.1078 63.7334 73.678 64.878 72.8621C66.0226 72.0463 66.8773 70.8868 67.318 69.552C67.346 69.452 67.281 70.265 68.293 55.363C68.4155 54.4236 68.2122 53.4706 67.717 52.663C69.975 43.949 69.832 44.544 69.83 44.432ZM64.13 51.419C62.541 57.729 62.63 57.356 62.63 57.456L62.5 57.476L63.309 51.247C63.6 51.293 63.871 51.351 64.131 51.419H64.13ZM62.1 41.249C62.3885 41.3306 62.6935 41.3344 62.984 41.26L63.195 42.06C62.9088 42.161 62.6631 42.3523 62.495 42.605C62.3471 42.272 62.1499 41.9632 61.91 41.689L62.1 41.249ZM61.615 43.088C61.729 43.296 61.999 43.835 62.5 43.835C63.001 43.835 63.175 43.335 63.351 43.135L61.475 57.586C60.845 57.6347 60.2123 57.6364 59.582 57.591L61.615 43.088ZM59.483 51.188L59.036 54.418L58.636 51.301C58.908 51.2563 59.191 51.2187 59.485 51.188H59.483ZM55.389 42.654C55.6798 42.7288 55.9852 42.725 56.274 42.643L56.464 43.087C56.2239 43.36 56.0273 43.6682 55.881 44.001C55.7152 43.7459 55.4688 43.5537 55.181 43.455L55.389 42.654ZM55.889 45.229C56.301 45.229 56.543 44.882 56.754 44.499L58.418 57.422C57.8011 57.2925 57.2002 57.096 56.626 56.836L55.026 44.526C55.209 44.742 55.359 45.233 55.887 45.229H55.889ZM55.089 52.791L55.537 56.239C54.9968 55.8924 54.5072 55.4728 54.082 54.992C54.0904 54.5756 54.1844 54.1653 54.3579 53.7867C54.5315 53.4081 54.781 53.0692 55.091 52.791H55.089ZM66.339 69.327C65.9314 70.5418 65.1164 71.5783 64.032 72.2608C62.9476 72.9433 61.6605 73.2299 60.389 73.072C59.362 73.024 58.3666 72.702 57.5061 72.1392C56.6457 71.5765 55.9516 70.7937 55.496 69.872L54.22 56.5C57.603 59.81 65.673 58.92 67.237 56.151L66.339 69.327ZM65.723 56.35C65.1078 56.7663 64.4214 57.0663 63.698 57.235L66.562 45.86C66.6272 45.9005 66.7007 45.9256 66.777 45.9336C66.8533 45.9415 66.9304 45.932 67.0025 45.9059C67.0747 45.8797 67.1399 45.8375 67.1933 45.7824C67.2467 45.7273 67.287 45.6609 67.311 45.588C67.3763 45.3829 67.4555 45.1824 67.548 44.988C67.58 45.682 67.522 46.142 67.812 46.393C67.9284 46.4888 68.078 46.5344 68.228 46.52C68.328 46.512 68.477 45.743 65.723 56.35ZM68.494 44.4C68.414 43.929 68.224 43.554 67.748 43.554C67.5577 43.5572 67.3743 43.6253 67.228 43.747L67.928 42.835C68.205 42.9326 68.4927 42.9968 68.785 43.026L68.814 43.967C68.6839 44.0925 68.5758 44.2388 68.494 44.4V44.4Z"></path></svg>