<svg xmlns="http://www.w3.org/2000/svg" fill="none" viewBox="0 0 200 200" height="700" width="700"><path fill="#0e2238" d="M156.916 57.8389C156.87 57.0596 156.659 56.2991 156.297 55.6074C155.935 54.9158 155.43 54.3089 154.816 53.8269C154.305 53.4339 153.546 53.2269 153.129 52.7269C152.257 51.6869 151.92 50.1849 151.083 49.0749C149.243 46.6309 146.235 45.5109 143.3 45.0829C139.986 44.5016 136.58 44.7392 133.378 45.7749C132.102 46.2509 131.086 47.4749 129.811 47.8189C128.511 48.1639 126.269 47.0739 125.211 48.0989C124.722 48.5719 125.589 49.0989 125.344 49.4069C124.944 49.9069 123.444 49.0959 123.192 50.0579C123.02 50.7089 124.118 51.2989 124.792 51.5979C126.711 52.2836 128.749 52.5751 130.783 52.4549C131.341 52.4549 132.596 52.2099 132.983 52.7269C133.607 53.5509 133.383 55.4679 133.594 56.4459C134.27 59.5829 136.489 63.4779 139.345 64.4629C139.717 64.6151 140.124 64.6632 140.521 64.6019C141.344 63.5799 142.647 62.8409 143.855 63.7259C146.699 65.8089 144.884 70.3399 142.447 72.1469C143.343 73.2881 144.107 74.5266 144.725 75.8389C146.219 74.9982 147.78 74.2831 149.393 73.7009C150.106 73.4649 151.436 73.3659 151.964 72.7849C152.434 72.2679 151.728 71.4309 153.252 68.5009C154.98 65.1729 157.179 61.7679 156.916 57.8389Z"></path><path fill="#ffffff" d="M124.048 75.523C123.465 74.692 122.115 74.708 121.339 74.879C120.47 75.07 120.105 75.208 119.771 75.304C119.945 75.8818 120.215 76.4258 120.571 76.913C121.371 78.034 121.004 79.259 121.362 80.571C123.451 80.105 125.372 77.408 124.048 75.523Z"></path><path fill="#ffffff" d="M107.94 131.736L106.489 131.636C103.259 133.119 99.9253 134.365 96.514 135.362C94.814 135.848 91.619 137.719 89.082 134.784C89.004 134.436 87.365 133.584 86.625 129.04L85.997 129.146C84.857 129.146 64.956 129.418 64.836 129.471C67.205 134.571 67.054 134.009 66.936 134.071C65.03 134.171 47.543 134.158 43.99 134.185C43.89 134.091 43.633 134.653 46.454 129.245C45.966 128.984 48.286 129.111 5.23999 130.008L7.07799 156.708C8.65899 156.675 116.078 155.121 119.083 155.094C119.082 154.732 111.625 139.982 107.94 131.736Z"></path><path fill="#ffffff" d="M181.05 88.6266C184.503 85.3546 190.969 82.0336 194.16 72.4626C194.61 71.1136 195.816 68.0906 194.904 66.6776C194.282 65.7136 193.183 67.6336 192.938 68.1196C191.732 70.5076 191.731 72.5966 189.863 74.5196C189.193 75.2106 188.214 75.8346 188.316 75.3826C189.245 71.2546 191.816 62.3556 190.102 61.3236C189.178 60.7676 188.223 63.2896 188.002 63.8806C186.768 67.1016 186.295 70.6356 185.372 73.9686C185.05 74.8812 184.586 75.7374 183.997 76.5056C184.144 72.9346 185.515 62.5966 183.729 61.5826C181.817 60.4976 181.635 69.7246 179.91 75.3296C179.757 75.8296 179.572 76.9656 179.01 77.1026C178.678 77.1836 178.585 75.8026 178.591 75.6276C178.838 73.3305 178.849 71.014 178.624 68.7146C178.562 68.1296 178.392 66.5836 177.661 66.5026C176.824 66.4106 176.331 68.1366 176.161 68.7886C175.468 71.4426 176.133 73.8606 175.431 76.5176C174.605 79.6456 172.908 79.6396 171.513 82.3036C171.058 83.5592 170.896 84.9019 171.038 86.2296C171.368 95.2366 171.061 110.958 172.407 125.737C172.906 131.369 173.9 136.947 175.378 142.406L175.418 142.392C177.197 146.131 182.171 145.592 184.948 145.068C186.083 144.853 186.813 143.587 187.498 142.768C189.548 140.324 191.64 137.953 191.762 134.6C191.962 129.021 190.062 123.716 187.855 118.482C183.874 109.056 182.765 107.582 180.961 96.9116C179.928 90.8006 180.074 89.8506 179.974 89.8506L180.113 89.7966C180.008 89.5766 180.812 88.8526 181.05 88.6266Z"></path><path fill="#ffffff" d="M149.863 73.5717C149.703 73.6048 149.546 73.6469 149.391 73.6977C147.777 74.2764 146.215 74.9917 144.723 75.8357C144.103 74.5243 143.339 73.286 142.445 72.1437C144.882 70.3367 146.697 65.8057 143.853 63.7227C142.645 62.8377 141.342 63.5767 140.519 64.5987C140.519 64.5987 140.353 64.8057 139.343 64.4597C136.453 63.4677 134.26 59.5447 133.592 56.4427C133.381 55.4647 133.605 53.5477 132.981 52.7237C132.589 52.2067 131.334 52.4517 130.781 52.4517C128.747 52.5737 126.709 52.2821 124.79 51.5947C123.971 53.9497 120.896 55.8417 120.035 59.1587C119.378 61.6907 121.535 64.2717 119.504 66.5437C118.386 67.7917 116.56 68.6817 116.296 70.3087C116.002 72.1227 118.674 71.9027 120.029 72.0087C119.593 73.051 119.504 74.2061 119.776 75.3027C120.285 75.1557 120.513 75.0617 121.344 74.8777C122.119 74.7057 123.47 74.6907 124.053 75.5217C125.377 77.4067 123.453 80.1047 121.364 80.5697C121.649 81.9088 122.379 83.1116 123.436 83.9817C124.18 84.4945 125.019 84.8534 125.904 85.0373C126.789 85.2212 127.702 85.2265 128.589 85.0527C131.965 84.6717 133.221 83.7627 134.806 84.1527C135.431 84.3101 136.008 84.6192 136.486 85.0527L136.313 85.2647C135.755 85.4047 135.189 86.1137 134.832 86.5127C132.648 88.9597 133.969 91.8327 134.082 94.7817C134.121 95.742 134.209 96.6996 134.347 97.6507C134.382 97.8957 134.4 98.5347 134.679 98.6607C135 98.8057 135.329 97.7937 136.273 96.4607C136.617 95.9747 137.72 95.2057 137.807 94.6007C137.986 93.3637 135.397 92.7007 137.607 90.4007C138.267 89.7029 139.063 89.1472 139.945 88.7677C139.945 88.7467 140.132 88.6417 140.191 88.5877C142.572 86.4057 149.415 78.5347 151.242 77.2047C150.832 76.5687 150.215 76.2807 149.863 73.5717Z"></path><path fill="#ffffff" d="M106.945 113.958L106.831 114.223C104.748 116.637 102.365 118.71 101.272 119.848C101.184 119.94 100.661 120.539 100.661 120.566L100.203 120.6C99.8509 115.312 98.7659 110.039 98.4099 104.746C98.0189 98.9393 99.1939 96.9223 99.8379 94.4593C100.061 93.4775 100.464 92.5455 101.026 91.7103C103.492 88.8463 107.183 87.3513 110.145 83.1623C110.709 82.3623 111.552 81.1443 111.314 80.0943C111.107 79.1843 110.053 79.4063 109.461 79.8023C108.593 80.3823 108.312 81.6023 107.395 82.0733C106.58 82.3959 105.731 82.6277 104.865 82.7643L104.858 82.7383C104.599 82.5723 104.884 82.1723 105.011 81.8943C106.75 78.6536 108.283 75.3063 109.6 71.8723C109.842 71.1643 110.378 69.6203 109.706 68.9833C108.844 68.1653 107.441 69.8533 107.043 70.4443C105.661 72.4953 105.536 75.1263 104.181 77.1973C103.942 77.5633 103.072 78.9973 102.487 78.7723C102.209 78.6653 102.216 78.1413 102.208 77.9023C102.197 77.0486 102.233 76.195 102.315 75.3453C102.478 73.3123 103.05 65.0803 101.179 64.2543C99.4169 63.4763 99.6099 69.9823 98.9609 74.3623C98.8829 74.8873 98.8089 76.5623 98.1369 76.7623C97.4279 76.9703 96.6369 74.9413 96.4499 74.5233C95.0499 71.4163 94.4219 67.3473 92.8309 67.1643C91.7019 67.0353 91.5129 68.8303 91.5579 69.9643C91.6679 72.7733 93.4579 77.3113 92.4869 78.4313C91.6999 79.3373 89.9339 75.6223 88.1969 73.9683C87.8769 73.6683 87.1409 72.9523 86.6829 73.4173C86.2709 73.8353 86.5119 74.6633 86.6759 75.1303C87.9839 78.8393 90.0999 79.6603 90.4999 83.6003C90.6939 85.5003 90.2359 87.4333 90.4599 89.3453C90.5989 90.5383 91.5599 91.7873 91.5289 92.4133C92.3399 94.5443 85.3499 111.688 86.2739 125.913C86.7679 133.522 88.9619 134.263 89.0799 134.786C91.6169 137.721 94.8109 135.85 96.5119 135.364C100.394 134.175 104.193 132.731 107.885 131.04C110.37 129.989 112.848 128.893 115.443 127.512C115.516 127.473 115.728 127.426 115.728 127.407L115.995 127.222C109.342 117.67 109.209 115.006 106.945 113.958Z"></path><path fill="#def6f8" d="M163.385 154.914C162.548 155.319 161.714 155.674 161.004 156.02C158.986 157.372 156.778 158.417 154.452 159.12C154.562 160.802 154.41 162.492 154 164.127L154.333 164.234C157.099 164.182 159.734 163.047 161.671 161.072C163.252 159.196 162.905 156.899 163.471 155.081L163.385 154.914Z"></path><path fill="#def6f8" d="M139.868 162.452C139.782 162.745 139.695 163.209 139.562 163.652C143.49 164.539 147.511 164.951 151.537 164.88L151.57 164.894C152.116 163.072 152.5 161.205 152.719 159.315C149.159 159.408 145.599 158.173 142.299 156.904C141.788 157.873 141.174 158.01 139.868 162.452Z"></path><path fill="#def6f8" d="M133.034 154.324V154.291C132.144 154.278 131.261 154.268 130.377 154.257C125.901 154.201 126.14 153.978 126.114 154.112C124.471 155.278 123.72 159.425 123.152 160.653L123.464 160.659C123.589 160.695 124.978 160.908 125.742 161.045C126.751 161.225 127.742 161.51 128.742 161.722C132.022 162.122 128.489 164.317 132.66 155.074C132.724 154.936 133.034 154.337 133.034 154.324Z"></path><path fill="#def6f8" d="M123.444 153.34C122.109 152.849 120.826 152.229 119.612 151.488C119.397 152.375 119.071 153.231 118.644 154.037C119.158 155.066 119.082 154.875 119.082 155.094C119.228 155.094 119.157 154.655 119.174 159.058H119.413C119.413 159.106 120.754 159.61 121.119 159.776C121.199 159.424 121.468 158.971 121.677 158.302C121.854 157.736 122.789 154.884 122.992 154.323C123.221 153.694 123.309 153.7 123.444 153.34Z"></path><path fill="#def6f8" d="M16.2269 118.075C16.3669 121.521 16.4859 124.258 16.5989 125.825L48.4709 125.068C48.4849 125.492 48.8209 124.578 43.9159 134.121L43.9889 134.187C47.5419 134.16 65.0289 134.173 66.9349 134.073C67.0499 134.011 67.2089 134.564 64.8349 129.473C62.4859 124.429 62.7249 125.08 62.7149 124.738L86.1899 124.238C86.1252 121.653 86.2566 119.066 86.5829 116.501C85.3449 116.327 18.0999 118.028 16.2269 118.075Z"></path><path fill="#00bac7" d="M193.4 112.582C191.83 110.6 190.063 108.783 188.126 107.157C187.701 106.887 187.863 106.851 187.715 106.95C182.405 99.5441 181.122 96.8952 180.955 96.9152C182.781 107.65 183.826 108.957 187.849 118.485L188.226 118.328C189.755 116.55 191.742 115.224 193.971 114.495C194.051 114.476 194.506 114.469 194.522 114.283C194.562 113.779 193.6 112.836 193.4 112.582Z"></path><path fill="#00bac7" d="M171.077 87.1734C170.844 87.1894 158.314 81.7344 157.547 81.4494C156.373 81.0003 155.269 80.3879 154.266 79.6304C153.544 79.0304 153.018 77.2604 152.114 77.0074C151.962 76.9782 151.806 76.9808 151.655 77.0153C151.504 77.0497 151.362 77.1151 151.238 77.2074C149.587 78.4364 146.469 82.0484 144.889 83.7294C143.814 84.8734 140.308 88.4794 140.189 88.5904C140.13 88.6444 139.943 88.7494 139.943 88.7704L139.764 88.8294C138.485 89.4674 136.372 91.0924 136.748 92.4684C136.928 93.1264 137.903 93.9174 137.804 94.6004C137.717 95.2054 136.614 95.9744 136.27 96.4604C135.341 97.7714 135.001 98.8054 134.676 98.6604C134.397 98.5344 134.376 97.8954 134.344 97.6504C134.206 96.6993 134.118 95.7417 134.079 94.7814C133.967 91.8464 132.647 88.9584 134.829 86.5124C135.186 86.1124 135.752 85.4044 136.31 85.2644L136.483 85.0524C134.683 83.4344 132.936 84.2374 131.249 84.5864C129.934 84.8584 128.606 85.2454 128.606 85.2454C127.777 85.9408 126.912 86.5917 126.014 87.1954C123.314 88.9484 120.798 89.6954 118.837 91.5744C115.26 94.9964 115.189 99.2014 104.897 110.274C104.34 110.874 103.22 111.7 102.951 112.498C102.79 112.976 104.864 113.598 105.209 113.598C109.517 113.547 108.709 118.014 119.129 131.469C119.369 131.536 119.217 131.555 119.514 131.309C120.183 130.67 121.298 129.523 121.407 129.496C121.945 133.122 122.341 136.817 120.907 140.296C118.879 145.219 116.798 147.059 117.341 148.884C117.783 149.983 118.583 150.899 119.612 151.484C120.836 152.206 122.118 152.825 123.444 153.336C125.231 154.017 124.636 153.845 125.217 153.954C127.208 154.328 132.785 154.228 136.255 154.378C136.255 154.378 137.455 155.022 137.816 155.162C142.506 156.998 149.654 160.191 154.452 159.121C156.776 158.415 158.984 157.37 161.004 156.021C161.714 155.675 162.547 155.321 163.385 154.915C170.422 151.53 167.085 149.602 167.343 146.978C167.863 141.627 169.75 138.189 170.199 128.741C170.26 127.45 170.252 125.777 170.232 125.394C170.226 125.281 170.099 124.976 170.152 125.022L170.717 124.298C172.549 125.805 172.185 125.76 172.398 125.739C170.98 110.985 171.387 92.4834 171.077 87.1734Z"></path><path fill="#00bac7" d="M19.8749 149.747C19.8539 149.593 13.8749 140.629 13.1419 139.533C10.1239 140.194 10.4049 140.033 10.4419 140.21C11.2519 141.194 18.8419 153.458 18.8699 153.559C21.3069 152.959 37.5049 150.232 41.3969 149.521L41.3689 148.877C35.8999 149.083 22.1489 149.514 19.8749 149.747Z"></path><path fill="#ffffff" d="M119.174 155.094C119.174 155.094 8.65797 156.675 7.07397 156.708L7.78997 168.451C9.85497 168.425 114.827 166.83 119.09 166.843C119.094 165.6 119.137 170.816 119.174 155.094Z"></path><path fill="#0e2238" fill-rule="evenodd" d="M119.589 166.867C119.577 167.133 119.357 167.344 119.089 167.343C115.697 167.333 48.3984 168.343 20.1162 168.767C12.8955 168.875 8.21801 168.946 7.79632 168.951C7.52958 168.954 7.30719 168.748 7.29095 168.481L6.57495 156.738L7.5731 156.678L8.26006 167.944C9.66816 167.924 13.9277 167.86 20.0068 167.769C47.3935 167.358 111.71 166.392 118.621 166.345C118.636 165.485 118.656 162.82 118.674 155.093L119.674 155.095C119.656 162.954 119.636 165.586 119.62 166.408C119.616 166.602 119.612 166.719 119.606 166.778C119.605 166.783 119.604 166.791 119.603 166.801C119.602 166.808 119.6 166.817 119.599 166.827C119.597 166.835 119.594 166.849 119.589 166.867Z" clip-rule="evenodd"></path><path fill="#00bac7" d="M62.092 59.7573C63.334 60.2963 64.209 59.0393 64.914 58.1903C66.373 56.4353 70.597 53.1573 69.968 50.2903C69.562 48.4373 66.468 47.2153 66.754 45.3153C67.164 42.5993 70.524 39.6233 71.708 37.3403C72.57 35.6793 70.764 33.9473 67.843 37.6793C66.3996 39.411 65.1523 41.2971 64.124 43.3033C63.591 44.3823 62.908 45.9133 63.724 47.1893C64.6 48.5573 67.043 49.3993 66.5 51.3663C65.808 53.8663 63.22 55.2663 61.851 57.2113C61.338 57.9473 60.943 59.2603 62.092 59.7573Z"></path><path fill="#00bac7" d="M48.8419 45.7251C50.2679 46.5251 52.6959 46.0571 53.2789 48.1161C54.0179 50.7261 52.6259 53.2891 52.5349 55.7471C52.5009 56.6711 52.8609 58.0661 54.0559 57.9381C55.3559 57.8001 55.4049 56.2181 55.5369 55.0961C55.8109 52.7651 57.5429 47.6711 55.5439 45.3961C54.2439 43.9141 51.0909 44.3651 50.3369 42.5061C49.2529 39.8351 50.4369 35.4471 50.2109 32.7841C50.0489 30.8441 47.6819 30.1841 47.2419 35.0351C46.972 37.348 46.9385 39.6824 47.1419 42.0021C47.2689 43.2481 47.5119 44.9781 48.8419 45.7251Z"></path><path fill="#00bac7" d="M19.875 149.748C22.69 149.461 41.303 148.904 42.918 148.819L43.031 148.686C40.501 146.547 29.211 137.117 27.57 135.686C27.47 135.694 11.565 136.98 11.47 137.08C11.561 137.211 19.852 149.579 19.875 149.748Z"></path><path fill="#ffffff" d="M153.6 159.264C152.592 159.364 152.724 159.24 152.724 159.457C152.493 161.58 152.004 163.668 151.269 165.673L151.329 165.699C152.803 166.417 153.587 165.487 154.005 164.132C154.368 162.598 154.542 161.026 154.523 159.45L154.457 159.125C154.175 159.19 153.888 159.236 153.6 159.264V159.264Z"></path><path fill="#ffffff" d="M136.255 154.382C135.179 154.336 134.103 154.31 133.034 154.29C133.034 154.407 132.919 154.503 132.662 155.073C131.827 156.924 130.332 160.734 130.198 162.75C130.155 162.982 130.173 163.222 130.251 163.444C130.329 163.667 130.464 163.866 130.643 164.02C131.527 164.62 132.943 164.607 133.957 164.763C135.057 164.932 137.988 165.997 139.051 165.525C139.851 164.968 139.807 164.198 140.12 163.134C141.567 158.211 142.12 158.134 142.683 157.064C142.471 156.984 136.255 154.382 136.255 154.382Z"></path><path fill="#ffffff" d="M124.639 153.805C124.287 153.665 123.882 153.512 123.444 153.34C123.19 154.017 123.333 152.999 121.677 158.302C121.171 159.923 120.32 160.27 122.62 161.002C123.106 161.157 123.395 160.102 123.51 159.607C124.002 158.146 124.739 155.084 126.11 154.107L126.116 154.073C125.786 154.041 124.463 153.867 124.639 153.805Z"></path><path fill="#ffffff" d="M91.558 69.9594C91.531 69.2954 91.571 67.5943 92.381 67.2293V67.1104C87.04 67.2444 15.07 69.4804 14.505 69.5674C14.884 73.2674 15.641 102.727 16.232 118.075C17.664 118.039 85.348 116.327 86.589 116.501C87.2529 111.833 88.1794 107.206 89.364 102.641C91.187 95.5033 91.851 93.2414 91.536 92.4124C91.566 91.8054 90.605 90.5314 90.467 89.3444C90.105 86.2494 91.59 83.0444 88.846 79.1364C88.074 78.0364 85.746 74.3694 86.688 73.4124C87.655 72.4294 90.129 76.4634 91.031 77.5834C91.256 77.8624 92.048 78.9384 92.492 78.4264C93.435 77.3354 91.662 72.6194 91.558 69.9594Z"></path><path fill="#0e2238" fill-rule="evenodd" d="M92.7301 66.7524C92.8266 66.8465 92.881 66.9756 92.881 67.1104V67.2293H92.384L92.3936 67.6102C89.7251 67.6771 70.3996 68.2696 51.6677 68.8562C42.3024 69.1495 33.0865 69.4414 26.1766 69.6653C22.7217 69.7773 19.8435 69.8723 17.8116 69.942C16.7955 69.9769 15.9915 70.0054 15.433 70.0265C15.2872 70.0321 15.1583 70.0371 15.0469 70.0416C15.2369 72.6392 15.5019 80.4336 15.7888 89.4374C15.8563 91.5558 15.925 93.7428 15.9943 95.9471C16.2438 103.886 16.5005 112.052 16.7317 118.056L15.7324 118.095C15.501 112.086 15.2442 103.916 14.9947 95.976C14.9254 93.7722 14.8567 91.5863 14.7893 89.4693C14.4783 79.7076 14.1948 71.4453 14.0076 69.6183C13.9805 69.3534 14.1658 69.1137 14.4289 69.0732C14.4664 69.0674 14.5201 69.0644 14.5516 69.0627L14.5556 69.0625C14.6015 69.0599 14.6637 69.0569 14.7408 69.0535C14.8954 69.0467 15.1151 69.0379 15.3951 69.0273C15.9555 69.006 16.7609 68.9775 17.7773 68.9426C19.8102 68.8728 22.6891 68.7778 26.1442 68.6658C33.0546 68.4419 42.2709 68.15 51.6364 67.8567C70.3659 67.2701 89.696 66.6776 92.3685 66.6105C92.5032 66.6071 92.6336 66.6583 92.7301 66.7524Z" clip-rule="evenodd"></path><path fill="#ffffff" d="M140.574 106.908L145.138 103.555C145.25 103.473 145.345 103.368 145.417 103.249C145.489 103.129 145.537 102.997 145.557 102.859C145.578 102.721 145.571 102.58 145.538 102.444C145.504 102.309 145.444 102.182 145.361 102.069C145.123 101.747 145.316 101.889 139.75 99.4524C139.579 99.3782 139.392 99.3501 139.207 99.3709C139.022 99.3917 138.846 99.4606 138.696 99.5709C138.546 99.6811 138.427 99.8287 138.352 99.999C138.277 100.169 138.248 100.356 138.268 100.541L138.891 106.169C138.912 106.354 138.981 106.53 139.091 106.68C139.202 106.83 139.349 106.948 139.52 107.023C139.69 107.098 139.877 107.127 140.062 107.107C140.247 107.086 140.424 107.018 140.574 106.908V106.908Z"></path><path fill="#ffffff" d="M140.79 118.781C140.696 118.62 140.562 118.487 140.401 118.394C140.24 118.302 140.057 118.253 139.871 118.253C139.686 118.253 139.503 118.302 139.342 118.394C139.181 118.487 139.047 118.62 138.953 118.781L133.464 128.287C133.394 128.408 133.349 128.541 133.33 128.679C133.312 128.818 133.321 128.958 133.357 129.093C133.394 129.228 133.456 129.354 133.541 129.465C133.626 129.575 133.732 129.668 133.853 129.738C134.206 129.938 133.422 129.887 145.36 129.881C145.546 129.881 145.729 129.831 145.891 129.738C146.052 129.644 146.186 129.51 146.279 129.349C146.372 129.187 146.421 129.004 146.421 128.818C146.421 128.631 146.372 128.448 146.279 128.287L140.79 118.781Z"></path><path fill="#ffffff" d="M118.276 102.431L124.342 100.096C124.472 100.046 124.591 99.97 124.692 99.8737C124.793 99.7774 124.874 99.6622 124.931 99.5346C124.987 99.407 125.018 99.2696 125.021 99.1301C125.024 98.9907 125 98.8519 124.949 98.7219C124.804 98.3459 124.895 98.4959 120.681 95.0889L116.846 101.276C116.818 101.46 116.839 101.648 116.906 101.821C116.973 101.994 117.085 102.147 117.23 102.264C117.374 102.381 117.547 102.458 117.731 102.487C117.914 102.516 118.103 102.497 118.276 102.431V102.431Z"></path><path fill="#ffffff" d="M118.799 112.529L112.518 110.848C112.383 110.812 112.243 110.803 112.104 110.822C111.966 110.84 111.833 110.886 111.712 110.956C111.591 111.026 111.485 111.12 111.401 111.231C111.316 111.342 111.254 111.468 111.218 111.603C111.113 111.997 111.154 111.912 112.118 115.493L114.31 119.146C114.61 119.031 114.272 119.292 119.273 114.308C119.406 114.176 119.501 114.012 119.549 113.832C119.598 113.652 119.598 113.462 119.55 113.282C119.502 113.102 119.407 112.937 119.276 112.805C119.144 112.673 118.98 112.578 118.799 112.529Z"></path><path fill="#ffffff" d="M157.351 127.215L161.123 126.776C161.403 126.744 161.658 126.601 161.833 126.38C162.008 126.159 162.088 125.877 162.055 125.597C162.005 125.17 161.944 125.202 159.587 122.041C159.475 121.893 159.327 121.776 159.156 121.702C158.985 121.629 158.798 121.602 158.613 121.623C158.428 121.645 158.252 121.715 158.103 121.825C157.953 121.936 157.835 122.084 157.761 122.254L156.261 125.74C156.188 125.911 156.162 126.097 156.183 126.281C156.205 126.465 156.274 126.641 156.384 126.79C156.494 126.939 156.641 127.056 156.811 127.131C156.981 127.206 157.167 127.235 157.351 127.215V127.215Z"></path><path fill="#ffffff" d="M159.6 92.2248L168.872 91.1448L161.072 84.7998L158.502 90.7498C158.429 90.9209 158.402 91.1082 158.424 91.293C158.446 91.4778 158.516 91.6536 158.627 91.8029C158.738 91.9521 158.886 92.0696 159.057 92.1437C159.228 92.2177 159.415 92.2457 159.6 92.2248V92.2248Z"></path><path fill="#ffffff" d="M161.725 146.1L151.59 151.16C151.465 151.222 151.354 151.309 151.263 151.414C151.172 151.52 151.102 151.642 151.058 151.775C151.014 151.907 150.997 152.047 151.007 152.186C151.017 152.325 151.054 152.461 151.117 152.586C151.299 152.948 150.917 152.622 158.242 157.468L162.774 155.063L163.258 147.117C163.269 146.931 163.232 146.745 163.148 146.578C163.065 146.411 162.94 146.269 162.785 146.166C162.629 146.063 162.45 146.003 162.264 145.991C162.078 145.98 161.892 146.017 161.725 146.1V146.1Z"></path><path fill="#ffffff" d="M126.568 141.067L120.751 143.967C120.626 144.03 120.515 144.116 120.423 144.222C120.332 144.327 120.262 144.45 120.218 144.582C120.174 144.715 120.157 144.854 120.167 144.994C120.177 145.133 120.214 145.269 120.277 145.393C120.454 145.745 120.16 145.493 126.061 149.388C126.216 149.491 126.396 149.55 126.582 149.561C126.768 149.572 126.953 149.535 127.12 149.451C127.286 149.368 127.428 149.243 127.531 149.088C127.634 148.933 127.694 148.753 127.706 148.567L128.101 142.079C128.111 141.894 128.073 141.709 127.989 141.543C127.906 141.377 127.78 141.235 127.625 141.133C127.47 141.031 127.291 140.971 127.105 140.959C126.92 140.948 126.735 140.985 126.568 141.067V141.067Z"></path><path fill="#def6f8" d="M74.3719 103.074C31.8969 105.704 35.0049 105.485 34.6769 105.584C32.5449 107.229 33.1469 110.484 35.2769 111.063L74.6599 108.563C77.8999 107.767 77.3929 103.683 74.3719 103.074Z"></path><path fill="#0e2238" d="M47.438 77.6693C55.703 75.0373 65.065 81.1083 62.553 88.8263C62.432 89.1983 62.487 89.1783 62.274 89.0923C61.432 88.7523 58.986 87.6563 58.821 87.8373C59.3531 90.9192 60.0785 93.9646 60.993 96.9553C61.087 97.0473 70.626 93.5003 71.054 93.0553C71.154 92.9553 67.054 90.9553 66.505 90.6503C65.956 90.3453 66.885 87.1043 66.91 86.0883C67.002 82.3223 64.119 78.1993 63.184 77.3483C59.818 74.2803 55.927 72.2383 50.539 72.9583C49.53 73.0933 45.339 73.9283 45.386 74.2583C45.686 76.3893 45.844 77.0343 46.003 78.2833C46.4615 78.035 46.9418 77.8295 47.438 77.6693V77.6693Z"></path><path fill="#0e2238" d="M36.483 88.0765C36.461 91.8415 39.405 95.9265 40.355 96.7695C43.761 99.7925 47.701 101.789 53.073 100.982C54.083 100.83 58.259 99.9375 58.207 99.6125C57.864 97.4875 57.695 96.8505 57.516 95.6005C49.767 99.8005 38.127 93.7005 40.787 85.2745C40.904 84.9025 40.847 84.9265 41.066 85.0085C41.913 85.3295 44.374 86.3985 44.539 86.2185C43.9581 83.1406 43.1795 80.1033 42.208 77.1255C42.114 77.0395 32.626 80.7075 32.213 81.1705C32.119 81.2755 36.257 83.2165 36.808 83.5145C37.359 83.8125 36.489 87.0685 36.483 88.0765Z"></path><path fill="#0e2238" d="M16.433 118.569C16.3004 118.57 16.1727 118.519 16.0779 118.426C15.9831 118.333 15.929 118.207 15.9275 118.074C15.9261 117.941 15.9773 117.814 16.0701 117.719C16.1628 117.624 16.2894 117.57 16.422 117.569C19.613 117.496 82.093 115.969 86.156 115.942C86.2222 115.94 86.288 115.951 86.3495 115.976C86.4109 116 86.4668 116.037 86.5136 116.084C86.5604 116.131 86.5971 116.187 86.6216 116.248C86.6461 116.31 86.6578 116.375 86.656 116.442C86.656 116.574 86.6033 116.701 86.5096 116.795C86.4158 116.889 86.2886 116.942 86.156 116.942C82.109 116.97 16.433 118.569 16.433 118.569Z"></path><path fill="#0e2238" d="M93.7569 161.962C93.6243 161.966 93.4958 161.917 93.3996 161.825C93.3034 161.734 93.2474 161.608 93.2439 161.475C93.2405 161.343 93.2899 161.214 93.3812 161.118C93.4725 161.022 93.5983 160.966 93.7309 160.962C94.6449 160.914 100.207 160.772 100.88 160.669C101.01 160.652 101.141 160.686 101.246 160.765C101.35 160.843 101.42 160.959 101.44 161.089C101.46 161.218 101.429 161.35 101.353 161.456C101.276 161.562 101.162 161.635 101.033 161.657C100.349 161.762 96.7179 161.905 93.7569 161.962Z"></path><path fill="#0e2238" d="M35.6659 162.009C35.6003 162.011 35.535 162 35.4737 161.976C35.4125 161.952 35.3565 161.917 35.309 161.871C35.2615 161.826 35.2234 161.772 35.1969 161.711C35.1704 161.651 35.1559 161.587 35.1544 161.521C35.1529 161.455 35.1644 161.39 35.1881 161.329C35.2118 161.268 35.2474 161.212 35.2927 161.164C35.3381 161.117 35.3924 161.078 35.4525 161.052C35.5125 161.025 35.5773 161.011 35.6429 161.009C36.5809 160.965 42.1259 160.819 42.7929 160.722C42.8588 160.711 42.9263 160.713 42.9915 160.727C43.0567 160.742 43.1183 160.77 43.1725 160.809C43.2268 160.849 43.2726 160.898 43.3073 160.955C43.342 161.013 43.3649 161.076 43.3746 161.142C43.3843 161.208 43.3806 161.276 43.3638 161.341C43.347 161.405 43.3173 161.466 43.2766 161.519C43.2359 161.572 43.1849 161.617 43.1267 161.65C43.0686 161.683 43.0044 161.704 42.9379 161.711C42.2599 161.81 38.4099 161.959 35.6659 162.009Z"></path><path fill="#0e2238" d="M146.068 77.5903C145.949 76.8493 149.292 75.1433 149.979 74.8143C150.574 74.5203 151.213 74.2433 151.871 73.9943C151.933 73.9694 151.999 73.9571 152.065 73.9581C152.132 73.959 152.198 73.9733 152.259 74C152.319 74.0267 152.375 74.0653 152.42 74.1135C152.466 74.1618 152.502 74.2187 152.526 74.281C152.549 74.3432 152.56 74.4095 152.558 74.4761C152.555 74.5426 152.54 74.6079 152.512 74.6683C152.484 74.7287 152.444 74.7829 152.395 74.8277C152.345 74.8725 152.288 74.9071 152.225 74.9293C150.532 75.5816 148.918 76.424 147.415 77.4403C147.359 77.498 147.307 77.5595 147.259 77.6243C146.651 78.3803 146.138 78.0143 146.068 77.5903Z"></path><path fill="#0e2238" d="M107.161 113.844C107.061 113.759 106.931 113.717 106.8 113.727C106.669 113.736 106.547 113.797 106.461 113.896C104.285 116.439 101.733 118.583 100.652 119.796C100.252 114.96 99.352 111.129 98.916 104.702C98.548 99.2331 99.538 97.5841 100.329 94.5871C100.356 94.4614 100.333 94.3304 100.265 94.221C100.198 94.1117 100.091 94.0325 99.967 93.9998C99.8428 93.9672 99.7108 93.9836 99.5983 94.0456C99.4859 94.1076 99.4016 94.2106 99.363 94.3331C98.532 97.4751 97.537 99.1111 97.918 104.769C98.559 114.269 100.496 119.895 99.569 127.319C99.5559 127.449 99.5941 127.579 99.6755 127.681C99.7568 127.783 99.8749 127.849 100.004 127.865C100.134 127.882 100.265 127.847 100.369 127.768C100.473 127.689 100.542 127.572 100.561 127.443C100.819 125.372 100.884 123.282 100.755 121.199C103.312 118.399 104.978 117.146 107.218 114.551C107.261 114.501 107.293 114.443 107.314 114.38C107.334 114.318 107.342 114.251 107.337 114.186C107.331 114.12 107.313 114.056 107.283 113.997C107.253 113.939 107.211 113.887 107.161 113.844V113.844Z"></path><path fill="#0e2238" d="M122.057 82.3226C121.398 82.3126 121.277 81.2056 122.246 81.3386L122.422 81.3636C122.645 81.3361 122.865 81.2865 123.079 81.2156C123.141 81.1937 123.208 81.1845 123.274 81.1884C123.34 81.1923 123.404 81.2093 123.464 81.2384C123.523 81.2675 123.577 81.3082 123.62 81.3579C123.664 81.4077 123.697 81.4657 123.718 81.5285C123.739 81.5913 123.748 81.6576 123.743 81.7236C123.738 81.7897 123.72 81.8541 123.69 81.9132C123.66 81.9723 123.619 82.0248 123.569 82.0678C123.518 82.1108 123.46 82.1434 123.397 82.1636C122.974 82.3422 122.51 82.3973 122.057 82.3226V82.3226Z"></path><path fill="#0e2238" d="M193.952 112.459C192.664 110.835 191.253 109.312 189.731 107.904C189.246 107.436 188.734 106.997 188.196 106.589C188.13 106.493 188.033 106.422 187.921 106.389C185.598 103.132 182.953 99.1705 181.421 96.6545C181.388 96.5958 181.344 96.5444 181.291 96.5032C181.238 96.4621 181.177 96.432 181.112 96.4149C181.047 96.3978 180.979 96.394 180.913 96.4036C180.846 96.4133 180.782 96.4363 180.725 96.4712C180.667 96.506 180.618 96.5522 180.578 96.6067C180.539 96.6613 180.511 96.7232 180.497 96.7888C180.482 96.8543 180.481 96.9222 180.493 96.9883C180.505 97.0544 180.53 97.1174 180.567 97.1735C182.414 100.215 186.124 105.734 188.731 109.183C188.781 109.25 188.847 109.302 188.922 109.337C188.998 109.371 189.08 109.386 189.163 109.381C189.246 109.375 189.326 109.349 189.396 109.305C189.466 109.261 189.524 109.2 189.565 109.127C190.796 110.304 191.944 111.563 193.001 112.897C193.324 113.248 193.628 113.616 193.91 114C193.184 114.161 192.485 114.428 191.838 114.794C190.355 115.652 189.012 116.731 187.855 117.994C187.771 118.093 187.728 118.22 187.736 118.349C187.744 118.479 187.802 118.6 187.897 118.687C187.992 118.775 188.118 118.822 188.247 118.819C188.377 118.816 188.5 118.763 188.591 118.67C190.061 116.964 191.969 115.69 194.109 114.985C194.341 114.959 194.969 114.885 195.018 114.32C195.067 113.755 194.535 113.111 193.952 112.459Z"></path><path fill="#0e2238" d="M138.741 156.293C137.736 155.982 136.716 155.726 135.684 155.525C135.411 155.435 135.121 155.41 134.837 155.451C134.553 155.491 134.282 155.597 134.045 155.76C133.712 156.116 133.502 156.569 133.445 157.053C133.384 157.227 133.34 157.406 133.311 157.588C133.156 157.629 133.021 157.724 132.93 157.855C132.71 158.224 132.534 158.617 132.405 159.026C132.084 159.662 132.01 160.394 132.198 161.081C131.798 161.896 131.715 162.381 131.904 162.712C132.292 163.418 133.145 163.194 135.792 163.68C136.41 163.871 137.061 163.926 137.702 163.842C138.536 163.642 138.745 162.9 138.98 162.142C140.234 158.119 142.022 157.009 138.741 156.293ZM133.701 158.509C133.77 158.484 133.843 158.475 133.916 158.482C133.989 158.489 134.059 158.513 134.122 158.55C134.216 159.065 134.114 159.597 133.836 160.041C133.685 160.317 133.364 160.741 133.078 160.62C132.919 160.356 133.519 158.84 133.7 158.509H133.701ZM139.077 159.072C137.777 162.066 137.91 162.762 137.525 162.858C137.02 162.915 136.509 162.865 136.025 162.711C133.669 162.265 133.173 162.361 132.811 162.23C132.863 162.022 132.938 161.821 133.035 161.63C134.784 161.837 136.067 158.147 134.328 157.556C134.365 157.41 134.417 157.291 134.428 157.21C134.451 156.953 134.551 156.71 134.714 156.51C134.95 156.418 135.211 156.412 135.451 156.493C136.489 156.7 137.515 156.958 138.527 157.268C138.906 157.33 139.274 157.451 139.615 157.628C139.526 158.138 139.344 158.628 139.077 159.072Z"></path><path fill="#0e2238" d="M144.919 147.052C140.233 145.056 135.705 142.707 131.376 140.024C130.444 139.424 127.642 138.058 127.49 136.88C127.481 136.815 127.486 136.748 127.503 136.685C127.52 136.621 127.549 136.562 127.589 136.51C127.629 136.458 127.679 136.414 127.736 136.381C127.793 136.349 127.856 136.327 127.921 136.319C127.986 136.31 128.052 136.315 128.116 136.332C128.179 136.349 128.239 136.378 128.291 136.418C128.343 136.458 128.387 136.508 128.419 136.565C128.452 136.622 128.473 136.685 128.482 136.75C128.623 137.35 131.504 138.914 131.912 139.18C136.196 141.834 140.675 144.158 145.312 146.132C145.372 146.158 145.427 146.195 145.473 146.242C145.519 146.289 145.555 146.344 145.58 146.405C145.604 146.466 145.616 146.532 145.616 146.597C145.615 146.663 145.601 146.728 145.575 146.788C145.55 146.849 145.512 146.903 145.465 146.949C145.418 146.995 145.363 147.031 145.302 147.056C145.241 147.08 145.176 147.093 145.11 147.092C145.044 147.091 144.979 147.078 144.919 147.052Z"></path><path fill="#0e2238" d="M140.641 140.624C136.781 140.261 136.103 139.924 136.041 139.301C136.03 139.186 136.059 139.07 136.124 138.974C136.188 138.878 136.284 138.808 136.394 138.774C136.505 138.741 136.624 138.747 136.731 138.791C136.838 138.836 136.926 138.916 136.98 139.018C138.197 139.393 139.459 139.598 140.732 139.629C145.341 140.343 150.023 140.447 154.659 139.939C154.788 139.928 154.917 139.968 155.018 140.05C155.118 140.133 155.183 140.251 155.197 140.38C155.212 140.509 155.176 140.639 155.097 140.742C155.018 140.845 154.902 140.913 154.773 140.932C150.069 141.446 145.318 141.342 140.641 140.624Z"></path><path fill="#0e2238" d="M143.477 66.1235C143.439 66.0695 143.391 66.0236 143.335 65.9884C143.279 65.9531 143.217 65.9293 143.152 65.9182C143.087 65.9071 143.02 65.9091 142.956 65.9239C142.891 65.9387 142.831 65.9661 142.777 66.0045C141.769 66.7218 140.935 67.6552 140.334 68.7365C140.204 68.9605 139.841 69.5465 140.318 69.8365C140.392 69.8765 140.474 69.8984 140.557 69.9003C140.641 69.9023 140.724 69.8842 140.8 69.8476C140.875 69.8111 140.94 69.757 140.991 69.6901C141.041 69.6231 141.075 69.5451 141.089 69.4625C141.27 69.0938 141.486 68.7432 141.734 68.4155C141.943 68.7285 142.039 69.0235 142.396 69.0235C142.487 69.0233 142.576 68.9983 142.654 68.9511C142.732 68.904 142.795 68.8365 142.837 68.7559C142.88 68.6754 142.899 68.5848 142.894 68.494C142.888 68.4032 142.858 68.3155 142.807 68.2405C142.682 68.0305 142.545 67.8276 142.398 67.6325C142.692 67.3336 143.012 67.0615 143.355 66.8195C143.463 66.7434 143.537 66.6273 143.56 66.4968C143.583 66.3663 143.553 66.232 143.477 66.1235Z"></path><path fill="#0e2238" d="M143.157 72.2138C143.943 71.5156 144.582 70.6677 145.037 69.7195C145.491 68.7713 145.752 67.742 145.804 66.6918C145.796 63.5168 142.596 61.2259 140.134 64.2849C139.586 64.9871 139.195 65.7987 138.988 66.6648C138.776 67.5148 138.669 67.9408 139.134 68.1218C139.227 68.1502 139.326 68.1535 139.42 68.1316C139.515 68.1097 139.602 68.0633 139.673 67.997C139.744 67.9307 139.796 67.8469 139.824 67.754C139.853 67.6611 139.856 67.5624 139.834 67.4678C139.981 66.5414 140.352 65.6648 140.914 64.9138C141.237 64.5138 142.384 63.2648 143.562 64.1278C146.281 66.1198 144.021 70.9708 141.427 72.1908C141.324 72.2394 141.241 72.3214 141.191 72.4234C141.142 72.5253 141.128 72.6413 141.153 72.752C141.178 72.8628 141.239 72.9618 141.328 73.0329C141.416 73.1039 141.526 73.1427 141.64 73.1428C141.899 73.0868 142.142 72.9771 142.356 72.8208C142.532 73.1368 142.42 72.8988 142.981 73.7398C144.365 75.9118 144.189 76.3398 144.725 76.3398C144.81 76.3398 144.893 76.3181 144.967 76.277C145.041 76.2359 145.104 76.1766 145.149 76.1047C145.193 76.0328 145.219 75.9507 145.224 75.866C145.228 75.7814 145.211 75.697 145.174 75.6208C144.594 74.4332 143.919 73.2939 143.157 72.2138V72.2138Z"></path><path fill="#0e2238" d="M121.718 62.5835C121.362 62.3465 121.509 61.9345 121.572 61.7595C122.995 57.9475 126.283 56.3595 127.784 60.3865C127.825 60.5093 127.816 60.6431 127.76 60.7598C127.705 60.8765 127.606 60.967 127.484 61.0123C127.363 61.0576 127.229 61.0542 127.111 61.0028C126.992 60.9514 126.898 60.8559 126.848 60.7365C126.569 59.9915 125.966 58.7825 124.996 59.0745C123.866 59.4155 122.913 61.0345 122.524 62.0655C122.469 62.2215 122.524 62.2885 122.411 62.4475C122.337 62.5573 122.222 62.6333 122.093 62.6588C121.963 62.6843 121.828 62.6572 121.718 62.5835Z"></path><path fill="#0e2238" d="M124.493 64.2182C124.323 63.0182 123.121 63.3982 123.065 64.4052C122.814 67.4472 124.922 66.9752 124.493 64.2182Z"></path><path fill="#0e2238" d="M73.982 102.545C73.075 102.625 39.482 104.68 34.887 105.119C32.494 105.349 31.833 110.405 34.987 111.5C35.26 111.6 74.672 109.077 74.772 109.052C75.1777 108.981 75.5656 108.831 75.9133 108.611C76.2611 108.39 76.562 108.103 76.7987 107.766C77.0354 107.429 77.2034 107.048 77.293 106.646C77.3826 106.244 77.3921 105.829 77.321 105.423C77.1768 104.634 76.7669 103.918 76.1594 103.395C75.552 102.871 74.7835 102.571 73.982 102.545ZM74.536 108.081C74.416 108.068 47.655 109.772 35.321 110.557C33.695 109.992 33.193 107.411 34.937 106.014C59.206 104.481 74.199 103.549 74.273 103.564C76.745 104.064 77.284 107.405 74.536 108.081Z"></path><path fill="#0e2238" d="M55.773 84.9998C55.223 84.8055 54.6421 84.7137 54.059 84.7288C53.959 83.1288 53.935 81.5568 52.742 80.3288C52.4588 79.9988 52.1001 79.7419 51.6964 79.5803C51.2927 79.4186 50.8559 79.3568 50.4232 79.4002C49.9904 79.4436 49.5746 79.5909 49.211 79.8295C48.8475 80.0682 48.5469 80.3911 48.335 80.7708C47.6111 82.171 47.4063 83.7822 47.757 85.3188C47.3413 85.3433 46.9312 85.4268 46.539 85.5668C45.002 86.5418 44.06 90.4968 45.949 92.9198C46.932 94.1708 53.949 93.2008 55.5 92.8508C58.655 92.1348 58.274 86.4628 55.773 84.9998ZM49.212 81.2508C49.3473 81.011 49.5389 80.8076 49.7703 80.6582C50.0016 80.5088 50.2658 80.4179 50.5401 80.3932C50.8143 80.3685 51.0905 80.4108 51.3448 80.5165C51.5991 80.6222 51.824 80.788 52 80.9998C52.992 82.0228 52.977 83.4588 53.057 84.7798C51.676 84.8528 50.13 85.0178 48.746 85.1878C48.4162 83.8616 48.5819 82.4606 49.212 81.2478V81.2508ZM55.279 91.8748C54.1889 92.096 53.0871 92.2549 51.979 92.3508C48.616 92.6568 46.972 92.4908 46.74 92.3028C45.24 90.3828 46.016 87.1808 47.04 86.4398C49.2322 86.0967 51.4409 85.8681 53.657 85.7548C54.2174 85.6945 54.7841 85.7413 55.327 85.8928C57.068 86.9998 57.431 91.3458 55.279 91.8718V91.8748Z"></path><path fill="#0e2238" d="M44.1839 107.454C44.0319 107.446 43.8229 107.437 43.5779 107.429C43.7219 107.277 43.8489 107.145 43.9439 107.047C43.9899 107 44.0261 106.944 44.0506 106.883C44.0751 106.822 44.0873 106.757 44.0865 106.691C44.0858 106.625 44.0721 106.56 44.0463 106.5C44.0204 106.439 43.9829 106.385 43.9359 106.339C43.8889 106.293 43.8333 106.256 43.7723 106.232C43.7112 106.208 43.646 106.195 43.5803 106.196C43.5145 106.197 43.4496 106.21 43.3891 106.236C43.3287 106.262 43.2739 106.3 43.2279 106.347L43.0029 106.581C43.0099 106.481 43.0159 106.396 43.0219 106.322C43.032 106.189 42.989 106.058 42.9023 105.957C42.8157 105.856 42.6925 105.794 42.5599 105.784C42.4273 105.774 42.2961 105.817 42.1952 105.903C42.0943 105.99 42.032 106.113 42.0219 106.246C42.0099 106.403 41.9949 106.619 41.9789 106.868C41.7919 106.705 41.6309 106.562 41.5139 106.454C41.4163 106.364 41.287 106.316 41.1544 106.322C41.0218 106.327 40.8968 106.385 40.8069 106.483C40.717 106.58 40.6696 106.71 40.675 106.842C40.6804 106.975 40.7383 107.1 40.8359 107.19L41.0219 107.357C40.9279 107.357 40.8439 107.35 40.7719 107.346C40.6399 107.34 40.5108 107.386 40.4123 107.474C40.3138 107.562 40.2537 107.685 40.2449 107.817C40.2375 107.949 40.283 108.079 40.3713 108.178C40.4597 108.276 40.5836 108.336 40.7159 108.344C40.8739 108.353 41.0859 108.36 41.3309 108.368C41.1869 108.521 41.0609 108.653 40.9659 108.751C40.8972 108.821 40.8508 108.91 40.8326 109.007C40.8144 109.104 40.8251 109.204 40.8634 109.294C40.9018 109.385 40.966 109.462 41.0481 109.517C41.1302 109.571 41.2265 109.6 41.3249 109.6C41.8059 109.6 41.8609 108.978 41.8099 109.518C41.8021 109.647 41.8449 109.775 41.9292 109.873C42.0135 109.972 42.1329 110.033 42.262 110.046C42.3911 110.058 42.5199 110.019 42.6212 109.938C42.7225 109.857 42.7884 109.74 42.8049 109.612C42.8209 109.448 42.8379 109.222 42.8559 108.959C43.0669 109.144 43.2499 109.308 43.3779 109.427C43.4751 109.517 43.6042 109.565 43.7368 109.56C43.8025 109.558 43.867 109.542 43.9267 109.515C43.9864 109.488 44.0402 109.449 44.0849 109.401C44.1296 109.353 44.1644 109.296 44.1873 109.234C44.2102 109.173 44.2208 109.107 44.2183 109.042C44.2159 108.976 44.2006 108.912 44.1733 108.852C44.1459 108.792 44.107 108.738 44.0589 108.694C43.9809 108.622 43.8839 108.534 43.7729 108.434L44.1539 108.451C44.2802 108.445 44.3999 108.393 44.4888 108.303C44.5777 108.213 44.6292 108.093 44.633 107.966C44.6368 107.84 44.5926 107.717 44.5093 107.622C44.426 107.526 44.3097 107.466 44.1839 107.454Z"></path><path fill="#0e2238" d="M139.566 65.3711C137.672 65.5861 120.551 67.4501 120.378 67.4711C119.154 64.2711 119.278 63.8711 118.722 63.8711C118.637 63.8711 118.553 63.8929 118.478 63.9344C118.404 63.976 118.341 64.0359 118.296 64.1084C118.252 64.181 118.226 64.2638 118.222 64.349C118.219 64.4341 118.237 64.5189 118.275 64.5951C118.325 64.6951 119.442 68.0401 120.359 70.0571C120.385 70.1183 120.423 70.1737 120.471 70.22C120.519 70.2662 120.576 70.3025 120.638 70.3265C120.7 70.3506 120.766 70.362 120.833 70.3601C120.899 70.3582 120.965 70.343 121.026 70.3154C121.086 70.2878 121.141 70.2484 121.186 70.1995C121.231 70.1506 121.266 70.0931 121.289 70.0305C121.311 69.9678 121.321 69.9013 121.318 69.8348C121.315 69.7683 121.298 69.7031 121.269 69.6431C121.09 69.2481 120.92 68.8431 120.756 68.4361C121.515 68.3831 139.578 66.3741 139.679 66.3621C139.803 66.3388 139.914 66.2693 139.989 66.1676C140.064 66.0659 140.098 65.9396 140.084 65.814C140.069 65.6884 140.008 65.5729 139.912 65.4908C139.816 65.4086 139.692 65.3658 139.566 65.3711V65.3711Z"></path><path fill="#0e2238" d="M157.05 80.9283C156.787 80.2523 156.003 80.4033 154.589 79.2463C153.816 78.5953 153.164 75.9642 151.383 76.5732C150.927 75.955 150.626 75.2367 150.504 74.4782C150.431 74.1782 150.367 73.9523 150.345 73.7913C150.378 73.7007 150.385 73.6024 150.364 73.5082C150.343 73.414 150.295 73.328 150.226 73.2604C150.157 73.1928 150.07 73.1467 149.975 73.1275C149.881 73.1083 149.783 73.1169 149.693 73.1523C149.175 73.3523 149.35 73.9792 149.503 74.5902C149.655 75.5002 150.009 76.3645 150.54 77.1193C148.968 78.4023 140.84 87.4652 139.679 88.3402C139.204 88.4202 135.698 90.5352 136.264 92.6042C136.395 92.9755 136.589 93.3216 136.837 93.6273C137.047 93.9273 137.337 94.3272 137.307 94.5342C137.277 94.7412 136.786 95.2233 136.492 95.5033C135.934 96.0087 135.479 96.6167 135.151 97.2943C134.818 97.8483 134.862 97.8073 134.851 97.7323C134.815 97.3663 134.63 96.3263 134.572 94.7643C134.428 91.1413 133.266 89.0303 135.195 86.8503C135.523 86.3772 135.965 85.9939 136.479 85.7353C136.973 86.2164 137.415 86.7487 137.797 87.3232C137.833 87.3792 137.879 87.4275 137.934 87.4652C137.988 87.503 138.05 87.5295 138.115 87.5432C138.18 87.5569 138.247 87.5576 138.312 87.5451C138.377 87.5326 138.439 87.5073 138.495 87.4706C138.55 87.4338 138.598 87.3865 138.634 87.3312C138.671 87.276 138.697 87.2139 138.709 87.1487C138.722 87.0835 138.721 87.0165 138.708 86.9515C138.694 86.8865 138.668 86.8249 138.63 86.7702C138.117 85.9989 137.507 85.2974 136.814 84.6833C136.272 84.1958 135.62 83.8462 134.914 83.6643C133.862 83.5108 132.789 83.607 131.782 83.9453C129.153 84.6103 125.809 85.2192 123.754 83.6012C122.912 82.8947 122.292 81.9599 121.968 80.9092C124.215 80.0682 125.875 77.2613 124.456 75.2363C123.764 74.2523 122.287 74.1652 121.227 74.3932C120.886 74.4702 120.269 74.6263 120.154 74.6613C120.086 73.9565 120.145 73.2453 120.328 72.5612C120.835 72.6662 121.31 73.1712 122.128 73.1712C123.038 73.1712 124.363 71.9083 123.565 71.4413C123.451 71.3742 123.314 71.3553 123.186 71.3887C123.058 71.4221 122.948 71.505 122.881 71.6193C122.8 71.7613 122.689 71.8844 122.557 71.9805C122.424 72.0765 122.273 72.1433 122.113 72.1763C121.847 72.1359 121.592 72.0464 121.359 71.9123C120.749 71.5814 120.057 71.4308 119.365 71.4782C118.528 71.4472 117.265 71.4003 116.887 70.9413C116.829 70.8636 116.79 70.7736 116.773 70.6784C116.755 70.5832 116.76 70.4853 116.787 70.3923C117.077 68.6113 119.792 67.7803 120.632 65.6673C121.474 63.4573 119.99 61.3173 120.516 59.2863C121.254 56.4443 123.634 54.8483 125.064 52.2993C125.125 52.1839 125.139 52.0491 125.102 51.9237C125.065 51.7983 124.981 51.6923 124.867 51.6283C124.753 51.5644 124.619 51.5477 124.492 51.5817C124.366 51.6157 124.258 51.6977 124.192 51.8103C122.826 54.2433 120.354 55.9313 119.549 59.0353C118.973 61.2553 120.375 63.5353 119.701 65.3053C118.97 67.1353 116.174 67.9423 115.801 70.2323C115.752 70.4657 115.755 70.707 115.809 70.9392C115.864 71.1715 115.968 71.3889 116.116 71.5762C116.777 72.3762 118.189 72.4352 119.325 72.4762C119.089 73.2741 119.042 74.116 119.187 74.9353C119.333 75.7546 119.667 76.5286 120.164 77.1963C120.772 78.0443 120.572 78.9813 120.789 80.2623C120.893 81.087 121.162 81.8823 121.58 82.6011C121.997 83.3199 122.555 83.9475 123.22 84.4467C123.884 84.9459 124.643 85.3064 125.449 85.507C126.256 85.7076 127.095 85.744 127.916 85.6143C127.7 86.6108 127.545 87.6197 127.453 88.6353C127.247 90.8035 127.197 92.9838 127.304 95.1592C127.288 95.9712 127.293 97.2962 128.151 97.2962C129.063 97.2962 129.86 94.2962 133.168 91.3122C133.29 92.4552 133.536 93.6833 133.581 94.8023C133.622 95.8175 133.716 96.83 133.864 97.8353C133.906 98.2353 133.973 98.8922 134.473 99.1182C135.173 99.4342 135.612 98.4763 136.013 97.8083C136.294 97.207 136.693 96.6689 137.188 96.2262C138.488 94.9822 138.688 94.4992 137.655 93.0462C137.481 92.8327 137.339 92.5953 137.233 92.3413C137.082 91.7923 137.633 91.1092 137.965 90.7562C138.557 90.1523 139.244 89.6506 140 89.2713C140.064 89.2663 140.126 89.2488 140.183 89.2196C140.24 89.1904 140.291 89.1502 140.332 89.1012C140.696 88.8592 145.155 84.1782 145.253 84.0742C146.732 82.4982 150.019 78.7153 151.54 77.6083C152.425 76.9333 152.98 79.2003 153.949 80.0163C154.547 80.5075 155.211 80.9115 155.922 81.2163C153.484 82.4804 151.284 84.1591 149.422 86.1773C147.522 88.3179 145.888 90.6807 144.557 93.2142C144.347 93.6312 143.791 94.7373 143.527 94.8083C143.098 94.2391 142.761 93.6065 142.527 92.9333C141.815 91.4253 141.084 90.1443 139.3 90.2993C139.234 90.3058 139.171 90.3253 139.112 90.3564C139.054 90.3876 139.003 90.43 138.961 90.4811C138.919 90.5321 138.888 90.5909 138.869 90.6541C138.85 90.7173 138.843 90.7836 138.85 90.8493C138.856 90.9149 138.876 90.9786 138.907 91.0368C138.938 91.0949 138.981 91.1464 139.032 91.1882C139.083 91.23 139.142 91.2613 139.205 91.2803C139.268 91.2994 139.334 91.3058 139.4 91.2993C140.58 91.1783 141.108 92.2692 141.625 93.3652C141.925 94.0042 141.853 93.8243 142.004 94.1653C142.336 94.9233 142.814 95.9473 143.633 95.7903C144.69 95.5903 145.304 93.8662 145.712 93.1842C148.823 87.6163 151.818 84.7983 155.29 82.7223C155.987 82.3003 157.329 81.8163 157.05 80.9283ZM121.664 79.0892C121.493 76.6032 120.978 77.0013 120.415 75.6273C120.565 75.5803 121.192 75.4273 121.443 75.3693C122.009 75.2473 123.198 75.1842 123.643 75.8112C124.63 77.2192 123.33 79.2532 121.743 79.9232C121.7 79.6402 121.683 79.3622 121.664 79.0892V79.0892ZM133.076 90.0653C131.177 91.7036 129.564 93.6465 128.302 95.8143C128.292 95.5723 128.302 95.3193 128.302 95.1793C128.196 93.0232 128.245 90.8623 128.449 88.7132C128.529 87.7117 128.686 86.7178 128.918 85.7402C128.947 85.6569 128.988 85.5783 129.04 85.5073C132.664 85.0323 133.84 83.9453 135.631 85.0393C135.192 85.3692 134.796 85.754 134.455 86.1842C133.511 87.2513 133.017 88.642 133.076 90.0653V90.0653Z"></path><path fill="#0e2238" d="M119.552 154.746C119.515 154.646 111.365 138.166 108.397 131.533C108.37 131.473 108.332 131.419 108.284 131.373C108.236 131.328 108.18 131.293 108.119 131.27C108.058 131.246 107.992 131.235 107.927 131.237C107.861 131.239 107.796 131.253 107.736 131.28C107.677 131.307 107.622 131.345 107.577 131.393C107.532 131.441 107.497 131.497 107.473 131.558C107.45 131.619 107.439 131.685 107.441 131.75C107.442 131.816 107.457 131.881 107.484 131.941C109.535 136.524 115.004 147.804 118.198 154.262C118.536 154.944 7.65897 156.196 7.54197 156.198L5.77097 130.501C7.82397 130.458 42.024 129.681 45.687 129.635C44.738 131.454 43.798 133.256 43.47 133.896C43.4346 133.982 43.4208 134.075 43.4296 134.168C43.4385 134.261 43.4697 134.35 43.5206 134.428C43.5716 134.507 43.6407 134.571 43.7221 134.617C43.8035 134.662 43.8948 134.687 43.988 134.69C43.988 134.69 65.643 134.646 66.959 134.577C67.413 134.553 67.559 134.009 67.364 133.639C67.02 132.97 66.145 131.099 65.602 129.933L85.994 129.649C86.1266 129.649 86.2538 129.596 86.3475 129.502C86.4413 129.408 86.494 129.281 86.494 129.149C86.494 129.016 86.4413 128.889 86.3475 128.795C86.2538 128.701 86.1266 128.649 85.994 128.649C84.83 128.643 66.368 128.923 65.138 128.939C64.453 127.473 63.787 126.049 63.399 125.224C73.941 124.983 83.47 124.768 85.716 124.755C85.8486 124.755 85.9758 124.702 86.0695 124.608C86.1633 124.514 86.216 124.387 86.216 124.255C86.2075 124.125 86.1521 124.002 86.0601 123.91C85.9681 123.818 85.8458 123.763 85.716 123.755C83.416 123.718 19.533 125.265 16.632 125.329C16.4994 125.33 16.3728 125.384 16.28 125.479C16.1873 125.574 16.136 125.701 16.1375 125.834C16.1389 125.967 16.193 126.093 16.2878 126.186C16.3826 126.279 16.5104 126.33 16.643 126.329L47.774 125.593C47.525 126.093 47.06 127.005 46.215 128.629C43.785 128.64 7.11497 129.474 5.22997 129.513C4.95997 129.519 4.76797 129.679 4.76697 130.046C4.76697 131.101 5.12997 135.676 6.57997 156.746C6.5886 156.872 6.64506 156.991 6.73791 157.077C6.83076 157.164 6.95305 157.212 7.07997 157.212L16.239 157.048C16.229 159.595 16.29 167.211 16.168 168.114C16.1592 168.179 16.1633 168.245 16.18 168.308C16.1968 168.372 16.2259 168.431 16.2657 168.484C16.3055 168.536 16.3552 168.58 16.4119 168.613C16.4687 168.646 16.5314 168.667 16.5965 168.676C16.6615 168.685 16.7277 168.681 16.7912 168.664C16.8547 168.647 16.9142 168.618 16.9665 168.578C17.0187 168.539 17.0626 168.489 17.0956 168.432C17.1286 168.375 17.1502 168.313 17.159 168.248C17.294 167.248 17.228 159.678 17.24 157.031L72.77 156.223C72.76 158.473 72.827 166.416 72.705 167.323C72.6962 167.388 72.7004 167.454 72.7173 167.517C72.7341 167.581 72.7633 167.641 72.8032 167.693C72.8838 167.798 73.0029 167.867 73.1345 167.885C73.266 167.903 73.3992 167.867 73.5047 167.787C73.6102 167.706 73.6793 167.587 73.697 167.456C73.7215 167.272 73.697 156.223 73.697 156.223L119.197 155.596C119.295 155.595 119.391 155.566 119.473 155.511C119.555 155.456 119.618 155.379 119.656 155.288C119.694 155.198 119.704 155.098 119.686 155.001C119.667 154.905 119.621 154.816 119.552 154.746ZM48.893 125.564L62.307 125.247C62.651 125.972 65.868 132.859 66.227 133.595C63.736 133.646 46.009 133.677 44.704 133.683C45.174 132.778 48.684 126.018 48.893 125.564Z"></path><path fill="#0e2238" d="M175.848 142.276C172.719 130.824 172.343 120.831 171.948 107.692C171.848 104.333 171.705 92.8432 171.716 91.6412C171.809 91.0539 171.853 90.4599 171.848 89.8652C171.848 89.7326 171.795 89.6054 171.701 89.5117C171.608 89.4179 171.481 89.3652 171.348 89.3652C171.253 89.3697 171.161 89.3972 171.08 89.4454C170.999 89.4935 170.93 89.5609 170.881 89.6416C170.832 89.7223 170.803 89.8139 170.797 89.9083C170.791 90.0027 170.809 90.0971 170.848 90.1832C170.836 90.6417 170.794 91.099 170.724 91.5522C170.704 93.0572 170.732 94.5522 170.753 96.2392C167.406 94.5392 159.515 91.0482 157.918 89.8622C157.865 89.8228 157.806 89.7942 157.742 89.7779C157.678 89.7616 157.612 89.758 157.547 89.7673C157.482 89.7766 157.42 89.7985 157.363 89.832C157.307 89.8655 157.257 89.9097 157.218 89.9622C157.179 90.0148 157.15 90.0745 157.134 90.1381C157.117 90.2018 157.114 90.2679 157.123 90.3329C157.132 90.3979 157.154 90.4605 157.188 90.517C157.221 90.5735 157.265 90.6228 157.318 90.6622C159.018 91.9242 167.035 95.4802 170.202 97.0802C167.307 102.309 165.228 107.95 164.036 113.806C164.023 113.871 164.022 113.937 164.035 114.001C164.047 114.066 164.073 114.127 164.109 114.182C164.145 114.237 164.192 114.284 164.246 114.321C164.3 114.357 164.362 114.383 164.426 114.396C164.49 114.409 164.557 114.41 164.621 114.397C164.686 114.385 164.747 114.36 164.802 114.323C164.856 114.287 164.904 114.241 164.94 114.186C164.977 114.132 165.003 114.071 165.016 114.006C166.145 108.459 168.084 103.108 170.772 98.1252C170.863 106.025 171.094 116.649 171.785 124.547C169.985 123.008 168.032 121.657 165.957 120.514C165.899 120.48 165.836 120.458 165.769 120.449C165.703 120.44 165.636 120.444 165.571 120.461C165.506 120.479 165.446 120.509 165.393 120.55C165.34 120.591 165.297 120.643 165.264 120.701C165.232 120.76 165.211 120.824 165.204 120.891C165.197 120.957 165.203 121.025 165.223 121.089C165.242 121.153 165.274 121.212 165.317 121.264C165.36 121.315 165.412 121.358 165.472 121.388C166.983 122.227 168.431 123.173 169.807 124.219C169.866 129.783 169.251 135.333 167.976 140.749C166.588 146.849 166.691 147.326 167.138 149.036C167.304 149.413 167.394 149.819 167.403 150.231C167.412 150.643 167.34 151.052 167.19 151.436C165.865 153.681 161.828 154.936 160.584 155.68C153.533 159.907 152.412 159.98 140.077 155.164C141.629 155.333 141.883 155.405 142.016 155.405C142.149 155.415 142.279 155.371 142.38 155.284C142.48 155.197 142.542 155.073 142.551 154.941C142.561 154.808 142.517 154.677 142.43 154.577C142.343 154.476 142.22 154.415 142.087 154.405C135.215 153.415 127.825 154.051 124.929 153.388C123.179 152.742 121.483 151.958 119.858 151.043C118.941 150.522 118.224 149.71 117.822 148.734C117.538 147.778 118.354 146.457 118.554 146.09C122.585 138.681 122.944 136.529 121.743 128.345C120.418 119.319 122.435 112.233 122.243 110.081C122.309 109.973 122.332 109.844 122.307 109.719C122.281 109.595 122.21 109.485 122.106 109.411C122.019 109.354 121.919 109.321 121.815 109.314C121.711 109.307 121.607 109.328 121.514 109.373C121.095 109.614 121.276 110.156 121.259 110.366C120.616 118.36 119.779 121.761 120.871 129.278C120.516 129.601 120.181 129.943 119.837 130.278C118.896 131.203 118.79 131.235 118.79 131.507C118.79 131.615 118.825 131.721 118.889 131.807C118.954 131.894 119.045 131.958 119.148 131.989C119.251 132.021 119.362 132.018 119.464 131.982C119.566 131.946 119.654 131.878 119.714 131.788C121.166 130.373 121.033 130.499 121.049 130.483C121.949 137.158 121.049 139.411 117.673 145.61C117.027 146.794 116.518 147.859 116.873 149.055C117.282 150.101 117.994 151 118.919 151.636C118.903 151.685 118.895 151.736 118.895 151.787C118.829 152.095 118.46 153.397 118.384 153.819C118.36 153.95 118.39 154.084 118.466 154.193C118.541 154.302 118.657 154.377 118.788 154.4C118.919 154.424 119.053 154.394 119.162 154.319C119.271 154.243 119.345 154.127 119.369 153.996C119.43 153.653 119.727 152.596 119.825 152.185C120.763 152.727 121.739 153.2 122.746 153.599C122.446 154.205 121.505 157.166 121.194 158.144C120.739 159.628 119.594 160.556 122.462 161.47C123.349 161.752 123.773 160.67 123.98 159.758C124.439 158.389 125.145 155.536 126.298 154.585C127.689 154.711 128.914 154.73 130.369 154.746C132.528 154.771 132.255 154.738 132.206 154.846C131.837 155.675 131.735 155.941 131.522 156.438C130.672 158.421 130.06 160.497 129.698 162.623C129.639 162.951 129.669 163.288 129.784 163.6C129.899 163.912 130.096 164.188 130.354 164.398C131.197 164.856 132.138 165.106 133.097 165.128C133.807 165.184 134.508 165.324 135.185 165.543C136.442 165.885 138.362 166.451 139.416 165.972C139.751 165.703 140.027 165.368 140.226 164.986C140.424 164.605 140.541 164.186 140.569 163.757C141.05 161.503 141.951 159.36 143.223 157.438C147.043 158.874 149.802 159.738 152.162 159.803C151.931 161.469 151.573 163.115 151.091 164.726C150.841 165.47 150.752 165.471 150.752 165.675C150.752 165.793 150.794 165.907 150.869 165.997C150.945 166.087 151.05 166.147 151.166 166.167C152.533 166.8 153.821 166.384 154.482 164.234C154.85 162.679 155.028 161.085 155.014 159.486C157.193 158.722 159.276 157.706 161.221 156.46C163.551 155.328 166.705 154.206 168.048 151.932C169.039 150.238 167.691 148.484 167.835 147.012C168.188 143.363 169.413 139.687 169.935 135.976C170.533 132.327 170.79 128.629 170.703 124.932C171.145 125.307 171.544 125.671 171.914 126.038C172.354 131.669 173.359 137.242 174.914 142.671C175.09 143.234 176.034 142.959 175.848 142.276ZM122.666 160.493C121.552 160.128 121.589 159.965 121.607 159.886C121.644 159.722 121.99 158.986 122.154 158.452C122.487 157.401 123.403 154.509 123.69 153.971C124.128 154.203 124.601 154.362 125.09 154.442C123.669 156.323 123.1 159.827 122.666 160.493V160.493ZM139.726 163.041C139.085 165.211 139.779 165.767 135.452 164.591C134.723 164.357 133.969 164.208 133.206 164.146C132.43 164.129 131.667 163.949 130.965 163.618C130.847 163.513 130.76 163.377 130.712 163.227C130.664 163.076 130.658 162.915 130.693 162.761C130.824 160.728 132.521 156.431 133.357 154.796C134.314 154.815 136.507 154.896 136.641 154.896C136.641 154.896 141.211 156.679 142.25 157.077C141.085 158.912 140.232 160.927 139.726 163.041V163.041ZM153.526 163.984C153.25 164.877 152.819 165.646 151.926 165.397C152.518 163.574 152.94 161.699 153.184 159.797C153.596 159.772 153.807 159.747 154.025 159.714C154.021 161.152 153.852 162.585 153.523 163.984H153.526Z"></path><path fill="#0e2238" d="M39.094 107.673C38.942 107.665 38.733 107.656 38.494 107.648C38.637 107.497 38.762 107.366 38.857 107.268C38.9498 107.173 39.0011 107.045 38.9996 106.912C38.9981 106.779 38.9439 106.653 38.849 106.56C38.754 106.467 38.6261 106.416 38.4933 106.417C38.3605 106.419 38.2338 106.473 38.141 106.568C38.078 106.633 38.002 106.712 37.917 106.802C37.924 106.702 37.93 106.62 37.935 106.549C37.9452 106.416 37.9023 106.285 37.8158 106.184C37.7292 106.083 37.6061 106.02 37.4735 106.01C37.3409 106 37.2096 106.043 37.1087 106.129C37.0077 106.216 36.9452 106.339 36.935 106.472C36.923 106.624 36.909 106.835 36.893 107.082C36.705 106.917 36.543 106.774 36.426 106.669C36.327 106.583 36.198 106.539 36.067 106.547C35.936 106.555 35.8134 106.614 35.7257 106.712C35.638 106.81 35.5922 106.938 35.5983 107.069C35.6043 107.2 35.6617 107.324 35.758 107.413L35.944 107.579L35.679 107.571C35.6132 107.567 35.5473 107.577 35.4854 107.6C35.4235 107.622 35.3667 107.657 35.3184 107.702C35.2701 107.747 35.2313 107.801 35.2042 107.861C35.1772 107.921 35.1625 107.986 35.161 108.052C35.1561 108.184 35.2041 108.313 35.2942 108.41C35.3844 108.507 35.5095 108.565 35.642 108.57L36.242 108.587L35.873 108.98C35.8071 109.051 35.7635 109.14 35.7474 109.236C35.7313 109.332 35.7435 109.43 35.7824 109.519C35.8213 109.608 35.8853 109.684 35.9666 109.737C36.0479 109.79 36.1429 109.819 36.24 109.819C36.725 109.819 36.767 109.191 36.725 109.747C36.7152 109.879 36.7584 110.01 36.8453 110.111C36.9321 110.212 37.0554 110.274 37.188 110.284C37.3206 110.294 37.4517 110.25 37.5524 110.163C37.6531 110.077 37.7152 109.953 37.725 109.821C37.737 109.658 37.752 109.434 37.769 109.173C37.984 109.361 38.169 109.526 38.301 109.646C38.3489 109.692 38.4054 109.728 38.4674 109.752C38.5293 109.776 38.5954 109.787 38.6618 109.785C38.7282 109.783 38.7935 109.768 38.854 109.741C38.9144 109.713 38.9688 109.674 39.014 109.625C39.0592 109.577 39.0942 109.519 39.117 109.457C39.1398 109.395 39.15 109.328 39.1469 109.262C39.1438 109.196 39.1276 109.131 39.0991 109.071C39.0706 109.011 39.0305 108.957 38.981 108.913C38.903 108.841 38.805 108.753 38.693 108.654L39.073 108.67C39.199 108.663 39.3177 108.609 39.4055 108.518C39.4932 108.428 39.5435 108.307 39.5461 108.181C39.5488 108.055 39.5037 107.932 39.4198 107.838C39.336 107.744 39.2196 107.685 39.094 107.673Z"></path><path fill="#0e2238" d="M49.4699 108.061C49.6025 108.063 49.7306 108.013 49.8261 107.921C49.9216 107.829 49.9765 107.702 49.9789 107.57C49.9813 107.437 49.9309 107.309 49.8388 107.214C49.7467 107.118 49.6205 107.063 49.4879 107.061L48.8819 107.043C49.0279 106.888 49.1559 106.755 49.2519 106.659C49.3431 106.565 49.3937 106.438 49.3928 106.307C49.3918 106.176 49.3394 106.051 49.2468 105.958C49.1543 105.865 49.0289 105.812 48.8978 105.811C48.7667 105.81 48.6403 105.86 48.5459 105.951C48.4799 106.017 48.3999 106.1 48.3089 106.194L48.3249 105.93C48.3328 105.798 48.2879 105.667 48.1999 105.568C48.112 105.469 47.9882 105.409 47.8559 105.401C47.7239 105.395 47.5949 105.441 47.4961 105.529C47.3974 105.616 47.3367 105.739 47.3269 105.871L47.2909 106.471L46.8149 106.055C46.7655 106.012 46.7081 105.978 46.6459 105.957C46.5837 105.936 46.5179 105.927 46.4524 105.932C46.3868 105.936 46.3227 105.953 46.2638 105.982C46.2049 106.011 46.1522 106.052 46.1089 106.101C46.0656 106.15 46.0324 106.208 46.0112 106.27C45.9901 106.332 45.9814 106.398 45.9857 106.463C45.99 106.529 46.0071 106.593 46.0361 106.652C46.0652 106.711 46.1055 106.764 46.1549 106.807L46.3409 106.969L46.0779 106.96C46.0119 106.956 45.9456 106.965 45.8833 106.987C45.8209 107.009 45.7637 107.044 45.7152 107.089C45.6667 107.134 45.6279 107.188 45.6012 107.249C45.5745 107.309 45.5604 107.375 45.5599 107.441C45.555 107.573 45.603 107.702 45.6932 107.799C45.7834 107.897 45.9084 107.954 46.0409 107.959C46.1949 107.965 46.4009 107.972 46.6409 107.979L46.2769 108.365C46.2099 108.436 46.1652 108.525 46.1483 108.621C46.1313 108.717 46.143 108.816 46.1817 108.906C46.2204 108.996 46.2845 109.072 46.3661 109.126C46.4477 109.179 46.5432 109.208 46.6409 109.208C47.1239 109.208 47.1629 108.591 47.1219 109.135C47.1117 109.267 47.1546 109.399 47.2411 109.5C47.3277 109.601 47.4508 109.663 47.5834 109.673C47.716 109.684 47.8472 109.641 47.9482 109.554C48.0492 109.468 48.1117 109.344 48.1219 109.212C48.1339 109.05 48.1499 108.823 48.1669 108.563C48.3829 108.754 48.5669 108.921 48.7029 109.04C48.8014 109.129 48.9312 109.175 49.0637 109.168C49.1962 109.161 49.3206 109.102 49.4094 109.003C49.4983 108.905 49.5443 108.775 49.5375 108.643C49.5306 108.51 49.4714 108.386 49.3729 108.297C49.2969 108.228 49.2019 108.143 49.0939 108.048L49.4699 108.061Z"></path><path fill="#0e2238" d="M54.8999 106.869C54.7449 106.861 54.5349 106.852 54.2899 106.845C54.4329 106.695 54.5589 106.566 54.6549 106.469C54.7026 106.423 54.7406 106.368 54.7667 106.307C54.7928 106.246 54.8065 106.18 54.807 106.113C54.8075 106.047 54.7948 105.981 54.7695 105.92C54.7443 105.858 54.7071 105.803 54.6601 105.756C54.6131 105.709 54.5572 105.672 54.4957 105.647C54.4342 105.622 54.3684 105.609 54.302 105.61C54.2356 105.611 54.17 105.624 54.1091 105.651C54.0481 105.677 53.993 105.715 53.9469 105.763C53.8819 105.828 53.8029 105.909 53.7149 106L53.7319 105.731C53.7357 105.665 53.7266 105.6 53.705 105.537C53.6833 105.475 53.6497 105.418 53.606 105.369C53.5622 105.32 53.5093 105.28 53.4501 105.251C53.3908 105.223 53.3266 105.206 53.2609 105.202C53.1953 105.198 53.1295 105.207 53.0674 105.229C53.0052 105.251 52.948 105.284 52.8989 105.328C52.8497 105.372 52.8097 105.425 52.7811 105.484C52.7524 105.543 52.7357 105.607 52.7319 105.673L52.6939 106.283C52.5069 106.12 52.3429 105.976 52.2229 105.868C52.1744 105.823 52.1173 105.787 52.0549 105.764C51.9926 105.741 51.9263 105.731 51.8598 105.733C51.7934 105.736 51.7282 105.752 51.6681 105.781C51.6079 105.809 51.554 105.849 51.5095 105.898C51.465 105.948 51.4308 106.006 51.4089 106.068C51.3871 106.131 51.3779 106.198 51.382 106.264C51.3862 106.33 51.4035 106.395 51.433 106.455C51.4625 106.514 51.5036 106.568 51.5539 106.611L51.7379 106.775L51.4919 106.764C51.3593 106.757 51.2292 106.802 51.1302 106.891C51.0311 106.979 50.9713 107.103 50.9639 107.236C50.9565 107.369 51.002 107.499 51.0906 107.598C51.1791 107.697 51.3033 107.757 51.4359 107.764C51.5929 107.772 51.8029 107.78 52.0439 107.787C51.8989 107.944 51.7719 108.079 51.6779 108.179C51.6109 108.25 51.5662 108.339 51.5493 108.435C51.5324 108.532 51.544 108.631 51.5827 108.72C51.6214 108.81 51.6855 108.886 51.7671 108.94C51.8487 108.993 51.9443 109.022 52.0419 109.022C52.5269 109.022 52.5669 108.395 52.5259 108.948C52.5211 109.014 52.5292 109.08 52.5498 109.142C52.5705 109.205 52.6032 109.263 52.6462 109.312C52.6892 109.362 52.7416 109.403 52.8004 109.433C52.8592 109.462 52.9233 109.48 52.9889 109.485C53.0546 109.49 53.1206 109.482 53.1831 109.461C53.2456 109.44 53.3034 109.408 53.3533 109.365C53.4032 109.322 53.4441 109.269 53.4737 109.211C53.5033 109.152 53.5211 109.088 53.5259 109.022C53.5379 108.86 53.5529 108.635 53.5699 108.374C53.7849 108.561 53.9699 108.726 54.1019 108.847C54.1993 108.937 54.3284 108.985 54.461 108.98C54.5936 108.975 54.7187 108.917 54.8089 108.82C54.8991 108.723 54.9469 108.594 54.9418 108.461C54.9368 108.328 54.8793 108.203 54.7819 108.113C54.7039 108.041 54.6059 107.953 54.4949 107.854L54.8739 107.871C55.0068 107.874 55.1356 107.825 55.232 107.733C55.3284 107.642 55.3845 107.516 55.3879 107.383C55.3914 107.25 55.3419 107.121 55.2504 107.025C55.1589 106.929 55.0328 106.872 54.8999 106.869V106.869Z"></path><path fill="#0e2238" d="M51.318 86.7736C49.134 86.9636 48.949 88.6605 50.206 89.1815C50.234 89.3815 50.248 89.5985 50.262 89.8215C50.309 90.5475 50.341 90.5485 50.362 90.8375C50.3515 91.003 50.3775 91.1688 50.4382 91.3231C50.4988 91.4774 50.5926 91.6165 50.713 91.7306C51.126 92.0616 51.645 91.8885 51.849 91.9025C52.433 91.9335 52.811 91.5705 52.749 90.8645C52.714 90.5465 52.525 89.5245 52.53 89.1045C54.094 88.0275 52.767 86.6486 51.318 86.7736ZM51.828 88.3735C51.314 88.7115 51.576 89.6735 51.744 90.9065C51.719 90.9065 51.392 90.9316 51.369 90.9396C51.161 89.0476 51.296 88.4175 50.74 88.3075C50.62 88.2926 50.5084 88.2381 50.423 88.1525C50.633 87.9798 50.8827 87.8619 51.1496 87.8095C51.4165 87.7571 51.6922 87.7719 51.952 87.8525C52.0494 87.9086 52.1439 87.9697 52.235 88.0356C52.1219 88.1719 51.9838 88.2853 51.828 88.3696V88.3735Z"></path><path fill="#0e2238" d="M43.421 148.79C43.4125 148.658 43.3527 148.534 43.2544 148.446C43.1561 148.358 43.0271 148.311 42.895 148.317C41.545 148.389 23.244 148.972 20.172 149.217C19.037 147.517 11.923 136.828 11.795 136.687C11.7048 136.589 11.5795 136.531 11.4467 136.526C11.3138 136.52 11.1842 136.568 11.0865 136.658C10.9888 136.748 10.9309 136.874 10.9255 137.007C10.9202 137.14 10.9678 137.269 11.058 137.367C11.284 137.685 11.734 138.341 12.312 139.199L10.345 139.609C10.2721 139.619 10.2022 139.645 10.1405 139.685C10.0788 139.725 10.0266 139.778 9.98786 139.841C9.94908 139.903 9.92459 139.974 9.91614 140.047C9.9077 140.12 9.9155 140.194 9.93901 140.264C9.97001 140.564 9.44901 139.296 16.057 149.972C17.115 151.681 18.009 153.124 18.43 153.778C18.5021 153.888 18.6151 153.966 18.7443 153.994C18.8734 154.021 19.0083 153.997 19.1193 153.925C19.2304 153.854 19.3087 153.741 19.3371 153.612C19.3655 153.483 19.3418 153.348 19.271 153.237C17.984 151.237 12.927 142.915 11.226 140.447C11.226 140.447 12.526 140.176 12.91 140.091C14.18 141.991 18.641 148.721 19.368 149.812C19.3732 149.885 19.3951 149.957 19.4319 150.02C19.4688 150.084 19.5198 150.139 19.5809 150.18C19.642 150.221 19.7117 150.248 19.7846 150.258C19.8576 150.268 19.9319 150.262 20.002 150.239C21.877 150.063 42.567 149.339 42.948 149.318C43.0138 149.314 43.0782 149.298 43.1377 149.269C43.1971 149.241 43.2503 149.201 43.2943 149.152C43.3382 149.103 43.372 149.046 43.3938 148.984C43.4155 148.921 43.4248 148.856 43.421 148.79V148.79Z"></path><path fill="#0e2238" fill-rule="evenodd" d="M100.323 63.8721C100.648 63.6512 101.023 63.6387 101.381 63.7968C101.76 63.964 102.024 64.2932 102.213 64.6506C102.405 65.013 102.548 65.4576 102.656 65.94C102.874 66.9061 102.974 68.1135 103.009 69.3325C103.081 71.7764 102.895 74.3651 102.813 75.3851L102.813 75.3933C102.732 76.2233 102.697 77.057 102.708 77.8908C102.708 77.911 102.709 77.9311 102.71 77.9511C102.712 78.0481 102.715 78.1417 102.727 78.2297C102.743 78.2181 102.761 78.2044 102.78 78.1883C102.934 78.0627 103.105 77.867 103.27 77.6473L106.587 70.2399C106.598 70.2137 106.612 70.1886 106.628 70.1649C106.844 69.8442 107.329 69.2279 107.894 68.79C108.175 68.5727 108.515 68.3677 108.883 68.2932C109.278 68.2131 109.7 68.2885 110.05 68.6203C110.581 69.1238 110.573 69.9049 110.49 70.4727C110.405 71.0637 110.203 71.6536 110.083 72.0048L110.073 72.0339C110.071 72.0397 110.069 72.0455 110.067 72.0512C108.744 75.5003 107.205 78.8624 105.458 82.1176C105.454 82.1272 105.449 82.1369 105.445 82.1467C106.038 82.0172 106.62 81.8404 107.186 81.6179C107.504 81.447 107.736 81.1383 108.031 80.6996C108.051 80.6706 108.071 80.6408 108.091 80.6106C108.356 80.2133 108.688 79.7176 109.183 79.3865C109.539 79.1484 110.05 78.9467 110.544 78.9586C110.798 78.9647 111.076 79.0289 111.317 79.2063C111.564 79.3885 111.727 79.6564 111.801 79.9833C111.957 80.6693 111.752 81.3609 111.483 81.9344C111.21 82.5153 110.833 83.0533 110.554 83.4503C109.031 85.6041 107.322 87.0612 105.708 88.3265C105.43 88.5446 105.156 88.7561 104.887 88.9636C103.581 89.9717 102.393 90.8887 101.405 92.0364C101.225 92.2457 100.909 92.2693 100.7 92.0891C100.49 91.9089 100.467 91.5932 100.647 91.3839C101.708 90.152 102.992 89.1619 104.3 88.1532C104.563 87.9501 104.827 87.7463 105.091 87.5396C106.679 86.2942 108.297 84.9088 109.736 82.8737C110.021 82.4708 110.347 81.9999 110.578 81.5095C110.811 81.0115 110.909 80.5686 110.826 80.2047C110.797 80.0769 110.751 80.0314 110.724 80.0116C110.69 79.9871 110.629 79.9609 110.52 79.9583C110.287 79.9527 109.975 80.0599 109.739 80.2178C109.414 80.4347 109.186 80.7737 108.889 81.2166L108.861 81.2575C108.576 81.6824 108.212 82.2155 107.623 82.5179C107.609 82.5254 107.594 82.5321 107.579 82.5381C106.729 82.8743 105.845 83.1157 104.943 83.2581C104.75 83.2886 104.563 83.2037 104.456 83.0516C104.342 82.9347 104.276 82.7882 104.258 82.6342C104.237 82.4574 104.281 82.2978 104.318 82.1921C104.357 82.0804 104.41 81.9738 104.452 81.8922C104.467 81.8633 104.48 81.838 104.492 81.8152C104.518 81.7639 104.538 81.7252 104.556 81.6864C104.561 81.6767 104.565 81.6671 104.57 81.6577C106.298 78.4383 107.821 75.113 109.13 71.7017C109.253 71.3412 109.429 70.826 109.501 70.3294C109.579 69.7889 109.503 69.4796 109.362 69.3461C109.281 69.269 109.204 69.2486 109.081 69.2733C108.931 69.3038 108.734 69.4043 108.507 69.5806C108.074 69.9158 107.674 70.4108 107.481 70.6892L104.16 78.1065C104.146 78.1395 104.127 78.1708 104.106 78.1999C103.916 78.4567 103.674 78.7496 103.413 78.9628C103.186 79.1485 102.769 79.4162 102.307 79.2389C101.9 79.0822 101.792 78.6684 101.755 78.4824C101.717 78.2873 101.712 78.0772 101.709 77.9632C101.709 77.9462 101.709 77.9313 101.708 77.9189L101.708 77.9085C101.697 77.0381 101.733 76.1677 101.817 75.3012C101.898 74.2855 102.079 71.7453 102.01 69.3616C101.975 68.1653 101.877 67.0327 101.681 66.1595C101.582 65.7222 101.464 65.3723 101.33 65.1184C101.193 64.8596 101.066 64.7509 100.977 64.7116C100.904 64.6792 100.892 64.6919 100.887 64.6973L100.886 64.6989C100.84 64.7299 100.748 64.8306 100.641 65.0836C100.431 65.5814 100.275 66.3954 100.149 67.4344C100.041 68.3177 99.9589 69.3198 99.8735 70.3597C99.8597 70.5279 99.8458 70.6971 99.8317 70.8669C99.7311 72.0799 99.6204 73.3226 99.4555 74.4355C99.4478 74.4875 99.4385 74.5698 99.4271 74.6722C99.395 74.959 99.3452 75.4046 99.2599 75.7917C99.1997 76.0648 99.1132 76.3597 98.9798 76.6111C98.8503 76.855 98.6344 77.1358 98.2795 77.2414L98.2776 77.242C97.8346 77.3719 97.4695 77.1235 97.2566 76.9218C97.0278 76.705 96.8281 76.4091 96.6652 76.1285C96.3932 75.66 96.166 75.129 96.0499 74.8578C96.0265 74.8031 96.0076 74.7589 95.9937 74.728C95.5291 73.6967 95.1382 72.5338 94.7804 71.4695C94.5943 70.916 94.4172 70.3892 94.2433 69.9214C93.9803 69.2135 93.7252 68.6367 93.4549 68.2321C93.1787 67.8187 92.9516 67.6814 92.7737 67.6609C92.6442 67.6461 92.567 67.6803 92.4947 67.7494C92.4039 67.8361 92.3092 67.9949 92.2306 68.2422C92.0736 68.7357 92.0359 69.4008 92.0575 69.9444C92.0988 70.9985 92.3873 72.3071 92.6781 73.6255C92.7594 73.9943 92.8409 74.3638 92.9172 74.7287C93.0875 75.5433 93.231 76.336 93.2661 77.0045C93.2838 77.3395 93.2754 77.6624 93.2219 77.9519C93.1688 78.2393 93.0649 78.5277 92.8647 78.7587C92.6632 78.9907 92.3843 79.1061 92.0773 79.0624C91.8163 79.0252 91.5901 78.8803 91.4133 78.7366C91.0544 78.4447 90.6716 77.964 90.2963 77.4572C90.1063 77.2007 89.9141 76.9321 89.7202 76.6611C89.1089 75.8071 88.4808 74.9293 87.8535 74.3316L87.8399 74.3188C87.6697 74.1592 87.458 73.9607 87.2463 73.8415C87.139 73.781 87.073 73.7657 87.0445 73.7644L87.0425 73.764C87.0425 73.764 87.0411 73.766 87.0391 73.768C86.9899 73.818 86.9365 73.9406 86.9613 74.2095C86.9846 74.4632 87.0685 74.739 87.1476 74.9643C87.6727 76.4533 88.3252 77.4457 88.968 78.4233C89.0959 78.6179 89.2235 78.812 89.3496 79.0092C90.1162 80.2083 90.7866 81.4741 90.9973 83.5497C91.0939 84.4958 91.0362 85.4419 90.9777 86.3447L90.9728 86.4196C90.9151 87.3087 90.8602 88.1558 90.9277 88.9945C90.9641 89.4474 91.184 89.9028 91.4553 90.4644C91.4652 90.485 91.4752 90.5057 91.4853 90.5266C91.734 91.0419 92.0342 91.6729 92.0309 92.3415C92.087 92.5433 92.0991 92.772 92.0932 92.9973C92.086 93.2742 92.0494 93.5986 91.9918 93.9598C91.8765 94.6824 91.6693 95.5997 91.4054 96.6663C91.1861 97.5522 90.9301 98.5334 90.6513 99.6016C90.249 101.143 89.7994 102.866 89.345 104.745C87.8162 111.068 86.316 118.848 86.7728 125.881C87.017 129.642 87.6787 131.656 88.2615 132.776C88.5513 133.333 88.8267 133.68 89.0368 133.919C89.0749 133.963 89.1224 134.015 89.1694 134.067C89.2295 134.133 89.289 134.199 89.327 134.243C89.3789 134.305 89.4588 134.401 89.5157 134.525C90.6391 135.784 91.8719 136.005 93.049 135.862C93.6621 135.787 94.2618 135.612 94.8279 135.419C95.0231 135.352 95.2225 135.279 95.4183 135.209C95.7603 135.085 96.0912 134.965 96.3696 134.885C100.229 133.703 104.007 132.266 107.677 130.586L107.69 130.58C108.294 130.324 108.91 130.076 109.528 129.827C111.696 128.954 113.895 128.069 115.71 126.811C115.937 126.654 116.249 126.71 116.406 126.937C116.563 127.164 116.507 127.476 116.28 127.633C114.363 128.961 112.021 129.904 109.837 130.782C109.237 131.023 108.65 131.26 108.086 131.498C104.377 133.196 100.559 134.648 96.6583 135.842L96.6493 135.845C96.3983 135.917 96.1267 136.015 95.8131 136.129C95.6118 136.203 95.3933 136.282 95.1517 136.365C94.5612 136.567 93.8849 136.767 93.1698 136.854C91.7105 137.032 90.0998 136.731 88.7016 135.113C88.6579 135.063 88.6248 135.004 88.6043 134.94C88.5975 134.931 88.5851 134.915 88.5644 134.89C88.5261 134.845 88.4922 134.808 88.4501 134.762C88.4078 134.716 88.3572 134.661 88.2854 134.579C88.0356 134.295 87.7095 133.882 87.3743 133.238C86.7071 131.955 86.0247 129.793 85.7749 125.946C85.3077 118.753 86.8405 110.849 88.373 104.51C88.8252 102.64 89.2846 100.879 89.6918 99.3178C89.9702 98.2503 90.2242 97.2765 90.4346 96.4261C90.6976 95.3635 90.8961 94.4806 91.0043 93.8023C91.0584 93.463 91.0879 93.1866 91.0935 92.9713C91.0994 92.7449 91.0771 92.6318 91.0616 92.591C91.037 92.5264 91.0261 92.4575 91.0295 92.3885C91.0497 91.9794 90.8642 91.5404 90.5847 90.9611C90.5665 90.9235 90.5479 90.8851 90.529 90.8462C90.2821 90.338 89.983 89.7221 89.9309 89.0747C89.8574 88.162 89.9167 87.2501 89.9732 86.3816C89.9754 86.3477 89.9776 86.3138 89.9798 86.2801C90.0389 85.3677 90.0894 84.502 90.0025 83.651C89.8132 81.7866 89.2255 80.6716 88.5071 79.5479C88.3901 79.3648 88.2685 79.1802 88.1441 78.9912C87.4973 78.0091 86.7732 76.9094 86.2043 75.2965C86.1195 75.0547 86.0006 74.6826 85.9655 74.3012C85.9317 73.9348 85.964 73.4343 86.3268 73.0662C86.5474 72.8423 86.8202 72.7529 87.0908 72.7655C87.3392 72.777 87.563 72.8722 87.737 72.9701C88.0589 73.1514 88.3508 73.4263 88.5079 73.5743C88.5189 73.5846 88.5292 73.5944 88.5388 73.6034L88.5417 73.6061C89.2454 74.2762 89.9569 75.2713 90.5785 76.1407C90.7608 76.3958 90.9355 76.6401 91.0999 76.8621C91.4817 77.3776 91.7964 77.7592 92.0443 77.9607C92.0894 77.9974 92.1254 78.0223 92.1527 78.039C92.1838 77.9815 92.2153 77.8959 92.2386 77.7701C92.2726 77.5861 92.2829 77.3488 92.2675 77.057C92.2367 76.4718 92.1079 75.7445 91.9383 74.9334C91.8689 74.601 91.7922 74.2542 91.714 73.9002C91.42 72.5697 91.1034 71.1369 91.0583 69.9837C91.0349 69.3933 91.0692 68.594 91.2777 67.939C91.3818 67.6118 91.5432 67.2752 91.804 67.0262C92.0832 66.7596 92.4527 66.6177 92.8876 66.6674C93.5053 66.7385 93.9537 67.1784 94.2864 67.6765C94.6251 68.1834 94.9129 68.8524 95.1807 69.573C95.3774 70.1023 95.5646 70.6603 95.7553 71.2287C96.1011 72.2598 96.4586 73.3255 96.9057 74.3178L96.9063 74.319C96.9263 74.3638 96.9508 74.4207 96.9792 74.487C97.1001 74.7685 97.2936 75.2191 97.53 75.6264C97.6769 75.8793 97.8196 76.0777 97.9444 76.1959C97.9764 76.2263 98.0012 76.246 98.0192 76.2585C98.0378 76.2381 98.0645 76.2026 98.0965 76.1422C98.1684 76.0068 98.2313 75.8127 98.2833 75.5765C98.3568 75.2429 98.3924 74.9215 98.4227 74.6471C98.4372 74.5156 98.4505 74.3949 98.4663 74.2889C98.6259 73.2118 98.7344 71.9987 98.8352 70.7842C98.8491 70.6163 98.8629 70.4483 98.8766 70.2806C98.9618 69.2426 99.0459 68.218 99.1562 67.3134C99.2827 66.2758 99.4497 65.3353 99.7195 64.6952C99.8527 64.3792 100.039 64.0651 100.323 63.8721Z" clip-rule="evenodd"></path><path fill="#0e2238" fill-rule="evenodd" d="M189.583 61.8216C189.578 61.8248 189.505 61.8538 189.372 62.0308C189.22 62.2331 189.052 62.545 188.875 62.962C188.524 63.7912 188.177 64.9336 187.845 66.183C187.542 67.3244 187.256 68.5354 186.992 69.6509C186.968 69.7525 186.944 69.8532 186.921 69.9531C186.64 71.1406 186.384 72.212 186.163 72.9173C185.767 74.1883 185.258 75.4336 184.526 76.6044C184.515 76.6226 184.493 76.6547 184.46 76.6892C184.431 76.7192 184.362 76.7845 184.249 76.82C184.112 76.8633 183.957 76.8465 183.829 76.7646C183.723 76.6972 183.672 76.6093 183.651 76.5696C183.612 76.493 183.602 76.4235 183.6 76.4069L183.599 76.4058C183.596 76.3785 183.594 76.3553 183.594 76.3411C183.592 76.2903 183.595 76.2317 183.599 76.1863C183.606 76.0838 183.622 75.932 183.643 75.7451C183.664 75.5518 183.692 75.3089 183.725 75.0277C183.755 74.7652 183.79 74.4693 183.826 74.1489C183.977 72.812 184.169 71.0058 184.288 69.1812C184.407 67.3507 184.452 65.5261 184.317 64.1442C184.25 63.4492 184.14 62.9016 183.99 62.5295C183.832 62.1363 183.692 62.0826 183.649 62.0758C183.499 62.0515 183.381 62.0859 183.253 62.2007C183.104 62.3336 182.944 62.5758 182.786 62.9616C182.471 63.7321 182.24 64.8829 182.026 66.2789C181.926 66.9266 181.831 67.6229 181.733 68.3464C181.414 70.6823 181.057 73.3007 180.388 75.4762C180.262 75.8864 180.1 76.2691 179.924 76.5766C179.836 76.7303 179.74 76.8734 179.637 76.9941C179.539 77.1094 179.411 77.2314 179.254 77.3091C179.095 77.388 178.867 77.4369 178.632 77.3277C178.416 77.227 178.299 77.0389 178.235 76.8855C178.109 76.5862 178.073 76.1503 178.091 75.61C178.092 75.5978 178.092 75.5857 178.094 75.5736C178.324 73.4325 178.347 71.2744 178.16 69.1296C178.153 69.0411 178.146 68.9449 178.139 68.8435C178.113 68.4862 178.083 68.0631 177.993 67.676C177.936 67.4308 177.863 67.2479 177.783 67.1314C177.744 67.0754 177.711 67.043 177.68 67.0242C177.456 67.106 177.336 67.182 177.21 67.3626C177.026 67.6262 176.823 68.1305 176.576 69.1977C176.322 70.3236 176.306 71.4776 176.29 72.6926C176.289 72.792 176.287 72.8918 176.286 72.992C176.266 74.2968 176.223 75.6661 175.811 77.0081C175.35 78.5078 174.671 79.295 173.961 80.017C173.881 80.0983 173.802 80.1782 173.722 80.258C173.117 80.8648 172.524 81.4594 171.972 82.5051C171.552 83.6801 171.402 84.9349 171.535 86.1759C171.564 86.4505 171.366 86.6969 171.091 86.7263C170.817 86.7557 170.57 86.5569 170.541 86.2823C170.391 84.879 170.562 83.4599 171.043 82.1329C171.05 82.1117 171.06 82.0911 171.07 82.0712C171.701 80.8661 172.401 80.1656 173.016 79.5495C173.095 79.4706 173.172 79.393 173.248 79.3159C173.899 78.6544 174.459 78.0019 174.855 76.7143C175.221 75.5243 175.266 74.2866 175.286 72.9771C175.287 72.8727 175.289 72.7678 175.29 72.6623C175.306 71.4669 175.322 70.2098 175.601 68.9763L175.601 68.9736C175.85 67.8987 176.086 67.2255 176.39 66.79C176.729 66.3049 177.126 66.1514 177.505 66.0271C177.573 66.0048 177.645 65.9973 177.716 66.0052C178.125 66.0505 178.415 66.287 178.606 66.5636C178.789 66.8286 178.897 67.1503 178.967 67.4485C179.078 67.9235 179.115 68.4604 179.14 68.8185C179.146 68.9049 179.151 68.9808 179.156 69.043C179.348 71.2461 179.326 73.4628 179.09 75.6621C179.086 75.8006 179.086 75.9194 179.089 76.0207C179.212 75.7957 179.333 75.5061 179.432 75.1828C180.075 73.0936 180.416 70.5959 180.732 68.2755C180.833 67.5351 180.932 66.8127 181.037 66.1273C181.251 64.7369 181.495 63.4768 181.86 62.5832C182.043 62.1369 182.274 61.7338 182.587 61.4545C182.92 61.157 183.336 61.0123 183.808 61.0885C184.39 61.1822 184.723 61.6734 184.918 62.156C185.12 62.6598 185.242 63.3187 185.313 64.0474C185.455 65.5128 185.406 67.4035 185.285 69.2463C185.186 70.7777 185.036 72.2928 184.901 73.5305C185.011 73.2307 185.113 72.9269 185.209 72.6195C185.416 71.9554 185.664 70.9234 185.948 69.7231C185.971 69.6229 185.995 69.5217 186.019 69.4195C186.282 68.3064 186.571 67.0818 186.878 65.9262C187.213 64.6686 187.574 63.4692 187.955 62.5714C188.144 62.1249 188.349 61.727 188.573 61.4294C188.781 61.1528 189.09 60.8505 189.511 60.8241C190.105 60.7868 190.587 60.9679 190.904 61.3687C191.195 61.7362 191.286 62.2131 191.306 62.6411C191.326 63.0797 191.276 63.5477 191.217 63.9612C191.187 64.1679 191.157 64.3483 191.131 64.5115C191.099 64.7019 191.072 64.869 191.053 65.0276C190.758 67.4413 189.992 70.5744 189.378 73.0874C189.276 73.507 189.177 73.9094 189.086 74.2882C189.071 74.351 189.036 74.4588 189.002 74.5617C188.992 74.5917 188.983 74.6212 188.974 74.6492C189.149 74.5105 189.334 74.346 189.504 74.1711C190.368 73.2817 190.805 72.353 191.179 71.3232C191.275 71.0564 191.369 70.7776 191.466 70.4893C191.737 69.682 192.034 68.7997 192.492 67.8937C192.621 67.6376 192.981 66.9882 193.41 66.5175C193.615 66.2932 193.9 66.0354 194.239 65.9444C194.426 65.8945 194.639 65.8926 194.849 65.9832C195.054 66.0715 195.209 66.2271 195.324 66.406C195.622 66.8677 195.727 67.4262 195.736 67.9793C195.745 68.5364 195.657 69.1309 195.531 69.7017C195.329 70.6119 195.013 71.5225 194.785 72.182C194.728 72.3446 194.677 72.492 194.634 72.6203C192.064 80.3304 187.359 84.1039 183.847 86.9205C182.927 87.6577 182.09 88.3295 181.394 88.989C181.303 89.0751 181.2 89.2162 181.063 89.4043C181.018 89.4656 180.97 89.5318 180.917 89.6027C180.822 89.7313 180.714 89.871 180.602 89.9902C180.578 90.0148 180.553 90.041 180.525 90.0678C180.528 90.1066 180.532 90.1498 180.536 90.1979C180.552 90.3873 180.575 90.6541 180.615 91.0368C180.719 92.0256 180.939 93.7802 181.454 96.8278C182.354 102.15 183.076 105.155 184.064 107.999C184.768 110.025 185.605 111.968 186.745 114.614C187.213 115.701 187.733 116.907 188.316 118.287C190.525 123.526 192.466 128.919 192.262 134.617C192.138 138.026 190.083 140.47 188.131 142.79C188.048 142.89 187.964 142.989 187.881 143.088C187.754 143.241 187.626 143.408 187.486 143.591C187.447 143.642 187.407 143.694 187.366 143.747C187.182 143.986 186.98 144.242 186.76 144.482C186.324 144.955 185.767 145.421 185.041 145.558C183.64 145.823 181.634 146.102 179.736 145.822C177.884 145.55 176.065 144.731 175.057 142.789C174.99 142.733 174.937 142.659 174.906 142.57C174.815 142.31 174.952 142.025 175.213 141.933L175.253 141.919C175.494 141.835 175.76 141.946 175.869 142.176C176.662 143.842 178.165 144.58 179.882 144.833C181.609 145.088 183.48 144.835 184.855 144.576C185.264 144.498 185.639 144.223 186.024 143.805C186.213 143.599 186.393 143.372 186.574 143.137C186.61 143.09 186.647 143.042 186.684 142.993C186.826 142.807 186.972 142.617 187.114 142.446C187.175 142.374 187.236 142.301 187.297 142.229C189.305 139.837 191.151 137.639 191.262 134.581C191.458 129.121 189.599 123.904 187.394 118.676C186.822 117.321 186.308 116.127 185.841 115.045C184.693 112.38 183.836 110.39 183.119 108.327C182.106 105.409 181.372 102.342 180.468 96.9945C179.95 93.931 179.727 92.1552 179.62 91.1412C179.579 90.7472 179.555 90.467 179.539 90.278C179.535 90.2243 179.531 90.1781 179.527 90.1386C179.524 90.1065 179.522 90.0803 179.519 90.0587C179.503 90.0222 179.49 89.9832 179.482 89.9422C179.439 89.7088 179.565 89.4772 179.784 89.3875C179.784 89.3875 179.813 89.3688 179.874 89.3043C179.944 89.2297 180.024 89.1291 180.115 89.0063C180.145 88.965 180.179 88.919 180.214 88.8705C180.361 88.668 180.542 88.4191 180.706 88.2636C181.465 87.5437 182.351 86.8319 183.303 86.0661C186.804 83.2521 191.219 79.7036 193.686 72.304C193.734 72.1591 193.789 71.9991 193.849 71.8272C194.077 71.168 194.367 70.3321 194.554 69.4856C194.672 68.9553 194.743 68.4449 194.736 67.9955C194.728 67.5423 194.642 67.1932 194.484 66.9483C194.477 66.9381 194.471 66.9297 194.466 66.9229C194.405 66.9522 194.297 67.0294 194.149 67.1912C193.812 67.5609 193.5 68.1141 193.384 68.3442C192.962 69.181 192.699 69.9629 192.434 70.7501C192.332 71.0527 192.23 71.3561 192.119 71.6638C191.723 72.7562 191.226 73.8336 190.222 74.8672C189.788 75.3142 189.206 75.7652 188.799 75.9419C188.681 75.9928 188.495 76.0499 188.291 75.9925C188.051 75.925 187.924 75.7427 187.869 75.5903C187.821 75.4548 187.818 75.3189 187.823 75.2231C187.828 75.1194 187.844 75.0141 187.864 74.9179C187.903 74.7255 187.964 74.5238 188.014 74.3659C188.031 74.3149 188.047 74.2638 188.062 74.2194C188.069 74.1961 188.076 74.1746 188.082 74.1559C188.092 74.127 188.099 74.1035 188.105 74.0846L188.112 74.0622C188.113 74.0568 188.114 74.0541 188.114 74.0541C188.207 73.6677 188.306 73.2601 188.41 72.8372C189.025 70.3177 189.774 67.2552 190.06 64.9065C190.08 64.7435 190.114 64.5322 190.149 64.3136C190.176 64.147 190.204 63.9761 190.227 63.8191C190.284 63.4219 190.323 63.0296 190.307 62.688C190.29 62.3358 190.218 62.1126 190.12 61.9896C190.05 61.901 189.92 61.8025 189.583 61.8216Z" clip-rule="evenodd"></path></svg>