<svg xmlns="http://www.w3.org/2000/svg" fill="none" viewBox="0 0 200 200" height="700" width="700"><path fill="#def6f8" fill-rule="evenodd" d="M5.06102 88.3008H195C191.639 94.0308 186.631 96.7698 174.073 99.3578C161.515 101.946 164.689 109.508 157.393 114.707C150.097 119.906 140.444 114.707 128.935 114.707C117.426 114.707 112.241 125.326 100.035 125.018C87.829 124.71 86.862 118.247 73.816 117.507C60.77 116.767 60.066 124.75 47.44 128.656C34.814 132.562 33.254 124.456 27.973 120.389C22.692 116.322 22.811 107.248 12.832 103.363C3.79002 99.8408 5.06102 88.3008 5.06102 88.3008Z" clip-rule="evenodd"></path><path fill="#0e2238" d="M28.947 119.647C23.58 115.509 20.321 106.825 13.312 104.104C10.838 103.162 8.72961 101.454 7.29401 99.2301C7.25692 99.1751 7.23113 99.1133 7.21814 99.0483C7.20514 98.9833 7.2052 98.9164 7.21831 98.8514C7.23142 98.7864 7.25732 98.7247 7.29451 98.6698C7.33169 98.615 7.37942 98.568 7.4349 98.5318C7.49039 98.4955 7.55254 98.4706 7.61773 98.4586C7.68292 98.4466 7.74984 98.4476 7.81462 98.4617C7.8794 98.4758 7.94073 98.5026 7.99504 98.5406C8.04936 98.5786 8.09558 98.627 8.13101 98.6831C9.45333 100.732 11.3953 102.304 13.674 103.172C21.025 106.026 24.335 114.828 29.557 118.854C34.984 123.039 35.038 131.967 47.289 128.174C59.809 124.3 60.556 116.26 73.84 117C86.912 117.742 88.832 123.528 100.84 123.831C110.891 124.131 115.192 118.081 123.64 115.119C125.338 114.511 127.128 114.201 128.932 114.2C140.463 114.2 150.023 119.334 157.1 114.292C164.249 109.2 161.132 101.506 173.969 98.8621C177.769 98.0781 180.636 97.3731 182.975 96.6461C183.102 96.6063 183.239 96.6184 183.357 96.6798C183.474 96.7413 183.563 96.8469 183.603 96.9736C183.642 97.1002 183.63 97.2375 183.569 97.3551C183.507 97.4728 183.402 97.5613 183.275 97.6011C180.904 98.3381 178.012 99.05 174.175 99.84C161.875 102.377 165.147 109.79 157.684 115.107C150.167 120.464 140.44 115.2 128.936 115.2C127.245 115.201 125.567 115.493 123.975 116.062C115.675 118.974 111.275 125.087 100.816 124.831C88.451 124.519 86.732 118.731 73.785 117.998C60.997 117.289 60.248 125.209 47.585 129.126C34.574 133.152 34.1 123.614 28.947 119.647Z"></path><path fill="#00bac7" fill-rule="evenodd" d="M64.429 124.362L47.6 79.4102L19.47 86.4742L15.486 89.8012L34.586 144.427L139.163 168.776L163.633 144.428V139.203L64.429 124.362Z" clip-rule="evenodd"></path><path fill="#0e2238" d="M163.988 138.855C163.895 138.76 163.768 138.706 163.636 138.705C163.503 138.704 163.376 138.756 163.281 138.849L139.158 162.6L39.373 139.029L66.526 124.538C66.6431 124.475 66.7306 124.369 66.7692 124.242C66.8079 124.115 66.7945 123.978 66.732 123.861C66.6696 123.744 66.5631 123.656 66.4362 123.618C66.3092 123.579 66.1721 123.592 66.055 123.655L38.249 138.5L19.941 86.3187C19.897 86.1935 19.805 86.091 19.6854 86.0336C19.5657 85.9762 19.4282 85.9687 19.303 86.0127C19.1778 86.0567 19.0753 86.1487 19.0179 86.2683C18.9605 86.388 18.953 86.5255 18.997 86.6507L37.497 139.377C37.586 139.477 37.647 139.649 37.854 139.698L138.8 163.541L138.677 168.151L34.966 144L16.072 89.9637L17.8 88.5207C17.8504 88.4786 17.8921 88.4269 17.9225 88.3686C17.953 88.3104 17.9717 88.2467 17.9775 88.1813C17.9834 88.1158 17.9763 88.0498 17.9566 87.9871C17.937 87.9244 17.9052 87.8661 17.863 87.8157C17.8209 87.7653 17.7692 87.7237 17.7109 87.6932C17.6527 87.6627 17.589 87.6441 17.5236 87.6382C17.4581 87.6324 17.3921 87.6395 17.3294 87.6591C17.2667 87.6787 17.2084 87.7106 17.158 87.7527L15.168 89.4187C15.09 89.484 15.0337 89.5715 15.0067 89.6696C14.9798 89.7677 14.9833 89.8717 15.017 89.9677L34.117 144.594C34.1449 144.673 34.1924 144.745 34.2551 144.801C34.3179 144.857 34.3939 144.897 34.476 144.916L138.936 169.238C139.036 169.211 139.61 169.559 139.67 168.616L139.811 163.363L163.986 139.563C164.033 139.516 164.07 139.461 164.095 139.401C164.121 139.34 164.134 139.275 164.134 139.209C164.134 139.143 164.121 139.078 164.096 139.017C164.071 138.957 164.034 138.901 163.988 138.855V138.855Z"></path><path fill="#ffffff" fill-rule="evenodd" d="M152.233 119.143C152.233 119.143 143.6 67.4366 149.1 48.7906L153.722 48.3906C153.722 48.3906 157.672 86.9406 162.39 95.6556C167.108 104.371 171.512 110.156 172.875 118.72C170.341 118.72 169.226 120.65 168.094 120.778C165.247 121.1 163.236 118.335 161.429 118.338C160.054 118.338 157.113 120.651 155.457 121.638C152.886 123.161 152.233 119.143 152.233 119.143Z" clip-rule="evenodd"></path><path fill="#0e2238" d="M69.207 96.327C69.043 96.327 69.007 96.338 68.829 96.746C68.7342 97.0278 68.5797 97.2858 68.376 97.5024C68.1724 97.719 67.9244 97.8891 67.649 98.001C67.4573 98.0772 67.2523 98.1139 67.0461 98.1091C66.84 98.1043 66.6369 98.058 66.449 97.973C65.9498 97.6978 65.5669 97.2513 65.371 96.716C65.3293 96.5924 65.3376 96.4574 65.3941 96.3399C65.4505 96.2223 65.5507 96.1314 65.6732 96.0867C65.7957 96.0419 65.9309 96.0468 66.0499 96.1003C66.1688 96.1538 66.2622 96.2517 66.31 96.373C66.347 96.473 66.673 97.295 67.298 97.063C67.635 96.938 67.752 96.708 67.915 96.342C67.9909 96.0561 68.1581 95.8028 68.3911 95.6205C68.6241 95.4382 68.9102 95.3369 69.206 95.332C70.569 95.332 71.361 97.905 72.972 97.466C74.699 97.007 74.58 95.875 76.334 96.047C76.3996 96.0531 76.4635 96.0721 76.5218 96.1029C76.5801 96.1337 76.6318 96.1756 76.6739 96.2264C76.716 96.2771 76.7477 96.3357 76.7672 96.3987C76.7867 96.4617 76.7936 96.5279 76.7875 96.5935C76.7814 96.6592 76.7624 96.723 76.7316 96.7813C76.7009 96.8397 76.6589 96.8914 76.6082 96.9335C76.5574 96.9756 76.4989 97.0073 76.4359 97.0268C76.3729 97.0462 76.3066 97.0531 76.241 97.047C76.032 97.0062 75.8158 97.0217 75.6148 97.092C75.4137 97.1623 75.235 97.2848 75.097 97.447C74.5677 97.9294 73.9257 98.2712 73.23 98.441C70.991 99.019 69.837 96.327 69.207 96.327Z"></path><path fill="#0e2238" d="M170.862 93.1279C170.699 93.1279 170.662 93.1399 170.485 93.5469C170.39 93.829 170.234 94.0871 170.03 94.3036C169.825 94.52 169.576 94.6897 169.3 94.8009C169.066 94.8757 168.82 94.9015 168.575 94.8766C168.331 94.8516 168.095 94.7765 167.881 94.656C167.667 94.5355 167.481 94.372 167.333 94.176C167.185 93.98 167.08 93.7556 167.023 93.5169C166.977 93.3923 166.983 93.2548 167.039 93.1345C167.095 93.0142 167.196 92.921 167.32 92.8754C167.445 92.8297 167.583 92.8355 167.703 92.8913C167.823 92.947 167.916 93.0483 167.962 93.1729C167.998 93.2729 168.329 94.0969 168.951 93.8639C169.287 93.7389 169.404 93.5079 169.567 93.1429C169.643 92.8566 169.81 92.603 170.043 92.4203C170.276 92.2377 170.562 92.136 170.858 92.1309C172.219 92.1309 173.007 94.7019 174.624 94.2669C176.363 93.8039 176.218 92.6829 177.986 92.8479C178.051 92.8539 178.115 92.8727 178.173 92.9033C178.231 92.9339 178.283 92.9757 178.325 93.0262C178.367 93.0767 178.398 93.135 178.418 93.1978C178.437 93.2605 178.444 93.3265 178.438 93.3919C178.424 93.5235 178.36 93.6446 178.258 93.7291C178.156 93.8136 178.025 93.8548 177.893 93.8439C177.684 93.803 177.468 93.8185 177.267 93.8888C177.066 93.9591 176.887 94.0817 176.749 94.2439C176.219 94.7255 175.577 95.0671 174.882 95.2379C172.66 95.8189 171.486 93.1279 170.862 93.1279Z"></path><path fill="#0e2238" d="M132.776 108.457C130.4 108.457 129.941 106.008 127.96 105.334C126.271 104.758 123.596 106.383 122.706 107.058C122.6 107.138 122.467 107.172 122.335 107.153C122.204 107.134 122.086 107.064 122.006 106.958C121.926 106.852 121.892 106.719 121.911 106.587C121.93 106.456 122 106.338 122.106 106.258C122.254 106.146 125.761 103.523 128.287 104.384C130.736 105.219 131.009 107.784 133.213 107.416C135.578 107.025 137.496 103.474 140.795 103.981C141.353 104.019 141.885 104.235 142.312 104.596C142.739 104.957 143.04 105.446 143.17 105.99C143.477 106.804 143.698 107.39 145.441 107.448C145.573 107.452 145.699 107.509 145.79 107.605C145.88 107.702 145.929 107.831 145.925 107.963C145.919 108.095 145.861 108.219 145.765 108.31C145.669 108.4 145.541 108.45 145.409 108.448C142.999 108.37 142.575 107.248 142.234 106.342C142.165 105.967 141.97 105.627 141.682 105.377C141.394 105.128 141.029 104.984 140.648 104.969C137.63 104.533 135.865 108.455 132.776 108.457Z"></path><path fill="#0e2238" d="M128.277 98.3001C127.776 98.2823 127.287 98.1374 126.857 97.8791C126.427 97.6207 126.07 97.2573 125.819 96.8231C125.354 96.2231 125.1 95.9401 124.478 95.9831C123.039 96.0971 121.678 98.2111 119.547 97.7021C119.172 97.6385 118.827 97.46 118.558 97.1913C118.289 96.9225 118.111 96.5768 118.047 96.2021C117.907 95.7021 117.83 95.4281 116.88 95.3151C116.813 95.3101 116.747 95.2915 116.687 95.2605C116.627 95.2295 116.574 95.1866 116.531 95.1345C116.488 95.0823 116.456 95.022 116.437 94.9572C116.418 94.8924 116.412 94.8244 116.42 94.7574C116.428 94.6903 116.45 94.6255 116.483 94.567C116.517 94.5084 116.562 94.4573 116.616 94.4167C116.67 94.3761 116.732 94.3469 116.798 94.3308C116.863 94.3147 116.931 94.3121 116.998 94.3231C118.488 94.4991 118.798 95.1841 119.01 95.9311C119.134 96.3731 119.196 96.5931 119.779 96.7311C121.369 97.1071 122.647 95.1251 124.402 94.9891C126.294 94.8391 126.502 96.6771 127.678 97.1891C128.613 97.6031 130.278 96.7681 130.843 96.4141C130.955 96.3456 131.09 96.324 131.218 96.354C131.346 96.3839 131.457 96.4631 131.527 96.5743C131.597 96.6854 131.62 96.8197 131.592 96.948C131.564 97.0764 131.486 97.1885 131.376 97.2601C130.444 97.8556 129.38 98.2128 128.277 98.3001Z"></path><path fill="#0e2238" d="M174.4 117.965C173.987 118.017 173.612 118.074 173.265 118.136C171.786 109.71 167.365 103.808 162.827 95.4164C158.21 86.8894 154.255 48.7244 154.216 48.3394C154.203 48.209 154.138 48.0891 154.037 48.0055C153.936 47.9219 153.807 47.8813 153.676 47.8924L149.054 48.2924C148.954 48.3012 148.859 48.34 148.781 48.4037C148.703 48.4674 148.646 48.553 148.618 48.6494C143.144 67.1924 151.383 117.109 151.736 119.224C151.758 119.355 151.831 119.472 151.939 119.549C151.992 119.588 152.052 119.615 152.116 119.63C152.18 119.645 152.247 119.647 152.311 119.636C152.376 119.625 152.438 119.602 152.494 119.567C152.55 119.532 152.598 119.487 152.636 119.433C152.675 119.38 152.702 119.32 152.717 119.256C152.732 119.192 152.734 119.125 152.723 119.06C152.637 118.546 144.267 67.8604 149.482 49.2604L153.272 48.9324C153.767 53.6384 157.472 87.6244 161.947 95.8944C166.486 104.276 170.852 110.121 172.287 118.344C169.032 119.144 169.312 120.344 167.299 120.344C164.886 120.344 163.806 117.114 160.516 117.981C158.449 118.599 156.577 119.742 155.084 121.299C154.995 121.397 154.948 121.527 154.954 121.659C154.96 121.792 155.018 121.917 155.116 122.006C155.214 122.095 155.344 122.142 155.476 122.136C155.609 122.13 155.734 122.071 155.823 121.973C157.191 120.564 158.892 119.524 160.77 118.948C163.488 118.238 164.424 121.348 167.299 121.348C170.174 121.348 169.184 119.629 174.523 118.964C174.652 118.945 174.768 118.876 174.846 118.772C174.925 118.668 174.96 118.538 174.944 118.409C174.928 118.28 174.862 118.162 174.76 118.08C174.659 117.999 174.53 117.96 174.4 117.972V117.965Z"></path><path fill="#0e2238" d="M143.144 124.889C142.755 124.419 142.197 124.119 141.59 124.055C140.983 123.99 140.375 124.165 139.895 124.543C139.361 124.069 138.663 123.821 137.949 123.852C137.181 123.832 136.436 124.11 135.869 124.629C135.302 125.147 134.958 125.865 134.91 126.631C134.899 126.764 134.942 126.895 135.028 126.996C135.114 127.098 135.237 127.161 135.37 127.171C135.503 127.182 135.634 127.139 135.735 127.053C135.837 126.967 135.899 126.844 135.91 126.711C135.946 126.198 136.178 125.719 136.559 125.373C136.939 125.026 137.438 124.84 137.952 124.852C138.196 124.84 138.439 124.878 138.668 124.965C138.896 125.051 139.104 125.184 139.278 125.355C139.452 125.526 139.589 125.731 139.679 125.958C139.77 126.184 139.813 126.427 139.805 126.671C139.805 126.804 139.858 126.931 139.951 127.025C140.045 127.118 140.172 127.171 140.305 127.171C140.438 127.171 140.565 127.118 140.659 127.025C140.752 126.931 140.805 126.804 140.805 126.671C140.799 126.215 140.694 125.766 140.498 125.354C141.403 124.854 141.976 125.029 142.368 125.516C142.451 125.619 142.572 125.684 142.703 125.698C142.835 125.712 142.966 125.673 143.069 125.59C143.172 125.507 143.238 125.387 143.253 125.256C143.267 125.124 143.229 124.993 143.147 124.889H143.144Z"></path><path fill="#0e2238" d="M175.7 133.5C174.948 133.531 174.212 133.282 173.634 132.8C173.446 132.678 173.303 132.499 173.225 132.289C173.147 132.079 173.14 131.849 173.203 131.634C173.525 130.734 175.431 130.534 176.539 130.492C176.67 130.491 176.797 130.54 176.894 130.63C176.99 130.719 177.048 130.842 177.057 130.973C177.062 131.106 177.015 131.235 176.924 131.332C176.834 131.429 176.709 131.487 176.577 131.492C176.066 131.511 173.918 131.716 174.298 132.052C175.28 132.923 177.274 132.289 177.96 131.973C178.079 131.924 178.213 131.923 178.333 131.97C178.453 132.017 178.55 132.108 178.604 132.225C178.658 132.342 178.665 132.475 178.624 132.597C178.582 132.719 178.495 132.82 178.381 132.879C177.536 133.258 176.626 133.469 175.7 133.5Z"></path><path fill="#0e2238" d="M40.25 166.75C40.1464 166.75 40.0454 166.718 39.9609 166.658C39.8764 166.599 39.8126 166.514 39.7782 166.416C39.7438 166.319 39.7407 166.213 39.7691 166.113C39.7976 166.013 39.8562 165.925 39.937 165.86C40.6103 165.366 41.4196 165.091 42.2547 165.073C43.0898 165.055 43.9101 165.295 44.604 165.76C44.6609 165.795 44.7103 165.841 44.7493 165.895C44.7883 165.949 44.8162 166.01 44.8312 166.075C44.8462 166.14 44.8481 166.207 44.8368 166.273C44.8254 166.338 44.8011 166.401 44.7652 166.457C44.7292 166.513 44.6825 166.561 44.6276 166.599C44.5727 166.637 44.5109 166.663 44.4457 166.677C44.3804 166.691 44.3131 166.691 44.2478 166.678C44.1824 166.665 44.1203 166.64 44.065 166.602C43.5477 166.247 42.9334 166.06 42.306 166.067C41.6785 166.074 41.0684 166.274 40.559 166.64C40.4711 166.71 40.3623 166.749 40.25 166.75Z"></path><path fill="#0e2238" d="M62.583 162.662C62.4811 162.662 62.3816 162.631 62.2979 162.573C62.2142 162.515 62.1503 162.432 62.1148 162.337C62.0792 162.241 62.0736 162.137 62.0989 162.039C62.1241 161.94 62.179 161.851 62.256 161.784C62.755 161.388 63.3656 161.157 64.0022 161.125C64.6387 161.093 65.2695 161.26 65.806 161.604C65.919 161.674 65.9997 161.786 66.0304 161.915C66.061 162.044 66.0391 162.18 65.9695 162.293C65.8999 162.406 65.7883 162.487 65.6591 162.517C65.53 162.548 65.394 162.526 65.281 162.456C64.9246 162.223 64.5043 162.106 64.0783 162.122C63.6524 162.138 63.242 162.286 62.904 162.545C62.8141 162.621 62.7004 162.662 62.583 162.662V162.662Z"></path><path fill="#0e2238" d="M166.817 162.655C166.737 162.654 166.658 162.635 166.586 162.598C166.515 162.561 166.454 162.507 166.408 162.441C166.362 162.375 166.333 162.299 166.322 162.22C166.312 162.14 166.321 162.059 166.348 161.984C166.378 161.898 167.13 159.884 168.836 159.53C169.994 159.282 171.241 159.875 172.548 161.264C172.639 161.36 172.688 161.489 172.684 161.621C172.68 161.754 172.624 161.88 172.527 161.971C172.43 162.062 172.302 162.11 172.169 162.107C172.037 162.103 171.911 162.046 171.82 161.95C170.768 160.831 169.83 160.343 169.042 160.508C167.883 160.744 167.292 162.308 167.287 162.327C167.252 162.423 167.188 162.506 167.104 162.565C167.02 162.623 166.92 162.655 166.817 162.655V162.655Z"></path><path fill="#0e2238" d="M17.2 113.544C17.0959 113.544 16.9944 113.511 16.9096 113.451C16.8248 113.39 16.7609 113.305 16.727 113.207C16.659 113.007 14.989 108.37 9.983 109.161C9.25086 109.351 8.48392 109.364 7.74583 109.198C7.00773 109.033 6.31976 108.693 5.739 108.209C5.28275 107.689 4.94088 107.078 4.73553 106.418C4.53019 105.757 4.46595 105.061 4.547 104.374C4.56668 104.245 4.63575 104.129 4.73953 104.051C4.84331 103.972 4.97362 103.937 5.10278 103.953C5.23194 103.969 5.34976 104.035 5.43122 104.136C5.51268 104.238 5.55134 104.367 5.539 104.497C5.47948 105.032 5.52852 105.573 5.68316 106.088C5.83781 106.604 6.09488 107.083 6.439 107.497C6.91177 107.867 7.46474 108.121 8.05349 108.238C8.64224 108.356 9.25036 108.334 9.829 108.174C15.682 107.246 17.655 112.828 17.674 112.884C17.6994 112.959 17.7065 113.039 17.6948 113.118C17.683 113.196 17.6527 113.271 17.6064 113.335C17.5601 113.4 17.4991 113.452 17.4284 113.489C17.3577 113.525 17.2794 113.544 17.2 113.544Z"></path><path fill="#0e2238" d="M52.221 168.092C52.1196 168.092 52.0205 168.062 51.937 168.004C51.8534 167.947 51.7892 167.866 51.753 167.771C51.7168 167.676 51.7102 167.573 51.7341 167.474C51.758 167.376 51.8114 167.287 51.887 167.219C52.2394 166.93 52.6751 166.76 53.1305 166.736C53.586 166.711 54.0374 166.832 54.419 167.082C54.4774 167.115 54.5284 167.16 54.5692 167.213C54.61 167.267 54.6396 167.328 54.6562 167.393C54.6729 167.458 54.6763 167.525 54.6662 167.592C54.6562 167.658 54.6328 167.722 54.5976 167.779C54.5624 167.836 54.5161 167.886 54.4614 167.925C54.4066 167.963 54.3446 167.991 54.279 168.005C54.2135 168.02 54.1457 168.021 54.0797 168.008C54.0137 167.996 53.9509 167.97 53.895 167.933C53.6973 167.795 53.4605 167.723 53.2192 167.729C52.978 167.735 52.7449 167.818 52.554 167.965C52.4624 168.047 52.3438 168.092 52.221 168.092V168.092Z"></path><path fill="#0e2238" d="M150.415 173.279C150.304 173.279 150.196 173.243 150.108 173.174C150.02 173.106 149.957 173.011 149.93 172.903C149.902 172.795 149.912 172.682 149.956 172.58C150 172.478 150.077 172.394 150.175 172.34C150.294 172.275 153.121 170.755 154.965 171.88C155.078 171.949 155.159 172.061 155.191 172.19C155.222 172.318 155.201 172.455 155.131 172.568C155.062 172.681 154.951 172.762 154.822 172.793C154.693 172.825 154.557 172.803 154.444 172.734C153.322 172.048 151.328 172.851 150.654 173.218C150.581 173.258 150.498 173.279 150.415 173.279V173.279Z"></path><path fill="#ffffff" fill-rule="evenodd" d="M32.968 87.752C32.968 87.752 25.328 93.242 19.462 91.752C19.462 91.752 21.108 96.512 22.544 98.225C22.544 98.224 33.121 98.47 32.968 87.752Z" clip-rule="evenodd"></path><path fill="#ffffff" fill-rule="evenodd" d="M33.162 94.6562C33.162 94.6562 28.499 100.646 21.794 102.889C21.794 102.889 21.941 108.104 26.749 109.206C26.749 109.206 33.312 101.595 34.782 96.2673L33.162 94.6562Z" clip-rule="evenodd"></path><path fill="#0e2238" d="M22.622 98.7251C22.5363 98.7349 22.4495 98.7236 22.3692 98.6922C22.2888 98.6608 22.2174 98.6103 22.161 98.5451C20.683 96.7821 19.061 92.1131 18.99 91.9151C18.9601 91.8294 18.9541 91.7372 18.9726 91.6483C18.9912 91.5595 19.0336 91.4774 19.0952 91.4108C19.1569 91.3442 19.2355 91.2956 19.3227 91.2703C19.4098 91.245 19.5022 91.2439 19.59 91.2671C25.163 92.6831 32.6 87.4001 32.676 87.3461C32.7503 87.2926 32.8378 87.2606 32.929 87.2535C33.0203 87.2463 33.1117 87.2644 33.1934 87.3056C33.2751 87.3469 33.3439 87.4098 33.3923 87.4875C33.4407 87.5651 33.4669 87.6546 33.468 87.7461C33.5677 89.1832 33.3683 90.6254 32.8824 91.9815C32.3965 93.3377 31.6346 94.5783 30.645 95.6251C28.4403 97.6057 25.5856 98.7087 22.622 98.7251V98.7251ZM20.235 92.4131C20.8805 94.2733 21.7353 96.054 22.783 97.7211C25.4284 97.6613 27.9668 96.6653 29.947 94.9101C31.542 93.2352 32.4363 91.0139 32.447 88.7011C30.425 90.0001 24.994 93.1001 20.235 92.4131Z"></path><path fill="#def6f8" fill-rule="evenodd" d="M56.718 75.473C56.718 75.473 55.333 65.233 45.137 67.494C36.45 69.42 35.337 74.894 35.837 77.917C36.337 80.94 36.837 80.9 36.837 80.9C36.837 80.9 25.286 84.261 24.88 88.77C24.653 91.3 37.949 91.038 48.737 87.184C59.525 83.33 67.973 80.165 67.325 77.769C66.424 74.439 56.718 75.473 56.718 75.473Z" clip-rule="evenodd"></path><path fill="#0e2238" d="M28.563 90.7813C26.38 90.7813 24.877 90.4143 24.563 89.4973C24.4328 89.1039 24.3845 88.688 24.4211 88.2752C24.4578 87.8625 24.5785 87.4616 24.776 87.0973C26.639 83.3563 35.296 80.4243 35.805 80.2553C35.759 79.6944 35.6671 79.1382 35.53 78.5923C34.984 76.1643 34.73 70.1973 44.118 67.2303C48.866 65.7303 53.043 66.8143 55.293 70.1303C56.2876 71.5307 56.9406 73.1444 57.2 74.8423C59.6 74.7423 66.828 74.6203 67.764 76.9423C67.8579 77.18 67.8995 77.4352 67.8858 77.6904C67.8722 77.9456 67.8037 78.1949 67.685 78.4213C66.644 80.6103 61.221 83.1923 51.107 86.3153C45.389 88.0853 34.479 90.7803 28.563 90.7813ZM35.925 81.2813C32.663 82.4213 24.403 85.9043 25.514 89.1813C26.056 90.7763 38.076 89.3013 50.814 85.3683C62.89 81.6383 66.164 79.3023 66.785 78.0003C67.885 75.6873 59.361 75.7253 56.77 75.8703C56.702 75.8741 56.634 75.864 56.57 75.8406C56.5061 75.8172 56.4476 75.7809 56.3982 75.7341C56.3488 75.6873 56.3094 75.6309 56.2825 75.5683C56.2557 75.5058 56.2419 75.4384 56.242 75.3703C56.087 73.6807 55.474 72.0653 54.469 70.6983C52.481 67.7703 48.726 66.8343 44.422 68.1913C36.132 70.8113 35.906 75.7003 36.509 78.3813C36.985 80.5003 36.847 81.0243 36.425 81.2493C36.3483 81.2888 36.2641 81.3118 36.178 81.3166C36.0918 81.3214 36.0056 81.308 35.925 81.2773V81.2813Z"></path><path fill="#ffffff" fill-rule="evenodd" d="M51.138 95.5009C51.138 95.5009 51.556 93.0159 54.72 94.9649C57.503 96.6789 61.571 98.4949 64.197 100.265C66.352 101.715 69.997 108.672 72.606 111.765C75.6497 109.721 78.9011 108.005 82.306 106.645C83.067 106.389 87.496 105.636 88.05 106.232C89.412 107.692 86.934 111.999 85.626 114.495C84.526 116.602 79.914 117.388 79.502 117.589C78.402 118.124 70.002 121.02 70.002 121.02C70.002 121.02 51.712 97.3389 51.138 95.5009Z" clip-rule="evenodd"></path><path fill="#def6f8" fill-rule="evenodd" d="M43.21 105.288C42.779 105.506 44.785 118.729 48.143 127.497C50.923 130.119 55.491 134.09 56.92 135.083C56.92 135.083 65.32 129.035 73.003 123.7C74.056 123.891 68.561 117.524 63.159 110.637C63.159 110.637 64.859 106.831 62.541 104.242C60.223 101.653 50.559 93.5352 50.559 93.5352L39.9 94.9622L43.21 105.288Z" clip-rule="evenodd"></path><path fill="#00bac7" d="M49.321 101.608C49.2187 101.525 49.0879 101.486 48.9568 101.499C48.8257 101.511 48.705 101.576 48.621 101.677L46.745 103.963C46.7033 104.014 46.672 104.072 46.6529 104.135C46.6338 104.198 46.6273 104.264 46.6337 104.329C46.6401 104.395 46.6593 104.458 46.6902 104.516C46.7212 104.574 46.7632 104.625 46.814 104.667C46.8647 104.709 46.9232 104.74 46.9861 104.759C47.0489 104.778 47.1149 104.785 47.1803 104.778C47.2456 104.772 47.3091 104.753 47.3671 104.722C47.425 104.691 47.4763 104.649 47.518 104.598L49.395 102.312C49.4364 102.261 49.4674 102.202 49.4861 102.139C49.5048 102.076 49.5109 102.01 49.504 101.945C49.4971 101.879 49.4774 101.816 49.446 101.758C49.4146 101.7 49.3721 101.649 49.321 101.608V101.608Z"></path><path fill="#00bac7" d="M52.082 126.454C52.0456 126.398 51.9984 126.35 51.9432 126.313C51.8879 126.275 51.8257 126.249 51.7603 126.236C51.6948 126.223 51.6274 126.223 51.562 126.237C51.4966 126.25 51.4346 126.277 51.3796 126.314C51.3245 126.352 51.2777 126.401 51.2416 126.457C51.2056 126.513 51.1812 126.576 51.1699 126.642C51.1586 126.707 51.1605 126.775 51.1757 126.84C51.1908 126.905 51.2188 126.966 51.258 127.02L52.933 129.456C52.9693 129.512 53.0165 129.56 53.0718 129.598C53.127 129.635 53.1892 129.661 53.2547 129.674C53.3202 129.687 53.3876 129.687 53.453 129.674C53.5183 129.66 53.5804 129.634 53.6354 129.596C53.6904 129.558 53.7373 129.51 53.7733 129.454C53.8093 129.397 53.8337 129.335 53.845 129.269C53.8564 129.203 53.8544 129.136 53.8393 129.071C53.8242 129.006 53.7962 128.944 53.757 128.89L52.082 126.454Z"></path><path fill="#00bac7" d="M51.67 114.599C51.7887 114.599 51.9036 114.557 51.9942 114.48C52.0847 114.404 52.145 114.297 52.1643 114.18C52.1835 114.063 52.1604 113.943 52.0992 113.841C52.038 113.739 51.9425 113.663 51.83 113.625L49.03 112.677C48.9049 112.636 48.7688 112.646 48.6512 112.705C48.5336 112.764 48.444 112.867 48.4018 112.992C48.3595 113.116 48.3681 113.253 48.4256 113.371C48.4831 113.489 48.5849 113.58 48.709 113.624C49.6708 114.021 50.6604 114.347 51.67 114.599V114.599Z"></path><path fill="#00bac7" d="M55.164 99.8008H58.121C58.2536 99.8008 58.3808 99.7481 58.4746 99.6543C58.5683 99.5606 58.621 99.4334 58.621 99.3008C58.621 99.1682 58.5683 99.041 58.4746 98.9472C58.3808 98.8535 58.2536 98.8008 58.121 98.8008H55.164C55.0314 98.8008 54.9042 98.8535 54.8104 98.9472C54.7167 99.041 54.664 99.1682 54.664 99.3008C54.664 99.4334 54.7167 99.5606 54.8104 99.6543C54.9042 99.7481 55.0314 99.8008 55.164 99.8008Z"></path><path fill="#00bac7" d="M45.569 97.1558C45.4378 97.1363 45.3043 97.1698 45.1978 97.2487C45.0913 97.3277 45.0205 97.4457 45.001 97.5768L44.568 100.502C44.5583 100.567 44.5616 100.633 44.5775 100.697C44.5935 100.761 44.6219 100.821 44.661 100.873C44.7001 100.926 44.7493 100.971 44.8057 101.005C44.862 101.038 44.9245 101.061 44.9895 101.07C45.0545 101.08 45.1208 101.077 45.1845 101.061C45.2483 101.045 45.3082 101.016 45.361 100.977C45.4138 100.938 45.4584 100.889 45.4922 100.833C45.526 100.776 45.5483 100.714 45.558 100.649L45.991 97.7228C46.0102 97.5917 45.9765 97.4583 45.8973 97.352C45.8182 97.2456 45.7001 97.1751 45.569 97.1558Z"></path><path fill="#00bac7" d="M55.086 107.799L52.165 108.258C52.1 108.268 52.0377 108.291 51.9816 108.325C51.9255 108.36 51.8767 108.405 51.838 108.458C51.7993 108.511 51.7714 108.571 51.756 108.635C51.7405 108.699 51.7378 108.765 51.748 108.83C51.7582 108.895 51.781 108.957 51.8153 109.013C51.8495 109.07 51.8945 109.118 51.9476 109.157C52.0007 109.196 52.061 109.224 52.1248 109.239C52.1887 109.255 52.255 109.257 52.32 109.247L55.242 108.788C55.3069 108.778 55.3692 108.755 55.4253 108.721C55.4814 108.686 55.5301 108.641 55.5688 108.588C55.6075 108.535 55.6353 108.475 55.6507 108.411C55.6661 108.347 55.6687 108.281 55.6585 108.216C55.6482 108.151 55.6253 108.088 55.591 108.032C55.5567 107.976 55.5117 107.927 55.4585 107.889C55.4053 107.85 55.3451 107.822 55.2812 107.807C55.2172 107.791 55.1509 107.789 55.086 107.799V107.799Z"></path><path fill="#00bac7" d="M65.831 128.365L63.65 126.365C63.602 126.318 63.5451 126.281 63.4826 126.257C63.4202 126.232 63.3534 126.221 63.2864 126.223C63.2194 126.225 63.1535 126.24 63.0925 126.268C63.0316 126.296 62.9769 126.336 62.9316 126.385C62.8864 126.435 62.8516 126.493 62.8293 126.556C62.807 126.62 62.7977 126.687 62.8018 126.753C62.8059 126.82 62.8235 126.886 62.8534 126.946C62.8833 127.006 62.925 127.059 62.976 127.103L65.157 129.103C65.205 129.15 65.2619 129.186 65.3243 129.211C65.3868 129.235 65.4535 129.247 65.5205 129.245C65.5876 129.243 65.6535 129.227 65.7144 129.199C65.7754 129.171 65.8301 129.132 65.8753 129.082C65.9205 129.032 65.9553 128.974 65.9776 128.911C65.9999 128.848 66.0093 128.781 66.0052 128.714C66.001 128.647 65.9835 128.582 65.9535 128.522C65.9236 128.462 65.8819 128.408 65.831 128.365V128.365Z"></path><path fill="#00bac7" d="M64.942 114.826C65.0746 114.831 65.2041 114.784 65.3019 114.694C65.3997 114.605 65.4578 114.48 65.4635 114.347C65.4692 114.214 65.422 114.085 65.3323 113.987C65.2425 113.889 65.1176 113.831 64.985 113.826L62.4 113.601C62.2687 113.593 62.1394 113.635 62.0385 113.72C61.9377 113.804 61.8731 113.924 61.858 114.055C61.8522 114.12 61.8594 114.186 61.8792 114.249C61.8989 114.311 61.9309 114.37 61.9731 114.42C62.0154 114.47 62.0672 114.512 62.1255 114.542C62.1838 114.572 62.2475 114.591 62.313 114.597C62.313 114.597 64.928 114.826 64.942 114.826Z"></path><path fill="#00bac7" d="M63.311 107.216C63.4021 107.216 63.4914 107.191 63.5693 107.144C63.6473 107.097 63.7109 107.03 63.7533 106.949C63.7957 106.868 63.8153 106.778 63.8099 106.687C63.8046 106.596 63.7745 106.508 63.723 106.433L62.047 103.999C62.0106 103.943 61.9634 103.895 61.9082 103.858C61.8529 103.82 61.7907 103.794 61.7253 103.781C61.6598 103.768 61.5924 103.768 61.527 103.782C61.4616 103.795 61.3996 103.822 61.3446 103.859C61.2896 103.897 61.2427 103.946 61.2067 104.002C61.1707 104.058 61.1463 104.121 61.1349 104.187C61.1236 104.252 61.1256 104.32 61.1407 104.385C61.1558 104.45 61.1838 104.511 61.223 104.565L62.9 106.999C62.9458 107.066 63.0072 107.12 63.0788 107.158C63.1503 107.196 63.23 107.216 63.311 107.216Z"></path><path fill="#00bac7" d="M59.621 109.969L57.745 112.254C57.7011 112.304 57.6678 112.363 57.6469 112.426C57.6261 112.49 57.6182 112.557 57.6238 112.624C57.6293 112.69 57.6482 112.755 57.6792 112.814C57.7102 112.873 57.7528 112.926 57.8044 112.968C57.8561 113.011 57.9157 113.042 57.9798 113.061C58.0438 113.08 58.1111 113.086 58.1775 113.079C58.244 113.072 58.3082 113.051 58.3665 113.018C58.4248 112.986 58.476 112.942 58.517 112.889L60.393 110.604C60.4369 110.553 60.4702 110.495 60.4911 110.431C60.5119 110.368 60.5198 110.301 60.5142 110.234C60.5087 110.167 60.4898 110.102 60.4588 110.043C60.4278 109.984 60.3852 109.932 60.3336 109.889C60.2819 109.847 60.2223 109.815 60.1582 109.796C60.0942 109.777 60.0269 109.771 59.9605 109.778C59.8941 109.786 59.8298 109.807 59.7715 109.839C59.7132 109.872 59.662 109.916 59.621 109.969Z"></path><path fill="#00bac7" d="M57.745 128.857L55.868 131.142C55.8263 131.193 55.795 131.252 55.7759 131.315C55.7568 131.377 55.7503 131.443 55.7567 131.509C55.7631 131.574 55.7823 131.638 55.8132 131.696C55.8442 131.753 55.8862 131.805 55.937 131.846C55.9877 131.888 56.0462 131.919 56.109 131.939C56.1719 131.958 56.2379 131.964 56.3033 131.958C56.3686 131.951 56.4321 131.932 56.49 131.901C56.548 131.87 56.5993 131.828 56.641 131.777L58.517 129.492C58.5609 129.442 58.5942 129.383 58.615 129.32C58.6358 129.256 58.6437 129.189 58.6382 129.123C58.6326 129.056 58.6138 128.991 58.5828 128.932C58.5517 128.873 58.5091 128.82 58.4575 128.778C58.4059 128.735 58.3463 128.704 58.2822 128.685C58.2181 128.666 58.1509 128.66 58.0844 128.667C58.018 128.675 57.9537 128.695 57.8954 128.728C57.8371 128.761 57.786 128.805 57.745 128.857V128.857Z"></path><path fill="#0e2238" fill-rule="evenodd" d="M56.605 80.5C56.605 80.5 59.148 80.514 59.405 81.877C59.662 83.24 58.774 83.408 58.774 83.408C58.774 83.408 62.35 83.2 61.8 84.758C61.6128 85.1988 61.2737 85.5578 60.8443 85.7697C60.4149 85.9817 59.9237 86.0325 59.46 85.913C59.9059 86.2168 60.2775 86.6175 60.5469 87.085C60.8164 87.5525 60.9767 88.0748 61.016 88.613C60.999 90.274 58.458 89.187 58.458 89.187C58.458 89.187 61.097 91.187 59.713 92.379C58.329 93.571 56.905 91.722 56.905 91.722C56.905 91.722 57.705 94.61 56.185 95.008C55.7606 95.1292 55.3115 95.1347 54.8842 95.0239C54.457 94.9132 54.0671 94.6902 53.755 94.378C53.755 94.378 54.336 95.219 52.78 95.738C51.224 96.257 50.38 93.992 50.38 93.992C50.38 93.992 47.911 95.733 47.849 93.417C47.787 91.101 56.605 80.5 56.605 80.5Z" clip-rule="evenodd"></path><path fill="#0e2238" d="M52.379 96.237C51.179 96.237 50.384 94.915 50.086 93.762C50.0527 93.6336 50.0718 93.4973 50.139 93.383C50.2063 93.2687 50.3162 93.1858 50.4445 93.1525C50.5729 93.1192 50.7092 93.1383 50.8235 93.2055C50.9378 93.2728 51.0207 93.3826 51.054 93.511C51.2014 94.1554 51.557 94.7332 52.066 95.155C52.1513 95.2018 52.2458 95.2295 52.3428 95.236C52.4399 95.2426 52.5372 95.2279 52.628 95.193C53.302 94.968 53.445 94.728 53.473 94.66C53.4173 94.5399 53.4069 94.4038 53.4437 94.2766C53.4804 94.1495 53.5619 94.0399 53.673 93.968C53.7795 93.8976 53.9085 93.8698 54.0345 93.8902C54.1605 93.9105 54.2742 93.9776 54.353 94.078C54.5611 94.3144 54.835 94.4833 55.1396 94.5631C55.4442 94.6429 55.7658 94.63 56.063 94.526C56.855 94.318 56.636 92.605 56.428 91.857C56.3965 91.7451 56.4049 91.6257 56.4518 91.5194C56.4987 91.413 56.5813 91.3263 56.6852 91.2742C56.7892 91.2222 56.908 91.2079 57.0213 91.234C57.1346 91.26 57.2353 91.3247 57.306 91.417C57.6337 91.8479 58.1005 92.1522 58.627 92.278C58.7667 92.289 58.9071 92.2699 59.0387 92.2219C59.1704 92.174 59.2902 92.0983 59.39 92C59.4635 91.9471 59.5228 91.8769 59.5625 91.7956C59.6023 91.7143 59.6214 91.6245 59.618 91.534C59.595 90.826 58.531 89.866 58.16 89.584C58.0622 89.5104 57.9949 89.4034 57.9707 89.2834C57.9465 89.1634 57.9672 89.0386 58.0288 88.9329C58.0905 88.8271 58.1888 88.7476 58.3051 88.7095C58.4214 88.6714 58.5477 88.6772 58.66 88.726C59.167 88.942 60.072 89.164 60.395 88.952C60.718 88.74 60.511 87.272 59.189 86.328C59.091 86.2636 59.0188 86.1667 58.985 86.0544C58.9511 85.9421 58.9579 85.8215 59.004 85.7136C59.0501 85.6058 59.1327 85.5176 59.2372 85.4645C59.3418 85.4113 59.4617 85.3967 59.576 85.423C59.9202 85.5204 60.2881 85.4897 60.6114 85.3365C60.9347 85.1833 61.1914 84.9181 61.334 84.59C61.39 84.431 61.351 84.38 61.334 84.353C61.052 83.979 59.689 83.853 58.811 83.901C58.6835 83.9111 58.5571 83.8707 58.4589 83.7886C58.3608 83.7066 58.2987 83.5893 58.286 83.462C58.2708 83.3366 58.3035 83.2101 58.3777 83.1079C58.4519 83.0057 58.5621 82.9353 58.686 82.911C58.737 82.896 59.069 82.762 58.917 81.964C58.768 81.188 57.155 81 56.6 81C56.4674 80.9993 56.3405 80.946 56.2472 80.8518C56.1539 80.7576 56.1019 80.6301 56.1025 80.4975C56.1032 80.3649 56.1565 80.238 56.2507 80.1447C56.345 80.0514 56.4724 79.9993 56.605 80C56.905 80 59.569 80.065 59.897 81.782C59.9806 82.1574 59.9727 82.5473 59.874 82.919C60.7045 82.8958 61.5115 83.1959 62.125 83.756C62.2483 83.9216 62.3268 84.1162 62.3529 84.321C62.379 84.5257 62.3518 84.7338 62.274 84.925C62.157 85.2859 61.9479 85.61 61.6673 85.8654C61.3867 86.1207 61.0443 86.2984 60.674 86.381C61.847 87.833 61.959 90.018 60.004 90.041C60.898 91.241 60.715 92.175 60.037 92.761C59.7111 93.0573 59.2972 93.2389 58.8585 93.278C58.4198 93.3172 57.9803 93.2118 57.607 92.978C57.666 94.1 57.386 95.216 56.307 95.496C55.9686 95.598 55.6134 95.6318 55.2619 95.5956C54.9104 95.5594 54.5695 95.4538 54.259 95.285C54.0262 95.5625 53.7396 95.7899 53.4165 95.9535C53.0934 96.1172 52.7405 96.2136 52.379 96.237V96.237Z"></path><path fill="#0e2238" d="M56.533 140.864C53.0925 137.679 50.503 133.684 49 129.243C48.9791 129.179 48.9714 129.111 48.9772 129.044C48.9831 128.977 49.0023 128.912 49.0339 128.853C49.0655 128.793 49.1087 128.741 49.161 128.699C49.2133 128.657 49.2736 128.625 49.3382 128.607C49.4029 128.588 49.4706 128.583 49.5373 128.592C49.6041 128.6 49.6684 128.622 49.7265 128.655C49.7847 128.689 49.8354 128.734 49.8757 128.788C49.916 128.842 49.945 128.903 49.961 128.969C51.3508 133.056 53.6945 136.754 56.798 139.756C58.528 137.549 66.466 127.711 73.186 124.144C71.935 122.27 67.1 115.165 62.81 111.001C62.7414 110.934 62.6934 110.849 62.6716 110.756C62.6498 110.663 62.6552 110.566 62.687 110.476C62.701 110.438 64.011 106.604 61.922 104.276C59.1262 101.176 55.9671 98.4252 52.513 96.0817C52.4008 96.0107 52.3214 95.8981 52.2922 95.7686C52.2631 95.6391 52.2865 95.5034 52.3575 95.3912C52.4284 95.279 52.541 95.1996 52.6705 95.1704C52.8 95.1413 52.9358 95.1647 53.048 95.2357C56.5859 97.6208 59.8166 100.433 62.667 103.608C64.799 105.989 64.03 109.451 63.727 110.508C68.704 115.434 74.271 123.989 74.327 124.077C74.3654 124.136 74.3908 124.203 74.4016 124.273C74.4123 124.343 74.408 124.414 74.3891 124.482C74.3702 124.55 74.3371 124.614 74.2919 124.668C74.2467 124.722 74.1905 124.767 74.127 124.798C66.819 128.358 57.354 140.679 57.259 140.798C57.2169 140.852 57.1643 140.896 57.1043 140.929C57.0443 140.962 56.9783 140.982 56.9103 140.988C56.8422 140.994 56.7737 140.986 56.7088 140.965C56.6439 140.943 56.5841 140.909 56.533 140.864V140.864Z"></path><path fill="#ffffff" fill-rule="evenodd" d="M91.508 112.7C81.5665 117.528 72.2087 123.476 63.616 130.427C55.591 136.861 53.711 137.089 53.711 137.089C53.711 137.089 60.966 148.949 73.511 142.206C74.154 141.861 75.594 141.449 76.311 141.006C79.4266 140.18 82.3884 138.856 85.082 137.086C87.576 135.4 93.626 131.298 97.819 125.223C99.299 127.4 102.559 131.579 105.312 133.176C110.312 136.076 117.293 138.917 119.112 141.876C120.931 144.835 118.054 148.567 121.199 149.476C124.344 150.385 124.376 148.515 129.388 149.676C132.126 150.311 132.899 151.27 134.953 150.533C134.953 150.533 136.606 153.171 138.358 151.252C138.514 151.317 138.681 151.351 138.85 151.352C139.019 151.353 139.186 151.32 139.342 151.256C139.499 151.192 139.641 151.098 139.761 150.979C139.881 150.86 139.976 150.719 140.041 150.563C140.352 150.589 140.664 150.514 140.929 150.349C141.194 150.184 141.399 149.938 141.513 149.647C141.706 149.672 141.902 149.655 142.087 149.596C142.272 149.536 142.442 149.437 142.584 149.305C142.727 149.173 142.838 149.011 142.911 148.831C142.984 148.651 143.016 148.457 143.005 148.263C143.405 148.252 143.682 148.447 144.168 147.989C144.562 147.613 144.825 147.12 144.915 146.583C145.005 146.046 144.918 145.494 144.668 145.011C144.509 144.585 144.257 144.199 143.932 143.88C143.606 143.562 143.215 143.32 142.785 143.17C141.07 142.383 140.238 142.17 134.69 139.462C129.142 136.754 126.442 134.713 123.495 130.214C119.279 123.777 109.432 109.996 105.266 106.514C102.867 104.515 99.729 107.328 91.508 112.7Z" clip-rule="evenodd"></path><path fill="#ffffff" fill-rule="evenodd" d="M40.509 96.4375C39.4565 97.4582 38.5647 98.6326 37.864 99.9205C35.964 103.127 34.491 105.867 35.798 109.196C38.398 115.826 38.607 127.581 44.724 128.359C49.485 128.965 69.777 119.159 73.78 116.547C77.783 113.935 78.373 115.213 79.133 114.134C79.893 113.055 75.196 113.069 75.196 113.069C75.196 113.069 75.74 112.119 79.35 111.94C82.96 111.761 82.462 112.168 81.912 111.262C81.362 110.356 78.006 109.362 75.912 110.111C76.9586 109.509 78.1418 109.185 79.349 109.17C81.772 108.979 84.325 109.624 84.125 108.17C83.884 106.412 79.373 105.643 75.912 106.589C75.912 106.589 77.952 106.375 81.147 106.303C84.342 106.231 83.225 105.09 81.911 104.485C80.9008 103.957 79.7662 103.713 78.6282 103.779C77.4902 103.845 76.3914 104.218 75.449 104.86C72.639 106.805 70.496 112.235 68.066 114.104C65.942 115.737 53.419 116.591 48.139 119.017L44.348 108.17C44.348 108.17 44.51 102.989 40.509 96.4375Z" clip-rule="evenodd"></path><path fill="#ffffff" fill-rule="evenodd" d="M42.536 88.4681L43.227 94.9681C44.493 97.5931 47.702 101.382 51.492 101.068C55.282 100.754 49.904 95.4681 49.904 95.4681L50.545 93.5351C54.722 94.2161 57.558 88.4131 58.194 85.7891C58.529 84.4051 58.194 83.7761 57.51 82.0651C56.9 80.5381 57.819 79.4111 57.287 77.0651C56.8525 75.6713 56.2551 74.3337 55.507 73.0801C52.8842 73.0807 50.2785 73.5017 47.789 74.3271C33.8 79.4391 37.717 85.0151 37.477 84.4001C39.373 87.9071 42.235 87.8651 42.536 88.4681Z" clip-rule="evenodd"></path><path fill="#0e2238" d="M53.082 86.6799C52.824 86.6309 52.468 86.5659 52.391 86.6389C52.3441 86.6877 52.2878 86.7265 52.2254 86.7529C52.1631 86.7793 52.0961 86.7928 52.0284 86.7925C51.9607 86.7922 51.8937 86.7782 51.8316 86.7513C51.7695 86.7243 51.7135 86.6851 51.667 86.6359C51.6205 86.5867 51.5845 86.5286 51.5612 86.465C51.5378 86.4015 51.5276 86.3339 51.5311 86.2663C51.5347 86.1987 51.5519 86.1325 51.5818 86.0718C51.6117 86.011 51.6536 85.957 51.705 85.9129C52.505 85.1539 53.723 86.1029 54.466 85.6619C54.84 85.4399 54.359 84.4079 54.126 84.0409C54.0907 83.9855 54.0666 83.9237 54.0552 83.859C54.0437 83.7942 54.0452 83.7279 54.0594 83.6637C54.0736 83.5996 54.1003 83.5388 54.138 83.485C54.1757 83.4311 54.2236 83.3853 54.279 83.3499C54.3344 83.3146 54.3962 83.2905 54.461 83.2791C54.5257 83.2677 54.592 83.2691 54.6562 83.2833C54.7203 83.2975 54.7811 83.3242 54.8349 83.3619C54.8888 83.3996 54.9347 83.4475 54.97 83.5029C55.596 84.4919 55.993 85.9219 54.97 86.5229C54.3838 86.8145 53.7083 86.8706 53.082 86.6799V86.6799Z"></path><path fill="#0e2238" d="M52.948 89.4713C52.1162 89.4321 51.3047 89.2011 50.577 88.7963C50.52 88.7634 50.4701 88.7197 50.43 88.6676C50.3899 88.6154 50.3605 88.5559 50.3434 88.4924C50.3263 88.4288 50.3219 88.3626 50.3304 88.2974C50.3389 88.2322 50.3602 88.1693 50.393 88.1123C50.4593 87.9972 50.5686 87.9131 50.6969 87.8786C50.7604 87.8615 50.8267 87.8571 50.8919 87.8656C50.9571 87.8741 51.02 87.8954 51.077 87.9283C51.8041 88.3681 52.6656 88.5308 53.503 88.3863C53.6865 88.3156 53.8517 88.2045 53.9862 88.0611C54.1208 87.9178 54.2212 87.7459 54.28 87.5583C54.3308 87.4388 54.4261 87.3438 54.5456 87.2933C54.6652 87.2428 54.7997 87.2408 54.9208 87.2877C55.0418 87.3345 55.1399 87.4267 55.1942 87.5445C55.2486 87.6624 55.255 87.7968 55.212 87.9193C55.0547 88.3889 54.7486 88.7945 54.34 89.0745C53.9315 89.3546 53.4428 89.4939 52.948 89.4713V89.4713Z"></path><path fill="#0e2238" d="M47.836 80.3627C47.7377 80.3625 47.6417 80.3334 47.5599 80.2789C47.4781 80.2245 47.4142 80.1471 47.3761 80.0566C47.338 79.966 47.3275 79.8662 47.3458 79.7697C47.3641 79.6731 47.4104 79.5841 47.479 79.5137C48.0064 79.0892 48.6256 78.7934 49.2873 78.6498C49.949 78.5063 50.635 78.5189 51.291 78.6867C51.3557 78.6978 51.4177 78.7215 51.4733 78.7564C51.5289 78.7914 51.577 78.837 51.615 78.8905C51.653 78.9441 51.68 79.0047 51.6946 79.0687C51.7092 79.1327 51.711 79.199 51.7 79.2637C51.689 79.3285 51.6653 79.3904 51.6303 79.446C51.5954 79.5016 51.5498 79.5498 51.4962 79.5877C51.4426 79.6257 51.3821 79.6528 51.318 79.6674C51.254 79.682 51.1877 79.6838 51.123 79.6727C50.6239 79.5354 50.1002 79.5134 49.5913 79.6083C49.0825 79.7032 48.6019 79.9127 48.186 80.2207C48.0924 80.312 47.9667 80.363 47.836 80.3627Z"></path><path fill="#0e2238" d="M54.915 78.4192C55.908 78.0802 57.647 77.6552 57.945 78.6592C57.9788 78.7771 57.9682 78.9033 57.915 79.0138C57.8618 79.1244 57.7699 79.2115 57.6567 79.2587C57.5434 79.3059 57.4168 79.3098 57.3009 79.2697C57.185 79.2296 57.0878 79.1482 57.028 79.0412C56.4163 79.0359 55.809 79.1458 55.238 79.3652C55.1136 79.4038 54.9791 79.3925 54.863 79.3335C54.7469 79.2745 54.6584 79.1725 54.6163 79.0493C54.5742 78.926 54.5819 78.7912 54.6377 78.6736C54.6934 78.5559 54.7929 78.4646 54.915 78.4192V78.4192Z"></path><path fill="#0e2238" d="M26.637 109.693C21.511 108.518 21.296 102.959 21.294 102.903C21.291 102.796 21.3226 102.691 21.384 102.603C21.4454 102.515 21.5334 102.449 21.635 102.415C28.122 100.245 32.721 94.4084 32.767 94.3494C32.8104 94.2935 32.8652 94.2475 32.9277 94.2144C32.9903 94.1813 33.0591 94.1618 33.1297 94.1573C33.2003 94.1527 33.2711 94.1632 33.3373 94.1881C33.4036 94.2129 33.4638 94.2515 33.514 94.3014L35.135 95.9134C35.1977 95.9759 35.2427 96.0539 35.2653 96.1395C35.288 96.225 35.2875 96.3151 35.264 96.4004C33.781 101.775 27.398 109.218 27.127 109.532C27.0677 109.601 26.9907 109.653 26.9044 109.681C26.818 109.709 26.7256 109.714 26.637 109.693V109.693ZM22.323 103.235C22.449 104.351 23.113 107.683 26.568 108.644C27.648 107.355 32.809 101.035 34.219 96.4134L33.2 95.4004C30.2708 98.8635 26.5357 101.554 22.323 103.235V103.235Z"></path><path fill="#0e2238" d="M49.25 83.7863C49.598 83.7863 49.884 83.3703 49.888 82.8513C49.892 82.3323 49.612 81.9093 49.264 81.9063C48.916 81.9033 48.63 82.3223 48.626 82.8423C48.622 83.3623 48.9 83.7833 49.25 83.7863Z"></path><path fill="#0e2238" d="M55.72 83.5851C56.069 83.5851 56.355 83.1691 56.358 82.6501C56.361 82.1311 56.083 81.7071 55.735 81.7051C55.387 81.7031 55.101 82.1211 55.097 82.6401C55.093 83.1591 55.372 83.5821 55.72 83.5851Z"></path><path fill="#0e2238" fill-rule="evenodd" d="M35.275 80.8153C35.881 80.4863 35.945 79.9623 36.484 79.6783C46.674 75.9573 46.619 76.3883 46.619 76.3883C46.8983 77.0047 47.037 77.6756 47.025 78.3523C46.885 79.0523 44.833 80.0623 44.833 80.0623C44.833 80.0623 45.733 80.3993 45.553 81.1773C45.373 81.9553 43.283 82.6193 43.283 82.6193C43.283 82.6193 44.159 83.3303 43.641 84.0863C43.123 84.8423 42.662 85.3523 42.124 84.4173C41.586 83.4823 40.116 81.8613 38.918 83.5853C37.72 85.3093 40.74 87.9323 42 87.3413C43.26 86.7503 44.887 86.4993 44.676 87.6053C44.6699 87.742 44.6337 87.8756 44.5699 87.9966C44.5061 88.1176 44.4163 88.223 44.3069 88.3052C44.1976 88.3875 44.0714 88.4444 43.9374 88.4721C43.8034 88.4998 43.665 88.4974 43.532 88.4653C43.532 88.4653 45.016 88.8653 44.647 89.9393C44.6104 90.0778 44.5433 90.2063 44.4507 90.3155C44.358 90.4247 44.2421 90.5118 44.1115 90.5705C43.9808 90.6292 43.8387 90.6579 43.6956 90.6546C43.5524 90.6512 43.4118 90.616 43.284 90.5513C43.284 90.5513 44.872 91.4313 44.395 92.5443C44.325 92.7513 44.1862 92.9281 44.0017 93.0451C43.8171 93.1621 43.5981 93.2123 43.381 93.1873C43.381 93.1873 44.55 93.1963 44.581 94.1523C44.612 95.1083 42.561 95.1633 42.561 95.1633C42.561 95.1633 43.615 96.9083 42.473 97.3293C42.1567 97.4556 41.8133 97.4988 41.4756 97.4546C41.1379 97.4105 40.8172 97.2806 40.544 97.0773C40.544 97.0773 40.744 98.0963 39.983 98.4933C39.222 98.8903 38.235 98.0863 38.235 98.0863C38.0644 98.389 37.8056 98.6324 37.4932 98.7843C37.1807 98.9362 36.8293 98.9892 36.486 98.9363C36.3135 98.9221 36.1459 98.8715 35.9944 98.7879C35.8428 98.7042 35.7107 98.5894 35.6068 98.451C35.5029 98.3125 35.4295 98.1537 35.3914 97.9848C35.3533 97.8159 35.3515 97.6409 35.386 97.4713C35.1923 97.7985 34.9043 98.0595 34.5597 98.2201C34.2151 98.3807 33.8301 98.4334 33.455 98.3713C32.141 98.1463 32.348 96.5463 32.348 96.5463C32.348 96.5463 30.904 98.1043 29.937 96.8193C29.806 96.6681 29.7129 96.4879 29.6654 96.2936C29.6179 96.0993 29.6174 95.8965 29.6638 95.702C29.7102 95.5074 29.8023 95.3267 29.9324 95.1748C30.0625 95.0228 30.2269 94.9041 30.412 94.8283C30.412 94.8283 28.56 95.8413 28.295 94.8383C28.03 93.8353 29.561 93.1143 29.561 93.1143C29.561 93.1143 27.785 93.5513 28.094 92.4143C28.403 91.2773 31.407 90.3003 31.407 90.3003C31.407 90.3003 27.652 91.2673 27.749 89.8243C27.846 88.3813 30.262 88.3153 30.262 88.3153C30.262 88.3153 28.244 87.6353 29.133 86.7683C29.8047 86.2153 30.6386 85.8968 31.508 85.8613C31.3034 85.5877 31.2051 85.2491 31.2314 84.9084C31.2577 84.5678 31.4068 84.2483 31.651 84.0093C32.541 83.1843 34.686 83.5693 34.686 83.5693C34.686 83.5693 33.7 81.6733 35.275 80.8153Z" clip-rule="evenodd"></path><path fill="#0e2238" d="M83.112 106.594C83.2411 106.524 83.3525 106.425 83.4378 106.306C83.523 106.186 83.5799 106.049 83.604 105.904C83.757 105.068 82.791 104.191 82.066 104.004C81.935 103.971 81.776 103.918 81.59 103.858C75.99 102.039 73.79 105.142 70.49 110.083C69.7043 111.391 68.78 112.611 67.733 113.721C65.868 115.364 53.833 115.94 48.433 118.127L44.841 108.068C44.538 104.208 43.4436 100.452 41.626 97.0329C41.597 96.9727 41.5562 96.9189 41.506 96.8747C41.4558 96.8306 41.3973 96.7969 41.3339 96.7757C41.2705 96.7546 41.2036 96.7463 41.1369 96.7515C41.0703 96.7567 41.0054 96.7751 40.946 96.8058C40.8866 96.8365 40.834 96.8788 40.7913 96.9302C40.7485 96.9815 40.7165 97.041 40.6971 97.1049C40.6777 97.1689 40.6713 97.2361 40.6784 97.3025C40.6854 97.369 40.7056 97.4334 40.738 97.4919C42.4923 100.803 43.5493 104.438 43.844 108.174C43.844 108.292 43.623 107.608 47.444 118.318C45.659 118.36 44.61 118.568 44.33 118.941C44.2553 119.04 44.22 119.163 44.2308 119.286C44.2416 119.409 44.2979 119.524 44.3886 119.609C44.4794 119.693 44.5982 119.741 44.722 119.742C44.8459 119.744 44.9659 119.7 45.059 119.618C46.0587 119.32 47.106 119.215 48.145 119.309C48.2317 119.307 48.3162 119.282 48.39 119.236C53.664 116.836 66.077 116.515 68.396 114.471C70.469 112.644 73.032 107.133 75.734 105.263C78.309 103.479 80.682 104.681 81.82 104.974C81.999 105.03 82.1637 105.124 82.303 105.249C82.4423 105.375 82.5528 105.529 82.627 105.701C82.627 105.701 82.404 105.93 81.251 105.801C80.3417 105.486 79.379 105.354 78.4186 105.414C77.4582 105.474 76.5192 105.724 75.656 106.149C75.5525 106.212 75.4754 106.31 75.4392 106.426C75.4029 106.542 75.4098 106.667 75.4588 106.778C75.5077 106.888 75.5952 106.978 75.705 107.029C75.8149 107.08 75.9396 107.09 76.056 107.056C77.6873 106.656 79.3789 106.564 81.044 106.784C82.0521 107.051 82.9696 107.584 83.7 108.329C83.287 108.791 79.705 108.583 77.986 108.719C76.598 108.827 75.814 109.11 75.517 109.606C75.187 110.158 75.575 110.753 76.078 110.574C78.041 109.868 80.933 110.733 81.378 111.317C79.592 111.617 75.13 111.144 74.625 112.543C74.425 113.108 74.945 113.648 75.2 113.561C76.366 113.504 77.5338 113.628 78.662 113.928C78.201 114.428 77.152 113.745 73.506 116.119C69.206 118.919 48.606 129.451 44.543 127.776C39.289 125.596 39.169 116.527 36.577 109.922C35.458 107.072 35.877 104.244 37.944 100.755C38.476 99.8549 38.944 99.3489 39.344 98.6779C39.3775 98.6213 39.3995 98.5588 39.4088 98.4937C39.4181 98.4287 39.4145 98.3624 39.3982 98.2988C39.3819 98.2351 39.3532 98.1753 39.3138 98.1227C39.2744 98.0701 39.225 98.0259 39.1685 97.9924C39.0543 97.9247 38.9179 97.9052 38.7894 97.9381C38.6608 97.9711 38.5506 98.0537 38.483 98.1679C38.127 98.7679 37.613 99.3509 37.083 100.245C34.847 104.026 34.403 107.122 35.645 110.287C38.274 116.987 38.307 126.272 44.16 128.7C48.902 130.663 69.852 119.692 74.051 116.957C78.16 114.284 78.579 115.794 79.573 114.383C79.6681 114.261 79.7266 114.115 79.7417 113.961C79.7567 113.807 79.7277 113.652 79.658 113.514C79.346 112.921 78.09 112.678 76.738 112.596C77.038 112.557 77.407 112.523 77.868 112.496C81.116 112.337 82.038 112.466 82.387 111.818C82.453 111.655 82.4755 111.479 82.4522 111.305C82.4288 111.131 82.3605 110.966 82.254 110.827C81.7422 110.227 81.0446 109.815 80.272 109.656C82.608 109.648 84.065 109.603 84.537 108.876C85.091 108.04 84.01 107.111 83.112 106.594Z"></path><path fill="#0e2238" d="M71.122 110.549C71.0341 110.549 70.9476 110.526 70.8714 110.482C70.7952 110.438 70.732 110.375 70.688 110.299C68.451 106.421 64.114 100.782 62.688 99.8987C59.982 98.2227 57.499 96.4837 53.782 95.6097C53.7161 95.5968 53.6535 95.5706 53.5979 95.5329C53.5423 95.4952 53.4949 95.4467 53.4584 95.3903C53.422 95.3339 53.3973 95.2707 53.3859 95.2045C53.3744 95.1383 53.3764 95.0705 53.3917 95.0051C53.4071 94.9397 53.4354 94.878 53.4751 94.8238C53.5147 94.7696 53.5649 94.724 53.6226 94.6896C53.6803 94.6552 53.7444 94.6328 53.8109 94.6237C53.8775 94.6147 53.9452 94.6191 54.01 94.6367C57.91 95.5537 60.481 97.3547 63.21 99.0487C64.925 100.114 69.362 106.01 71.55 109.802C71.5929 109.877 71.6155 109.963 71.6153 110.05C71.6151 110.137 71.5923 110.222 71.5491 110.297C71.5059 110.373 71.4438 110.436 71.3689 110.48C71.294 110.524 71.2089 110.548 71.122 110.549Z"></path><path fill="#0e2238" d="M82.51 107.209C82.3879 107.208 82.2704 107.162 82.1795 107.081C82.0887 106.999 82.0308 106.887 82.0167 106.766C82.0027 106.645 82.0335 106.523 82.1034 106.423C82.1733 106.323 82.2773 106.251 82.396 106.223C82.486 106.202 84.636 105.701 86.947 105.423C87.0125 105.414 87.0792 105.418 87.143 105.435C87.2069 105.452 87.2665 105.482 87.3185 105.523C87.3704 105.564 87.4136 105.615 87.4453 105.673C87.477 105.731 87.4966 105.795 87.503 105.861C87.5182 105.992 87.4806 106.124 87.3985 106.228C87.3164 106.332 87.1965 106.399 87.065 106.415C84.382 106.738 82.718 107.209 82.51 107.209Z"></path><path fill="#0e2238" d="M142.523 142.568C139.756 141.079 140.968 141.268 135.161 139.149C129.571 137.112 127.189 134.094 123.893 129.917C120.686 125.855 110.707 110.895 105.612 106.16C105.564 106.114 105.508 106.078 105.446 106.054C105.384 106.03 105.318 106.018 105.251 106.02C105.185 106.021 105.119 106.036 105.058 106.064C104.998 106.091 104.943 106.13 104.898 106.179C104.853 106.228 104.818 106.285 104.795 106.347C104.772 106.41 104.762 106.476 104.765 106.543C104.768 106.609 104.784 106.674 104.813 106.734C104.841 106.794 104.881 106.848 104.931 106.892C109.931 111.535 119.87 126.434 123.108 130.537C126.508 134.842 128.961 137.954 134.818 140.088C140.495 142.157 139.257 141.944 142.05 143.449C142.513 143.698 142.963 143.941 143.356 144.188C141.232 144.088 140.873 144.735 137.549 143.565C136.524 143.204 135.487 142.703 134.289 142.16C131.67 140.972 128.889 140.045 126.539 138.506C124.786 137.358 109.471 120.282 104.591 113.283C103.573 111.731 102.391 110.293 101.066 108.993C100.718 108.634 100.297 108.354 99.8309 108.173C99.3649 107.991 98.8652 107.913 98.366 107.942C94.551 108.464 75.705 120.911 69.5 125.632C66.1 128.219 56.281 134.713 55.449 135.749C55.1019 136.206 54.7907 136.689 54.518 137.193C54.345 137.493 54.108 137.555 55.381 139.113C56.888 140.957 62.355 146.791 69.459 144.405C71.6814 143.641 73.8324 142.683 75.887 141.541C79.6016 140.463 83.1488 138.874 86.427 136.821C90.8674 133.958 94.7443 130.303 97.865 126.039C99.528 128.724 102.236 132.072 105.081 133.62C109.592 136.074 115.628 138.588 117.881 140.798C118.317 141.2 118.667 141.685 118.911 142.225C119.154 142.765 119.286 143.348 119.299 143.94C119.319 145.129 118.53 148.047 119.991 149.283C122.008 150.983 124.497 149.619 126.507 149.674C130.907 149.842 132.316 151.746 134.926 151.032C135.996 152.414 137.445 152.932 138.713 151.732C139.07 151.822 139.446 151.792 139.784 151.647C140.123 151.503 140.405 151.252 140.587 150.932C140.885 150.902 141.167 150.787 141.402 150.601C141.636 150.415 141.812 150.166 141.909 149.882C142.981 149.845 143.487 149.295 143.566 148.64C143.619 148.624 143.67 148.605 143.721 148.582C144.134 148.473 144.515 148.263 144.828 147.973C145.142 147.682 145.38 147.319 145.521 146.915C146.472 144.559 143.707 143.2 142.523 142.568ZM85.866 135.993C84.0336 137.184 82.0881 138.191 80.058 139C83.0558 136.986 85.8945 134.744 88.549 132.294C90.738 130.266 94.636 126.551 96.817 124.294C96.952 124.527 97.117 124.807 97.296 125.105C94.2091 129.425 90.3305 133.12 85.866 135.993V135.993ZM144.59 146.546C144.313 147.23 144.106 147.335 143.379 147.646C143.135 145.939 141.065 145.46 139.962 145.479C139.829 145.48 139.702 145.533 139.609 145.628C139.516 145.722 139.464 145.849 139.465 145.982C139.465 146.115 139.518 146.241 139.613 146.335C139.707 146.428 139.834 146.48 139.967 146.479C140.001 146.479 142.404 146.493 142.426 147.945C142.429 148.072 142.479 148.194 142.568 148.284C142.598 148.657 142.553 148.863 141.862 148.884C141.676 148.301 141.324 147.785 140.848 147.4C140.373 147.014 139.795 146.776 139.186 146.715C139.057 146.708 138.931 146.751 138.833 146.835C138.735 146.918 138.673 147.037 138.661 147.165C138.648 147.293 138.685 147.421 138.764 147.522C138.843 147.624 138.959 147.691 139.086 147.709C139.103 147.709 140.699 147.893 140.938 149.251C140.947 149.296 140.963 149.339 140.985 149.379C140.991 149.449 140.983 149.518 140.961 149.584C140.939 149.65 140.904 149.71 140.857 149.761C140.836 149.78 140.813 149.796 140.789 149.809C140.405 148.403 138.51 147.976 138.422 147.956C138.358 147.942 138.291 147.941 138.226 147.953C138.161 147.965 138.1 147.989 138.045 148.026C137.989 148.062 137.942 148.109 137.905 148.163C137.869 148.218 137.843 148.28 137.831 148.344C137.804 148.474 137.83 148.609 137.902 148.72C137.975 148.831 138.088 148.908 138.218 148.935C138.234 148.935 139.762 149.288 139.861 150.205C139.84 150.236 139.805 150.254 139.792 150.29C139.739 150.462 139.623 150.607 139.467 150.695C139.311 150.783 139.127 150.808 138.953 150.764C138.74 150.359 138.428 150.013 138.047 149.759C137.665 149.505 137.226 149.35 136.77 149.308C136.638 149.298 136.508 149.339 136.406 149.423C136.304 149.507 136.239 149.627 136.224 149.758C136.218 149.824 136.224 149.89 136.243 149.953C136.263 150.016 136.294 150.074 136.336 150.125C136.378 150.175 136.429 150.217 136.487 150.248C136.545 150.279 136.609 150.298 136.674 150.304C136.685 150.304 137.674 150.422 137.992 151.033C137.878 151.151 137.741 151.244 137.589 151.307C137.437 151.369 137.274 151.4 137.11 151.396C136.41 151.334 135.747 150.496 135.55 150.18C135.489 150.082 135.396 150.008 135.287 149.97C135.177 149.933 135.058 149.934 134.95 149.974C132.593 150.842 131.361 148.865 126.55 148.674C124.435 148.607 122.224 149.858 120.64 148.519C119.672 147.7 120.322 145.094 120.303 143.924C120.29 143.202 120.131 142.489 119.836 141.829C119.541 141.169 119.115 140.575 118.585 140.083C116.794 138.328 112.728 136.362 109.83 134.924C104.798 132.432 103.443 132.024 99.65 126.935C99.05 126.124 97.557 123.601 97.371 123.241C97.3346 123.171 97.2819 123.11 97.2172 123.063C97.1525 123.017 97.0777 122.987 96.999 122.975C96.408 122.899 97.008 123.103 87.874 131.563C85.021 134.207 77.485 140.658 69.144 143.457C61.803 145.919 56.313 138.743 55.472 137.544C55.6947 137.135 55.9488 136.744 56.232 136.374C56.902 135.54 66.912 128.861 70.109 126.427C76.919 121.245 95.099 109.399 98.504 108.927C98.8517 108.922 99.1969 108.988 99.518 109.121C99.8392 109.254 100.13 109.452 100.371 109.702C102.743 112.029 103.319 113.352 105.438 116.161C110.048 122.266 124.074 138.078 125.996 139.337C128.496 140.972 130.996 141.744 134.604 143.396C136.319 144.276 138.157 144.892 140.055 145.225C141.437 145.396 142.973 144.962 144.187 145.309C144.5 145.4 144.733 146.2 144.59 146.546V146.546Z"></path><path fill="#ffffff" fill-rule="evenodd" d="M36.281 79.938C36.243 79.68 48.537 75.038 56.637 75.065C56.3516 73.8958 56.0075 72.7416 55.606 71.607C55.606 71.607 47.749 70.859 35.636 76.972L36.281 79.938Z" clip-rule="evenodd"></path><path fill="#00bac7" fill-rule="evenodd" d="M85.663 112.588L92.309 81.8454L118.933 75.4824L111.506 107.5L86.159 115.787L63.421 125.432L62.456 122.481L85.663 112.588Z" clip-rule="evenodd"></path><path fill="#0e2238" d="M116.066 87.8137C115.937 87.7838 115.801 87.8063 115.689 87.8765C115.576 87.9466 115.496 88.0586 115.466 88.1877L111.083 107.109L86 115.308L86.135 112.735L91.393 88.4067C91.4165 88.2789 91.3893 88.147 91.3172 88.0389C91.2451 87.9308 91.1338 87.855 91.0068 87.8275C90.8798 87.8001 90.7471 87.8232 90.6368 87.8919C90.5265 87.9606 90.4473 88.0696 90.416 88.1957L85.205 112.335L62.261 122.001C62.1454 122.049 62.0524 122.14 62.0004 122.254C61.9483 122.368 61.941 122.497 61.98 122.617L62.946 125.567C62.9675 125.633 63.0025 125.693 63.0487 125.745C63.0949 125.797 63.1513 125.838 63.2144 125.867C63.2775 125.895 63.3459 125.911 63.4152 125.912C63.4845 125.912 63.5532 125.899 63.617 125.872C87.305 115.815 85.433 116.546 85.611 116.489L111.662 107.973C111.744 107.946 111.817 107.899 111.876 107.835C111.934 107.772 111.974 107.695 111.994 107.611L116.44 88.4157C116.455 88.3516 116.457 88.2852 116.447 88.2202C116.436 88.1552 116.413 88.0929 116.378 88.037C116.343 87.9811 116.298 87.9325 116.244 87.8942C116.191 87.8559 116.13 87.8285 116.066 87.8137ZM63.074 122.743L85.088 113.469L84.973 115.66L63.727 124.737L63.074 122.743Z"></path><path fill="#ffffff" fill-rule="evenodd" d="M132.575 167.249L125.16 165.522L112.942 182.622L41.009 121.592L13.9 160.341L18.539 163.263L41.539 131.076L112.644 189.318L132.575 167.249Z" clip-rule="evenodd"></path><path fill="#0e2238" d="M112.646 189.817C112.372 189.817 115.487 192.29 41.637 131.801L18.947 163.553C18.8728 163.657 18.7618 163.728 18.6367 163.753C18.5116 163.777 18.3819 163.753 18.274 163.685L13.635 160.762C13.5777 160.726 13.5283 160.679 13.4898 160.623C13.4513 160.568 13.4245 160.505 13.411 160.438C13.346 160.113 11.626 162.907 40.599 121.303C40.6389 121.246 40.6902 121.198 40.7497 121.162C40.8092 121.126 40.8755 121.103 40.9445 121.094C41.0135 121.085 41.0836 121.091 41.1503 121.11C41.2171 121.13 41.2789 121.163 41.332 121.208L112.852 181.887L124.752 165.23C124.81 165.15 124.89 165.088 124.982 165.053C125.075 165.017 125.175 165.01 125.272 165.03L132.687 166.756C132.772 166.776 132.85 166.818 132.914 166.877C132.978 166.936 133.025 167.011 133.051 167.094C133.077 167.177 133.081 167.265 133.062 167.35C133.044 167.435 133.003 167.514 132.945 167.578L113.016 189.648C112.97 189.701 112.913 189.743 112.849 189.772C112.785 189.801 112.716 189.817 112.646 189.817ZM41.546 130.576C41.82 130.576 38.746 128.139 112.599 188.628L131.64 167.542L125.377 166.083L113.354 182.911C113.314 182.967 113.262 183.015 113.203 183.05C113.144 183.085 113.078 183.108 113.009 183.116C112.676 183.163 117.187 186.872 41.109 122.326L14.612 160.2L18.412 162.591C42.49 128.887 41.139 130.576 41.541 130.576H41.546Z"></path><path fill="#0e2238" d="M58.038 82.7908C57.422 81.2418 58.021 80.8508 58.073 78.8788C57.9875 77.6287 57.7099 76.3993 57.25 75.2338H57.194C57.2309 75.1401 57.2372 75.0372 57.212 74.9398C56.928 73.7493 56.5515 72.5827 56.086 71.4508C56.0127 71.3477 55.903 71.2762 55.779 71.2508C55.479 71.1918 48.289 69.8568 35.619 76.6728C35.5285 76.7212 35.4551 76.7963 35.4088 76.8879C35.3624 76.9795 35.3454 77.0832 35.36 77.1848L35.719 79.6778C35.1953 79.928 34.741 80.303 34.3959 80.7697C34.0509 81.2364 33.8257 81.7807 33.74 82.3548C33.7469 82.58 33.7877 82.8028 33.861 83.0158C33.412 82.8739 32.9372 82.8329 32.4704 82.8956C32.0037 82.9584 31.5566 83.1233 31.161 83.3788C30.903 83.6136 30.717 83.9168 30.6246 84.2531C30.5322 84.5895 30.5372 84.9452 30.639 85.2788C28.963 85.6058 27.497 86.7788 28.672 87.8988C28.2659 87.9906 27.8975 88.2046 27.6165 88.5119C27.3355 88.8192 27.1553 89.2051 27.1 89.6178C27.059 90.2298 27.422 90.7758 28.462 90.9098C28.0049 91.1879 27.6531 91.61 27.462 92.1098C27.3672 92.3539 27.3719 92.6254 27.4751 92.866C27.5783 93.1067 27.7718 93.2973 28.014 93.3968C27.243 94.3628 27.6 95.6968 28.965 95.5968C28.9294 96.0857 29.0813 96.5699 29.3899 96.9508C29.6984 97.3318 30.1404 97.581 30.626 97.6478C31.0313 97.6539 31.4299 97.5443 31.775 97.3318C31.8677 97.6392 32.033 97.9198 32.257 98.1498C32.481 98.3799 32.757 98.5526 33.0619 98.6535C33.3667 98.7543 33.6913 98.7802 34.0083 98.7291C34.3253 98.678 34.6253 98.5513 34.883 98.3598C35.0028 98.6411 35.2066 98.8786 35.4665 99.0397C35.7264 99.2008 36.0297 99.2777 36.335 99.2598C36.6753 99.2942 37.0189 99.2594 37.3454 99.1577C37.6719 99.056 37.9745 98.8893 38.235 98.6678C38.4537 98.8378 38.7129 98.9481 38.987 98.9879C39.2612 99.0276 39.541 98.9956 39.799 98.8948C40.057 98.794 40.2845 98.6279 40.4591 98.4128C40.6337 98.1978 40.7494 97.941 40.795 97.6678C41.664 97.9538 42.953 97.7678 43.273 96.8558C43.327 96.6859 43.3503 96.5078 43.342 96.3298C44.758 98.6118 47.505 101.59 50.979 101.59C51.902 101.59 52.885 101.398 53.204 100.531C53.784 98.9458 51.343 96.2308 50.46 95.3168L50.789 94.0598C50.9806 94.0921 51.1739 94.1124 51.368 94.1208C54.59 94.1208 56.692 90.4568 58.027 87.5848C58.4151 86.8458 58.6188 86.0239 58.6207 85.1891C58.6226 84.3544 58.4227 83.5316 58.038 82.7908V82.7908ZM55.334 72.1998C55.486 72.6198 55.781 73.5848 56.067 74.5758C48.961 74.6658 39.154 78.1478 36.643 79.0838L36.4 77.3898C47.248 71.6288 53.986 72.0348 55.334 72.1998ZM42.4 94.4898C42.3126 94.4923 42.2274 94.5178 42.1529 94.5635C42.0784 94.6093 42.0172 94.6738 41.9754 94.7506C41.9336 94.8274 41.9127 94.9138 41.9147 95.0012C41.9167 95.0887 41.9417 95.174 41.987 95.2488C42.2401 95.6247 42.3621 96.0735 42.334 96.5258C42.315 96.5818 42.279 96.6388 42.154 96.6858C41.9207 96.7806 41.6674 96.8153 41.4172 96.7869C41.167 96.7584 40.928 96.6676 40.722 96.5228C40.6477 96.4594 40.5565 96.4191 40.4597 96.407C40.3628 96.3948 40.2645 96.4113 40.1768 96.4544C40.0892 96.4974 40.0161 96.5652 39.9666 96.6493C39.917 96.7335 39.8932 96.8303 39.898 96.9278C39.898 96.9278 39.915 97.7098 39.458 97.9488C39.058 98.1598 38.449 97.5648 38.449 97.5648C38.3845 97.49 38.2988 97.4366 38.2032 97.4114C38.1077 97.3863 38.0068 97.3907 37.9138 97.424C37.8208 97.4574 37.7401 97.5181 37.6823 97.5982C37.6245 97.6783 37.5923 97.774 37.59 97.8728C37.569 97.9798 37.302 98.2598 36.339 98.2598C36.2577 98.2705 36.175 98.2621 36.0974 98.2354C36.0198 98.2087 35.9495 98.1643 35.892 98.1058C35.754 97.8861 35.698 97.6247 35.734 97.3678C35.751 97.2521 35.727 97.1341 35.6661 97.0344C35.6051 96.9346 35.5112 96.8593 35.4005 96.8216C35.2898 96.7839 35.1695 96.7862 35.0603 96.8281C34.9511 96.87 34.8601 96.9488 34.803 97.0508C34.6604 97.2881 34.4496 97.4769 34.1981 97.5927C33.9466 97.7085 33.666 97.7458 33.393 97.6998C32.586 97.5618 32.685 96.5468 32.693 96.4338C32.7054 96.3291 32.6844 96.2233 32.633 96.1313C32.5817 96.0392 32.5025 95.9658 32.4069 95.9215C32.3114 95.8771 32.2042 95.8641 32.1008 95.8843C31.9973 95.9044 31.9029 95.9568 31.831 96.0338C31.318 96.5858 30.638 96.9478 30.185 96.3448C30.102 96.2565 30.0392 96.1512 30.0011 96.0362C29.9629 95.9212 29.9502 95.7992 29.964 95.6788C30.0494 95.4407 30.221 95.2433 30.445 95.1258C30.5028 95.0945 30.5538 95.0521 30.5952 95.001C30.6366 94.95 30.6676 94.8913 30.6863 94.8283C30.705 94.7653 30.7111 94.6992 30.7043 94.6338C30.6975 94.5685 30.6778 94.5051 30.6465 94.4473C30.6152 94.3895 30.5728 94.3385 30.5217 94.2971C30.4707 94.2557 30.412 94.2247 30.349 94.206C30.286 94.1873 30.2199 94.1812 30.1545 94.188C30.0892 94.1948 30.0258 94.2145 29.968 94.2458C29.508 94.4868 28.868 94.6768 28.627 94.5388C28.497 94.0458 29.38 93.5118 29.627 93.3958C29.7383 93.3424 29.826 93.2497 29.873 93.1355C29.9201 93.0214 29.9233 92.8939 29.8819 92.7775C29.8406 92.6612 29.7576 92.5643 29.6491 92.5054C29.5405 92.4466 29.4141 92.43 29.294 92.4588C29.0061 92.5356 28.7053 92.5513 28.411 92.5048C28.311 91.9958 29.942 91.0878 31.411 90.6048C31.5344 90.5645 31.6373 90.4778 31.698 90.3631C31.7586 90.2483 31.7723 90.1144 31.736 89.9898C31.6985 89.8658 31.6149 89.7608 31.5023 89.6966C31.3897 89.6325 31.2569 89.6139 31.131 89.6448C29.962 89.9448 28.476 90.0728 28.131 89.7838C28.11 89.7658 28.096 89.7538 28.101 89.6838C28.165 88.7448 30.11 88.6418 30.13 88.6418C30.2475 88.6386 30.3601 88.5941 30.448 88.5162C30.536 88.4383 30.5937 88.3318 30.611 88.2156C30.6283 88.0994 30.6041 87.9808 30.5427 87.8806C30.4812 87.7804 30.3865 87.7051 30.275 87.6678C29.8855 87.5612 29.5336 87.3479 29.259 87.0518C29.2783 87.0143 29.304 86.9804 29.335 86.9518C29.9167 86.4862 30.6316 86.2179 31.376 86.1858C31.4648 86.1827 31.5511 86.156 31.6261 86.1085C31.7012 86.061 31.7622 85.9943 31.8029 85.9154C31.8437 85.8365 31.8626 85.7481 31.8579 85.6595C31.8532 85.5708 31.8249 85.4849 31.776 85.4108C31.6357 85.2196 31.5656 84.9859 31.5776 84.749C31.5896 84.5122 31.683 84.2868 31.842 84.1108C32.3 83.6858 33.785 83.9528 34.693 84.2768C34.796 84.3137 34.9082 84.3158 35.0125 84.2827C35.1168 84.2497 35.2074 84.1834 35.2703 84.094C35.3333 84.0045 35.3653 83.8969 35.3612 83.7876C35.3572 83.6783 35.3174 83.5733 35.248 83.4888C34.9755 83.1572 34.7997 82.7568 34.74 82.3318C34.8526 81.8948 35.0695 81.4917 35.3723 81.1571C35.675 80.8225 36.0544 80.5664 36.478 80.4108C36.5433 80.3824 36.6018 80.3405 36.6496 80.2877C36.6973 80.2349 36.7333 80.1726 36.755 80.1048C37.884 79.6828 41.718 78.2898 46.122 77.1578C46.386 77.4678 46.641 77.8778 46.597 78.0988C45.9929 78.7725 45.2606 79.3191 44.443 79.7068C44.359 79.7528 44.2899 79.8219 44.2441 79.906C44.1982 79.9901 44.1775 80.0856 44.1843 80.1812C44.1911 80.2767 44.2253 80.3683 44.2827 80.445C44.3401 80.5217 44.4183 80.5803 44.508 80.6138C44.508 80.6138 44.994 80.8008 44.915 81.1518C44.858 81.4068 43.915 81.9278 42.983 82.2258C42.897 82.253 42.8199 82.3031 42.76 82.3706C42.7 82.4381 42.6595 82.5206 42.6427 82.6093C42.6259 82.698 42.6334 82.7896 42.6644 82.8744C42.6955 82.9591 42.7489 83.0339 42.819 83.0908C42.819 83.0908 43.333 83.5138 43.079 83.8848C42.9698 84.057 42.8372 84.2131 42.685 84.3488C42.5664 84.2556 42.4715 84.1357 42.408 83.9988C41.356 82.1658 39.56 81.3988 38.358 83.1308C36.868 85.2718 40.337 88.4308 42.058 87.6218C42.6518 87.2647 43.3492 87.1198 44.036 87.2108C44.0428 87.2537 44.0408 87.2976 44.03 87.3398C44.009 87.4488 43.93 87.8908 43.504 87.8098C43.3767 87.7781 43.2421 87.7976 43.1291 87.8642C43.0161 87.9309 42.9339 88.0392 42.9 88.1659C42.8662 88.2926 42.8835 88.4276 42.9482 88.5417C43.0129 88.6557 43.1199 88.7398 43.246 88.7758C43.5496 88.8533 43.8189 89.0291 44.012 89.2758C44.0513 89.3992 44.0486 89.5321 44.0045 89.6538C43.9603 89.7755 43.8772 89.8792 43.768 89.9488C43.6274 89.9919 43.4761 89.9838 43.341 89.9258C43.2234 89.8704 43.0889 89.863 42.9659 89.9051C42.8429 89.9473 42.7412 90.0356 42.6823 90.1515C42.6233 90.2674 42.6119 90.4017 42.6503 90.5259C42.6887 90.6501 42.774 90.7544 42.888 90.8168C42.9 90.8238 44.067 91.5058 43.781 92.1728C43.7544 92.2616 43.7037 92.3412 43.6345 92.4029C43.5653 92.4645 43.4803 92.5057 43.389 92.5218C43.3349 92.5261 43.2804 92.5231 43.227 92.5128C43.1021 92.5126 42.9816 92.5591 42.8892 92.6433C42.7969 92.7275 42.7394 92.8432 42.7281 92.9676C42.7168 93.092 42.7526 93.2162 42.8282 93.3156C42.9039 93.415 43.0141 93.4825 43.137 93.5048C43.195 93.5148 43.282 93.4918 43.337 93.5218C43.537 93.5448 43.915 93.6378 43.926 93.9928C43.926 94.0128 43.926 94.0388 43.884 94.0838C43.437 94.355 42.9229 94.4957 42.4 94.4898V94.4898ZM52.27 100.19C52.17 100.46 51.741 100.549 51.398 100.578C48.09 100.852 45.19 97.6778 43.859 95.2348C44.469 95.0138 44.959 94.6208 44.935 93.9668C44.9344 93.7776 44.8937 93.5906 44.8156 93.4183C44.7375 93.2459 44.6238 93.092 44.482 92.9668C44.7336 92.6491 44.8611 92.2507 44.8407 91.8459C44.8202 91.4411 44.6533 91.0576 44.371 90.7668C44.4098 90.7394 44.4472 90.71 44.483 90.6788C45.8573 92.3025 47.7316 93.4241 49.812 93.8678L49.425 95.3428C49.4027 95.4276 49.403 95.5167 49.426 95.6013C49.449 95.6859 49.4938 95.763 49.556 95.8248C50.826 97.0878 52.569 99.3538 52.265 100.186L52.27 100.19ZM57.12 87.1638C55.03 91.6638 52.976 93.5318 50.647 93.0438C48.4086 92.7198 46.3872 91.5288 45.019 89.7278C45.0713 89.4903 45.0596 89.2432 44.9849 89.0117C44.9102 88.7803 44.7753 88.5729 44.594 88.4108C44.864 88.1573 45.0226 87.8071 45.0349 87.4369C45.0473 87.0668 44.9125 86.7068 44.66 86.4358C43.793 85.7608 41.99 86.5548 41.637 86.7198C41.262 86.8978 40.286 86.4658 39.593 85.6448C39.303 85.3008 38.681 84.4218 39.179 83.7058C39.57 83.1458 39.889 83.1598 39.987 83.1628C40.515 83.1848 41.168 83.8538 41.542 84.5008C41.659 84.7008 42.017 85.3268 42.631 85.3508C43.193 85.3738 43.609 84.8818 43.904 84.4508C44.0592 84.2308 44.147 83.9705 44.1568 83.7015C44.1666 83.4325 44.0978 83.1664 43.959 82.9358C44.713 82.6268 45.73 82.0878 45.891 81.3708C45.9403 81.1653 45.9387 80.9509 45.8864 80.7462C45.8341 80.5414 45.7327 80.3525 45.591 80.1958C46.407 79.6958 47.445 78.9398 47.573 78.3038C47.6284 77.8003 47.4849 77.295 47.173 76.8958C50.1563 76.1148 53.2178 75.6706 56.3 75.5718C56.7172 76.6206 56.9758 77.7257 57.067 78.8508C57.019 80.6948 56.367 81.2948 57.102 83.1578C57.4397 83.7708 57.6183 84.4587 57.6215 85.1585C57.6246 85.8583 57.4522 86.5478 57.12 87.1638V87.1638Z"></path><path fill="#00bac7" fill-rule="evenodd" d="M149.153 46.6346C149.153 46.6346 141.219 44.0676 137.274 45.9676C133.329 47.8676 123.217 60.4936 122.5 63.6826C121.783 66.8716 124.5 77.6686 124.787 79.6446C126.24 78.6613 127.623 77.5795 128.928 76.4066C128.928 76.4066 129.767 68.7016 130.498 67.4066C131.176 69.0066 131.72 70.6603 132.124 72.3506C132.124 72.3506 135.892 68.8766 136.207 67.6506C136.522 66.4246 137.552 61.4236 137.425 59.4846C137.425 59.4846 139.125 61.9226 139.134 63.4106C139.134 63.4106 142.282 60.1106 142.522 59.0186C142.713 57.5937 142.777 56.1548 142.715 54.7186C143.276 55.3453 143.696 56.0858 143.944 56.8896C143.944 56.8896 148.956 51.4646 150.392 49.0096C150.392 49.0096 155.55 61.6286 157.558 62.2476C157.558 62.2476 158.379 59.4476 159.166 58.9056C159.166 58.9056 160.185 64.8256 159.766 66.6246C160.4 68.3082 161.204 69.9226 162.166 71.4426C162.384 70.1953 162.836 69.0004 163.497 67.9206C163.497 67.9206 164.697 72.5646 164.524 75.0946C164.524 75.0946 166.003 78.4376 167.481 79.3866C167.481 79.3866 171.029 66.5696 170.663 61.7026C170.395 58.1486 166.423 53.4126 153.839 46.3386C153.839 46.3386 159.4 46.5826 162.839 47.0016C164.007 46.1608 165.255 45.4373 166.565 44.8416C167.057 45.7222 167.421 46.6679 167.648 47.6506C167.648 47.6506 171.665 48.4966 172.916 48.7506C172.916 48.7506 175.497 46.6606 176.709 46.3976C176.709 46.3976 177.141 48.6476 177.278 49.8976C177.278 49.8976 180.54 51.5346 181.345 51.9606C181.429 50.9036 181.674 49.8659 182.073 48.8836C182.808 50.5259 183.452 52.2078 184 53.9216C184 53.9216 187.187 58.3726 188.541 59.1276C188.541 59.1276 188.941 49.9226 186.621 45.1506C184.301 40.3786 175.402 34.3726 170.363 34.0506C165.324 33.7286 153.987 42.8066 151.663 46.1886C151.663 46.1886 155.54 40.7556 159.044 36.8256C159.044 36.8256 159.673 33.4496 160.424 32.4746C160.424 32.4746 162.024 33.8746 162.485 34.2446C162.485 34.2446 164.669 31.6846 165.261 31.0076C165.853 30.3306 165.279 27.1576 165.279 27.1576L168.279 28.2226L171.67 24.2396C171.67 24.2396 171.07 20.9036 170.848 19.8396C171.848 19.7709 172.85 19.9228 173.784 20.2846C174.874 20.8526 177.711 12.1316 177.537 10.9146C177.363 9.69755 166.686 13.4316 160.437 17.8846C154.188 22.3376 151.445 30.7176 150.655 44.1646C150.655 44.1646 149.612 30.8166 146.368 24.9906C143.124 19.1646 140.213 16.5256 131.352 18.1536C122.491 19.7816 120.171 22.3246 120.171 22.3246C120.171 22.3246 125.499 26.1596 126.529 26.0856C127.559 26.0116 130.908 23.7066 130.908 23.7066C130.908 23.7066 130.885 26.3536 130.094 27.3556C131.556 27.9593 133.083 28.3893 134.645 28.6366C136.276 28.7366 139.666 26.4646 139.666 26.4646L140.198 29.5306C140.198 29.5306 131.951 26.7756 122.122 31.6906C112.293 36.6056 112.276 48.9906 112.283 52.5766C113.386 52.144 114.408 51.5287 115.306 50.7566C116.311 49.7296 120.435 42.9756 120.435 42.9756L120.126 47.1576C120.126 47.1576 124.637 45.3156 125.799 44.1056C125.799 44.1056 129.432 40.3846 130.209 38.2936C130.307 39.4916 130.307 40.6955 130.209 41.8936C131.922 41.5937 133.608 41.159 135.252 40.5936C136.434 39.6729 137.523 38.6394 138.505 37.5076C138.699 38.5363 138.661 39.5954 138.393 40.6076C138.393 40.6076 147.512 44.2776 149.153 46.6346Z" clip-rule="evenodd"></path><path fill="#0e2238" d="M151.666 46.693C151.746 46.6931 151.825 46.6741 151.896 46.6376C151.967 46.6011 152.028 46.5481 152.074 46.483C152.113 46.429 155.974 41.026 159.42 37.163C159.481 37.0946 159.522 37.011 159.539 36.921C159.763 35.6701 160.104 34.4431 160.558 33.256C161.071 33.704 161.87 34.396 162.178 34.64C162.282 34.7217 162.414 34.7589 162.545 34.7435C162.676 34.7281 162.796 34.6614 162.878 34.5579C162.961 34.4544 162.999 34.3226 162.984 34.1913C162.969 34.0599 162.903 33.9398 162.8 33.857C162.34 33.492 160.758 32.103 160.758 32.103C160.707 32.0579 160.647 32.0238 160.582 32.0027C160.517 31.9817 160.448 31.9743 160.38 31.9808C160.312 31.9874 160.246 32.0078 160.186 32.0409C160.126 32.0739 160.074 32.1189 160.032 32.173C159.295 33.13 158.721 35.886 158.582 36.6C155.124 40.5 151.298 45.848 151.26 45.9C151.206 45.9747 151.174 46.0629 151.167 46.1548C151.16 46.2468 151.178 46.3388 151.22 46.4209C151.262 46.503 151.326 46.5718 151.405 46.6198C151.483 46.6679 151.574 46.6932 151.666 46.693V46.693Z"></path><path fill="#0e2238" d="M170.888 20.3396C171.796 20.2776 172.707 20.4102 173.56 20.7286C173.618 20.761 173.683 20.7813 173.749 20.7884C173.815 20.7955 173.883 20.7893 173.947 20.77C174.011 20.7507 174.07 20.7188 174.121 20.6762C174.173 20.6336 174.215 20.5811 174.246 20.5219C174.277 20.4626 174.295 20.3978 174.301 20.3312C174.306 20.2646 174.298 20.1977 174.277 20.1343C174.256 20.0709 174.223 20.0123 174.179 19.962C174.135 19.9118 174.081 19.8708 174.021 19.8416C173.005 19.437 171.912 19.2661 170.821 19.3416C170.689 19.3506 170.566 19.4117 170.478 19.5114C170.391 19.6112 170.347 19.7414 170.356 19.8736C170.359 19.9396 170.375 20.0042 170.404 20.0637C170.433 20.1232 170.473 20.1762 170.523 20.2197C170.573 20.2632 170.63 20.2963 170.693 20.3169C170.756 20.3375 170.822 20.3452 170.888 20.3396V20.3396Z"></path><path fill="#0e2238" d="M165.116 27.6319C166.144 28.0757 167.203 28.4414 168.286 28.7259C168.404 28.7263 168.519 28.6849 168.609 28.6088C168.7 28.5328 168.761 28.4271 168.781 28.3105C168.801 28.194 168.779 28.0741 168.719 27.9721C168.659 27.8702 168.565 27.7929 168.453 27.7539L165.453 26.6889C165.328 26.6446 165.19 26.6518 165.071 26.7089C164.951 26.766 164.859 26.8683 164.814 26.9934C164.77 27.1184 164.777 27.2559 164.834 27.3757C164.892 27.4954 164.994 27.5876 165.119 27.6319H165.116Z"></path><path fill="#0e2238" d="M126.574 26.587C127.932 26.1684 129.212 25.5263 130.359 24.687C130.328 25.5149 130.105 26.3243 129.709 27.052C129.661 27.1126 129.627 27.1836 129.611 27.2595C129.595 27.3353 129.596 27.4139 129.616 27.4889C129.635 27.564 129.672 27.6335 129.723 27.692C129.773 27.7505 129.837 27.7964 129.909 27.826C131.42 28.4525 133.001 28.8943 134.618 29.142C135.97 29.242 138.193 27.979 139.305 27.296C139.72 29.696 139.681 29.714 139.849 29.884L139.855 29.898C148.336 38.013 149.694 45.716 149.706 45.798C149.727 45.9289 149.8 46.0459 149.908 46.1232C150.016 46.2006 150.15 46.232 150.28 46.2105C150.411 46.189 150.528 46.1164 150.606 46.0087C150.683 45.9009 150.714 45.7669 150.693 45.636C150.64 45.311 149.293 37.618 140.666 29.3L140.166 26.389C140.152 26.3069 140.117 26.2296 140.066 26.1643C140.014 26.0989 139.947 26.0475 139.87 26.0147C139.793 25.9819 139.71 25.9688 139.627 25.9765C139.544 25.9843 139.464 26.0126 139.395 26.059C138.495 26.665 135.883 28.242 134.683 28.148C133.361 27.9558 132.066 27.607 130.826 27.109C131.215 26.0221 131.415 24.8765 131.416 23.722C131.417 23.6305 131.393 23.5405 131.346 23.4619C131.299 23.3832 131.232 23.3189 131.151 23.2759C131.07 23.2329 130.979 23.2128 130.888 23.218C130.797 23.2231 130.708 23.2532 130.633 23.305C129.368 24.2521 127.98 25.0231 126.507 25.597C125.919 25.592 122.916 23.689 120.471 21.928C120.418 21.8896 120.357 21.8622 120.293 21.8472C120.229 21.8322 120.163 21.8299 120.098 21.8406C120.033 21.8512 119.971 21.8745 119.915 21.9092C119.859 21.9438 119.811 21.9891 119.772 22.0425C119.734 22.0959 119.707 22.1563 119.692 22.2203C119.677 22.2843 119.674 22.3506 119.685 22.4155C119.696 22.4803 119.719 22.5424 119.754 22.5983C119.788 22.6542 119.834 22.7026 119.887 22.741C121.533 23.917 125.475 26.638 126.574 26.587Z"></path><path fill="#0e2238" d="M188.787 58.6912C187.778 58.1272 185.38 54.9782 184.465 53.7082C183.913 51.9961 183.27 50.3147 182.539 48.6712C182.505 48.5933 182.452 48.5253 182.384 48.4738C182.316 48.4223 182.236 48.3889 182.152 48.3768C182.068 48.3646 181.982 48.3742 181.903 48.4046C181.823 48.4349 181.753 48.485 181.698 48.5502C181.274 49.3659 181.019 50.2586 180.947 51.1752C179.959 50.6752 178.355 49.8632 177.747 49.5592C177.585 48.2862 177.221 46.3792 177.204 46.2932C177.191 46.2274 177.166 46.1649 177.129 46.1092C177.091 46.0536 177.043 46.006 176.987 45.9692C176.931 45.9325 176.869 45.9074 176.803 45.8953C176.737 45.8833 176.669 45.8846 176.604 45.8992C175.216 46.4546 173.927 47.2313 172.788 48.1992C171.597 47.9552 168.961 47.3992 168.061 47.2112C167.821 46.2913 167.464 45.4059 167 44.5762C166.94 44.4753 166.846 44.3988 166.736 44.3601C166.625 44.3213 166.504 44.3228 166.394 44.3642C165.099 44.9405 163.865 45.6472 162.713 46.4732C159.281 46.0732 153.919 45.8322 153.864 45.8302C153.731 45.8244 153.602 45.8714 153.504 45.9611C153.406 46.0507 153.348 46.1756 153.342 46.3082C153.336 46.4408 153.383 46.5703 153.473 46.6682C153.563 46.7661 153.687 46.8244 153.82 46.8302C153.876 46.8302 159.409 47.0172 162.783 47.4892C162.908 47.5052 163.033 47.473 163.135 47.3992C164.153 46.674 165.226 46.0284 166.343 45.4682C167.335 47.4592 166.968 48.0092 167.55 48.1302C167.55 48.1302 171.571 48.9782 172.823 49.2302C172.895 49.2454 172.969 49.2444 173.041 49.2271C173.112 49.2098 173.179 49.1767 173.236 49.1302C174.197 48.34 175.233 47.6451 176.329 47.0552C176.465 47.8012 176.694 49.1092 176.786 49.9422C176.795 50.0251 176.825 50.1044 176.873 50.1729C176.92 50.2414 176.984 50.2968 177.059 50.3342C177.059 50.3342 180.313 51.9682 181.117 52.3922C181.189 52.4304 181.27 52.4503 181.351 52.4502C181.433 52.4501 181.514 52.43 181.586 52.3916C181.658 52.3532 181.719 52.2978 181.765 52.23C181.811 52.1623 181.839 52.0844 181.848 52.0032C181.91 51.4262 182.011 50.7852 182.122 50.2572C182.691 51.5451 183.182 52.8661 183.592 54.2132C183.925 54.6782 186.885 58.7782 188.292 59.5662C188.408 59.6309 188.545 59.647 188.672 59.6109C188.735 59.593 188.794 59.5629 188.846 59.5222C188.897 59.4815 188.941 59.431 188.973 59.3737C189.005 59.3164 189.025 59.2533 189.033 59.1881C189.04 59.1229 189.035 59.0568 189.017 58.9936C188.999 58.9304 188.969 58.8713 188.929 58.8198C188.888 58.7683 188.837 58.7252 188.78 58.6932L188.787 58.6912Z"></path><path fill="#0e2238" d="M167.757 78.9571C166.692 78.2721 165.479 75.9571 165.037 74.9921C164.964 72.5598 164.611 70.144 163.987 67.7921C163.964 67.7048 163.919 67.6253 163.855 67.5619C163.79 67.4985 163.71 67.4537 163.623 67.432C163.535 67.4104 163.444 67.4129 163.357 67.4391C163.271 67.4653 163.194 67.5144 163.133 67.5811C162.569 68.3617 162.169 69.2481 161.957 70.1871C161.332 69.016 160.775 67.8096 160.289 66.5741C160.64 64.5491 159.702 59.0551 159.661 58.8161C159.647 58.7333 159.612 58.6554 159.559 58.5897C159.507 58.5239 159.439 58.4725 159.361 58.4401C158.501 58.0731 157.584 60.5691 157.284 61.4571C155.914 60.0471 153.084 54.2661 150.856 48.8161C150.821 48.7299 150.762 48.6553 150.686 48.6007C150.611 48.5461 150.522 48.5136 150.429 48.5071C150.336 48.5005 150.243 48.5201 150.16 48.5636C150.078 48.607 150.009 48.6727 149.962 48.7531C148.197 51.279 146.253 53.6754 144.146 55.9241C143.853 55.3756 143.501 54.8605 143.097 54.3881C143.03 54.3106 142.941 54.2554 142.842 54.23C142.743 54.2045 142.639 54.21 142.543 54.2458C142.447 54.2815 142.365 54.3458 142.307 54.4299C142.249 54.514 142.218 54.6139 142.218 54.7161C142.276 56.1187 142.215 57.5237 142.036 58.9161C141.339 60.1752 140.468 61.3293 139.448 62.3441C139.054 61.2304 138.513 60.1746 137.838 59.2051C137.776 59.1152 137.686 59.0482 137.582 59.0144C137.478 58.9805 137.366 58.9816 137.262 59.0176C137.159 59.0536 137.071 59.1224 137.01 59.2135C136.95 59.3046 136.921 59.413 136.928 59.5221C136.788 62.2243 136.386 64.9066 135.728 67.5311C135.562 68.1791 133.868 69.9991 132.428 71.3841C132.014 69.9712 131.525 68.5815 130.962 67.2211C130.926 67.1339 130.867 67.0586 130.79 67.0038C130.713 66.949 130.623 66.917 130.529 66.9114C130.435 66.9059 130.341 66.927 130.258 66.9725C130.176 67.0179 130.108 67.0857 130.062 67.1681C129.339 68.4491 128.594 74.8841 128.448 76.2011C127.4 77.1332 126.296 77.9988 125.14 78.7931C124.582 75.9641 122.365 66.5711 122.987 63.8011C123.002 63.7368 123.004 63.6702 122.993 63.6052C122.981 63.5402 122.958 63.478 122.922 63.4222C122.887 63.3664 122.841 63.3182 122.787 63.2802C122.733 63.2423 122.672 63.2154 122.608 63.2011C122.478 63.1735 122.343 63.1976 122.231 63.2685C122.119 63.3393 122.039 63.4511 122.008 63.5801C121.262 66.9061 124.008 77.7401 124.288 79.7221C124.3 79.8065 124.334 79.8864 124.385 79.9543C124.437 80.0221 124.505 80.0756 124.583 80.1097C124.661 80.1437 124.747 80.1572 124.832 80.1489C124.917 80.1406 124.998 80.1107 125.068 80.0621C126.561 79.0598 127.977 77.9484 129.306 76.7371C129.37 76.6606 129.411 76.5666 129.421 76.4671C129.674 74.1471 130.121 70.7831 130.546 68.9081C131.006 70.0468 131.368 71.2232 131.625 72.4241C131.637 72.5146 131.674 72.6 131.732 72.6709C131.789 72.7419 131.865 72.7958 131.951 72.8267C132.037 72.8576 132.13 72.8644 132.219 72.8463C132.309 72.8282 132.392 72.786 132.459 72.7241C133.106 72.1291 136.352 69.0861 136.688 67.7821C137.207 65.6071 137.597 63.4032 137.856 61.1821C138.266 61.8672 138.53 62.6299 138.63 63.4221C138.631 63.5213 138.662 63.6179 138.719 63.6995C138.775 63.7811 138.854 63.8441 138.947 63.8804C139.039 63.9168 139.14 63.9249 139.237 63.9036C139.334 63.8823 139.422 63.8327 139.491 63.7611C140.033 63.1931 142.749 60.2991 143.007 59.1341C143.163 58.2056 143.234 57.2646 143.217 56.3231C143.329 56.5105 143.405 56.717 143.442 56.9321C143.45 57.0289 143.486 57.1213 143.545 57.1981C143.604 57.2749 143.685 57.3327 143.777 57.3645C143.868 57.3963 143.967 57.4007 144.061 57.3772C144.156 57.3537 144.241 57.3033 144.307 57.2321C146.425 54.9558 148.422 52.5702 150.29 50.0851C151.071 51.9521 156.001 63.6531 157.79 62.6911C157.848 62.6597 157.9 62.617 157.942 62.5655C157.983 62.514 158.014 62.4547 158.033 62.3911C158.253 61.642 158.53 60.9109 158.862 60.2041C159.796 66.4871 159.117 66.3411 159.298 66.8091C159.947 68.5403 160.776 70.1982 161.773 71.7551C161.832 71.8304 161.912 71.8872 162.002 71.9186C162.093 71.9501 162.19 71.9548 162.283 71.9324C162.377 71.91 162.461 71.8613 162.527 71.7921C162.594 71.7229 162.639 71.6361 162.657 71.5421C162.811 70.7743 163.027 70.0205 163.304 69.2881C163.802 71.2536 164.058 73.2725 164.067 75.3001C164.13 75.4421 165.624 78.7921 167.21 79.8111C167.265 79.8471 167.327 79.8718 167.392 79.8839C167.457 79.8959 167.523 79.895 167.588 79.8812C167.652 79.8674 167.713 79.841 167.767 79.8035C167.822 79.7661 167.868 79.7182 167.904 79.6628C167.939 79.6073 167.964 79.5454 167.975 79.4805C167.987 79.4156 167.986 79.3491 167.971 79.2847C167.957 79.2203 167.93 79.1594 167.893 79.1054C167.855 79.0514 167.807 79.0054 167.751 78.9701L167.757 78.9571Z"></path><path fill="#0e2238" d="M129.8 40.1008C129.814 40.6798 129.789 41.259 129.728 41.8348C129.718 41.913 129.727 41.9923 129.754 42.0664C129.781 42.1404 129.825 42.2071 129.882 42.261C129.939 42.3149 130.009 42.3545 130.084 42.3765C130.16 42.3986 130.24 42.4024 130.317 42.3878C132.11 42.0845 133.871 41.6175 135.579 40.9928C136.471 40.2787 137.326 39.52 138.142 38.7198C138.205 39.2794 138.144 39.846 137.965 40.3798C137.932 40.4419 137.912 40.5103 137.907 40.5806C137.903 40.6508 137.913 40.7212 137.937 40.7873C137.961 40.8534 137.999 40.9136 138.048 40.964C138.097 41.0144 138.157 41.0539 138.222 41.0798C140.716 42.0848 147.469 45.0918 148.746 46.9248C148.823 47.0306 148.938 47.1019 149.067 47.1236C149.197 47.1452 149.329 47.1154 149.436 47.0405C149.544 46.9657 149.617 46.8517 149.641 46.7232C149.666 46.5946 149.639 46.4616 149.566 46.3528C148.055 44.1828 140.911 41.1118 139.035 40.3328C139.186 39.3731 139.178 38.3952 139.014 37.4378C138.998 37.3389 138.953 37.247 138.884 37.1742C138.815 37.1013 138.726 37.0508 138.628 37.0293C138.53 37.0077 138.428 37.0161 138.335 37.0533C138.242 37.0904 138.162 37.1547 138.106 37.2378C137.178 38.3092 136.149 39.2885 135.033 40.1618C133.649 40.6541 132.226 41.0282 130.779 41.2798C130.817 40.2722 130.797 39.2631 130.719 38.2578C130.71 38.1441 130.662 38.0369 130.584 37.954C130.506 37.8711 130.401 37.8175 130.288 37.8021C130.175 37.7867 130.06 37.8104 129.962 37.8693C129.865 37.9282 129.79 38.0187 129.751 38.1258C129.021 40.0918 125.487 43.7258 125.451 43.7638C123.989 44.8424 122.391 45.723 120.698 46.3828L120.947 43.0178C120.956 42.9058 120.927 42.7941 120.864 42.7008C120.802 42.6074 120.71 42.5378 120.603 42.5031C120.496 42.4684 120.38 42.4708 120.275 42.5097C120.17 42.5487 120.081 42.622 120.022 42.7178C118.882 44.5838 115.753 49.6008 114.962 50.4108C114.112 51.1309 113.149 51.7054 112.112 52.1108C111.989 52.1593 111.889 52.2549 111.836 52.3766C111.783 52.4982 111.781 52.6359 111.829 52.7593C111.878 52.8828 111.974 52.9819 112.095 53.0349C112.217 53.0878 112.355 53.0903 112.478 53.0418C113.648 52.5857 114.731 51.9307 115.678 51.1058C117.165 49.141 118.541 47.0948 119.8 44.9768L119.641 47.1198C119.635 47.2048 119.65 47.29 119.686 47.3673C119.722 47.4446 119.777 47.5114 119.846 47.5615C119.915 47.6116 119.995 47.6433 120.08 47.6535C120.164 47.6637 120.25 47.6521 120.329 47.6198C120.517 47.5418 124.952 45.7198 126.17 44.4548C127.489 43.0984 128.703 41.6428 129.8 40.1008V40.1008Z"></path></svg>