<svg xmlns="http://www.w3.org/2000/svg" fill="none" viewBox="0 0 200 200" height="700" width="700"><path fill="#ffffff" d="M126.714 172.824C124.169 172.612 62.079 169.21 62.079 169.053C61.848 166.591 44.843 15.7002 44.843 15.7002C50.343 14.9672 92.173 13.6942 107.862 14.7772H107.939C107.445 13.5019 106.563 12.4142 105.417 11.6683C104.271 10.9224 102.919 10.5561 101.553 10.6212C100.437 10.5422 88.816 10.4212 86.394 10.4672C79.084 10.6212 71.694 10.9292 64.311 11.1602C58.896 11.2832 47.586 11.4272 42.381 12.4682C41.1656 12.6973 39.9789 13.0584 38.842 13.5452C35.735 14.8652 35.071 18.0082 34.917 21.0862C34.687 26.5492 35.225 28.9342 35.841 34.0862C36.528 40.1482 41.741 83.6642 41.765 83.8702C45.391 111.263 50.514 165.77 52.076 179.745C52.933 179.745 51.95 191.353 57.232 194.288C62.324 197.055 118.132 183.711 123.26 182.455C123.851 182.27 124.386 181.939 124.815 181.492C125.244 181.045 125.553 180.497 125.714 179.899C126.464 177.619 126.803 175.223 126.714 172.824V172.824Z"></path><path fill="#def6f8" d="M126.714 172.824C123.075 129.462 110.514 20.1912 107.862 14.7772C92.173 13.6952 50.341 14.9672 44.843 15.7002C44.855 15.8002 62.079 168.6 62.079 169.13L126.714 172.824Z"></path><path fill="#0e2238" d="M86.78 170.861C86.78 170.861 62.274 169.561 62.052 169.552C61.9194 169.544 61.7951 169.485 61.7065 169.386C61.6179 169.287 61.5722 169.157 61.5795 169.024C61.5868 168.891 61.6465 168.767 61.7454 168.679C61.8443 168.59 61.9744 168.544 62.107 168.552C62.329 168.565 84.366 169.784 86.795 169.859C86.9279 169.861 87.0545 169.915 87.1471 170.011C87.2396 170.106 87.2905 170.234 87.2885 170.367C87.2865 170.5 87.2318 170.627 87.1365 170.719C87.0411 170.812 86.9129 170.863 86.78 170.861V170.861Z"></path><path fill="#00bac7" d="M135.409 133.119C135.024 130.888 134.563 128.58 134.178 126.271C133.87 124.424 134.408 122.578 134.178 120.731C134.024 119.731 133.178 119.192 132.87 118.346C132.617 117.445 132.565 116.5 132.716 115.576C133.09 113.729 133.219 111.84 133.1 109.959C129.792 112.19 125.483 112.959 121.636 113.113C117.325 113.353 116.782 112.697 105.228 112.113C103.602 119.371 104.103 116.8 102.091 124.043C101.074 127.856 99.422 130.143 99.167 135.743C99.044 137.708 98.367 139.985 100.322 140.821C103.022 141.948 109.062 142.674 112.248 143.129C113.787 143.36 115.711 143.822 117.248 143.437C117.714 143.241 118.126 142.935 118.448 142.546C118.771 142.156 118.994 141.695 119.1 141.2C123.967 141.071 129.228 139.581 133.874 137.891C136.371 137.39 135.988 135.436 135.409 133.119Z"></path><path fill="#ffffff" d="M130.515 65.6536L127.715 57.9426C125.145 56.8972 122.311 56.6873 119.615 57.3426C116.05 58.052 112.744 59.7158 110.051 62.1566C109.083 63.105 108.318 64.2407 107.803 65.4944C107.288 66.7481 107.034 68.0935 107.056 69.4486C107.176 71.2348 107.399 73.0127 107.722 74.7736C103.834 80.3626 103.331 81.0866 101.943 81.7626C101.447 81.985 101.015 82.3289 100.687 82.7626C100.359 83.1963 100.146 83.7056 100.067 84.2436C99.916 85.2116 99.311 85.7566 97.979 86.3616C96.3769 87.011 94.8171 87.7605 93.309 88.6056C92.8857 88.8384 92.5688 89.2259 92.4245 89.687C92.2803 90.148 92.3199 90.647 92.535 91.0796C92.9033 92.3028 93.5133 93.4395 94.329 94.4226C95.084 95.0646 96.86 95.3096 98.88 94.9886C101.844 94.3851 104.664 93.218 107.188 91.5506L107.316 92.7716C106.722 94.6946 105.837 96.5156 104.693 98.1716C102.552 101.518 101.135 104.772 102.22 106.946C103.305 109.12 104.633 109.388 104.633 109.388C104.395 110.427 104.534 111.517 105.025 112.463C105.378 113.397 106.01 114.199 106.835 114.76C107.661 115.322 108.64 115.614 109.638 115.599C111.255 115.716 112.873 115.382 114.311 114.634C114.647 114.453 114.913 114.164 115.066 113.814C115.219 113.464 115.25 113.073 115.155 112.704C117.735 113.175 120.366 113.298 122.979 113.072C127.986 112.772 132.985 110.632 133.405 109.454C133.825 108.276 130.515 65.6536 130.515 65.6536Z"></path><path fill="#00bac7" d="M148.531 93.4822C148.431 89.5592 145.739 87.7542 145.231 87.0312C144.723 86.3082 145.712 86.0452 146.122 85.0092C146.532 83.9732 145.279 81.6162 144.942 80.9422C144.605 80.2682 144.278 79.0082 143.488 76.9742C142.115 73.7124 140.251 70.68 137.96 67.9822C136.862 66.929 135.501 66.1908 134.02 65.8452C133.874 65.1862 133.661 64.2982 133.4 63.4212C132.888 61.7032 130.332 57.2652 127.428 57.4292L130.41 65.7952L125.24 66.4652C122.44 62.3902 118.058 59.1182 113.114 59.7152C111.549 60.6121 110.181 61.8146 109.091 63.2512C109.091 63.2512 110.572 62.9302 115.978 64.4512C119.05 65.3646 121.733 67.2707 123.606 69.8712C122.077 72.2472 122.192 78.5712 122.272 81.9422C122.357 85.5662 122.442 91.2802 120.481 96.2692C118.52 101.258 119.581 105.479 123.892 107.696C127.888 109.568 132.37 110.145 136.71 109.345C140.012 108.559 142.953 106.686 145.062 104.026C147.195 100.912 148.398 97.2548 148.531 93.4822V93.4822Z"></path><path fill="#00bac7" d="M165.5 22.1623C166.124 24.6993 164.81 24.5563 161.5 25.6253C159.577 26.2453 156.415 27.4923 154.421 26.9333C152.568 26.4143 151.65 24.4713 149.573 24.7013C148.188 24.8553 146.803 26.0863 145.726 27.0103C142.45 29.4673 140.959 27.3913 142.956 25.3943C144.542 23.8674 146.394 22.642 148.419 21.7783C151.958 20.6233 153.357 24.9933 156.806 24.1633C162.705 22.7423 165.061 20.3993 165.5 22.1623Z"></path><path fill="#00bac7" d="M155.723 5.46571C157.704 7.40871 156.466 8.05871 153.876 11.0057C152.399 12.6857 150.106 15.6257 147.876 16.3147C145.876 16.9327 143.804 15.6297 142.028 17.0847C140.185 18.5947 139.763 21.9777 138.688 23.4337C137.725 24.7337 135.177 24.2487 136.103 21.4707C136.257 20.8547 136.503 20.3217 136.719 19.7007C137.27 17.9936 138.131 16.4025 139.258 15.0067C141.932 11.8367 145.858 15.0667 148.646 12.3907C150.352 10.7458 151.898 8.94237 153.262 7.00471C153.8 6.23871 154.79 4.55171 155.723 5.46571Z"></path><path fill="#def6f8" d="M143.8 86.8751C144.233 87.7401 143.457 88.1041 143.107 88.3371C142.569 88.5681 140.953 89.1831 140.414 88.7221C140.115 88.1728 139.928 87.5699 139.863 86.9481C139.835 86.8139 139.861 86.674 139.936 86.5592C140.011 86.4445 140.129 86.3642 140.263 86.3361C141.613 86.0561 142.965 85.7681 143.8 86.8751Z"></path><path fill="#0e2238" d="M142.526 85.6108C141.806 85.5472 141.08 85.6108 140.382 85.7988C139.672 86.0538 139.216 86.3128 139.37 87.0518C139.67 88.4888 139.77 89.3858 141.021 89.3858C141.878 89.3097 142.714 89.0722 143.483 88.6858C145.248 87.5788 144.291 85.8648 142.526 85.6108ZM142.951 87.8408C142.277 88.194 141.525 88.375 140.764 88.3678C140.562 87.8739 140.427 87.3549 140.364 86.8248C141.435 86.5968 142.69 86.2818 143.371 87.1388C143.5 87.4238 143.421 87.5448 142.951 87.8408V87.8408Z"></path><path fill="#def6f8" d="M160.262 43.4765L162.417 46.2465L159.108 45.2465L157.185 48.1705L157.031 44.6305L153.722 43.6305L156.954 42.4765L156.877 38.9365L158.954 41.7835L162.186 40.5525L160.262 43.4765Z"></path><path fill="#0e2238" d="M149.259 173.438C150.183 175.054 151.101 176.672 151.875 178.363C152.334 179.363 153.02 180.591 152.645 181.825C152.014 183.898 148.491 183.451 146.874 183.595C144.105 183.842 141.333 183.576 138.564 183.672C136.716 183.736 134.399 184.159 132.639 183.518C131.014 182.926 130.797 180.597 131.562 179.209C132.491 177.52 134.875 176.604 136.486 175.9C137.846 175.287 139.306 174.922 140.795 174.823C143.515 179.775 148.19 175.479 149.259 173.438Z"></path><path fill="#def6f8" d="M145.412 40.3228L147.797 43.5538L144.027 42.3998L141.795 45.7088L141.641 41.7078L137.794 40.5528L141.565 39.1678L141.411 35.0898L143.873 38.3218L147.643 36.9368L145.412 40.3228Z"></path><path fill="#0e2238" d="M104.63 171.285C104.63 172.518 105.554 172.985 105.554 178.056C105.59 178.467 105.533 178.882 105.386 179.268C105.24 179.655 105.007 180.003 104.707 180.287C104.023 180.716 103.243 180.968 102.438 181.022C101.632 181.076 100.826 180.929 100.091 180.595C99.1492 179.975 98.173 179.41 97.167 178.902C96.3588 178.648 95.5364 178.443 94.704 178.287C91.462 177.645 85.849 176.054 86.548 171.823C86.6401 171.352 86.7688 170.889 86.933 170.438C87.01 170.361 87.01 170.207 87.087 170.131C88.01 168.284 89.862 169.419 91.242 169.823C93.2503 170.415 95.4035 170.279 97.321 169.438C97.6074 170.125 98.0562 170.732 98.629 171.208C101.731 173.867 104.146 171.429 104.63 171.285Z"></path><path fill="#00bac7" d="M140.641 174.824C141.055 174.81 141.467 174.758 141.872 174.67C141.779 174.111 141.728 173.545 141.718 172.978C141.3 171.306 139.044 167.026 137.332 163.278C139.888 163.235 142.344 162.28 144.258 160.585C144.645 160.585 145.804 168.152 149.105 173.435C149.45 174.315 143.8 180.4 140.641 174.824Z"></path><path fill="#00bac7" d="M101.091 160.199C102.978 160.92 105.021 161.132 107.016 160.815C107.016 161.074 106.491 162.837 106.246 163.815C105.543 165.973 105.028 168.187 104.707 170.432V171.279C104.272 171.413 101.864 173.779 98.783 171.125C98.2026 170.657 97.7519 170.048 97.474 169.355C97.7557 169.248 98.0163 169.091 98.244 168.893C98.321 165.508 98.552 162.122 98.783 158.813C99.4386 159.443 100.227 159.916 101.091 160.199Z"></path><path fill="#ffffff" d="M139.949 147.277C141.949 151.51 144.258 160.588 144.258 160.588C142.376 162.335 139.899 163.298 137.332 163.281C135.698 159.332 133.742 155.523 131.485 151.893C129.249 148.456 123.251 141.509 123.251 141.121L123.174 140.813C126.837 140.021 133.164 138.041 133.793 137.813C134.886 141.089 138.7 144.636 139.949 147.277Z"></path><path fill="#0e2238" fill-rule="evenodd" d="M133.635 137.339C133.897 137.252 134.18 137.393 134.267 137.655C134.783 139.202 135.957 140.845 137.209 142.48C137.389 142.715 137.572 142.95 137.753 143.185C138.804 144.543 139.843 145.885 140.401 147.064C141.419 149.219 142.506 152.581 143.333 155.379C143.748 156.783 144.1 158.054 144.349 158.974C144.473 159.434 144.571 159.806 144.639 160.064C144.672 160.193 144.698 160.293 144.716 160.361L144.736 160.438L144.742 160.465C144.742 160.465 144.743 160.465 144.258 160.589L143.773 160.712L143.767 160.686L143.747 160.61C143.73 160.543 143.705 160.444 143.671 160.317C143.604 160.061 143.507 159.692 143.383 159.234C143.136 158.32 142.786 157.057 142.374 155.662C141.546 152.863 140.479 149.569 139.497 147.491C138.99 146.42 138.034 145.183 136.976 143.815C136.792 143.576 136.604 143.334 136.416 143.088C135.176 141.469 133.896 139.701 133.319 137.972C133.231 137.71 133.373 137.427 133.635 137.339ZM144.381 161.073C144.114 161.141 143.841 160.979 143.773 160.712L144.258 160.589L144.742 160.465C144.811 160.732 144.649 161.005 144.381 161.073Z" clip-rule="evenodd"></path><path fill="#ffffff" d="M122.867 53.7881C122.755 53.3411 122.79 53.4771 122.79 46.4331L111.79 43.2471C111.439 43.7421 110.96 44.1325 110.405 44.3765C109.849 44.6204 109.238 44.7088 108.636 44.6321C108.136 45.6381 108.105 45.6961 107.405 47.1711C106.672 48.7658 106.562 50.5774 107.097 52.2491C107.481 53.5571 108.097 55.8661 109.482 56.5581C110.559 57.0971 112.021 56.0961 113.022 56.6351C113.637 57.0201 113.868 58.0201 114.099 58.6351L114.407 59.1731C115.411 58.6511 116.469 58.2384 117.561 57.9421C120.067 57.3161 120.817 56.7891 123.561 56.9421V56.7111C123.249 55.7578 123.016 54.78 122.867 53.7881Z"></path><path fill="#ffffff" d="M114.172 127.809C113.89 129.209 112.292 128.952 110.94 128.502C110.64 129.002 107.972 128.702 106.477 126.039C105.862 124.424 106.554 122.269 106.862 120.653C106.874 120.553 107.375 117.676 107.4 117.575C109.171 117.946 111.011 117.813 112.71 117.191L112.864 117.498C113.633 118.576 113.525 120.206 114.095 121.423C114.387 122.046 115.018 122.808 114.864 123.5C114.71 124.192 113.325 123.731 113.248 124.577C113.325 125.655 114.418 126.581 114.172 127.809Z"></path><path fill="#ffffff" d="M100.244 140.736C103.088 141.684 106.031 142.303 109.016 142.583C108.724 144.046 109.624 145.966 109.016 151.432C108.478 154.586 107.785 157.741 106.939 160.819C104.944 161.136 102.901 160.924 101.014 160.203C100.097 159.901 99.2562 159.402 98.552 158.741C98.783 155.971 99.019 153.202 99.321 150.431C99.842 145.657 99.787 141.651 100.244 140.736Z"></path><path fill="#0e2238" fill-rule="evenodd" d="M108.48 143.85C108.445 143.366 108.439 142.918 108.526 142.485L109.506 142.681C109.447 142.98 109.444 143.321 109.477 143.779C109.495 144.028 109.52 144.282 109.549 144.567C109.575 144.831 109.604 145.123 109.633 145.465C109.748 146.838 109.821 148.717 109.513 151.487C109.512 151.497 109.511 151.507 109.509 151.516C108.968 154.686 108.272 157.857 107.421 160.952L106.457 160.687C107.297 157.63 107.986 154.496 108.521 151.363C108.819 148.675 108.746 146.865 108.636 145.548C108.611 145.251 108.583 144.961 108.556 144.689C108.525 144.381 108.497 144.096 108.48 143.85Z" clip-rule="evenodd"></path><path fill="#ffffff" d="M85.779 81.9492C85.711 79.2422 87.109 79.3912 87.471 81.5652C87.7123 82.9276 88.0731 84.2661 88.549 85.5652C89.312 87.0912 90.088 87.2462 90.088 85.2572C90.1636 83.9879 90.3436 82.727 90.626 81.4872C90.712 81.1042 91.011 80.3322 91.473 80.3322C92.618 80.1692 92.002 85.2472 92.704 85.9502C92.858 86.1032 93.165 85.1802 93.165 85.1032C93.419 84.2592 94.224 82.1702 95.012 82.5642C95.474 82.7952 95.474 83.6412 95.474 84.0262C95.3283 85.4997 94.9922 86.9481 94.474 88.3352C93.7264 88.5881 93.0792 89.0734 92.627 89.7202C92.5108 90.0622 92.4713 90.4255 92.5112 90.7844C92.5511 91.1434 92.6695 91.4891 92.858 91.7972C93.1367 92.8563 93.6655 93.833 94.4 94.6452L94.092 94.7992C91.63 96.4152 87.009 95.8992 85.628 95.6462C84.856 95.5042 82.858 95.0302 83.012 93.8762C83.335 92.1492 87.464 93.5822 87.321 92.7992C87.236 92.3382 86.238 91.8052 85.936 91.5682C84.6062 90.5102 83.5284 89.1694 82.781 87.6432C82.55 87.1052 82.165 86.2582 82.627 85.7202C82.935 85.4122 83.396 85.6432 83.704 85.8742C84.3575 86.532 84.9741 87.2254 85.551 87.9512C85.782 88.1822 86.32 88.6442 86.628 88.3362C87.187 87.2122 85.874 85.7762 85.779 81.9492Z"></path><path fill="#0e2238" fill-rule="evenodd" d="M86.4399 80.7228C86.3542 80.9008 86.2743 81.2395 86.2767 81.7905C86.2777 82.0304 86.3809 82.4778 86.556 83.1051C86.6104 83.3002 86.6707 83.5094 86.7336 83.7272C86.8613 84.1702 86.9992 84.6483 87.1181 85.1134C87.2955 85.8079 87.4451 86.5267 87.4658 87.1413C87.4851 87.716 87.3997 88.4001 86.877 88.7794C86.5433 89.0216 86.1755 88.94 85.9545 88.8482C85.7264 88.7535 85.5235 88.5989 85.3831 88.4777C84.9775 88.1277 84.6268 87.7175 84.3043 87.3281C84.2554 87.269 84.2073 87.2106 84.1597 87.1528C83.8938 86.8301 83.6446 86.5275 83.3759 86.2538C83.2539 86.1658 83.1355 86.1033 83.0441 86.0804C83.0141 86.0729 82.9955 86.0719 82.9861 86.0721C82.9142 86.1734 82.8847 86.3285 82.9349 86.5865C82.9878 86.8584 83.1088 87.1398 83.2263 87.4133C83.2293 87.4204 83.2324 87.4275 83.2355 87.4346C83.9498 88.8891 84.9779 90.1669 86.2458 91.176C86.3 91.2184 86.3939 91.2803 86.537 91.3745L86.5429 91.3785C86.6799 91.4687 86.8461 91.5788 87.0074 91.6981C87.1667 91.8161 87.3368 91.9544 87.4773 92.1054C87.6087 92.2467 87.7654 92.4524 87.8127 92.7088C87.841 92.8635 87.8219 93.0434 87.7128 93.2034C87.6131 93.3495 87.4751 93.4251 87.3726 93.4653C87.1796 93.5409 86.947 93.5538 86.7572 93.5552C86.5214 93.557 86.2109 93.5369 85.8959 93.5166C85.7001 93.504 85.5025 93.4912 85.3202 93.4836C84.797 93.4615 84.3245 93.4736 83.9768 93.5711C83.654 93.6617 83.5413 93.7898 83.5061 93.9554C83.4936 94.0727 83.5276 94.1778 83.6281 94.296C83.7429 94.4309 83.9338 94.5661 84.1914 94.6914C84.7055 94.9413 85.3436 95.0858 85.7184 95.1547C88.4519 95.6555 91.1292 95.5364 93.6038 94.4651C93.0491 93.7264 92.6376 92.8881 92.3929 91.9936C92.1885 91.6396 92.0595 91.2468 92.0143 90.84C91.9662 90.4082 92.0138 89.971 92.1536 89.5596C92.1688 89.515 92.1902 89.4727 92.2172 89.434C92.6835 88.767 93.3325 88.2513 94.0836 87.9473C94.5398 86.6735 94.8388 85.3485 94.974 84.0018C94.9738 83.8075 94.9707 83.5592 94.926 83.3359C94.8847 83.1296 94.8289 83.05 94.8024 83.0232C94.7889 83.0304 94.7684 83.0431 94.7408 83.0653C94.6231 83.1604 94.4777 83.3468 94.3221 83.6183C94.0256 84.1358 93.7794 84.8052 93.6543 85.213C93.653 85.2198 93.6519 85.225 93.6513 85.2281L93.651 85.2295C93.646 85.2531 93.6401 85.2768 93.6343 85.2982C93.6226 85.3417 93.6072 85.3925 93.5897 85.4458C93.5546 85.5525 93.5061 85.685 93.4509 85.8123C93.3998 85.93 93.3276 86.0799 93.2388 86.1965C93.2005 86.2467 93.1153 86.3512 92.9787 86.4146C92.9009 86.4508 92.7897 86.4811 92.6595 86.4614C92.5262 86.4411 92.4228 86.3759 92.3516 86.3052L92.3502 86.3038C92.1618 86.1151 92.0685 85.8451 92.0121 85.6243C91.9505 85.3835 91.9095 85.0999 91.8791 84.8043C91.8349 84.3744 91.8092 83.873 91.7839 83.3797C91.7747 83.1992 91.7655 83.0198 91.7554 82.8454C91.7167 82.1718 91.6658 81.575 91.5642 81.1622C91.528 81.0152 91.4913 80.918 91.4615 80.8579C91.4279 80.8899 91.3851 80.9431 91.3382 81.0219C91.2284 81.2067 91.1484 81.4431 91.1138 81.597L91.1135 81.5986C90.8383 82.8069 90.6625 84.0357 90.588 85.2727C90.587 85.7848 90.5377 86.2084 90.4266 86.5249C90.3213 86.825 90.0908 87.1986 89.6376 87.2285C89.2487 87.2542 88.9393 86.9949 88.7414 86.7772C88.5189 86.5324 88.3034 86.1924 88.1018 85.7891C88.0934 85.7723 88.086 85.7551 88.0795 85.7375C87.6125 84.4627 87.2541 83.1508 87.0081 81.8159C86.9238 81.3581 86.7884 81.031 86.6552 80.8294C86.5808 80.7168 86.5222 80.6637 86.4877 80.639C86.475 80.6568 86.4588 80.6834 86.4399 80.7228ZM87.4895 80.2781C87.7158 80.6206 87.89 81.0836 87.9916 81.6347C88.2256 82.9049 88.5658 84.1533 89.0087 85.3667C89.1838 85.7132 89.3469 85.9567 89.4813 86.1045C89.4889 86.1129 89.4963 86.1208 89.5034 86.1282C89.5511 85.9557 89.588 85.6752 89.588 85.2575C89.588 85.2476 89.5883 85.2377 89.5889 85.2278C89.6661 83.9311 89.85 82.643 90.1385 81.3764C90.1901 81.1474 90.3025 80.8071 90.4788 80.5108C90.6294 80.2575 90.9379 79.8514 91.438 79.8331C91.7877 79.797 92.0564 79.9738 92.2249 80.197C92.3806 80.4033 92.4729 80.6701 92.5352 80.9232C92.662 81.4386 92.7157 82.1246 92.7538 82.788C92.7648 82.9788 92.7745 83.1683 92.784 83.3545C92.804 83.7445 92.8233 84.12 92.8517 84.4618C93.0008 84.0488 93.2087 83.5499 93.4544 83.1211C93.6303 82.8142 93.8498 82.4995 94.1126 82.2873C94.386 82.0665 94.7958 81.8974 95.2356 82.1173C95.6878 82.3434 95.8433 82.8238 95.9065 83.1396C95.9741 83.4771 95.974 83.8255 95.974 84.0155L95.974 84.0265C95.974 84.0429 95.9732 84.0593 95.9716 84.0757C95.8216 85.5922 95.4757 87.0829 94.9424 88.5105C94.8898 88.6513 94.7766 88.761 94.6342 88.8091C94.0106 89.0201 93.4678 89.418 93.0791 89.9478C93.0031 90.2007 92.9789 90.4666 93.0081 90.7295C93.0399 91.0155 93.1343 91.291 93.2845 91.5365C93.3099 91.5781 93.3291 91.6231 93.3415 91.6703C93.5998 92.6519 94.09 93.5572 94.7709 94.3101C94.8757 94.4261 94.9203 94.5843 94.8914 94.738C94.8625 94.8916 94.7634 95.0228 94.6236 95.0927C91.7489 96.53 88.6362 96.7059 85.5379 96.1383C85.1408 96.0653 84.3935 95.9016 83.7541 95.5906C83.435 95.4354 83.107 95.2268 82.8664 94.9439C82.615 94.6484 82.4557 94.2649 82.5164 93.8104C82.5175 93.8017 82.5189 93.7931 82.5205 93.7846C82.6499 93.093 83.1772 92.7569 83.7066 92.6083C84.2194 92.4644 84.8307 92.462 85.3623 92.4844C85.6057 92.4947 85.8257 92.5093 86.0259 92.5226C86.1881 92.5334 86.3373 92.5433 86.4754 92.5494C86.455 92.5337 86.434 92.5179 86.4124 92.5019C86.2757 92.4007 86.1305 92.3043 85.9928 92.2135C85.9822 92.2066 85.9716 92.1996 85.9609 92.1925C85.8423 92.1145 85.7156 92.0311 85.6273 91.9618L85.6247 91.9598C84.2368 90.8555 83.112 89.4562 82.332 87.8634C82.3283 87.8559 82.3248 87.8484 82.3216 87.8408C82.3141 87.8235 82.3064 87.8056 82.2984 87.787C82.1885 87.5323 82.0276 87.1593 81.9533 86.7775C81.8732 86.3659 81.8719 85.8324 82.2477 85.3948C82.2559 85.3852 82.2645 85.3759 82.2734 85.3669C82.5896 85.0508 82.9836 85.0344 83.2869 85.1103C83.573 85.182 83.8278 85.3424 84.004 85.4745C84.0234 85.489 84.0417 85.5049 84.0587 85.5221C84.3733 85.8388 84.6638 86.1917 84.9369 86.5234C84.9833 86.5798 85.0291 86.6355 85.0745 86.6903C85.3957 87.0782 85.7002 87.4305 86.0365 87.7207C86.1456 87.8148 86.2527 87.8887 86.3355 87.9237C86.4066 87.8297 86.4813 87.6176 86.4664 87.1749C86.4495 86.674 86.3233 86.0424 86.1492 85.361C86.0339 84.9098 85.9042 84.4601 85.7789 84.0261C85.7148 83.804 85.6519 83.5859 85.5928 83.374C85.428 82.7834 85.2784 82.1965 85.2767 81.7948C85.274 81.1696 85.3605 80.6595 85.5389 80.289C85.7179 79.9173 86.0502 79.5902 86.5274 79.6212C86.9515 79.6487 87.2758 79.9547 87.4895 80.2781Z" clip-rule="evenodd"></path><path fill="#00bac7" d="M69.7 14.7759C73.7 14.6989 77.625 14.5459 81.011 14.5459C80.7283 15.2752 80.3672 15.9716 79.934 16.6229C79.2991 17.8655 78.1979 18.8061 76.8712 19.2389C75.5445 19.6716 74.1005 19.5612 72.855 18.9319C71.718 18.3559 70.593 17.2999 69.7 14.7759Z"></path><path fill="#00bac7" d="M61.541 96.9543C62.004 100.466 59.23 100.742 58.541 97.7233C58.284 96.6003 56.927 85.2683 56.925 85.2583C56.264 82.4213 59.444 82.4913 59.695 84.0273C59.909 85.3383 60.366 88.8773 60.541 90.1833C60.883 92.7283 61.206 94.4183 61.541 96.9543Z"></path><path fill="#00bac7" d="M107.247 115.114C109.531 116.306 113.235 115.037 113.633 115.037C113.733 115.448 113.71 115.12 113.71 116.73L113.479 116.961C113.282 117.079 113.076 117.182 112.864 117.269C111.17 117.916 109.323 118.05 107.554 117.653C106.807 117.653 107.029 116.409 106.939 115.96C106.939 115.484 106.862 115.674 106.862 115.345L107.016 115.114H107.247Z"></path><path fill="#0e2238" d="M117.224 99.3779C117.158 99.3746 117.094 99.3584 117.035 99.3302C116.975 99.302 116.922 99.2624 116.878 99.2137C116.834 99.1649 116.8 99.108 116.778 99.0461C116.756 98.9842 116.747 98.9185 116.75 98.8529C116.999 92.1628 117.643 85.4932 118.678 78.8789C118.691 78.6873 118.722 78.4972 118.769 78.3109C118.749 78.2152 118.755 78.1161 118.786 78.0234C118.817 77.9308 118.872 77.848 118.946 77.7834C119.019 77.7187 119.108 77.6746 119.204 77.6554C119.299 77.6362 119.398 77.6426 119.491 77.674C120.05 77.909 119.673 78.5849 119.673 78.9489C118.642 85.5559 117.999 92.2177 117.749 98.9C117.746 98.9659 117.73 99.0306 117.702 99.0904C117.674 99.1502 117.635 99.2039 117.586 99.2483C117.537 99.2927 117.48 99.3271 117.418 99.3493C117.356 99.3716 117.29 99.3813 117.224 99.3779V99.3779Z"></path><path fill="#0e2238" d="M139.664 88.5242C139.632 88.3956 139.55 88.285 139.436 88.2167C139.323 88.1485 139.187 88.1281 139.058 88.1602C137.473 88.5602 135.708 89.0362 134.728 87.7242C133.345 85.9242 134.089 82.3152 131.102 75.2242C130.461 73.5909 129.51 72.0969 128.302 70.8242C127.948 70.4733 127.573 70.1457 127.177 69.8432C127.001 69.6626 126.789 69.5197 126.556 69.4232C126.497 69.3914 126.432 69.3718 126.366 69.3655C126.299 69.3592 126.232 69.3664 126.168 69.3866C126.104 69.4067 126.045 69.4396 125.994 69.483C125.943 69.5265 125.901 69.5798 125.871 69.6397C125.842 69.6996 125.824 69.7649 125.82 69.8317C125.815 69.8985 125.825 69.9655 125.847 70.0287C125.869 70.0919 125.904 70.15 125.949 70.1995C125.994 70.2491 126.048 70.2891 126.109 70.3172C126.492 70.5082 126.359 70.4702 126.489 70.5732C126.874 70.8651 127.239 71.1814 127.583 71.5202C128.705 72.7012 129.588 74.088 130.183 75.6042C131.457 78.6745 132.34 81.8927 132.811 85.1832C132.937 86.2175 133.257 87.2189 133.753 88.1352C133.971 90.1275 134.019 92.1347 133.897 94.1352C132.879 94.3582 125.508 94.8522 121.919 92.4602C121.809 92.3866 121.674 92.3598 121.544 92.3858C121.413 92.4118 121.299 92.4884 121.225 92.5987C121.152 92.709 121.125 92.8441 121.151 92.9741C121.177 93.1042 121.254 93.2186 121.364 93.2922C123.802 94.9172 127.773 95.3382 130.705 95.3382C131.76 95.3486 132.814 95.2837 133.859 95.1442C133.783 99.077 133.267 102.989 132.322 106.807C132.302 106.87 132.295 106.936 132.301 107.001C132.307 107.067 132.325 107.13 132.356 107.188C132.386 107.247 132.428 107.298 132.478 107.34C132.528 107.383 132.586 107.414 132.649 107.434C132.712 107.454 132.778 107.461 132.843 107.455C132.908 107.45 132.972 107.431 133.03 107.401C133.088 107.37 133.14 107.329 133.182 107.278C133.224 107.228 133.256 107.17 133.276 107.107C134.718 102.507 135.127 92.9362 134.876 89.1662C136.162 89.9162 137.876 89.4882 139.303 89.1292C139.431 89.0964 139.541 89.0144 139.608 88.9011C139.676 88.7877 139.696 88.6523 139.664 88.5242V88.5242Z"></path><path fill="#0e2238" d="M120.756 95.5623C120.644 95.4935 120.564 95.3836 120.533 95.2563C120.502 95.129 120.521 94.9944 120.588 94.8817C120.655 94.7689 120.764 94.6869 120.89 94.6534C121.017 94.6198 121.152 94.6374 121.266 94.7023C124.083 96.1254 127.231 96.7657 130.38 96.5563C130.513 96.5515 130.642 96.5996 130.739 96.69C130.836 96.7804 130.893 96.9057 130.898 97.0383C130.903 97.1709 130.855 97.3 130.764 97.3971C130.674 97.4943 130.549 97.5515 130.416 97.5563C127.244 97.6683 123.466 97.1703 120.756 95.5623Z"></path><path fill="#0e2238" d="M109.489 124.838C109.385 124.822 109.288 124.774 109.213 124.7C109.138 124.626 109.088 124.531 109.071 124.427C109.053 124.323 109.069 124.216 109.116 124.122C109.162 124.027 109.238 123.95 109.331 123.901C109.414 123.861 109.5 123.827 109.589 123.801C110.435 123.253 111.095 122.462 111.483 121.532C111.537 121.411 111.637 121.316 111.761 121.269C111.885 121.221 112.022 121.225 112.143 121.279C112.265 121.333 112.359 121.432 112.407 121.556C112.455 121.68 112.451 121.818 112.397 121.939C111.912 123.133 111.033 124.125 109.906 124.749C109.846 124.791 109.778 124.821 109.707 124.836C109.635 124.851 109.561 124.852 109.489 124.838Z"></path><path fill="#0e2238" d="M113.017 128.31C112.909 128.31 112.804 128.275 112.717 128.21C111.75 127.318 111.034 126.187 110.64 124.932C110.595 124.812 110.597 124.678 110.648 124.56C110.698 124.442 110.792 124.347 110.911 124.296C111.029 124.246 111.162 124.242 111.283 124.287C111.403 124.332 111.502 124.422 111.558 124.538C111.898 125.631 112.506 126.62 113.327 127.417C113.409 127.481 113.468 127.57 113.498 127.669C113.527 127.769 113.524 127.876 113.49 127.974C113.456 128.072 113.392 128.158 113.307 128.218C113.223 128.278 113.121 128.31 113.017 128.31Z"></path><path fill="#0e2238" d="M149.4 173.066C149.281 173.008 149.143 173.001 149.018 173.044C148.893 173.088 148.791 173.18 148.733 173.299C147.303 176.27 144.033 177.657 142.209 176.099C142.065 175.488 142.051 174.854 142.167 174.238C142.38 173.145 142.162 172.012 141.558 171.077C140.94 169.723 137.284 161.988 137.179 161.777C135.686 158.262 133.924 154.867 131.908 151.623C129.932 148.518 127.252 145.723 123.721 140.989C123.68 140.879 123.602 140.787 123.5 140.728C123.399 140.67 123.28 140.649 123.164 140.67C123.049 140.691 122.944 140.751 122.869 140.841C122.793 140.931 122.752 141.044 122.752 141.162C122.752 141.445 122.774 141.388 123.761 142.715C125.988 145.715 129.127 149.115 131.061 152.154C133.053 155.363 134.795 158.722 136.27 162.2C136.297 162.254 140.209 170.532 140.67 171.535C141.414 172.835 141.238 173.31 141.128 174.616C141.082 174.55 141.021 174.496 140.95 174.459C140.878 174.422 140.799 174.403 140.719 174.403C140.607 174.411 140.5 174.453 140.413 174.524C140.325 174.594 140.261 174.689 140.229 174.797C140.197 174.905 140.199 175.02 140.234 175.127C140.269 175.233 140.336 175.327 140.425 175.395C142.449 179.443 147.654 177.846 149.634 173.735C149.663 173.676 149.679 173.611 149.683 173.545C149.687 173.48 149.678 173.414 149.656 173.352C149.634 173.29 149.6 173.232 149.557 173.183C149.513 173.134 149.459 173.094 149.4 173.066Z"></path><path fill="#0e2238" d="M130.884 65.4085C130.329 63.6625 129.711 61.6655 129.029 59.9985C128.702 59.051 128.277 58.1404 127.76 57.2815C127.658 57.1877 127.525 57.1349 127.387 57.1335C127.249 57.132 127.115 57.1819 127.011 57.2735C126.022 56.8983 124.986 56.6578 123.933 56.5585C123.555 55.4108 123.313 54.2227 123.213 53.0185V52.6335C123.213 52.5009 123.16 52.3737 123.067 52.2799C122.973 52.1861 122.846 52.1335 122.713 52.1335C122.58 52.1335 122.453 52.1861 122.359 52.2799C122.266 52.3737 122.213 52.5009 122.213 52.6335C122.251 53.9469 122.471 55.2487 122.867 56.5015C120.04 56.5982 117.258 57.2435 114.677 58.4015C114.61 58.2375 114.562 58.0855 114.511 57.9305C113.911 56.0865 113.361 55.5655 111.272 55.9515C110.79 56.1039 110.274 56.1088 109.789 55.9655C108.651 55.3655 107.989 53.0565 107.644 51.9395C107.199 50.3703 107.305 48.6961 107.944 47.1955C108.324 46.2465 109.13 44.8655 109.13 44.6345C109.095 44.5345 109.208 43.9805 108.63 43.9805C108.497 43.9805 108.37 44.0331 108.276 44.1269C108.183 44.2207 108.13 44.3479 108.13 44.4805C107.43 45.9125 107.267 46.1965 107.016 46.8225C106.294 48.538 106.178 50.4484 106.688 52.2385C107.104 53.5635 107.809 56.0495 109.329 56.8545C110.008 57.1141 110.754 57.1426 111.451 56.9355C112.93 56.6615 113.083 56.7905 113.558 58.2415C113.623 58.4539 113.699 58.6626 113.787 58.8665C110.918 60.2033 108.605 62.5002 107.249 65.3605C105.949 68.2785 106.71 71.3905 107.101 74.2445C106.201 75.5995 104.775 78.5585 102.45 80.8865C101.765 81.4945 100.663 81.8695 100.139 82.7455C99.42 83.7845 99.598 84.8285 98.751 85.3735C94.888 87.7355 93.478 87.3195 92.071 89.1935C91.8924 89.6061 91.8146 90.0552 91.844 90.5039C91.8734 90.9525 92.0091 91.3877 92.24 91.7735C92.5514 92.906 93.1307 93.9469 93.929 94.8085C94.3697 95.1909 94.9094 95.4411 95.486 95.5305C99.086 95.9875 103.736 94.3535 106.741 92.3865C106.997 96.6775 107.43 96.9225 105.582 102.696C104.537 105.958 103.455 109.443 104.555 112.709C104.481 112.918 104.433 113.134 104.412 113.354C104.394 113.391 104.38 113.43 104.371 113.469C103.932 115.454 101.616 123.448 101.53 123.759C100.93 126.017 99.915 128.212 99.295 130.544C98.8689 132.508 98.6014 134.503 98.495 136.509C98.295 138.209 98.163 139.93 99.595 140.88C99.4424 141.572 99.3623 142.277 99.356 142.985C99.204 145.739 99.117 147.704 98.82 150.379C98.247 155.547 97.62 163.679 97.504 169.096C97.4162 169.091 97.3283 169.108 97.2494 169.147C97.1704 169.186 97.1031 169.245 97.0543 169.318C97.0055 169.391 96.9769 169.476 96.9714 169.564C96.9659 169.652 96.9837 169.74 97.023 169.818C97.3294 170.506 97.7928 171.113 98.376 171.589C100.234 173.182 102.924 173.504 104.714 171.751C104.798 171.718 104.871 171.662 104.926 171.591C104.981 171.519 105.016 171.433 105.026 171.343C105.526 166.918 106.683 164.285 107.426 161.088C107.441 161.024 107.443 160.958 107.432 160.893C107.421 160.829 107.398 160.767 107.363 160.711C107.328 160.655 107.282 160.607 107.229 160.569C107.176 160.53 107.115 160.503 107.051 160.488C106.987 160.474 106.921 160.472 106.856 160.483C106.791 160.493 106.729 160.517 106.673 160.552C106.618 160.587 106.569 160.632 106.531 160.685C106.493 160.739 106.466 160.799 106.451 160.863C105.705 164.096 104.602 166.563 104.066 170.992L104.046 171.01C102.591 172.466 100.422 172.022 98.996 170.803C98.8046 170.662 98.6342 170.493 98.49 170.303C98.582 159.417 100.051 150.585 100.28 144.103C100.31 143.173 100.403 142.245 100.558 141.326C103.61 142.494 109.136 142.96 112.928 143.6C114.375 143.947 115.877 143.998 117.344 143.748C117.815 143.581 118.239 143.303 118.581 142.939C118.923 142.576 119.174 142.135 119.313 141.655C119.733 140.642 120.1 139.607 120.413 138.555C121.798 134.098 120.581 139.217 123.613 127.734C125.192 121.76 126.024 122.074 128.513 120.543C128.621 120.472 128.697 120.361 128.724 120.234C128.752 120.108 128.73 119.975 128.662 119.865C128.594 119.755 128.486 119.675 128.36 119.643C128.235 119.611 128.102 119.628 127.989 119.692C125.347 121.318 124.314 121.163 122.641 127.492C119.57 139.109 120.815 133.875 119.453 138.26C119.187 139.222 118.857 140.165 118.466 141.083C117.593 143.7 116.18 142.95 109.072 142.013C106.138 141.72 103.245 141.113 100.44 140.204C99.118 139.637 99.313 138.084 99.486 136.627C99.5911 134.664 99.8513 132.712 100.264 130.789C100.864 128.527 101.876 126.34 102.494 124.023C103.413 120.717 104.047 118.853 105.265 114.032C105.582 114.457 105.955 114.838 106.372 115.165C106.364 115.2 106.36 115.236 106.36 115.271C106.36 116.738 106.528 117.525 106.926 117.846C106.926 117.846 106.459 120.446 106.446 120.564C106.116 122.3 105.321 124.441 106.116 126.288C106.813 127.596 107.994 128.58 109.406 129.03C110.541 129.597 111.606 129.114 111.585 128.357C111.769 127.257 110.694 126.5 109.985 126.001C109.885 125.928 109.785 125.861 109.755 125.844C109.7 125.789 109.275 125.444 109.26 125.424C109.218 125.299 109.128 125.195 109.009 125.135C108.891 125.076 108.753 125.066 108.628 125.108C108.502 125.15 108.398 125.24 108.338 125.359C108.279 125.477 108.269 125.615 108.311 125.74C108.593 126.587 110.725 127.324 110.62 128.24C110.33 128.304 110.027 128.254 109.773 128.1C108.595 127.734 107.606 126.925 107.013 125.843C106.277 124.123 107.406 121.831 107.894 118.131C109.887 118.493 111.943 118.201 113.757 117.3C113.852 117.238 113.922 117.144 113.957 117.035C114.187 116.84 114.134 116.726 114.134 115.347C114.429 115.283 114.707 115.156 114.948 114.974C115.189 114.792 115.387 114.56 115.53 114.293C115.672 114.027 115.755 113.733 115.773 113.432C115.791 113.13 115.744 112.829 115.634 112.547C114.923 110.77 116.37 107.099 117.185 103.359C117.289 103.084 117.349 102.794 117.363 102.499C117.363 102.37 117.312 102.247 117.221 102.155C117.131 102.063 117.008 102.01 116.879 102.007C116.751 102.013 116.628 102.063 116.534 102.15C116.439 102.238 116.379 102.356 116.364 102.483C116.347 102.634 116.321 102.783 116.284 102.929C116.207 103.053 115.95 104.246 115.418 106.257C114.98 107.911 113.997 111.269 114.68 112.833C114.766 113.102 114.78 113.388 114.723 113.663C114.608 113.882 114.442 114.069 114.238 114.209C114.034 114.348 113.799 114.436 113.554 114.463C113.422 114.466 113.292 114.492 113.17 114.54C113.133 114.541 113.096 114.545 113.059 114.552C108.29 115.638 107.697 114.58 107.207 114.542C106.487 114.047 105.918 113.362 105.561 112.564C104.469 109.505 105.535 106.124 106.534 103.001C107.757 99.1825 108.289 97.2095 107.817 93.1945C106.841 84.8945 108.895 81.2305 108.204 75.0575C107.758 70.4575 106.43 67.5575 109.434 63.6325C109.898 63.5707 110.368 63.5603 110.834 63.6015C112.862 63.6833 114.849 64.1945 116.665 65.1015C119.19 66.2482 121.416 67.962 123.17 70.1095C123.21 70.1635 123.26 70.209 123.318 70.2432C123.376 70.2774 123.44 70.2997 123.506 70.3085C123.573 70.3174 123.641 70.3128 123.705 70.295C123.77 70.2771 123.831 70.2464 123.883 70.2047C123.936 70.1629 123.98 70.111 124.012 70.0521C124.044 69.9931 124.064 69.9282 124.07 69.8614C124.077 69.7945 124.07 69.7271 124.05 69.663C124.029 69.5989 123.997 69.5396 123.953 69.4885C121.516 66.553 118.281 64.3853 114.64 63.2465C113.242 62.8158 111.787 62.5996 110.325 62.6055C111.241 61.6585 112.286 60.8464 113.43 60.1935C117.807 59.5645 122.264 63.1665 124.847 66.7815C124.926 66.8837 125.042 66.9513 125.17 66.9701C125.298 66.9888 125.428 66.9573 125.533 66.8822C125.638 66.807 125.71 66.694 125.734 66.5669C125.758 66.4398 125.731 66.3085 125.66 66.2005C122.36 61.5835 118.114 59.3925 115.43 59.1595C116.748 58.605 118.118 58.1823 119.52 57.8975C122.098 57.1858 124.842 57.3799 127.294 58.4475C127.44 58.6935 127.979 60.0475 128.1 60.3705C128.773 62.0165 129.386 63.9975 129.933 65.7185C129.974 65.8446 130.064 65.9492 130.182 66.0093C130.3 66.0694 130.437 66.0801 130.564 66.039C130.69 65.9979 130.794 65.9083 130.854 65.7901C130.914 65.6719 130.925 65.5346 130.884 65.4085V65.4085ZM113.133 115.557V116.512C112.998 116.601 112.851 116.671 112.697 116.719C111.049 117.321 109.262 117.432 107.553 117.037C107.411 116.598 107.349 116.136 107.368 115.674C109.121 116.362 111.3 115.969 113.133 115.557V115.557ZM106.644 91.2415C103.854 93.2225 99.168 94.9915 95.622 94.5355C95.2504 94.4777 94.9015 94.3197 94.613 94.0785C93.9189 93.2731 93.4117 92.3241 93.128 91.2995C92.9867 91.0646 92.896 90.8029 92.8615 90.5311C92.8271 90.2592 92.8497 89.9831 92.928 89.7205C93.3571 89.1481 93.9521 88.7218 94.632 88.4995C94.7185 88.4738 94.801 88.4361 94.877 88.3875C96.404 87.7873 97.8781 87.0604 99.284 86.2145C99.9105 85.7818 100.346 85.1242 100.5 84.3785C100.591 83.9277 100.788 83.5052 101.075 83.1459C101.362 82.7866 101.731 82.5009 102.15 82.3125C102.498 82.1078 102.829 81.8736 103.137 81.6125C104.769 79.8902 106.165 77.9582 107.287 75.8675C107.721 80.2905 106.174 84.9855 106.644 91.2415V91.2415Z"></path><path fill="#0e2238" d="M118.991 74.6994C117.681 72.1743 116.007 69.8555 114.023 67.8174C114.912 67.0684 115.871 66.406 116.886 65.8394C116.947 65.8088 117.001 65.7661 117.045 65.7139C117.089 65.6617 117.121 65.601 117.141 65.5357C117.16 65.4704 117.166 65.4018 117.158 65.3342C117.15 65.2665 117.129 65.2011 117.094 65.1421C117.06 65.0831 117.014 65.0318 116.96 64.9911C116.905 64.9505 116.843 64.9215 116.776 64.9059C116.71 64.8903 116.641 64.8884 116.574 64.9003C116.507 64.9123 116.443 64.9378 116.386 64.9754C115.28 65.5919 114.239 66.319 113.28 67.1454C113.098 66.9944 112.9 66.8454 112.7 66.6954C111.583 65.827 110.242 65.2924 108.834 65.1534C108.707 65.1247 108.573 65.147 108.462 65.2156C108.351 65.2841 108.271 65.3934 108.239 65.5202C108.208 65.6469 108.227 65.7809 108.293 65.8937C108.359 66.0064 108.466 66.0889 108.592 66.1234C109.87 66.2542 111.088 66.7325 112.114 67.5064C114.762 69.4934 116.459 72.2994 118.129 75.1984C118.162 75.2557 118.205 75.306 118.257 75.3464C118.309 75.3868 118.369 75.4165 118.433 75.4338C118.496 75.4511 118.563 75.4556 118.628 75.4471C118.694 75.4386 118.757 75.4172 118.814 75.3843C118.871 75.3513 118.921 75.3074 118.961 75.255C119.001 75.2026 119.03 75.1428 119.047 75.0791C119.064 75.0153 119.068 74.9489 119.059 74.8835C119.05 74.8182 119.028 74.7553 118.995 74.6984L118.991 74.6994Z"></path><path fill="#0e2238" d="M56.989 194.729C52.089 192.004 52.705 183.939 51.594 179.881C50.806 172.888 40.085 74.1172 39.434 68.4002C34.763 27.4312 34.115 28.1312 34.418 21.0612C34.559 18.1672 35.166 14.6482 38.636 13.0852C38.6959 13.0582 38.7605 13.0433 38.8261 13.0413C38.8918 13.0392 38.9572 13.0502 39.0186 13.0734C39.0801 13.0967 39.1363 13.1318 39.1841 13.1768C39.232 13.2218 39.2705 13.2758 39.2975 13.3357C39.3245 13.3956 39.3394 13.4602 39.3414 13.5258C39.3434 13.5915 39.3325 13.6569 39.3092 13.7183C39.286 13.7797 39.2509 13.836 39.2059 13.8838C39.1609 13.9317 39.1069 13.9702 39.047 13.9972C36.089 15.3292 35.552 18.3382 35.417 21.1072C35.127 27.8642 35.804 28.0012 39.031 56.7292L38.957 56.7372C39.214 57.6372 39.518 60.3102 40.428 68.2872C43.763 97.5582 42.987 86.4262 47.512 130.307C48.063 135.653 51.801 172.78 52.574 179.689C53.683 183.666 53.074 191.407 57.474 193.851C57.5316 193.883 57.5825 193.926 57.6235 193.977C57.6646 194.029 57.6951 194.088 57.7134 194.151C57.7316 194.215 57.7372 194.281 57.7299 194.346C57.7225 194.412 57.7023 194.475 57.6705 194.533C57.6387 194.59 57.5958 194.641 57.5443 194.682C57.4928 194.723 57.4337 194.754 57.3704 194.772C57.3072 194.79 57.2409 194.796 57.1755 194.789C57.11 194.781 57.0466 194.761 56.989 194.729V194.729Z"></path><path fill="#0e2238" d="M111.324 34.5898C111.206 34.5897 111.093 34.5481 111.003 34.4724C110.913 34.3967 110.852 34.2917 110.832 34.1758C109.475 26.4008 109.148 19.1898 107.532 15.4088C93.267 14.4558 61.455 15.3088 48.261 16.0448C41.5 16.4998 41.39 17.1998 41.011 17.2688C40.8919 17.2916 40.7686 17.2703 40.664 17.2089C40.5594 17.1475 40.4808 17.0501 40.4426 16.9351C40.4044 16.82 40.4094 16.6949 40.4566 16.5832C40.5037 16.4715 40.5899 16.3807 40.699 16.3278C41.599 15.7468 44.119 15.3188 48.199 15.0468C61.514 14.3068 93.746 13.4468 107.899 14.4308C107.988 14.4371 108.074 14.4672 108.147 14.5178C108.221 14.5685 108.279 14.6379 108.317 14.7188C110.148 18.6558 110.389 25.8188 111.817 34.0038C111.83 34.0757 111.826 34.1495 111.807 34.2199C111.788 34.2904 111.754 34.3559 111.707 34.4117C111.66 34.4676 111.601 34.5124 111.535 34.5432C111.469 34.574 111.397 34.5899 111.324 34.5898Z"></path><path fill="#0e2238" d="M86.548 187.944C86.4261 187.944 86.3082 187.9 86.2164 187.82C86.1247 187.74 86.0653 187.629 86.0496 187.508C86.0339 187.387 86.0629 187.265 86.1311 187.164C86.1993 187.063 86.302 186.99 86.42 186.96C89.073 186.26 91.839 185.952 94.45 185.415C103.579 183.535 121.235 179.473 121.335 179.455C122.021 179.108 122.659 180.426 121.257 180.478C118.571 181.314 86.648 187.944 86.548 187.944Z"></path><path fill="#0e2238" d="M65.539 191.552C63.523 191.552 61.439 191.11 60.201 189.259C59.587 188.294 58.629 183.101 58.36 181.939C58.3302 181.81 58.3529 181.674 58.4232 181.561C58.4936 181.449 58.6057 181.369 58.735 181.339C58.8643 181.309 59.0001 181.332 59.1127 181.402C59.2252 181.473 59.3052 181.585 59.335 181.714C59.535 182.605 60.572 187.98 61.035 188.714C62.572 191.014 65.942 190.622 68.403 190.332C72.941 189.756 77.68 188.871 82.919 187.951C83.0487 187.93 83.1815 187.961 83.2885 188.038C83.3955 188.114 83.4681 188.229 83.4907 188.359C83.5133 188.488 83.4841 188.621 83.4093 188.729C83.3345 188.837 83.2201 188.912 83.091 188.936C79.481 189.573 68.916 191.552 65.539 191.552Z"></path><path fill="#0e2238" d="M57.77 176.324C57.6468 176.325 57.5277 176.28 57.4355 176.199C57.3432 176.117 57.2843 176.004 57.27 175.882C56.803 171.902 56.017 166.55 55.185 160.882C51.285 134.352 50.604 118.251 43.497 63.5461C43.486 63.4798 43.4884 63.412 43.5041 63.3467C43.5198 63.2814 43.5486 63.22 43.5886 63.166C43.6286 63.1121 43.679 63.0668 43.737 63.0327C43.7949 62.9987 43.859 62.9767 43.9256 62.9681C43.9922 62.9594 44.0599 62.9642 44.1246 62.9823C44.1893 63.0003 44.2497 63.0312 44.3022 63.0731C44.3547 63.1151 44.3982 63.1671 44.4301 63.2262C44.462 63.2853 44.4817 63.3502 44.488 63.4171C47.514 86.6751 57.8 171.771 58.267 175.766C58.2752 175.836 58.2684 175.907 58.2472 175.975C58.2259 176.042 58.1907 176.104 58.1437 176.157C58.0968 176.209 58.0392 176.252 57.9748 176.28C57.9104 176.309 57.8406 176.324 57.77 176.324Z"></path><path fill="#0e2238" d="M44.3 55.6727C44.1779 55.6737 44.0597 55.63 43.9676 55.5499C43.8755 55.4698 43.8159 55.3587 43.8 55.2377C42.74 47.1667 41.535 35.2007 41.027 28.7427C41.0219 28.677 41.0297 28.611 41.0501 28.5484C41.0705 28.4857 41.1031 28.4277 41.1459 28.3777C41.1887 28.3276 41.2409 28.2865 41.2996 28.2567C41.3583 28.2268 41.4223 28.2088 41.488 28.2037C41.5537 28.1985 41.6197 28.2064 41.6823 28.2268C41.7449 28.2472 41.8029 28.2797 41.853 28.3225C41.903 28.3653 41.9442 28.4176 41.974 28.4763C42.0039 28.535 42.0219 28.599 42.027 28.6647C42.534 35.1097 43.737 47.0517 44.795 55.1077C44.8042 55.1782 44.7983 55.2498 44.7777 55.3178C44.7571 55.3858 44.7222 55.4487 44.6753 55.5022C44.6285 55.5556 44.5708 55.5985 44.5061 55.6279C44.4413 55.6573 44.3711 55.6726 44.3 55.6727V55.6727Z"></path><path fill="#0e2238" d="M62.079 186.173C61.9529 186.174 61.8314 186.127 61.7386 186.041C61.6459 185.956 61.5888 185.839 61.5788 185.713C61.5688 185.587 61.6066 185.462 61.6848 185.364C61.7629 185.265 61.8755 185.199 62 185.179C65.636 184.573 92.181 179.495 97.247 178.715C97.3766 178.698 97.5079 178.732 97.6126 178.811C97.7173 178.889 97.7872 179.005 97.8072 179.134C97.8272 179.264 97.7958 179.396 97.7197 179.502C97.6435 179.608 97.5288 179.681 97.4 179.703C88.776 181.03 63.088 186.173 62.079 186.173Z"></path><path fill="#0e2238" d="M123.36 174.437C123.339 174.306 123.267 174.189 123.159 174.111C123.052 174.034 122.918 174.002 122.787 174.023C119.368 174.57 107.775 177.023 105.999 177.479C105.191 177.689 105.571 178.592 106.299 178.43C108.413 177.958 119.475 175.565 122.946 175.01C123.077 174.989 123.194 174.917 123.272 174.809C123.349 174.702 123.381 174.568 123.36 174.437Z"></path><path fill="#0e2238" d="M127.117 172.887C127.337 172.102 126.035 159.847 125.891 158.397C125.327 152.711 124.956 148.954 123.998 141.456C123.99 141.391 123.969 141.328 123.936 141.271C123.903 141.214 123.86 141.164 123.808 141.124C123.756 141.084 123.697 141.054 123.633 141.037C123.57 141.02 123.504 141.015 123.439 141.024C123.373 141.032 123.311 141.053 123.254 141.086C123.197 141.118 123.147 141.162 123.106 141.214C123.066 141.266 123.037 141.325 123.019 141.388C123.002 141.452 122.998 141.518 123.006 141.583C123.927 148.783 126.101 169.561 126.135 172.206C125.265 172.143 105.515 171.249 104.982 171.184C104.876 171.158 104.764 171.167 104.663 171.21C104.563 171.253 104.479 171.329 104.426 171.424C104.372 171.519 104.351 171.63 104.366 171.738C104.381 171.846 104.431 171.947 104.509 172.024C104.821 172.334 106.458 172.719 126.634 173.247C126.743 173.249 126.85 173.215 126.937 173.149C127.024 173.084 127.088 172.992 127.117 172.887V172.887Z"></path><path fill="#0e2238" d="M58.127 97.8269C57.795 96.3269 57.37 91.6529 57.127 90.4359C57.048 90.1229 56.584 85.7359 56.512 85.3599C55.762 81.8729 59.899 81.7359 60.339 83.9299C60.493 84.7999 62.103 96.7929 62.115 96.8949C62.415 99.0049 61.576 100.127 60.608 100.295C59.326 100.525 58.419 99.2109 58.127 97.8269ZM57.49 85.1569C57.524 85.3199 58.829 96.3759 59.105 97.6159C59.627 100.1 61.52 99.8069 61.122 97.0259C61.11 96.9259 59.579 85.3779 59.356 84.1149C59.18 83.2409 57.031 82.9539 57.49 85.1569Z"></path><path fill="#0e2238" d="M106.554 44.3998C105.939 43.7838 106.773 43.0188 106.554 42.3998C106.229 41.4828 103.399 41.3998 104.784 39.7068C105.392 39.1019 106.171 38.699 107.016 38.5528C107.324 38.4758 108.093 38.5528 108.247 38.2448C108.401 38.0138 107.708 37.2448 107.631 37.0908C107.346 36.6691 107.234 36.1533 107.32 35.6514C107.407 35.1495 107.683 34.7003 108.093 34.3978C109.311 33.4768 110.963 35.2748 111.556 34.0898C112.171 33.3198 112.017 31.7808 113.402 31.4738C113.833 31.4464 114.263 31.5399 114.644 31.7438C115.025 31.9477 115.341 32.2539 115.557 32.6278C115.634 32.7818 116.018 33.5508 116.249 33.5508C116.634 33.4738 117.019 32.5508 117.249 32.3198C117.901 31.5388 118.794 30.9972 119.788 30.7808C120.335 30.7693 120.87 30.9357 121.314 31.2549C121.758 31.5741 122.087 32.0289 122.25 32.5508C122.322 32.7828 122.404 33.9358 122.712 34.0128C123.173 34.0898 123.865 33.4718 124.251 33.3198C125.633 32.7748 127.175 32.3198 128.483 33.1668C129.714 33.8588 129.868 35.2438 129.637 36.5518C129.56 36.8598 129.021 37.7828 129.252 38.0138C129.483 38.2448 130.252 38.1728 130.56 38.2448C133.846 39.0078 134.26 41.2158 131.868 43.0928C131.568 43.3298 130.868 43.6308 130.791 44.0158C130.644 44.7488 132.622 45.4358 132.407 48.0158C132.27 48.6133 131.939 49.1485 131.466 49.5383C130.992 49.9281 130.404 50.1505 129.791 50.1708C129.406 50.1708 128.555 49.9348 128.252 50.2478C127.078 51.4598 128.021 53.8638 125.867 54.6328C125.359 54.7199 124.837 54.6394 124.378 54.4035C123.92 54.1675 123.551 53.7889 123.327 53.3248C123.173 53.1708 122.972 52.3248 122.789 52.3248C122.558 52.2478 122.019 53.4018 121.865 53.5558C121.188 54.4944 120.211 55.1733 119.095 55.4798C118.842 55.5223 118.583 55.514 118.334 55.4555C118.084 55.3969 117.849 55.2894 117.641 55.139C117.434 54.9886 117.258 54.7984 117.124 54.5795C116.991 54.3606 116.903 54.1173 116.864 53.8638C116.864 53.1638 117.02 52.4808 116.864 52.3248C116.094 51.8628 114.999 53.1928 113.94 52.2478C112.84 51.2688 113.478 49.2478 114.094 48.1698C114.248 47.8618 114.863 47.3238 114.863 47.0158C114.863 46.8618 114.248 46.7078 114.094 46.7078C113.434 46.4415 112.889 45.9511 112.555 45.3228C112.34 44.692 112.16 44.0497 112.016 43.3988C110.615 45.4258 106.729 44.6458 106.554 44.3998Z"></path></svg>