<svg xmlns="http://www.w3.org/2000/svg" xmlns:xlink="http://www.w3.org/1999/xlink" x="0px" y="0px"
	 viewBox="0 0 127 127" style="enable-background:new 0 0 127 127;" xml:space="preserve">
<style type="text/css">
	.st0{fill-rule:evenodd;clip-rule:evenodd;fill:#0E2238;}
	.st1{fill-rule:evenodd;clip-rule:evenodd;fill:#FFFFFF;}
	.st2{fill-rule:evenodd;clip-rule:evenodd;fill:#00BAC7;}
	.st3{fill-rule:evenodd;clip-rule:evenodd;fill:#D8F6F8;}
	.st4{fill:#0E2238;}
	.st5{fill-rule:evenodd;clip-rule:evenodd;fill:#009EA9;}
	.st6{fill:#FFFFFF;stroke:#0E2238;stroke-miterlimit:10;}
	.st7{fill-rule:evenodd;clip-rule:evenodd;fill:#99E3E9;}
	.st8{fill:#FFFFFF;}
</style>
<path class="st0" d="M102.8,71.6c-7.9-2.9-12-8.5-12.1-17.1c0,0,18.9-6.5,21.9-2.2C116.6,58.1,102.8,71.6,102.8,71.6z"/>
<path class="st1" d="M82,3.3c0,0,6,7.1,5.2,7.7c-0.8,0.5-4.2,0-3.2,1.2l6.1,7.2c0,0-7.1-6-7.9-7.8c-0.8-1.8,2.3-1.5,2.8-2.2L82,3.3z
	"/>
<path class="st2" d="M51.3,100.3c3.4-6.9-9.4-12.8-9.4-12.8s-3.2-2.2-8.2,1.1c-5,3.3-9.1,5.8-12.9,5.9c-3.8,0.1,1.2,3.2,4.3,2.3
	c3.1-0.9-2,1.3-4.4,4.9c-2.4,3.6-4.5,3.3-7.4,2.3c-2.9-0.9-0.5,3,4.5,3s-4,3.8-9,3.4c-4.9-0.4,0.9,5.2,7.6,3.3
	c7.3-2-3.6,3.9-0.7,4.1s6.8-3.8,9.7-4.1c2.9-0.3-0.4,6,1.2,7.2c1.1,0.8,1.4-6.7,4.9-8.3s-0.9,3.5,0.1,6.5c0.8,2.6,1.7-5.1,9.3-8.6
	C47,107.7,47.9,107.3,51.3,100.3z"/>
<path class="st3" d="M47.2,98.2c-0.3-5.6-4.8-7-4.8-7s-4.4-1-6.4,1.5c-1.9,2.5-3.7,3.5-5.4,4c-1.7,0.4-2,2,0.6,2.1
	c2.6,0.1-0.6,2.5-1.6,4.3c-1,1.8-3.9,2.8-5,3.4c-1.1,0.5-0.5,1.8,2.2,1c2.7-0.9,6.6-3.7,6.7-2.2s-3.9,2.7-2.7,3.4s4.9-4.2,6.4-3.6
	c1.5,0.6-2.6,4.8,3.3,2.3C46.4,104.9,47.4,100.8,47.2,98.2z"/>
<path class="st1" d="M102.8,71.6c0,0-12-2.9-12.1-17.1c0,0-20.7,6.5-33.9,17.1L39.5,68L13.5,90.2l30.8-6.6c-2.2,2.7-2.4,3.8-2.3,4.3
	c0.1,1.3,1,5.9,3.8,8.8c2.8,2.8,4.5,3.7,6.8,3.4c1.2-0.2,2.3-0.6,3.5-0.9l-19.3,24.7L68,110l4.4-17.2C82.8,88,95,80.9,102.8,71.6z"
	/>
<path class="st4" d="M103,71.2c-0.1,0-11.7-3-11.9-16.8c0,0,0-0.1,0-0.1c0,0-0.1-0.1-0.1-0.1s-0.1,0-0.1-0.1c0,0-0.1,0-0.1,0
	c-0.2,0.1-20.8,6.6-33.9,17.1l-17.1-3.5c0,0-0.1,0-0.1,0c0,0-0.1,0-0.1,0.1L13.3,89.8c0,0-0.1,0.1-0.1,0.2c0,0.1,0,0.1,0,0.2
	c0,0.1,0.1,0.1,0.1,0.2c0.1,0,0.1,0.1,0.2,0.1c0.1,0-1.4,0.3,30-6.4c-1.3,1.7-1.9,3-1.9,3.8c0.1,1,0.3,2,0.6,3
	c-1.1-0.2-4.6-0.6-6.3,1.7c-1.6,2.1-3.2,3.3-5.2,3.9c-2.1,0.5-2.3,2.6,0.6,2.7c0.5,0,0.7,0.1,0.7,0.2c0.2,0.4-1.9,2.4-2.6,3.6
	c-0.8,1.5-3.1,2.5-4.4,3c-0.2,0.1-0.4,0.2-0.5,0.2c-1.4,0.6-0.8,2.6,2.4,1.5c2.2-0.7,6.2-3.3,6.3-2.4c0,0.6-0.9,1.2-1.6,1.7
	c-0.7,0.5-1.3,0.9-1.3,1.4c0,0.2,0.1,0.4,0.3,0.5c0.2,0.1,0.3,0.2,0.5,0.2c0.8,0,1.8-0.9,2.9-1.8c1.1-0.9,2.5-2.1,3-1.8
	c0.2,0.1,0.2,0.5,0,1.2c-0.2,0.6-0.4,1.3,0.1,1.7c0.5,0.4,1.5,0.2,3.5-0.6c5.1-2.2,7.2-5.9,7-8.8c1.6,1.2,3,1.7,4.9,1.5
	c0.9-0.2,1.7-0.4,2.5-0.7l-18.7,23.9c0,0.1-0.1,0.1-0.1,0.2c0,0.1,0,0.1,0.1,0.2c0,0.1,0.1,0.1,0.2,0.1c0.1,0,0.1,0,0.2,0l31.3-13.8
	c0,0,0.1,0,0.1-0.1c0,0,0.1-0.1,0.1-0.1l4.3-17.1c10.5-4.8,22.7-11.9,30.4-21.2c0,0,0.1-0.1,0.1-0.1c0-0.1,0-0.1,0-0.2
	c0-0.1,0-0.1-0.1-0.1C103.1,71.2,103,71.2,103,71.2z M14.7,89.5l25-21.2l16.5,3.4c-3.3,2.8-9.1,7.9-12,11.5L14.7,89.5z M40.5,107
	c-2.2,1-2.7,0.8-2.8,0.7c-0.1-0.1,0-0.7,0.1-1c0.2-0.7,0.5-1.6-0.3-2c-0.9-0.4-2.3,0.7-3.7,1.9c-0.9,0.8-2.2,1.9-2.7,1.7
	c0,0-0.1,0-0.1,0c0.3-0.3,0.6-0.6,1-0.8c0.9-0.6,2-1.4,1.9-2.3c0-0.1,0-0.3-0.1-0.4c-0.1-0.1-0.2-0.2-0.3-0.3
	c-1.1-0.6-4.2,1.7-6.8,2.5c-1.5,0.5-2.2,0.2-2.3,0c0-0.1,0.1-0.3,0.3-0.4c1.5-0.7,4.2-1.6,5.2-3.5c0.8-1.5,3-3.2,2.6-4.2
	c-0.2-0.5-1-0.6-1.2-0.6c-1.1,0-1.6-0.3-1.6-0.6c0-0.3,0.4-0.7,1.1-0.9c2.1-0.6,3.9-1.9,5.6-4.1c1.8-2.3,6-1.4,6-1.4h0
	c0.8,2.7,2.4,5,4.6,6.8C47.4,100.2,46.4,104.5,40.5,107z M67.8,109.7l-30,13.2l18.5-23.6c5.4-1.7,10.6-3.7,15.7-6.1L67.8,109.7z
	 M70.9,93c-7.6,3.4-16.3,6.3-18.3,6.6c-2.2,0.3-3.9-0.6-6.6-3.3c-2.7-2.8-3.6-7.5-3.7-8.6c-0.1-1.2,1.6-4.7,13.6-15
	c11.9-10.2,31.5-16.9,34.6-17.9c0.3,12.3,9.6,16.1,11.9,16.8C94.5,80.9,82,88.1,70.9,93z"/>
<path class="st1" d="M70.1,61.9c1.1,0,2.2-0.3,3.2-0.9c0.6-2.5,0.9-5.1,0.9-7.7l-4.3-9.5l-4.4,0.6L70.1,61.9z"/>
<path class="st1" d="M63.3,77.7c0,0,0.6-0.2,1.2-0.4l2.1,2.9c-0.3,0.3-0.5,0.6-0.7,1c0,0-3.2,0.4-3.5-1.3c-0.1-0.4-0.1-0.9,0-1.3
	C62.6,78.3,62.9,77.9,63.3,77.7L63.3,77.7z"/>
<path class="st5" d="M66,81c0,0-0.2-0.8-1.8-0.7c-1.6,0.1-0.9-2.6-0.9-2.6c-1.3-0.1-1.8,0.1-3.8,1.2l0.4,1.8l0.6-0.3
	c0,0,0,1.1,0,2.4c0,1.2,0.7,4.7,3.1,6.5c1.2,0.9,2.4-0.1,2.2-1.4c-0.1-0.7-0.4-1.7-0.5-2.6C65.3,83.8,65.6,82.4,66,81L66,81z"/>
<path class="st4" d="M66.4,80.8c0,0-0.3-1.1-2.1-1c-0.1,0-0.2,0-0.3,0c-0.1,0-0.2-0.1-0.2-0.2c-0.3-0.4-0.2-1.4-0.1-1.9
	c0.2-0.1,0.6-0.2,1.1-0.4c0.1,0,0.1-0.1,0.2-0.2c0-0.1,0-0.2,0-0.2c0-0.1-0.1-0.1-0.2-0.2c-0.1,0-0.2,0-0.2,0
	c-0.5,0.2-1,0.4-1.1,0.4c-0.8-0.1-1.6,0-2.3,0.4c-0.1,0.1-1.1,0.5-1.6,0.8c-0.1,0-0.1,0.1-0.1,0.1c0,0.1,0,0.1,0,0.2l0.4,1.8
	c0,0,0,0.1,0.1,0.1c0,0,0.1,0.1,0.1,0.1c0,0,0.1,0,0.1,0c0,0,0.1,0,0.1,0l0.1-0.1v1.9c0,1.4,0.8,4.9,3.3,6.7c1,0.7,1.8,0.5,2.2-0.2
	h0c1.2-0.6,0.1-2.5,0-4.1c0.1-1.4,0.3-2.8,0.7-4.2C66.4,80.9,66.4,80.9,66.4,80.8L66.4,80.8z M64.7,89.1c-0.2,0-0.3,0-0.5-0.1
	c-0.2-0.1-0.3-0.1-0.4-0.2c-2.3-1.6-3-4.9-3-6.2v-2.4c0-0.1,0-0.1,0-0.2c0,0-0.1-0.1-0.1-0.1c0,0-0.1,0-0.1-0.1c-0.1,0-0.1,0-0.2,0
	l-0.2,0.1L59.9,79c0.3-0.2,0.7-0.4,1-0.5c0.2,1.3,0.2,2.7,0.2,4C61,85,63.2,88.3,64.7,89.1C64.8,89.1,64.7,89.1,64.7,89.1z
	 M65.4,88.6c0,0-0.2,0-0.6-0.3c-1.3-1-3.1-3.7-3-5.8c0.1-1.5,0-2.9-0.2-4.3c0.5-0.2,1-0.3,1.5-0.2c-0.1,0.6-0.2,1.6,0.3,2.2
	c0.1,0.1,0.3,0.3,0.5,0.3c0.2,0.1,0.4,0.1,0.6,0.1c1-0.1,1.4,0.3,1.4,0.4c-0.1,0.2-0.2,0.6-0.3,1.2c-0.7-0.3-1.5-0.4-2.3-0.3
	c-0.1,0-0.2,0.1-0.2,0.1c0,0.1-0.1,0.2-0.1,0.2c0,0.1,0.1,0.2,0.1,0.2c0.1,0,0.1,0.1,0.2,0.1c0.7-0.1,1.4,0,2.1,0.3
	c0,0.2-0.1,0.3-0.1,0.5c-0.7-0.3-1.5-0.4-2.3-0.3c-0.1,0-0.2,0-0.2,0.1c-0.1,0.1-0.1,0.1-0.1,0.2c0,0.1,0,0.2,0.1,0.2
	c0.1,0.1,0.1,0.1,0.2,0.1c0.7,0,1.5,0.1,2.2,0.4c-0.1,0.4-0.1,0.8-0.1,1.2C65.1,86.6,65.9,88.4,65.4,88.6L65.4,88.6z"/>
<path class="st2" d="M72.6,63.2l0.9-1.8c-0.1-0.5,0-1-0.2-0.9c-3.5,1.3-8.6,2.1-8.6,1.6c0,0-1,2.9-0.3,4.3c0.4,0.9,6.3,5,9.7,7
	c0,0-6.4,2.2-9.7,2.8c0,0-0.5,3.5,1.5,5.5c0,0,4.3-1.1,13.7-5.2c0.2-0.1,0.4-0.3,0.6-0.5c0.2-0.2,0.3-0.4,0.4-0.7
	C81.1,72.2,72.6,63.2,72.6,63.2z"/>
<path class="st2" d="M69.7,44.3l-0.3-0.9c1-1.2,1.3-1.7,2.4-2.4c1.6-0.9,4.8-4.2,6-5.5c1.8-1.9,3.5-4.4,4.8-5.8l3.4,2.5
	c0.1,0-4.7,5.3-12.4,13.4c0,0-0.4,1.8-0.2,1.9c0.2,0.1,0.8,0.4,1.1,0.6c0,0-0.2,4.5-0.1,5.6C74.6,53.2,71.5,46.7,69.7,44.3z"/>
<path class="st2" d="M65,44.5c-1.3,0.8-2.5,1.7-3.7,2.8c-1.3,1.2-2.3,4-3.3,5.7c-1,1.7-6.2,7.5-7,8.8c0,0,2,1.5,3.4,2.4
	c0,0,7.4-9.5,8.1-10.1c0.7,1,1.2,2.1,1.7,3.3c0.7,1.7-0.6,5.8-0.6,5.8s4.1,3.5,7.1,2.7c1-3.3,1.1-6.9,0.1-10.2
	c-1.3-3.7-3-7.2-5-10.6l-0.7-1.8C65.2,43.7,65.1,44.1,65,44.5L65,44.5z"/>
<path class="st6" d="M82.3,3.1c0,0,6,7.1,5.2,7.7c-0.8,0.5-4.2,0-3.2,1.2l6.1,7.2c0,0-7.1-6-7.9-7.8c-0.8-1.8,2.3-1.5,2.8-2.2
	L82.3,3.1z"/>
<path class="st1" d="M53.5,63.6L51,61.9l-0.7,0.9l2.4,2L53.5,63.6z"/>
<path class="st1" d="M82.5,29.9l0.7-0.8l2.7,1.8l-0.6,1.1L82.5,29.9z"/>
<path class="st4" d="M64.7,47.9c0,0-0.1,0-0.1,0c0,0-0.1-0.1-0.1-0.1c-0.2-0.3-0.5-0.5-0.9-0.6c-0.4-0.1-0.7-0.1-1.1,0
	c0,0-0.1,0-0.1,0c0,0-0.1,0-0.1,0c0,0-0.1,0-0.1-0.1c0,0,0-0.1-0.1-0.1c0,0,0-0.1,0-0.1c0,0,0-0.1,0-0.1c0,0,0-0.1,0.1-0.1
	c0,0,0.1,0,0.1-0.1c0.5-0.1,1-0.1,1.5,0c0.5,0.2,0.9,0.4,1.2,0.8c0,0,0.1,0.1,0.1,0.2c0,0.1,0,0.1,0,0.2c0,0.1-0.1,0.1-0.1,0.1
	C64.8,47.9,64.7,47.9,64.7,47.9z"/>
<path class="st7" d="M45.7,66.1c0,0,1.4-2,2.5-1.4c1.1,0.5,4.6,2.3,4.6,3.9c-0.2,0.7-0.6,1.4-1.2,1.9l-1.4-1c0,0,1.2-1,0.7-1.6
	c-0.8-0.8-2.8-2.3-3.2-1.7L46.9,67L45.7,66.1z"/>
<path class="st0" d="M42.2,63.2l13.2,10.4c0.4,0.3,0.7,0.7,0.9,1.2c0.1,0.5,0.1,1,0,1.5c-0.7,1.6-6,9.4-8.5,9.1S32.4,74.3,32,72.8
	c-0.4-1.5,0.2-1.8,2.6-4.5C37.1,65.6,39.6,62.2,42.2,63.2z"/>
<path class="st8" d="M56.6,74.4c-0.2-0.5-0.5-0.9-0.9-1.2l-3.4-2.7c0.5-0.6,0.8-1.2,1-2c0-1.9-3.7-3.7-4.8-4.2c-1-0.5-2,0.5-2.6,1.1
	l-0.3-0.2c0,0-0.1,0-0.1-0.1c0,0-0.1,0-0.1,0c0,0-0.1,0-0.1,0c0,0-0.1,0-0.1,0.1c0,0,0,0.1-0.1,0.1c0,0,0,0.1,0,0.1c0,0,0,0.1,0,0.1
	c0,0,0.1,0.1,0.1,0.1l1.8,1.4c0,0,0.1,0.1,0.2,0.1c0.1,0,0.1,0,0.2,0c0.1,0,0.1-0.1,0.1-0.1c0-0.1,0-0.1,0-0.2
	c0.1-0.1,0.6-0.5,0.6-0.6c0.5-0.1,2,1,2.7,1.7c0.2,0.2-0.3,0.8-0.6,1c-0.1,0-0.1,0.1-0.1,0.1c0,0-0.1,0.1-0.1,0.1c0,0.1,0,0.1,0,0.2
	c0,0.1,0.1,0.1,0.1,0.1c5.7,4.5,5.4,4.2,5.7,4.7c-1.8,0.8-4.9,6.8-7.3,6.3c-1.4-0.3-9-7.1-13.9-11.7c0.1-0.1,0.2-0.3,0.4-0.4
	c0.1-0.1,0.1-0.1,0.1-0.2c0-0.1,0-0.2-0.1-0.2c-0.1-0.1-0.1-0.1-0.2-0.1c-0.1,0-0.2,0-0.2,0.1c-2.3,2.5-3.1,3.1-2.7,4.8
	c0.4,1.6,13.2,12.4,15.9,12.7c2.8,0.3,8.1-7.5,8.8-9.3C56.8,75.6,56.8,74.9,56.6,74.4z M51.2,67.6c-0.4-0.4-2.2-2-3.2-1.9
	c-0.1,0-0.2,0-0.3,0.1c-0.1,0-0.2,0.1-0.2,0.2L47,66.4l-0.7-0.6c0.5-0.5,1.2-1.2,1.8-1c2.2,1,4.4,2.5,4.4,3.6
	c-0.1,0.6-0.4,1.2-0.8,1.6l-0.9-0.7C51.3,68.8,51.7,68.1,51.2,67.6L51.2,67.6z M47.7,84.8C45,84.2,32.8,74,32.4,72.6
	c0-0.1,0-0.2-0.1-0.3c2.7,2.4,13.1,11.5,15.3,12.2L47.7,84.8z M47.6,83.8c-2-0.9-10.1-7.8-15.2-12.3c0.5-0.8,1.1-1.6,1.7-2.2
	c2,1.9,12.3,11.4,14.2,11.9c2.6,0.6,5.3-4.3,7.2-6c-1.4,2-5.3,7.3-7.1,8.5C48.1,84,47.9,84,47.6,83.8L47.6,83.8z M56,75.9
	c-0.7,1.6-5.2,8.2-7.7,8.9l0-0.3c2-0.8,6.3-6.7,7.8-9C56.1,75.7,56,75.8,56,75.9L56,75.9z"/>
<path class="st7" d="M40.1,75.4l2-1.9l1.6,1.3l-1.9,2L40.1,75.4z"/>
<path class="st4" d="M41.6,77l-1.7-1.4c0,0-0.1-0.1-0.1-0.1c0,0,0-0.1,0-0.1c0,0,0-0.1,0-0.1c0,0,0-0.1,0.1-0.1l2-1.9
	c0.1-0.1,0.1-0.1,0.2-0.1c0.1,0,0.2,0,0.2,0.1l1.6,1.3c0,0,0.1,0.1,0.1,0.1c0,0,0,0.1,0,0.1c0,0,0,0.1,0,0.1c0,0,0,0.1-0.1,0.1
	l-1.9,2c-0.1,0.1-0.1,0.1-0.2,0.1C41.8,77.1,41.7,77,41.6,77z M40.6,75.3l1.2,1l1.4-1.5l-1.1-0.9L40.6,75.3z"/>
<path class="st1" d="M50.4,62.8c-0.6,0.6-1.2,1.1-1.8,1.6c-0.8,0.5-0.8,2.1-0.4,2.3c0,0,0.2,0.8,0.8,0.8c0.2,0.2,0.4,0.4,0.6,0.6
	c0.2,0.2,0.5,0.3,0.8,0.3c0.8,0,0.6-1.3,1.3-1.3c0.5,0,0.9,0.7,0.9,0.7c0.2-0.3,0.3-0.6,0.3-0.9c0-0.3,0-0.6-0.1-0.9
	c-0.1-0.2-0.2-0.5-0.2-0.7c0-0.3,0-0.5,0.1-0.7L50.4,62.8z"/>
<path class="st1" d="M83.5,29.2c0.2-0.3,0.4-0.7,0.5-1c0.3-0.9,0-1.4,1-2.2c1-0.8,3.3-3,3.5-2.4c0.3,0.6-2,2.6-2,2.6s1.7,0.9,1,2
	c-0.7,1.1-1.6,0.9-2.2,2.4L83.5,29.2z"/>
<path class="st4" d="M87.1,25.9c1.1-1,2.1-2.1,1.8-2.7c-0.5-0.9-2.4,1.1-4,2.4c-1.3,1-0.7,1.6-1.4,3c-0.1,0-0.1-0.1-0.2-0.1
	c-0.1,0-0.2,0-0.2,0.1l-0.7,0.8c-0.1,0.1-0.1,0.1-0.1,0.2c0,0.1,0,0.2,0.1,0.2c0.1,0.1,0.1,0.1,0.2,0.1c0.1,0,0.2,0,0.2-0.1l0.5-0.6
	c1.8,1.2,2,1.3,2.2,1.5l-0.5,0.8c0,0,0,0.1,0,0.1c0,0,0,0.1,0,0.1c0,0,0,0.1,0.1,0.1c0,0,0.1,0.1,0.1,0.1c0,0,0.1,0,0.1,0
	c0,0,0.1,0,0.1,0c0,0,0.1,0,0.1-0.1c0,0,0.1-0.1,0.1-0.1l0.6-1.1c0-0.1,0.1-0.2,0-0.2c0-0.1-0.1-0.1-0.1-0.2l-0.3-0.2
	c0.2-0.4,0.6-0.8,1-1c0.8-0.5,1.5-1.3,1.2-2.1C87.9,26.6,87.6,26.2,87.1,25.9L87.1,25.9z M87.4,27.8c-0.6,0.9-1.4,0.9-2,2.1L84,29
	c0.1-0.3,0.3-0.5,0.4-0.8c0.3-0.9,0-1.3,0.9-2.1c0.9-0.8,1.9-1.6,3-2.4c-0.5,0.9-2.1,2.1-2.4,2.6c-0.1,0-0.1,0-0.2-0.1
	c-0.1,0-0.2,0-0.2,0c-0.1,0-0.1,0.1-0.1,0.2c0,0.1,0,0.2,0,0.2c0,0.1,0.1,0.1,0.2,0.1c0.4,0.1,0.8,0.4,1,0.7c0,0.1,0.1,0.1,0.2,0.1
	c0.1,0,0.2,0,0.2-0.1c0.1,0,0.1-0.1,0.1-0.2c0-0.1,0-0.2-0.1-0.2c-0.2-0.2-0.4-0.4-0.6-0.6l0.2-0.3C87.2,26.7,87.7,27.3,87.4,27.8
	L87.4,27.8z"/>
<path class="st1" d="M65.5,43.1l-0.1,0c-0.3,0.2-0.6,0.3-0.9,0.3c-0.3,0-0.5,0-0.8-0.1c-0.2-0.1-0.5-0.2-0.7-0.4
	c-0.3-0.3-0.5-0.6-0.5-1c0-0.4,0.1-0.8,0.3-1.1c0,0-4.6-4.9,1.9-7.2c0.8-0.3,1.6-0.4,2.4-0.2c1.5,0.4,2.1,1.3,2.4,3.4
	c0.1,0.4,1.2,0.9,1.4,1.6c0.1,0.6,0.1,1.3,0,1.9c-0.1,1.1-0.7,2.1-1.5,2.9l0,0.5L69,45.6c-1-0.2-2-0.6-2.8-1.2L65.5,43.1z"/>
<path class="st5" d="M68,47l1.3,1.5c0,0,2.7,5.9,2.7,8.9c0,3,0,4.1,0,4.1l3.3,3.2c0,0,0.5-3.4,0.5-4.7c0,0-3.1-9-5.4-12.1l-0.2-1.7
	l-1.4-0.5L68,47z"/>
<path class="st4" d="M67.6,35.7c-0.1,0-0.1,0-0.2-0.1c-0.1,0-0.1-0.1-0.1-0.2c0-0.1,0-0.1,0-0.2c0-0.1,0.1-0.1,0.1-0.2
	c0.3-0.2,0.5-0.3,0.9-0.4c0.3,0,0.6,0,0.9,0.1c0.1,0,0.1,0.1,0.2,0.2c0,0.1,0,0.2,0,0.2c0,0.1-0.1,0.1-0.2,0.2c-0.1,0-0.2,0-0.2,0
	c-0.2-0.1-0.4-0.1-0.6,0c-0.2,0-0.4,0.1-0.6,0.2C67.8,35.7,67.7,35.7,67.6,35.7L67.6,35.7z"/>
<path class="st4" d="M64.1,38.7c-0.1,0-0.1,0-0.2-0.1c-0.1,0-0.1-0.1-0.1-0.2c0,0-0.5-1.4,1.3-2.1c0.1,0,0.2,0,0.2,0
	c0.1,0,0.1,0.1,0.2,0.2s0,0.2,0,0.2c0,0.1-0.1,0.1-0.2,0.2c-1.2,0.4-1,1.2-0.9,1.3c0,0,0,0.1,0,0.1c0,0,0,0.1-0.1,0.1
	c0,0-0.1,0.1-0.1,0.1C64.2,38.7,64.2,38.7,64.1,38.7z"/>
<path class="st4" d="M68.2,36.4c0.5-0.3,1.2,0.9,0.7,1.2S67.7,36.7,68.2,36.4z"/>
<path class="st4" d="M65.1,39.1c-0.5-0.8,0.3-1.3,0.8-0.5C66,38.8,66,39,66,39.2c0,0.1-0.1,0.2-0.2,0.2
	C65.6,39.6,65.2,39.4,65.1,39.1z"/>
<path class="st4" d="M67.2,40.3c-0.5,0-0.9-0.6-0.5-0.8c0.1,0,0.2,0,0.2,0c0.1,0,0.1,0.1,0.2,0.1c0.1,0.1,0.3-0.1,0.4-0.2
	c0.1-0.2,0.2-0.2,0.7-0.4c0.6-0.3,0.7-0.4,0.7-0.4c0,0-0.1-0.1-0.4-0.3c-0.1,0-0.1-0.1-0.2-0.2s0-0.2,0-0.2c0-0.1,0.1-0.1,0.2-0.2
	c0.1,0,0.2,0,0.2,0c0.2,0.1,0.7,0.4,0.7,0.9c0,0.7-1.3,1-1.5,1.2c-0.1,0.1-0.2,0.3-0.4,0.3C67.6,40.3,67.4,40.3,67.2,40.3L67.2,40.3
	z"/>
<path class="st4" d="M68.8,42.7c-0.9,0-2-1.5-1.2-2.2c0.4-0.3,1.4-1,1.9-0.7c0.4,0.2,0.3,1,0.3,1.5C69.7,41.9,69.5,42.7,68.8,42.7z
	 M69.2,40.4c-0.4,0.1-0.8,0.3-1.2,0.6c-0.1,0.1,0,0.2,0,0.3c0.2,0.4,0.6,0.7,0.8,0.7c0.1-0.1,0.1-0.2,0.2-0.3
	C69.2,41.3,69.2,40.9,69.2,40.4L69.2,40.4z"/>
<path class="st0" d="M61.8,36.5c0,0-0.7,2.2,1.3,2.4c0.4,0.9,0.9,1.8,1.5,2.7L64.3,42l-1.5-1c-0.1,0-0.1,0-0.2,0.1
	c-0.1,0-0.1,0.1-0.2,0.1c0,0.1-0.1,0.1-0.1,0.2c0,0.1,0,0.1,0,0.2c-0.9-1-1.5-2.3-1.7-3.7c-0.2-2.2,3.3-7.3,7.4-3.7
	c-0.3-0.3-0.8-0.4-1.2-0.4c-1,0.2-0.5,1.2-2.3,1.5C62.9,35.6,62.2,36,61.8,36.5z"/>
<path class="st4" d="M84.4,75.5c-1,0-2-0.2-2.9-0.8c-0.9-0.6-1.6-1.3-2-2.3c-1.1-2.6,0.4-5.7,3.3-6.9s6.1,0,7.2,2.6
	C91.3,71.6,88.4,75.5,84.4,75.5z M83,66.1c-2.6,1-3.9,3.8-2.9,6.1c0.9,2.3,3.8,3.3,6.3,2.3c2.6-1,3.9-3.8,2.9-6.1
	C88.4,66.1,85.5,65.1,83,66.1L83,66.1z"/>
<path class="st4" d="M80.9,71.9c-0.7-1.8,0.3-4,2.4-4.8c3.4-1.4,6.5,1.5,5,4.5C86.8,74.6,82.1,74.8,80.9,71.9z M83.6,67.6
	c-1.7,0.7-2.7,2.5-2.1,4c0.7,1.6,2.7,2.1,4.3,1.4c1.7-0.7,2.7-2.5,2.1-4C87.3,67.5,85.4,66.9,83.6,67.6L83.6,67.6z"/>
<path class="st4" d="M89.7,80.2c-1.2,0-1.7-0.7-1.6-1.5c0.3-1.8,3.5-3.2,4.7-1.9c0.1,0.1,0.2,0.3,0.3,0.5c0,0.2,0.1,0.4,0,0.5
	C92.8,79,91.1,80.2,89.7,80.2z M89.8,77.4c-0.3,0.1-0.5,0.3-0.7,0.6c-0.2,0.2-0.3,0.5-0.4,0.8c0,0.1,0,0.2,0,0.3
	c0,0.1,0.1,0.2,0.1,0.2c0.4,0.4,1.5,0.4,2.5-0.2c0.3-0.1,0.5-0.3,0.7-0.6c0.2-0.2,0.3-0.5,0.4-0.8c0-0.1,0-0.2,0-0.3
	c0-0.1-0.1-0.2-0.1-0.2C91.9,76.7,90.8,76.7,89.8,77.4L89.8,77.4z"/>
<path class="st4" d="M79.4,63.7c-1,0-1.8-0.6-1.6-1.5c0.3-1.8,3.5-3.3,4.7-2c0.1,0.1,0.2,0.3,0.3,0.5c0,0.2,0.1,0.4,0,0.5
	C82.7,62.6,80.9,63.7,79.4,63.7z M81.2,60.4c-1.7,0-3.3,1.7-2.6,2.5c0.8,0.9,3.5-0.3,3.6-1.6C82.3,60.6,81.8,60.4,81.2,60.4z"/>
<path class="st4" d="M16.4,99.3c-2.7,0-8.7-1-11.6-9C0.9,79.9,4.5,70,9.2,64.3c1.3-1.7,2.9-3.2,4.7-4.4c-0.3-3.3-0.1-6.6,0.6-9.8
	c1.1-5.3,4.5-15.3,14.7-21.7c16.4-10.4,28.9-7.6,29-7.6c0.1,0,0.2,0.1,0.2,0.1c0,0.1,0.1,0.2,0,0.2c0,0.1-0.1,0.2-0.1,0.2
	c-0.1,0-0.2,0.1-0.2,0c-0.1,0-12.4-2.7-28.6,7.5c-10,6.3-13.3,16.1-14.4,21.3c-0.7,3-0.8,6.2-0.6,9.2c2.8-1.8,5.7-2.6,8.3-2.2
	c2.8,0.4,4.7,1.7,5.5,3.7c0.3,0.9,0.5,1.8,0.3,2.7c-0.1,0.9-0.5,1.8-1.1,2.6c-0.7,0.9-1.6,1.7-2.6,2.2c-1,0.5-2.2,0.8-3.3,0.8
	c-1.6,0-4-0.7-6.1-3.8c-0.9-1.5-1.4-3.2-1.6-4.9c-1.6,1.2-3,2.6-4.3,4.1c-4.5,5.6-8,15.2-4.3,25.4c3.7,10,11.9,8.5,12.3,8.5
	c0,0,0.1,0,0.1,0c0,0,0.1,0,0.1,0c0,0,0.1,0.1,0.1,0.1c0,0,0,0.1,0,0.1c0,0,0,0.1,0,0.1c0,0,0,0.1,0,0.1c0,0-0.1,0.1-0.1,0.1
	c0,0-0.1,0-0.1,0C17.3,99.3,16.8,99.3,16.4,99.3L16.4,99.3z M14.5,60.2c0.1,1.7,0.7,3.4,1.5,4.9c1.9,2.8,4.1,3.5,5.6,3.5
	c1.1,0,2.1-0.2,3-0.7c0.9-0.5,1.8-1.2,2.4-2c0.5-0.7,0.8-1.4,0.9-2.3c0.1-0.8,0-1.7-0.3-2.4c-0.7-1.8-2.5-3-5-3.3
	C20.1,57.5,17.3,58.4,14.5,60.2z"/>


<path class="st1" d="M94.8,90.9c0,0,9,3.5,9.8,5.1c0.8,1.7-5,1.7-5,2.4s10.2,6.2,11.5,8.2c0,0-12.2-5.3-12.8-8
	c-0.3-1.4,4.5-2.3,4.5-2.3s1.1-0.3-0.5-1.1C100.5,94.4,94.8,91,94.8,90.9z"/>


<path class="st6" d="M95.2,90.6c0,0,9,3.5,9.8,5.1c0.8,1.7-5,1.7-5,2.4s10.2,6.2,11.5,8.2c0,0-12.2-5.3-12.8-8
	c-0.3-1.4,4.5-2.3,4.5-2.3s1.1-0.3-0.5-1.1C101,94.1,95.2,90.8,95.2,90.6z"/>
<path class="st4" d="M81,37.8c-0.1-0.1-0.1-0.1-0.2-0.1c-0.1,0-0.2,0-0.2,0.1c-1.6,1.8-6.2,6.6-7.1,7.5c-1.1-0.8-2.2-1.6-3.3-2.3
	c0.6-0.8,1-1.7,1.1-2.6c0.3-2,0.1-2.3-0.8-3.2c-0.2-0.1-0.3-0.3-0.4-0.5c-0.1-0.2-0.1-0.4-0.1-0.6c-0.4-2-2-2.9-3.2-2.8
	c-0.2,0-0.4,0.1-0.6,0.2c-0.2,0.1-0.3,0.3-0.4,0.5c-0.2,0.2-0.4,0.4-0.6,0.6c-0.2,0.1-0.5,0.2-0.8,0.2c-1.3,0.2-2.3,0.3-2.8,1.7
	c-0.1,0.3-0.1,0.6-0.1,0.9c0,0.3,0.1,0.6,0.3,0.9c0.1,0.2,0.3,0.4,0.6,0.5c0.2,0.1,0.5,0.2,0.7,0.2c0.3,0.8,0.8,1.6,1.3,2.3L63,40.6
	c-0.1-0.2-0.6-0.1-0.8,0.2c-0.2,0.4-0.2,0.8-0.1,1.3c0.1,0.4,0.3,0.8,0.6,1.1c0.3,0.2,0.6,0.4,1,0.5c0.4,0.1,0.8,0.1,1.1-0.1
	c-0.2,0.9-0.2,1.8-0.2,2.8c0,0.9,0,3.5,0.8,3c0.4-0.2,0.9-0.4,1.3-0.5c-0.4,0.6-0.8,1.2-1,1.9c0,0.1,0,0.1,0,0.2
	c0,0.1,0.1,0.1,0.1,0.1c0,0,3.5,2.4,5,5.1c0.7,3,0.6,6.1-0.3,9.1c-2.5,0.5-5.8-2-6.5-2.5c0.2-0.9,1-4.8,0.4-6.4
	c-0.4-0.9-0.8-1.7-1.4-2.5c0.4-0.4,1-0.7,1.5-0.9c0.1,0,0.2,0,0.2-0.1c0.1-0.1,0.1-0.1,0.1-0.2c0-0.1,0-0.2-0.1-0.2
	c-0.1-0.1-0.1-0.1-0.2-0.1c-0.7,0.1-1.3,0.5-1.8,1c-1.1,0.9-5.6,6.7-8.4,10.2c-1.4-0.9-3.1-2.2-3.1-2.2c0,0-0.1,0-0.1-0.1
	c0,0-0.1,0-0.1,0c0,0-0.1,0-0.1,0c0,0-0.1,0-0.1,0.1c-0.9,1.2-0.7,1-0.8,1.1c-0.5,0.5-1.1,1-1.7,1.4c-1,0.6-1,2.3-0.5,2.8
	c0.1,0.2,0.2,0.4,0.3,0.6c0.2,0.2,0.4,0.3,0.6,0.3c0.2,0.3,0.4,0.5,0.7,0.6c0.3,0.2,0.6,0.2,0.9,0.3c1,0,0.9-1.3,1.3-1.3
	c0.3,0,0.5,0.4,0.6,0.5c0,0,0.1,0.1,0.1,0.1c0,0,0.1,0,0.2,0c0.1,0,0.1,0,0.2,0c0,0,0.1-0.1,0.1-0.1c0.2-0.3,0.3-0.6,0.3-1
	c0-0.3,0-0.7-0.1-1c-0.1-0.3-0.2-0.6-0.1-0.9c0,0,0.1,0,0.1,0c0,0,0.1-0.1,0.1-0.1l0.6-0.9c0.2,0.1,0.5,0.3,0.7,0.4
	c0.1,0,0.1,0.1,0.2,0c0.1,0,0.1-0.1,0.2-0.1c2.7-3.5,6.8-8.6,7.9-9.8c0.5,0.7,1,1.5,1.3,2.3c0.7,1.6-0.4,6.2-0.4,6.2
	c0,0.1,0,0.1,0,0.2c0,0.1,0.1,0.1,0.1,0.1c0,0,0.1,0.1,0.3,0.2c-0.3,1-0.2,2.1,0.1,3c0.5,1,5.7,4.8,9,6.8c-1.7,0.5-6.3,1.9-8.8,2.6
	c-0.1,0-0.1,0.1-0.2,0.1c0,0-0.1,0.1-0.1,0.2c0,0.2-0.5,3.7,1.6,5.7c0,0,0.1,0.1,0.1,0.1c0.1,0,0.1,0,0.2,0c0.1,0,5.1-1.3,14-5.3
	c0.3-0.1,0.5-0.3,0.6-0.5c0.2-0.2,0.3-0.5,0.3-0.8C81.5,72.2,74,64.1,73,63c0-0.1,0-0.2,0.1-0.2l2.1,2.1c0,0,0.1,0.1,0.2,0.1
	s0.1,0,0.2,0c0.1,0,0.1-0.1,0.1-0.1c0,0,0.1-0.1,0.1-0.2c0-0.1,0.5-3.4,0.5-4.8c0-0.2-1.3-3.6-1.4-3.8c0-3.3-0.5-3.8-0.9-4.7
	c-1.1-2.6-2.4-5.1-3.9-7.4l-0.1-0.3c1.1,0.7,2.1,1.4,3.1,2.2c-0.4,0.1-0.9,0.3-1.1,0.6c0,0.1,0,0.2,0,0.2c0,0.1,0.1,0.1,0.1,0.2
	c2.5,1.4,2.4,1.4,2.5,1.4c0.1,0,0.1,0,0.2-0.1c0.1,0,0.1-0.1,0.1-0.2c0-0.1,0-0.1,0-0.2c0-0.1-0.1-0.1-0.1-0.2l-1.9-1.1
	c0.3-0.1,0.7-0.2,1-0.2c0.1,0,0.1,0,0.2-0.1c0,0,0.1-0.1,0.1-0.1c0-0.1,0-0.1,0-0.2c0-0.1,0-0.1-0.1-0.2c0,0-0.1-0.1-0.1-0.1
	c1-1,5.5-5.8,7.1-7.5c0,0,0-0.1,0.1-0.1c0,0,0-0.1,0-0.1C81.1,38,81.1,37.9,81,37.8C81,37.9,81,37.8,81,37.8z M52.5,67
	c-0.2-0.2-0.5-0.3-0.8-0.3c-0.6,0-0.8,0.5-0.9,0.8c-0.5,1.2-0.8-0.1-0.4-0.9c0-0.1,0-0.2,0-0.2s-0.1-0.1-0.2-0.2c-0.1,0-0.2,0-0.2,0
	c-0.1,0-0.1,0.1-0.2,0.2c-0.2,0.4-0.3,0.8-0.2,1.2c-0.4-0.4-0.4-0.5-0.4-0.6c0-0.4,0.1-0.7,0.2-1c0,0,0-0.1,0-0.1c0,0,0-0.1,0-0.1
	c0,0,0-0.1-0.1-0.1c0,0-0.1,0-0.1-0.1s-0.1,0-0.1,0c0,0-0.1,0-0.1,0c0,0-0.1,0-0.1,0.1c0,0,0,0.1-0.1,0.1c-0.1,0.4-0.2,0.7-0.2,1.1
	c0-0.1-0.1-0.1-0.1-0.2c0-0.4,0.1-0.8,0.3-1.2c0-0.1,0.1-0.1,0.1-0.2c0-0.1,0-0.1,0-0.2c0-0.1-0.1-0.1-0.1-0.1c-0.1,0-0.1,0-0.2,0
	c0.3-0.5,0.4-0.2,2-1.7l1.9,1.5c-0.1,0.5-0.1,1,0.1,1.5C52.6,66.3,52.6,66.7,52.5,67z M52.8,64.1l-2-1.5l0.4-0.5
	c0.4,0.3,1.2,0.9,2,1.4L52.8,64.1z M65.5,48.7c-0.2-1.5-0.3-3,0-4.5l0.3,0.8c0,0,0.8,1.3,1.7,3.1h0C66.8,48.2,66.2,48.4,65.5,48.7
	L65.5,48.7z M68.7,45.3c-0.9-0.3-1.7-0.7-2.5-1.2l-0.3-0.7l0,0c0.8,0.3,1.6,0.5,2.5,0.5c0.2,0,0.4,0,0.7-0.1
	C69.1,43.9,69.2,43.7,68.7,45.3L68.7,45.3z M70,46.3l0.1,1.3L69.5,48l-1-1.1L69,46C69.4,46.1,69.7,46.2,70,46.3L70,46.3z M68.4,45.9
	L67.6,47c-0.5-0.9-0.9-1.6-1.1-2C67.1,45.4,67.7,45.7,68.4,45.9L68.4,45.9z M66.5,50.8c0.3-0.8,0.8-1.5,1.3-2.1
	c0.9,1.8,1.8,3.6,2.5,5.5C69.2,52.9,67.9,51.8,66.5,50.8L66.5,50.8z M68,47.6l0.2-0.3l1,1.2c0.2,0.4,2.6,5.7,2.7,8.6
	C71.2,54.2,69.3,50.2,68,47.6L68,47.6z M72.4,63.3c2.2,2.3,10.2,11.4,7.2,12.7c-4.4,2.1-9,3.8-13.7,5.3c-1.5-1.6-1.4-4.1-1.3-4.9
	c2.9-0.9,8.3-2.5,9.1-2.7c0.3,0.1,0.6,0.4,0.7,0.7c0,0.1,0.1,0.1,0.2,0.2c0.1,0,0.2,0,0.2,0c0.1,0,0.1-0.1,0.2-0.2
	c0-0.1,0-0.2,0-0.2c-0.2-0.6-0.9-1-1.5-1.3c-3.5-2.1-8.6-5.9-9-6.6c-0.3-0.7-0.3-1.6-0.1-2.3c1.8,1.3,4.4,2.7,6.5,2.1
	c0,0,0.1,0,0.1-0.1c0,0,0.1-0.1,0.1-0.1c0.4-1.3,0.7-2.7,0.8-4l0.5,0.5c-0.1,0.3-0.2,0.5-0.2,0.8C72.3,63.2,72.4,63.3,72.4,63.3z
	 M70.9,46.6c1.2,2.2,2.2,4.4,3.1,6.7c0,0.3,0.1,0.6,0.1,0.9c-0.9-2.3-2-4.5-3.3-6.6l-0.1-1.1C70.8,46.6,70.9,46.6,70.9,46.6z
	 M75.6,59.9c-0.1,1-0.3,3-0.4,4l-2.7-2.7v-4c0-2.7-2.1-7.6-2.6-8.8l0.6-0.3C72.5,51.3,75.3,59.2,75.6,59.9L75.6,59.9z M70.4,45.7
	c-0.4-0.1-0.7-0.2-1.1-0.3l0.3-0.9C69.8,44.8,70.1,45.3,70.4,45.7z M69.4,42.9c-0.1,0.1-0.3,0.2-0.5,0.3c-0.2,0.1-0.4,0.1-0.5,0.1
	c-0.6,0-1.3-0.1-1.9-0.3c-0.5-0.2-0.5-0.2-0.7-0.2c-0.5,0.1-1,0.2-1.4,0.3c-0.2,0-0.4,0-0.6-0.1c-0.2-0.1-0.4-0.2-0.6-0.3
	c-0.2-0.2-0.4-0.5-0.4-0.8c0-0.2,0-0.4,0.1-0.6c1.4,1,1.3,0.9,1.5,0.9c0.1,0,0.1,0,0.2,0c0,0,0.1-0.1,0.1-0.1l0.3-0.4
	c0-0.1,0.1-0.1,0.1-0.2c0-0.1,0-0.1-0.1-0.2c-0.6-0.8-1.1-1.7-1.4-2.6c0-0.1-0.1-0.1-0.1-0.1s-0.1-0.1-0.2-0.1c-0.2,0-0.4,0-0.6-0.1
	c-0.2-0.1-0.3-0.2-0.5-0.4c-0.2-0.4-0.2-0.8-0.1-1.3c0.3-0.9,0.9-1,2.3-1.3c2-0.3,1.6-1.4,2.4-1.6c0.4,0,0.8,0.1,1.1,0.3
	c1.1,0.9,1.2,1,1.4,2c0,0.3,0.1,0.5,0.2,0.8c0.1,0.2,0.3,0.4,0.5,0.6c0.7,0.7,0.9,0.9,0.6,2.6C70.4,41.2,70,42.2,69.4,42.9
	L69.4,42.9z"/>
</svg>