<svg xmlns="http://www.w3.org/2000/svg" fill="none" viewBox="0 0 200 200" height="100" width="100"><path fill="#def6f8" fill-rule="evenodd" d="M176.558 111.832L179.596 103.778L152.714 97.271L148.672 105.349L85.5271 91.96L79.0581 109.204L47.7881 101.342L63.2721 169.207L144.302 195L186.962 114.398L176.558 111.832Z" clip-rule="evenodd"></path><path fill="#0e2238" fill-rule="evenodd" d="M88.042 48.0506L82.906 59.9696C82.906 59.9696 100 57.4076 109.681 59.4156C125.309 62.6576 114.939 79.7546 114.939 79.7546L105.039 78.7246L114.518 106.625L141.434 84.6496L130.621 82.7866C130.621 82.7866 140.829 68.1866 129.569 55.4016C116.851 40.9586 88.042 48.0506 88.042 48.0506Z" clip-rule="evenodd"></path><path fill="#ffffff" fill-rule="evenodd" d="M175.52 22.9326L151.183 16.5996C151.183 16.5996 135.253 28.9466 144.119 51.8526L166.613 56.5926C166.613 56.5926 157.032 33.9326 175.52 22.9326Z" clip-rule="evenodd"></path><path fill="#ffffff" fill-rule="evenodd" d="M13.0381 115.474L33.4441 108.027C33.4441 108.027 42.5501 126.45 47.2001 133.899L29.6771 147.555C29.6771 147.555 21.9241 138.099 13.0381 115.474Z" clip-rule="evenodd"></path><path fill="#ffffff" fill-rule="evenodd" d="M55.446 45.1133L55.13 74.9993C55.13 74.9993 19.415 88.2503 15.23 90.2393C15.23 90.2393 12.265 66.1773 13.23 57.5743C13.23 57.5773 37.476 48.3483 55.446 45.1133Z" clip-rule="evenodd"></path><path fill="#ffffff" d="M96.8121 23.2817C96.8121 23.2817 75.1751 36.2817 73.0451 37.8547C73.0451 37.8547 63.3671 21.7347 61.4221 16.4897C61.4221 16.4897 76.3881 7.2787 87.1301 3.7207L96.8121 23.2817Z"></path><path fill="#0e2238" d="M97.2611 23.0596L87.5781 3.49963C87.5257 3.39053 87.435 3.3045 87.3233 3.25786C87.2115 3.21122 87.0866 3.20723 86.9721 3.24663C76.3001 6.78163 61.3101 15.9706 61.1601 16.0636C61.0615 16.1242 60.987 16.2172 60.9492 16.3266C60.9115 16.436 60.9128 16.5551 60.9531 16.6636C62.8921 21.8916 72.2201 37.4526 72.6161 38.1126C72.652 38.1724 72.6999 38.2241 72.7569 38.2642C72.8139 38.3044 72.8787 38.3322 72.947 38.3458C73.0154 38.3595 73.0859 38.3587 73.1539 38.3435C73.2219 38.3283 73.2861 38.2991 73.3421 38.2576C75.4281 36.7196 96.8541 23.8406 97.0701 23.7106C97.178 23.646 97.2575 23.5431 97.2929 23.4225C97.3283 23.3018 97.317 23.1723 97.2611 23.0596V23.0596ZM73.2001 37.1396C71.6551 34.5456 64.0301 21.6666 62.0391 16.6996C64.3391 15.3106 77.2621 7.61463 86.8751 4.33463L96.1601 23.0906C93.2831 24.8206 76.6501 34.8356 73.2001 37.1396Z"></path><path fill="#def6f8" fill-rule="evenodd" d="M16.8221 86.39C16.8221 86.39 15.3221 65.09 15.8131 59.42C15.8131 59.42 41.0651 51.065 52.9041 48.083V72.833L16.8221 86.39Z" clip-rule="evenodd"></path><path fill="#def6f8" fill-rule="evenodd" d="M73.8342 33.2246C73.8342 33.2246 66.4912 20.5896 65.1182 17.1446C65.1182 17.1446 79.0182 9.8696 85.8462 7.0166L93.3462 21.8416L73.8342 33.2246Z" clip-rule="evenodd"></path><path fill="#00bac7" fill-rule="evenodd" d="M16.406 79.926L24.392 67.677L34.348 74.707L44.58 61.5L52.98 71.006L52.9 72.833L16.822 86.39L16.406 79.926Z" clip-rule="evenodd"></path><path fill="#00bac7" fill-rule="evenodd" d="M73.8341 33.2246L71.4871 29.1316L73.3471 21.2686L82.0331 24.4486L84.5271 16.0166L92.5841 20.3386L93.3441 21.8386L73.8341 33.2246Z" clip-rule="evenodd"></path><path fill="#def6f8" fill-rule="evenodd" d="M23.737 60.1221C24.4225 60.1887 25.0587 60.5081 25.5216 61.0182C25.9844 61.5282 26.2409 62.1923 26.2409 62.8811C26.2409 63.5698 25.9844 64.2339 25.5216 64.7439C25.0587 65.254 24.4225 65.5734 23.737 65.6401C23.0515 65.5734 22.4153 65.254 21.9524 64.7439C21.4896 64.2339 21.2332 63.5698 21.2332 62.8811C21.2332 62.1923 21.4896 61.5282 21.9524 61.0182C22.4153 60.5081 23.0515 60.1887 23.737 60.1221V60.1221Z" clip-rule="evenodd"></path><path fill="#def6f8" fill-rule="evenodd" d="M70.4901 16.8528C70.994 16.8278 71.4943 16.9494 71.9306 17.2028C72.3668 17.4563 72.7203 17.8307 72.9481 18.2808C73.4031 19.1938 73.0401 20.0358 72.1391 20.1608C71.6353 20.1857 71.135 20.0639 70.6989 19.8103C70.2629 19.5567 69.9097 19.182 69.6821 18.7318C69.2271 17.8188 69.5891 16.9768 70.4901 16.8528Z" clip-rule="evenodd"></path><path fill="#def6f8" d="M65.2761 84.7393L72.2301 85.3203C70.9619 89.2818 71.0947 93.559 72.6061 97.4343L67.0441 99.0993C67.0441 99.0993 63.6821 93.6503 65.2761 84.7393Z"></path><path fill="#def6f8" d="M19.655 20.3389C18.6936 22.5237 17.9 24.7785 17.281 27.0839L27.168 31.9709C28.1563 29.4627 29.3372 27.0348 30.7 24.7089L19.655 20.3389Z"></path><path fill="#def6f8" d="M170.129 83.6116C170.129 83.6116 172.702 79.7516 175.597 75.2246L182.147 77.4426C180.579 80.2615 178.838 82.9807 176.934 85.5846L170.129 83.6116Z"></path><path fill="#0e2238" d="M139.5 124.237C139.492 124.132 139.452 124.033 139.384 123.952C139.316 123.872 139.225 123.815 139.123 123.789L47.9101 100.856C47.8268 100.835 47.7394 100.836 47.6565 100.858C47.5736 100.881 47.4979 100.924 47.4367 100.985C47.3755 101.045 47.3308 101.12 47.3071 101.203C47.2833 101.285 47.2813 101.372 47.3011 101.456L62.7851 169.322C62.8044 169.407 62.8454 169.485 62.9042 169.549C62.9629 169.613 63.0373 169.661 63.1201 169.687C147.293 196.5 144.18 195.5 144.3 195.5C144.369 195.5 144.437 195.486 144.5 195.459C144.564 195.431 144.62 195.391 144.667 195.341C144.714 195.29 144.75 195.231 144.773 195.166C144.796 195.101 144.805 195.032 144.8 194.963L139.5 124.237ZM63.7001 168.818L48.4571 102.025L138.525 124.672L143.748 194.299L63.7001 168.818Z"></path><path fill="#0e2238" d="M114.042 106.785C114.076 106.884 114.14 106.97 114.225 107.031C114.31 107.092 114.412 107.124 114.516 107.124C114.779 107.124 114.125 107.594 123.309 100.092C123.412 100.008 123.477 99.8867 123.491 99.7546C123.504 99.6225 123.464 99.4905 123.381 99.3876C123.297 99.2847 123.175 99.2193 123.043 99.2059C122.911 99.1925 122.779 99.2321 122.676 99.3161L114.758 105.781L111.8 97.0701C111.757 96.9443 111.666 96.8408 111.547 96.7821C111.428 96.7234 111.291 96.7144 111.165 96.7571C111.039 96.7998 110.936 96.8907 110.877 97.0097C110.818 97.1288 110.809 97.2663 110.852 97.3921L114.042 106.785Z"></path><path fill="#0e2238" d="M175.646 22.4496L151.309 16.1116C151.235 16.0918 151.158 16.0894 151.083 16.1046C151.008 16.1199 150.937 16.1524 150.877 16.1996C150.714 16.3256 134.755 29.0416 143.653 52.0286C143.683 52.1063 143.732 52.1752 143.795 52.2292C143.859 52.2831 143.935 52.3204 144.016 52.3376L166.51 57.0786C166.599 57.0973 166.692 57.0912 166.778 57.061C166.864 57.0307 166.941 56.9774 166.999 56.907C167.057 56.8365 167.094 56.7515 167.107 56.6612C167.12 56.5709 167.109 56.4787 167.073 56.3946C166.979 56.1726 157.873 34.0166 175.773 23.3626C175.858 23.3123 175.926 23.2382 175.968 23.1495C176.011 23.0608 176.026 22.9614 176.013 22.8639C175.999 22.7665 175.957 22.6751 175.892 22.6014C175.827 22.5277 175.741 22.4749 175.646 22.4496V22.4496ZM165.824 55.9126L144.488 51.4126C136.588 30.6336 149.579 18.6126 151.305 17.1416L174.269 23.1216C158.92 33.1496 164.335 51.6856 165.824 55.9126V55.9126Z"></path><path fill="#0e2238" d="M151.786 20.9202C169.87 25.5252 168.807 25.2592 168.91 25.2592C169.032 25.2586 169.149 25.2138 169.239 25.1332C169.33 25.0526 169.389 24.9417 169.404 24.8212C169.419 24.7007 169.389 24.5788 169.321 24.4783C169.253 24.3779 169.151 24.3056 169.033 24.2752L152.033 19.9512C151.906 19.9219 151.772 19.9437 151.661 20.0118C151.549 20.0798 151.469 20.1888 151.437 20.3154C151.404 20.4421 151.423 20.5762 151.489 20.6892C151.554 20.8022 151.661 20.8851 151.787 20.9202H151.786Z"></path><path fill="#0e2238" d="M166.473 27.5915L149.153 23.3735C149.088 23.3535 149.02 23.3471 148.952 23.3546C148.884 23.3621 148.819 23.3833 148.759 23.417C148.7 23.4507 148.649 23.4962 148.608 23.5506C148.567 23.605 148.537 23.6672 148.521 23.7334C148.505 23.7995 148.502 23.8683 148.514 23.9355C148.525 24.0026 148.55 24.0667 148.587 24.1239C148.625 24.181 148.673 24.2299 148.73 24.2677C148.786 24.3055 148.85 24.3312 148.917 24.3435L166.237 28.5615C166.302 28.5814 166.371 28.5878 166.439 28.5803C166.506 28.5728 166.572 28.5516 166.631 28.5179C166.69 28.4842 166.742 28.4387 166.783 28.3843C166.824 28.3299 166.853 28.2677 166.869 28.2016C166.885 28.1354 166.888 28.0666 166.876 27.9994C166.865 27.9323 166.84 27.8682 166.803 27.811C166.766 27.7539 166.717 27.705 166.661 27.6672C166.604 27.6295 166.54 27.6037 166.473 27.5915V27.5915Z"></path><path fill="#0e2238" d="M164.094 31.0167L146.773 26.7997C146.708 26.7801 146.64 26.7739 146.572 26.7815C146.505 26.7891 146.44 26.8104 146.381 26.8441C146.322 26.8778 146.27 26.9231 146.229 26.9774C146.188 27.0316 146.159 27.0936 146.143 27.1596C146.127 27.2256 146.124 27.2942 146.135 27.3612C146.147 27.4282 146.171 27.4922 146.208 27.5493C146.245 27.6064 146.293 27.6554 146.35 27.6933C146.406 27.7312 146.469 27.7572 146.536 27.7697L163.857 31.9877C163.922 32.0057 163.989 32.0104 164.056 32.0018C164.122 31.9931 164.186 31.9712 164.244 31.9373C164.302 31.9034 164.352 31.8583 164.392 31.8046C164.432 31.7508 164.461 31.6896 164.477 31.6245C164.493 31.5595 164.495 31.4919 164.485 31.4257C164.474 31.3596 164.45 31.2963 164.414 31.2396C164.378 31.183 164.332 31.134 164.277 31.0957C164.222 31.0574 164.16 31.0306 164.094 31.0167V31.0167Z"></path><path fill="#0e2238" d="M161.617 39.0582L144.3 34.8412C144.235 34.8213 144.166 34.8149 144.099 34.8224C144.031 34.8299 143.966 34.8511 143.906 34.8848C143.847 34.9185 143.796 34.964 143.755 35.0184C143.714 35.0727 143.684 35.1349 143.668 35.2011C143.652 35.2673 143.649 35.3361 143.661 35.4033C143.672 35.4704 143.697 35.5345 143.734 35.5916C143.772 35.6488 143.82 35.6977 143.877 35.7355C143.933 35.7732 143.997 35.799 144.064 35.8112L161.384 40.0292C161.449 40.0476 161.517 40.0527 161.583 40.0443C161.65 40.0359 161.714 40.0141 161.773 39.9802C161.831 39.9463 161.881 39.9011 161.922 39.8471C161.962 39.7932 161.991 39.7317 162.007 39.6663C162.022 39.601 162.025 39.5331 162.014 39.4667C162.003 39.4003 161.979 39.3369 161.943 39.2801C161.907 39.2233 161.859 39.1744 161.804 39.1363C161.749 39.0981 161.686 39.0716 161.62 39.0582H161.617Z"></path><path fill="#0e2238" d="M161.617 43.2771L144.3 39.0591C144.235 39.0407 144.168 39.0356 144.101 39.044C144.034 39.0524 143.97 39.0742 143.912 39.1081C143.854 39.142 143.803 39.1872 143.763 39.2412C143.723 39.2951 143.694 39.3566 143.678 39.422C143.662 39.4873 143.659 39.5552 143.67 39.6216C143.681 39.688 143.706 39.7514 143.742 39.8082C143.778 39.865 143.825 39.9139 143.88 39.952C143.936 39.9901 143.998 40.0167 144.064 40.0301L161.384 44.2481C161.449 44.2664 161.517 44.2716 161.583 44.2631C161.65 44.2547 161.714 44.2329 161.773 44.199C161.831 44.1651 161.881 44.1199 161.922 44.0659C161.962 44.012 161.991 43.9505 162.007 43.8852C162.022 43.8198 162.025 43.7519 162.014 43.6855C162.003 43.6191 161.979 43.5557 161.943 43.4989C161.907 43.4421 161.859 43.3932 161.804 43.3551C161.749 43.317 161.686 43.2904 161.62 43.2771H161.617Z"></path><path fill="#0e2238" d="M161.617 47.4998L144.3 43.2768C144.235 43.2585 144.168 43.2533 144.101 43.2617C144.034 43.2702 143.97 43.292 143.912 43.3259C143.854 43.3597 143.803 43.405 143.763 43.4589C143.723 43.5129 143.694 43.5744 143.678 43.6397C143.662 43.7051 143.659 43.773 143.67 43.8394C143.681 43.9057 143.706 43.9692 143.742 44.026C143.778 44.0828 143.825 44.1317 143.88 44.1698C143.936 44.2079 143.998 44.2345 144.064 44.2478L161.384 48.4658C161.449 48.4842 161.517 48.4893 161.583 48.4809C161.65 48.4725 161.714 48.4507 161.773 48.4168C161.831 48.3829 161.881 48.3376 161.922 48.2837C161.962 48.2298 161.991 48.1683 162.007 48.1029C162.022 48.0376 162.025 47.9697 162.014 47.9033C162.003 47.8369 161.979 47.7734 161.943 47.7167C161.907 47.6599 161.859 47.611 161.804 47.5729C161.749 47.5347 161.686 47.5082 161.62 47.4948L161.617 47.4998Z"></path><path fill="#0e2238" d="M15.4492 90.6932C19.5622 88.7362 54.9492 75.6032 55.3042 75.4702C55.399 75.435 55.4809 75.3719 55.5391 75.2893C55.5973 75.2066 55.629 75.1083 55.6302 75.0072L55.9462 45.1182C55.9473 45.0444 55.9322 44.9713 55.9017 44.9041C55.8713 44.8369 55.8264 44.7772 55.7702 44.7294C55.714 44.6817 55.6479 44.6469 55.5766 44.6277C55.5054 44.6084 55.4308 44.6052 55.3582 44.6182C37.5482 47.8252 13.2952 57.0182 13.0582 57.1062C12.9721 57.1387 12.8967 57.1944 12.8402 57.2671C12.7837 57.3398 12.7484 57.4267 12.7382 57.5182C11.7812 66.0822 14.6212 89.3182 14.7382 90.3002C14.7475 90.379 14.7755 90.4545 14.8198 90.5204C14.864 90.5863 14.9234 90.6407 14.9929 90.6791C15.0623 90.7175 15.14 90.7388 15.2193 90.7413C15.2987 90.7437 15.3775 90.7272 15.4492 90.6932V90.6932ZM13.7002 57.9362C16.4502 56.8992 38.3352 48.7992 54.9402 45.7142L54.6342 74.6532C50.9902 76.0062 21.5822 86.9362 15.6502 89.5072C15.1882 85.5992 12.9322 65.7992 13.7002 57.9362Z"></path><path fill="#0e2238" d="M17.0001 86.8576L53.1581 73.2996C53.2538 73.2639 53.3363 73.1996 53.3944 73.1156C53.4525 73.0316 53.4835 72.9318 53.4831 72.8296C53.4831 72.5966 53.5001 75.5376 53.3241 48.0796C53.3235 48.0038 53.3056 47.9291 53.2717 47.8611C53.2379 47.7932 53.1891 47.7339 53.129 47.6877C53.0689 47.6414 52.999 47.6095 52.9247 47.5942C52.8504 47.5789 52.7736 47.5808 52.7001 47.5996C40.9811 50.5496 15.9081 58.8606 15.6561 58.9446C15.5633 58.9754 15.4815 59.0327 15.4208 59.1095C15.3602 59.1863 15.3235 59.2791 15.3151 59.3766C14.8241 65.0196 16.2621 85.5536 16.3231 86.4246C16.3285 86.5026 16.352 86.5782 16.3918 86.6454C16.4317 86.7126 16.4867 86.7695 16.5526 86.8116C16.6184 86.8537 16.6932 86.8798 16.7709 86.8878C16.8486 86.8958 16.9271 86.8855 17.0001 86.8576V86.8576ZM17.2771 85.6856C17.2091 84.6796 17.0771 82.6206 16.9201 80.0596L24.5301 68.3856L34.0631 75.1156C34.168 75.1899 34.2975 75.221 34.4247 75.2024C34.5518 75.1838 34.667 75.1169 34.7461 75.0156L44.6081 62.2866L52.4801 71.1866V72.4866L17.2771 85.6856ZM16.2891 59.7856C19.1831 58.8296 41.2141 51.6006 52.3991 48.7206V69.6636L44.9571 61.1706C44.9085 61.1156 44.8483 61.072 44.7809 61.0428C44.7134 61.0137 44.6404 60.9998 44.567 61.0021C44.4936 61.0044 44.4216 61.0228 44.3561 61.0561C44.2906 61.0894 44.2333 61.1367 44.1881 61.1946L34.2461 74.0226L24.6801 67.2696C24.6252 67.2307 24.563 67.2033 24.4972 67.189C24.4315 67.1747 24.3635 67.1738 24.2974 67.1864C24.2313 67.199 24.1684 67.2249 24.1125 67.2623C24.0566 67.2998 24.0089 67.3482 23.9721 67.4046L16.8181 78.3786C16.4481 71.9266 16.0471 63.3506 16.2861 59.7896L16.2891 59.7856Z"></path><path fill="#0e2238" d="M73.4001 33.4752C73.444 33.5509 73.507 33.6137 73.5828 33.6574C73.6587 33.7011 73.7446 33.7242 73.8321 33.7242C74.0421 33.7242 72.7141 34.4322 93.5941 22.2722C93.7042 22.2082 93.7856 22.1045 93.8219 21.9824C93.8581 21.8603 93.8464 21.729 93.7891 21.6152C78.6751 -8.31176 92.0811 18.2152 86.2891 6.79024C86.2321 6.67743 86.1346 6.59038 86.016 6.54659C85.8974 6.50281 85.7667 6.50554 85.6501 6.55424C78.8881 9.38324 65.0251 16.6292 64.8861 16.6992C64.7764 16.7567 64.6919 16.8529 64.6491 16.9691C64.6062 17.0853 64.608 17.2133 64.6541 17.3282C66.0241 20.7682 73.1001 32.9592 73.4001 33.4752ZM74.0131 32.5402C73.6661 31.9402 72.9871 30.7592 72.1561 29.2982L73.5561 22.0062L81.5841 25.1062C81.6481 25.1311 81.7166 25.1425 81.7852 25.1398C81.8539 25.137 81.9212 25.1202 81.9831 25.0902C82.0449 25.0603 82.0999 25.018 82.1446 24.9658C82.1894 24.9137 82.2229 24.8529 82.2431 24.7872L84.7761 16.5552L92.4081 21.0902L92.6881 21.6442L74.0131 32.5402ZM85.6101 7.65824L91.5651 19.4302L84.7391 15.3732C84.6741 15.3344 84.6011 15.3109 84.5256 15.3044C84.4502 15.298 84.3742 15.3087 84.3036 15.3359C84.2329 15.363 84.1693 15.4059 84.1176 15.4612C84.0659 15.5165 84.0274 15.5829 84.0051 15.6552L81.4421 23.9812L73.3551 20.8562C73.2868 20.8299 73.2135 20.8189 73.1404 20.824C73.0674 20.8291 72.9963 20.8502 72.9323 20.8858C72.8683 20.9213 72.8129 20.9706 72.77 21.0299C72.7271 21.0893 72.6978 21.1573 72.6841 21.2292L71.4001 27.9542C69.3271 24.2852 66.7291 19.5792 65.7611 17.3752C68.0491 16.1822 79.4241 10.2992 85.6101 7.65824Z"></path><path fill="#0e2238" d="M23.7372 66.1391C24.5562 66.0733 25.3204 65.7014 25.8777 65.0976C26.435 64.4938 26.7444 63.7022 26.7444 62.8806C26.7444 62.0589 26.435 61.2674 25.8777 60.6635C25.3204 60.0597 24.5562 59.6879 23.7372 59.6221C22.9181 59.6879 22.1539 60.0597 21.5967 60.6635C21.0394 61.2674 20.73 62.0589 20.73 62.8806C20.73 63.7022 21.0394 64.4938 21.5967 65.0976C22.1539 65.7014 22.9181 66.0733 23.7372 66.1391ZM23.7372 60.6221C24.2906 60.687 24.8009 60.9529 25.1712 61.3692C25.5415 61.7856 25.7461 62.3234 25.7461 62.8806C25.7461 63.4378 25.5415 63.9756 25.1712 64.3919C24.8009 64.8082 24.2906 65.0741 23.7372 65.1391C23.1838 65.0741 22.6735 64.8082 22.3031 64.3919C21.9328 63.9756 21.7282 63.4378 21.7282 62.8806C21.7282 62.3234 21.9328 61.7856 22.3031 61.3692C22.6735 60.9529 23.1838 60.687 23.7372 60.6221V60.6221Z"></path><path fill="#0e2238" d="M73.4592 19.825C74.2732 18.282 72.3142 16.098 70.4212 16.357C70.1369 16.3925 69.8665 16.5002 69.6356 16.6698C69.4047 16.8393 69.2211 17.0652 69.1021 17.3258C68.9831 17.5863 68.9328 17.873 68.9559 18.1586C68.979 18.4441 69.0748 18.719 69.2342 18.957C70.1182 20.729 72.6682 21.32 73.4592 19.825ZM70.0592 17.656C70.4002 17.007 71.9462 17.385 72.5042 18.505C72.7772 19.05 72.6822 19.581 72.0752 19.666C70.9152 19.829 69.6652 18.4 70.0552 17.656H70.0592Z"></path><path fill="#0e2238" d="M33.272 107.558L12.866 115.005C12.8035 115.028 12.7461 115.063 12.6973 115.108C12.6484 115.153 12.6092 115.208 12.5818 115.269C12.5544 115.33 12.5394 115.395 12.5378 115.462C12.5361 115.528 12.5477 115.595 12.572 115.657C21.385 138.097 29.213 147.777 29.291 147.873C29.3738 147.974 29.4927 148.038 29.6224 148.052C29.752 148.067 29.8822 148.03 29.985 147.95L47.511 134.293C47.6086 134.217 47.6745 134.107 47.696 133.985C47.7174 133.863 47.6928 133.738 47.627 133.633C43.04 126.293 33.983 107.991 33.892 107.806C33.8374 107.695 33.7439 107.609 33.6295 107.563C33.5151 107.517 33.3878 107.515 33.272 107.558V107.558ZM46.542 133.78L29.765 146.853C28.272 144.881 21.392 135.253 13.691 115.768L33.191 108.651C34.532 111.342 42.255 126.805 46.542 133.78Z"></path><path fill="#0e2238" d="M32.8711 112.592L17.6111 119.037C17.4888 119.089 17.392 119.186 17.3419 119.309C17.2919 119.432 17.2926 119.57 17.3441 119.692C17.3955 119.814 17.4935 119.911 17.6163 119.961C17.7391 120.011 17.8768 120.011 17.9991 119.959L33.2601 113.514C33.3824 113.462 33.4791 113.364 33.5291 113.242C33.5791 113.119 33.5782 112.981 33.5266 112.859C33.475 112.736 33.377 112.64 33.254 112.59C33.1311 112.54 32.9934 112.541 32.8711 112.592Z"></path><path fill="#0e2238" d="M19.0151 123.536C19.0433 123.595 19.083 123.648 19.1318 123.692C19.1807 123.736 19.2377 123.77 19.2996 123.792C19.3616 123.814 19.4272 123.823 19.4929 123.82C19.5585 123.816 19.6228 123.8 19.6821 123.772L34.4571 116.726C34.5669 116.663 34.6491 116.561 34.6869 116.441C34.7248 116.32 34.7155 116.19 34.661 116.075C34.6065 115.961 34.5108 115.872 34.3932 115.826C34.2755 115.779 34.1447 115.779 34.0271 115.826L19.2511 122.87C19.1315 122.927 19.0395 123.029 18.9953 123.154C18.951 123.279 18.9581 123.416 19.0151 123.536V123.536Z"></path><path fill="#0e2238" d="M20.686 127.205C20.7433 127.325 20.8455 127.417 20.9704 127.461C21.0952 127.505 21.2325 127.497 21.352 127.44L36.4 120.249C36.5107 120.187 36.5936 120.085 36.6319 119.964C36.6701 119.843 36.6609 119.712 36.6061 119.598C36.5512 119.483 36.4549 119.394 36.3366 119.348C36.2182 119.301 36.0868 119.302 35.969 119.349L20.919 126.541C20.8005 126.599 20.7095 126.701 20.6659 126.825C20.6223 126.95 20.6295 127.086 20.686 127.205V127.205Z"></path><path fill="#0e2238" d="M23.7381 133.007C23.8016 133.123 23.9086 133.21 24.0357 133.247C24.1629 133.285 24.2997 133.27 24.4161 133.207L38.7381 125.4C38.8511 125.335 38.9341 125.228 38.9694 125.102C39.0047 124.977 38.9896 124.842 38.9272 124.728C38.8649 124.613 38.7602 124.528 38.6356 124.489C38.511 124.451 38.3762 124.462 38.2601 124.522L23.9371 132.334C23.8222 132.397 23.737 132.504 23.6997 132.63C23.6625 132.755 23.6763 132.891 23.7381 133.007Z"></path><path fill="#0e2238" d="M25.9322 137.091C25.9672 137.147 26.0128 137.195 26.0664 137.233C26.12 137.271 26.1806 137.298 26.2447 137.313C26.3087 137.327 26.3751 137.329 26.4399 137.318C26.5046 137.307 26.5666 137.283 26.6222 137.248L40.9322 128.215C41.0444 128.144 41.1239 128.032 41.1531 127.903C41.1824 127.773 41.159 127.637 41.0882 127.525C41.0174 127.413 40.9049 127.334 40.7755 127.304C40.6461 127.275 40.5104 127.298 40.3982 127.369L26.0882 136.399C26.0324 136.434 25.984 136.48 25.9459 136.534C25.9078 136.588 25.8807 136.648 25.8662 136.713C25.8517 136.777 25.8501 136.844 25.8614 136.909C25.8728 136.974 25.8968 137.036 25.9322 137.091V137.091Z"></path><path fill="#0e2238" d="M28.239 140.159C28.3094 140.271 28.4216 140.351 28.5508 140.38C28.68 140.41 28.8156 140.387 28.928 140.317L43.065 131.472C43.1235 131.438 43.1747 131.393 43.2155 131.34C43.2563 131.286 43.2858 131.225 43.3023 131.159C43.3187 131.094 43.3218 131.026 43.3113 130.959C43.3008 130.893 43.277 130.829 43.2413 130.772C43.2055 130.715 43.1586 130.665 43.1033 130.627C43.048 130.588 42.9855 130.561 42.9195 130.548C42.8536 130.534 42.7855 130.534 42.7194 130.547C42.6533 130.56 42.5906 130.586 42.535 130.625L28.4 139.469C28.344 139.503 28.2954 139.549 28.257 139.602C28.2186 139.655 28.1911 139.716 28.1762 139.78C28.1612 139.844 28.1591 139.911 28.1698 139.976C28.1806 140.041 28.2041 140.103 28.239 140.159V140.159Z"></path><path fill="#0e2238" d="M58.6311 175.688C58.6186 175.603 58.5845 175.523 58.532 175.455C58.4794 175.387 58.4103 175.334 58.3312 175.301C58.2522 175.267 58.1658 175.255 58.0805 175.264C57.9952 175.274 57.9138 175.305 57.8441 175.355L50.0441 180.966C49.9363 181.044 49.8637 181.161 49.8422 181.292C49.8207 181.423 49.8521 181.557 49.9296 181.665C50.007 181.773 50.1241 181.845 50.2551 181.867C50.3861 181.888 50.5203 181.857 50.6281 181.779L57.2961 176.984C56.2271 180.015 52.5631 188.042 43.6411 188.438C41.7055 188.581 39.7721 188.133 38.0971 187.152C36.4222 186.172 35.0848 184.705 34.2621 182.947C46.5941 181.687 45.0991 171.02 37.6331 171.472C32.7621 171.735 31.1901 177.241 32.8051 182.027C30.6117 182.099 28.4166 181.949 26.2531 181.581C21.2591 180.773 17.6851 178.581 15.6321 175.073C11.1321 167.38 15.3221 155.748 15.3651 155.632C15.411 155.508 15.4055 155.37 15.3499 155.25C15.2943 155.129 15.1931 155.036 15.0686 154.99C14.9441 154.944 14.8064 154.949 14.6859 155.005C14.5654 155.061 14.472 155.162 14.4261 155.286C14.2441 155.78 10.0311 167.471 14.7671 175.575C16.9781 179.357 20.7891 181.71 26.0941 182.567C28.4376 182.973 30.8177 183.129 33.1941 183.03C34.0164 184.968 35.3999 186.615 37.1665 187.759C38.9331 188.903 41.0018 189.492 43.1061 189.45C50.2331 189.45 55.3801 184.608 57.9691 178.028L58.9191 184.422C58.9405 184.552 59.0119 184.668 59.118 184.745C59.224 184.822 59.3561 184.855 59.4859 184.835C59.6157 184.816 59.7326 184.746 59.8116 184.642C59.8906 184.537 59.9252 184.405 59.9081 184.275L58.6311 175.688ZM38.0311 172.462C41.8251 172.462 43.5121 175.811 41.5941 178.542C40.2371 180.473 37.5031 181.642 33.8391 181.961C32.2651 177.667 33.5181 172.462 38.0321 172.462H38.0311Z"></path></svg>