<svg xmlns="http://www.w3.org/2000/svg" xmlns:xlink="http://www.w3.org/1999/xlink" width="125" height="25" xmlns:v="https://vecta.io/nano"><g fill-rule="evenodd"><g fill="rgb(5.490196%,13.333333%,21.960784%)"><path d="M34.777 18.492h-3.789V7.863h3.789c2.625 0 4.762 2.523 4.762 5.313s-2.137 5.316-4.762 5.316m0-13.953h-7.594v17.277h7.594c4.723 0 8.57-3.734 8.57-8.641s-3.848-8.637-8.57-8.637m27.711 17.325H58.18l-5.098-9.246-5.094 9.246H43.41l7.383-13.395 2.156-3.906 2.289 4.148zm14.196-5.652c.012.137.004.309-.004.469l-.059.492c-.059.328-.148.66-.281.969a4.7 4.7 0 0 1-1.098 1.582 5.65 5.65 0 0 1-1.402.984c-.969.488-1.953.723-2.93.805l-.73.027-.793-.047a7 7 0 0 1-1.559-.363c-1.016-.367-1.977-.992-2.711-1.902a5.44 5.44 0 0 1-.883-1.547c-.215-.574-.316-1.199-.312-1.816h3.695c.016.332.137.648.395.953s.645.566 1.09.727a3.05 3.05 0 0 0 .707.16c.121.02.246.02.371.023l.434-.02c.574-.043 1.129-.172 1.555-.383a2.03 2.03 0 0 0 .516-.336 1.08 1.08 0 0 0 .246-.316.72.72 0 0 0 .047-.156c.016-.062.02-.102.02-.207.008-.215-.023-.371-.055-.496-.039-.117-.074-.23-.187-.367s-.293-.289-.527-.434c-.473-.293-1.137-.543-1.855-.738l-2.352-.687a7.79 7.79 0 0 1-1.328-.578 4.97 4.97 0 0 1-1.363-1.074 4.18 4.18 0 0 1-.895-1.738 4.81 4.81 0 0 1-.129-.906c-.012-.289-.008-.594.035-.906.078-.621.316-1.281.695-1.832a4.54 4.54 0 0 1 1.359-1.309 6.34 6.34 0 0 1 1.301-.602c-.656.637-1.066 1.531-1.066 2.523a3.5 3.5 0 0 0 1.434 2.828 2.06 2.06 0 0 0 .234.164l.133.074c.012.004.02.012.031.016l.234.113.094.043.313.125c.621.23 1.348.418 2.121.629.777.223 1.617.418 2.531.832a5.64 5.64 0 0 1 1.395.887 4.43 4.43 0 0 1 1.141 1.539c.262.601.375 1.23.395 1.797"/><use xlink:href="#B"/><use xlink:href="#B"/><path d="M95.305 4.539V21.84h-3.812v-7.316h-7.5v7.316H80.18V4.539h3.813v6.656h7.5V4.539zm7.511 0h-3.812V21.84h12.121v-3.328h-8.309zm18.289 0h3.813l-5.973 9.07v8.23h-3.812v-8.23l-5.973-9.07h3.813l4.066 6.176zM16.004 1.453c.813.813.813 2.133 0 2.945L4.219 16.184c-.812.813-2.133.813-2.945 0s-.812-2.133 0-2.945L13.059 1.453a2.08 2.08 0 0 1 2.945 0zm0 0"/></g><path d="M17.477 8.816c.813.813.813 2.133 0 2.945L5.691 23.547a2.08 2.08 0 0 1-2.945 0c-.812-.812-.812-2.133 0-2.945L14.531 8.816c.813-.812 2.133-.812 2.945 0zm0 0" fill="rgb(12.54902%,73.333333%,78.039216%)"/></g><defs ><path id="B" d="M67.695 4.641c.574-.187 1.137-.293 1.68-.352l.715-.051.18-.004.199.004.402.023a6.39 6.39 0 0 1 1.586.34c1.031.359 2 1 2.723 1.918.734.902 1.184 2.125 1.164 3.344h-3.691c-.012-.352-.145-.676-.387-.992-.25-.309-.621-.574-1.051-.734-.219-.082-.449-.137-.687-.164l-.18-.012-.09-.004-.113-.004-.449.012c-.586.031-1.129.168-1.457.355-.168.086-.277.176-.352.262a.7.7 0 0 0-.164.328c-.039.141-.039.395-.012.523a.73.73 0 0 0 .137.34c.047.066.121.141.215.219a3.5 3.5 0 0 1-1.434-2.828c0-.992.41-1.887 1.066-2.523"/></defs></svg>