<svg xmlns="http://www.w3.org/2000/svg" width="19" height="25" fill-rule="evenodd" xmlns:v="https://vecta.io/nano"><path d="M16.129 1.512a2.06 2.06 0 0 1 0 2.93L4.25 16.164a2.13 2.13 0 0 1-2.969 0 2.06 2.06 0 0 1 0-2.93L13.16 1.512a2.13 2.13 0 0 1 2.969 0zm0 0" fill="rgb(5.490196%,13.333333%,21.960784%)"/><path d="M17.613 8.836a2.06 2.06 0 0 1 0 2.93L5.734 23.488a2.13 2.13 0 0 1-2.969 0 2.06 2.06 0 0 1 0-2.93L14.645 8.836a2.13 2.13 0 0 1 2.969 0zm0 0" fill="rgb(12.54902%,73.333333%,78.039216%)"/></svg>