<?xml version="1.0" encoding="UTF-8"?>
<svg width="32px" height="42px" viewBox="0 0 32 42" version="1.1" xmlns="http://www.w3.org/2000/svg" xmlns:xlink="http://www.w3.org/1999/xlink">
    <title>google-docs</title>
    <g id="Symbols" stroke="none" stroke-width="1" fill="none" fill-rule="evenodd">
        <g id="Apps/File-Manager" transform="translate(-143.000000, -703.000000)" fill-rule="nonzero">
            <g id="Files" transform="translate(29.000000, 595.000000)">
                <g id="Box" transform="translate(0.922481, 42.000000)">
                    <g id="google-docs" transform="translate(113.077519, 66.000000)">
                        <path d="M29,41.7882353 L3,41.7882353 C1.343,41.7882353 0,40.4520067 0,38.8033613 L0,2.98487395 C0,1.33622857 1.343,0 3,0 L22,0 L32,9.94957983 L32,38.8033613 C32,40.4520067 30.657,41.7882353 29,41.7882353 Z" id="Path" fill="#2196F3"></path>
                        <polygon id="Path" fill="#BBDEFB" points="32 9.78823529 22.2117647 9.78823529 22.2117647 0"></polygon>
                        <polygon id="Path" fill="#1565C0" points="22.2117647 10.1647059 32 19.9529412 32 10.1647059"></polygon>
                        <path d="M6.77647059,19.9529412 L24.8470588,19.9529412 L24.8470588,21.9428571 L6.77647059,21.9428571 L6.77647059,19.9529412 Z M6.77647059,23.9327731 L24.8470588,23.9327731 L24.8470588,25.9226891 L6.77647059,25.9226891 L6.77647059,23.9327731 Z M6.77647059,27.912605 L24.8470588,27.912605 L24.8470588,29.902521 L6.77647059,29.902521 L6.77647059,27.912605 Z M6.77647059,31.892437 L16.8156863,31.892437 L16.8156863,33.8823529 L6.77647059,33.8823529 L6.77647059,31.892437 Z" id="Shape" fill="#E3F2FD"></path>
                    </g>
                </g>
            </g>
        </g>
    </g>
</svg>