<?xml version="1.0" encoding="UTF-8"?>
<svg width="33px" height="43px" viewBox="0 0 33 43" version="1.1" xmlns="http://www.w3.org/2000/svg" xmlns:xlink="http://www.w3.org/1999/xlink">
    <title>google-forms</title>
    <g id="Symbols" stroke="none" stroke-width="1" fill="none" fill-rule="evenodd">
        <g id="Apps/File-Manager" transform="translate(-431.000000, -915.000000)" fill-rule="nonzero">
            <g id="Files" transform="translate(29.000000, 595.000000)">
                <g id="Box" transform="translate(289.422481, 256.000000)">
                    <g id="google-forms" transform="translate(113.077519, 64.000000)">
                        <path d="M28.9669565,41.9478261 L3.03304348,41.9478261 C1.3773913,41.9478261 0.0417391304,40.6121739 0.0417391304,38.9565217 L0.0417391304,3.06086957 C0.0417391304,1.40521739 1.3773913,0.0695652174 3.03304348,0.0695652174 L21.9826087,0.0695652174 L31.9582609,10.0452174 L31.9582609,38.9565217 C31.9582609,40.6121739 30.6086957,41.9478261 28.9669565,41.9478261 Z" id="Path" fill="#673AB7"></path>
                        <polygon id="Path" fill="#B6A2DA" points="31.9582609 10.0452174 21.9826087 10.0452174 21.9826087 0.0695652174"></polygon>
                        <polygon id="Path" fill="#5C34A4" points="21.9826087 10.0452174 31.9582609 20.0208696 31.9582609 10.0452174"></polygon>
                        <path d="M11.0191304,20.0069565 L24.973913,20.0069565 L24.973913,21.9965217 L11.0191304,21.9965217 L11.0191304,20.0069565 Z M11.0191304,25.0017391 L24.973913,25.0017391 L24.973913,26.9913043 L11.0191304,26.9913043 L11.0191304,25.0017391 Z M11.0191304,29.9826087 L24.973913,29.9826087 L24.973913,31.9721739 L11.0191304,31.9721739 L11.0191304,29.9826087 Z M7.02608696,20.0069565 L9.01565217,20.0069565 L9.01565217,21.9965217 L7.02608696,21.9965217 L7.02608696,20.0069565 Z M7.02608696,25.0017391 L9.01565217,25.0017391 L9.01565217,26.9913043 L7.02608696,26.9913043 L7.02608696,25.0017391 Z M7.02608696,29.9826087 L9.01565217,29.9826087 L9.01565217,31.9721739 L7.02608696,31.9721739 L7.02608696,29.9826087 Z" id="Shape" fill="#E8F5E9"></path>
                    </g>
                </g>
            </g>
        </g>
    </g>
</svg>