<?xml version="1.0" encoding="UTF-8"?>
<svg width="43px" height="27px" viewBox="0 0 43 27" version="1.1" xmlns="http://www.w3.org/2000/svg" xmlns:xlink="http://www.w3.org/1999/xlink">
    <title>Microsoft_Office_OneDrive_(2018–present)</title>
    <g id="Symbols" stroke="none" stroke-width="1" fill="none" fill-rule="evenodd">
        <g id="Apps/File-Manager" transform="translate(-346.000000, -219.000000)" fill-rule="nonzero">
            <g id="Storages" transform="translate(30.000000, 183.000000)">
                <g id="Box" transform="translate(287.500000, 0.000000)">
                    <g id="logo" transform="translate(20.000000, 20.000000)">
                        <g id="Microsoft_Office_OneDrive_(2018–present)" transform="translate(9.000000, 16.000000)">
                            <path d="M25.4892298,18.1481481 L34.2222222,9.86229237 C32.4082039,2.84461953 25.2035971,-1.38537368 18.1302236,0.414370253 C14.9448889,1.22483369 12.1782686,3.18391552 10.3703704,5.90916403 C10.5055469,5.90578167 25.4892298,18.1481481 25.4892298,18.1481481 Z" id="Path" fill="#0364B8"></path>
                            <path d="M16.0521238,7.27659873 L16.0517152,7.27803377 C14.3913964,6.24636337 12.4765903,5.70104835 10.5235723,5.7037037 C10.4784536,5.7037037 10.4341114,5.7065835 10.3890744,5.70711652 C4.57987971,5.77931951 -0.0711051815,10.5624292 0.000823163803,16.3904937 C0.026897189,18.5045939 0.685327628,20.5620715 1.89074044,22.2962963 L14.9084632,20.6605973 L24.8888889,12.58686 L16.0521238,7.27659873 Z" id="Path" fill="#0078D4"></path>
                            <path d="M34.0696261,9.87315472 C33.879674,9.86056906 33.6887871,9.85185185 33.495665,9.85185185 C32.3364853,9.85072642 31.1893757,10.0857395 30.1253753,10.542333 L30.1251315,10.5414455 L24.8888889,12.7286084 L30.6614599,19.8062707 L40.9813818,22.2962963 C43.2084227,18.1925624 41.662186,13.0738671 37.5277798,10.8633481 C36.4594716,10.2921525 35.2803376,9.95455817 34.0696668,9.87319506 L34.0696668,9.87315472 L34.0696261,9.87315472 Z" id="Path" fill="#1490DF"></path>
                            <path d="M2.07407407,22.5138026 C4.02498437,25.3026789 7.2259051,26.9647361 10.642584,26.962963 L33.4913355,26.962963 C36.6125486,26.9638488 39.4822263,25.2608956 40.962963,22.5290479 L24.9007589,12.962963 L2.07407407,22.5138026 Z" id="Path" fill="#28A8EA"></path>
                        </g>
                    </g>
                </g>
            </g>
        </g>
    </g>
</svg>