<?xml version="1.0" encoding="UTF-8"?>
<svg width="42px" height="37px" viewBox="0 0 42 37" version="1.1" xmlns="http://www.w3.org/2000/svg" xmlns:xlink="http://www.w3.org/1999/xlink">
    <title>dropbox_logo_glyph_2015_m1</title>
    <g id="Symbols" stroke="none" stroke-width="1" fill="none" fill-rule="evenodd">
        <g id="Apps/File-Manager" transform="translate(-59.000000, -214.000000)" fill="#0062FF" fill-rule="nonzero">
            <g id="Storages" transform="translate(30.000000, 183.000000)">
                <g id="logo" transform="translate(20.000000, 20.000000)">
                    <g id="dropbox_logo_glyph_2015_m1" transform="translate(9.000000, 11.500000)">
                        <path d="M10.3534884,0.68372093 L0,7.3255814 L10.3534884,13.8697674 L20.7069767,7.3255814 L10.3534884,0.68372093 Z M31.0604651,0.68372093 L20.7069767,7.3255814 L31.0604651,13.8697674 L41.4139535,7.3255814 L31.0604651,0.68372093 Z M0,20.5116279 L10.3534884,27.1534884 L20.7069767,20.5116279 L10.3534884,13.8697674 L0,20.5116279 Z M31.0604651,13.8697674 L20.7069767,20.5116279 L31.0604651,27.1534884 L41.4139535,20.5116279 L31.0604651,13.8697674 Z M10.3534884,29.3023256 L20.7069767,35.944186 L31.0604651,29.3023256 L20.7069767,22.7581395 L10.3534884,29.3023256 Z" id="Shape"></path>
                    </g>
                </g>
            </g>
        </g>
    </g>
</svg>