<?xml version="1.0" encoding="UTF-8"?>
<svg width="32px" height="42px" viewBox="0 0 32 42" version="1.1" xmlns="http://www.w3.org/2000/svg" xmlns:xlink="http://www.w3.org/1999/xlink">
    <title>google-slides</title>
    <g id="Symbols" stroke="none" stroke-width="1" fill="none" fill-rule="evenodd">
        <g id="Apps/File-Manager" transform="translate(-1007.000000, -703.000000)" fill-rule="nonzero">
            <g id="Files" transform="translate(29.000000, 595.000000)">
                <g id="Box" transform="translate(864.922481, 42.000000)">
                    <g id="google-slides" transform="translate(113.077519, 66.000000)">
                        <path d="M28.915942,41.8782609 L2.99130435,41.8782609 C1.33910725,41.8782609 0,40.5391536 0,38.8869565 L0,2.99130435 C0,1.33910725 1.33910725,0 2.99130435,0 L21.9362319,0 L31.9072464,9.97101449 L31.9072464,38.8869565 C31.9072464,40.5391536 30.5681391,41.8782609 28.915942,41.8782609 Z" id="Path" fill="#FFC107"></path>
                        <polygon id="Path" fill="#FFECB3" points="31.9072464 9.97101449 21.9362319 9.97101449 21.9362319 0"></polygon>
                        <polygon id="Path" fill="#FFA000" points="21.9362319 9.97101449 31.9072464 19.942029 31.9072464 9.97101449"></polygon>
                        <path d="M21.9362319,18.9449275 L9.97101449,18.9449275 C8.8742029,18.9449275 7.97681159,19.8423188 7.97681159,20.9391304 L7.97681159,32.9043478 C7.97681159,34.0011594 8.8742029,34.8985507 9.97101449,34.8985507 L21.9362319,34.8985507 C23.0330435,34.8985507 23.9304348,34.0011594 23.9304348,32.9043478 L23.9304348,20.9391304 C23.9304348,19.8423188 23.0330435,18.9449275 21.9362319,18.9449275 Z M21.9362319,22.9333333 L21.9362319,30.9101449 L9.97101449,30.9101449 L9.97101449,22.9333333 L21.9362319,22.9333333 Z" id="Shape" fill="#FFFFFF"></path>
                    </g>
                </g>
            </g>
        </g>
    </g>
</svg>