<?xml version="1.0" encoding="UTF-8"?>
<svg width="42px" height="22px" viewBox="0 0 42 22" version="1.1" xmlns="http://www.w3.org/2000/svg" xmlns:xlink="http://www.w3.org/1999/xlink">
    <title>Box,_Inc._logo</title>
    <g id="Symbols" stroke="none" stroke-width="1" fill="none" fill-rule="evenodd">
        <g id="Apps/File-Manager" transform="translate(-634.000000, -222.000000)" fill="#0071F7" fill-rule="nonzero">
            <g id="Storages" transform="translate(30.000000, 183.000000)">
                <g id="Box" transform="translate(575.000000, 0.000000)">
                    <g id="logo" transform="translate(20.000000, 20.000000)">
                        <g id="Box,_Inc._logo" transform="translate(9.000000, 19.000000)">
                            <path d="M40.6682927,19.2 C41.1804878,19.9 41.0780488,20.8 40.4634146,21.3 C39.7463415,21.8 38.7219512,21.7 38.2097561,21.1 L34.6243902,16.6 L31.1414634,21 C30.6292683,21.7 29.604878,21.7 28.8878049,21.2 C28.1707317,20.7 28.0682927,19.8 28.5804878,19.1 L32.6780488,13.9 L28.5804878,8.7 C28.0682927,8 28.2731707,7 28.8878049,6.5 C29.604878,6 30.6292683,6.2 31.1414634,6.8 L34.6243902,11.3 L38.2097561,7 C38.7219512,6.3 39.6439024,6.2 40.4634146,6.7 C41.1804878,7.2 41.1804878,8.2 40.6682927,8.9 L36.6731707,14 L40.6682927,19.2 L40.6682927,19.2 Z M22.0243902,18.6 C19.3609756,18.6 17.2097561,16.6 17.2097561,14 C17.2097561,11.5 19.3609756,9.4 22.0243902,9.4 C24.6878049,9.4 26.8390244,11.5 26.8390244,14 C26.7365854,16.6 24.5853659,18.6 22.0243902,18.6 Z M7.88780488,18.6 C5.22439024,18.6 3.07317073,16.6 3.07317073,14 C3.07317073,11.5 5.22439024,9.4 7.88780488,9.4 C10.5512195,9.4 12.702439,11.5 12.702439,14 C12.702439,16.6 10.5512195,18.6 7.88780488,18.6 Z M22.0243902,6.4 C19.0536585,6.4 16.3902439,8 15.0585366,10.4 C13.7268293,8 11.0634146,6.4 7.9902439,6.4 C6.14634146,6.4 4.50731707,7 3.17560976,7.9 L3.17560976,1.5 C3.17560976,0.7 2.45853659,0 1.63902439,0 C0.717073171,0 0,0.7 0,1.5 L0,14.1 C0.102439024,18.3 3.58536585,21.6 7.88780488,21.6 C10.9609756,21.6 13.6243902,19.9 14.9560976,17.5 C16.2878049,19.9 18.9512195,21.6 21.9219512,21.6 C26.3268293,21.6 29.9121951,18.2 29.9121951,13.9 C30.0146341,9.8 26.4292683,6.4 22.0243902,6.4 Z" id="Shape"></path>
                        </g>
                    </g>
                </g>
            </g>
        </g>
    </g>
</svg>