<?xml version="1.0" encoding="UTF-8"?>
<svg width="32px" height="42px" viewBox="0 0 32 42" version="1.1" xmlns="http://www.w3.org/2000/svg" xmlns:xlink="http://www.w3.org/1999/xlink">
    <title>google-sheets</title>
    <g id="Symbols" stroke="none" stroke-width="1" fill="none" fill-rule="evenodd">
        <g id="Apps/File-Manager" transform="translate(-719.000000, -703.000000)" fill-rule="nonzero">
            <g id="Files" transform="translate(29.000000, 595.000000)">
                <g id="Box" transform="translate(576.922481, 42.000000)">
                    <g id="google-sheets" transform="translate(113.077519, 66.000000)">
                        <path d="M28.915942,41.8782609 L2.99130435,41.8782609 C1.33910725,41.8782609 0,40.5391536 0,38.8869565 L0,2.99130435 C0,1.33910725 1.33910725,0 2.99130435,0 L21.9362319,0 L31.9072464,9.97101449 L31.9072464,38.8869565 C31.9072464,40.5391536 30.5681391,41.8782609 28.915942,41.8782609 Z" id="Path" fill="#43A047"></path>
                        <polygon id="Path" fill="#C8E6C9" points="31.9072464 9.97101449 21.9362319 9.97101449 21.9362319 0"></polygon>
                        <polygon id="Path" fill="#2E7D32" points="21.9362319 9.97101449 31.9072464 19.942029 31.9072464 9.97101449"></polygon>
                        <path d="M22.9333333,19.942029 L8.97391304,19.942029 L6.97971014,19.942029 L6.97971014,21.9362319 L6.97971014,23.9304348 L6.97971014,25.9246377 L6.97971014,27.9188406 L6.97971014,29.9130435 L6.97971014,31.9072464 L6.97971014,33.9014493 L24.9275362,33.9014493 L24.9275362,31.9072464 L24.9275362,29.9130435 L24.9275362,27.9188406 L24.9275362,25.9246377 L24.9275362,23.9304348 L24.9275362,21.9362319 L24.9275362,19.942029 L22.9333333,19.942029 Z M8.97391304,21.9362319 L12.9623188,21.9362319 L12.9623188,23.9304348 L8.97391304,23.9304348 L8.97391304,21.9362319 Z M8.97391304,25.9246377 L12.9623188,25.9246377 L12.9623188,27.9188406 L8.97391304,27.9188406 L8.97391304,25.9246377 Z M8.97391304,29.9130435 L12.9623188,29.9130435 L12.9623188,31.9072464 L8.97391304,31.9072464 L8.97391304,29.9130435 Z M22.9333333,31.9072464 L14.9565217,31.9072464 L14.9565217,29.9130435 L22.9333333,29.9130435 L22.9333333,31.9072464 Z M22.9333333,27.9188406 L14.9565217,27.9188406 L14.9565217,25.9246377 L22.9333333,25.9246377 L22.9333333,27.9188406 Z M22.9333333,23.9304348 L14.9565217,23.9304348 L14.9565217,21.9362319 L22.9333333,21.9362319 L22.9333333,23.9304348 Z" id="Shape" fill="#E8F5E9"></path>
                    </g>
                </g>
            </g>
        </g>
    </g>
</svg>